  0
SECTION
  2
HEADER
  9
$ANGBASE
  50
0.0
  9
$ANGDIR
  70
  1
  9
$MEASUREMENT
  70
0
  0
ENDSEC
  0
SECTION
  2
TABLES
  0
TABLE
  2
LTYPE
  70
4
  0
LTYPE
  5
40F
  2
CONTINUOUS
  70
0
  3
Solid line
  72
65
  73
0
  40
0.0
  0
LTYPE
  5
410
  2
DASHDOT
 70
0
  3
Dash Dot ____ _ ____ _
 72
65
 73
4
 40
2.0
 49
1.25
 49
-0.25
 49
0.25
 49
-0.25
  0
LTYPE
  5
411
  2
DASHED
 70
0
  3
Dashed __ __ __ __ __
 72
65
 73
2
 40
0.75
 49
0.5
 49
-0.25
  0
LTYPE
  5
43B
  2
DOTTED
 70
0
  3
Dotted .  .  .  .
 72
65
 73
2
 40
0.2
 49
0.0
 49
-0.2
  0
ENDTAB
  0
TABLE
  2
STYLE
  70
4
  0
STYLE
  2
KICAD
  70
0
  40
0
  41
1
  42
1
  50
0
  71
0
  3
isocp.shx
  0
STYLE
  2
KICADB
  70
0
  40
0
  41
1
  42
1
  50
0
  71
0
  3
isocp.shx
  0
STYLE
  2
KICADI
  70
0
  40
0
  41
1
  42
1
  50
15
  71
0
  3
isocp.shx
  0
STYLE
  2
KICADBI
  70
0
  40
0
  41
1
  42
1
  50
15
  71
0
  3
isocp.shx
  0
ENDTAB
  0
TABLE
  2
LAYER
  70
30
  0
LAYER
  2
BLACK
  70
0
  62
7
  6
CONTINUOUS
  0
LAYER
  2
GRAY1
  70
0
  62
251
  6
CONTINUOUS
  0
LAYER
  2
GRAY2
  70
0
  62
8
  6
CONTINUOUS
  0
LAYER
  2
GRAY3
  70
0
  62
9
  6
CONTINUOUS
  0
LAYER
  2
WHITE
  70
0
  62
7
  6
CONTINUOUS
  0
LAYER
  2
LYELLOW
  70
0
  62
51
  6
CONTINUOUS
  0
LAYER
  2
BLUE1
  70
0
  62
178
  6
CONTINUOUS
  0
LAYER
  2
GREEN1
  70
0
  62
98
  6
CONTINUOUS
  0
LAYER
  2
CYAN1
  70
0
  62
138
  6
CONTINUOUS
  0
LAYER
  2
RED1
  70
0
  62
18
  6
CONTINUOUS
  0
LAYER
  2
MAGENTA1
  70
0
  62
228
  6
CONTINUOUS
  0
LAYER
  2
BROWN1
  70
0
  62
58
  6
CONTINUOUS
  0
LAYER
  2
BLUE2
  70
0
  62
5
  6
CONTINUOUS
  0
LAYER
  2
GREEN2
  70
0
  62
3
  6
CONTINUOUS
  0
LAYER
  2
CYAN2
  70
0
  62
4
  6
CONTINUOUS
  0
LAYER
  2
RED2
  70
0
  62
1
  6
CONTINUOUS
  0
LAYER
  2
MAGENTA2
  70
0
  62
6
  6
CONTINUOUS
  0
LAYER
  2
BROWN2
  70
0
  62
54
  6
CONTINUOUS
  0
LAYER
  2
BLUE3
  70
0
  62
171
  6
CONTINUOUS
  0
LAYER
  2
GREEN3
  70
0
  62
91
  6
CONTINUOUS
  0
LAYER
  2
CYAN3
  70
0
  62
131
  6
CONTINUOUS
  0
LAYER
  2
RED3
  70
0
  62
11
  6
CONTINUOUS
  0
LAYER
  2
MAGENTA3
  70
0
  62
221
  6
CONTINUOUS
  0
LAYER
  2
YELLOW3
  70
0
  62
2
  6
CONTINUOUS
  0
LAYER
  2
BLUE4
  70
0
  62
5
  6
CONTINUOUS
  0
LAYER
  2
GREEN4
  70
0
  62
3
  6
CONTINUOUS
  0
LAYER
  2
CYAN4
  70
0
  62
4
  6
CONTINUOUS
  0
LAYER
  2
RED4
  70
0
  62
1
  6
CONTINUOUS
  0
LAYER
  2
MAGENTA4
  70
0
  62
6
  6
CONTINUOUS
  0
LAYER
  2
YELLOW4
  70
0
  62
2
  6
CONTINUOUS
  0
ENDTAB
  0
ENDSEC
  0
SECTION
  2
ENTITIES
0
LINE
8
BLACK
6
CONTINUOUS
10
245.473
20
-37.009
11
245.479
21
-37.009
0
LINE
8
BLACK
6
CONTINUOUS
10
245.479
20
-37.009
11
245.485
21
-37.0113
0
LINE
8
BLACK
6
CONTINUOUS
10
245.485
20
-37.0113
11
245.492
21
-37.0124
0
LINE
8
BLACK
6
CONTINUOUS
10
245.492
20
-37.0124
11
245.498
21
-37.0158
0
LINE
8
BLACK
6
CONTINUOUS
10
245.498
20
-37.0158
11
245.504
21
-37.018
0
LINE
8
BLACK
6
CONTINUOUS
10
245.504
20
-37.018
11
245.509
21
-37.0223
0
LINE
8
BLACK
6
CONTINUOUS
10
245.509
20
-37.0223
11
245.515
21
-37.0257
0
LINE
8
BLACK
6
CONTINUOUS
10
245.515
20
-37.0257
11
245.519
21
-37.0308
0
LINE
8
BLACK
6
CONTINUOUS
10
245.519
20
-37.0308
11
245.524
21
-37.035
0
LINE
8
BLACK
6
CONTINUOUS
10
245.524
20
-37.035
11
245.528
21
-37.0408
0
LINE
8
BLACK
6
CONTINUOUS
10
245.528
20
-37.0408
11
245.532
21
-37.0459
0
LINE
8
BLACK
6
CONTINUOUS
10
245.532
20
-37.0459
11
245.534
21
-37.0522
0
LINE
8
BLACK
6
CONTINUOUS
10
245.534
20
-37.0522
11
245.538
21
-37.058
0
LINE
8
BLACK
6
CONTINUOUS
10
245.538
20
-37.058
11
245.539
21
-37.0645
0
LINE
8
BLACK
6
CONTINUOUS
10
245.539
20
-37.0645
11
245.541
21
-37.0708
0
LINE
8
BLACK
6
CONTINUOUS
10
245.541
20
-37.0708
11
245.541
21
-37.0774
0
LINE
8
BLACK
6
CONTINUOUS
10
245.541
20
-37.0774
11
245.541
21
-37.0774
0
LINE
8
BLACK
6
CONTINUOUS
10
245.541
20
-37.0774
11
245.541
21
-142.091
0
LINE
8
BLACK
6
CONTINUOUS
10
245.541
20
-142.091
11
245.541
21
-142.091
0
LINE
8
BLACK
6
CONTINUOUS
10
245.541
20
-142.091
11
245.541
21
-142.097
0
LINE
8
BLACK
6
CONTINUOUS
10
245.541
20
-142.097
11
245.539
21
-142.103
0
LINE
8
BLACK
6
CONTINUOUS
10
245.539
20
-142.103
11
245.538
21
-142.11
0
LINE
8
BLACK
6
CONTINUOUS
10
245.538
20
-142.11
11
245.534
21
-142.116
0
LINE
8
BLACK
6
CONTINUOUS
10
245.534
20
-142.116
11
245.532
21
-142.122
0
LINE
8
BLACK
6
CONTINUOUS
10
245.532
20
-142.122
11
245.528
21
-142.127
0
LINE
8
BLACK
6
CONTINUOUS
10
245.528
20
-142.127
11
245.524
21
-142.133
0
LINE
8
BLACK
6
CONTINUOUS
10
245.524
20
-142.133
11
245.519
21
-142.137
0
LINE
8
BLACK
6
CONTINUOUS
10
245.519
20
-142.137
11
245.515
21
-142.142
0
LINE
8
BLACK
6
CONTINUOUS
10
245.515
20
-142.142
11
245.509
21
-142.146
0
LINE
8
BLACK
6
CONTINUOUS
10
245.509
20
-142.146
11
245.504
21
-142.15
0
LINE
8
BLACK
6
CONTINUOUS
10
245.504
20
-142.15
11
245.498
21
-142.152
0
LINE
8
BLACK
6
CONTINUOUS
10
245.498
20
-142.152
11
245.492
21
-142.156
0
LINE
8
BLACK
6
CONTINUOUS
10
245.492
20
-142.156
11
245.485
21
-142.157
0
LINE
8
BLACK
6
CONTINUOUS
10
245.485
20
-142.157
11
245.479
21
-142.159
0
LINE
8
BLACK
6
CONTINUOUS
10
245.479
20
-142.159
11
245.473
21
-142.159
0
LINE
8
BLACK
6
CONTINUOUS
10
245.473
20
-142.159
11
245.473
21
-142.159
0
LINE
8
BLACK
6
CONTINUOUS
10
245.473
20
-142.159
11
45.4594
21
-142.159
0
LINE
8
BLACK
6
CONTINUOUS
10
45.4594
20
-142.159
11
45.4594
21
-142.159
0
LINE
8
BLACK
6
CONTINUOUS
10
45.4594
20
-142.159
11
45.4528
21
-142.159
0
LINE
8
BLACK
6
CONTINUOUS
10
45.4528
20
-142.159
11
45.4465
21
-142.157
0
LINE
8
BLACK
6
CONTINUOUS
10
45.4465
20
-142.157
11
45.44
21
-142.156
0
LINE
8
BLACK
6
CONTINUOUS
10
45.44
20
-142.156
11
45.4342
21
-142.152
0
LINE
8
BLACK
6
CONTINUOUS
10
45.4342
20
-142.152
11
45.4279
21
-142.15
0
LINE
8
BLACK
6
CONTINUOUS
10
45.4279
20
-142.15
11
45.4228
21
-142.146
0
LINE
8
BLACK
6
CONTINUOUS
10
45.4228
20
-142.146
11
45.417
21
-142.142
0
LINE
8
BLACK
6
CONTINUOUS
10
45.417
20
-142.142
11
45.4128
21
-142.137
0
LINE
8
BLACK
6
CONTINUOUS
10
45.4128
20
-142.137
11
45.4077
21
-142.133
0
LINE
8
BLACK
6
CONTINUOUS
10
45.4077
20
-142.133
11
45.4043
21
-142.127
0
LINE
8
BLACK
6
CONTINUOUS
10
45.4043
20
-142.127
11
45.4
21
-142.122
0
LINE
8
BLACK
6
CONTINUOUS
10
45.4
20
-142.122
11
45.3978
21
-142.116
0
LINE
8
BLACK
6
CONTINUOUS
10
45.3978
20
-142.116
11
45.3944
21
-142.11
0
LINE
8
BLACK
6
CONTINUOUS
10
45.3944
20
-142.11
11
45.3933
21
-142.103
0
LINE
8
BLACK
6
CONTINUOUS
10
45.3933
20
-142.103
11
45.391
21
-142.097
0
LINE
8
BLACK
6
CONTINUOUS
10
45.391
20
-142.097
11
45.391
21
-142.071
0
LINE
8
BLACK
6
CONTINUOUS
10
45.391
20
-142.071
11
45.391
21
-37.0774
0
LINE
8
BLACK
6
CONTINUOUS
10
45.391
20
-37.0774
11
45.391
21
-37.0774
0
LINE
8
BLACK
6
CONTINUOUS
10
45.391
20
-37.0774
11
45.391
21
-37.0708
0
LINE
8
BLACK
6
CONTINUOUS
10
45.391
20
-37.0708
11
45.3933
21
-37.0645
0
LINE
8
BLACK
6
CONTINUOUS
10
45.3933
20
-37.0645
11
45.3944
21
-37.058
0
LINE
8
BLACK
6
CONTINUOUS
10
45.3944
20
-37.058
11
45.3978
21
-37.0522
0
LINE
8
BLACK
6
CONTINUOUS
10
45.3978
20
-37.0522
11
45.4
21
-37.0459
0
LINE
8
BLACK
6
CONTINUOUS
10
45.4
20
-37.0459
11
45.4043
21
-37.0408
0
LINE
8
BLACK
6
CONTINUOUS
10
45.4043
20
-37.0408
11
45.4077
21
-37.035
0
LINE
8
BLACK
6
CONTINUOUS
10
45.4077
20
-37.035
11
45.4128
21
-37.0308
0
LINE
8
BLACK
6
CONTINUOUS
10
45.4128
20
-37.0308
11
45.417
21
-37.0257
0
LINE
8
BLACK
6
CONTINUOUS
10
45.417
20
-37.0257
11
45.4228
21
-37.0223
0
LINE
8
BLACK
6
CONTINUOUS
10
45.4228
20
-37.0223
11
45.4279
21
-37.018
0
LINE
8
BLACK
6
CONTINUOUS
10
45.4279
20
-37.018
11
45.4342
21
-37.0158
0
LINE
8
BLACK
6
CONTINUOUS
10
45.4342
20
-37.0158
11
45.44
21
-37.0124
0
LINE
8
BLACK
6
CONTINUOUS
10
45.44
20
-37.0124
11
45.4465
21
-37.0113
0
LINE
8
BLACK
6
CONTINUOUS
10
45.4465
20
-37.0113
11
45.4528
21
-37.009
0
LINE
8
BLACK
6
CONTINUOUS
10
45.4528
20
-37.009
11
45.4594
21
-37.009
0
LINE
8
BLACK
6
CONTINUOUS
10
45.4594
20
-37.009
11
45.4594
21
-37.009
0
LINE
8
BLACK
6
CONTINUOUS
10
45.4594
20
-37.009
11
245.473
21
-37.009
0
LINE
8
BLACK
6
CONTINUOUS
10
245.473
20
-37.009
11
245.473
21
-37.009
0
LINE
8
BLACK
6
CONTINUOUS
10
45.541
20
-37.159
11
45.541
21
-142.009
0
LINE
8
BLACK
6
CONTINUOUS
10
45.541
20
-142.009
11
245.391
21
-142.009
0
LINE
8
BLACK
6
CONTINUOUS
10
245.391
20
-142.009
11
245.391
21
-37.159
0
LINE
8
BLACK
6
CONTINUOUS
10
245.391
20
-37.159
11
45.541
21
-37.159
  0
ENDSEC
  0
EOF
