M48
; DRILL file {KiCad (5.1.5)-3} date 10.06.2020 12:11:39
; FORMAT={3:3/ absolute / metric / suppress leading zeros}
; #@! TF.CreationDate,2020-06-10T12:11:39+02:00
; #@! TF.GenerationSoftware,Kicad,Pcbnew,(5.1.5)-3
FMAT,2
METRIC,TZ
T1C0.300
T2C0.600
T3C0.750
T4C0.800
T5C0.900
T6C1.000
T7C1.100
T8C1.200
T9C1.300
T10C1.600
T11C3.170
T12C3.200
T13C2.700
T14C2.900
%
G90
G05
T1
X48366Y-56584
X48466Y-52584
X51166Y-52584
X51166Y-56584
X53066Y-67434
X53466Y-52584
X53466Y-56584
X54466Y-85084
X54466Y-87084
X55566Y-52084
X57566Y-135484
X57893Y-97557
X60666Y-100784
X60866Y-120184
X61666Y-57784
X62466Y-74084
X62466Y-79084
X63466Y-97084
X63466Y-101084
X63466Y-106084
X63466Y-107084
X63466Y-129084
X63766Y-51884
X63766Y-59084
X65166Y-55584
X65566Y-60884
X65766Y-58284
X65866Y-51384
X65866Y-52984
X66266Y-46884
X66466Y-111084
X66466Y-112084
X66566Y-122484
X67466Y-63084
X67466Y-64084
X67766Y-133284
X68566Y-54184
X69166Y-91384
X69466Y-60284
X69466Y-79084
X69666Y-41184
X69726Y-124184
X69772Y-45278
X70366Y-48584
X70546Y-125984
X70616Y-55703
X71366Y-56584
X71366Y-61184
X72366Y-108784
X72366Y-107384
X73366Y-114084
X73516Y-92681
X74166Y-43884
X74366Y-47284
X74466Y-85084
X74566Y-54984
X74766Y-117984
X74866Y-107084
X75366Y-123284
X75466Y-74084
X75566Y-108284
X75666Y-55584
X75866Y-65584
X76366Y-91084
X76566Y-56284
X76766Y-59884
X77262Y-51159
X77266Y-92684
X77416Y-53084
X77466Y-50384
X77466Y-97084
X77466Y-103984
X77599Y-115542
X77666Y-46984
X77766Y-108494
X77941Y-51933
X78286Y-107714
X78466Y-119284
X78966Y-105684
X79966Y-51784
X79966Y-59284
X80126Y-127244
X80366Y-121084
X80466Y-94084
X80566Y-113884
X80566Y-115584
X80566Y-119684
X80816Y-56734
X81066Y-54684
X81291Y-122809
X81991Y-98209
X82326Y-114274
X82366Y-125884
X82386Y-116344
X82466Y-94084
X82651Y-111502
X82666Y-50184
X84386Y-110664
X84466Y-59484
X84466Y-103084
X84466Y-105084
X84466Y-106084
X84766Y-111764
X84766Y-112984
X85466Y-59484
X85476Y-115014
X85726Y-116564
X85734Y-114003
X85766Y-111084
X86166Y-119284
X86266Y-124784
X86566Y-59484
X87366Y-53484
X87466Y-59484
X87466Y-103084
X87566Y-123684
X87666Y-58484
X88366Y-106084
X88966Y-123684
X89186Y-109364
X89266Y-108084
X89466Y-59084
X90006Y-111734
X90166Y-123684
X90466Y-59084
X90807Y-126109
X91466Y-59084
X91476Y-108914
X91666Y-123584
X91766Y-73084
X92466Y-59084
X93466Y-59084
X93566Y-110584
X93766Y-106084
X94466Y-59084
X95266Y-139484
X95466Y-109684
X95466Y-108784
X95486Y-110524
X96566Y-65584
X96566Y-74284
X96766Y-139484
X99566Y-128884
X103466Y-115084
X103866Y-121734
X104166Y-120659
X104466Y-116084
X110466Y-97084
X111466Y-97084
X112466Y-97084
X113466Y-97084
X113866Y-116984
X114466Y-97084
X115866Y-116984
X117266Y-95984
X117566Y-103384
X117566Y-104284
X118766Y-103384
X118766Y-104284
X120266Y-138184
X120466Y-104884
X121466Y-104884
X121966Y-137184
X122366Y-56184
X122466Y-47084
X122466Y-102984
X122466Y-104084
X124466Y-98084
X125466Y-51084
X125466Y-54084
X125466Y-98084
X126466Y-98084
X127466Y-98084
X128466Y-98084
X129466Y-98084
X130466Y-51084
X130466Y-54084
X133466Y-47084
X133466Y-56184
X135966Y-122484
X136666Y-134184
X136766Y-121784
X137366Y-139784
X137966Y-129684
X138766Y-138184
X140966Y-124784
X140966Y-123484
X141166Y-125984
X146166Y-120084
X150166Y-133684
X152466Y-105084
X152466Y-107084
X152466Y-108084
X152466Y-110084
X153466Y-104084
X153466Y-111084
X153740Y-116358
X154466Y-103084
X154466Y-112084
X156667Y-119233
X157766Y-116334
X161741Y-127059
X161741Y-129259
X161791Y-125959
X163466Y-129284
X164666Y-134784
X164991Y-123759
X165027Y-124859
X165166Y-118284
X176266Y-139384
X187566Y-139384
X188966Y-121884
X190866Y-100084
X192066Y-130284
X192566Y-77084
X192966Y-74984
X194366Y-98884
X195340Y-98158
X195766Y-74984
X196066Y-134784
X196166Y-77084
X196466Y-79084
X197466Y-80084
X197466Y-86084
X197466Y-99484
X197966Y-81084
X197966Y-134584
X198066Y-132084
X198466Y-85084
X199166Y-132184
X199566Y-86084
X199675Y-139375
X200166Y-102684
X200466Y-85084
X201366Y-97384
X201466Y-86084
X201966Y-81184
X202466Y-80084
X202466Y-85084
X203466Y-79084
X203866Y-77484
X203904Y-129647
X204166Y-74984
X204266Y-94984
X204666Y-102684
X205066Y-94284
X205566Y-132384
X205767Y-92883
X206966Y-74984
X207266Y-77484
X207466Y-86084
X207466Y-87084
X207466Y-88084
X207466Y-89084
X209066Y-100784
X209666Y-126884
X211466Y-86084
X211466Y-87084
X211466Y-88084
X211466Y-89084
X212266Y-120884
X212866Y-120084
X213466Y-119184
X221666Y-115684
X233466Y-121084
X233466Y-123084
X237466Y-119084
X237466Y-121084
X237466Y-123084
X239866Y-113084
X73536Y-50454
X73536Y-51384
X73536Y-52314
X74466Y-50454
X74466Y-51384
X74466Y-52314
X75396Y-50454
X75396Y-51384
X75396Y-52314
T2
X228366Y-118884
X230366Y-118884
X211966Y-110784
X213966Y-110784
X177066Y-110584
X179066Y-110584
X57478Y-90536
X59478Y-90536
X146166Y-129484
X146166Y-131484
X237966Y-107884
X239966Y-107884
X49878Y-108186
X51878Y-108186
X218066Y-132884
X218066Y-134884
X217966Y-127584
X217966Y-129584
X76566Y-68284
X78566Y-68284
T3
X129266Y-129284
X130536Y-129284
X131806Y-129284
X129296Y-135984
X130566Y-135984
X131836Y-135984
T4
X217741Y-110534
X222741Y-110534
X180900Y-51000
X185900Y-51000
X171766Y-130000
X176766Y-130000
X214900Y-66000
X219900Y-66000
X214066Y-124084
X219066Y-124084
X182291Y-110559
X187291Y-110559
X171900Y-51000
X176900Y-51000
X214900Y-55000
X219900Y-55000
X198266Y-124084
X203266Y-124084
X203566Y-138500
X208566Y-138500
X191766Y-138500
X196766Y-138500
X223900Y-51000
X228900Y-51000
X206166Y-124084
X211166Y-124084
X218900Y-61000
X223900Y-61000
X180166Y-138500
X185166Y-138500
X214900Y-51000
X219900Y-51000
X179866Y-124048
X184866Y-124048
X176400Y-61000
X181400Y-61000
X125666Y-111384
X128166Y-111384
X130666Y-111384
X191116Y-107934
X191116Y-112934
X190366Y-124084
X195366Y-124084
X179900Y-66000
X184900Y-66000
X89666Y-43684
X92166Y-43684
X223900Y-55000
X228900Y-55000
X180900Y-55000
X185900Y-55000
X226291Y-107984
X226291Y-112984
X179866Y-130000
X184866Y-130000
X171900Y-55000
X176900Y-55000
X171766Y-124048
X176766Y-124048
X145166Y-96884
X145166Y-99384
T5
X95526Y-121384
X98066Y-121384
T6
X50366Y-120084
X50366Y-122624
X50366Y-125164
X50366Y-127704
X50366Y-130244
X52906Y-120084
X52906Y-122624
X52906Y-125164
X52906Y-127704
X52906Y-130244
X102006Y-125084
X102006Y-127624
X104546Y-125084
X104546Y-127624
X107086Y-125084
X107086Y-127624
X109626Y-125084
X109626Y-127624
X112166Y-125084
X112166Y-127624
X213586Y-138484
X216126Y-138484
X218666Y-138484
X61226Y-83384
X63766Y-83384
X63916Y-132044
X63916Y-134584
X66456Y-132044
X66456Y-134584
X68996Y-132044
X68996Y-134584
X71536Y-132044
X71536Y-134584
X74076Y-132044
X74076Y-134584
X76616Y-132044
X76616Y-134584
X79156Y-132044
X79156Y-134584
X81696Y-132044
X81696Y-134584
X84236Y-132044
X84236Y-134584
X86776Y-132044
X86776Y-134584
X89316Y-132044
X89316Y-134584
X91856Y-132044
X91856Y-134584
X94396Y-132044
X94396Y-134584
X96936Y-132044
X96936Y-134584
X99476Y-132044
X99476Y-134584
X102016Y-132044
X102016Y-134584
X104556Y-132044
X104556Y-134584
X107096Y-132044
X107096Y-134584
X109636Y-132044
X109636Y-134584
X112176Y-132044
X112176Y-134584
X116911Y-126959
X116911Y-129499
X116911Y-132039
X116911Y-134579
X50366Y-113984
X52906Y-113984
X148366Y-84484
X148366Y-87024
X148366Y-89564
X148366Y-92104
X150906Y-84484
X150906Y-87024
X150906Y-89564
X150906Y-92104
X228226Y-125284
X230766Y-125284
X197116Y-117044
X197116Y-119584
X199656Y-117044
X199656Y-119584
X202196Y-117044
X202196Y-119584
X204736Y-117044
X204736Y-119584
X207276Y-117044
X207276Y-119584
X209816Y-117044
X209816Y-119584
X108166Y-43184
X108166Y-45724
X108166Y-48264
X108166Y-50804
X110706Y-43184
X110706Y-45724
X110706Y-48264
X110706Y-50804
T7
X192366Y-41884
X197366Y-41884
X202366Y-41884
X207366Y-41884
X50066Y-73284
X50066Y-78284
X50066Y-83284
X50066Y-88284
X50066Y-49584
X50066Y-54584
T8
X235000Y-77950
X240000Y-77950
X107166Y-76284
X107166Y-81284
X235000Y-97950
X240000Y-97950
X160000Y-77950
X165000Y-77950
X160000Y-97950
X165000Y-97950
T9
X57166Y-75934
X79666Y-75934
T10
X165406Y-59000
X165406Y-65000
X206900Y-59000
X206900Y-65000
X234900Y-59000
X234900Y-65000
X192900Y-59000
X192900Y-65000
T11
X176380Y-74870
X176380Y-101030
X223620Y-74870
X223620Y-101030
T12
X145466Y-137084
X145466Y-42084
X50466Y-137084
X50466Y-42084
X240466Y-137084
X240466Y-42084
T13
X68416Y-75934
T14
X96966Y-42884
X96966Y-95384
X133466Y-42884
X133466Y-95384
T0
M30
