G04 #@! TF.GenerationSoftware,KiCad,Pcbnew,(5.1.6)-1*
G04 #@! TF.CreationDate,2020-07-13T14:49:25+02:00*
G04 #@! TF.ProjectId,MukkeBox,4d756b6b-6542-46f7-982e-6b696361645f,rev?*
G04 #@! TF.SameCoordinates,Original*
G04 #@! TF.FileFunction,Paste,Top*
G04 #@! TF.FilePolarity,Positive*
%FSLAX46Y46*%
G04 Gerber Fmt 4.6, Leading zero omitted, Abs format (unit mm)*
G04 Created by KiCad (PCBNEW (5.1.6)-1) date 2020-07-13 14:49:25*
%MOMM*%
%LPD*%
G01*
G04 APERTURE LIST*
%ADD10C,0.150000*%
%ADD11R,0.420000X0.700000*%
%ADD12R,0.420000X0.560000*%
%ADD13R,1.000000X0.600000*%
%ADD14R,0.900000X0.800000*%
%ADD15R,1.850000X13.700000*%
%ADD16R,0.250000X1.300000*%
%ADD17R,1.300000X0.250000*%
%ADD18R,0.400000X1.100000*%
%ADD19R,2.000000X4.500000*%
%ADD20R,1.500000X3.600000*%
%ADD21R,0.650000X1.560000*%
%ADD22R,0.800000X0.900000*%
%ADD23R,0.650000X1.220000*%
%ADD24R,4.000000X3.850000*%
%ADD25R,0.760000X0.660000*%
%ADD26R,0.305000X1.550000*%
%ADD27R,1.300000X1.200000*%
%ADD28R,0.950000X1.000000*%
%ADD29R,0.700000X0.420000*%
%ADD30R,0.560000X0.420000*%
%ADD31R,0.600000X1.000000*%
%ADD32R,2.400000X0.800000*%
%ADD33R,3.300000X5.000000*%
%ADD34R,3.500000X3.800000*%
%ADD35R,0.400000X1.200000*%
G04 APERTURE END LIST*
G36*
G01*
X75203500Y-111709000D02*
X74728500Y-111709000D01*
G75*
G02*
X74491000Y-111471500I0J237500D01*
G01*
X74491000Y-110896500D01*
G75*
G02*
X74728500Y-110659000I237500J0D01*
G01*
X75203500Y-110659000D01*
G75*
G02*
X75441000Y-110896500I0J-237500D01*
G01*
X75441000Y-111471500D01*
G75*
G02*
X75203500Y-111709000I-237500J0D01*
G01*
G37*
G36*
G01*
X75203500Y-113459000D02*
X74728500Y-113459000D01*
G75*
G02*
X74491000Y-113221500I0J237500D01*
G01*
X74491000Y-112646500D01*
G75*
G02*
X74728500Y-112409000I237500J0D01*
G01*
X75203500Y-112409000D01*
G75*
G02*
X75441000Y-112646500I0J-237500D01*
G01*
X75441000Y-113221500D01*
G75*
G02*
X75203500Y-113459000I-237500J0D01*
G01*
G37*
G36*
G01*
X166616000Y-85696500D02*
X166616000Y-86171500D01*
G75*
G02*
X166378500Y-86409000I-237500J0D01*
G01*
X165803500Y-86409000D01*
G75*
G02*
X165566000Y-86171500I0J237500D01*
G01*
X165566000Y-85696500D01*
G75*
G02*
X165803500Y-85459000I237500J0D01*
G01*
X166378500Y-85459000D01*
G75*
G02*
X166616000Y-85696500I0J-237500D01*
G01*
G37*
G36*
G01*
X164866000Y-85696500D02*
X164866000Y-86171500D01*
G75*
G02*
X164628500Y-86409000I-237500J0D01*
G01*
X164053500Y-86409000D01*
G75*
G02*
X163816000Y-86171500I0J237500D01*
G01*
X163816000Y-85696500D01*
G75*
G02*
X164053500Y-85459000I237500J0D01*
G01*
X164628500Y-85459000D01*
G75*
G02*
X164866000Y-85696500I0J-237500D01*
G01*
G37*
G36*
G01*
X79428500Y-44484000D02*
X80078500Y-44484000D01*
G75*
G02*
X80141000Y-44546500I0J-62500D01*
G01*
X80141000Y-44671500D01*
G75*
G02*
X80078500Y-44734000I-62500J0D01*
G01*
X79428500Y-44734000D01*
G75*
G02*
X79366000Y-44671500I0J62500D01*
G01*
X79366000Y-44546500D01*
G75*
G02*
X79428500Y-44484000I62500J0D01*
G01*
G37*
G36*
G01*
X79428500Y-44984000D02*
X80078500Y-44984000D01*
G75*
G02*
X80141000Y-45046500I0J-62500D01*
G01*
X80141000Y-45171500D01*
G75*
G02*
X80078500Y-45234000I-62500J0D01*
G01*
X79428500Y-45234000D01*
G75*
G02*
X79366000Y-45171500I0J62500D01*
G01*
X79366000Y-45046500D01*
G75*
G02*
X79428500Y-44984000I62500J0D01*
G01*
G37*
G36*
G01*
X79428500Y-45484000D02*
X80078500Y-45484000D01*
G75*
G02*
X80141000Y-45546500I0J-62500D01*
G01*
X80141000Y-45671500D01*
G75*
G02*
X80078500Y-45734000I-62500J0D01*
G01*
X79428500Y-45734000D01*
G75*
G02*
X79366000Y-45671500I0J62500D01*
G01*
X79366000Y-45546500D01*
G75*
G02*
X79428500Y-45484000I62500J0D01*
G01*
G37*
G36*
G01*
X79428500Y-45984000D02*
X80078500Y-45984000D01*
G75*
G02*
X80141000Y-46046500I0J-62500D01*
G01*
X80141000Y-46171500D01*
G75*
G02*
X80078500Y-46234000I-62500J0D01*
G01*
X79428500Y-46234000D01*
G75*
G02*
X79366000Y-46171500I0J62500D01*
G01*
X79366000Y-46046500D01*
G75*
G02*
X79428500Y-45984000I62500J0D01*
G01*
G37*
G36*
G01*
X79428500Y-46484000D02*
X80078500Y-46484000D01*
G75*
G02*
X80141000Y-46546500I0J-62500D01*
G01*
X80141000Y-46671500D01*
G75*
G02*
X80078500Y-46734000I-62500J0D01*
G01*
X79428500Y-46734000D01*
G75*
G02*
X79366000Y-46671500I0J62500D01*
G01*
X79366000Y-46546500D01*
G75*
G02*
X79428500Y-46484000I62500J0D01*
G01*
G37*
G36*
G01*
X79428500Y-46984000D02*
X80078500Y-46984000D01*
G75*
G02*
X80141000Y-47046500I0J-62500D01*
G01*
X80141000Y-47171500D01*
G75*
G02*
X80078500Y-47234000I-62500J0D01*
G01*
X79428500Y-47234000D01*
G75*
G02*
X79366000Y-47171500I0J62500D01*
G01*
X79366000Y-47046500D01*
G75*
G02*
X79428500Y-46984000I62500J0D01*
G01*
G37*
G36*
G01*
X78953500Y-47459000D02*
X79078500Y-47459000D01*
G75*
G02*
X79141000Y-47521500I0J-62500D01*
G01*
X79141000Y-48171500D01*
G75*
G02*
X79078500Y-48234000I-62500J0D01*
G01*
X78953500Y-48234000D01*
G75*
G02*
X78891000Y-48171500I0J62500D01*
G01*
X78891000Y-47521500D01*
G75*
G02*
X78953500Y-47459000I62500J0D01*
G01*
G37*
G36*
G01*
X78453500Y-47459000D02*
X78578500Y-47459000D01*
G75*
G02*
X78641000Y-47521500I0J-62500D01*
G01*
X78641000Y-48171500D01*
G75*
G02*
X78578500Y-48234000I-62500J0D01*
G01*
X78453500Y-48234000D01*
G75*
G02*
X78391000Y-48171500I0J62500D01*
G01*
X78391000Y-47521500D01*
G75*
G02*
X78453500Y-47459000I62500J0D01*
G01*
G37*
G36*
G01*
X77953500Y-47459000D02*
X78078500Y-47459000D01*
G75*
G02*
X78141000Y-47521500I0J-62500D01*
G01*
X78141000Y-48171500D01*
G75*
G02*
X78078500Y-48234000I-62500J0D01*
G01*
X77953500Y-48234000D01*
G75*
G02*
X77891000Y-48171500I0J62500D01*
G01*
X77891000Y-47521500D01*
G75*
G02*
X77953500Y-47459000I62500J0D01*
G01*
G37*
G36*
G01*
X77453500Y-47459000D02*
X77578500Y-47459000D01*
G75*
G02*
X77641000Y-47521500I0J-62500D01*
G01*
X77641000Y-48171500D01*
G75*
G02*
X77578500Y-48234000I-62500J0D01*
G01*
X77453500Y-48234000D01*
G75*
G02*
X77391000Y-48171500I0J62500D01*
G01*
X77391000Y-47521500D01*
G75*
G02*
X77453500Y-47459000I62500J0D01*
G01*
G37*
G36*
G01*
X76953500Y-47459000D02*
X77078500Y-47459000D01*
G75*
G02*
X77141000Y-47521500I0J-62500D01*
G01*
X77141000Y-48171500D01*
G75*
G02*
X77078500Y-48234000I-62500J0D01*
G01*
X76953500Y-48234000D01*
G75*
G02*
X76891000Y-48171500I0J62500D01*
G01*
X76891000Y-47521500D01*
G75*
G02*
X76953500Y-47459000I62500J0D01*
G01*
G37*
G36*
G01*
X76453500Y-47459000D02*
X76578500Y-47459000D01*
G75*
G02*
X76641000Y-47521500I0J-62500D01*
G01*
X76641000Y-48171500D01*
G75*
G02*
X76578500Y-48234000I-62500J0D01*
G01*
X76453500Y-48234000D01*
G75*
G02*
X76391000Y-48171500I0J62500D01*
G01*
X76391000Y-47521500D01*
G75*
G02*
X76453500Y-47459000I62500J0D01*
G01*
G37*
G36*
G01*
X75453500Y-46984000D02*
X76103500Y-46984000D01*
G75*
G02*
X76166000Y-47046500I0J-62500D01*
G01*
X76166000Y-47171500D01*
G75*
G02*
X76103500Y-47234000I-62500J0D01*
G01*
X75453500Y-47234000D01*
G75*
G02*
X75391000Y-47171500I0J62500D01*
G01*
X75391000Y-47046500D01*
G75*
G02*
X75453500Y-46984000I62500J0D01*
G01*
G37*
G36*
G01*
X75453500Y-46484000D02*
X76103500Y-46484000D01*
G75*
G02*
X76166000Y-46546500I0J-62500D01*
G01*
X76166000Y-46671500D01*
G75*
G02*
X76103500Y-46734000I-62500J0D01*
G01*
X75453500Y-46734000D01*
G75*
G02*
X75391000Y-46671500I0J62500D01*
G01*
X75391000Y-46546500D01*
G75*
G02*
X75453500Y-46484000I62500J0D01*
G01*
G37*
G36*
G01*
X75453500Y-45984000D02*
X76103500Y-45984000D01*
G75*
G02*
X76166000Y-46046500I0J-62500D01*
G01*
X76166000Y-46171500D01*
G75*
G02*
X76103500Y-46234000I-62500J0D01*
G01*
X75453500Y-46234000D01*
G75*
G02*
X75391000Y-46171500I0J62500D01*
G01*
X75391000Y-46046500D01*
G75*
G02*
X75453500Y-45984000I62500J0D01*
G01*
G37*
G36*
G01*
X75453500Y-45484000D02*
X76103500Y-45484000D01*
G75*
G02*
X76166000Y-45546500I0J-62500D01*
G01*
X76166000Y-45671500D01*
G75*
G02*
X76103500Y-45734000I-62500J0D01*
G01*
X75453500Y-45734000D01*
G75*
G02*
X75391000Y-45671500I0J62500D01*
G01*
X75391000Y-45546500D01*
G75*
G02*
X75453500Y-45484000I62500J0D01*
G01*
G37*
G36*
G01*
X75453500Y-44984000D02*
X76103500Y-44984000D01*
G75*
G02*
X76166000Y-45046500I0J-62500D01*
G01*
X76166000Y-45171500D01*
G75*
G02*
X76103500Y-45234000I-62500J0D01*
G01*
X75453500Y-45234000D01*
G75*
G02*
X75391000Y-45171500I0J62500D01*
G01*
X75391000Y-45046500D01*
G75*
G02*
X75453500Y-44984000I62500J0D01*
G01*
G37*
G36*
G01*
X75453500Y-44484000D02*
X76103500Y-44484000D01*
G75*
G02*
X76166000Y-44546500I0J-62500D01*
G01*
X76166000Y-44671500D01*
G75*
G02*
X76103500Y-44734000I-62500J0D01*
G01*
X75453500Y-44734000D01*
G75*
G02*
X75391000Y-44671500I0J62500D01*
G01*
X75391000Y-44546500D01*
G75*
G02*
X75453500Y-44484000I62500J0D01*
G01*
G37*
G36*
G01*
X76453500Y-43484000D02*
X76578500Y-43484000D01*
G75*
G02*
X76641000Y-43546500I0J-62500D01*
G01*
X76641000Y-44196500D01*
G75*
G02*
X76578500Y-44259000I-62500J0D01*
G01*
X76453500Y-44259000D01*
G75*
G02*
X76391000Y-44196500I0J62500D01*
G01*
X76391000Y-43546500D01*
G75*
G02*
X76453500Y-43484000I62500J0D01*
G01*
G37*
G36*
G01*
X76953500Y-43484000D02*
X77078500Y-43484000D01*
G75*
G02*
X77141000Y-43546500I0J-62500D01*
G01*
X77141000Y-44196500D01*
G75*
G02*
X77078500Y-44259000I-62500J0D01*
G01*
X76953500Y-44259000D01*
G75*
G02*
X76891000Y-44196500I0J62500D01*
G01*
X76891000Y-43546500D01*
G75*
G02*
X76953500Y-43484000I62500J0D01*
G01*
G37*
G36*
G01*
X77453500Y-43484000D02*
X77578500Y-43484000D01*
G75*
G02*
X77641000Y-43546500I0J-62500D01*
G01*
X77641000Y-44196500D01*
G75*
G02*
X77578500Y-44259000I-62500J0D01*
G01*
X77453500Y-44259000D01*
G75*
G02*
X77391000Y-44196500I0J62500D01*
G01*
X77391000Y-43546500D01*
G75*
G02*
X77453500Y-43484000I62500J0D01*
G01*
G37*
G36*
G01*
X77953500Y-43484000D02*
X78078500Y-43484000D01*
G75*
G02*
X78141000Y-43546500I0J-62500D01*
G01*
X78141000Y-44196500D01*
G75*
G02*
X78078500Y-44259000I-62500J0D01*
G01*
X77953500Y-44259000D01*
G75*
G02*
X77891000Y-44196500I0J62500D01*
G01*
X77891000Y-43546500D01*
G75*
G02*
X77953500Y-43484000I62500J0D01*
G01*
G37*
G36*
G01*
X78453500Y-43484000D02*
X78578500Y-43484000D01*
G75*
G02*
X78641000Y-43546500I0J-62500D01*
G01*
X78641000Y-44196500D01*
G75*
G02*
X78578500Y-44259000I-62500J0D01*
G01*
X78453500Y-44259000D01*
G75*
G02*
X78391000Y-44196500I0J62500D01*
G01*
X78391000Y-43546500D01*
G75*
G02*
X78453500Y-43484000I62500J0D01*
G01*
G37*
G36*
G01*
X78953500Y-43484000D02*
X79078500Y-43484000D01*
G75*
G02*
X79141000Y-43546500I0J-62500D01*
G01*
X79141000Y-44196500D01*
G75*
G02*
X79078500Y-44259000I-62500J0D01*
G01*
X78953500Y-44259000D01*
G75*
G02*
X78891000Y-44196500I0J62500D01*
G01*
X78891000Y-43546500D01*
G75*
G02*
X78953500Y-43484000I62500J0D01*
G01*
G37*
D10*
G36*
X77518915Y-46803242D02*
G01*
X77033085Y-46803242D01*
X76821758Y-46591915D01*
X76821758Y-46106085D01*
X77033085Y-45894758D01*
X77518915Y-45894758D01*
X77730242Y-46106085D01*
X77730242Y-46591915D01*
X77518915Y-46803242D01*
G37*
G36*
X78498915Y-46803242D02*
G01*
X78013085Y-46803242D01*
X77801758Y-46591915D01*
X77801758Y-46106085D01*
X78013085Y-45894758D01*
X78498915Y-45894758D01*
X78710242Y-46106085D01*
X78710242Y-46591915D01*
X78498915Y-46803242D01*
G37*
G36*
X77518915Y-45823242D02*
G01*
X77033085Y-45823242D01*
X76821758Y-45611915D01*
X76821758Y-45126085D01*
X77033085Y-44914758D01*
X77518915Y-44914758D01*
X77730242Y-45126085D01*
X77730242Y-45611915D01*
X77518915Y-45823242D01*
G37*
G36*
X78498915Y-45823242D02*
G01*
X78013085Y-45823242D01*
X77801758Y-45611915D01*
X77801758Y-45126085D01*
X78013085Y-44914758D01*
X78498915Y-44914758D01*
X78710242Y-45126085D01*
X78710242Y-45611915D01*
X78498915Y-45823242D01*
G37*
G36*
G01*
X71816000Y-46096500D02*
X71816000Y-45621500D01*
G75*
G02*
X72053500Y-45384000I237500J0D01*
G01*
X72628500Y-45384000D01*
G75*
G02*
X72866000Y-45621500I0J-237500D01*
G01*
X72866000Y-46096500D01*
G75*
G02*
X72628500Y-46334000I-237500J0D01*
G01*
X72053500Y-46334000D01*
G75*
G02*
X71816000Y-46096500I0J237500D01*
G01*
G37*
G36*
G01*
X70066000Y-46096500D02*
X70066000Y-45621500D01*
G75*
G02*
X70303500Y-45384000I237500J0D01*
G01*
X70878500Y-45384000D01*
G75*
G02*
X71116000Y-45621500I0J-237500D01*
G01*
X71116000Y-46096500D01*
G75*
G02*
X70878500Y-46334000I-237500J0D01*
G01*
X70303500Y-46334000D01*
G75*
G02*
X70066000Y-46096500I0J237500D01*
G01*
G37*
G36*
G01*
X71816000Y-47696500D02*
X71816000Y-47221500D01*
G75*
G02*
X72053500Y-46984000I237500J0D01*
G01*
X72628500Y-46984000D01*
G75*
G02*
X72866000Y-47221500I0J-237500D01*
G01*
X72866000Y-47696500D01*
G75*
G02*
X72628500Y-47934000I-237500J0D01*
G01*
X72053500Y-47934000D01*
G75*
G02*
X71816000Y-47696500I0J237500D01*
G01*
G37*
G36*
G01*
X70066000Y-47696500D02*
X70066000Y-47221500D01*
G75*
G02*
X70303500Y-46984000I237500J0D01*
G01*
X70878500Y-46984000D01*
G75*
G02*
X71116000Y-47221500I0J-237500D01*
G01*
X71116000Y-47696500D01*
G75*
G02*
X70878500Y-47934000I-237500J0D01*
G01*
X70303500Y-47934000D01*
G75*
G02*
X70066000Y-47696500I0J237500D01*
G01*
G37*
G36*
G01*
X72316000Y-41196500D02*
X72316000Y-40721500D01*
G75*
G02*
X72553500Y-40484000I237500J0D01*
G01*
X73128500Y-40484000D01*
G75*
G02*
X73366000Y-40721500I0J-237500D01*
G01*
X73366000Y-41196500D01*
G75*
G02*
X73128500Y-41434000I-237500J0D01*
G01*
X72553500Y-41434000D01*
G75*
G02*
X72316000Y-41196500I0J237500D01*
G01*
G37*
G36*
G01*
X70566000Y-41196500D02*
X70566000Y-40721500D01*
G75*
G02*
X70803500Y-40484000I237500J0D01*
G01*
X71378500Y-40484000D01*
G75*
G02*
X71616000Y-40721500I0J-237500D01*
G01*
X71616000Y-41196500D01*
G75*
G02*
X71378500Y-41434000I-237500J0D01*
G01*
X70803500Y-41434000D01*
G75*
G02*
X70566000Y-41196500I0J237500D01*
G01*
G37*
D11*
X87991000Y-49959000D03*
X88641000Y-49959000D03*
X89291000Y-49959000D03*
X89941000Y-49959000D03*
D12*
X87991000Y-52909000D03*
X89291000Y-52909000D03*
X88641000Y-52909000D03*
X89941000Y-52909000D03*
D13*
X88401000Y-51439000D03*
X88401000Y-50729000D03*
X89531000Y-50729000D03*
X89531000Y-51439000D03*
G36*
G01*
X83741000Y-55434000D02*
X83741000Y-53284000D01*
G75*
G02*
X83991000Y-53034000I250000J0D01*
G01*
X84741000Y-53034000D01*
G75*
G02*
X84991000Y-53284000I0J-250000D01*
G01*
X84991000Y-55434000D01*
G75*
G02*
X84741000Y-55684000I-250000J0D01*
G01*
X83991000Y-55684000D01*
G75*
G02*
X83741000Y-55434000I0J250000D01*
G01*
G37*
G36*
G01*
X80941000Y-55434000D02*
X80941000Y-53284000D01*
G75*
G02*
X81191000Y-53034000I250000J0D01*
G01*
X81941000Y-53034000D01*
G75*
G02*
X82191000Y-53284000I0J-250000D01*
G01*
X82191000Y-55434000D01*
G75*
G02*
X81941000Y-55684000I-250000J0D01*
G01*
X81191000Y-55684000D01*
G75*
G02*
X80941000Y-55434000I0J250000D01*
G01*
G37*
D14*
X97316000Y-70759000D03*
X95316000Y-71709000D03*
X95316000Y-69809000D03*
G36*
G01*
X94166000Y-73371500D02*
X94166000Y-73846500D01*
G75*
G02*
X93928500Y-74084000I-237500J0D01*
G01*
X93353500Y-74084000D01*
G75*
G02*
X93116000Y-73846500I0J237500D01*
G01*
X93116000Y-73371500D01*
G75*
G02*
X93353500Y-73134000I237500J0D01*
G01*
X93928500Y-73134000D01*
G75*
G02*
X94166000Y-73371500I0J-237500D01*
G01*
G37*
G36*
G01*
X95916000Y-73371500D02*
X95916000Y-73846500D01*
G75*
G02*
X95678500Y-74084000I-237500J0D01*
G01*
X95103500Y-74084000D01*
G75*
G02*
X94866000Y-73846500I0J237500D01*
G01*
X94866000Y-73371500D01*
G75*
G02*
X95103500Y-73134000I237500J0D01*
G01*
X95678500Y-73134000D01*
G75*
G02*
X95916000Y-73371500I0J-237500D01*
G01*
G37*
G36*
G01*
X106703500Y-47009000D02*
X106228500Y-47009000D01*
G75*
G02*
X105991000Y-46771500I0J237500D01*
G01*
X105991000Y-46196500D01*
G75*
G02*
X106228500Y-45959000I237500J0D01*
G01*
X106703500Y-45959000D01*
G75*
G02*
X106941000Y-46196500I0J-237500D01*
G01*
X106941000Y-46771500D01*
G75*
G02*
X106703500Y-47009000I-237500J0D01*
G01*
G37*
G36*
G01*
X106703500Y-48759000D02*
X106228500Y-48759000D01*
G75*
G02*
X105991000Y-48521500I0J237500D01*
G01*
X105991000Y-47946500D01*
G75*
G02*
X106228500Y-47709000I237500J0D01*
G01*
X106703500Y-47709000D01*
G75*
G02*
X106941000Y-47946500I0J-237500D01*
G01*
X106941000Y-48521500D01*
G75*
G02*
X106703500Y-48759000I-237500J0D01*
G01*
G37*
G36*
G01*
X93378500Y-71059000D02*
X93853500Y-71059000D01*
G75*
G02*
X94091000Y-71296500I0J-237500D01*
G01*
X94091000Y-71871500D01*
G75*
G02*
X93853500Y-72109000I-237500J0D01*
G01*
X93378500Y-72109000D01*
G75*
G02*
X93141000Y-71871500I0J237500D01*
G01*
X93141000Y-71296500D01*
G75*
G02*
X93378500Y-71059000I237500J0D01*
G01*
G37*
G36*
G01*
X93378500Y-69309000D02*
X93853500Y-69309000D01*
G75*
G02*
X94091000Y-69546500I0J-237500D01*
G01*
X94091000Y-70121500D01*
G75*
G02*
X93853500Y-70359000I-237500J0D01*
G01*
X93378500Y-70359000D01*
G75*
G02*
X93141000Y-70121500I0J237500D01*
G01*
X93141000Y-69546500D01*
G75*
G02*
X93378500Y-69309000I237500J0D01*
G01*
G37*
G36*
G01*
X88603500Y-109584000D02*
X88128500Y-109584000D01*
G75*
G02*
X87891000Y-109346500I0J237500D01*
G01*
X87891000Y-108771500D01*
G75*
G02*
X88128500Y-108534000I237500J0D01*
G01*
X88603500Y-108534000D01*
G75*
G02*
X88841000Y-108771500I0J-237500D01*
G01*
X88841000Y-109346500D01*
G75*
G02*
X88603500Y-109584000I-237500J0D01*
G01*
G37*
G36*
G01*
X88603500Y-111334000D02*
X88128500Y-111334000D01*
G75*
G02*
X87891000Y-111096500I0J237500D01*
G01*
X87891000Y-110521500D01*
G75*
G02*
X88128500Y-110284000I237500J0D01*
G01*
X88603500Y-110284000D01*
G75*
G02*
X88841000Y-110521500I0J-237500D01*
G01*
X88841000Y-111096500D01*
G75*
G02*
X88603500Y-111334000I-237500J0D01*
G01*
G37*
G36*
G01*
X63178500Y-98859000D02*
X63653500Y-98859000D01*
G75*
G02*
X63891000Y-99096500I0J-237500D01*
G01*
X63891000Y-99671500D01*
G75*
G02*
X63653500Y-99909000I-237500J0D01*
G01*
X63178500Y-99909000D01*
G75*
G02*
X62941000Y-99671500I0J237500D01*
G01*
X62941000Y-99096500D01*
G75*
G02*
X63178500Y-98859000I237500J0D01*
G01*
G37*
G36*
G01*
X63178500Y-97109000D02*
X63653500Y-97109000D01*
G75*
G02*
X63891000Y-97346500I0J-237500D01*
G01*
X63891000Y-97921500D01*
G75*
G02*
X63653500Y-98159000I-237500J0D01*
G01*
X63178500Y-98159000D01*
G75*
G02*
X62941000Y-97921500I0J237500D01*
G01*
X62941000Y-97346500D01*
G75*
G02*
X63178500Y-97109000I237500J0D01*
G01*
G37*
G36*
G01*
X63678500Y-104909000D02*
X63203500Y-104909000D01*
G75*
G02*
X62966000Y-104671500I0J237500D01*
G01*
X62966000Y-104096500D01*
G75*
G02*
X63203500Y-103859000I237500J0D01*
G01*
X63678500Y-103859000D01*
G75*
G02*
X63916000Y-104096500I0J-237500D01*
G01*
X63916000Y-104671500D01*
G75*
G02*
X63678500Y-104909000I-237500J0D01*
G01*
G37*
G36*
G01*
X63678500Y-106659000D02*
X63203500Y-106659000D01*
G75*
G02*
X62966000Y-106421500I0J237500D01*
G01*
X62966000Y-105846500D01*
G75*
G02*
X63203500Y-105609000I237500J0D01*
G01*
X63678500Y-105609000D01*
G75*
G02*
X63916000Y-105846500I0J-237500D01*
G01*
X63916000Y-106421500D01*
G75*
G02*
X63678500Y-106659000I-237500J0D01*
G01*
G37*
G36*
G01*
X79553500Y-92734000D02*
X79078500Y-92734000D01*
G75*
G02*
X78841000Y-92496500I0J237500D01*
G01*
X78841000Y-91921500D01*
G75*
G02*
X79078500Y-91684000I237500J0D01*
G01*
X79553500Y-91684000D01*
G75*
G02*
X79791000Y-91921500I0J-237500D01*
G01*
X79791000Y-92496500D01*
G75*
G02*
X79553500Y-92734000I-237500J0D01*
G01*
G37*
G36*
G01*
X79553500Y-94484000D02*
X79078500Y-94484000D01*
G75*
G02*
X78841000Y-94246500I0J237500D01*
G01*
X78841000Y-93671500D01*
G75*
G02*
X79078500Y-93434000I237500J0D01*
G01*
X79553500Y-93434000D01*
G75*
G02*
X79791000Y-93671500I0J-237500D01*
G01*
X79791000Y-94246500D01*
G75*
G02*
X79553500Y-94484000I-237500J0D01*
G01*
G37*
G36*
G01*
X72216000Y-98196500D02*
X72216000Y-98671500D01*
G75*
G02*
X71978500Y-98909000I-237500J0D01*
G01*
X71403500Y-98909000D01*
G75*
G02*
X71166000Y-98671500I0J237500D01*
G01*
X71166000Y-98196500D01*
G75*
G02*
X71403500Y-97959000I237500J0D01*
G01*
X71978500Y-97959000D01*
G75*
G02*
X72216000Y-98196500I0J-237500D01*
G01*
G37*
G36*
G01*
X73966000Y-98196500D02*
X73966000Y-98671500D01*
G75*
G02*
X73728500Y-98909000I-237500J0D01*
G01*
X73153500Y-98909000D01*
G75*
G02*
X72916000Y-98671500I0J237500D01*
G01*
X72916000Y-98196500D01*
G75*
G02*
X73153500Y-97959000I237500J0D01*
G01*
X73728500Y-97959000D01*
G75*
G02*
X73966000Y-98196500I0J-237500D01*
G01*
G37*
G36*
G01*
X72366000Y-105846500D02*
X72366000Y-106321500D01*
G75*
G02*
X72128500Y-106559000I-237500J0D01*
G01*
X71553500Y-106559000D01*
G75*
G02*
X71316000Y-106321500I0J237500D01*
G01*
X71316000Y-105846500D01*
G75*
G02*
X71553500Y-105609000I237500J0D01*
G01*
X72128500Y-105609000D01*
G75*
G02*
X72366000Y-105846500I0J-237500D01*
G01*
G37*
G36*
G01*
X74116000Y-105846500D02*
X74116000Y-106321500D01*
G75*
G02*
X73878500Y-106559000I-237500J0D01*
G01*
X73303500Y-106559000D01*
G75*
G02*
X73066000Y-106321500I0J237500D01*
G01*
X73066000Y-105846500D01*
G75*
G02*
X73303500Y-105609000I237500J0D01*
G01*
X73878500Y-105609000D01*
G75*
G02*
X74116000Y-105846500I0J-237500D01*
G01*
G37*
G36*
G01*
X89928500Y-110334000D02*
X90403500Y-110334000D01*
G75*
G02*
X90641000Y-110571500I0J-237500D01*
G01*
X90641000Y-111146500D01*
G75*
G02*
X90403500Y-111384000I-237500J0D01*
G01*
X89928500Y-111384000D01*
G75*
G02*
X89691000Y-111146500I0J237500D01*
G01*
X89691000Y-110571500D01*
G75*
G02*
X89928500Y-110334000I237500J0D01*
G01*
G37*
G36*
G01*
X89928500Y-108584000D02*
X90403500Y-108584000D01*
G75*
G02*
X90641000Y-108821500I0J-237500D01*
G01*
X90641000Y-109396500D01*
G75*
G02*
X90403500Y-109634000I-237500J0D01*
G01*
X89928500Y-109634000D01*
G75*
G02*
X89691000Y-109396500I0J237500D01*
G01*
X89691000Y-108821500D01*
G75*
G02*
X89928500Y-108584000I237500J0D01*
G01*
G37*
G36*
G01*
X72728500Y-112409000D02*
X73203500Y-112409000D01*
G75*
G02*
X73441000Y-112646500I0J-237500D01*
G01*
X73441000Y-113221500D01*
G75*
G02*
X73203500Y-113459000I-237500J0D01*
G01*
X72728500Y-113459000D01*
G75*
G02*
X72491000Y-113221500I0J237500D01*
G01*
X72491000Y-112646500D01*
G75*
G02*
X72728500Y-112409000I237500J0D01*
G01*
G37*
G36*
G01*
X72728500Y-110659000D02*
X73203500Y-110659000D01*
G75*
G02*
X73441000Y-110896500I0J-237500D01*
G01*
X73441000Y-111471500D01*
G75*
G02*
X73203500Y-111709000I-237500J0D01*
G01*
X72728500Y-111709000D01*
G75*
G02*
X72491000Y-111471500I0J237500D01*
G01*
X72491000Y-110896500D01*
G75*
G02*
X72728500Y-110659000I237500J0D01*
G01*
G37*
G36*
G01*
X68578500Y-112409000D02*
X69053500Y-112409000D01*
G75*
G02*
X69291000Y-112646500I0J-237500D01*
G01*
X69291000Y-113221500D01*
G75*
G02*
X69053500Y-113459000I-237500J0D01*
G01*
X68578500Y-113459000D01*
G75*
G02*
X68341000Y-113221500I0J237500D01*
G01*
X68341000Y-112646500D01*
G75*
G02*
X68578500Y-112409000I237500J0D01*
G01*
G37*
G36*
G01*
X68578500Y-110659000D02*
X69053500Y-110659000D01*
G75*
G02*
X69291000Y-110896500I0J-237500D01*
G01*
X69291000Y-111471500D01*
G75*
G02*
X69053500Y-111709000I-237500J0D01*
G01*
X68578500Y-111709000D01*
G75*
G02*
X68341000Y-111471500I0J237500D01*
G01*
X68341000Y-110896500D01*
G75*
G02*
X68578500Y-110659000I237500J0D01*
G01*
G37*
G36*
G01*
X70628500Y-112409000D02*
X71103500Y-112409000D01*
G75*
G02*
X71341000Y-112646500I0J-237500D01*
G01*
X71341000Y-113221500D01*
G75*
G02*
X71103500Y-113459000I-237500J0D01*
G01*
X70628500Y-113459000D01*
G75*
G02*
X70391000Y-113221500I0J237500D01*
G01*
X70391000Y-112646500D01*
G75*
G02*
X70628500Y-112409000I237500J0D01*
G01*
G37*
G36*
G01*
X70628500Y-110659000D02*
X71103500Y-110659000D01*
G75*
G02*
X71341000Y-110896500I0J-237500D01*
G01*
X71341000Y-111471500D01*
G75*
G02*
X71103500Y-111709000I-237500J0D01*
G01*
X70628500Y-111709000D01*
G75*
G02*
X70391000Y-111471500I0J237500D01*
G01*
X70391000Y-110896500D01*
G75*
G02*
X70628500Y-110659000I237500J0D01*
G01*
G37*
G36*
G01*
X75828500Y-81059000D02*
X76303500Y-81059000D01*
G75*
G02*
X76541000Y-81296500I0J-237500D01*
G01*
X76541000Y-81871500D01*
G75*
G02*
X76303500Y-82109000I-237500J0D01*
G01*
X75828500Y-82109000D01*
G75*
G02*
X75591000Y-81871500I0J237500D01*
G01*
X75591000Y-81296500D01*
G75*
G02*
X75828500Y-81059000I237500J0D01*
G01*
G37*
G36*
G01*
X75828500Y-79309000D02*
X76303500Y-79309000D01*
G75*
G02*
X76541000Y-79546500I0J-237500D01*
G01*
X76541000Y-80121500D01*
G75*
G02*
X76303500Y-80359000I-237500J0D01*
G01*
X75828500Y-80359000D01*
G75*
G02*
X75591000Y-80121500I0J237500D01*
G01*
X75591000Y-79546500D01*
G75*
G02*
X75828500Y-79309000I237500J0D01*
G01*
G37*
G36*
G01*
X105578500Y-121584000D02*
X106053500Y-121584000D01*
G75*
G02*
X106291000Y-121821500I0J-237500D01*
G01*
X106291000Y-122396500D01*
G75*
G02*
X106053500Y-122634000I-237500J0D01*
G01*
X105578500Y-122634000D01*
G75*
G02*
X105341000Y-122396500I0J237500D01*
G01*
X105341000Y-121821500D01*
G75*
G02*
X105578500Y-121584000I237500J0D01*
G01*
G37*
G36*
G01*
X105578500Y-119834000D02*
X106053500Y-119834000D01*
G75*
G02*
X106291000Y-120071500I0J-237500D01*
G01*
X106291000Y-120646500D01*
G75*
G02*
X106053500Y-120884000I-237500J0D01*
G01*
X105578500Y-120884000D01*
G75*
G02*
X105341000Y-120646500I0J237500D01*
G01*
X105341000Y-120071500D01*
G75*
G02*
X105578500Y-119834000I237500J0D01*
G01*
G37*
G36*
G01*
X185109361Y-122984000D02*
X184634361Y-122984000D01*
G75*
G02*
X184396861Y-122746500I0J237500D01*
G01*
X184396861Y-122171500D01*
G75*
G02*
X184634361Y-121934000I237500J0D01*
G01*
X185109361Y-121934000D01*
G75*
G02*
X185346861Y-122171500I0J-237500D01*
G01*
X185346861Y-122746500D01*
G75*
G02*
X185109361Y-122984000I-237500J0D01*
G01*
G37*
G36*
G01*
X185109361Y-124734000D02*
X184634361Y-124734000D01*
G75*
G02*
X184396861Y-124496500I0J237500D01*
G01*
X184396861Y-123921500D01*
G75*
G02*
X184634361Y-123684000I237500J0D01*
G01*
X185109361Y-123684000D01*
G75*
G02*
X185346861Y-123921500I0J-237500D01*
G01*
X185346861Y-124496500D01*
G75*
G02*
X185109361Y-124734000I-237500J0D01*
G01*
G37*
G36*
G01*
X186753500Y-122984000D02*
X186278500Y-122984000D01*
G75*
G02*
X186041000Y-122746500I0J237500D01*
G01*
X186041000Y-122171500D01*
G75*
G02*
X186278500Y-121934000I237500J0D01*
G01*
X186753500Y-121934000D01*
G75*
G02*
X186991000Y-122171500I0J-237500D01*
G01*
X186991000Y-122746500D01*
G75*
G02*
X186753500Y-122984000I-237500J0D01*
G01*
G37*
G36*
G01*
X186753500Y-124734000D02*
X186278500Y-124734000D01*
G75*
G02*
X186041000Y-124496500I0J237500D01*
G01*
X186041000Y-123921500D01*
G75*
G02*
X186278500Y-123684000I237500J0D01*
G01*
X186753500Y-123684000D01*
G75*
G02*
X186991000Y-123921500I0J-237500D01*
G01*
X186991000Y-124496500D01*
G75*
G02*
X186753500Y-124734000I-237500J0D01*
G01*
G37*
G36*
G01*
X194016000Y-109346500D02*
X194016000Y-109821500D01*
G75*
G02*
X193778500Y-110059000I-237500J0D01*
G01*
X193203500Y-110059000D01*
G75*
G02*
X192966000Y-109821500I0J237500D01*
G01*
X192966000Y-109346500D01*
G75*
G02*
X193203500Y-109109000I237500J0D01*
G01*
X193778500Y-109109000D01*
G75*
G02*
X194016000Y-109346500I0J-237500D01*
G01*
G37*
G36*
G01*
X195766000Y-109346500D02*
X195766000Y-109821500D01*
G75*
G02*
X195528500Y-110059000I-237500J0D01*
G01*
X194953500Y-110059000D01*
G75*
G02*
X194716000Y-109821500I0J237500D01*
G01*
X194716000Y-109346500D01*
G75*
G02*
X194953500Y-109109000I237500J0D01*
G01*
X195528500Y-109109000D01*
G75*
G02*
X195766000Y-109346500I0J-237500D01*
G01*
G37*
D15*
X109746000Y-62034000D03*
X123586000Y-62034000D03*
D14*
X73616000Y-92759000D03*
X71616000Y-93709000D03*
X71616000Y-91809000D03*
X79266000Y-77109000D03*
X81266000Y-76159000D03*
X81266000Y-78059000D03*
X84881001Y-80864001D03*
X82881001Y-81814001D03*
X82881001Y-79914001D03*
X101491000Y-111884000D03*
X103491000Y-110934000D03*
X103491000Y-112834000D03*
G36*
G01*
X92191000Y-121246500D02*
X92191000Y-120771500D01*
G75*
G02*
X92428500Y-120534000I237500J0D01*
G01*
X93003500Y-120534000D01*
G75*
G02*
X93241000Y-120771500I0J-237500D01*
G01*
X93241000Y-121246500D01*
G75*
G02*
X93003500Y-121484000I-237500J0D01*
G01*
X92428500Y-121484000D01*
G75*
G02*
X92191000Y-121246500I0J237500D01*
G01*
G37*
G36*
G01*
X90441000Y-121246500D02*
X90441000Y-120771500D01*
G75*
G02*
X90678500Y-120534000I237500J0D01*
G01*
X91253500Y-120534000D01*
G75*
G02*
X91491000Y-120771500I0J-237500D01*
G01*
X91491000Y-121246500D01*
G75*
G02*
X91253500Y-121484000I-237500J0D01*
G01*
X90678500Y-121484000D01*
G75*
G02*
X90441000Y-121246500I0J237500D01*
G01*
G37*
G36*
G01*
X92191000Y-122846500D02*
X92191000Y-122371500D01*
G75*
G02*
X92428500Y-122134000I237500J0D01*
G01*
X93003500Y-122134000D01*
G75*
G02*
X93241000Y-122371500I0J-237500D01*
G01*
X93241000Y-122846500D01*
G75*
G02*
X93003500Y-123084000I-237500J0D01*
G01*
X92428500Y-123084000D01*
G75*
G02*
X92191000Y-122846500I0J237500D01*
G01*
G37*
G36*
G01*
X90441000Y-122846500D02*
X90441000Y-122371500D01*
G75*
G02*
X90678500Y-122134000I237500J0D01*
G01*
X91253500Y-122134000D01*
G75*
G02*
X91491000Y-122371500I0J-237500D01*
G01*
X91491000Y-122846500D01*
G75*
G02*
X91253500Y-123084000I-237500J0D01*
G01*
X90678500Y-123084000D01*
G75*
G02*
X90441000Y-122846500I0J237500D01*
G01*
G37*
G36*
G01*
X77378500Y-121459000D02*
X77853500Y-121459000D01*
G75*
G02*
X78091000Y-121696500I0J-237500D01*
G01*
X78091000Y-122271500D01*
G75*
G02*
X77853500Y-122509000I-237500J0D01*
G01*
X77378500Y-122509000D01*
G75*
G02*
X77141000Y-122271500I0J237500D01*
G01*
X77141000Y-121696500D01*
G75*
G02*
X77378500Y-121459000I237500J0D01*
G01*
G37*
G36*
G01*
X77378500Y-119709000D02*
X77853500Y-119709000D01*
G75*
G02*
X78091000Y-119946500I0J-237500D01*
G01*
X78091000Y-120521500D01*
G75*
G02*
X77853500Y-120759000I-237500J0D01*
G01*
X77378500Y-120759000D01*
G75*
G02*
X77141000Y-120521500I0J237500D01*
G01*
X77141000Y-119946500D01*
G75*
G02*
X77378500Y-119709000I237500J0D01*
G01*
G37*
G36*
G01*
X84253500Y-88734000D02*
X83778500Y-88734000D01*
G75*
G02*
X83541000Y-88496500I0J237500D01*
G01*
X83541000Y-87921500D01*
G75*
G02*
X83778500Y-87684000I237500J0D01*
G01*
X84253500Y-87684000D01*
G75*
G02*
X84491000Y-87921500I0J-237500D01*
G01*
X84491000Y-88496500D01*
G75*
G02*
X84253500Y-88734000I-237500J0D01*
G01*
G37*
G36*
G01*
X84253500Y-90484000D02*
X83778500Y-90484000D01*
G75*
G02*
X83541000Y-90246500I0J237500D01*
G01*
X83541000Y-89671500D01*
G75*
G02*
X83778500Y-89434000I237500J0D01*
G01*
X84253500Y-89434000D01*
G75*
G02*
X84491000Y-89671500I0J-237500D01*
G01*
X84491000Y-90246500D01*
G75*
G02*
X84253500Y-90484000I-237500J0D01*
G01*
G37*
G36*
G01*
X72266000Y-104296500D02*
X72266000Y-104771500D01*
G75*
G02*
X72028500Y-105009000I-237500J0D01*
G01*
X71453500Y-105009000D01*
G75*
G02*
X71216000Y-104771500I0J237500D01*
G01*
X71216000Y-104296500D01*
G75*
G02*
X71453500Y-104059000I237500J0D01*
G01*
X72028500Y-104059000D01*
G75*
G02*
X72266000Y-104296500I0J-237500D01*
G01*
G37*
G36*
G01*
X74016000Y-104296500D02*
X74016000Y-104771500D01*
G75*
G02*
X73778500Y-105009000I-237500J0D01*
G01*
X73203500Y-105009000D01*
G75*
G02*
X72966000Y-104771500I0J237500D01*
G01*
X72966000Y-104296500D01*
G75*
G02*
X73203500Y-104059000I237500J0D01*
G01*
X73778500Y-104059000D01*
G75*
G02*
X74016000Y-104296500I0J-237500D01*
G01*
G37*
G36*
G01*
X74078500Y-123359000D02*
X74553500Y-123359000D01*
G75*
G02*
X74791000Y-123596500I0J-237500D01*
G01*
X74791000Y-124171500D01*
G75*
G02*
X74553500Y-124409000I-237500J0D01*
G01*
X74078500Y-124409000D01*
G75*
G02*
X73841000Y-124171500I0J237500D01*
G01*
X73841000Y-123596500D01*
G75*
G02*
X74078500Y-123359000I237500J0D01*
G01*
G37*
G36*
G01*
X74078500Y-121609000D02*
X74553500Y-121609000D01*
G75*
G02*
X74791000Y-121846500I0J-237500D01*
G01*
X74791000Y-122421500D01*
G75*
G02*
X74553500Y-122659000I-237500J0D01*
G01*
X74078500Y-122659000D01*
G75*
G02*
X73841000Y-122421500I0J237500D01*
G01*
X73841000Y-121846500D01*
G75*
G02*
X74078500Y-121609000I237500J0D01*
G01*
G37*
G36*
G01*
X66428500Y-123259000D02*
X66903500Y-123259000D01*
G75*
G02*
X67141000Y-123496500I0J-237500D01*
G01*
X67141000Y-124071500D01*
G75*
G02*
X66903500Y-124309000I-237500J0D01*
G01*
X66428500Y-124309000D01*
G75*
G02*
X66191000Y-124071500I0J237500D01*
G01*
X66191000Y-123496500D01*
G75*
G02*
X66428500Y-123259000I237500J0D01*
G01*
G37*
G36*
G01*
X66428500Y-121509000D02*
X66903500Y-121509000D01*
G75*
G02*
X67141000Y-121746500I0J-237500D01*
G01*
X67141000Y-122321500D01*
G75*
G02*
X66903500Y-122559000I-237500J0D01*
G01*
X66428500Y-122559000D01*
G75*
G02*
X66191000Y-122321500I0J237500D01*
G01*
X66191000Y-121746500D01*
G75*
G02*
X66428500Y-121509000I237500J0D01*
G01*
G37*
G36*
G01*
X61278500Y-123259000D02*
X61753500Y-123259000D01*
G75*
G02*
X61991000Y-123496500I0J-237500D01*
G01*
X61991000Y-124071500D01*
G75*
G02*
X61753500Y-124309000I-237500J0D01*
G01*
X61278500Y-124309000D01*
G75*
G02*
X61041000Y-124071500I0J237500D01*
G01*
X61041000Y-123496500D01*
G75*
G02*
X61278500Y-123259000I237500J0D01*
G01*
G37*
G36*
G01*
X61278500Y-121509000D02*
X61753500Y-121509000D01*
G75*
G02*
X61991000Y-121746500I0J-237500D01*
G01*
X61991000Y-122321500D01*
G75*
G02*
X61753500Y-122559000I-237500J0D01*
G01*
X61278500Y-122559000D01*
G75*
G02*
X61041000Y-122321500I0J237500D01*
G01*
X61041000Y-121746500D01*
G75*
G02*
X61278500Y-121509000I237500J0D01*
G01*
G37*
G36*
G01*
X68878500Y-123259000D02*
X69353500Y-123259000D01*
G75*
G02*
X69591000Y-123496500I0J-237500D01*
G01*
X69591000Y-124071500D01*
G75*
G02*
X69353500Y-124309000I-237500J0D01*
G01*
X68878500Y-124309000D01*
G75*
G02*
X68641000Y-124071500I0J237500D01*
G01*
X68641000Y-123496500D01*
G75*
G02*
X68878500Y-123259000I237500J0D01*
G01*
G37*
G36*
G01*
X68878500Y-121509000D02*
X69353500Y-121509000D01*
G75*
G02*
X69591000Y-121746500I0J-237500D01*
G01*
X69591000Y-122321500D01*
G75*
G02*
X69353500Y-122559000I-237500J0D01*
G01*
X68878500Y-122559000D01*
G75*
G02*
X68641000Y-122321500I0J237500D01*
G01*
X68641000Y-121746500D01*
G75*
G02*
X68878500Y-121509000I237500J0D01*
G01*
G37*
G36*
G01*
X85716000Y-115721500D02*
X85716000Y-115246500D01*
G75*
G02*
X85953500Y-115009000I237500J0D01*
G01*
X86528500Y-115009000D01*
G75*
G02*
X86766000Y-115246500I0J-237500D01*
G01*
X86766000Y-115721500D01*
G75*
G02*
X86528500Y-115959000I-237500J0D01*
G01*
X85953500Y-115959000D01*
G75*
G02*
X85716000Y-115721500I0J237500D01*
G01*
G37*
G36*
G01*
X83966000Y-115721500D02*
X83966000Y-115246500D01*
G75*
G02*
X84203500Y-115009000I237500J0D01*
G01*
X84778500Y-115009000D01*
G75*
G02*
X85016000Y-115246500I0J-237500D01*
G01*
X85016000Y-115721500D01*
G75*
G02*
X84778500Y-115959000I-237500J0D01*
G01*
X84203500Y-115959000D01*
G75*
G02*
X83966000Y-115721500I0J237500D01*
G01*
G37*
G36*
G01*
X104528500Y-47709000D02*
X105003500Y-47709000D01*
G75*
G02*
X105241000Y-47946500I0J-237500D01*
G01*
X105241000Y-48521500D01*
G75*
G02*
X105003500Y-48759000I-237500J0D01*
G01*
X104528500Y-48759000D01*
G75*
G02*
X104291000Y-48521500I0J237500D01*
G01*
X104291000Y-47946500D01*
G75*
G02*
X104528500Y-47709000I237500J0D01*
G01*
G37*
G36*
G01*
X104528500Y-45959000D02*
X105003500Y-45959000D01*
G75*
G02*
X105241000Y-46196500I0J-237500D01*
G01*
X105241000Y-46771500D01*
G75*
G02*
X105003500Y-47009000I-237500J0D01*
G01*
X104528500Y-47009000D01*
G75*
G02*
X104291000Y-46771500I0J237500D01*
G01*
X104291000Y-46196500D01*
G75*
G02*
X104528500Y-45959000I237500J0D01*
G01*
G37*
G36*
G01*
X77953500Y-76609000D02*
X77478500Y-76609000D01*
G75*
G02*
X77241000Y-76371500I0J237500D01*
G01*
X77241000Y-75796500D01*
G75*
G02*
X77478500Y-75559000I237500J0D01*
G01*
X77953500Y-75559000D01*
G75*
G02*
X78191000Y-75796500I0J-237500D01*
G01*
X78191000Y-76371500D01*
G75*
G02*
X77953500Y-76609000I-237500J0D01*
G01*
G37*
G36*
G01*
X77953500Y-78359000D02*
X77478500Y-78359000D01*
G75*
G02*
X77241000Y-78121500I0J237500D01*
G01*
X77241000Y-77546500D01*
G75*
G02*
X77478500Y-77309000I237500J0D01*
G01*
X77953500Y-77309000D01*
G75*
G02*
X78191000Y-77546500I0J-237500D01*
G01*
X78191000Y-78121500D01*
G75*
G02*
X77953500Y-78359000I-237500J0D01*
G01*
G37*
G36*
G01*
X77953500Y-80359000D02*
X77478500Y-80359000D01*
G75*
G02*
X77241000Y-80121500I0J237500D01*
G01*
X77241000Y-79546500D01*
G75*
G02*
X77478500Y-79309000I237500J0D01*
G01*
X77953500Y-79309000D01*
G75*
G02*
X78191000Y-79546500I0J-237500D01*
G01*
X78191000Y-80121500D01*
G75*
G02*
X77953500Y-80359000I-237500J0D01*
G01*
G37*
G36*
G01*
X77953500Y-82109000D02*
X77478500Y-82109000D01*
G75*
G02*
X77241000Y-81871500I0J237500D01*
G01*
X77241000Y-81296500D01*
G75*
G02*
X77478500Y-81059000I237500J0D01*
G01*
X77953500Y-81059000D01*
G75*
G02*
X78191000Y-81296500I0J-237500D01*
G01*
X78191000Y-81871500D01*
G75*
G02*
X77953500Y-82109000I-237500J0D01*
G01*
G37*
G36*
G01*
X83253500Y-76784000D02*
X82778500Y-76784000D01*
G75*
G02*
X82541000Y-76546500I0J237500D01*
G01*
X82541000Y-75971500D01*
G75*
G02*
X82778500Y-75734000I237500J0D01*
G01*
X83253500Y-75734000D01*
G75*
G02*
X83491000Y-75971500I0J-237500D01*
G01*
X83491000Y-76546500D01*
G75*
G02*
X83253500Y-76784000I-237500J0D01*
G01*
G37*
G36*
G01*
X83253500Y-78534000D02*
X82778500Y-78534000D01*
G75*
G02*
X82541000Y-78296500I0J237500D01*
G01*
X82541000Y-77721500D01*
G75*
G02*
X82778500Y-77484000I237500J0D01*
G01*
X83253500Y-77484000D01*
G75*
G02*
X83491000Y-77721500I0J-237500D01*
G01*
X83491000Y-78296500D01*
G75*
G02*
X83253500Y-78534000I-237500J0D01*
G01*
G37*
G36*
G01*
X84853500Y-76784000D02*
X84378500Y-76784000D01*
G75*
G02*
X84141000Y-76546500I0J237500D01*
G01*
X84141000Y-75971500D01*
G75*
G02*
X84378500Y-75734000I237500J0D01*
G01*
X84853500Y-75734000D01*
G75*
G02*
X85091000Y-75971500I0J-237500D01*
G01*
X85091000Y-76546500D01*
G75*
G02*
X84853500Y-76784000I-237500J0D01*
G01*
G37*
G36*
G01*
X84853500Y-78534000D02*
X84378500Y-78534000D01*
G75*
G02*
X84141000Y-78296500I0J237500D01*
G01*
X84141000Y-77721500D01*
G75*
G02*
X84378500Y-77484000I237500J0D01*
G01*
X84853500Y-77484000D01*
G75*
G02*
X85091000Y-77721500I0J-237500D01*
G01*
X85091000Y-78296500D01*
G75*
G02*
X84853500Y-78534000I-237500J0D01*
G01*
G37*
G36*
G01*
X80616000Y-79996500D02*
X80616000Y-79521500D01*
G75*
G02*
X80853500Y-79284000I237500J0D01*
G01*
X81428500Y-79284000D01*
G75*
G02*
X81666000Y-79521500I0J-237500D01*
G01*
X81666000Y-79996500D01*
G75*
G02*
X81428500Y-80234000I-237500J0D01*
G01*
X80853500Y-80234000D01*
G75*
G02*
X80616000Y-79996500I0J237500D01*
G01*
G37*
G36*
G01*
X78866000Y-79996500D02*
X78866000Y-79521500D01*
G75*
G02*
X79103500Y-79284000I237500J0D01*
G01*
X79678500Y-79284000D01*
G75*
G02*
X79916000Y-79521500I0J-237500D01*
G01*
X79916000Y-79996500D01*
G75*
G02*
X79678500Y-80234000I-237500J0D01*
G01*
X79103500Y-80234000D01*
G75*
G02*
X78866000Y-79996500I0J237500D01*
G01*
G37*
G36*
G01*
X79916000Y-81521500D02*
X79916000Y-81996500D01*
G75*
G02*
X79678500Y-82234000I-237500J0D01*
G01*
X79103500Y-82234000D01*
G75*
G02*
X78866000Y-81996500I0J237500D01*
G01*
X78866000Y-81521500D01*
G75*
G02*
X79103500Y-81284000I237500J0D01*
G01*
X79678500Y-81284000D01*
G75*
G02*
X79916000Y-81521500I0J-237500D01*
G01*
G37*
G36*
G01*
X81666000Y-81521500D02*
X81666000Y-81996500D01*
G75*
G02*
X81428500Y-82234000I-237500J0D01*
G01*
X80853500Y-82234000D01*
G75*
G02*
X80616000Y-81996500I0J237500D01*
G01*
X80616000Y-81521500D01*
G75*
G02*
X80853500Y-81284000I237500J0D01*
G01*
X81428500Y-81284000D01*
G75*
G02*
X81666000Y-81521500I0J-237500D01*
G01*
G37*
G36*
G01*
X69778500Y-89784000D02*
X70253500Y-89784000D01*
G75*
G02*
X70491000Y-90021500I0J-237500D01*
G01*
X70491000Y-90596500D01*
G75*
G02*
X70253500Y-90834000I-237500J0D01*
G01*
X69778500Y-90834000D01*
G75*
G02*
X69541000Y-90596500I0J237500D01*
G01*
X69541000Y-90021500D01*
G75*
G02*
X69778500Y-89784000I237500J0D01*
G01*
G37*
G36*
G01*
X69778500Y-88034000D02*
X70253500Y-88034000D01*
G75*
G02*
X70491000Y-88271500I0J-237500D01*
G01*
X70491000Y-88846500D01*
G75*
G02*
X70253500Y-89084000I-237500J0D01*
G01*
X69778500Y-89084000D01*
G75*
G02*
X69541000Y-88846500I0J237500D01*
G01*
X69541000Y-88271500D01*
G75*
G02*
X69778500Y-88034000I237500J0D01*
G01*
G37*
G36*
G01*
X69778500Y-93084000D02*
X70253500Y-93084000D01*
G75*
G02*
X70491000Y-93321500I0J-237500D01*
G01*
X70491000Y-93896500D01*
G75*
G02*
X70253500Y-94134000I-237500J0D01*
G01*
X69778500Y-94134000D01*
G75*
G02*
X69541000Y-93896500I0J237500D01*
G01*
X69541000Y-93321500D01*
G75*
G02*
X69778500Y-93084000I237500J0D01*
G01*
G37*
G36*
G01*
X69778500Y-91334000D02*
X70253500Y-91334000D01*
G75*
G02*
X70491000Y-91571500I0J-237500D01*
G01*
X70491000Y-92146500D01*
G75*
G02*
X70253500Y-92384000I-237500J0D01*
G01*
X69778500Y-92384000D01*
G75*
G02*
X69541000Y-92146500I0J237500D01*
G01*
X69541000Y-91571500D01*
G75*
G02*
X69778500Y-91334000I237500J0D01*
G01*
G37*
G36*
G01*
X66203500Y-55109000D02*
X65728500Y-55109000D01*
G75*
G02*
X65491000Y-54871500I0J237500D01*
G01*
X65491000Y-54296500D01*
G75*
G02*
X65728500Y-54059000I237500J0D01*
G01*
X66203500Y-54059000D01*
G75*
G02*
X66441000Y-54296500I0J-237500D01*
G01*
X66441000Y-54871500D01*
G75*
G02*
X66203500Y-55109000I-237500J0D01*
G01*
G37*
G36*
G01*
X66203500Y-56859000D02*
X65728500Y-56859000D01*
G75*
G02*
X65491000Y-56621500I0J237500D01*
G01*
X65491000Y-56046500D01*
G75*
G02*
X65728500Y-55809000I237500J0D01*
G01*
X66203500Y-55809000D01*
G75*
G02*
X66441000Y-56046500I0J-237500D01*
G01*
X66441000Y-56621500D01*
G75*
G02*
X66203500Y-56859000I-237500J0D01*
G01*
G37*
G36*
G01*
X73378500Y-89684000D02*
X73853500Y-89684000D01*
G75*
G02*
X74091000Y-89921500I0J-237500D01*
G01*
X74091000Y-90496500D01*
G75*
G02*
X73853500Y-90734000I-237500J0D01*
G01*
X73378500Y-90734000D01*
G75*
G02*
X73141000Y-90496500I0J237500D01*
G01*
X73141000Y-89921500D01*
G75*
G02*
X73378500Y-89684000I237500J0D01*
G01*
G37*
G36*
G01*
X73378500Y-87934000D02*
X73853500Y-87934000D01*
G75*
G02*
X74091000Y-88171500I0J-237500D01*
G01*
X74091000Y-88746500D01*
G75*
G02*
X73853500Y-88984000I-237500J0D01*
G01*
X73378500Y-88984000D01*
G75*
G02*
X73141000Y-88746500I0J237500D01*
G01*
X73141000Y-88171500D01*
G75*
G02*
X73378500Y-87934000I237500J0D01*
G01*
G37*
G36*
G01*
X68103500Y-55109000D02*
X67628500Y-55109000D01*
G75*
G02*
X67391000Y-54871500I0J237500D01*
G01*
X67391000Y-54296500D01*
G75*
G02*
X67628500Y-54059000I237500J0D01*
G01*
X68103500Y-54059000D01*
G75*
G02*
X68341000Y-54296500I0J-237500D01*
G01*
X68341000Y-54871500D01*
G75*
G02*
X68103500Y-55109000I-237500J0D01*
G01*
G37*
G36*
G01*
X68103500Y-56859000D02*
X67628500Y-56859000D01*
G75*
G02*
X67391000Y-56621500I0J237500D01*
G01*
X67391000Y-56046500D01*
G75*
G02*
X67628500Y-55809000I237500J0D01*
G01*
X68103500Y-55809000D01*
G75*
G02*
X68341000Y-56046500I0J-237500D01*
G01*
X68341000Y-56621500D01*
G75*
G02*
X68103500Y-56859000I-237500J0D01*
G01*
G37*
G36*
G01*
X180466000Y-89171500D02*
X180466000Y-88696500D01*
G75*
G02*
X180703500Y-88459000I237500J0D01*
G01*
X181278500Y-88459000D01*
G75*
G02*
X181516000Y-88696500I0J-237500D01*
G01*
X181516000Y-89171500D01*
G75*
G02*
X181278500Y-89409000I-237500J0D01*
G01*
X180703500Y-89409000D01*
G75*
G02*
X180466000Y-89171500I0J237500D01*
G01*
G37*
G36*
G01*
X178716000Y-89171500D02*
X178716000Y-88696500D01*
G75*
G02*
X178953500Y-88459000I237500J0D01*
G01*
X179528500Y-88459000D01*
G75*
G02*
X179766000Y-88696500I0J-237500D01*
G01*
X179766000Y-89171500D01*
G75*
G02*
X179528500Y-89409000I-237500J0D01*
G01*
X178953500Y-89409000D01*
G75*
G02*
X178716000Y-89171500I0J237500D01*
G01*
G37*
G36*
G01*
X102891000Y-100209000D02*
X102891000Y-101459000D01*
G75*
G02*
X102641000Y-101709000I-250000J0D01*
G01*
X101716000Y-101709000D01*
G75*
G02*
X101466000Y-101459000I0J250000D01*
G01*
X101466000Y-100209000D01*
G75*
G02*
X101716000Y-99959000I250000J0D01*
G01*
X102641000Y-99959000D01*
G75*
G02*
X102891000Y-100209000I0J-250000D01*
G01*
G37*
G36*
G01*
X105866000Y-100209000D02*
X105866000Y-101459000D01*
G75*
G02*
X105616000Y-101709000I-250000J0D01*
G01*
X104691000Y-101709000D01*
G75*
G02*
X104441000Y-101459000I0J250000D01*
G01*
X104441000Y-100209000D01*
G75*
G02*
X104691000Y-99959000I250000J0D01*
G01*
X105616000Y-99959000D01*
G75*
G02*
X105866000Y-100209000I0J-250000D01*
G01*
G37*
G36*
G01*
X104841000Y-109621500D02*
X104841000Y-109146500D01*
G75*
G02*
X105078500Y-108909000I237500J0D01*
G01*
X105653500Y-108909000D01*
G75*
G02*
X105891000Y-109146500I0J-237500D01*
G01*
X105891000Y-109621500D01*
G75*
G02*
X105653500Y-109859000I-237500J0D01*
G01*
X105078500Y-109859000D01*
G75*
G02*
X104841000Y-109621500I0J237500D01*
G01*
G37*
G36*
G01*
X103091000Y-109621500D02*
X103091000Y-109146500D01*
G75*
G02*
X103328500Y-108909000I237500J0D01*
G01*
X103903500Y-108909000D01*
G75*
G02*
X104141000Y-109146500I0J-237500D01*
G01*
X104141000Y-109621500D01*
G75*
G02*
X103903500Y-109859000I-237500J0D01*
G01*
X103328500Y-109859000D01*
G75*
G02*
X103091000Y-109621500I0J237500D01*
G01*
G37*
G36*
G01*
X105728500Y-111534000D02*
X105253500Y-111534000D01*
G75*
G02*
X105016000Y-111296500I0J237500D01*
G01*
X105016000Y-110721500D01*
G75*
G02*
X105253500Y-110484000I237500J0D01*
G01*
X105728500Y-110484000D01*
G75*
G02*
X105966000Y-110721500I0J-237500D01*
G01*
X105966000Y-111296500D01*
G75*
G02*
X105728500Y-111534000I-237500J0D01*
G01*
G37*
G36*
G01*
X105728500Y-113284000D02*
X105253500Y-113284000D01*
G75*
G02*
X105016000Y-113046500I0J237500D01*
G01*
X105016000Y-112471500D01*
G75*
G02*
X105253500Y-112234000I237500J0D01*
G01*
X105728500Y-112234000D01*
G75*
G02*
X105966000Y-112471500I0J-237500D01*
G01*
X105966000Y-113046500D01*
G75*
G02*
X105728500Y-113284000I-237500J0D01*
G01*
G37*
G36*
G01*
X100203500Y-111884000D02*
X99728500Y-111884000D01*
G75*
G02*
X99491000Y-111646500I0J237500D01*
G01*
X99491000Y-111071500D01*
G75*
G02*
X99728500Y-110834000I237500J0D01*
G01*
X100203500Y-110834000D01*
G75*
G02*
X100441000Y-111071500I0J-237500D01*
G01*
X100441000Y-111646500D01*
G75*
G02*
X100203500Y-111884000I-237500J0D01*
G01*
G37*
G36*
G01*
X100203500Y-113634000D02*
X99728500Y-113634000D01*
G75*
G02*
X99491000Y-113396500I0J237500D01*
G01*
X99491000Y-112821500D01*
G75*
G02*
X99728500Y-112584000I237500J0D01*
G01*
X100203500Y-112584000D01*
G75*
G02*
X100441000Y-112821500I0J-237500D01*
G01*
X100441000Y-113396500D01*
G75*
G02*
X100203500Y-113634000I-237500J0D01*
G01*
G37*
G36*
G01*
X205103500Y-114034000D02*
X204628500Y-114034000D01*
G75*
G02*
X204391000Y-113796500I0J237500D01*
G01*
X204391000Y-113221500D01*
G75*
G02*
X204628500Y-112984000I237500J0D01*
G01*
X205103500Y-112984000D01*
G75*
G02*
X205341000Y-113221500I0J-237500D01*
G01*
X205341000Y-113796500D01*
G75*
G02*
X205103500Y-114034000I-237500J0D01*
G01*
G37*
G36*
G01*
X205103500Y-115784000D02*
X204628500Y-115784000D01*
G75*
G02*
X204391000Y-115546500I0J237500D01*
G01*
X204391000Y-114971500D01*
G75*
G02*
X204628500Y-114734000I237500J0D01*
G01*
X205103500Y-114734000D01*
G75*
G02*
X205341000Y-114971500I0J-237500D01*
G01*
X205341000Y-115546500D01*
G75*
G02*
X205103500Y-115784000I-237500J0D01*
G01*
G37*
G36*
G01*
X97091000Y-121709000D02*
X97091000Y-120459000D01*
G75*
G02*
X97341000Y-120209000I250000J0D01*
G01*
X98266000Y-120209000D01*
G75*
G02*
X98516000Y-120459000I0J-250000D01*
G01*
X98516000Y-121709000D01*
G75*
G02*
X98266000Y-121959000I-250000J0D01*
G01*
X97341000Y-121959000D01*
G75*
G02*
X97091000Y-121709000I0J250000D01*
G01*
G37*
G36*
G01*
X94116000Y-121709000D02*
X94116000Y-120459000D01*
G75*
G02*
X94366000Y-120209000I250000J0D01*
G01*
X95291000Y-120209000D01*
G75*
G02*
X95541000Y-120459000I0J-250000D01*
G01*
X95541000Y-121709000D01*
G75*
G02*
X95291000Y-121959000I-250000J0D01*
G01*
X94366000Y-121959000D01*
G75*
G02*
X94116000Y-121709000I0J250000D01*
G01*
G37*
G36*
G01*
X168608674Y-125375225D02*
X168608674Y-124900225D01*
G75*
G02*
X168846174Y-124662725I237500J0D01*
G01*
X169421174Y-124662725D01*
G75*
G02*
X169658674Y-124900225I0J-237500D01*
G01*
X169658674Y-125375225D01*
G75*
G02*
X169421174Y-125612725I-237500J0D01*
G01*
X168846174Y-125612725D01*
G75*
G02*
X168608674Y-125375225I0J237500D01*
G01*
G37*
G36*
G01*
X166858674Y-125375225D02*
X166858674Y-124900225D01*
G75*
G02*
X167096174Y-124662725I237500J0D01*
G01*
X167671174Y-124662725D01*
G75*
G02*
X167908674Y-124900225I0J-237500D01*
G01*
X167908674Y-125375225D01*
G75*
G02*
X167671174Y-125612725I-237500J0D01*
G01*
X167096174Y-125612725D01*
G75*
G02*
X166858674Y-125375225I0J237500D01*
G01*
G37*
G36*
G01*
X168608674Y-126875225D02*
X168608674Y-126400225D01*
G75*
G02*
X168846174Y-126162725I237500J0D01*
G01*
X169421174Y-126162725D01*
G75*
G02*
X169658674Y-126400225I0J-237500D01*
G01*
X169658674Y-126875225D01*
G75*
G02*
X169421174Y-127112725I-237500J0D01*
G01*
X168846174Y-127112725D01*
G75*
G02*
X168608674Y-126875225I0J237500D01*
G01*
G37*
G36*
G01*
X166858674Y-126875225D02*
X166858674Y-126400225D01*
G75*
G02*
X167096174Y-126162725I237500J0D01*
G01*
X167671174Y-126162725D01*
G75*
G02*
X167908674Y-126400225I0J-237500D01*
G01*
X167908674Y-126875225D01*
G75*
G02*
X167671174Y-127112725I-237500J0D01*
G01*
X167096174Y-127112725D01*
G75*
G02*
X166858674Y-126875225I0J237500D01*
G01*
G37*
G36*
G01*
X189978500Y-109934000D02*
X190453500Y-109934000D01*
G75*
G02*
X190691000Y-110171500I0J-237500D01*
G01*
X190691000Y-110746500D01*
G75*
G02*
X190453500Y-110984000I-237500J0D01*
G01*
X189978500Y-110984000D01*
G75*
G02*
X189741000Y-110746500I0J237500D01*
G01*
X189741000Y-110171500D01*
G75*
G02*
X189978500Y-109934000I237500J0D01*
G01*
G37*
G36*
G01*
X189978500Y-108184000D02*
X190453500Y-108184000D01*
G75*
G02*
X190691000Y-108421500I0J-237500D01*
G01*
X190691000Y-108996500D01*
G75*
G02*
X190453500Y-109234000I-237500J0D01*
G01*
X189978500Y-109234000D01*
G75*
G02*
X189741000Y-108996500I0J237500D01*
G01*
X189741000Y-108421500D01*
G75*
G02*
X189978500Y-108184000I237500J0D01*
G01*
G37*
G36*
G01*
X191528500Y-108034000D02*
X192003500Y-108034000D01*
G75*
G02*
X192241000Y-108271500I0J-237500D01*
G01*
X192241000Y-108846500D01*
G75*
G02*
X192003500Y-109084000I-237500J0D01*
G01*
X191528500Y-109084000D01*
G75*
G02*
X191291000Y-108846500I0J237500D01*
G01*
X191291000Y-108271500D01*
G75*
G02*
X191528500Y-108034000I237500J0D01*
G01*
G37*
G36*
G01*
X191528500Y-106284000D02*
X192003500Y-106284000D01*
G75*
G02*
X192241000Y-106521500I0J-237500D01*
G01*
X192241000Y-107096500D01*
G75*
G02*
X192003500Y-107334000I-237500J0D01*
G01*
X191528500Y-107334000D01*
G75*
G02*
X191291000Y-107096500I0J237500D01*
G01*
X191291000Y-106521500D01*
G75*
G02*
X191528500Y-106284000I237500J0D01*
G01*
G37*
G36*
G01*
X64328500Y-86709000D02*
X64803500Y-86709000D01*
G75*
G02*
X65041000Y-86946500I0J-237500D01*
G01*
X65041000Y-87521500D01*
G75*
G02*
X64803500Y-87759000I-237500J0D01*
G01*
X64328500Y-87759000D01*
G75*
G02*
X64091000Y-87521500I0J237500D01*
G01*
X64091000Y-86946500D01*
G75*
G02*
X64328500Y-86709000I237500J0D01*
G01*
G37*
G36*
G01*
X64328500Y-84959000D02*
X64803500Y-84959000D01*
G75*
G02*
X65041000Y-85196500I0J-237500D01*
G01*
X65041000Y-85771500D01*
G75*
G02*
X64803500Y-86009000I-237500J0D01*
G01*
X64328500Y-86009000D01*
G75*
G02*
X64091000Y-85771500I0J237500D01*
G01*
X64091000Y-85196500D01*
G75*
G02*
X64328500Y-84959000I237500J0D01*
G01*
G37*
G36*
G01*
X63153500Y-85109000D02*
X62678500Y-85109000D01*
G75*
G02*
X62441000Y-84871500I0J237500D01*
G01*
X62441000Y-84296500D01*
G75*
G02*
X62678500Y-84059000I237500J0D01*
G01*
X63153500Y-84059000D01*
G75*
G02*
X63391000Y-84296500I0J-237500D01*
G01*
X63391000Y-84871500D01*
G75*
G02*
X63153500Y-85109000I-237500J0D01*
G01*
G37*
G36*
G01*
X63153500Y-86859000D02*
X62678500Y-86859000D01*
G75*
G02*
X62441000Y-86621500I0J237500D01*
G01*
X62441000Y-86046500D01*
G75*
G02*
X62678500Y-85809000I237500J0D01*
G01*
X63153500Y-85809000D01*
G75*
G02*
X63391000Y-86046500I0J-237500D01*
G01*
X63391000Y-86621500D01*
G75*
G02*
X63153500Y-86859000I-237500J0D01*
G01*
G37*
G36*
G01*
X138653500Y-128984000D02*
X138178500Y-128984000D01*
G75*
G02*
X137941000Y-128746500I0J237500D01*
G01*
X137941000Y-128171500D01*
G75*
G02*
X138178500Y-127934000I237500J0D01*
G01*
X138653500Y-127934000D01*
G75*
G02*
X138891000Y-128171500I0J-237500D01*
G01*
X138891000Y-128746500D01*
G75*
G02*
X138653500Y-128984000I-237500J0D01*
G01*
G37*
G36*
G01*
X138653500Y-130734000D02*
X138178500Y-130734000D01*
G75*
G02*
X137941000Y-130496500I0J237500D01*
G01*
X137941000Y-129921500D01*
G75*
G02*
X138178500Y-129684000I237500J0D01*
G01*
X138653500Y-129684000D01*
G75*
G02*
X138891000Y-129921500I0J-237500D01*
G01*
X138891000Y-130496500D01*
G75*
G02*
X138653500Y-130734000I-237500J0D01*
G01*
G37*
G36*
G01*
X138703500Y-123384000D02*
X138228500Y-123384000D01*
G75*
G02*
X137991000Y-123146500I0J237500D01*
G01*
X137991000Y-122571500D01*
G75*
G02*
X138228500Y-122334000I237500J0D01*
G01*
X138703500Y-122334000D01*
G75*
G02*
X138941000Y-122571500I0J-237500D01*
G01*
X138941000Y-123146500D01*
G75*
G02*
X138703500Y-123384000I-237500J0D01*
G01*
G37*
G36*
G01*
X138703500Y-125134000D02*
X138228500Y-125134000D01*
G75*
G02*
X137991000Y-124896500I0J237500D01*
G01*
X137991000Y-124321500D01*
G75*
G02*
X138228500Y-124084000I237500J0D01*
G01*
X138703500Y-124084000D01*
G75*
G02*
X138941000Y-124321500I0J-237500D01*
G01*
X138941000Y-124896500D01*
G75*
G02*
X138703500Y-125134000I-237500J0D01*
G01*
G37*
G36*
G01*
X138803500Y-117984000D02*
X138328500Y-117984000D01*
G75*
G02*
X138091000Y-117746500I0J237500D01*
G01*
X138091000Y-117171500D01*
G75*
G02*
X138328500Y-116934000I237500J0D01*
G01*
X138803500Y-116934000D01*
G75*
G02*
X139041000Y-117171500I0J-237500D01*
G01*
X139041000Y-117746500D01*
G75*
G02*
X138803500Y-117984000I-237500J0D01*
G01*
G37*
G36*
G01*
X138803500Y-119734000D02*
X138328500Y-119734000D01*
G75*
G02*
X138091000Y-119496500I0J237500D01*
G01*
X138091000Y-118921500D01*
G75*
G02*
X138328500Y-118684000I237500J0D01*
G01*
X138803500Y-118684000D01*
G75*
G02*
X139041000Y-118921500I0J-237500D01*
G01*
X139041000Y-119496500D01*
G75*
G02*
X138803500Y-119734000I-237500J0D01*
G01*
G37*
G36*
G01*
X157204885Y-111953139D02*
X157679885Y-111953139D01*
G75*
G02*
X157917385Y-112190639I0J-237500D01*
G01*
X157917385Y-112765639D01*
G75*
G02*
X157679885Y-113003139I-237500J0D01*
G01*
X157204885Y-113003139D01*
G75*
G02*
X156967385Y-112765639I0J237500D01*
G01*
X156967385Y-112190639D01*
G75*
G02*
X157204885Y-111953139I237500J0D01*
G01*
G37*
G36*
G01*
X157204885Y-110203139D02*
X157679885Y-110203139D01*
G75*
G02*
X157917385Y-110440639I0J-237500D01*
G01*
X157917385Y-111015639D01*
G75*
G02*
X157679885Y-111253139I-237500J0D01*
G01*
X157204885Y-111253139D01*
G75*
G02*
X156967385Y-111015639I0J237500D01*
G01*
X156967385Y-110440639D01*
G75*
G02*
X157204885Y-110203139I237500J0D01*
G01*
G37*
G36*
G01*
X158678500Y-111953139D02*
X159153500Y-111953139D01*
G75*
G02*
X159391000Y-112190639I0J-237500D01*
G01*
X159391000Y-112765639D01*
G75*
G02*
X159153500Y-113003139I-237500J0D01*
G01*
X158678500Y-113003139D01*
G75*
G02*
X158441000Y-112765639I0J237500D01*
G01*
X158441000Y-112190639D01*
G75*
G02*
X158678500Y-111953139I237500J0D01*
G01*
G37*
G36*
G01*
X158678500Y-110203139D02*
X159153500Y-110203139D01*
G75*
G02*
X159391000Y-110440639I0J-237500D01*
G01*
X159391000Y-111015639D01*
G75*
G02*
X159153500Y-111253139I-237500J0D01*
G01*
X158678500Y-111253139D01*
G75*
G02*
X158441000Y-111015639I0J237500D01*
G01*
X158441000Y-110440639D01*
G75*
G02*
X158678500Y-110203139I237500J0D01*
G01*
G37*
G36*
G01*
X156866000Y-107721500D02*
X156866000Y-107246500D01*
G75*
G02*
X157103500Y-107009000I237500J0D01*
G01*
X157678500Y-107009000D01*
G75*
G02*
X157916000Y-107246500I0J-237500D01*
G01*
X157916000Y-107721500D01*
G75*
G02*
X157678500Y-107959000I-237500J0D01*
G01*
X157103500Y-107959000D01*
G75*
G02*
X156866000Y-107721500I0J237500D01*
G01*
G37*
G36*
G01*
X155116000Y-107721500D02*
X155116000Y-107246500D01*
G75*
G02*
X155353500Y-107009000I237500J0D01*
G01*
X155928500Y-107009000D01*
G75*
G02*
X156166000Y-107246500I0J-237500D01*
G01*
X156166000Y-107721500D01*
G75*
G02*
X155928500Y-107959000I-237500J0D01*
G01*
X155353500Y-107959000D01*
G75*
G02*
X155116000Y-107721500I0J237500D01*
G01*
G37*
G36*
G01*
X155728500Y-111934000D02*
X156203500Y-111934000D01*
G75*
G02*
X156441000Y-112171500I0J-237500D01*
G01*
X156441000Y-112746500D01*
G75*
G02*
X156203500Y-112984000I-237500J0D01*
G01*
X155728500Y-112984000D01*
G75*
G02*
X155491000Y-112746500I0J237500D01*
G01*
X155491000Y-112171500D01*
G75*
G02*
X155728500Y-111934000I237500J0D01*
G01*
G37*
G36*
G01*
X155728500Y-110184000D02*
X156203500Y-110184000D01*
G75*
G02*
X156441000Y-110421500I0J-237500D01*
G01*
X156441000Y-110996500D01*
G75*
G02*
X156203500Y-111234000I-237500J0D01*
G01*
X155728500Y-111234000D01*
G75*
G02*
X155491000Y-110996500I0J237500D01*
G01*
X155491000Y-110421500D01*
G75*
G02*
X155728500Y-110184000I237500J0D01*
G01*
G37*
G36*
G01*
X187054885Y-109934000D02*
X187529885Y-109934000D01*
G75*
G02*
X187767385Y-110171500I0J-237500D01*
G01*
X187767385Y-110746500D01*
G75*
G02*
X187529885Y-110984000I-237500J0D01*
G01*
X187054885Y-110984000D01*
G75*
G02*
X186817385Y-110746500I0J237500D01*
G01*
X186817385Y-110171500D01*
G75*
G02*
X187054885Y-109934000I237500J0D01*
G01*
G37*
G36*
G01*
X187054885Y-108184000D02*
X187529885Y-108184000D01*
G75*
G02*
X187767385Y-108421500I0J-237500D01*
G01*
X187767385Y-108996500D01*
G75*
G02*
X187529885Y-109234000I-237500J0D01*
G01*
X187054885Y-109234000D01*
G75*
G02*
X186817385Y-108996500I0J237500D01*
G01*
X186817385Y-108421500D01*
G75*
G02*
X187054885Y-108184000I237500J0D01*
G01*
G37*
G36*
G01*
X188528500Y-109934000D02*
X189003500Y-109934000D01*
G75*
G02*
X189241000Y-110171500I0J-237500D01*
G01*
X189241000Y-110746500D01*
G75*
G02*
X189003500Y-110984000I-237500J0D01*
G01*
X188528500Y-110984000D01*
G75*
G02*
X188291000Y-110746500I0J237500D01*
G01*
X188291000Y-110171500D01*
G75*
G02*
X188528500Y-109934000I237500J0D01*
G01*
G37*
G36*
G01*
X188528500Y-108184000D02*
X189003500Y-108184000D01*
G75*
G02*
X189241000Y-108421500I0J-237500D01*
G01*
X189241000Y-108996500D01*
G75*
G02*
X189003500Y-109234000I-237500J0D01*
G01*
X188528500Y-109234000D01*
G75*
G02*
X188291000Y-108996500I0J237500D01*
G01*
X188291000Y-108421500D01*
G75*
G02*
X188528500Y-108184000I237500J0D01*
G01*
G37*
G36*
G01*
X112428500Y-85034000D02*
X112903500Y-85034000D01*
G75*
G02*
X113141000Y-85271500I0J-237500D01*
G01*
X113141000Y-85846500D01*
G75*
G02*
X112903500Y-86084000I-237500J0D01*
G01*
X112428500Y-86084000D01*
G75*
G02*
X112191000Y-85846500I0J237500D01*
G01*
X112191000Y-85271500D01*
G75*
G02*
X112428500Y-85034000I237500J0D01*
G01*
G37*
G36*
G01*
X112428500Y-83284000D02*
X112903500Y-83284000D01*
G75*
G02*
X113141000Y-83521500I0J-237500D01*
G01*
X113141000Y-84096500D01*
G75*
G02*
X112903500Y-84334000I-237500J0D01*
G01*
X112428500Y-84334000D01*
G75*
G02*
X112191000Y-84096500I0J237500D01*
G01*
X112191000Y-83521500D01*
G75*
G02*
X112428500Y-83284000I237500J0D01*
G01*
G37*
G36*
G01*
X112428500Y-81364000D02*
X112903500Y-81364000D01*
G75*
G02*
X113141000Y-81601500I0J-237500D01*
G01*
X113141000Y-82176500D01*
G75*
G02*
X112903500Y-82414000I-237500J0D01*
G01*
X112428500Y-82414000D01*
G75*
G02*
X112191000Y-82176500I0J237500D01*
G01*
X112191000Y-81601500D01*
G75*
G02*
X112428500Y-81364000I237500J0D01*
G01*
G37*
G36*
G01*
X112428500Y-79614000D02*
X112903500Y-79614000D01*
G75*
G02*
X113141000Y-79851500I0J-237500D01*
G01*
X113141000Y-80426500D01*
G75*
G02*
X112903500Y-80664000I-237500J0D01*
G01*
X112428500Y-80664000D01*
G75*
G02*
X112191000Y-80426500I0J237500D01*
G01*
X112191000Y-79851500D01*
G75*
G02*
X112428500Y-79614000I237500J0D01*
G01*
G37*
D16*
X81916000Y-96134000D03*
X82416000Y-96134000D03*
X82916000Y-96134000D03*
X83416000Y-96134000D03*
X83916000Y-96134000D03*
X84416000Y-96134000D03*
X84916000Y-96134000D03*
X85416000Y-96134000D03*
X85916000Y-96134000D03*
X86416000Y-96134000D03*
X86916000Y-96134000D03*
X87416000Y-96134000D03*
D17*
X89016000Y-97734000D03*
X89016000Y-98234000D03*
X89016000Y-98734000D03*
X89016000Y-99234000D03*
X89016000Y-99734000D03*
X89016000Y-100234000D03*
X89016000Y-100734000D03*
X89016000Y-101234000D03*
X89016000Y-101734000D03*
X89016000Y-102234000D03*
X89016000Y-102734000D03*
X89016000Y-103234000D03*
D16*
X87416000Y-104834000D03*
X86916000Y-104834000D03*
X86416000Y-104834000D03*
X85916000Y-104834000D03*
X85416000Y-104834000D03*
X84916000Y-104834000D03*
X84416000Y-104834000D03*
X83916000Y-104834000D03*
X83416000Y-104834000D03*
X82916000Y-104834000D03*
X82416000Y-104834000D03*
X81916000Y-104834000D03*
D17*
X80316000Y-103234000D03*
X80316000Y-102734000D03*
X80316000Y-102234000D03*
X80316000Y-101734000D03*
X80316000Y-101234000D03*
X80316000Y-100734000D03*
X80316000Y-100234000D03*
X80316000Y-99734000D03*
X80316000Y-99234000D03*
X80316000Y-98734000D03*
X80316000Y-98234000D03*
X80316000Y-97734000D03*
D18*
X172941000Y-122634000D03*
X173591000Y-122634000D03*
X174241000Y-122634000D03*
X174891000Y-122634000D03*
X175541000Y-122634000D03*
X176191000Y-122634000D03*
X176841000Y-122634000D03*
X177491000Y-122634000D03*
X178141000Y-122634000D03*
X178791000Y-122634000D03*
X179441000Y-122634000D03*
X180091000Y-122634000D03*
X180741000Y-122634000D03*
X181391000Y-122634000D03*
X181391000Y-128334000D03*
X180741000Y-128334000D03*
X180091000Y-128334000D03*
X179441000Y-128334000D03*
X178791000Y-128334000D03*
X178141000Y-128334000D03*
X177491000Y-128334000D03*
X176841000Y-128334000D03*
X176191000Y-128334000D03*
X175541000Y-128334000D03*
X174891000Y-128334000D03*
X174241000Y-128334000D03*
X173591000Y-128334000D03*
X172941000Y-128334000D03*
D19*
X67116000Y-106109000D03*
X67116000Y-97609000D03*
G36*
G01*
X61666000Y-82796500D02*
X61666000Y-83271500D01*
G75*
G02*
X61428500Y-83509000I-237500J0D01*
G01*
X60853500Y-83509000D01*
G75*
G02*
X60616000Y-83271500I0J237500D01*
G01*
X60616000Y-82796500D01*
G75*
G02*
X60853500Y-82559000I237500J0D01*
G01*
X61428500Y-82559000D01*
G75*
G02*
X61666000Y-82796500I0J-237500D01*
G01*
G37*
G36*
G01*
X63416000Y-82796500D02*
X63416000Y-83271500D01*
G75*
G02*
X63178500Y-83509000I-237500J0D01*
G01*
X62603500Y-83509000D01*
G75*
G02*
X62366000Y-83271500I0J237500D01*
G01*
X62366000Y-82796500D01*
G75*
G02*
X62603500Y-82559000I237500J0D01*
G01*
X63178500Y-82559000D01*
G75*
G02*
X63416000Y-82796500I0J-237500D01*
G01*
G37*
G36*
G01*
X64803500Y-89509000D02*
X64328500Y-89509000D01*
G75*
G02*
X64091000Y-89271500I0J237500D01*
G01*
X64091000Y-88696500D01*
G75*
G02*
X64328500Y-88459000I237500J0D01*
G01*
X64803500Y-88459000D01*
G75*
G02*
X65041000Y-88696500I0J-237500D01*
G01*
X65041000Y-89271500D01*
G75*
G02*
X64803500Y-89509000I-237500J0D01*
G01*
G37*
G36*
G01*
X64803500Y-91259000D02*
X64328500Y-91259000D01*
G75*
G02*
X64091000Y-91021500I0J237500D01*
G01*
X64091000Y-90446500D01*
G75*
G02*
X64328500Y-90209000I237500J0D01*
G01*
X64803500Y-90209000D01*
G75*
G02*
X65041000Y-90446500I0J-237500D01*
G01*
X65041000Y-91021500D01*
G75*
G02*
X64803500Y-91259000I-237500J0D01*
G01*
G37*
G36*
G01*
X58016000Y-91446500D02*
X58016000Y-90971500D01*
G75*
G02*
X58253500Y-90734000I237500J0D01*
G01*
X58828500Y-90734000D01*
G75*
G02*
X59066000Y-90971500I0J-237500D01*
G01*
X59066000Y-91446500D01*
G75*
G02*
X58828500Y-91684000I-237500J0D01*
G01*
X58253500Y-91684000D01*
G75*
G02*
X58016000Y-91446500I0J237500D01*
G01*
G37*
G36*
G01*
X56266000Y-91446500D02*
X56266000Y-90971500D01*
G75*
G02*
X56503500Y-90734000I237500J0D01*
G01*
X57078500Y-90734000D01*
G75*
G02*
X57316000Y-90971500I0J-237500D01*
G01*
X57316000Y-91446500D01*
G75*
G02*
X57078500Y-91684000I-237500J0D01*
G01*
X56503500Y-91684000D01*
G75*
G02*
X56266000Y-91446500I0J237500D01*
G01*
G37*
D20*
X54152592Y-82660672D03*
X57202592Y-82660672D03*
G36*
G01*
X62190092Y-94060672D02*
X62665092Y-94060672D01*
G75*
G02*
X62902592Y-94298172I0J-237500D01*
G01*
X62902592Y-94873172D01*
G75*
G02*
X62665092Y-95110672I-237500J0D01*
G01*
X62190092Y-95110672D01*
G75*
G02*
X61952592Y-94873172I0J237500D01*
G01*
X61952592Y-94298172D01*
G75*
G02*
X62190092Y-94060672I237500J0D01*
G01*
G37*
G36*
G01*
X62190092Y-92310672D02*
X62665092Y-92310672D01*
G75*
G02*
X62902592Y-92548172I0J-237500D01*
G01*
X62902592Y-93123172D01*
G75*
G02*
X62665092Y-93360672I-237500J0D01*
G01*
X62190092Y-93360672D01*
G75*
G02*
X61952592Y-93123172I0J237500D01*
G01*
X61952592Y-92548172D01*
G75*
G02*
X62190092Y-92310672I237500J0D01*
G01*
G37*
D21*
X60242593Y-86535671D03*
X59292593Y-86535671D03*
X61192593Y-86535671D03*
X61192593Y-89235671D03*
X60242593Y-89235671D03*
X59292593Y-89235671D03*
G36*
G01*
X76603500Y-38509000D02*
X76128500Y-38509000D01*
G75*
G02*
X75891000Y-38271500I0J237500D01*
G01*
X75891000Y-37696500D01*
G75*
G02*
X76128500Y-37459000I237500J0D01*
G01*
X76603500Y-37459000D01*
G75*
G02*
X76841000Y-37696500I0J-237500D01*
G01*
X76841000Y-38271500D01*
G75*
G02*
X76603500Y-38509000I-237500J0D01*
G01*
G37*
G36*
G01*
X76603500Y-40259000D02*
X76128500Y-40259000D01*
G75*
G02*
X75891000Y-40021500I0J237500D01*
G01*
X75891000Y-39446500D01*
G75*
G02*
X76128500Y-39209000I237500J0D01*
G01*
X76603500Y-39209000D01*
G75*
G02*
X76841000Y-39446500I0J-237500D01*
G01*
X76841000Y-40021500D01*
G75*
G02*
X76603500Y-40259000I-237500J0D01*
G01*
G37*
D22*
X89766001Y-78134001D03*
X90716001Y-80134001D03*
X88816001Y-80134001D03*
G36*
G01*
X86803500Y-79409000D02*
X87278500Y-79409000D01*
G75*
G02*
X87516000Y-79646500I0J-237500D01*
G01*
X87516000Y-80221500D01*
G75*
G02*
X87278500Y-80459000I-237500J0D01*
G01*
X86803500Y-80459000D01*
G75*
G02*
X86566000Y-80221500I0J237500D01*
G01*
X86566000Y-79646500D01*
G75*
G02*
X86803500Y-79409000I237500J0D01*
G01*
G37*
G36*
G01*
X86803500Y-77659000D02*
X87278500Y-77659000D01*
G75*
G02*
X87516000Y-77896500I0J-237500D01*
G01*
X87516000Y-78471500D01*
G75*
G02*
X87278500Y-78709000I-237500J0D01*
G01*
X86803500Y-78709000D01*
G75*
G02*
X86566000Y-78471500I0J237500D01*
G01*
X86566000Y-77896500D01*
G75*
G02*
X86803500Y-77659000I237500J0D01*
G01*
G37*
G36*
G01*
X90091000Y-82096500D02*
X90091000Y-81621500D01*
G75*
G02*
X90328500Y-81384000I237500J0D01*
G01*
X90903500Y-81384000D01*
G75*
G02*
X91141000Y-81621500I0J-237500D01*
G01*
X91141000Y-82096500D01*
G75*
G02*
X90903500Y-82334000I-237500J0D01*
G01*
X90328500Y-82334000D01*
G75*
G02*
X90091000Y-82096500I0J237500D01*
G01*
G37*
G36*
G01*
X88341000Y-82096500D02*
X88341000Y-81621500D01*
G75*
G02*
X88578500Y-81384000I237500J0D01*
G01*
X89153500Y-81384000D01*
G75*
G02*
X89391000Y-81621500I0J-237500D01*
G01*
X89391000Y-82096500D01*
G75*
G02*
X89153500Y-82334000I-237500J0D01*
G01*
X88578500Y-82334000D01*
G75*
G02*
X88341000Y-82096500I0J237500D01*
G01*
G37*
G36*
G01*
X90291000Y-76696500D02*
X90291000Y-76221500D01*
G75*
G02*
X90528500Y-75984000I237500J0D01*
G01*
X91103500Y-75984000D01*
G75*
G02*
X91341000Y-76221500I0J-237500D01*
G01*
X91341000Y-76696500D01*
G75*
G02*
X91103500Y-76934000I-237500J0D01*
G01*
X90528500Y-76934000D01*
G75*
G02*
X90291000Y-76696500I0J237500D01*
G01*
G37*
G36*
G01*
X88541000Y-76696500D02*
X88541000Y-76221500D01*
G75*
G02*
X88778500Y-75984000I237500J0D01*
G01*
X89353500Y-75984000D01*
G75*
G02*
X89591000Y-76221500I0J-237500D01*
G01*
X89591000Y-76696500D01*
G75*
G02*
X89353500Y-76934000I-237500J0D01*
G01*
X88778500Y-76934000D01*
G75*
G02*
X88541000Y-76696500I0J237500D01*
G01*
G37*
G36*
G01*
X102891000Y-95109000D02*
X102891000Y-96359000D01*
G75*
G02*
X102641000Y-96609000I-250000J0D01*
G01*
X101716000Y-96609000D01*
G75*
G02*
X101466000Y-96359000I0J250000D01*
G01*
X101466000Y-95109000D01*
G75*
G02*
X101716000Y-94859000I250000J0D01*
G01*
X102641000Y-94859000D01*
G75*
G02*
X102891000Y-95109000I0J-250000D01*
G01*
G37*
G36*
G01*
X105866000Y-95109000D02*
X105866000Y-96359000D01*
G75*
G02*
X105616000Y-96609000I-250000J0D01*
G01*
X104691000Y-96609000D01*
G75*
G02*
X104441000Y-96359000I0J250000D01*
G01*
X104441000Y-95109000D01*
G75*
G02*
X104691000Y-94859000I250000J0D01*
G01*
X105616000Y-94859000D01*
G75*
G02*
X105866000Y-95109000I0J-250000D01*
G01*
G37*
G36*
G01*
X102891000Y-97609000D02*
X102891000Y-98859000D01*
G75*
G02*
X102641000Y-99109000I-250000J0D01*
G01*
X101716000Y-99109000D01*
G75*
G02*
X101466000Y-98859000I0J250000D01*
G01*
X101466000Y-97609000D01*
G75*
G02*
X101716000Y-97359000I250000J0D01*
G01*
X102641000Y-97359000D01*
G75*
G02*
X102891000Y-97609000I0J-250000D01*
G01*
G37*
G36*
G01*
X105866000Y-97609000D02*
X105866000Y-98859000D01*
G75*
G02*
X105616000Y-99109000I-250000J0D01*
G01*
X104691000Y-99109000D01*
G75*
G02*
X104441000Y-98859000I0J250000D01*
G01*
X104441000Y-97609000D01*
G75*
G02*
X104691000Y-97359000I250000J0D01*
G01*
X105616000Y-97359000D01*
G75*
G02*
X105866000Y-97609000I0J-250000D01*
G01*
G37*
G36*
G01*
X88916000Y-112146500D02*
X88916000Y-112621500D01*
G75*
G02*
X88678500Y-112859000I-237500J0D01*
G01*
X88103500Y-112859000D01*
G75*
G02*
X87866000Y-112621500I0J237500D01*
G01*
X87866000Y-112146500D01*
G75*
G02*
X88103500Y-111909000I237500J0D01*
G01*
X88678500Y-111909000D01*
G75*
G02*
X88916000Y-112146500I0J-237500D01*
G01*
G37*
G36*
G01*
X90666000Y-112146500D02*
X90666000Y-112621500D01*
G75*
G02*
X90428500Y-112859000I-237500J0D01*
G01*
X89853500Y-112859000D01*
G75*
G02*
X89616000Y-112621500I0J237500D01*
G01*
X89616000Y-112146500D01*
G75*
G02*
X89853500Y-111909000I237500J0D01*
G01*
X90428500Y-111909000D01*
G75*
G02*
X90666000Y-112146500I0J-237500D01*
G01*
G37*
G36*
G01*
X98366000Y-114921500D02*
X98366000Y-114446500D01*
G75*
G02*
X98603500Y-114209000I237500J0D01*
G01*
X99178500Y-114209000D01*
G75*
G02*
X99416000Y-114446500I0J-237500D01*
G01*
X99416000Y-114921500D01*
G75*
G02*
X99178500Y-115159000I-237500J0D01*
G01*
X98603500Y-115159000D01*
G75*
G02*
X98366000Y-114921500I0J237500D01*
G01*
G37*
G36*
G01*
X96616000Y-114921500D02*
X96616000Y-114446500D01*
G75*
G02*
X96853500Y-114209000I237500J0D01*
G01*
X97428500Y-114209000D01*
G75*
G02*
X97666000Y-114446500I0J-237500D01*
G01*
X97666000Y-114921500D01*
G75*
G02*
X97428500Y-115159000I-237500J0D01*
G01*
X96853500Y-115159000D01*
G75*
G02*
X96616000Y-114921500I0J237500D01*
G01*
G37*
G36*
G01*
X96953500Y-117334000D02*
X96478500Y-117334000D01*
G75*
G02*
X96241000Y-117096500I0J237500D01*
G01*
X96241000Y-116521500D01*
G75*
G02*
X96478500Y-116284000I237500J0D01*
G01*
X96953500Y-116284000D01*
G75*
G02*
X97191000Y-116521500I0J-237500D01*
G01*
X97191000Y-117096500D01*
G75*
G02*
X96953500Y-117334000I-237500J0D01*
G01*
G37*
G36*
G01*
X96953500Y-119084000D02*
X96478500Y-119084000D01*
G75*
G02*
X96241000Y-118846500I0J237500D01*
G01*
X96241000Y-118271500D01*
G75*
G02*
X96478500Y-118034000I237500J0D01*
G01*
X96953500Y-118034000D01*
G75*
G02*
X97191000Y-118271500I0J-237500D01*
G01*
X97191000Y-118846500D01*
G75*
G02*
X96953500Y-119084000I-237500J0D01*
G01*
G37*
G36*
G01*
X101478500Y-122234000D02*
X101953500Y-122234000D01*
G75*
G02*
X102191000Y-122471500I0J-237500D01*
G01*
X102191000Y-123046500D01*
G75*
G02*
X101953500Y-123284000I-237500J0D01*
G01*
X101478500Y-123284000D01*
G75*
G02*
X101241000Y-123046500I0J237500D01*
G01*
X101241000Y-122471500D01*
G75*
G02*
X101478500Y-122234000I237500J0D01*
G01*
G37*
G36*
G01*
X101478500Y-120484000D02*
X101953500Y-120484000D01*
G75*
G02*
X102191000Y-120721500I0J-237500D01*
G01*
X102191000Y-121296500D01*
G75*
G02*
X101953500Y-121534000I-237500J0D01*
G01*
X101478500Y-121534000D01*
G75*
G02*
X101241000Y-121296500I0J237500D01*
G01*
X101241000Y-120721500D01*
G75*
G02*
X101478500Y-120484000I237500J0D01*
G01*
G37*
G36*
G01*
X100418501Y-121658999D02*
X99943501Y-121658999D01*
G75*
G02*
X99706001Y-121421499I0J237500D01*
G01*
X99706001Y-120846499D01*
G75*
G02*
X99943501Y-120608999I237500J0D01*
G01*
X100418501Y-120608999D01*
G75*
G02*
X100656001Y-120846499I0J-237500D01*
G01*
X100656001Y-121421499D01*
G75*
G02*
X100418501Y-121658999I-237500J0D01*
G01*
G37*
G36*
G01*
X100418501Y-123408999D02*
X99943501Y-123408999D01*
G75*
G02*
X99706001Y-123171499I0J237500D01*
G01*
X99706001Y-122596499D01*
G75*
G02*
X99943501Y-122358999I237500J0D01*
G01*
X100418501Y-122358999D01*
G75*
G02*
X100656001Y-122596499I0J-237500D01*
G01*
X100656001Y-123171499D01*
G75*
G02*
X100418501Y-123408999I-237500J0D01*
G01*
G37*
D23*
X100666000Y-118994000D03*
X99716000Y-118994000D03*
X98766000Y-118994000D03*
X98766000Y-116374000D03*
X99716000Y-116374000D03*
X100666000Y-116374000D03*
G36*
G01*
X104403500Y-84604000D02*
X103928500Y-84604000D01*
G75*
G02*
X103691000Y-84366500I0J237500D01*
G01*
X103691000Y-83791500D01*
G75*
G02*
X103928500Y-83554000I237500J0D01*
G01*
X104403500Y-83554000D01*
G75*
G02*
X104641000Y-83791500I0J-237500D01*
G01*
X104641000Y-84366500D01*
G75*
G02*
X104403500Y-84604000I-237500J0D01*
G01*
G37*
G36*
G01*
X104403500Y-86354000D02*
X103928500Y-86354000D01*
G75*
G02*
X103691000Y-86116500I0J237500D01*
G01*
X103691000Y-85541500D01*
G75*
G02*
X103928500Y-85304000I237500J0D01*
G01*
X104403500Y-85304000D01*
G75*
G02*
X104641000Y-85541500I0J-237500D01*
G01*
X104641000Y-86116500D01*
G75*
G02*
X104403500Y-86354000I-237500J0D01*
G01*
G37*
G36*
G01*
X109498500Y-87004000D02*
X109973500Y-87004000D01*
G75*
G02*
X110211000Y-87241500I0J-237500D01*
G01*
X110211000Y-87816500D01*
G75*
G02*
X109973500Y-88054000I-237500J0D01*
G01*
X109498500Y-88054000D01*
G75*
G02*
X109261000Y-87816500I0J237500D01*
G01*
X109261000Y-87241500D01*
G75*
G02*
X109498500Y-87004000I237500J0D01*
G01*
G37*
G36*
G01*
X109498500Y-85254000D02*
X109973500Y-85254000D01*
G75*
G02*
X110211000Y-85491500I0J-237500D01*
G01*
X110211000Y-86066500D01*
G75*
G02*
X109973500Y-86304000I-237500J0D01*
G01*
X109498500Y-86304000D01*
G75*
G02*
X109261000Y-86066500I0J237500D01*
G01*
X109261000Y-85491500D01*
G75*
G02*
X109498500Y-85254000I237500J0D01*
G01*
G37*
G36*
G01*
X105428500Y-85304000D02*
X105903500Y-85304000D01*
G75*
G02*
X106141000Y-85541500I0J-237500D01*
G01*
X106141000Y-86116500D01*
G75*
G02*
X105903500Y-86354000I-237500J0D01*
G01*
X105428500Y-86354000D01*
G75*
G02*
X105191000Y-86116500I0J237500D01*
G01*
X105191000Y-85541500D01*
G75*
G02*
X105428500Y-85304000I237500J0D01*
G01*
G37*
G36*
G01*
X105428500Y-83554000D02*
X105903500Y-83554000D01*
G75*
G02*
X106141000Y-83791500I0J-237500D01*
G01*
X106141000Y-84366500D01*
G75*
G02*
X105903500Y-84604000I-237500J0D01*
G01*
X105428500Y-84604000D01*
G75*
G02*
X105191000Y-84366500I0J237500D01*
G01*
X105191000Y-83791500D01*
G75*
G02*
X105428500Y-83554000I237500J0D01*
G01*
G37*
G36*
G01*
X108028500Y-85304000D02*
X108503500Y-85304000D01*
G75*
G02*
X108741000Y-85541500I0J-237500D01*
G01*
X108741000Y-86116500D01*
G75*
G02*
X108503500Y-86354000I-237500J0D01*
G01*
X108028500Y-86354000D01*
G75*
G02*
X107791000Y-86116500I0J237500D01*
G01*
X107791000Y-85541500D01*
G75*
G02*
X108028500Y-85304000I237500J0D01*
G01*
G37*
G36*
G01*
X108028500Y-83554000D02*
X108503500Y-83554000D01*
G75*
G02*
X108741000Y-83791500I0J-237500D01*
G01*
X108741000Y-84366500D01*
G75*
G02*
X108503500Y-84604000I-237500J0D01*
G01*
X108028500Y-84604000D01*
G75*
G02*
X107791000Y-84366500I0J237500D01*
G01*
X107791000Y-83791500D01*
G75*
G02*
X108028500Y-83554000I237500J0D01*
G01*
G37*
G36*
G01*
X103191000Y-75679000D02*
X101941000Y-75679000D01*
G75*
G02*
X101691000Y-75429000I0J250000D01*
G01*
X101691000Y-74679000D01*
G75*
G02*
X101941000Y-74429000I250000J0D01*
G01*
X103191000Y-74429000D01*
G75*
G02*
X103441000Y-74679000I0J-250000D01*
G01*
X103441000Y-75429000D01*
G75*
G02*
X103191000Y-75679000I-250000J0D01*
G01*
G37*
G36*
G01*
X103191000Y-78479000D02*
X101941000Y-78479000D01*
G75*
G02*
X101691000Y-78229000I0J250000D01*
G01*
X101691000Y-77479000D01*
G75*
G02*
X101941000Y-77229000I250000J0D01*
G01*
X103191000Y-77229000D01*
G75*
G02*
X103441000Y-77479000I0J-250000D01*
G01*
X103441000Y-78229000D01*
G75*
G02*
X103191000Y-78479000I-250000J0D01*
G01*
G37*
G36*
G01*
X105998500Y-74504000D02*
X106473500Y-74504000D01*
G75*
G02*
X106711000Y-74741500I0J-237500D01*
G01*
X106711000Y-75316500D01*
G75*
G02*
X106473500Y-75554000I-237500J0D01*
G01*
X105998500Y-75554000D01*
G75*
G02*
X105761000Y-75316500I0J237500D01*
G01*
X105761000Y-74741500D01*
G75*
G02*
X105998500Y-74504000I237500J0D01*
G01*
G37*
G36*
G01*
X105998500Y-72754000D02*
X106473500Y-72754000D01*
G75*
G02*
X106711000Y-72991500I0J-237500D01*
G01*
X106711000Y-73566500D01*
G75*
G02*
X106473500Y-73804000I-237500J0D01*
G01*
X105998500Y-73804000D01*
G75*
G02*
X105761000Y-73566500I0J237500D01*
G01*
X105761000Y-72991500D01*
G75*
G02*
X105998500Y-72754000I237500J0D01*
G01*
G37*
G36*
G01*
X100791000Y-75679000D02*
X99541000Y-75679000D01*
G75*
G02*
X99291000Y-75429000I0J250000D01*
G01*
X99291000Y-74679000D01*
G75*
G02*
X99541000Y-74429000I250000J0D01*
G01*
X100791000Y-74429000D01*
G75*
G02*
X101041000Y-74679000I0J-250000D01*
G01*
X101041000Y-75429000D01*
G75*
G02*
X100791000Y-75679000I-250000J0D01*
G01*
G37*
G36*
G01*
X100791000Y-78479000D02*
X99541000Y-78479000D01*
G75*
G02*
X99291000Y-78229000I0J250000D01*
G01*
X99291000Y-77479000D01*
G75*
G02*
X99541000Y-77229000I250000J0D01*
G01*
X100791000Y-77229000D01*
G75*
G02*
X101041000Y-77479000I0J-250000D01*
G01*
X101041000Y-78229000D01*
G75*
G02*
X100791000Y-78479000I-250000J0D01*
G01*
G37*
G36*
G01*
X109973500Y-78304000D02*
X109498500Y-78304000D01*
G75*
G02*
X109261000Y-78066500I0J237500D01*
G01*
X109261000Y-77491500D01*
G75*
G02*
X109498500Y-77254000I237500J0D01*
G01*
X109973500Y-77254000D01*
G75*
G02*
X110211000Y-77491500I0J-237500D01*
G01*
X110211000Y-78066500D01*
G75*
G02*
X109973500Y-78304000I-237500J0D01*
G01*
G37*
G36*
G01*
X109973500Y-80054000D02*
X109498500Y-80054000D01*
G75*
G02*
X109261000Y-79816500I0J237500D01*
G01*
X109261000Y-79241500D01*
G75*
G02*
X109498500Y-79004000I237500J0D01*
G01*
X109973500Y-79004000D01*
G75*
G02*
X110211000Y-79241500I0J-237500D01*
G01*
X110211000Y-79816500D01*
G75*
G02*
X109973500Y-80054000I-237500J0D01*
G01*
G37*
G36*
G01*
X75316000Y-41521500D02*
X75316000Y-41996500D01*
G75*
G02*
X75078500Y-42234000I-237500J0D01*
G01*
X74503500Y-42234000D01*
G75*
G02*
X74266000Y-41996500I0J237500D01*
G01*
X74266000Y-41521500D01*
G75*
G02*
X74503500Y-41284000I237500J0D01*
G01*
X75078500Y-41284000D01*
G75*
G02*
X75316000Y-41521500I0J-237500D01*
G01*
G37*
G36*
G01*
X77066000Y-41521500D02*
X77066000Y-41996500D01*
G75*
G02*
X76828500Y-42234000I-237500J0D01*
G01*
X76253500Y-42234000D01*
G75*
G02*
X76016000Y-41996500I0J237500D01*
G01*
X76016000Y-41521500D01*
G75*
G02*
X76253500Y-41284000I237500J0D01*
G01*
X76828500Y-41284000D01*
G75*
G02*
X77066000Y-41521500I0J-237500D01*
G01*
G37*
D24*
X96766000Y-57184000D03*
X96766000Y-49534000D03*
D22*
X66866000Y-50759000D03*
X67816000Y-52759000D03*
X65916000Y-52759000D03*
G36*
G01*
X109498500Y-83504000D02*
X109973500Y-83504000D01*
G75*
G02*
X110211000Y-83741500I0J-237500D01*
G01*
X110211000Y-84316500D01*
G75*
G02*
X109973500Y-84554000I-237500J0D01*
G01*
X109498500Y-84554000D01*
G75*
G02*
X109261000Y-84316500I0J237500D01*
G01*
X109261000Y-83741500D01*
G75*
G02*
X109498500Y-83504000I237500J0D01*
G01*
G37*
G36*
G01*
X109498500Y-81754000D02*
X109973500Y-81754000D01*
G75*
G02*
X110211000Y-81991500I0J-237500D01*
G01*
X110211000Y-82566500D01*
G75*
G02*
X109973500Y-82804000I-237500J0D01*
G01*
X109498500Y-82804000D01*
G75*
G02*
X109261000Y-82566500I0J237500D01*
G01*
X109261000Y-81991500D01*
G75*
G02*
X109498500Y-81754000I237500J0D01*
G01*
G37*
G36*
G01*
X107598500Y-74504000D02*
X108073500Y-74504000D01*
G75*
G02*
X108311000Y-74741500I0J-237500D01*
G01*
X108311000Y-75316500D01*
G75*
G02*
X108073500Y-75554000I-237500J0D01*
G01*
X107598500Y-75554000D01*
G75*
G02*
X107361000Y-75316500I0J237500D01*
G01*
X107361000Y-74741500D01*
G75*
G02*
X107598500Y-74504000I237500J0D01*
G01*
G37*
G36*
G01*
X107598500Y-72754000D02*
X108073500Y-72754000D01*
G75*
G02*
X108311000Y-72991500I0J-237500D01*
G01*
X108311000Y-73566500D01*
G75*
G02*
X108073500Y-73804000I-237500J0D01*
G01*
X107598500Y-73804000D01*
G75*
G02*
X107361000Y-73566500I0J237500D01*
G01*
X107361000Y-72991500D01*
G75*
G02*
X107598500Y-72754000I237500J0D01*
G01*
G37*
G36*
G01*
X109673500Y-73804000D02*
X109198500Y-73804000D01*
G75*
G02*
X108961000Y-73566500I0J237500D01*
G01*
X108961000Y-72991500D01*
G75*
G02*
X109198500Y-72754000I237500J0D01*
G01*
X109673500Y-72754000D01*
G75*
G02*
X109911000Y-72991500I0J-237500D01*
G01*
X109911000Y-73566500D01*
G75*
G02*
X109673500Y-73804000I-237500J0D01*
G01*
G37*
G36*
G01*
X109673500Y-75554000D02*
X109198500Y-75554000D01*
G75*
G02*
X108961000Y-75316500I0J237500D01*
G01*
X108961000Y-74741500D01*
G75*
G02*
X109198500Y-74504000I237500J0D01*
G01*
X109673500Y-74504000D01*
G75*
G02*
X109911000Y-74741500I0J-237500D01*
G01*
X109911000Y-75316500D01*
G75*
G02*
X109673500Y-75554000I-237500J0D01*
G01*
G37*
G36*
G01*
X110798500Y-74504000D02*
X111273500Y-74504000D01*
G75*
G02*
X111511000Y-74741500I0J-237500D01*
G01*
X111511000Y-75316500D01*
G75*
G02*
X111273500Y-75554000I-237500J0D01*
G01*
X110798500Y-75554000D01*
G75*
G02*
X110561000Y-75316500I0J237500D01*
G01*
X110561000Y-74741500D01*
G75*
G02*
X110798500Y-74504000I237500J0D01*
G01*
G37*
G36*
G01*
X110798500Y-72754000D02*
X111273500Y-72754000D01*
G75*
G02*
X111511000Y-72991500I0J-237500D01*
G01*
X111511000Y-73566500D01*
G75*
G02*
X111273500Y-73804000I-237500J0D01*
G01*
X110798500Y-73804000D01*
G75*
G02*
X110561000Y-73566500I0J237500D01*
G01*
X110561000Y-72991500D01*
G75*
G02*
X110798500Y-72754000I237500J0D01*
G01*
G37*
G36*
G01*
X71803500Y-50009000D02*
X71328500Y-50009000D01*
G75*
G02*
X71091000Y-49771500I0J237500D01*
G01*
X71091000Y-49196500D01*
G75*
G02*
X71328500Y-48959000I237500J0D01*
G01*
X71803500Y-48959000D01*
G75*
G02*
X72041000Y-49196500I0J-237500D01*
G01*
X72041000Y-49771500D01*
G75*
G02*
X71803500Y-50009000I-237500J0D01*
G01*
G37*
G36*
G01*
X71803500Y-51759000D02*
X71328500Y-51759000D01*
G75*
G02*
X71091000Y-51521500I0J237500D01*
G01*
X71091000Y-50946500D01*
G75*
G02*
X71328500Y-50709000I237500J0D01*
G01*
X71803500Y-50709000D01*
G75*
G02*
X72041000Y-50946500I0J-237500D01*
G01*
X72041000Y-51521500D01*
G75*
G02*
X71803500Y-51759000I-237500J0D01*
G01*
G37*
G36*
G01*
X73403500Y-50009000D02*
X72928500Y-50009000D01*
G75*
G02*
X72691000Y-49771500I0J237500D01*
G01*
X72691000Y-49196500D01*
G75*
G02*
X72928500Y-48959000I237500J0D01*
G01*
X73403500Y-48959000D01*
G75*
G02*
X73641000Y-49196500I0J-237500D01*
G01*
X73641000Y-49771500D01*
G75*
G02*
X73403500Y-50009000I-237500J0D01*
G01*
G37*
G36*
G01*
X73403500Y-51759000D02*
X72928500Y-51759000D01*
G75*
G02*
X72691000Y-51521500I0J237500D01*
G01*
X72691000Y-50946500D01*
G75*
G02*
X72928500Y-50709000I237500J0D01*
G01*
X73403500Y-50709000D01*
G75*
G02*
X73641000Y-50946500I0J-237500D01*
G01*
X73641000Y-51521500D01*
G75*
G02*
X73403500Y-51759000I-237500J0D01*
G01*
G37*
D25*
X106566000Y-79534000D03*
X106566000Y-80374000D03*
X107506000Y-80374000D03*
X107506000Y-79534000D03*
D26*
X106036000Y-77849000D03*
X106536000Y-77849000D03*
X107036000Y-77849000D03*
X107536000Y-77849000D03*
X108036000Y-77849000D03*
X108036000Y-82059000D03*
X107536000Y-82059000D03*
X107036000Y-82059000D03*
X106536000Y-82059000D03*
X106036000Y-82059000D03*
G36*
G01*
X83516000Y-41696500D02*
X83516000Y-41221500D01*
G75*
G02*
X83753500Y-40984000I237500J0D01*
G01*
X84328500Y-40984000D01*
G75*
G02*
X84566000Y-41221500I0J-237500D01*
G01*
X84566000Y-41696500D01*
G75*
G02*
X84328500Y-41934000I-237500J0D01*
G01*
X83753500Y-41934000D01*
G75*
G02*
X83516000Y-41696500I0J237500D01*
G01*
G37*
G36*
G01*
X81766000Y-41696500D02*
X81766000Y-41221500D01*
G75*
G02*
X82003500Y-40984000I237500J0D01*
G01*
X82578500Y-40984000D01*
G75*
G02*
X82816000Y-41221500I0J-237500D01*
G01*
X82816000Y-41696500D01*
G75*
G02*
X82578500Y-41934000I-237500J0D01*
G01*
X82003500Y-41934000D01*
G75*
G02*
X81766000Y-41696500I0J237500D01*
G01*
G37*
G36*
G01*
X72341000Y-53884000D02*
X70191000Y-53884000D01*
G75*
G02*
X69941000Y-53634000I0J250000D01*
G01*
X69941000Y-52884000D01*
G75*
G02*
X70191000Y-52634000I250000J0D01*
G01*
X72341000Y-52634000D01*
G75*
G02*
X72591000Y-52884000I0J-250000D01*
G01*
X72591000Y-53634000D01*
G75*
G02*
X72341000Y-53884000I-250000J0D01*
G01*
G37*
G36*
G01*
X72341000Y-56684000D02*
X70191000Y-56684000D01*
G75*
G02*
X69941000Y-56434000I0J250000D01*
G01*
X69941000Y-55684000D01*
G75*
G02*
X70191000Y-55434000I250000J0D01*
G01*
X72341000Y-55434000D01*
G75*
G02*
X72591000Y-55684000I0J-250000D01*
G01*
X72591000Y-56434000D01*
G75*
G02*
X72341000Y-56684000I-250000J0D01*
G01*
G37*
G36*
G01*
X68616000Y-44496500D02*
X68616000Y-44021500D01*
G75*
G02*
X68853500Y-43784000I237500J0D01*
G01*
X69428500Y-43784000D01*
G75*
G02*
X69666000Y-44021500I0J-237500D01*
G01*
X69666000Y-44496500D01*
G75*
G02*
X69428500Y-44734000I-237500J0D01*
G01*
X68853500Y-44734000D01*
G75*
G02*
X68616000Y-44496500I0J237500D01*
G01*
G37*
G36*
G01*
X66866000Y-44496500D02*
X66866000Y-44021500D01*
G75*
G02*
X67103500Y-43784000I237500J0D01*
G01*
X67678500Y-43784000D01*
G75*
G02*
X67916000Y-44021500I0J-237500D01*
G01*
X67916000Y-44496500D01*
G75*
G02*
X67678500Y-44734000I-237500J0D01*
G01*
X67103500Y-44734000D01*
G75*
G02*
X66866000Y-44496500I0J237500D01*
G01*
G37*
G36*
G01*
X84516000Y-39621500D02*
X84516000Y-40096500D01*
G75*
G02*
X84278500Y-40334000I-237500J0D01*
G01*
X83703500Y-40334000D01*
G75*
G02*
X83466000Y-40096500I0J237500D01*
G01*
X83466000Y-39621500D01*
G75*
G02*
X83703500Y-39384000I237500J0D01*
G01*
X84278500Y-39384000D01*
G75*
G02*
X84516000Y-39621500I0J-237500D01*
G01*
G37*
G36*
G01*
X86266000Y-39621500D02*
X86266000Y-40096500D01*
G75*
G02*
X86028500Y-40334000I-237500J0D01*
G01*
X85453500Y-40334000D01*
G75*
G02*
X85216000Y-40096500I0J237500D01*
G01*
X85216000Y-39621500D01*
G75*
G02*
X85453500Y-39384000I237500J0D01*
G01*
X86028500Y-39384000D01*
G75*
G02*
X86266000Y-39621500I0J-237500D01*
G01*
G37*
G36*
G01*
X82491000Y-43584000D02*
X82491000Y-45734000D01*
G75*
G02*
X82241000Y-45984000I-250000J0D01*
G01*
X81491000Y-45984000D01*
G75*
G02*
X81241000Y-45734000I0J250000D01*
G01*
X81241000Y-43584000D01*
G75*
G02*
X81491000Y-43334000I250000J0D01*
G01*
X82241000Y-43334000D01*
G75*
G02*
X82491000Y-43584000I0J-250000D01*
G01*
G37*
G36*
G01*
X85291000Y-43584000D02*
X85291000Y-45734000D01*
G75*
G02*
X85041000Y-45984000I-250000J0D01*
G01*
X84291000Y-45984000D01*
G75*
G02*
X84041000Y-45734000I0J250000D01*
G01*
X84041000Y-43584000D01*
G75*
G02*
X84291000Y-43334000I250000J0D01*
G01*
X85041000Y-43334000D01*
G75*
G02*
X85291000Y-43584000I0J-250000D01*
G01*
G37*
G36*
G01*
X86828500Y-56009000D02*
X87303500Y-56009000D01*
G75*
G02*
X87541000Y-56246500I0J-237500D01*
G01*
X87541000Y-56821500D01*
G75*
G02*
X87303500Y-57059000I-237500J0D01*
G01*
X86828500Y-57059000D01*
G75*
G02*
X86591000Y-56821500I0J237500D01*
G01*
X86591000Y-56246500D01*
G75*
G02*
X86828500Y-56009000I237500J0D01*
G01*
G37*
G36*
G01*
X86828500Y-54259000D02*
X87303500Y-54259000D01*
G75*
G02*
X87541000Y-54496500I0J-237500D01*
G01*
X87541000Y-55071500D01*
G75*
G02*
X87303500Y-55309000I-237500J0D01*
G01*
X86828500Y-55309000D01*
G75*
G02*
X86591000Y-55071500I0J237500D01*
G01*
X86591000Y-54496500D01*
G75*
G02*
X86828500Y-54259000I237500J0D01*
G01*
G37*
G36*
G01*
X86828500Y-59409000D02*
X87303500Y-59409000D01*
G75*
G02*
X87541000Y-59646500I0J-237500D01*
G01*
X87541000Y-60221500D01*
G75*
G02*
X87303500Y-60459000I-237500J0D01*
G01*
X86828500Y-60459000D01*
G75*
G02*
X86591000Y-60221500I0J237500D01*
G01*
X86591000Y-59646500D01*
G75*
G02*
X86828500Y-59409000I237500J0D01*
G01*
G37*
G36*
G01*
X86828500Y-57659000D02*
X87303500Y-57659000D01*
G75*
G02*
X87541000Y-57896500I0J-237500D01*
G01*
X87541000Y-58471500D01*
G75*
G02*
X87303500Y-58709000I-237500J0D01*
G01*
X86828500Y-58709000D01*
G75*
G02*
X86591000Y-58471500I0J237500D01*
G01*
X86591000Y-57896500D01*
G75*
G02*
X86828500Y-57659000I237500J0D01*
G01*
G37*
G36*
G01*
X83916000Y-58696500D02*
X83916000Y-58221500D01*
G75*
G02*
X84153500Y-57984000I237500J0D01*
G01*
X84728500Y-57984000D01*
G75*
G02*
X84966000Y-58221500I0J-237500D01*
G01*
X84966000Y-58696500D01*
G75*
G02*
X84728500Y-58934000I-237500J0D01*
G01*
X84153500Y-58934000D01*
G75*
G02*
X83916000Y-58696500I0J237500D01*
G01*
G37*
G36*
G01*
X82166000Y-58696500D02*
X82166000Y-58221500D01*
G75*
G02*
X82403500Y-57984000I237500J0D01*
G01*
X82978500Y-57984000D01*
G75*
G02*
X83216000Y-58221500I0J-237500D01*
G01*
X83216000Y-58696500D01*
G75*
G02*
X82978500Y-58934000I-237500J0D01*
G01*
X82403500Y-58934000D01*
G75*
G02*
X82166000Y-58696500I0J237500D01*
G01*
G37*
G36*
G01*
X101603500Y-66309000D02*
X101128500Y-66309000D01*
G75*
G02*
X100891000Y-66071500I0J237500D01*
G01*
X100891000Y-65496500D01*
G75*
G02*
X101128500Y-65259000I237500J0D01*
G01*
X101603500Y-65259000D01*
G75*
G02*
X101841000Y-65496500I0J-237500D01*
G01*
X101841000Y-66071500D01*
G75*
G02*
X101603500Y-66309000I-237500J0D01*
G01*
G37*
G36*
G01*
X101603500Y-68059000D02*
X101128500Y-68059000D01*
G75*
G02*
X100891000Y-67821500I0J237500D01*
G01*
X100891000Y-67246500D01*
G75*
G02*
X101128500Y-67009000I237500J0D01*
G01*
X101603500Y-67009000D01*
G75*
G02*
X101841000Y-67246500I0J-237500D01*
G01*
X101841000Y-67821500D01*
G75*
G02*
X101603500Y-68059000I-237500J0D01*
G01*
G37*
D27*
X122116000Y-76334000D03*
X120316000Y-76334000D03*
X122116000Y-74534000D03*
X122116000Y-72734000D03*
X120316000Y-74534000D03*
X120316000Y-72734000D03*
D28*
X122186000Y-70184000D03*
X120246000Y-70184000D03*
D14*
X84466000Y-50259000D03*
X82466000Y-51209000D03*
X82466000Y-49309000D03*
X67016000Y-85734000D03*
X69016000Y-84784000D03*
X69016000Y-86684000D03*
D11*
X115691000Y-60484000D03*
X116341000Y-60484000D03*
X116991000Y-60484000D03*
X117641000Y-60484000D03*
D12*
X115691000Y-63434000D03*
X116991000Y-63434000D03*
X116341000Y-63434000D03*
X117641000Y-63434000D03*
D13*
X116101000Y-61964000D03*
X116101000Y-61254000D03*
X117231000Y-61254000D03*
X117231000Y-61964000D03*
D29*
X69966000Y-38334000D03*
X69966000Y-37684000D03*
X69966000Y-37034000D03*
X69966000Y-36384000D03*
D30*
X72916000Y-38334000D03*
X72916000Y-37034000D03*
X72916000Y-37684000D03*
X72916000Y-36384000D03*
D31*
X71446000Y-37924000D03*
X70736000Y-37924000D03*
X70736000Y-36794000D03*
X71446000Y-36794000D03*
D29*
X81366000Y-36384000D03*
X81366000Y-37034000D03*
X81366000Y-37684000D03*
X81366000Y-38334000D03*
D30*
X78416000Y-36384000D03*
X78416000Y-37684000D03*
X78416000Y-37034000D03*
X78416000Y-38334000D03*
D31*
X79886000Y-36794000D03*
X80596000Y-36794000D03*
X80596000Y-37924000D03*
X79886000Y-37924000D03*
D11*
X87991000Y-44959000D03*
X88641000Y-44959000D03*
X89291000Y-44959000D03*
X89941000Y-44959000D03*
D12*
X87991000Y-47909000D03*
X89291000Y-47909000D03*
X88641000Y-47909000D03*
X89941000Y-47909000D03*
D13*
X88401000Y-46439000D03*
X88401000Y-45729000D03*
X89531000Y-45729000D03*
X89531000Y-46439000D03*
D29*
X96866000Y-62834000D03*
X96866000Y-62184000D03*
X96866000Y-61534000D03*
X96866000Y-60884000D03*
D30*
X99816000Y-62834000D03*
X99816000Y-61534000D03*
X99816000Y-62184000D03*
X99816000Y-60884000D03*
D31*
X98346000Y-62424000D03*
X97636000Y-62424000D03*
X97636000Y-61294000D03*
X98346000Y-61294000D03*
D11*
X102241000Y-39834000D03*
X102891000Y-39834000D03*
X103541000Y-39834000D03*
X104191000Y-39834000D03*
D12*
X102241000Y-42784000D03*
X103541000Y-42784000D03*
X102891000Y-42784000D03*
X104191000Y-42784000D03*
D13*
X102651000Y-41314000D03*
X102651000Y-40604000D03*
X103781000Y-40604000D03*
X103781000Y-41314000D03*
G36*
G01*
X70203500Y-50009000D02*
X69728500Y-50009000D01*
G75*
G02*
X69491000Y-49771500I0J237500D01*
G01*
X69491000Y-49196500D01*
G75*
G02*
X69728500Y-48959000I237500J0D01*
G01*
X70203500Y-48959000D01*
G75*
G02*
X70441000Y-49196500I0J-237500D01*
G01*
X70441000Y-49771500D01*
G75*
G02*
X70203500Y-50009000I-237500J0D01*
G01*
G37*
G36*
G01*
X70203500Y-51759000D02*
X69728500Y-51759000D01*
G75*
G02*
X69491000Y-51521500I0J237500D01*
G01*
X69491000Y-50946500D01*
G75*
G02*
X69728500Y-50709000I237500J0D01*
G01*
X70203500Y-50709000D01*
G75*
G02*
X70441000Y-50946500I0J-237500D01*
G01*
X70441000Y-51521500D01*
G75*
G02*
X70203500Y-51759000I-237500J0D01*
G01*
G37*
G36*
G01*
X74328500Y-39209000D02*
X74803500Y-39209000D01*
G75*
G02*
X75041000Y-39446500I0J-237500D01*
G01*
X75041000Y-40021500D01*
G75*
G02*
X74803500Y-40259000I-237500J0D01*
G01*
X74328500Y-40259000D01*
G75*
G02*
X74091000Y-40021500I0J237500D01*
G01*
X74091000Y-39446500D01*
G75*
G02*
X74328500Y-39209000I237500J0D01*
G01*
G37*
G36*
G01*
X74328500Y-37459000D02*
X74803500Y-37459000D01*
G75*
G02*
X75041000Y-37696500I0J-237500D01*
G01*
X75041000Y-38271500D01*
G75*
G02*
X74803500Y-38509000I-237500J0D01*
G01*
X74328500Y-38509000D01*
G75*
G02*
X74091000Y-38271500I0J237500D01*
G01*
X74091000Y-37696500D01*
G75*
G02*
X74328500Y-37459000I237500J0D01*
G01*
G37*
G36*
G01*
X79116000Y-40021500D02*
X79116000Y-40496500D01*
G75*
G02*
X78878500Y-40734000I-237500J0D01*
G01*
X78303500Y-40734000D01*
G75*
G02*
X78066000Y-40496500I0J237500D01*
G01*
X78066000Y-40021500D01*
G75*
G02*
X78303500Y-39784000I237500J0D01*
G01*
X78878500Y-39784000D01*
G75*
G02*
X79116000Y-40021500I0J-237500D01*
G01*
G37*
G36*
G01*
X80866000Y-40021500D02*
X80866000Y-40496500D01*
G75*
G02*
X80628500Y-40734000I-237500J0D01*
G01*
X80053500Y-40734000D01*
G75*
G02*
X79816000Y-40496500I0J237500D01*
G01*
X79816000Y-40021500D01*
G75*
G02*
X80053500Y-39784000I237500J0D01*
G01*
X80628500Y-39784000D01*
G75*
G02*
X80866000Y-40021500I0J-237500D01*
G01*
G37*
G36*
G01*
X83616000Y-47296500D02*
X83616000Y-46821500D01*
G75*
G02*
X83853500Y-46584000I237500J0D01*
G01*
X84428500Y-46584000D01*
G75*
G02*
X84666000Y-46821500I0J-237500D01*
G01*
X84666000Y-47296500D01*
G75*
G02*
X84428500Y-47534000I-237500J0D01*
G01*
X83853500Y-47534000D01*
G75*
G02*
X83616000Y-47296500I0J237500D01*
G01*
G37*
G36*
G01*
X81866000Y-47296500D02*
X81866000Y-46821500D01*
G75*
G02*
X82103500Y-46584000I237500J0D01*
G01*
X82678500Y-46584000D01*
G75*
G02*
X82916000Y-46821500I0J-237500D01*
G01*
X82916000Y-47296500D01*
G75*
G02*
X82678500Y-47534000I-237500J0D01*
G01*
X82103500Y-47534000D01*
G75*
G02*
X81866000Y-47296500I0J237500D01*
G01*
G37*
G36*
G01*
X100003500Y-66309000D02*
X99528500Y-66309000D01*
G75*
G02*
X99291000Y-66071500I0J237500D01*
G01*
X99291000Y-65496500D01*
G75*
G02*
X99528500Y-65259000I237500J0D01*
G01*
X100003500Y-65259000D01*
G75*
G02*
X100241000Y-65496500I0J-237500D01*
G01*
X100241000Y-66071500D01*
G75*
G02*
X100003500Y-66309000I-237500J0D01*
G01*
G37*
G36*
G01*
X100003500Y-68059000D02*
X99528500Y-68059000D01*
G75*
G02*
X99291000Y-67821500I0J237500D01*
G01*
X99291000Y-67246500D01*
G75*
G02*
X99528500Y-67009000I237500J0D01*
G01*
X100003500Y-67009000D01*
G75*
G02*
X100241000Y-67246500I0J-237500D01*
G01*
X100241000Y-67821500D01*
G75*
G02*
X100003500Y-68059000I-237500J0D01*
G01*
G37*
G36*
G01*
X96916000Y-67321500D02*
X96916000Y-67796500D01*
G75*
G02*
X96678500Y-68034000I-237500J0D01*
G01*
X96103500Y-68034000D01*
G75*
G02*
X95866000Y-67796500I0J237500D01*
G01*
X95866000Y-67321500D01*
G75*
G02*
X96103500Y-67084000I237500J0D01*
G01*
X96678500Y-67084000D01*
G75*
G02*
X96916000Y-67321500I0J-237500D01*
G01*
G37*
G36*
G01*
X98666000Y-67321500D02*
X98666000Y-67796500D01*
G75*
G02*
X98428500Y-68034000I-237500J0D01*
G01*
X97853500Y-68034000D01*
G75*
G02*
X97616000Y-67796500I0J237500D01*
G01*
X97616000Y-67321500D01*
G75*
G02*
X97853500Y-67084000I237500J0D01*
G01*
X98428500Y-67084000D01*
G75*
G02*
X98666000Y-67321500I0J-237500D01*
G01*
G37*
G36*
G01*
X80416000Y-58696500D02*
X80416000Y-58221500D01*
G75*
G02*
X80653500Y-57984000I237500J0D01*
G01*
X81228500Y-57984000D01*
G75*
G02*
X81466000Y-58221500I0J-237500D01*
G01*
X81466000Y-58696500D01*
G75*
G02*
X81228500Y-58934000I-237500J0D01*
G01*
X80653500Y-58934000D01*
G75*
G02*
X80416000Y-58696500I0J237500D01*
G01*
G37*
G36*
G01*
X78666000Y-58696500D02*
X78666000Y-58221500D01*
G75*
G02*
X78903500Y-57984000I237500J0D01*
G01*
X79478500Y-57984000D01*
G75*
G02*
X79716000Y-58221500I0J-237500D01*
G01*
X79716000Y-58696500D01*
G75*
G02*
X79478500Y-58934000I-237500J0D01*
G01*
X78903500Y-58934000D01*
G75*
G02*
X78666000Y-58696500I0J237500D01*
G01*
G37*
G36*
G01*
X83916000Y-57096500D02*
X83916000Y-56621500D01*
G75*
G02*
X84153500Y-56384000I237500J0D01*
G01*
X84728500Y-56384000D01*
G75*
G02*
X84966000Y-56621500I0J-237500D01*
G01*
X84966000Y-57096500D01*
G75*
G02*
X84728500Y-57334000I-237500J0D01*
G01*
X84153500Y-57334000D01*
G75*
G02*
X83916000Y-57096500I0J237500D01*
G01*
G37*
G36*
G01*
X82166000Y-57096500D02*
X82166000Y-56621500D01*
G75*
G02*
X82403500Y-56384000I237500J0D01*
G01*
X82978500Y-56384000D01*
G75*
G02*
X83216000Y-56621500I0J-237500D01*
G01*
X83216000Y-57096500D01*
G75*
G02*
X82978500Y-57334000I-237500J0D01*
G01*
X82403500Y-57334000D01*
G75*
G02*
X82166000Y-57096500I0J237500D01*
G01*
G37*
G36*
G01*
X75803500Y-53609000D02*
X75328500Y-53609000D01*
G75*
G02*
X75091000Y-53371500I0J237500D01*
G01*
X75091000Y-52796500D01*
G75*
G02*
X75328500Y-52559000I237500J0D01*
G01*
X75803500Y-52559000D01*
G75*
G02*
X76041000Y-52796500I0J-237500D01*
G01*
X76041000Y-53371500D01*
G75*
G02*
X75803500Y-53609000I-237500J0D01*
G01*
G37*
G36*
G01*
X75803500Y-55359000D02*
X75328500Y-55359000D01*
G75*
G02*
X75091000Y-55121500I0J237500D01*
G01*
X75091000Y-54546500D01*
G75*
G02*
X75328500Y-54309000I237500J0D01*
G01*
X75803500Y-54309000D01*
G75*
G02*
X76041000Y-54546500I0J-237500D01*
G01*
X76041000Y-55121500D01*
G75*
G02*
X75803500Y-55359000I-237500J0D01*
G01*
G37*
G36*
G01*
X75803500Y-57109000D02*
X75328500Y-57109000D01*
G75*
G02*
X75091000Y-56871500I0J237500D01*
G01*
X75091000Y-56296500D01*
G75*
G02*
X75328500Y-56059000I237500J0D01*
G01*
X75803500Y-56059000D01*
G75*
G02*
X76041000Y-56296500I0J-237500D01*
G01*
X76041000Y-56871500D01*
G75*
G02*
X75803500Y-57109000I-237500J0D01*
G01*
G37*
G36*
G01*
X75803500Y-58859000D02*
X75328500Y-58859000D01*
G75*
G02*
X75091000Y-58621500I0J237500D01*
G01*
X75091000Y-58046500D01*
G75*
G02*
X75328500Y-57809000I237500J0D01*
G01*
X75803500Y-57809000D01*
G75*
G02*
X76041000Y-58046500I0J-237500D01*
G01*
X76041000Y-58621500D01*
G75*
G02*
X75803500Y-58859000I-237500J0D01*
G01*
G37*
G36*
G01*
X74003500Y-53609000D02*
X73528500Y-53609000D01*
G75*
G02*
X73291000Y-53371500I0J237500D01*
G01*
X73291000Y-52796500D01*
G75*
G02*
X73528500Y-52559000I237500J0D01*
G01*
X74003500Y-52559000D01*
G75*
G02*
X74241000Y-52796500I0J-237500D01*
G01*
X74241000Y-53371500D01*
G75*
G02*
X74003500Y-53609000I-237500J0D01*
G01*
G37*
G36*
G01*
X74003500Y-55359000D02*
X73528500Y-55359000D01*
G75*
G02*
X73291000Y-55121500I0J237500D01*
G01*
X73291000Y-54546500D01*
G75*
G02*
X73528500Y-54309000I237500J0D01*
G01*
X74003500Y-54309000D01*
G75*
G02*
X74241000Y-54546500I0J-237500D01*
G01*
X74241000Y-55121500D01*
G75*
G02*
X74003500Y-55359000I-237500J0D01*
G01*
G37*
G36*
G01*
X74003500Y-57109000D02*
X73528500Y-57109000D01*
G75*
G02*
X73291000Y-56871500I0J237500D01*
G01*
X73291000Y-56296500D01*
G75*
G02*
X73528500Y-56059000I237500J0D01*
G01*
X74003500Y-56059000D01*
G75*
G02*
X74241000Y-56296500I0J-237500D01*
G01*
X74241000Y-56871500D01*
G75*
G02*
X74003500Y-57109000I-237500J0D01*
G01*
G37*
G36*
G01*
X74003500Y-58859000D02*
X73528500Y-58859000D01*
G75*
G02*
X73291000Y-58621500I0J237500D01*
G01*
X73291000Y-58046500D01*
G75*
G02*
X73528500Y-57809000I237500J0D01*
G01*
X74003500Y-57809000D01*
G75*
G02*
X74241000Y-58046500I0J-237500D01*
G01*
X74241000Y-58621500D01*
G75*
G02*
X74003500Y-58859000I-237500J0D01*
G01*
G37*
G36*
G01*
X77503500Y-53609000D02*
X77028500Y-53609000D01*
G75*
G02*
X76791000Y-53371500I0J237500D01*
G01*
X76791000Y-52796500D01*
G75*
G02*
X77028500Y-52559000I237500J0D01*
G01*
X77503500Y-52559000D01*
G75*
G02*
X77741000Y-52796500I0J-237500D01*
G01*
X77741000Y-53371500D01*
G75*
G02*
X77503500Y-53609000I-237500J0D01*
G01*
G37*
G36*
G01*
X77503500Y-55359000D02*
X77028500Y-55359000D01*
G75*
G02*
X76791000Y-55121500I0J237500D01*
G01*
X76791000Y-54546500D01*
G75*
G02*
X77028500Y-54309000I237500J0D01*
G01*
X77503500Y-54309000D01*
G75*
G02*
X77741000Y-54546500I0J-237500D01*
G01*
X77741000Y-55121500D01*
G75*
G02*
X77503500Y-55359000I-237500J0D01*
G01*
G37*
G36*
G01*
X77503500Y-57109000D02*
X77028500Y-57109000D01*
G75*
G02*
X76791000Y-56871500I0J237500D01*
G01*
X76791000Y-56296500D01*
G75*
G02*
X77028500Y-56059000I237500J0D01*
G01*
X77503500Y-56059000D01*
G75*
G02*
X77741000Y-56296500I0J-237500D01*
G01*
X77741000Y-56871500D01*
G75*
G02*
X77503500Y-57109000I-237500J0D01*
G01*
G37*
G36*
G01*
X77503500Y-58859000D02*
X77028500Y-58859000D01*
G75*
G02*
X76791000Y-58621500I0J237500D01*
G01*
X76791000Y-58046500D01*
G75*
G02*
X77028500Y-57809000I237500J0D01*
G01*
X77503500Y-57809000D01*
G75*
G02*
X77741000Y-58046500I0J-237500D01*
G01*
X77741000Y-58621500D01*
G75*
G02*
X77503500Y-58859000I-237500J0D01*
G01*
G37*
G36*
G01*
X72316000Y-42896500D02*
X72316000Y-42421500D01*
G75*
G02*
X72553500Y-42184000I237500J0D01*
G01*
X73128500Y-42184000D01*
G75*
G02*
X73366000Y-42421500I0J-237500D01*
G01*
X73366000Y-42896500D01*
G75*
G02*
X73128500Y-43134000I-237500J0D01*
G01*
X72553500Y-43134000D01*
G75*
G02*
X72316000Y-42896500I0J237500D01*
G01*
G37*
G36*
G01*
X70566000Y-42896500D02*
X70566000Y-42421500D01*
G75*
G02*
X70803500Y-42184000I237500J0D01*
G01*
X71378500Y-42184000D01*
G75*
G02*
X71616000Y-42421500I0J-237500D01*
G01*
X71616000Y-42896500D01*
G75*
G02*
X71378500Y-43134000I-237500J0D01*
G01*
X70803500Y-43134000D01*
G75*
G02*
X70566000Y-42896500I0J237500D01*
G01*
G37*
G36*
G01*
X68616000Y-42896500D02*
X68616000Y-42421500D01*
G75*
G02*
X68853500Y-42184000I237500J0D01*
G01*
X69428500Y-42184000D01*
G75*
G02*
X69666000Y-42421500I0J-237500D01*
G01*
X69666000Y-42896500D01*
G75*
G02*
X69428500Y-43134000I-237500J0D01*
G01*
X68853500Y-43134000D01*
G75*
G02*
X68616000Y-42896500I0J237500D01*
G01*
G37*
G36*
G01*
X66866000Y-42896500D02*
X66866000Y-42421500D01*
G75*
G02*
X67103500Y-42184000I237500J0D01*
G01*
X67678500Y-42184000D01*
G75*
G02*
X67916000Y-42421500I0J-237500D01*
G01*
X67916000Y-42896500D01*
G75*
G02*
X67678500Y-43134000I-237500J0D01*
G01*
X67103500Y-43134000D01*
G75*
G02*
X66866000Y-42896500I0J237500D01*
G01*
G37*
G36*
G01*
X84091000Y-37034000D02*
X84091000Y-38284000D01*
G75*
G02*
X83841000Y-38534000I-250000J0D01*
G01*
X82916000Y-38534000D01*
G75*
G02*
X82666000Y-38284000I0J250000D01*
G01*
X82666000Y-37034000D01*
G75*
G02*
X82916000Y-36784000I250000J0D01*
G01*
X83841000Y-36784000D01*
G75*
G02*
X84091000Y-37034000I0J-250000D01*
G01*
G37*
G36*
G01*
X87066000Y-37034000D02*
X87066000Y-38284000D01*
G75*
G02*
X86816000Y-38534000I-250000J0D01*
G01*
X85891000Y-38534000D01*
G75*
G02*
X85641000Y-38284000I0J250000D01*
G01*
X85641000Y-37034000D01*
G75*
G02*
X85891000Y-36784000I250000J0D01*
G01*
X86816000Y-36784000D01*
G75*
G02*
X87066000Y-37034000I0J-250000D01*
G01*
G37*
G36*
G01*
X88941000Y-59734000D02*
X90191000Y-59734000D01*
G75*
G02*
X90441000Y-59984000I0J-250000D01*
G01*
X90441000Y-60909000D01*
G75*
G02*
X90191000Y-61159000I-250000J0D01*
G01*
X88941000Y-61159000D01*
G75*
G02*
X88691000Y-60909000I0J250000D01*
G01*
X88691000Y-59984000D01*
G75*
G02*
X88941000Y-59734000I250000J0D01*
G01*
G37*
G36*
G01*
X88941000Y-56759000D02*
X90191000Y-56759000D01*
G75*
G02*
X90441000Y-57009000I0J-250000D01*
G01*
X90441000Y-57934000D01*
G75*
G02*
X90191000Y-58184000I-250000J0D01*
G01*
X88941000Y-58184000D01*
G75*
G02*
X88691000Y-57934000I0J250000D01*
G01*
X88691000Y-57009000D01*
G75*
G02*
X88941000Y-56759000I250000J0D01*
G01*
G37*
D32*
X108441000Y-124809000D03*
X108441000Y-123709000D03*
X108441000Y-122609000D03*
X108441000Y-121509000D03*
X108441000Y-120409000D03*
X108441000Y-119309000D03*
X108441000Y-118209000D03*
X108441000Y-117109000D03*
X108441000Y-116009000D03*
X108441000Y-114909000D03*
X108441000Y-113809000D03*
X108441000Y-112709000D03*
X108441000Y-111609000D03*
X108441000Y-110509000D03*
X108441000Y-109409000D03*
X108441000Y-108309000D03*
X122041000Y-108309000D03*
X122041000Y-109409000D03*
X122041000Y-110509000D03*
X122041000Y-111609000D03*
X122041000Y-112709000D03*
X122041000Y-113809000D03*
X122041000Y-114909000D03*
X122041000Y-116009000D03*
X122041000Y-117109000D03*
X122041000Y-118209000D03*
X122041000Y-119309000D03*
X122041000Y-120409000D03*
X122041000Y-121509000D03*
X122041000Y-122609000D03*
X122041000Y-123709000D03*
X122041000Y-124809000D03*
G36*
G01*
X93353500Y-106634000D02*
X92878500Y-106634000D01*
G75*
G02*
X92641000Y-106396500I0J237500D01*
G01*
X92641000Y-105821500D01*
G75*
G02*
X92878500Y-105584000I237500J0D01*
G01*
X93353500Y-105584000D01*
G75*
G02*
X93591000Y-105821500I0J-237500D01*
G01*
X93591000Y-106396500D01*
G75*
G02*
X93353500Y-106634000I-237500J0D01*
G01*
G37*
G36*
G01*
X93353500Y-108384000D02*
X92878500Y-108384000D01*
G75*
G02*
X92641000Y-108146500I0J237500D01*
G01*
X92641000Y-107571500D01*
G75*
G02*
X92878500Y-107334000I237500J0D01*
G01*
X93353500Y-107334000D01*
G75*
G02*
X93591000Y-107571500I0J-237500D01*
G01*
X93591000Y-108146500D01*
G75*
G02*
X93353500Y-108384000I-237500J0D01*
G01*
G37*
G36*
G01*
X203416000Y-105046500D02*
X203416000Y-105521500D01*
G75*
G02*
X203178500Y-105759000I-237500J0D01*
G01*
X202603500Y-105759000D01*
G75*
G02*
X202366000Y-105521500I0J237500D01*
G01*
X202366000Y-105046500D01*
G75*
G02*
X202603500Y-104809000I237500J0D01*
G01*
X203178500Y-104809000D01*
G75*
G02*
X203416000Y-105046500I0J-237500D01*
G01*
G37*
G36*
G01*
X205166000Y-105046500D02*
X205166000Y-105521500D01*
G75*
G02*
X204928500Y-105759000I-237500J0D01*
G01*
X204353500Y-105759000D01*
G75*
G02*
X204116000Y-105521500I0J237500D01*
G01*
X204116000Y-105046500D01*
G75*
G02*
X204353500Y-104809000I237500J0D01*
G01*
X204928500Y-104809000D01*
G75*
G02*
X205166000Y-105046500I0J-237500D01*
G01*
G37*
G36*
G01*
X200816000Y-112121500D02*
X200816000Y-111646500D01*
G75*
G02*
X201053500Y-111409000I237500J0D01*
G01*
X201628500Y-111409000D01*
G75*
G02*
X201866000Y-111646500I0J-237500D01*
G01*
X201866000Y-112121500D01*
G75*
G02*
X201628500Y-112359000I-237500J0D01*
G01*
X201053500Y-112359000D01*
G75*
G02*
X200816000Y-112121500I0J237500D01*
G01*
G37*
G36*
G01*
X199066000Y-112121500D02*
X199066000Y-111646500D01*
G75*
G02*
X199303500Y-111409000I237500J0D01*
G01*
X199878500Y-111409000D01*
G75*
G02*
X200116000Y-111646500I0J-237500D01*
G01*
X200116000Y-112121500D01*
G75*
G02*
X199878500Y-112359000I-237500J0D01*
G01*
X199303500Y-112359000D01*
G75*
G02*
X199066000Y-112121500I0J237500D01*
G01*
G37*
D20*
X195541000Y-103384000D03*
X198591000Y-103384000D03*
G36*
G01*
X203616000Y-111646500D02*
X203616000Y-112121500D01*
G75*
G02*
X203378500Y-112359000I-237500J0D01*
G01*
X202803500Y-112359000D01*
G75*
G02*
X202566000Y-112121500I0J237500D01*
G01*
X202566000Y-111646500D01*
G75*
G02*
X202803500Y-111409000I237500J0D01*
G01*
X203378500Y-111409000D01*
G75*
G02*
X203616000Y-111646500I0J-237500D01*
G01*
G37*
G36*
G01*
X205366000Y-111646500D02*
X205366000Y-112121500D01*
G75*
G02*
X205128500Y-112359000I-237500J0D01*
G01*
X204553500Y-112359000D01*
G75*
G02*
X204316000Y-112121500I0J237500D01*
G01*
X204316000Y-111646500D01*
G75*
G02*
X204553500Y-111409000I237500J0D01*
G01*
X205128500Y-111409000D01*
G75*
G02*
X205366000Y-111646500I0J-237500D01*
G01*
G37*
G36*
G01*
X61516000Y-91496500D02*
X61516000Y-91021500D01*
G75*
G02*
X61753500Y-90784000I237500J0D01*
G01*
X62328500Y-90784000D01*
G75*
G02*
X62566000Y-91021500I0J-237500D01*
G01*
X62566000Y-91496500D01*
G75*
G02*
X62328500Y-91734000I-237500J0D01*
G01*
X61753500Y-91734000D01*
G75*
G02*
X61516000Y-91496500I0J237500D01*
G01*
G37*
G36*
G01*
X59766000Y-91496500D02*
X59766000Y-91021500D01*
G75*
G02*
X60003500Y-90784000I237500J0D01*
G01*
X60578500Y-90784000D01*
G75*
G02*
X60816000Y-91021500I0J-237500D01*
G01*
X60816000Y-91496500D01*
G75*
G02*
X60578500Y-91734000I-237500J0D01*
G01*
X60003500Y-91734000D01*
G75*
G02*
X59766000Y-91496500I0J237500D01*
G01*
G37*
D21*
X202866000Y-107234000D03*
X201916000Y-107234000D03*
X203816000Y-107234000D03*
X203816000Y-109934000D03*
X202866000Y-109934000D03*
X201916000Y-109934000D03*
D33*
X123416000Y-47334000D03*
X110416000Y-47334000D03*
G36*
G01*
X72316000Y-44496500D02*
X72316000Y-44021500D01*
G75*
G02*
X72553500Y-43784000I237500J0D01*
G01*
X73128500Y-43784000D01*
G75*
G02*
X73366000Y-44021500I0J-237500D01*
G01*
X73366000Y-44496500D01*
G75*
G02*
X73128500Y-44734000I-237500J0D01*
G01*
X72553500Y-44734000D01*
G75*
G02*
X72316000Y-44496500I0J237500D01*
G01*
G37*
G36*
G01*
X70566000Y-44496500D02*
X70566000Y-44021500D01*
G75*
G02*
X70803500Y-43784000I237500J0D01*
G01*
X71378500Y-43784000D01*
G75*
G02*
X71616000Y-44021500I0J-237500D01*
G01*
X71616000Y-44496500D01*
G75*
G02*
X71378500Y-44734000I-237500J0D01*
G01*
X70803500Y-44734000D01*
G75*
G02*
X70566000Y-44496500I0J237500D01*
G01*
G37*
G36*
G01*
X147128500Y-80884000D02*
X147603500Y-80884000D01*
G75*
G02*
X147841000Y-81121500I0J-237500D01*
G01*
X147841000Y-81696500D01*
G75*
G02*
X147603500Y-81934000I-237500J0D01*
G01*
X147128500Y-81934000D01*
G75*
G02*
X146891000Y-81696500I0J237500D01*
G01*
X146891000Y-81121500D01*
G75*
G02*
X147128500Y-80884000I237500J0D01*
G01*
G37*
G36*
G01*
X147128500Y-79134000D02*
X147603500Y-79134000D01*
G75*
G02*
X147841000Y-79371500I0J-237500D01*
G01*
X147841000Y-79946500D01*
G75*
G02*
X147603500Y-80184000I-237500J0D01*
G01*
X147128500Y-80184000D01*
G75*
G02*
X146891000Y-79946500I0J237500D01*
G01*
X146891000Y-79371500D01*
G75*
G02*
X147128500Y-79134000I237500J0D01*
G01*
G37*
G36*
G01*
X104098500Y-81404000D02*
X104573500Y-81404000D01*
G75*
G02*
X104811000Y-81641500I0J-237500D01*
G01*
X104811000Y-82216500D01*
G75*
G02*
X104573500Y-82454000I-237500J0D01*
G01*
X104098500Y-82454000D01*
G75*
G02*
X103861000Y-82216500I0J237500D01*
G01*
X103861000Y-81641500D01*
G75*
G02*
X104098500Y-81404000I237500J0D01*
G01*
G37*
G36*
G01*
X104098500Y-79654000D02*
X104573500Y-79654000D01*
G75*
G02*
X104811000Y-79891500I0J-237500D01*
G01*
X104811000Y-80466500D01*
G75*
G02*
X104573500Y-80704000I-237500J0D01*
G01*
X104098500Y-80704000D01*
G75*
G02*
X103861000Y-80466500I0J237500D01*
G01*
X103861000Y-79891500D01*
G75*
G02*
X104098500Y-79654000I237500J0D01*
G01*
G37*
G36*
G01*
X116891001Y-67259000D02*
X114040999Y-67259000D01*
G75*
G02*
X113791000Y-67009001I0J249999D01*
G01*
X113791000Y-65983999D01*
G75*
G02*
X114040999Y-65734000I249999J0D01*
G01*
X116891001Y-65734000D01*
G75*
G02*
X117141000Y-65983999I0J-249999D01*
G01*
X117141000Y-67009001D01*
G75*
G02*
X116891001Y-67259000I-249999J0D01*
G01*
G37*
G36*
G01*
X116891001Y-73234000D02*
X114040999Y-73234000D01*
G75*
G02*
X113791000Y-72984001I0J249999D01*
G01*
X113791000Y-71958999D01*
G75*
G02*
X114040999Y-71709000I249999J0D01*
G01*
X116891001Y-71709000D01*
G75*
G02*
X117141000Y-71958999I0J-249999D01*
G01*
X117141000Y-72984001D01*
G75*
G02*
X116891001Y-73234000I-249999J0D01*
G01*
G37*
G36*
G01*
X102498500Y-81404000D02*
X102973500Y-81404000D01*
G75*
G02*
X103211000Y-81641500I0J-237500D01*
G01*
X103211000Y-82216500D01*
G75*
G02*
X102973500Y-82454000I-237500J0D01*
G01*
X102498500Y-82454000D01*
G75*
G02*
X102261000Y-82216500I0J237500D01*
G01*
X102261000Y-81641500D01*
G75*
G02*
X102498500Y-81404000I237500J0D01*
G01*
G37*
G36*
G01*
X102498500Y-79654000D02*
X102973500Y-79654000D01*
G75*
G02*
X103211000Y-79891500I0J-237500D01*
G01*
X103211000Y-80466500D01*
G75*
G02*
X102973500Y-80704000I-237500J0D01*
G01*
X102498500Y-80704000D01*
G75*
G02*
X102261000Y-80466500I0J237500D01*
G01*
X102261000Y-79891500D01*
G75*
G02*
X102498500Y-79654000I237500J0D01*
G01*
G37*
G36*
G01*
X100898500Y-81404000D02*
X101373500Y-81404000D01*
G75*
G02*
X101611000Y-81641500I0J-237500D01*
G01*
X101611000Y-82216500D01*
G75*
G02*
X101373500Y-82454000I-237500J0D01*
G01*
X100898500Y-82454000D01*
G75*
G02*
X100661000Y-82216500I0J237500D01*
G01*
X100661000Y-81641500D01*
G75*
G02*
X100898500Y-81404000I237500J0D01*
G01*
G37*
G36*
G01*
X100898500Y-79654000D02*
X101373500Y-79654000D01*
G75*
G02*
X101611000Y-79891500I0J-237500D01*
G01*
X101611000Y-80466500D01*
G75*
G02*
X101373500Y-80704000I-237500J0D01*
G01*
X100898500Y-80704000D01*
G75*
G02*
X100661000Y-80466500I0J237500D01*
G01*
X100661000Y-79891500D01*
G75*
G02*
X100898500Y-79654000I237500J0D01*
G01*
G37*
G36*
G01*
X99328500Y-81434000D02*
X99803500Y-81434000D01*
G75*
G02*
X100041000Y-81671500I0J-237500D01*
G01*
X100041000Y-82246500D01*
G75*
G02*
X99803500Y-82484000I-237500J0D01*
G01*
X99328500Y-82484000D01*
G75*
G02*
X99091000Y-82246500I0J237500D01*
G01*
X99091000Y-81671500D01*
G75*
G02*
X99328500Y-81434000I237500J0D01*
G01*
G37*
G36*
G01*
X99328500Y-79684000D02*
X99803500Y-79684000D01*
G75*
G02*
X100041000Y-79921500I0J-237500D01*
G01*
X100041000Y-80496500D01*
G75*
G02*
X99803500Y-80734000I-237500J0D01*
G01*
X99328500Y-80734000D01*
G75*
G02*
X99091000Y-80496500I0J237500D01*
G01*
X99091000Y-79921500D01*
G75*
G02*
X99328500Y-79684000I237500J0D01*
G01*
G37*
G36*
G01*
X184153500Y-87384000D02*
X183678500Y-87384000D01*
G75*
G02*
X183441000Y-87146500I0J237500D01*
G01*
X183441000Y-86571500D01*
G75*
G02*
X183678500Y-86334000I237500J0D01*
G01*
X184153500Y-86334000D01*
G75*
G02*
X184391000Y-86571500I0J-237500D01*
G01*
X184391000Y-87146500D01*
G75*
G02*
X184153500Y-87384000I-237500J0D01*
G01*
G37*
G36*
G01*
X184153500Y-89134000D02*
X183678500Y-89134000D01*
G75*
G02*
X183441000Y-88896500I0J237500D01*
G01*
X183441000Y-88321500D01*
G75*
G02*
X183678500Y-88084000I237500J0D01*
G01*
X184153500Y-88084000D01*
G75*
G02*
X184391000Y-88321500I0J-237500D01*
G01*
X184391000Y-88896500D01*
G75*
G02*
X184153500Y-89134000I-237500J0D01*
G01*
G37*
G36*
G01*
X182828500Y-77984000D02*
X183303500Y-77984000D01*
G75*
G02*
X183541000Y-78221500I0J-237500D01*
G01*
X183541000Y-78796500D01*
G75*
G02*
X183303500Y-79034000I-237500J0D01*
G01*
X182828500Y-79034000D01*
G75*
G02*
X182591000Y-78796500I0J237500D01*
G01*
X182591000Y-78221500D01*
G75*
G02*
X182828500Y-77984000I237500J0D01*
G01*
G37*
G36*
G01*
X182828500Y-79734000D02*
X183303500Y-79734000D01*
G75*
G02*
X183541000Y-79971500I0J-237500D01*
G01*
X183541000Y-80546500D01*
G75*
G02*
X183303500Y-80784000I-237500J0D01*
G01*
X182828500Y-80784000D01*
G75*
G02*
X182591000Y-80546500I0J237500D01*
G01*
X182591000Y-79971500D01*
G75*
G02*
X182828500Y-79734000I237500J0D01*
G01*
G37*
G36*
G01*
X161528500Y-79234000D02*
X162003500Y-79234000D01*
G75*
G02*
X162241000Y-79471500I0J-237500D01*
G01*
X162241000Y-80046500D01*
G75*
G02*
X162003500Y-80284000I-237500J0D01*
G01*
X161528500Y-80284000D01*
G75*
G02*
X161291000Y-80046500I0J237500D01*
G01*
X161291000Y-79471500D01*
G75*
G02*
X161528500Y-79234000I237500J0D01*
G01*
G37*
G36*
G01*
X161528500Y-80984000D02*
X162003500Y-80984000D01*
G75*
G02*
X162241000Y-81221500I0J-237500D01*
G01*
X162241000Y-81796500D01*
G75*
G02*
X162003500Y-82034000I-237500J0D01*
G01*
X161528500Y-82034000D01*
G75*
G02*
X161291000Y-81796500I0J237500D01*
G01*
X161291000Y-81221500D01*
G75*
G02*
X161528500Y-80984000I237500J0D01*
G01*
G37*
G36*
G01*
X168578500Y-80934000D02*
X169053500Y-80934000D01*
G75*
G02*
X169291000Y-81171500I0J-237500D01*
G01*
X169291000Y-81746500D01*
G75*
G02*
X169053500Y-81984000I-237500J0D01*
G01*
X168578500Y-81984000D01*
G75*
G02*
X168341000Y-81746500I0J237500D01*
G01*
X168341000Y-81171500D01*
G75*
G02*
X168578500Y-80934000I237500J0D01*
G01*
G37*
G36*
G01*
X168578500Y-79184000D02*
X169053500Y-79184000D01*
G75*
G02*
X169291000Y-79421500I0J-237500D01*
G01*
X169291000Y-79996500D01*
G75*
G02*
X169053500Y-80234000I-237500J0D01*
G01*
X168578500Y-80234000D01*
G75*
G02*
X168341000Y-79996500I0J237500D01*
G01*
X168341000Y-79421500D01*
G75*
G02*
X168578500Y-79184000I237500J0D01*
G01*
G37*
G36*
G01*
X86303500Y-52159000D02*
X85828500Y-52159000D01*
G75*
G02*
X85591000Y-51921500I0J237500D01*
G01*
X85591000Y-51346500D01*
G75*
G02*
X85828500Y-51109000I237500J0D01*
G01*
X86303500Y-51109000D01*
G75*
G02*
X86541000Y-51346500I0J-237500D01*
G01*
X86541000Y-51921500D01*
G75*
G02*
X86303500Y-52159000I-237500J0D01*
G01*
G37*
G36*
G01*
X86303500Y-50409000D02*
X85828500Y-50409000D01*
G75*
G02*
X85591000Y-50171500I0J237500D01*
G01*
X85591000Y-49596500D01*
G75*
G02*
X85828500Y-49359000I237500J0D01*
G01*
X86303500Y-49359000D01*
G75*
G02*
X86541000Y-49596500I0J-237500D01*
G01*
X86541000Y-50171500D01*
G75*
G02*
X86303500Y-50409000I-237500J0D01*
G01*
G37*
G36*
G01*
X176266000Y-93271500D02*
X176266000Y-92796500D01*
G75*
G02*
X176503500Y-92559000I237500J0D01*
G01*
X177078500Y-92559000D01*
G75*
G02*
X177316000Y-92796500I0J-237500D01*
G01*
X177316000Y-93271500D01*
G75*
G02*
X177078500Y-93509000I-237500J0D01*
G01*
X176503500Y-93509000D01*
G75*
G02*
X176266000Y-93271500I0J237500D01*
G01*
G37*
G36*
G01*
X174516000Y-93271500D02*
X174516000Y-92796500D01*
G75*
G02*
X174753500Y-92559000I237500J0D01*
G01*
X175328500Y-92559000D01*
G75*
G02*
X175566000Y-92796500I0J-237500D01*
G01*
X175566000Y-93271500D01*
G75*
G02*
X175328500Y-93509000I-237500J0D01*
G01*
X174753500Y-93509000D01*
G75*
G02*
X174516000Y-93271500I0J237500D01*
G01*
G37*
G36*
G01*
X152616000Y-92571500D02*
X152616000Y-92096500D01*
G75*
G02*
X152853500Y-91859000I237500J0D01*
G01*
X153428500Y-91859000D01*
G75*
G02*
X153666000Y-92096500I0J-237500D01*
G01*
X153666000Y-92571500D01*
G75*
G02*
X153428500Y-92809000I-237500J0D01*
G01*
X152853500Y-92809000D01*
G75*
G02*
X152616000Y-92571500I0J237500D01*
G01*
G37*
G36*
G01*
X154366000Y-92571500D02*
X154366000Y-92096500D01*
G75*
G02*
X154603500Y-91859000I237500J0D01*
G01*
X155178500Y-91859000D01*
G75*
G02*
X155416000Y-92096500I0J-237500D01*
G01*
X155416000Y-92571500D01*
G75*
G02*
X155178500Y-92809000I-237500J0D01*
G01*
X154603500Y-92809000D01*
G75*
G02*
X154366000Y-92571500I0J237500D01*
G01*
G37*
D34*
X137316000Y-59984000D03*
X137316000Y-52284000D03*
X148516000Y-52284000D03*
X148516000Y-59984000D03*
X159716000Y-59984000D03*
X159716000Y-52284000D03*
X170916000Y-52284000D03*
X170916000Y-59984000D03*
X193316000Y-59984000D03*
X193316000Y-52284000D03*
X182116000Y-52284000D03*
X182116000Y-59984000D03*
G36*
G01*
X156916000Y-89171500D02*
X156916000Y-88696500D01*
G75*
G02*
X157153500Y-88459000I237500J0D01*
G01*
X157728500Y-88459000D01*
G75*
G02*
X157966000Y-88696500I0J-237500D01*
G01*
X157966000Y-89171500D01*
G75*
G02*
X157728500Y-89409000I-237500J0D01*
G01*
X157153500Y-89409000D01*
G75*
G02*
X156916000Y-89171500I0J237500D01*
G01*
G37*
G36*
G01*
X158666000Y-89171500D02*
X158666000Y-88696500D01*
G75*
G02*
X158903500Y-88459000I237500J0D01*
G01*
X159478500Y-88459000D01*
G75*
G02*
X159716000Y-88696500I0J-237500D01*
G01*
X159716000Y-89171500D01*
G75*
G02*
X159478500Y-89409000I-237500J0D01*
G01*
X158903500Y-89409000D01*
G75*
G02*
X158666000Y-89171500I0J237500D01*
G01*
G37*
G36*
G01*
X175353500Y-90284000D02*
X174878500Y-90284000D01*
G75*
G02*
X174641000Y-90046500I0J237500D01*
G01*
X174641000Y-89471500D01*
G75*
G02*
X174878500Y-89234000I237500J0D01*
G01*
X175353500Y-89234000D01*
G75*
G02*
X175591000Y-89471500I0J-237500D01*
G01*
X175591000Y-90046500D01*
G75*
G02*
X175353500Y-90284000I-237500J0D01*
G01*
G37*
G36*
G01*
X175353500Y-92034000D02*
X174878500Y-92034000D01*
G75*
G02*
X174641000Y-91796500I0J237500D01*
G01*
X174641000Y-91221500D01*
G75*
G02*
X174878500Y-90984000I237500J0D01*
G01*
X175353500Y-90984000D01*
G75*
G02*
X175591000Y-91221500I0J-237500D01*
G01*
X175591000Y-91796500D01*
G75*
G02*
X175353500Y-92034000I-237500J0D01*
G01*
G37*
G36*
G01*
X176378500Y-89234000D02*
X176853500Y-89234000D01*
G75*
G02*
X177091000Y-89471500I0J-237500D01*
G01*
X177091000Y-90046500D01*
G75*
G02*
X176853500Y-90284000I-237500J0D01*
G01*
X176378500Y-90284000D01*
G75*
G02*
X176141000Y-90046500I0J237500D01*
G01*
X176141000Y-89471500D01*
G75*
G02*
X176378500Y-89234000I237500J0D01*
G01*
G37*
G36*
G01*
X176378500Y-90984000D02*
X176853500Y-90984000D01*
G75*
G02*
X177091000Y-91221500I0J-237500D01*
G01*
X177091000Y-91796500D01*
G75*
G02*
X176853500Y-92034000I-237500J0D01*
G01*
X176378500Y-92034000D01*
G75*
G02*
X176141000Y-91796500I0J237500D01*
G01*
X176141000Y-91221500D01*
G75*
G02*
X176378500Y-90984000I237500J0D01*
G01*
G37*
G36*
G01*
X90403500Y-108034000D02*
X89928500Y-108034000D01*
G75*
G02*
X89691000Y-107796500I0J237500D01*
G01*
X89691000Y-107221500D01*
G75*
G02*
X89928500Y-106984000I237500J0D01*
G01*
X90403500Y-106984000D01*
G75*
G02*
X90641000Y-107221500I0J-237500D01*
G01*
X90641000Y-107796500D01*
G75*
G02*
X90403500Y-108034000I-237500J0D01*
G01*
G37*
G36*
G01*
X90403500Y-106284000D02*
X89928500Y-106284000D01*
G75*
G02*
X89691000Y-106046500I0J237500D01*
G01*
X89691000Y-105471500D01*
G75*
G02*
X89928500Y-105234000I237500J0D01*
G01*
X90403500Y-105234000D01*
G75*
G02*
X90641000Y-105471500I0J-237500D01*
G01*
X90641000Y-106046500D01*
G75*
G02*
X90403500Y-106284000I-237500J0D01*
G01*
G37*
G36*
G01*
X82278500Y-89434000D02*
X82753500Y-89434000D01*
G75*
G02*
X82991000Y-89671500I0J-237500D01*
G01*
X82991000Y-90246500D01*
G75*
G02*
X82753500Y-90484000I-237500J0D01*
G01*
X82278500Y-90484000D01*
G75*
G02*
X82041000Y-90246500I0J237500D01*
G01*
X82041000Y-89671500D01*
G75*
G02*
X82278500Y-89434000I237500J0D01*
G01*
G37*
G36*
G01*
X82278500Y-87684000D02*
X82753500Y-87684000D01*
G75*
G02*
X82991000Y-87921500I0J-237500D01*
G01*
X82991000Y-88496500D01*
G75*
G02*
X82753500Y-88734000I-237500J0D01*
G01*
X82278500Y-88734000D01*
G75*
G02*
X82041000Y-88496500I0J237500D01*
G01*
X82041000Y-87921500D01*
G75*
G02*
X82278500Y-87684000I237500J0D01*
G01*
G37*
G36*
G01*
X152878500Y-90184000D02*
X153353500Y-90184000D01*
G75*
G02*
X153591000Y-90421500I0J-237500D01*
G01*
X153591000Y-90996500D01*
G75*
G02*
X153353500Y-91234000I-237500J0D01*
G01*
X152878500Y-91234000D01*
G75*
G02*
X152641000Y-90996500I0J237500D01*
G01*
X152641000Y-90421500D01*
G75*
G02*
X152878500Y-90184000I237500J0D01*
G01*
G37*
G36*
G01*
X152878500Y-88434000D02*
X153353500Y-88434000D01*
G75*
G02*
X153591000Y-88671500I0J-237500D01*
G01*
X153591000Y-89246500D01*
G75*
G02*
X153353500Y-89484000I-237500J0D01*
G01*
X152878500Y-89484000D01*
G75*
G02*
X152641000Y-89246500I0J237500D01*
G01*
X152641000Y-88671500D01*
G75*
G02*
X152878500Y-88434000I237500J0D01*
G01*
G37*
G36*
G01*
X155153500Y-91234000D02*
X154678500Y-91234000D01*
G75*
G02*
X154441000Y-90996500I0J237500D01*
G01*
X154441000Y-90421500D01*
G75*
G02*
X154678500Y-90184000I237500J0D01*
G01*
X155153500Y-90184000D01*
G75*
G02*
X155391000Y-90421500I0J-237500D01*
G01*
X155391000Y-90996500D01*
G75*
G02*
X155153500Y-91234000I-237500J0D01*
G01*
G37*
G36*
G01*
X155153500Y-89484000D02*
X154678500Y-89484000D01*
G75*
G02*
X154441000Y-89246500I0J237500D01*
G01*
X154441000Y-88671500D01*
G75*
G02*
X154678500Y-88434000I237500J0D01*
G01*
X155153500Y-88434000D01*
G75*
G02*
X155391000Y-88671500I0J-237500D01*
G01*
X155391000Y-89246500D01*
G75*
G02*
X155153500Y-89484000I-237500J0D01*
G01*
G37*
G36*
G01*
X146366000Y-89021500D02*
X146366000Y-88546500D01*
G75*
G02*
X146603500Y-88309000I237500J0D01*
G01*
X147178500Y-88309000D01*
G75*
G02*
X147416000Y-88546500I0J-237500D01*
G01*
X147416000Y-89021500D01*
G75*
G02*
X147178500Y-89259000I-237500J0D01*
G01*
X146603500Y-89259000D01*
G75*
G02*
X146366000Y-89021500I0J237500D01*
G01*
G37*
G36*
G01*
X148116000Y-89021500D02*
X148116000Y-88546500D01*
G75*
G02*
X148353500Y-88309000I237500J0D01*
G01*
X148928500Y-88309000D01*
G75*
G02*
X149166000Y-88546500I0J-237500D01*
G01*
X149166000Y-89021500D01*
G75*
G02*
X148928500Y-89259000I-237500J0D01*
G01*
X148353500Y-89259000D01*
G75*
G02*
X148116000Y-89021500I0J237500D01*
G01*
G37*
G36*
G01*
X185266000Y-108921500D02*
X185266000Y-108446500D01*
G75*
G02*
X185503500Y-108209000I237500J0D01*
G01*
X186078500Y-108209000D01*
G75*
G02*
X186316000Y-108446500I0J-237500D01*
G01*
X186316000Y-108921500D01*
G75*
G02*
X186078500Y-109159000I-237500J0D01*
G01*
X185503500Y-109159000D01*
G75*
G02*
X185266000Y-108921500I0J237500D01*
G01*
G37*
G36*
G01*
X183516000Y-108921500D02*
X183516000Y-108446500D01*
G75*
G02*
X183753500Y-108209000I237500J0D01*
G01*
X184328500Y-108209000D01*
G75*
G02*
X184566000Y-108446500I0J-237500D01*
G01*
X184566000Y-108921500D01*
G75*
G02*
X184328500Y-109159000I-237500J0D01*
G01*
X183753500Y-109159000D01*
G75*
G02*
X183516000Y-108921500I0J237500D01*
G01*
G37*
G36*
G01*
X170766000Y-89971500D02*
X170766000Y-89496500D01*
G75*
G02*
X171003500Y-89259000I237500J0D01*
G01*
X171578500Y-89259000D01*
G75*
G02*
X171816000Y-89496500I0J-237500D01*
G01*
X171816000Y-89971500D01*
G75*
G02*
X171578500Y-90209000I-237500J0D01*
G01*
X171003500Y-90209000D01*
G75*
G02*
X170766000Y-89971500I0J237500D01*
G01*
G37*
G36*
G01*
X169016000Y-89971500D02*
X169016000Y-89496500D01*
G75*
G02*
X169253500Y-89259000I237500J0D01*
G01*
X169828500Y-89259000D01*
G75*
G02*
X170066000Y-89496500I0J-237500D01*
G01*
X170066000Y-89971500D01*
G75*
G02*
X169828500Y-90209000I-237500J0D01*
G01*
X169253500Y-90209000D01*
G75*
G02*
X169016000Y-89971500I0J237500D01*
G01*
G37*
G36*
G01*
X78878500Y-123359000D02*
X79353500Y-123359000D01*
G75*
G02*
X79591000Y-123596500I0J-237500D01*
G01*
X79591000Y-124171500D01*
G75*
G02*
X79353500Y-124409000I-237500J0D01*
G01*
X78878500Y-124409000D01*
G75*
G02*
X78641000Y-124171500I0J237500D01*
G01*
X78641000Y-123596500D01*
G75*
G02*
X78878500Y-123359000I237500J0D01*
G01*
G37*
G36*
G01*
X78878500Y-121609000D02*
X79353500Y-121609000D01*
G75*
G02*
X79591000Y-121846500I0J-237500D01*
G01*
X79591000Y-122421500D01*
G75*
G02*
X79353500Y-122659000I-237500J0D01*
G01*
X78878500Y-122659000D01*
G75*
G02*
X78641000Y-122421500I0J237500D01*
G01*
X78641000Y-121846500D01*
G75*
G02*
X78878500Y-121609000I237500J0D01*
G01*
G37*
G36*
G01*
X81828500Y-121609000D02*
X82303500Y-121609000D01*
G75*
G02*
X82541000Y-121846500I0J-237500D01*
G01*
X82541000Y-122421500D01*
G75*
G02*
X82303500Y-122659000I-237500J0D01*
G01*
X81828500Y-122659000D01*
G75*
G02*
X81591000Y-122421500I0J237500D01*
G01*
X81591000Y-121846500D01*
G75*
G02*
X81828500Y-121609000I237500J0D01*
G01*
G37*
G36*
G01*
X81828500Y-123359000D02*
X82303500Y-123359000D01*
G75*
G02*
X82541000Y-123596500I0J-237500D01*
G01*
X82541000Y-124171500D01*
G75*
G02*
X82303500Y-124409000I-237500J0D01*
G01*
X81828500Y-124409000D01*
G75*
G02*
X81591000Y-124171500I0J237500D01*
G01*
X81591000Y-123596500D01*
G75*
G02*
X81828500Y-123359000I237500J0D01*
G01*
G37*
G36*
G01*
X84778500Y-123359000D02*
X85253500Y-123359000D01*
G75*
G02*
X85491000Y-123596500I0J-237500D01*
G01*
X85491000Y-124171500D01*
G75*
G02*
X85253500Y-124409000I-237500J0D01*
G01*
X84778500Y-124409000D01*
G75*
G02*
X84541000Y-124171500I0J237500D01*
G01*
X84541000Y-123596500D01*
G75*
G02*
X84778500Y-123359000I237500J0D01*
G01*
G37*
G36*
G01*
X84778500Y-121609000D02*
X85253500Y-121609000D01*
G75*
G02*
X85491000Y-121846500I0J-237500D01*
G01*
X85491000Y-122421500D01*
G75*
G02*
X85253500Y-122659000I-237500J0D01*
G01*
X84778500Y-122659000D01*
G75*
G02*
X84541000Y-122421500I0J237500D01*
G01*
X84541000Y-121846500D01*
G75*
G02*
X84778500Y-121609000I237500J0D01*
G01*
G37*
G36*
G01*
X87678500Y-121609000D02*
X88153500Y-121609000D01*
G75*
G02*
X88391000Y-121846500I0J-237500D01*
G01*
X88391000Y-122421500D01*
G75*
G02*
X88153500Y-122659000I-237500J0D01*
G01*
X87678500Y-122659000D01*
G75*
G02*
X87441000Y-122421500I0J237500D01*
G01*
X87441000Y-121846500D01*
G75*
G02*
X87678500Y-121609000I237500J0D01*
G01*
G37*
G36*
G01*
X87678500Y-123359000D02*
X88153500Y-123359000D01*
G75*
G02*
X88391000Y-123596500I0J-237500D01*
G01*
X88391000Y-124171500D01*
G75*
G02*
X88153500Y-124409000I-237500J0D01*
G01*
X87678500Y-124409000D01*
G75*
G02*
X87441000Y-124171500I0J237500D01*
G01*
X87441000Y-123596500D01*
G75*
G02*
X87678500Y-123359000I237500J0D01*
G01*
G37*
G36*
G01*
X80378500Y-121309000D02*
X80853500Y-121309000D01*
G75*
G02*
X81091000Y-121546500I0J-237500D01*
G01*
X81091000Y-122121500D01*
G75*
G02*
X80853500Y-122359000I-237500J0D01*
G01*
X80378500Y-122359000D01*
G75*
G02*
X80141000Y-122121500I0J237500D01*
G01*
X80141000Y-121546500D01*
G75*
G02*
X80378500Y-121309000I237500J0D01*
G01*
G37*
G36*
G01*
X80378500Y-119559000D02*
X80853500Y-119559000D01*
G75*
G02*
X81091000Y-119796500I0J-237500D01*
G01*
X81091000Y-120371500D01*
G75*
G02*
X80853500Y-120609000I-237500J0D01*
G01*
X80378500Y-120609000D01*
G75*
G02*
X80141000Y-120371500I0J237500D01*
G01*
X80141000Y-119796500D01*
G75*
G02*
X80378500Y-119559000I237500J0D01*
G01*
G37*
G36*
G01*
X83278500Y-119559000D02*
X83753500Y-119559000D01*
G75*
G02*
X83991000Y-119796500I0J-237500D01*
G01*
X83991000Y-120371500D01*
G75*
G02*
X83753500Y-120609000I-237500J0D01*
G01*
X83278500Y-120609000D01*
G75*
G02*
X83041000Y-120371500I0J237500D01*
G01*
X83041000Y-119796500D01*
G75*
G02*
X83278500Y-119559000I237500J0D01*
G01*
G37*
G36*
G01*
X83278500Y-121309000D02*
X83753500Y-121309000D01*
G75*
G02*
X83991000Y-121546500I0J-237500D01*
G01*
X83991000Y-122121500D01*
G75*
G02*
X83753500Y-122359000I-237500J0D01*
G01*
X83278500Y-122359000D01*
G75*
G02*
X83041000Y-122121500I0J237500D01*
G01*
X83041000Y-121546500D01*
G75*
G02*
X83278500Y-121309000I237500J0D01*
G01*
G37*
G36*
G01*
X86228500Y-121309000D02*
X86703500Y-121309000D01*
G75*
G02*
X86941000Y-121546500I0J-237500D01*
G01*
X86941000Y-122121500D01*
G75*
G02*
X86703500Y-122359000I-237500J0D01*
G01*
X86228500Y-122359000D01*
G75*
G02*
X85991000Y-122121500I0J237500D01*
G01*
X85991000Y-121546500D01*
G75*
G02*
X86228500Y-121309000I237500J0D01*
G01*
G37*
G36*
G01*
X86228500Y-119559000D02*
X86703500Y-119559000D01*
G75*
G02*
X86941000Y-119796500I0J-237500D01*
G01*
X86941000Y-120371500D01*
G75*
G02*
X86703500Y-120609000I-237500J0D01*
G01*
X86228500Y-120609000D01*
G75*
G02*
X85991000Y-120371500I0J237500D01*
G01*
X85991000Y-119796500D01*
G75*
G02*
X86228500Y-119559000I237500J0D01*
G01*
G37*
D35*
X170941000Y-86000000D03*
X171591000Y-86000000D03*
X172241000Y-86000000D03*
X172891000Y-86000000D03*
X173541000Y-86000000D03*
X174191000Y-86000000D03*
X174841000Y-86000000D03*
X175491000Y-86000000D03*
X176141000Y-86000000D03*
X176791000Y-86000000D03*
X177441000Y-86000000D03*
X178091000Y-86000000D03*
X178741000Y-86000000D03*
X179391000Y-86000000D03*
X180041000Y-86000000D03*
X180691000Y-86000000D03*
X180691000Y-78700000D03*
X180041000Y-78700000D03*
X179391000Y-78700000D03*
X178741000Y-78700000D03*
X178091000Y-78700000D03*
X177441000Y-78700000D03*
X176791000Y-78700000D03*
X176141000Y-78700000D03*
X175491000Y-78700000D03*
X174841000Y-78700000D03*
X174191000Y-78700000D03*
X173541000Y-78700000D03*
X172891000Y-78700000D03*
X172241000Y-78700000D03*
X171591000Y-78700000D03*
X170941000Y-78700000D03*
X149741000Y-78700000D03*
X150391000Y-78700000D03*
X151041000Y-78700000D03*
X151691000Y-78700000D03*
X152341000Y-78700000D03*
X152991000Y-78700000D03*
X153641000Y-78700000D03*
X154291000Y-78700000D03*
X154941000Y-78700000D03*
X155591000Y-78700000D03*
X156241000Y-78700000D03*
X156891000Y-78700000D03*
X157541000Y-78700000D03*
X158191000Y-78700000D03*
X158841000Y-78700000D03*
X159491000Y-78700000D03*
X159491000Y-86000000D03*
X158841000Y-86000000D03*
X158191000Y-86000000D03*
X157541000Y-86000000D03*
X156891000Y-86000000D03*
X156241000Y-86000000D03*
X155591000Y-86000000D03*
X154941000Y-86000000D03*
X154291000Y-86000000D03*
X153641000Y-86000000D03*
X152991000Y-86000000D03*
X152341000Y-86000000D03*
X151691000Y-86000000D03*
X151041000Y-86000000D03*
X150391000Y-86000000D03*
X149741000Y-86000000D03*
G36*
G01*
X136591000Y-48934000D02*
X136591000Y-46784000D01*
G75*
G02*
X136841000Y-46534000I250000J0D01*
G01*
X137766000Y-46534000D01*
G75*
G02*
X138016000Y-46784000I0J-250000D01*
G01*
X138016000Y-48934000D01*
G75*
G02*
X137766000Y-49184000I-250000J0D01*
G01*
X136841000Y-49184000D01*
G75*
G02*
X136591000Y-48934000I0J250000D01*
G01*
G37*
G36*
G01*
X139566000Y-48934000D02*
X139566000Y-46784000D01*
G75*
G02*
X139816000Y-46534000I250000J0D01*
G01*
X140741000Y-46534000D01*
G75*
G02*
X140991000Y-46784000I0J-250000D01*
G01*
X140991000Y-48934000D01*
G75*
G02*
X140741000Y-49184000I-250000J0D01*
G01*
X139816000Y-49184000D01*
G75*
G02*
X139566000Y-48934000I0J250000D01*
G01*
G37*
G36*
G01*
X144791000Y-48934000D02*
X144791000Y-46784000D01*
G75*
G02*
X145041000Y-46534000I250000J0D01*
G01*
X145966000Y-46534000D01*
G75*
G02*
X146216000Y-46784000I0J-250000D01*
G01*
X146216000Y-48934000D01*
G75*
G02*
X145966000Y-49184000I-250000J0D01*
G01*
X145041000Y-49184000D01*
G75*
G02*
X144791000Y-48934000I0J250000D01*
G01*
G37*
G36*
G01*
X147766000Y-48934000D02*
X147766000Y-46784000D01*
G75*
G02*
X148016000Y-46534000I250000J0D01*
G01*
X148941000Y-46534000D01*
G75*
G02*
X149191000Y-46784000I0J-250000D01*
G01*
X149191000Y-48934000D01*
G75*
G02*
X148941000Y-49184000I-250000J0D01*
G01*
X148016000Y-49184000D01*
G75*
G02*
X147766000Y-48934000I0J250000D01*
G01*
G37*
G36*
G01*
X158991000Y-49034000D02*
X158991000Y-46884000D01*
G75*
G02*
X159241000Y-46634000I250000J0D01*
G01*
X160166000Y-46634000D01*
G75*
G02*
X160416000Y-46884000I0J-250000D01*
G01*
X160416000Y-49034000D01*
G75*
G02*
X160166000Y-49284000I-250000J0D01*
G01*
X159241000Y-49284000D01*
G75*
G02*
X158991000Y-49034000I0J250000D01*
G01*
G37*
G36*
G01*
X161966000Y-49034000D02*
X161966000Y-46884000D01*
G75*
G02*
X162216000Y-46634000I250000J0D01*
G01*
X163141000Y-46634000D01*
G75*
G02*
X163391000Y-46884000I0J-250000D01*
G01*
X163391000Y-49034000D01*
G75*
G02*
X163141000Y-49284000I-250000J0D01*
G01*
X162216000Y-49284000D01*
G75*
G02*
X161966000Y-49034000I0J250000D01*
G01*
G37*
G36*
G01*
X167191000Y-48934000D02*
X167191000Y-46784000D01*
G75*
G02*
X167441000Y-46534000I250000J0D01*
G01*
X168366000Y-46534000D01*
G75*
G02*
X168616000Y-46784000I0J-250000D01*
G01*
X168616000Y-48934000D01*
G75*
G02*
X168366000Y-49184000I-250000J0D01*
G01*
X167441000Y-49184000D01*
G75*
G02*
X167191000Y-48934000I0J250000D01*
G01*
G37*
G36*
G01*
X170166000Y-48934000D02*
X170166000Y-46784000D01*
G75*
G02*
X170416000Y-46534000I250000J0D01*
G01*
X171341000Y-46534000D01*
G75*
G02*
X171591000Y-46784000I0J-250000D01*
G01*
X171591000Y-48934000D01*
G75*
G02*
X171341000Y-49184000I-250000J0D01*
G01*
X170416000Y-49184000D01*
G75*
G02*
X170166000Y-48934000I0J250000D01*
G01*
G37*
G36*
G01*
X192466000Y-48934000D02*
X192466000Y-46784000D01*
G75*
G02*
X192716000Y-46534000I250000J0D01*
G01*
X193641000Y-46534000D01*
G75*
G02*
X193891000Y-46784000I0J-250000D01*
G01*
X193891000Y-48934000D01*
G75*
G02*
X193641000Y-49184000I-250000J0D01*
G01*
X192716000Y-49184000D01*
G75*
G02*
X192466000Y-48934000I0J250000D01*
G01*
G37*
G36*
G01*
X189491000Y-48934000D02*
X189491000Y-46784000D01*
G75*
G02*
X189741000Y-46534000I250000J0D01*
G01*
X190666000Y-46534000D01*
G75*
G02*
X190916000Y-46784000I0J-250000D01*
G01*
X190916000Y-48934000D01*
G75*
G02*
X190666000Y-49184000I-250000J0D01*
G01*
X189741000Y-49184000D01*
G75*
G02*
X189491000Y-48934000I0J250000D01*
G01*
G37*
G36*
G01*
X142191000Y-45809000D02*
X142191000Y-43659000D01*
G75*
G02*
X142441000Y-43409000I250000J0D01*
G01*
X143366000Y-43409000D01*
G75*
G02*
X143616000Y-43659000I0J-250000D01*
G01*
X143616000Y-45809000D01*
G75*
G02*
X143366000Y-46059000I-250000J0D01*
G01*
X142441000Y-46059000D01*
G75*
G02*
X142191000Y-45809000I0J250000D01*
G01*
G37*
G36*
G01*
X139216000Y-45809000D02*
X139216000Y-43659000D01*
G75*
G02*
X139466000Y-43409000I250000J0D01*
G01*
X140391000Y-43409000D01*
G75*
G02*
X140641000Y-43659000I0J-250000D01*
G01*
X140641000Y-45809000D01*
G75*
G02*
X140391000Y-46059000I-250000J0D01*
G01*
X139466000Y-46059000D01*
G75*
G02*
X139216000Y-45809000I0J250000D01*
G01*
G37*
G36*
G01*
X147091000Y-45809000D02*
X147091000Y-43659000D01*
G75*
G02*
X147341000Y-43409000I250000J0D01*
G01*
X148266000Y-43409000D01*
G75*
G02*
X148516000Y-43659000I0J-250000D01*
G01*
X148516000Y-45809000D01*
G75*
G02*
X148266000Y-46059000I-250000J0D01*
G01*
X147341000Y-46059000D01*
G75*
G02*
X147091000Y-45809000I0J250000D01*
G01*
G37*
G36*
G01*
X144116000Y-45809000D02*
X144116000Y-43659000D01*
G75*
G02*
X144366000Y-43409000I250000J0D01*
G01*
X145291000Y-43409000D01*
G75*
G02*
X145541000Y-43659000I0J-250000D01*
G01*
X145541000Y-45809000D01*
G75*
G02*
X145291000Y-46059000I-250000J0D01*
G01*
X144366000Y-46059000D01*
G75*
G02*
X144116000Y-45809000I0J250000D01*
G01*
G37*
G36*
G01*
X163791000Y-45809000D02*
X163791000Y-43659000D01*
G75*
G02*
X164041000Y-43409000I250000J0D01*
G01*
X164966000Y-43409000D01*
G75*
G02*
X165216000Y-43659000I0J-250000D01*
G01*
X165216000Y-45809000D01*
G75*
G02*
X164966000Y-46059000I-250000J0D01*
G01*
X164041000Y-46059000D01*
G75*
G02*
X163791000Y-45809000I0J250000D01*
G01*
G37*
G36*
G01*
X160816000Y-45809000D02*
X160816000Y-43659000D01*
G75*
G02*
X161066000Y-43409000I250000J0D01*
G01*
X161991000Y-43409000D01*
G75*
G02*
X162241000Y-43659000I0J-250000D01*
G01*
X162241000Y-45809000D01*
G75*
G02*
X161991000Y-46059000I-250000J0D01*
G01*
X161066000Y-46059000D01*
G75*
G02*
X160816000Y-45809000I0J250000D01*
G01*
G37*
G36*
G01*
X168691000Y-45809000D02*
X168691000Y-43659000D01*
G75*
G02*
X168941000Y-43409000I250000J0D01*
G01*
X169866000Y-43409000D01*
G75*
G02*
X170116000Y-43659000I0J-250000D01*
G01*
X170116000Y-45809000D01*
G75*
G02*
X169866000Y-46059000I-250000J0D01*
G01*
X168941000Y-46059000D01*
G75*
G02*
X168691000Y-45809000I0J250000D01*
G01*
G37*
G36*
G01*
X165716000Y-45809000D02*
X165716000Y-43659000D01*
G75*
G02*
X165966000Y-43409000I250000J0D01*
G01*
X166891000Y-43409000D01*
G75*
G02*
X167141000Y-43659000I0J-250000D01*
G01*
X167141000Y-45809000D01*
G75*
G02*
X166891000Y-46059000I-250000J0D01*
G01*
X165966000Y-46059000D01*
G75*
G02*
X165716000Y-45809000I0J250000D01*
G01*
G37*
G36*
G01*
X181391000Y-48934000D02*
X181391000Y-46784000D01*
G75*
G02*
X181641000Y-46534000I250000J0D01*
G01*
X182566000Y-46534000D01*
G75*
G02*
X182816000Y-46784000I0J-250000D01*
G01*
X182816000Y-48934000D01*
G75*
G02*
X182566000Y-49184000I-250000J0D01*
G01*
X181641000Y-49184000D01*
G75*
G02*
X181391000Y-48934000I0J250000D01*
G01*
G37*
G36*
G01*
X184366000Y-48934000D02*
X184366000Y-46784000D01*
G75*
G02*
X184616000Y-46534000I250000J0D01*
G01*
X185541000Y-46534000D01*
G75*
G02*
X185791000Y-46784000I0J-250000D01*
G01*
X185791000Y-48934000D01*
G75*
G02*
X185541000Y-49184000I-250000J0D01*
G01*
X184616000Y-49184000D01*
G75*
G02*
X184366000Y-48934000I0J250000D01*
G01*
G37*
G36*
G01*
X183116000Y-45809000D02*
X183116000Y-43659000D01*
G75*
G02*
X183366000Y-43409000I250000J0D01*
G01*
X184291000Y-43409000D01*
G75*
G02*
X184541000Y-43659000I0J-250000D01*
G01*
X184541000Y-45809000D01*
G75*
G02*
X184291000Y-46059000I-250000J0D01*
G01*
X183366000Y-46059000D01*
G75*
G02*
X183116000Y-45809000I0J250000D01*
G01*
G37*
G36*
G01*
X186091000Y-45809000D02*
X186091000Y-43659000D01*
G75*
G02*
X186341000Y-43409000I250000J0D01*
G01*
X187266000Y-43409000D01*
G75*
G02*
X187516000Y-43659000I0J-250000D01*
G01*
X187516000Y-45809000D01*
G75*
G02*
X187266000Y-46059000I-250000J0D01*
G01*
X186341000Y-46059000D01*
G75*
G02*
X186091000Y-45809000I0J250000D01*
G01*
G37*
G36*
G01*
X188016000Y-45809000D02*
X188016000Y-43659000D01*
G75*
G02*
X188266000Y-43409000I250000J0D01*
G01*
X189191000Y-43409000D01*
G75*
G02*
X189441000Y-43659000I0J-250000D01*
G01*
X189441000Y-45809000D01*
G75*
G02*
X189191000Y-46059000I-250000J0D01*
G01*
X188266000Y-46059000D01*
G75*
G02*
X188016000Y-45809000I0J250000D01*
G01*
G37*
G36*
G01*
X190991000Y-45809000D02*
X190991000Y-43659000D01*
G75*
G02*
X191241000Y-43409000I250000J0D01*
G01*
X192166000Y-43409000D01*
G75*
G02*
X192416000Y-43659000I0J-250000D01*
G01*
X192416000Y-45809000D01*
G75*
G02*
X192166000Y-46059000I-250000J0D01*
G01*
X191241000Y-46059000D01*
G75*
G02*
X190991000Y-45809000I0J250000D01*
G01*
G37*
G36*
G01*
X146428500Y-71784000D02*
X146903500Y-71784000D01*
G75*
G02*
X147141000Y-72021500I0J-237500D01*
G01*
X147141000Y-72596500D01*
G75*
G02*
X146903500Y-72834000I-237500J0D01*
G01*
X146428500Y-72834000D01*
G75*
G02*
X146191000Y-72596500I0J237500D01*
G01*
X146191000Y-72021500D01*
G75*
G02*
X146428500Y-71784000I237500J0D01*
G01*
G37*
G36*
G01*
X146428500Y-73534000D02*
X146903500Y-73534000D01*
G75*
G02*
X147141000Y-73771500I0J-237500D01*
G01*
X147141000Y-74346500D01*
G75*
G02*
X146903500Y-74584000I-237500J0D01*
G01*
X146428500Y-74584000D01*
G75*
G02*
X146191000Y-74346500I0J237500D01*
G01*
X146191000Y-73771500D01*
G75*
G02*
X146428500Y-73534000I237500J0D01*
G01*
G37*
G36*
G01*
X153828500Y-73584000D02*
X154303500Y-73584000D01*
G75*
G02*
X154541000Y-73821500I0J-237500D01*
G01*
X154541000Y-74396500D01*
G75*
G02*
X154303500Y-74634000I-237500J0D01*
G01*
X153828500Y-74634000D01*
G75*
G02*
X153591000Y-74396500I0J237500D01*
G01*
X153591000Y-73821500D01*
G75*
G02*
X153828500Y-73584000I237500J0D01*
G01*
G37*
G36*
G01*
X153828500Y-71834000D02*
X154303500Y-71834000D01*
G75*
G02*
X154541000Y-72071500I0J-237500D01*
G01*
X154541000Y-72646500D01*
G75*
G02*
X154303500Y-72884000I-237500J0D01*
G01*
X153828500Y-72884000D01*
G75*
G02*
X153591000Y-72646500I0J237500D01*
G01*
X153591000Y-72071500D01*
G75*
G02*
X153828500Y-71834000I237500J0D01*
G01*
G37*
G36*
G01*
X155328500Y-71834000D02*
X155803500Y-71834000D01*
G75*
G02*
X156041000Y-72071500I0J-237500D01*
G01*
X156041000Y-72646500D01*
G75*
G02*
X155803500Y-72884000I-237500J0D01*
G01*
X155328500Y-72884000D01*
G75*
G02*
X155091000Y-72646500I0J237500D01*
G01*
X155091000Y-72071500D01*
G75*
G02*
X155328500Y-71834000I237500J0D01*
G01*
G37*
G36*
G01*
X155328500Y-73584000D02*
X155803500Y-73584000D01*
G75*
G02*
X156041000Y-73821500I0J-237500D01*
G01*
X156041000Y-74396500D01*
G75*
G02*
X155803500Y-74634000I-237500J0D01*
G01*
X155328500Y-74634000D01*
G75*
G02*
X155091000Y-74396500I0J237500D01*
G01*
X155091000Y-73821500D01*
G75*
G02*
X155328500Y-73584000I237500J0D01*
G01*
G37*
G36*
G01*
X164478500Y-73534000D02*
X164953500Y-73534000D01*
G75*
G02*
X165191000Y-73771500I0J-237500D01*
G01*
X165191000Y-74346500D01*
G75*
G02*
X164953500Y-74584000I-237500J0D01*
G01*
X164478500Y-74584000D01*
G75*
G02*
X164241000Y-74346500I0J237500D01*
G01*
X164241000Y-73771500D01*
G75*
G02*
X164478500Y-73534000I237500J0D01*
G01*
G37*
G36*
G01*
X164478500Y-71784000D02*
X164953500Y-71784000D01*
G75*
G02*
X165191000Y-72021500I0J-237500D01*
G01*
X165191000Y-72596500D01*
G75*
G02*
X164953500Y-72834000I-237500J0D01*
G01*
X164478500Y-72834000D01*
G75*
G02*
X164241000Y-72596500I0J237500D01*
G01*
X164241000Y-72021500D01*
G75*
G02*
X164478500Y-71784000I237500J0D01*
G01*
G37*
G36*
G01*
X166028500Y-71784000D02*
X166503500Y-71784000D01*
G75*
G02*
X166741000Y-72021500I0J-237500D01*
G01*
X166741000Y-72596500D01*
G75*
G02*
X166503500Y-72834000I-237500J0D01*
G01*
X166028500Y-72834000D01*
G75*
G02*
X165791000Y-72596500I0J237500D01*
G01*
X165791000Y-72021500D01*
G75*
G02*
X166028500Y-71784000I237500J0D01*
G01*
G37*
G36*
G01*
X166028500Y-73534000D02*
X166503500Y-73534000D01*
G75*
G02*
X166741000Y-73771500I0J-237500D01*
G01*
X166741000Y-74346500D01*
G75*
G02*
X166503500Y-74584000I-237500J0D01*
G01*
X166028500Y-74584000D01*
G75*
G02*
X165791000Y-74346500I0J237500D01*
G01*
X165791000Y-73771500D01*
G75*
G02*
X166028500Y-73534000I237500J0D01*
G01*
G37*
G36*
G01*
X174428500Y-73509000D02*
X174903500Y-73509000D01*
G75*
G02*
X175141000Y-73746500I0J-237500D01*
G01*
X175141000Y-74321500D01*
G75*
G02*
X174903500Y-74559000I-237500J0D01*
G01*
X174428500Y-74559000D01*
G75*
G02*
X174191000Y-74321500I0J237500D01*
G01*
X174191000Y-73746500D01*
G75*
G02*
X174428500Y-73509000I237500J0D01*
G01*
G37*
G36*
G01*
X174428500Y-71759000D02*
X174903500Y-71759000D01*
G75*
G02*
X175141000Y-71996500I0J-237500D01*
G01*
X175141000Y-72571500D01*
G75*
G02*
X174903500Y-72809000I-237500J0D01*
G01*
X174428500Y-72809000D01*
G75*
G02*
X174191000Y-72571500I0J237500D01*
G01*
X174191000Y-71996500D01*
G75*
G02*
X174428500Y-71759000I237500J0D01*
G01*
G37*
G36*
G01*
X175878500Y-71734000D02*
X176353500Y-71734000D01*
G75*
G02*
X176591000Y-71971500I0J-237500D01*
G01*
X176591000Y-72546500D01*
G75*
G02*
X176353500Y-72784000I-237500J0D01*
G01*
X175878500Y-72784000D01*
G75*
G02*
X175641000Y-72546500I0J237500D01*
G01*
X175641000Y-71971500D01*
G75*
G02*
X175878500Y-71734000I237500J0D01*
G01*
G37*
G36*
G01*
X175878500Y-73484000D02*
X176353500Y-73484000D01*
G75*
G02*
X176591000Y-73721500I0J-237500D01*
G01*
X176591000Y-74296500D01*
G75*
G02*
X176353500Y-74534000I-237500J0D01*
G01*
X175878500Y-74534000D01*
G75*
G02*
X175641000Y-74296500I0J237500D01*
G01*
X175641000Y-73721500D01*
G75*
G02*
X175878500Y-73484000I237500J0D01*
G01*
G37*
G36*
G01*
X182628500Y-73484000D02*
X183103500Y-73484000D01*
G75*
G02*
X183341000Y-73721500I0J-237500D01*
G01*
X183341000Y-74296500D01*
G75*
G02*
X183103500Y-74534000I-237500J0D01*
G01*
X182628500Y-74534000D01*
G75*
G02*
X182391000Y-74296500I0J237500D01*
G01*
X182391000Y-73721500D01*
G75*
G02*
X182628500Y-73484000I237500J0D01*
G01*
G37*
G36*
G01*
X182628500Y-71734000D02*
X183103500Y-71734000D01*
G75*
G02*
X183341000Y-71971500I0J-237500D01*
G01*
X183341000Y-72546500D01*
G75*
G02*
X183103500Y-72784000I-237500J0D01*
G01*
X182628500Y-72784000D01*
G75*
G02*
X182391000Y-72546500I0J237500D01*
G01*
X182391000Y-71971500D01*
G75*
G02*
X182628500Y-71734000I237500J0D01*
G01*
G37*
G36*
G01*
X174666000Y-95571500D02*
X174666000Y-95096500D01*
G75*
G02*
X174903500Y-94859000I237500J0D01*
G01*
X175478500Y-94859000D01*
G75*
G02*
X175716000Y-95096500I0J-237500D01*
G01*
X175716000Y-95571500D01*
G75*
G02*
X175478500Y-95809000I-237500J0D01*
G01*
X174903500Y-95809000D01*
G75*
G02*
X174666000Y-95571500I0J237500D01*
G01*
G37*
G36*
G01*
X172916000Y-95571500D02*
X172916000Y-95096500D01*
G75*
G02*
X173153500Y-94859000I237500J0D01*
G01*
X173728500Y-94859000D01*
G75*
G02*
X173966000Y-95096500I0J-237500D01*
G01*
X173966000Y-95571500D01*
G75*
G02*
X173728500Y-95809000I-237500J0D01*
G01*
X173153500Y-95809000D01*
G75*
G02*
X172916000Y-95571500I0J237500D01*
G01*
G37*
G36*
G01*
X152866000Y-94271500D02*
X152866000Y-93796500D01*
G75*
G02*
X153103500Y-93559000I237500J0D01*
G01*
X153678500Y-93559000D01*
G75*
G02*
X153916000Y-93796500I0J-237500D01*
G01*
X153916000Y-94271500D01*
G75*
G02*
X153678500Y-94509000I-237500J0D01*
G01*
X153103500Y-94509000D01*
G75*
G02*
X152866000Y-94271500I0J237500D01*
G01*
G37*
G36*
G01*
X151116000Y-94271500D02*
X151116000Y-93796500D01*
G75*
G02*
X151353500Y-93559000I237500J0D01*
G01*
X151928500Y-93559000D01*
G75*
G02*
X152166000Y-93796500I0J-237500D01*
G01*
X152166000Y-94271500D01*
G75*
G02*
X151928500Y-94509000I-237500J0D01*
G01*
X151353500Y-94509000D01*
G75*
G02*
X151116000Y-94271500I0J237500D01*
G01*
G37*
G36*
G01*
X173653500Y-94334000D02*
X173178500Y-94334000D01*
G75*
G02*
X172941000Y-94096500I0J237500D01*
G01*
X172941000Y-93521500D01*
G75*
G02*
X173178500Y-93284000I237500J0D01*
G01*
X173653500Y-93284000D01*
G75*
G02*
X173891000Y-93521500I0J-237500D01*
G01*
X173891000Y-94096500D01*
G75*
G02*
X173653500Y-94334000I-237500J0D01*
G01*
G37*
G36*
G01*
X173653500Y-92584000D02*
X173178500Y-92584000D01*
G75*
G02*
X172941000Y-92346500I0J237500D01*
G01*
X172941000Y-91771500D01*
G75*
G02*
X173178500Y-91534000I237500J0D01*
G01*
X173653500Y-91534000D01*
G75*
G02*
X173891000Y-91771500I0J-237500D01*
G01*
X173891000Y-92346500D01*
G75*
G02*
X173653500Y-92584000I-237500J0D01*
G01*
G37*
G36*
G01*
X151378500Y-90134000D02*
X151853500Y-90134000D01*
G75*
G02*
X152091000Y-90371500I0J-237500D01*
G01*
X152091000Y-90946500D01*
G75*
G02*
X151853500Y-91184000I-237500J0D01*
G01*
X151378500Y-91184000D01*
G75*
G02*
X151141000Y-90946500I0J237500D01*
G01*
X151141000Y-90371500D01*
G75*
G02*
X151378500Y-90134000I237500J0D01*
G01*
G37*
G36*
G01*
X151378500Y-91884000D02*
X151853500Y-91884000D01*
G75*
G02*
X152091000Y-92121500I0J-237500D01*
G01*
X152091000Y-92696500D01*
G75*
G02*
X151853500Y-92934000I-237500J0D01*
G01*
X151378500Y-92934000D01*
G75*
G02*
X151141000Y-92696500I0J237500D01*
G01*
X151141000Y-92121500D01*
G75*
G02*
X151378500Y-91884000I237500J0D01*
G01*
G37*
G36*
G01*
X184278500Y-77984000D02*
X184753500Y-77984000D01*
G75*
G02*
X184991000Y-78221500I0J-237500D01*
G01*
X184991000Y-78796500D01*
G75*
G02*
X184753500Y-79034000I-237500J0D01*
G01*
X184278500Y-79034000D01*
G75*
G02*
X184041000Y-78796500I0J237500D01*
G01*
X184041000Y-78221500D01*
G75*
G02*
X184278500Y-77984000I237500J0D01*
G01*
G37*
G36*
G01*
X184278500Y-79734000D02*
X184753500Y-79734000D01*
G75*
G02*
X184991000Y-79971500I0J-237500D01*
G01*
X184991000Y-80546500D01*
G75*
G02*
X184753500Y-80784000I-237500J0D01*
G01*
X184278500Y-80784000D01*
G75*
G02*
X184041000Y-80546500I0J237500D01*
G01*
X184041000Y-79971500D01*
G75*
G02*
X184278500Y-79734000I237500J0D01*
G01*
G37*
G36*
G01*
X163028500Y-80984000D02*
X163503500Y-80984000D01*
G75*
G02*
X163741000Y-81221500I0J-237500D01*
G01*
X163741000Y-81796500D01*
G75*
G02*
X163503500Y-82034000I-237500J0D01*
G01*
X163028500Y-82034000D01*
G75*
G02*
X162791000Y-81796500I0J237500D01*
G01*
X162791000Y-81221500D01*
G75*
G02*
X163028500Y-80984000I237500J0D01*
G01*
G37*
G36*
G01*
X163028500Y-79234000D02*
X163503500Y-79234000D01*
G75*
G02*
X163741000Y-79471500I0J-237500D01*
G01*
X163741000Y-80046500D01*
G75*
G02*
X163503500Y-80284000I-237500J0D01*
G01*
X163028500Y-80284000D01*
G75*
G02*
X162791000Y-80046500I0J237500D01*
G01*
X162791000Y-79471500D01*
G75*
G02*
X163028500Y-79234000I237500J0D01*
G01*
G37*
G36*
G01*
X145678500Y-80884000D02*
X146153500Y-80884000D01*
G75*
G02*
X146391000Y-81121500I0J-237500D01*
G01*
X146391000Y-81696500D01*
G75*
G02*
X146153500Y-81934000I-237500J0D01*
G01*
X145678500Y-81934000D01*
G75*
G02*
X145441000Y-81696500I0J237500D01*
G01*
X145441000Y-81121500D01*
G75*
G02*
X145678500Y-80884000I237500J0D01*
G01*
G37*
G36*
G01*
X145678500Y-79134000D02*
X146153500Y-79134000D01*
G75*
G02*
X146391000Y-79371500I0J-237500D01*
G01*
X146391000Y-79946500D01*
G75*
G02*
X146153500Y-80184000I-237500J0D01*
G01*
X145678500Y-80184000D01*
G75*
G02*
X145441000Y-79946500I0J237500D01*
G01*
X145441000Y-79371500D01*
G75*
G02*
X145678500Y-79134000I237500J0D01*
G01*
G37*
G36*
G01*
X167103500Y-79184000D02*
X167578500Y-79184000D01*
G75*
G02*
X167816000Y-79421500I0J-237500D01*
G01*
X167816000Y-79996500D01*
G75*
G02*
X167578500Y-80234000I-237500J0D01*
G01*
X167103500Y-80234000D01*
G75*
G02*
X166866000Y-79996500I0J237500D01*
G01*
X166866000Y-79421500D01*
G75*
G02*
X167103500Y-79184000I237500J0D01*
G01*
G37*
G36*
G01*
X167103500Y-80934000D02*
X167578500Y-80934000D01*
G75*
G02*
X167816000Y-81171500I0J-237500D01*
G01*
X167816000Y-81746500D01*
G75*
G02*
X167578500Y-81984000I-237500J0D01*
G01*
X167103500Y-81984000D01*
G75*
G02*
X166866000Y-81746500I0J237500D01*
G01*
X166866000Y-81171500D01*
G75*
G02*
X167103500Y-80934000I237500J0D01*
G01*
G37*
G36*
G01*
X137266000Y-45809000D02*
X137266000Y-43659000D01*
G75*
G02*
X137516000Y-43409000I250000J0D01*
G01*
X138441000Y-43409000D01*
G75*
G02*
X138691000Y-43659000I0J-250000D01*
G01*
X138691000Y-45809000D01*
G75*
G02*
X138441000Y-46059000I-250000J0D01*
G01*
X137516000Y-46059000D01*
G75*
G02*
X137266000Y-45809000I0J250000D01*
G01*
G37*
G36*
G01*
X134291000Y-45809000D02*
X134291000Y-43659000D01*
G75*
G02*
X134541000Y-43409000I250000J0D01*
G01*
X135466000Y-43409000D01*
G75*
G02*
X135716000Y-43659000I0J-250000D01*
G01*
X135716000Y-45809000D01*
G75*
G02*
X135466000Y-46059000I-250000J0D01*
G01*
X134541000Y-46059000D01*
G75*
G02*
X134291000Y-45809000I0J250000D01*
G01*
G37*
G36*
G01*
X148991000Y-45809000D02*
X148991000Y-43659000D01*
G75*
G02*
X149241000Y-43409000I250000J0D01*
G01*
X150166000Y-43409000D01*
G75*
G02*
X150416000Y-43659000I0J-250000D01*
G01*
X150416000Y-45809000D01*
G75*
G02*
X150166000Y-46059000I-250000J0D01*
G01*
X149241000Y-46059000D01*
G75*
G02*
X148991000Y-45809000I0J250000D01*
G01*
G37*
G36*
G01*
X151966000Y-45809000D02*
X151966000Y-43659000D01*
G75*
G02*
X152216000Y-43409000I250000J0D01*
G01*
X153141000Y-43409000D01*
G75*
G02*
X153391000Y-43659000I0J-250000D01*
G01*
X153391000Y-45809000D01*
G75*
G02*
X153141000Y-46059000I-250000J0D01*
G01*
X152216000Y-46059000D01*
G75*
G02*
X151966000Y-45809000I0J250000D01*
G01*
G37*
G36*
G01*
X158866000Y-45809000D02*
X158866000Y-43659000D01*
G75*
G02*
X159116000Y-43409000I250000J0D01*
G01*
X160041000Y-43409000D01*
G75*
G02*
X160291000Y-43659000I0J-250000D01*
G01*
X160291000Y-45809000D01*
G75*
G02*
X160041000Y-46059000I-250000J0D01*
G01*
X159116000Y-46059000D01*
G75*
G02*
X158866000Y-45809000I0J250000D01*
G01*
G37*
G36*
G01*
X155891000Y-45809000D02*
X155891000Y-43659000D01*
G75*
G02*
X156141000Y-43409000I250000J0D01*
G01*
X157066000Y-43409000D01*
G75*
G02*
X157316000Y-43659000I0J-250000D01*
G01*
X157316000Y-45809000D01*
G75*
G02*
X157066000Y-46059000I-250000J0D01*
G01*
X156141000Y-46059000D01*
G75*
G02*
X155891000Y-45809000I0J250000D01*
G01*
G37*
G36*
G01*
X170591000Y-45809000D02*
X170591000Y-43659000D01*
G75*
G02*
X170841000Y-43409000I250000J0D01*
G01*
X171766000Y-43409000D01*
G75*
G02*
X172016000Y-43659000I0J-250000D01*
G01*
X172016000Y-45809000D01*
G75*
G02*
X171766000Y-46059000I-250000J0D01*
G01*
X170841000Y-46059000D01*
G75*
G02*
X170591000Y-45809000I0J250000D01*
G01*
G37*
G36*
G01*
X173566000Y-45809000D02*
X173566000Y-43659000D01*
G75*
G02*
X173816000Y-43409000I250000J0D01*
G01*
X174741000Y-43409000D01*
G75*
G02*
X174991000Y-43659000I0J-250000D01*
G01*
X174991000Y-45809000D01*
G75*
G02*
X174741000Y-46059000I-250000J0D01*
G01*
X173816000Y-46059000D01*
G75*
G02*
X173566000Y-45809000I0J250000D01*
G01*
G37*
G36*
G01*
X178191000Y-45809000D02*
X178191000Y-43659000D01*
G75*
G02*
X178441000Y-43409000I250000J0D01*
G01*
X179366000Y-43409000D01*
G75*
G02*
X179616000Y-43659000I0J-250000D01*
G01*
X179616000Y-45809000D01*
G75*
G02*
X179366000Y-46059000I-250000J0D01*
G01*
X178441000Y-46059000D01*
G75*
G02*
X178191000Y-45809000I0J250000D01*
G01*
G37*
G36*
G01*
X181166000Y-45809000D02*
X181166000Y-43659000D01*
G75*
G02*
X181416000Y-43409000I250000J0D01*
G01*
X182341000Y-43409000D01*
G75*
G02*
X182591000Y-43659000I0J-250000D01*
G01*
X182591000Y-45809000D01*
G75*
G02*
X182341000Y-46059000I-250000J0D01*
G01*
X181416000Y-46059000D01*
G75*
G02*
X181166000Y-45809000I0J250000D01*
G01*
G37*
G36*
G01*
X195866000Y-45809000D02*
X195866000Y-43659000D01*
G75*
G02*
X196116000Y-43409000I250000J0D01*
G01*
X197041000Y-43409000D01*
G75*
G02*
X197291000Y-43659000I0J-250000D01*
G01*
X197291000Y-45809000D01*
G75*
G02*
X197041000Y-46059000I-250000J0D01*
G01*
X196116000Y-46059000D01*
G75*
G02*
X195866000Y-45809000I0J250000D01*
G01*
G37*
G36*
G01*
X192891000Y-45809000D02*
X192891000Y-43659000D01*
G75*
G02*
X193141000Y-43409000I250000J0D01*
G01*
X194066000Y-43409000D01*
G75*
G02*
X194316000Y-43659000I0J-250000D01*
G01*
X194316000Y-45809000D01*
G75*
G02*
X194066000Y-46059000I-250000J0D01*
G01*
X193141000Y-46059000D01*
G75*
G02*
X192891000Y-45809000I0J250000D01*
G01*
G37*
G36*
G01*
X189066000Y-127634000D02*
X189066000Y-128884000D01*
G75*
G02*
X188816000Y-129134000I-250000J0D01*
G01*
X187891000Y-129134000D01*
G75*
G02*
X187641000Y-128884000I0J250000D01*
G01*
X187641000Y-127634000D01*
G75*
G02*
X187891000Y-127384000I250000J0D01*
G01*
X188816000Y-127384000D01*
G75*
G02*
X189066000Y-127634000I0J-250000D01*
G01*
G37*
G36*
G01*
X186091000Y-127634000D02*
X186091000Y-128884000D01*
G75*
G02*
X185841000Y-129134000I-250000J0D01*
G01*
X184916000Y-129134000D01*
G75*
G02*
X184666000Y-128884000I0J250000D01*
G01*
X184666000Y-127634000D01*
G75*
G02*
X184916000Y-127384000I250000J0D01*
G01*
X185841000Y-127384000D01*
G75*
G02*
X186091000Y-127634000I0J-250000D01*
G01*
G37*
G36*
G01*
X190841000Y-124009000D02*
X190841000Y-122759000D01*
G75*
G02*
X191091000Y-122509000I250000J0D01*
G01*
X192016000Y-122509000D01*
G75*
G02*
X192266000Y-122759000I0J-250000D01*
G01*
X192266000Y-124009000D01*
G75*
G02*
X192016000Y-124259000I-250000J0D01*
G01*
X191091000Y-124259000D01*
G75*
G02*
X190841000Y-124009000I0J250000D01*
G01*
G37*
G36*
G01*
X187866000Y-124009000D02*
X187866000Y-122759000D01*
G75*
G02*
X188116000Y-122509000I250000J0D01*
G01*
X189041000Y-122509000D01*
G75*
G02*
X189291000Y-122759000I0J-250000D01*
G01*
X189291000Y-124009000D01*
G75*
G02*
X189041000Y-124259000I-250000J0D01*
G01*
X188116000Y-124259000D01*
G75*
G02*
X187866000Y-124009000I0J250000D01*
G01*
G37*
G36*
G01*
X196491000Y-111484000D02*
X196491000Y-112734000D01*
G75*
G02*
X196241000Y-112984000I-250000J0D01*
G01*
X195316000Y-112984000D01*
G75*
G02*
X195066000Y-112734000I0J250000D01*
G01*
X195066000Y-111484000D01*
G75*
G02*
X195316000Y-111234000I250000J0D01*
G01*
X196241000Y-111234000D01*
G75*
G02*
X196491000Y-111484000I0J-250000D01*
G01*
G37*
G36*
G01*
X193516000Y-111484000D02*
X193516000Y-112734000D01*
G75*
G02*
X193266000Y-112984000I-250000J0D01*
G01*
X192341000Y-112984000D01*
G75*
G02*
X192091000Y-112734000I0J250000D01*
G01*
X192091000Y-111484000D01*
G75*
G02*
X192341000Y-111234000I250000J0D01*
G01*
X193266000Y-111234000D01*
G75*
G02*
X193516000Y-111484000I0J-250000D01*
G01*
G37*
G36*
G01*
X202416000Y-103109000D02*
X202416000Y-101859000D01*
G75*
G02*
X202666000Y-101609000I250000J0D01*
G01*
X203591000Y-101609000D01*
G75*
G02*
X203841000Y-101859000I0J-250000D01*
G01*
X203841000Y-103109000D01*
G75*
G02*
X203591000Y-103359000I-250000J0D01*
G01*
X202666000Y-103359000D01*
G75*
G02*
X202416000Y-103109000I0J250000D01*
G01*
G37*
G36*
G01*
X205391000Y-103109000D02*
X205391000Y-101859000D01*
G75*
G02*
X205641000Y-101609000I250000J0D01*
G01*
X206566000Y-101609000D01*
G75*
G02*
X206816000Y-101859000I0J-250000D01*
G01*
X206816000Y-103109000D01*
G75*
G02*
X206566000Y-103359000I-250000J0D01*
G01*
X205641000Y-103359000D01*
G75*
G02*
X205391000Y-103109000I0J250000D01*
G01*
G37*
G36*
G01*
X103191000Y-118984000D02*
X104441000Y-118984000D01*
G75*
G02*
X104691000Y-119234000I0J-250000D01*
G01*
X104691000Y-120159000D01*
G75*
G02*
X104441000Y-120409000I-250000J0D01*
G01*
X103191000Y-120409000D01*
G75*
G02*
X102941000Y-120159000I0J250000D01*
G01*
X102941000Y-119234000D01*
G75*
G02*
X103191000Y-118984000I250000J0D01*
G01*
G37*
G36*
G01*
X103191000Y-121959000D02*
X104441000Y-121959000D01*
G75*
G02*
X104691000Y-122209000I0J-250000D01*
G01*
X104691000Y-123134000D01*
G75*
G02*
X104441000Y-123384000I-250000J0D01*
G01*
X103191000Y-123384000D01*
G75*
G02*
X102941000Y-123134000I0J250000D01*
G01*
X102941000Y-122209000D01*
G75*
G02*
X103191000Y-121959000I250000J0D01*
G01*
G37*
G36*
G01*
X52016000Y-93859000D02*
X52016000Y-92609000D01*
G75*
G02*
X52266000Y-92359000I250000J0D01*
G01*
X53191000Y-92359000D01*
G75*
G02*
X53441000Y-92609000I0J-250000D01*
G01*
X53441000Y-93859000D01*
G75*
G02*
X53191000Y-94109000I-250000J0D01*
G01*
X52266000Y-94109000D01*
G75*
G02*
X52016000Y-93859000I0J250000D01*
G01*
G37*
G36*
G01*
X54991000Y-93859000D02*
X54991000Y-92609000D01*
G75*
G02*
X55241000Y-92359000I250000J0D01*
G01*
X56166000Y-92359000D01*
G75*
G02*
X56416000Y-92609000I0J-250000D01*
G01*
X56416000Y-93859000D01*
G75*
G02*
X56166000Y-94109000I-250000J0D01*
G01*
X55241000Y-94109000D01*
G75*
G02*
X54991000Y-93859000I0J250000D01*
G01*
G37*
G36*
G01*
X82991000Y-61209000D02*
X82991000Y-62459000D01*
G75*
G02*
X82741000Y-62709000I-250000J0D01*
G01*
X81816000Y-62709000D01*
G75*
G02*
X81566000Y-62459000I0J250000D01*
G01*
X81566000Y-61209000D01*
G75*
G02*
X81816000Y-60959000I250000J0D01*
G01*
X82741000Y-60959000D01*
G75*
G02*
X82991000Y-61209000I0J-250000D01*
G01*
G37*
G36*
G01*
X80016000Y-61209000D02*
X80016000Y-62459000D01*
G75*
G02*
X79766000Y-62709000I-250000J0D01*
G01*
X78841000Y-62709000D01*
G75*
G02*
X78591000Y-62459000I0J250000D01*
G01*
X78591000Y-61209000D01*
G75*
G02*
X78841000Y-60959000I250000J0D01*
G01*
X79766000Y-60959000D01*
G75*
G02*
X80016000Y-61209000I0J-250000D01*
G01*
G37*
G36*
G01*
X60216000Y-81759000D02*
X60216000Y-80509000D01*
G75*
G02*
X60466000Y-80259000I250000J0D01*
G01*
X61391000Y-80259000D01*
G75*
G02*
X61641000Y-80509000I0J-250000D01*
G01*
X61641000Y-81759000D01*
G75*
G02*
X61391000Y-82009000I-250000J0D01*
G01*
X60466000Y-82009000D01*
G75*
G02*
X60216000Y-81759000I0J250000D01*
G01*
G37*
G36*
G01*
X63191000Y-81759000D02*
X63191000Y-80509000D01*
G75*
G02*
X63441000Y-80259000I250000J0D01*
G01*
X64366000Y-80259000D01*
G75*
G02*
X64616000Y-80509000I0J-250000D01*
G01*
X64616000Y-81759000D01*
G75*
G02*
X64366000Y-82009000I-250000J0D01*
G01*
X63441000Y-82009000D01*
G75*
G02*
X63191000Y-81759000I0J250000D01*
G01*
G37*
G36*
G01*
X189016000Y-101898999D02*
X189016000Y-102749001D01*
G75*
G02*
X188766001Y-102999000I-249999J0D01*
G01*
X187865999Y-102999000D01*
G75*
G02*
X187616000Y-102749001I0J249999D01*
G01*
X187616000Y-101898999D01*
G75*
G02*
X187865999Y-101649000I249999J0D01*
G01*
X188766001Y-101649000D01*
G75*
G02*
X189016000Y-101898999I0J-249999D01*
G01*
G37*
G36*
G01*
X186316000Y-101898999D02*
X186316000Y-102749001D01*
G75*
G02*
X186066001Y-102999000I-249999J0D01*
G01*
X185165999Y-102999000D01*
G75*
G02*
X184916000Y-102749001I0J249999D01*
G01*
X184916000Y-101898999D01*
G75*
G02*
X185165999Y-101649000I249999J0D01*
G01*
X186066001Y-101649000D01*
G75*
G02*
X186316000Y-101898999I0J-249999D01*
G01*
G37*
G36*
G01*
X161556000Y-101878999D02*
X161556000Y-102729001D01*
G75*
G02*
X161306001Y-102979000I-249999J0D01*
G01*
X160405999Y-102979000D01*
G75*
G02*
X160156000Y-102729001I0J249999D01*
G01*
X160156000Y-101878999D01*
G75*
G02*
X160405999Y-101629000I249999J0D01*
G01*
X161306001Y-101629000D01*
G75*
G02*
X161556000Y-101878999I0J-249999D01*
G01*
G37*
G36*
G01*
X158856000Y-101878999D02*
X158856000Y-102729001D01*
G75*
G02*
X158606001Y-102979000I-249999J0D01*
G01*
X157705999Y-102979000D01*
G75*
G02*
X157456000Y-102729001I0J249999D01*
G01*
X157456000Y-101878999D01*
G75*
G02*
X157705999Y-101629000I249999J0D01*
G01*
X158606001Y-101629000D01*
G75*
G02*
X158856000Y-101878999I0J-249999D01*
G01*
G37*
G36*
G01*
X173566000Y-102699001D02*
X173566000Y-101848999D01*
G75*
G02*
X173815999Y-101599000I249999J0D01*
G01*
X174716001Y-101599000D01*
G75*
G02*
X174966000Y-101848999I0J-249999D01*
G01*
X174966000Y-102699001D01*
G75*
G02*
X174716001Y-102949000I-249999J0D01*
G01*
X173815999Y-102949000D01*
G75*
G02*
X173566000Y-102699001I0J249999D01*
G01*
G37*
G36*
G01*
X170866000Y-102699001D02*
X170866000Y-101848999D01*
G75*
G02*
X171115999Y-101599000I249999J0D01*
G01*
X172016001Y-101599000D01*
G75*
G02*
X172266000Y-101848999I0J-249999D01*
G01*
X172266000Y-102699001D01*
G75*
G02*
X172016001Y-102949000I-249999J0D01*
G01*
X171115999Y-102949000D01*
G75*
G02*
X170866000Y-102699001I0J249999D01*
G01*
G37*
G36*
G01*
X145246000Y-116158999D02*
X145246000Y-117009001D01*
G75*
G02*
X144996001Y-117259000I-249999J0D01*
G01*
X144095999Y-117259000D01*
G75*
G02*
X143846000Y-117009001I0J249999D01*
G01*
X143846000Y-116158999D01*
G75*
G02*
X144095999Y-115909000I249999J0D01*
G01*
X144996001Y-115909000D01*
G75*
G02*
X145246000Y-116158999I0J-249999D01*
G01*
G37*
G36*
G01*
X142546000Y-116158999D02*
X142546000Y-117009001D01*
G75*
G02*
X142296001Y-117259000I-249999J0D01*
G01*
X141395999Y-117259000D01*
G75*
G02*
X141146000Y-117009001I0J249999D01*
G01*
X141146000Y-116158999D01*
G75*
G02*
X141395999Y-115909000I249999J0D01*
G01*
X142296001Y-115909000D01*
G75*
G02*
X142546000Y-116158999I0J-249999D01*
G01*
G37*
G36*
G01*
X142546000Y-127138999D02*
X142546000Y-127989001D01*
G75*
G02*
X142296001Y-128239000I-249999J0D01*
G01*
X141395999Y-128239000D01*
G75*
G02*
X141146000Y-127989001I0J249999D01*
G01*
X141146000Y-127138999D01*
G75*
G02*
X141395999Y-126889000I249999J0D01*
G01*
X142296001Y-126889000D01*
G75*
G02*
X142546000Y-127138999I0J-249999D01*
G01*
G37*
G36*
G01*
X145246000Y-127138999D02*
X145246000Y-127989001D01*
G75*
G02*
X144996001Y-128239000I-249999J0D01*
G01*
X144095999Y-128239000D01*
G75*
G02*
X143846000Y-127989001I0J249999D01*
G01*
X143846000Y-127138999D01*
G75*
G02*
X144095999Y-126889000I249999J0D01*
G01*
X144996001Y-126889000D01*
G75*
G02*
X145246000Y-127138999I0J-249999D01*
G01*
G37*
G36*
G01*
X142546000Y-121478999D02*
X142546000Y-122329001D01*
G75*
G02*
X142296001Y-122579000I-249999J0D01*
G01*
X141395999Y-122579000D01*
G75*
G02*
X141146000Y-122329001I0J249999D01*
G01*
X141146000Y-121478999D01*
G75*
G02*
X141395999Y-121229000I249999J0D01*
G01*
X142296001Y-121229000D01*
G75*
G02*
X142546000Y-121478999I0J-249999D01*
G01*
G37*
G36*
G01*
X145246000Y-121478999D02*
X145246000Y-122329001D01*
G75*
G02*
X144996001Y-122579000I-249999J0D01*
G01*
X144095999Y-122579000D01*
G75*
G02*
X143846000Y-122329001I0J249999D01*
G01*
X143846000Y-121478999D01*
G75*
G02*
X144095999Y-121229000I249999J0D01*
G01*
X144996001Y-121229000D01*
G75*
G02*
X145246000Y-121478999I0J-249999D01*
G01*
G37*
G36*
G01*
X128830999Y-109564000D02*
X129681001Y-109564000D01*
G75*
G02*
X129931000Y-109813999I0J-249999D01*
G01*
X129931000Y-110714001D01*
G75*
G02*
X129681001Y-110964000I-249999J0D01*
G01*
X128830999Y-110964000D01*
G75*
G02*
X128581000Y-110714001I0J249999D01*
G01*
X128581000Y-109813999D01*
G75*
G02*
X128830999Y-109564000I249999J0D01*
G01*
G37*
G36*
G01*
X128830999Y-112264000D02*
X129681001Y-112264000D01*
G75*
G02*
X129931000Y-112513999I0J-249999D01*
G01*
X129931000Y-113414001D01*
G75*
G02*
X129681001Y-113664000I-249999J0D01*
G01*
X128830999Y-113664000D01*
G75*
G02*
X128581000Y-113414001I0J249999D01*
G01*
X128581000Y-112513999D01*
G75*
G02*
X128830999Y-112264000I249999J0D01*
G01*
G37*
G36*
G01*
X128800999Y-117644000D02*
X129651001Y-117644000D01*
G75*
G02*
X129901000Y-117893999I0J-249999D01*
G01*
X129901000Y-118794001D01*
G75*
G02*
X129651001Y-119044000I-249999J0D01*
G01*
X128800999Y-119044000D01*
G75*
G02*
X128551000Y-118794001I0J249999D01*
G01*
X128551000Y-117893999D01*
G75*
G02*
X128800999Y-117644000I249999J0D01*
G01*
G37*
G36*
G01*
X128800999Y-120344000D02*
X129651001Y-120344000D01*
G75*
G02*
X129901000Y-120593999I0J-249999D01*
G01*
X129901000Y-121494001D01*
G75*
G02*
X129651001Y-121744000I-249999J0D01*
G01*
X128800999Y-121744000D01*
G75*
G02*
X128551000Y-121494001I0J249999D01*
G01*
X128551000Y-120593999D01*
G75*
G02*
X128800999Y-120344000I249999J0D01*
G01*
G37*
G36*
G01*
X134770999Y-112264000D02*
X135621001Y-112264000D01*
G75*
G02*
X135871000Y-112513999I0J-249999D01*
G01*
X135871000Y-113414001D01*
G75*
G02*
X135621001Y-113664000I-249999J0D01*
G01*
X134770999Y-113664000D01*
G75*
G02*
X134521000Y-113414001I0J249999D01*
G01*
X134521000Y-112513999D01*
G75*
G02*
X134770999Y-112264000I249999J0D01*
G01*
G37*
G36*
G01*
X134770999Y-109564000D02*
X135621001Y-109564000D01*
G75*
G02*
X135871000Y-109813999I0J-249999D01*
G01*
X135871000Y-110714001D01*
G75*
G02*
X135621001Y-110964000I-249999J0D01*
G01*
X134770999Y-110964000D01*
G75*
G02*
X134521000Y-110714001I0J249999D01*
G01*
X134521000Y-109813999D01*
G75*
G02*
X134770999Y-109564000I249999J0D01*
G01*
G37*
G36*
G01*
X134920999Y-120344000D02*
X135771001Y-120344000D01*
G75*
G02*
X136021000Y-120593999I0J-249999D01*
G01*
X136021000Y-121494001D01*
G75*
G02*
X135771001Y-121744000I-249999J0D01*
G01*
X134920999Y-121744000D01*
G75*
G02*
X134671000Y-121494001I0J249999D01*
G01*
X134671000Y-120593999D01*
G75*
G02*
X134920999Y-120344000I249999J0D01*
G01*
G37*
G36*
G01*
X134920999Y-117644000D02*
X135771001Y-117644000D01*
G75*
G02*
X136021000Y-117893999I0J-249999D01*
G01*
X136021000Y-118794001D01*
G75*
G02*
X135771001Y-119044000I-249999J0D01*
G01*
X134920999Y-119044000D01*
G75*
G02*
X134671000Y-118794001I0J249999D01*
G01*
X134671000Y-117893999D01*
G75*
G02*
X134920999Y-117644000I249999J0D01*
G01*
G37*
G36*
G01*
X160546000Y-116139001D02*
X160546000Y-115288999D01*
G75*
G02*
X160795999Y-115039000I249999J0D01*
G01*
X161696001Y-115039000D01*
G75*
G02*
X161946000Y-115288999I0J-249999D01*
G01*
X161946000Y-116139001D01*
G75*
G02*
X161696001Y-116389000I-249999J0D01*
G01*
X160795999Y-116389000D01*
G75*
G02*
X160546000Y-116139001I0J249999D01*
G01*
G37*
G36*
G01*
X163246000Y-116139001D02*
X163246000Y-115288999D01*
G75*
G02*
X163495999Y-115039000I249999J0D01*
G01*
X164396001Y-115039000D01*
G75*
G02*
X164646000Y-115288999I0J-249999D01*
G01*
X164646000Y-116139001D01*
G75*
G02*
X164396001Y-116389000I-249999J0D01*
G01*
X163495999Y-116389000D01*
G75*
G02*
X163246000Y-116139001I0J249999D01*
G01*
G37*
G36*
G01*
X168556000Y-116359001D02*
X168556000Y-115508999D01*
G75*
G02*
X168805999Y-115259000I249999J0D01*
G01*
X169706001Y-115259000D01*
G75*
G02*
X169956000Y-115508999I0J-249999D01*
G01*
X169956000Y-116359001D01*
G75*
G02*
X169706001Y-116609000I-249999J0D01*
G01*
X168805999Y-116609000D01*
G75*
G02*
X168556000Y-116359001I0J249999D01*
G01*
G37*
G36*
G01*
X171256000Y-116359001D02*
X171256000Y-115508999D01*
G75*
G02*
X171505999Y-115259000I249999J0D01*
G01*
X172406001Y-115259000D01*
G75*
G02*
X172656000Y-115508999I0J-249999D01*
G01*
X172656000Y-116359001D01*
G75*
G02*
X172406001Y-116609000I-249999J0D01*
G01*
X171505999Y-116609000D01*
G75*
G02*
X171256000Y-116359001I0J249999D01*
G01*
G37*
G36*
G01*
X180216000Y-115508999D02*
X180216000Y-116359001D01*
G75*
G02*
X179966001Y-116609000I-249999J0D01*
G01*
X179065999Y-116609000D01*
G75*
G02*
X178816000Y-116359001I0J249999D01*
G01*
X178816000Y-115508999D01*
G75*
G02*
X179065999Y-115259000I249999J0D01*
G01*
X179966001Y-115259000D01*
G75*
G02*
X180216000Y-115508999I0J-249999D01*
G01*
G37*
G36*
G01*
X177516000Y-115508999D02*
X177516000Y-116359001D01*
G75*
G02*
X177266001Y-116609000I-249999J0D01*
G01*
X176365999Y-116609000D01*
G75*
G02*
X176116000Y-116359001I0J249999D01*
G01*
X176116000Y-115508999D01*
G75*
G02*
X176365999Y-115259000I249999J0D01*
G01*
X177266001Y-115259000D01*
G75*
G02*
X177516000Y-115508999I0J-249999D01*
G01*
G37*
G36*
G01*
X185616000Y-115298999D02*
X185616000Y-116149001D01*
G75*
G02*
X185366001Y-116399000I-249999J0D01*
G01*
X184465999Y-116399000D01*
G75*
G02*
X184216000Y-116149001I0J249999D01*
G01*
X184216000Y-115298999D01*
G75*
G02*
X184465999Y-115049000I249999J0D01*
G01*
X185366001Y-115049000D01*
G75*
G02*
X185616000Y-115298999I0J-249999D01*
G01*
G37*
G36*
G01*
X188316000Y-115298999D02*
X188316000Y-116149001D01*
G75*
G02*
X188066001Y-116399000I-249999J0D01*
G01*
X187165999Y-116399000D01*
G75*
G02*
X186916000Y-116149001I0J249999D01*
G01*
X186916000Y-115298999D01*
G75*
G02*
X187165999Y-115049000I249999J0D01*
G01*
X188066001Y-115049000D01*
G75*
G02*
X188316000Y-115298999I0J-249999D01*
G01*
G37*
G36*
G01*
X166213500Y-103994000D02*
X165738500Y-103994000D01*
G75*
G02*
X165501000Y-103756500I0J237500D01*
G01*
X165501000Y-103181500D01*
G75*
G02*
X165738500Y-102944000I237500J0D01*
G01*
X166213500Y-102944000D01*
G75*
G02*
X166451000Y-103181500I0J-237500D01*
G01*
X166451000Y-103756500D01*
G75*
G02*
X166213500Y-103994000I-237500J0D01*
G01*
G37*
G36*
G01*
X166213500Y-105744000D02*
X165738500Y-105744000D01*
G75*
G02*
X165501000Y-105506500I0J237500D01*
G01*
X165501000Y-104931500D01*
G75*
G02*
X165738500Y-104694000I237500J0D01*
G01*
X166213500Y-104694000D01*
G75*
G02*
X166451000Y-104931500I0J-237500D01*
G01*
X166451000Y-105506500D01*
G75*
G02*
X166213500Y-105744000I-237500J0D01*
G01*
G37*
G36*
G01*
X153053500Y-105784000D02*
X152578500Y-105784000D01*
G75*
G02*
X152341000Y-105546500I0J237500D01*
G01*
X152341000Y-104971500D01*
G75*
G02*
X152578500Y-104734000I237500J0D01*
G01*
X153053500Y-104734000D01*
G75*
G02*
X153291000Y-104971500I0J-237500D01*
G01*
X153291000Y-105546500D01*
G75*
G02*
X153053500Y-105784000I-237500J0D01*
G01*
G37*
G36*
G01*
X153053500Y-104034000D02*
X152578500Y-104034000D01*
G75*
G02*
X152341000Y-103796500I0J237500D01*
G01*
X152341000Y-103221500D01*
G75*
G02*
X152578500Y-102984000I237500J0D01*
G01*
X153053500Y-102984000D01*
G75*
G02*
X153291000Y-103221500I0J-237500D01*
G01*
X153291000Y-103796500D01*
G75*
G02*
X153053500Y-104034000I-237500J0D01*
G01*
G37*
G36*
G01*
X179458500Y-102994000D02*
X179933500Y-102994000D01*
G75*
G02*
X180171000Y-103231500I0J-237500D01*
G01*
X180171000Y-103806500D01*
G75*
G02*
X179933500Y-104044000I-237500J0D01*
G01*
X179458500Y-104044000D01*
G75*
G02*
X179221000Y-103806500I0J237500D01*
G01*
X179221000Y-103231500D01*
G75*
G02*
X179458500Y-102994000I237500J0D01*
G01*
G37*
G36*
G01*
X179458500Y-104744000D02*
X179933500Y-104744000D01*
G75*
G02*
X180171000Y-104981500I0J-237500D01*
G01*
X180171000Y-105556500D01*
G75*
G02*
X179933500Y-105794000I-237500J0D01*
G01*
X179458500Y-105794000D01*
G75*
G02*
X179221000Y-105556500I0J237500D01*
G01*
X179221000Y-104981500D01*
G75*
G02*
X179458500Y-104744000I237500J0D01*
G01*
G37*
M02*
