G04 #@! TF.GenerationSoftware,KiCad,Pcbnew,(5.1.6)-1*
G04 #@! TF.CreationDate,2020-07-13T14:49:25+02:00*
G04 #@! TF.ProjectId,MukkeBox,4d756b6b-6542-46f7-982e-6b696361645f,rev?*
G04 #@! TF.SameCoordinates,Original*
G04 #@! TF.FileFunction,Soldermask,Bot*
G04 #@! TF.FilePolarity,Negative*
%FSLAX46Y46*%
G04 Gerber Fmt 4.6, Leading zero omitted, Abs format (unit mm)*
G04 Created by KiCad (PCBNEW (5.1.6)-1) date 2020-07-13 14:49:25*
%MOMM*%
%LPD*%
G01*
G04 APERTURE LIST*
%ADD10C,0.150000*%
G04 APERTURE END LIST*
D10*
G36*
X157209512Y-128737927D02*
G01*
X157358812Y-128767624D01*
X157522784Y-128835544D01*
X157670354Y-128934147D01*
X157795853Y-129059646D01*
X157894456Y-129207216D01*
X157962376Y-129371188D01*
X157997000Y-129545259D01*
X157997000Y-129722741D01*
X157962376Y-129896812D01*
X157894456Y-130060784D01*
X157795853Y-130208354D01*
X157670354Y-130333853D01*
X157522784Y-130432456D01*
X157358812Y-130500376D01*
X157209512Y-130530073D01*
X157184742Y-130535000D01*
X157007258Y-130535000D01*
X156982488Y-130530073D01*
X156833188Y-130500376D01*
X156669216Y-130432456D01*
X156521646Y-130333853D01*
X156396147Y-130208354D01*
X156297544Y-130060784D01*
X156229624Y-129896812D01*
X156195000Y-129722741D01*
X156195000Y-129545259D01*
X156229624Y-129371188D01*
X156297544Y-129207216D01*
X156396147Y-129059646D01*
X156521646Y-128934147D01*
X156669216Y-128835544D01*
X156833188Y-128767624D01*
X156982488Y-128737927D01*
X157007258Y-128733000D01*
X157184742Y-128733000D01*
X157209512Y-128737927D01*
G37*
G36*
X154669512Y-128737927D02*
G01*
X154818812Y-128767624D01*
X154982784Y-128835544D01*
X155130354Y-128934147D01*
X155255853Y-129059646D01*
X155354456Y-129207216D01*
X155422376Y-129371188D01*
X155457000Y-129545259D01*
X155457000Y-129722741D01*
X155422376Y-129896812D01*
X155354456Y-130060784D01*
X155255853Y-130208354D01*
X155130354Y-130333853D01*
X154982784Y-130432456D01*
X154818812Y-130500376D01*
X154669512Y-130530073D01*
X154644742Y-130535000D01*
X154467258Y-130535000D01*
X154442488Y-130530073D01*
X154293188Y-130500376D01*
X154129216Y-130432456D01*
X153981646Y-130333853D01*
X153856147Y-130208354D01*
X153757544Y-130060784D01*
X153689624Y-129896812D01*
X153655000Y-129722741D01*
X153655000Y-129545259D01*
X153689624Y-129371188D01*
X153757544Y-129207216D01*
X153856147Y-129059646D01*
X153981646Y-128934147D01*
X154129216Y-128835544D01*
X154293188Y-128767624D01*
X154442488Y-128737927D01*
X154467258Y-128733000D01*
X154644742Y-128733000D01*
X154669512Y-128737927D01*
G37*
G36*
X152917000Y-130535000D02*
G01*
X151115000Y-130535000D01*
X151115000Y-128733000D01*
X152917000Y-128733000D01*
X152917000Y-130535000D01*
G37*
G36*
X141014228Y-128565703D02*
G01*
X141169100Y-128629853D01*
X141308481Y-128722985D01*
X141427015Y-128841519D01*
X141520147Y-128980900D01*
X141584297Y-129135772D01*
X141617000Y-129300184D01*
X141617000Y-129467816D01*
X141584297Y-129632228D01*
X141520147Y-129787100D01*
X141427015Y-129926481D01*
X141308481Y-130045015D01*
X141169100Y-130138147D01*
X141014228Y-130202297D01*
X140849816Y-130235000D01*
X140682184Y-130235000D01*
X140517772Y-130202297D01*
X140362900Y-130138147D01*
X140223519Y-130045015D01*
X140104985Y-129926481D01*
X140011853Y-129787100D01*
X139947703Y-129632228D01*
X139915000Y-129467816D01*
X139915000Y-129300184D01*
X139947703Y-129135772D01*
X140011853Y-128980900D01*
X140104985Y-128841519D01*
X140223519Y-128722985D01*
X140362900Y-128629853D01*
X140517772Y-128565703D01*
X140682184Y-128533000D01*
X140849816Y-128533000D01*
X141014228Y-128565703D01*
G37*
G36*
X146014228Y-128565703D02*
G01*
X146169100Y-128629853D01*
X146308481Y-128722985D01*
X146427015Y-128841519D01*
X146520147Y-128980900D01*
X146584297Y-129135772D01*
X146617000Y-129300184D01*
X146617000Y-129467816D01*
X146584297Y-129632228D01*
X146520147Y-129787100D01*
X146427015Y-129926481D01*
X146308481Y-130045015D01*
X146169100Y-130138147D01*
X146014228Y-130202297D01*
X145849816Y-130235000D01*
X145682184Y-130235000D01*
X145517772Y-130202297D01*
X145362900Y-130138147D01*
X145223519Y-130045015D01*
X145104985Y-129926481D01*
X145011853Y-129787100D01*
X144947703Y-129632228D01*
X144915000Y-129467816D01*
X144915000Y-129300184D01*
X144947703Y-129135772D01*
X145011853Y-128980900D01*
X145104985Y-128841519D01*
X145223519Y-128722985D01*
X145362900Y-128629853D01*
X145517772Y-128565703D01*
X145682184Y-128533000D01*
X145849816Y-128533000D01*
X146014228Y-128565703D01*
G37*
G36*
X84489512Y-128412927D02*
G01*
X84638812Y-128442624D01*
X84802784Y-128510544D01*
X84950354Y-128609147D01*
X85075853Y-128734646D01*
X85174456Y-128882216D01*
X85242376Y-129046188D01*
X85277000Y-129220259D01*
X85277000Y-129397741D01*
X85242376Y-129571812D01*
X85174456Y-129735784D01*
X85075853Y-129883354D01*
X84950354Y-130008853D01*
X84802784Y-130107456D01*
X84638812Y-130175376D01*
X84489512Y-130205073D01*
X84464742Y-130210000D01*
X84287258Y-130210000D01*
X84262488Y-130205073D01*
X84113188Y-130175376D01*
X83949216Y-130107456D01*
X83801646Y-130008853D01*
X83676147Y-129883354D01*
X83577544Y-129735784D01*
X83509624Y-129571812D01*
X83475000Y-129397741D01*
X83475000Y-129220259D01*
X83509624Y-129046188D01*
X83577544Y-128882216D01*
X83676147Y-128734646D01*
X83801646Y-128609147D01*
X83949216Y-128510544D01*
X84113188Y-128442624D01*
X84262488Y-128412927D01*
X84287258Y-128408000D01*
X84464742Y-128408000D01*
X84489512Y-128412927D01*
G37*
G36*
X66709512Y-128412927D02*
G01*
X66858812Y-128442624D01*
X67022784Y-128510544D01*
X67170354Y-128609147D01*
X67295853Y-128734646D01*
X67394456Y-128882216D01*
X67462376Y-129046188D01*
X67497000Y-129220259D01*
X67497000Y-129397741D01*
X67462376Y-129571812D01*
X67394456Y-129735784D01*
X67295853Y-129883354D01*
X67170354Y-130008853D01*
X67022784Y-130107456D01*
X66858812Y-130175376D01*
X66709512Y-130205073D01*
X66684742Y-130210000D01*
X66507258Y-130210000D01*
X66482488Y-130205073D01*
X66333188Y-130175376D01*
X66169216Y-130107456D01*
X66021646Y-130008853D01*
X65896147Y-129883354D01*
X65797544Y-129735784D01*
X65729624Y-129571812D01*
X65695000Y-129397741D01*
X65695000Y-129220259D01*
X65729624Y-129046188D01*
X65797544Y-128882216D01*
X65896147Y-128734646D01*
X66021646Y-128609147D01*
X66169216Y-128510544D01*
X66333188Y-128442624D01*
X66482488Y-128412927D01*
X66507258Y-128408000D01*
X66684742Y-128408000D01*
X66709512Y-128412927D01*
G37*
G36*
X69249512Y-128412927D02*
G01*
X69398812Y-128442624D01*
X69562784Y-128510544D01*
X69710354Y-128609147D01*
X69835853Y-128734646D01*
X69934456Y-128882216D01*
X70002376Y-129046188D01*
X70037000Y-129220259D01*
X70037000Y-129397741D01*
X70002376Y-129571812D01*
X69934456Y-129735784D01*
X69835853Y-129883354D01*
X69710354Y-130008853D01*
X69562784Y-130107456D01*
X69398812Y-130175376D01*
X69249512Y-130205073D01*
X69224742Y-130210000D01*
X69047258Y-130210000D01*
X69022488Y-130205073D01*
X68873188Y-130175376D01*
X68709216Y-130107456D01*
X68561646Y-130008853D01*
X68436147Y-129883354D01*
X68337544Y-129735784D01*
X68269624Y-129571812D01*
X68235000Y-129397741D01*
X68235000Y-129220259D01*
X68269624Y-129046188D01*
X68337544Y-128882216D01*
X68436147Y-128734646D01*
X68561646Y-128609147D01*
X68709216Y-128510544D01*
X68873188Y-128442624D01*
X69022488Y-128412927D01*
X69047258Y-128408000D01*
X69224742Y-128408000D01*
X69249512Y-128412927D01*
G37*
G36*
X71789512Y-128412927D02*
G01*
X71938812Y-128442624D01*
X72102784Y-128510544D01*
X72250354Y-128609147D01*
X72375853Y-128734646D01*
X72474456Y-128882216D01*
X72542376Y-129046188D01*
X72577000Y-129220259D01*
X72577000Y-129397741D01*
X72542376Y-129571812D01*
X72474456Y-129735784D01*
X72375853Y-129883354D01*
X72250354Y-130008853D01*
X72102784Y-130107456D01*
X71938812Y-130175376D01*
X71789512Y-130205073D01*
X71764742Y-130210000D01*
X71587258Y-130210000D01*
X71562488Y-130205073D01*
X71413188Y-130175376D01*
X71249216Y-130107456D01*
X71101646Y-130008853D01*
X70976147Y-129883354D01*
X70877544Y-129735784D01*
X70809624Y-129571812D01*
X70775000Y-129397741D01*
X70775000Y-129220259D01*
X70809624Y-129046188D01*
X70877544Y-128882216D01*
X70976147Y-128734646D01*
X71101646Y-128609147D01*
X71249216Y-128510544D01*
X71413188Y-128442624D01*
X71562488Y-128412927D01*
X71587258Y-128408000D01*
X71764742Y-128408000D01*
X71789512Y-128412927D01*
G37*
G36*
X74329512Y-128412927D02*
G01*
X74478812Y-128442624D01*
X74642784Y-128510544D01*
X74790354Y-128609147D01*
X74915853Y-128734646D01*
X75014456Y-128882216D01*
X75082376Y-129046188D01*
X75117000Y-129220259D01*
X75117000Y-129397741D01*
X75082376Y-129571812D01*
X75014456Y-129735784D01*
X74915853Y-129883354D01*
X74790354Y-130008853D01*
X74642784Y-130107456D01*
X74478812Y-130175376D01*
X74329512Y-130205073D01*
X74304742Y-130210000D01*
X74127258Y-130210000D01*
X74102488Y-130205073D01*
X73953188Y-130175376D01*
X73789216Y-130107456D01*
X73641646Y-130008853D01*
X73516147Y-129883354D01*
X73417544Y-129735784D01*
X73349624Y-129571812D01*
X73315000Y-129397741D01*
X73315000Y-129220259D01*
X73349624Y-129046188D01*
X73417544Y-128882216D01*
X73516147Y-128734646D01*
X73641646Y-128609147D01*
X73789216Y-128510544D01*
X73953188Y-128442624D01*
X74102488Y-128412927D01*
X74127258Y-128408000D01*
X74304742Y-128408000D01*
X74329512Y-128412927D01*
G37*
G36*
X76869512Y-128412927D02*
G01*
X77018812Y-128442624D01*
X77182784Y-128510544D01*
X77330354Y-128609147D01*
X77455853Y-128734646D01*
X77554456Y-128882216D01*
X77622376Y-129046188D01*
X77657000Y-129220259D01*
X77657000Y-129397741D01*
X77622376Y-129571812D01*
X77554456Y-129735784D01*
X77455853Y-129883354D01*
X77330354Y-130008853D01*
X77182784Y-130107456D01*
X77018812Y-130175376D01*
X76869512Y-130205073D01*
X76844742Y-130210000D01*
X76667258Y-130210000D01*
X76642488Y-130205073D01*
X76493188Y-130175376D01*
X76329216Y-130107456D01*
X76181646Y-130008853D01*
X76056147Y-129883354D01*
X75957544Y-129735784D01*
X75889624Y-129571812D01*
X75855000Y-129397741D01*
X75855000Y-129220259D01*
X75889624Y-129046188D01*
X75957544Y-128882216D01*
X76056147Y-128734646D01*
X76181646Y-128609147D01*
X76329216Y-128510544D01*
X76493188Y-128442624D01*
X76642488Y-128412927D01*
X76667258Y-128408000D01*
X76844742Y-128408000D01*
X76869512Y-128412927D01*
G37*
G36*
X62417000Y-130210000D02*
G01*
X60615000Y-130210000D01*
X60615000Y-128408000D01*
X62417000Y-128408000D01*
X62417000Y-130210000D01*
G37*
G36*
X81949512Y-128412927D02*
G01*
X82098812Y-128442624D01*
X82262784Y-128510544D01*
X82410354Y-128609147D01*
X82535853Y-128734646D01*
X82634456Y-128882216D01*
X82702376Y-129046188D01*
X82737000Y-129220259D01*
X82737000Y-129397741D01*
X82702376Y-129571812D01*
X82634456Y-129735784D01*
X82535853Y-129883354D01*
X82410354Y-130008853D01*
X82262784Y-130107456D01*
X82098812Y-130175376D01*
X81949512Y-130205073D01*
X81924742Y-130210000D01*
X81747258Y-130210000D01*
X81722488Y-130205073D01*
X81573188Y-130175376D01*
X81409216Y-130107456D01*
X81261646Y-130008853D01*
X81136147Y-129883354D01*
X81037544Y-129735784D01*
X80969624Y-129571812D01*
X80935000Y-129397741D01*
X80935000Y-129220259D01*
X80969624Y-129046188D01*
X81037544Y-128882216D01*
X81136147Y-128734646D01*
X81261646Y-128609147D01*
X81409216Y-128510544D01*
X81573188Y-128442624D01*
X81722488Y-128412927D01*
X81747258Y-128408000D01*
X81924742Y-128408000D01*
X81949512Y-128412927D01*
G37*
G36*
X87029512Y-128412927D02*
G01*
X87178812Y-128442624D01*
X87342784Y-128510544D01*
X87490354Y-128609147D01*
X87615853Y-128734646D01*
X87714456Y-128882216D01*
X87782376Y-129046188D01*
X87817000Y-129220259D01*
X87817000Y-129397741D01*
X87782376Y-129571812D01*
X87714456Y-129735784D01*
X87615853Y-129883354D01*
X87490354Y-130008853D01*
X87342784Y-130107456D01*
X87178812Y-130175376D01*
X87029512Y-130205073D01*
X87004742Y-130210000D01*
X86827258Y-130210000D01*
X86802488Y-130205073D01*
X86653188Y-130175376D01*
X86489216Y-130107456D01*
X86341646Y-130008853D01*
X86216147Y-129883354D01*
X86117544Y-129735784D01*
X86049624Y-129571812D01*
X86015000Y-129397741D01*
X86015000Y-129220259D01*
X86049624Y-129046188D01*
X86117544Y-128882216D01*
X86216147Y-128734646D01*
X86341646Y-128609147D01*
X86489216Y-128510544D01*
X86653188Y-128442624D01*
X86802488Y-128412927D01*
X86827258Y-128408000D01*
X87004742Y-128408000D01*
X87029512Y-128412927D01*
G37*
G36*
X89569512Y-128412927D02*
G01*
X89718812Y-128442624D01*
X89882784Y-128510544D01*
X90030354Y-128609147D01*
X90155853Y-128734646D01*
X90254456Y-128882216D01*
X90322376Y-129046188D01*
X90357000Y-129220259D01*
X90357000Y-129397741D01*
X90322376Y-129571812D01*
X90254456Y-129735784D01*
X90155853Y-129883354D01*
X90030354Y-130008853D01*
X89882784Y-130107456D01*
X89718812Y-130175376D01*
X89569512Y-130205073D01*
X89544742Y-130210000D01*
X89367258Y-130210000D01*
X89342488Y-130205073D01*
X89193188Y-130175376D01*
X89029216Y-130107456D01*
X88881646Y-130008853D01*
X88756147Y-129883354D01*
X88657544Y-129735784D01*
X88589624Y-129571812D01*
X88555000Y-129397741D01*
X88555000Y-129220259D01*
X88589624Y-129046188D01*
X88657544Y-128882216D01*
X88756147Y-128734646D01*
X88881646Y-128609147D01*
X89029216Y-128510544D01*
X89193188Y-128442624D01*
X89342488Y-128412927D01*
X89367258Y-128408000D01*
X89544742Y-128408000D01*
X89569512Y-128412927D01*
G37*
G36*
X92109512Y-128412927D02*
G01*
X92258812Y-128442624D01*
X92422784Y-128510544D01*
X92570354Y-128609147D01*
X92695853Y-128734646D01*
X92794456Y-128882216D01*
X92862376Y-129046188D01*
X92897000Y-129220259D01*
X92897000Y-129397741D01*
X92862376Y-129571812D01*
X92794456Y-129735784D01*
X92695853Y-129883354D01*
X92570354Y-130008853D01*
X92422784Y-130107456D01*
X92258812Y-130175376D01*
X92109512Y-130205073D01*
X92084742Y-130210000D01*
X91907258Y-130210000D01*
X91882488Y-130205073D01*
X91733188Y-130175376D01*
X91569216Y-130107456D01*
X91421646Y-130008853D01*
X91296147Y-129883354D01*
X91197544Y-129735784D01*
X91129624Y-129571812D01*
X91095000Y-129397741D01*
X91095000Y-129220259D01*
X91129624Y-129046188D01*
X91197544Y-128882216D01*
X91296147Y-128734646D01*
X91421646Y-128609147D01*
X91569216Y-128510544D01*
X91733188Y-128442624D01*
X91882488Y-128412927D01*
X91907258Y-128408000D01*
X92084742Y-128408000D01*
X92109512Y-128412927D01*
G37*
G36*
X94649512Y-128412927D02*
G01*
X94798812Y-128442624D01*
X94962784Y-128510544D01*
X95110354Y-128609147D01*
X95235853Y-128734646D01*
X95334456Y-128882216D01*
X95402376Y-129046188D01*
X95437000Y-129220259D01*
X95437000Y-129397741D01*
X95402376Y-129571812D01*
X95334456Y-129735784D01*
X95235853Y-129883354D01*
X95110354Y-130008853D01*
X94962784Y-130107456D01*
X94798812Y-130175376D01*
X94649512Y-130205073D01*
X94624742Y-130210000D01*
X94447258Y-130210000D01*
X94422488Y-130205073D01*
X94273188Y-130175376D01*
X94109216Y-130107456D01*
X93961646Y-130008853D01*
X93836147Y-129883354D01*
X93737544Y-129735784D01*
X93669624Y-129571812D01*
X93635000Y-129397741D01*
X93635000Y-129220259D01*
X93669624Y-129046188D01*
X93737544Y-128882216D01*
X93836147Y-128734646D01*
X93961646Y-128609147D01*
X94109216Y-128510544D01*
X94273188Y-128442624D01*
X94422488Y-128412927D01*
X94447258Y-128408000D01*
X94624742Y-128408000D01*
X94649512Y-128412927D01*
G37*
G36*
X97189512Y-128412927D02*
G01*
X97338812Y-128442624D01*
X97502784Y-128510544D01*
X97650354Y-128609147D01*
X97775853Y-128734646D01*
X97874456Y-128882216D01*
X97942376Y-129046188D01*
X97977000Y-129220259D01*
X97977000Y-129397741D01*
X97942376Y-129571812D01*
X97874456Y-129735784D01*
X97775853Y-129883354D01*
X97650354Y-130008853D01*
X97502784Y-130107456D01*
X97338812Y-130175376D01*
X97189512Y-130205073D01*
X97164742Y-130210000D01*
X96987258Y-130210000D01*
X96962488Y-130205073D01*
X96813188Y-130175376D01*
X96649216Y-130107456D01*
X96501646Y-130008853D01*
X96376147Y-129883354D01*
X96277544Y-129735784D01*
X96209624Y-129571812D01*
X96175000Y-129397741D01*
X96175000Y-129220259D01*
X96209624Y-129046188D01*
X96277544Y-128882216D01*
X96376147Y-128734646D01*
X96501646Y-128609147D01*
X96649216Y-128510544D01*
X96813188Y-128442624D01*
X96962488Y-128412927D01*
X96987258Y-128408000D01*
X97164742Y-128408000D01*
X97189512Y-128412927D01*
G37*
G36*
X99729512Y-128412927D02*
G01*
X99878812Y-128442624D01*
X100042784Y-128510544D01*
X100190354Y-128609147D01*
X100315853Y-128734646D01*
X100414456Y-128882216D01*
X100482376Y-129046188D01*
X100517000Y-129220259D01*
X100517000Y-129397741D01*
X100482376Y-129571812D01*
X100414456Y-129735784D01*
X100315853Y-129883354D01*
X100190354Y-130008853D01*
X100042784Y-130107456D01*
X99878812Y-130175376D01*
X99729512Y-130205073D01*
X99704742Y-130210000D01*
X99527258Y-130210000D01*
X99502488Y-130205073D01*
X99353188Y-130175376D01*
X99189216Y-130107456D01*
X99041646Y-130008853D01*
X98916147Y-129883354D01*
X98817544Y-129735784D01*
X98749624Y-129571812D01*
X98715000Y-129397741D01*
X98715000Y-129220259D01*
X98749624Y-129046188D01*
X98817544Y-128882216D01*
X98916147Y-128734646D01*
X99041646Y-128609147D01*
X99189216Y-128510544D01*
X99353188Y-128442624D01*
X99502488Y-128412927D01*
X99527258Y-128408000D01*
X99704742Y-128408000D01*
X99729512Y-128412927D01*
G37*
G36*
X102269512Y-128412927D02*
G01*
X102418812Y-128442624D01*
X102582784Y-128510544D01*
X102730354Y-128609147D01*
X102855853Y-128734646D01*
X102954456Y-128882216D01*
X103022376Y-129046188D01*
X103057000Y-129220259D01*
X103057000Y-129397741D01*
X103022376Y-129571812D01*
X102954456Y-129735784D01*
X102855853Y-129883354D01*
X102730354Y-130008853D01*
X102582784Y-130107456D01*
X102418812Y-130175376D01*
X102269512Y-130205073D01*
X102244742Y-130210000D01*
X102067258Y-130210000D01*
X102042488Y-130205073D01*
X101893188Y-130175376D01*
X101729216Y-130107456D01*
X101581646Y-130008853D01*
X101456147Y-129883354D01*
X101357544Y-129735784D01*
X101289624Y-129571812D01*
X101255000Y-129397741D01*
X101255000Y-129220259D01*
X101289624Y-129046188D01*
X101357544Y-128882216D01*
X101456147Y-128734646D01*
X101581646Y-128609147D01*
X101729216Y-128510544D01*
X101893188Y-128442624D01*
X102042488Y-128412927D01*
X102067258Y-128408000D01*
X102244742Y-128408000D01*
X102269512Y-128412927D01*
G37*
G36*
X64169512Y-128412927D02*
G01*
X64318812Y-128442624D01*
X64482784Y-128510544D01*
X64630354Y-128609147D01*
X64755853Y-128734646D01*
X64854456Y-128882216D01*
X64922376Y-129046188D01*
X64957000Y-129220259D01*
X64957000Y-129397741D01*
X64922376Y-129571812D01*
X64854456Y-129735784D01*
X64755853Y-129883354D01*
X64630354Y-130008853D01*
X64482784Y-130107456D01*
X64318812Y-130175376D01*
X64169512Y-130205073D01*
X64144742Y-130210000D01*
X63967258Y-130210000D01*
X63942488Y-130205073D01*
X63793188Y-130175376D01*
X63629216Y-130107456D01*
X63481646Y-130008853D01*
X63356147Y-129883354D01*
X63257544Y-129735784D01*
X63189624Y-129571812D01*
X63155000Y-129397741D01*
X63155000Y-129220259D01*
X63189624Y-129046188D01*
X63257544Y-128882216D01*
X63356147Y-128734646D01*
X63481646Y-128609147D01*
X63629216Y-128510544D01*
X63793188Y-128442624D01*
X63942488Y-128412927D01*
X63967258Y-128408000D01*
X64144742Y-128408000D01*
X64169512Y-128412927D01*
G37*
G36*
X79409512Y-128412927D02*
G01*
X79558812Y-128442624D01*
X79722784Y-128510544D01*
X79870354Y-128609147D01*
X79995853Y-128734646D01*
X80094456Y-128882216D01*
X80162376Y-129046188D01*
X80197000Y-129220259D01*
X80197000Y-129397741D01*
X80162376Y-129571812D01*
X80094456Y-129735784D01*
X79995853Y-129883354D01*
X79870354Y-130008853D01*
X79722784Y-130107456D01*
X79558812Y-130175376D01*
X79409512Y-130205073D01*
X79384742Y-130210000D01*
X79207258Y-130210000D01*
X79182488Y-130205073D01*
X79033188Y-130175376D01*
X78869216Y-130107456D01*
X78721646Y-130008853D01*
X78596147Y-129883354D01*
X78497544Y-129735784D01*
X78429624Y-129571812D01*
X78395000Y-129397741D01*
X78395000Y-129220259D01*
X78429624Y-129046188D01*
X78497544Y-128882216D01*
X78596147Y-128734646D01*
X78721646Y-128609147D01*
X78869216Y-128510544D01*
X79033188Y-128442624D01*
X79182488Y-128412927D01*
X79207258Y-128408000D01*
X79384742Y-128408000D01*
X79409512Y-128412927D01*
G37*
G36*
X131297606Y-124342562D02*
G01*
X131816455Y-124557476D01*
X132283407Y-124869484D01*
X132680516Y-125266593D01*
X132992524Y-125733545D01*
X133131535Y-126069148D01*
X133207438Y-126252395D01*
X133317000Y-126803200D01*
X133317000Y-127364800D01*
X133276689Y-127567456D01*
X133207438Y-127915606D01*
X132992524Y-128434455D01*
X132769907Y-128767624D01*
X132680517Y-128901406D01*
X132283406Y-129298517D01*
X132190524Y-129360579D01*
X131816455Y-129610524D01*
X131297606Y-129825438D01*
X131022202Y-129880219D01*
X130746800Y-129935000D01*
X130185200Y-129935000D01*
X129909798Y-129880219D01*
X129634394Y-129825438D01*
X129115545Y-129610524D01*
X128741476Y-129360579D01*
X128648594Y-129298517D01*
X128251483Y-128901406D01*
X128162093Y-128767624D01*
X127939476Y-128434455D01*
X127724562Y-127915606D01*
X127655311Y-127567456D01*
X127615000Y-127364800D01*
X127615000Y-126803200D01*
X127724562Y-126252395D01*
X127800465Y-126069148D01*
X127939476Y-125733545D01*
X128251484Y-125266593D01*
X128648593Y-124869484D01*
X129115545Y-124557476D01*
X129634394Y-124342562D01*
X130185200Y-124233000D01*
X130746800Y-124233000D01*
X131297606Y-124342562D01*
G37*
G36*
X206297606Y-124342562D02*
G01*
X206816455Y-124557476D01*
X207283407Y-124869484D01*
X207680516Y-125266593D01*
X207992524Y-125733545D01*
X208131535Y-126069148D01*
X208207438Y-126252395D01*
X208317000Y-126803200D01*
X208317000Y-127364800D01*
X208276689Y-127567456D01*
X208207438Y-127915606D01*
X207992524Y-128434455D01*
X207769907Y-128767624D01*
X207680517Y-128901406D01*
X207283406Y-129298517D01*
X207190524Y-129360579D01*
X206816455Y-129610524D01*
X206297606Y-129825438D01*
X206022202Y-129880219D01*
X205746800Y-129935000D01*
X205185200Y-129935000D01*
X204909798Y-129880219D01*
X204634394Y-129825438D01*
X204115545Y-129610524D01*
X203741476Y-129360579D01*
X203648594Y-129298517D01*
X203251483Y-128901406D01*
X203162093Y-128767624D01*
X202939476Y-128434455D01*
X202724562Y-127915606D01*
X202655311Y-127567456D01*
X202615000Y-127364800D01*
X202615000Y-126803200D01*
X202724562Y-126252395D01*
X202800465Y-126069148D01*
X202939476Y-125733545D01*
X203251484Y-125266593D01*
X203648593Y-124869484D01*
X204115545Y-124557476D01*
X204634394Y-124342562D01*
X205185200Y-124233000D01*
X205746800Y-124233000D01*
X206297606Y-124342562D01*
G37*
G36*
X56297606Y-124342562D02*
G01*
X56816455Y-124557476D01*
X57283407Y-124869484D01*
X57680516Y-125266593D01*
X57992524Y-125733545D01*
X58131535Y-126069148D01*
X58207438Y-126252395D01*
X58317000Y-126803200D01*
X58317000Y-127364800D01*
X58276689Y-127567456D01*
X58207438Y-127915606D01*
X57992524Y-128434455D01*
X57769907Y-128767624D01*
X57680517Y-128901406D01*
X57283406Y-129298517D01*
X57190524Y-129360579D01*
X56816455Y-129610524D01*
X56297606Y-129825438D01*
X56022202Y-129880219D01*
X55746800Y-129935000D01*
X55185200Y-129935000D01*
X54909798Y-129880219D01*
X54634394Y-129825438D01*
X54115545Y-129610524D01*
X53741476Y-129360579D01*
X53648594Y-129298517D01*
X53251483Y-128901406D01*
X53162093Y-128767624D01*
X52939476Y-128434455D01*
X52724562Y-127915606D01*
X52655311Y-127567456D01*
X52615000Y-127364800D01*
X52615000Y-126803200D01*
X52724562Y-126252395D01*
X52800465Y-126069148D01*
X52939476Y-125733545D01*
X53251484Y-125266593D01*
X53648593Y-124869484D01*
X54115545Y-124557476D01*
X54634394Y-124342562D01*
X55185200Y-124233000D01*
X55746800Y-124233000D01*
X56297606Y-124342562D01*
G37*
G36*
X94649512Y-125872927D02*
G01*
X94798812Y-125902624D01*
X94962784Y-125970544D01*
X95110354Y-126069147D01*
X95235853Y-126194646D01*
X95334456Y-126342216D01*
X95402376Y-126506188D01*
X95437000Y-126680259D01*
X95437000Y-126857741D01*
X95402376Y-127031812D01*
X95334456Y-127195784D01*
X95235853Y-127343354D01*
X95110354Y-127468853D01*
X94962784Y-127567456D01*
X94798812Y-127635376D01*
X94649512Y-127665073D01*
X94624742Y-127670000D01*
X94447258Y-127670000D01*
X94422488Y-127665073D01*
X94273188Y-127635376D01*
X94109216Y-127567456D01*
X93961646Y-127468853D01*
X93836147Y-127343354D01*
X93737544Y-127195784D01*
X93669624Y-127031812D01*
X93635000Y-126857741D01*
X93635000Y-126680259D01*
X93669624Y-126506188D01*
X93737544Y-126342216D01*
X93836147Y-126194646D01*
X93961646Y-126069147D01*
X94109216Y-125970544D01*
X94273188Y-125902624D01*
X94422488Y-125872927D01*
X94447258Y-125868000D01*
X94624742Y-125868000D01*
X94649512Y-125872927D01*
G37*
G36*
X61629512Y-125872927D02*
G01*
X61778812Y-125902624D01*
X61942784Y-125970544D01*
X62090354Y-126069147D01*
X62215853Y-126194646D01*
X62314456Y-126342216D01*
X62382376Y-126506188D01*
X62417000Y-126680259D01*
X62417000Y-126857741D01*
X62382376Y-127031812D01*
X62314456Y-127195784D01*
X62215853Y-127343354D01*
X62090354Y-127468853D01*
X61942784Y-127567456D01*
X61778812Y-127635376D01*
X61629512Y-127665073D01*
X61604742Y-127670000D01*
X61427258Y-127670000D01*
X61402488Y-127665073D01*
X61253188Y-127635376D01*
X61089216Y-127567456D01*
X60941646Y-127468853D01*
X60816147Y-127343354D01*
X60717544Y-127195784D01*
X60649624Y-127031812D01*
X60615000Y-126857741D01*
X60615000Y-126680259D01*
X60649624Y-126506188D01*
X60717544Y-126342216D01*
X60816147Y-126194646D01*
X60941646Y-126069147D01*
X61089216Y-125970544D01*
X61253188Y-125902624D01*
X61402488Y-125872927D01*
X61427258Y-125868000D01*
X61604742Y-125868000D01*
X61629512Y-125872927D01*
G37*
G36*
X64169512Y-125872927D02*
G01*
X64318812Y-125902624D01*
X64482784Y-125970544D01*
X64630354Y-126069147D01*
X64755853Y-126194646D01*
X64854456Y-126342216D01*
X64922376Y-126506188D01*
X64957000Y-126680259D01*
X64957000Y-126857741D01*
X64922376Y-127031812D01*
X64854456Y-127195784D01*
X64755853Y-127343354D01*
X64630354Y-127468853D01*
X64482784Y-127567456D01*
X64318812Y-127635376D01*
X64169512Y-127665073D01*
X64144742Y-127670000D01*
X63967258Y-127670000D01*
X63942488Y-127665073D01*
X63793188Y-127635376D01*
X63629216Y-127567456D01*
X63481646Y-127468853D01*
X63356147Y-127343354D01*
X63257544Y-127195784D01*
X63189624Y-127031812D01*
X63155000Y-126857741D01*
X63155000Y-126680259D01*
X63189624Y-126506188D01*
X63257544Y-126342216D01*
X63356147Y-126194646D01*
X63481646Y-126069147D01*
X63629216Y-125970544D01*
X63793188Y-125902624D01*
X63942488Y-125872927D01*
X63967258Y-125868000D01*
X64144742Y-125868000D01*
X64169512Y-125872927D01*
G37*
G36*
X66709512Y-125872927D02*
G01*
X66858812Y-125902624D01*
X67022784Y-125970544D01*
X67170354Y-126069147D01*
X67295853Y-126194646D01*
X67394456Y-126342216D01*
X67462376Y-126506188D01*
X67497000Y-126680259D01*
X67497000Y-126857741D01*
X67462376Y-127031812D01*
X67394456Y-127195784D01*
X67295853Y-127343354D01*
X67170354Y-127468853D01*
X67022784Y-127567456D01*
X66858812Y-127635376D01*
X66709512Y-127665073D01*
X66684742Y-127670000D01*
X66507258Y-127670000D01*
X66482488Y-127665073D01*
X66333188Y-127635376D01*
X66169216Y-127567456D01*
X66021646Y-127468853D01*
X65896147Y-127343354D01*
X65797544Y-127195784D01*
X65729624Y-127031812D01*
X65695000Y-126857741D01*
X65695000Y-126680259D01*
X65729624Y-126506188D01*
X65797544Y-126342216D01*
X65896147Y-126194646D01*
X66021646Y-126069147D01*
X66169216Y-125970544D01*
X66333188Y-125902624D01*
X66482488Y-125872927D01*
X66507258Y-125868000D01*
X66684742Y-125868000D01*
X66709512Y-125872927D01*
G37*
G36*
X69249512Y-125872927D02*
G01*
X69398812Y-125902624D01*
X69562784Y-125970544D01*
X69710354Y-126069147D01*
X69835853Y-126194646D01*
X69934456Y-126342216D01*
X70002376Y-126506188D01*
X70037000Y-126680259D01*
X70037000Y-126857741D01*
X70002376Y-127031812D01*
X69934456Y-127195784D01*
X69835853Y-127343354D01*
X69710354Y-127468853D01*
X69562784Y-127567456D01*
X69398812Y-127635376D01*
X69249512Y-127665073D01*
X69224742Y-127670000D01*
X69047258Y-127670000D01*
X69022488Y-127665073D01*
X68873188Y-127635376D01*
X68709216Y-127567456D01*
X68561646Y-127468853D01*
X68436147Y-127343354D01*
X68337544Y-127195784D01*
X68269624Y-127031812D01*
X68235000Y-126857741D01*
X68235000Y-126680259D01*
X68269624Y-126506188D01*
X68337544Y-126342216D01*
X68436147Y-126194646D01*
X68561646Y-126069147D01*
X68709216Y-125970544D01*
X68873188Y-125902624D01*
X69022488Y-125872927D01*
X69047258Y-125868000D01*
X69224742Y-125868000D01*
X69249512Y-125872927D01*
G37*
G36*
X71789512Y-125872927D02*
G01*
X71938812Y-125902624D01*
X72102784Y-125970544D01*
X72250354Y-126069147D01*
X72375853Y-126194646D01*
X72474456Y-126342216D01*
X72542376Y-126506188D01*
X72577000Y-126680259D01*
X72577000Y-126857741D01*
X72542376Y-127031812D01*
X72474456Y-127195784D01*
X72375853Y-127343354D01*
X72250354Y-127468853D01*
X72102784Y-127567456D01*
X71938812Y-127635376D01*
X71789512Y-127665073D01*
X71764742Y-127670000D01*
X71587258Y-127670000D01*
X71562488Y-127665073D01*
X71413188Y-127635376D01*
X71249216Y-127567456D01*
X71101646Y-127468853D01*
X70976147Y-127343354D01*
X70877544Y-127195784D01*
X70809624Y-127031812D01*
X70775000Y-126857741D01*
X70775000Y-126680259D01*
X70809624Y-126506188D01*
X70877544Y-126342216D01*
X70976147Y-126194646D01*
X71101646Y-126069147D01*
X71249216Y-125970544D01*
X71413188Y-125902624D01*
X71562488Y-125872927D01*
X71587258Y-125868000D01*
X71764742Y-125868000D01*
X71789512Y-125872927D01*
G37*
G36*
X74329512Y-125872927D02*
G01*
X74478812Y-125902624D01*
X74642784Y-125970544D01*
X74790354Y-126069147D01*
X74915853Y-126194646D01*
X75014456Y-126342216D01*
X75082376Y-126506188D01*
X75117000Y-126680259D01*
X75117000Y-126857741D01*
X75082376Y-127031812D01*
X75014456Y-127195784D01*
X74915853Y-127343354D01*
X74790354Y-127468853D01*
X74642784Y-127567456D01*
X74478812Y-127635376D01*
X74329512Y-127665073D01*
X74304742Y-127670000D01*
X74127258Y-127670000D01*
X74102488Y-127665073D01*
X73953188Y-127635376D01*
X73789216Y-127567456D01*
X73641646Y-127468853D01*
X73516147Y-127343354D01*
X73417544Y-127195784D01*
X73349624Y-127031812D01*
X73315000Y-126857741D01*
X73315000Y-126680259D01*
X73349624Y-126506188D01*
X73417544Y-126342216D01*
X73516147Y-126194646D01*
X73641646Y-126069147D01*
X73789216Y-125970544D01*
X73953188Y-125902624D01*
X74102488Y-125872927D01*
X74127258Y-125868000D01*
X74304742Y-125868000D01*
X74329512Y-125872927D01*
G37*
G36*
X76869512Y-125872927D02*
G01*
X77018812Y-125902624D01*
X77182784Y-125970544D01*
X77330354Y-126069147D01*
X77455853Y-126194646D01*
X77554456Y-126342216D01*
X77622376Y-126506188D01*
X77657000Y-126680259D01*
X77657000Y-126857741D01*
X77622376Y-127031812D01*
X77554456Y-127195784D01*
X77455853Y-127343354D01*
X77330354Y-127468853D01*
X77182784Y-127567456D01*
X77018812Y-127635376D01*
X76869512Y-127665073D01*
X76844742Y-127670000D01*
X76667258Y-127670000D01*
X76642488Y-127665073D01*
X76493188Y-127635376D01*
X76329216Y-127567456D01*
X76181646Y-127468853D01*
X76056147Y-127343354D01*
X75957544Y-127195784D01*
X75889624Y-127031812D01*
X75855000Y-126857741D01*
X75855000Y-126680259D01*
X75889624Y-126506188D01*
X75957544Y-126342216D01*
X76056147Y-126194646D01*
X76181646Y-126069147D01*
X76329216Y-125970544D01*
X76493188Y-125902624D01*
X76642488Y-125872927D01*
X76667258Y-125868000D01*
X76844742Y-125868000D01*
X76869512Y-125872927D01*
G37*
G36*
X79409512Y-125872927D02*
G01*
X79558812Y-125902624D01*
X79722784Y-125970544D01*
X79870354Y-126069147D01*
X79995853Y-126194646D01*
X80094456Y-126342216D01*
X80162376Y-126506188D01*
X80197000Y-126680259D01*
X80197000Y-126857741D01*
X80162376Y-127031812D01*
X80094456Y-127195784D01*
X79995853Y-127343354D01*
X79870354Y-127468853D01*
X79722784Y-127567456D01*
X79558812Y-127635376D01*
X79409512Y-127665073D01*
X79384742Y-127670000D01*
X79207258Y-127670000D01*
X79182488Y-127665073D01*
X79033188Y-127635376D01*
X78869216Y-127567456D01*
X78721646Y-127468853D01*
X78596147Y-127343354D01*
X78497544Y-127195784D01*
X78429624Y-127031812D01*
X78395000Y-126857741D01*
X78395000Y-126680259D01*
X78429624Y-126506188D01*
X78497544Y-126342216D01*
X78596147Y-126194646D01*
X78721646Y-126069147D01*
X78869216Y-125970544D01*
X79033188Y-125902624D01*
X79182488Y-125872927D01*
X79207258Y-125868000D01*
X79384742Y-125868000D01*
X79409512Y-125872927D01*
G37*
G36*
X81949512Y-125872927D02*
G01*
X82098812Y-125902624D01*
X82262784Y-125970544D01*
X82410354Y-126069147D01*
X82535853Y-126194646D01*
X82634456Y-126342216D01*
X82702376Y-126506188D01*
X82737000Y-126680259D01*
X82737000Y-126857741D01*
X82702376Y-127031812D01*
X82634456Y-127195784D01*
X82535853Y-127343354D01*
X82410354Y-127468853D01*
X82262784Y-127567456D01*
X82098812Y-127635376D01*
X81949512Y-127665073D01*
X81924742Y-127670000D01*
X81747258Y-127670000D01*
X81722488Y-127665073D01*
X81573188Y-127635376D01*
X81409216Y-127567456D01*
X81261646Y-127468853D01*
X81136147Y-127343354D01*
X81037544Y-127195784D01*
X80969624Y-127031812D01*
X80935000Y-126857741D01*
X80935000Y-126680259D01*
X80969624Y-126506188D01*
X81037544Y-126342216D01*
X81136147Y-126194646D01*
X81261646Y-126069147D01*
X81409216Y-125970544D01*
X81573188Y-125902624D01*
X81722488Y-125872927D01*
X81747258Y-125868000D01*
X81924742Y-125868000D01*
X81949512Y-125872927D01*
G37*
G36*
X84489512Y-125872927D02*
G01*
X84638812Y-125902624D01*
X84802784Y-125970544D01*
X84950354Y-126069147D01*
X85075853Y-126194646D01*
X85174456Y-126342216D01*
X85242376Y-126506188D01*
X85277000Y-126680259D01*
X85277000Y-126857741D01*
X85242376Y-127031812D01*
X85174456Y-127195784D01*
X85075853Y-127343354D01*
X84950354Y-127468853D01*
X84802784Y-127567456D01*
X84638812Y-127635376D01*
X84489512Y-127665073D01*
X84464742Y-127670000D01*
X84287258Y-127670000D01*
X84262488Y-127665073D01*
X84113188Y-127635376D01*
X83949216Y-127567456D01*
X83801646Y-127468853D01*
X83676147Y-127343354D01*
X83577544Y-127195784D01*
X83509624Y-127031812D01*
X83475000Y-126857741D01*
X83475000Y-126680259D01*
X83509624Y-126506188D01*
X83577544Y-126342216D01*
X83676147Y-126194646D01*
X83801646Y-126069147D01*
X83949216Y-125970544D01*
X84113188Y-125902624D01*
X84262488Y-125872927D01*
X84287258Y-125868000D01*
X84464742Y-125868000D01*
X84489512Y-125872927D01*
G37*
G36*
X87029512Y-125872927D02*
G01*
X87178812Y-125902624D01*
X87342784Y-125970544D01*
X87490354Y-126069147D01*
X87615853Y-126194646D01*
X87714456Y-126342216D01*
X87782376Y-126506188D01*
X87817000Y-126680259D01*
X87817000Y-126857741D01*
X87782376Y-127031812D01*
X87714456Y-127195784D01*
X87615853Y-127343354D01*
X87490354Y-127468853D01*
X87342784Y-127567456D01*
X87178812Y-127635376D01*
X87029512Y-127665073D01*
X87004742Y-127670000D01*
X86827258Y-127670000D01*
X86802488Y-127665073D01*
X86653188Y-127635376D01*
X86489216Y-127567456D01*
X86341646Y-127468853D01*
X86216147Y-127343354D01*
X86117544Y-127195784D01*
X86049624Y-127031812D01*
X86015000Y-126857741D01*
X86015000Y-126680259D01*
X86049624Y-126506188D01*
X86117544Y-126342216D01*
X86216147Y-126194646D01*
X86341646Y-126069147D01*
X86489216Y-125970544D01*
X86653188Y-125902624D01*
X86802488Y-125872927D01*
X86827258Y-125868000D01*
X87004742Y-125868000D01*
X87029512Y-125872927D01*
G37*
G36*
X89569512Y-125872927D02*
G01*
X89718812Y-125902624D01*
X89882784Y-125970544D01*
X90030354Y-126069147D01*
X90155853Y-126194646D01*
X90254456Y-126342216D01*
X90322376Y-126506188D01*
X90357000Y-126680259D01*
X90357000Y-126857741D01*
X90322376Y-127031812D01*
X90254456Y-127195784D01*
X90155853Y-127343354D01*
X90030354Y-127468853D01*
X89882784Y-127567456D01*
X89718812Y-127635376D01*
X89569512Y-127665073D01*
X89544742Y-127670000D01*
X89367258Y-127670000D01*
X89342488Y-127665073D01*
X89193188Y-127635376D01*
X89029216Y-127567456D01*
X88881646Y-127468853D01*
X88756147Y-127343354D01*
X88657544Y-127195784D01*
X88589624Y-127031812D01*
X88555000Y-126857741D01*
X88555000Y-126680259D01*
X88589624Y-126506188D01*
X88657544Y-126342216D01*
X88756147Y-126194646D01*
X88881646Y-126069147D01*
X89029216Y-125970544D01*
X89193188Y-125902624D01*
X89342488Y-125872927D01*
X89367258Y-125868000D01*
X89544742Y-125868000D01*
X89569512Y-125872927D01*
G37*
G36*
X97189512Y-125872927D02*
G01*
X97338812Y-125902624D01*
X97502784Y-125970544D01*
X97650354Y-126069147D01*
X97775853Y-126194646D01*
X97874456Y-126342216D01*
X97942376Y-126506188D01*
X97977000Y-126680259D01*
X97977000Y-126857741D01*
X97942376Y-127031812D01*
X97874456Y-127195784D01*
X97775853Y-127343354D01*
X97650354Y-127468853D01*
X97502784Y-127567456D01*
X97338812Y-127635376D01*
X97189512Y-127665073D01*
X97164742Y-127670000D01*
X96987258Y-127670000D01*
X96962488Y-127665073D01*
X96813188Y-127635376D01*
X96649216Y-127567456D01*
X96501646Y-127468853D01*
X96376147Y-127343354D01*
X96277544Y-127195784D01*
X96209624Y-127031812D01*
X96175000Y-126857741D01*
X96175000Y-126680259D01*
X96209624Y-126506188D01*
X96277544Y-126342216D01*
X96376147Y-126194646D01*
X96501646Y-126069147D01*
X96649216Y-125970544D01*
X96813188Y-125902624D01*
X96962488Y-125872927D01*
X96987258Y-125868000D01*
X97164742Y-125868000D01*
X97189512Y-125872927D01*
G37*
G36*
X99729512Y-125872927D02*
G01*
X99878812Y-125902624D01*
X100042784Y-125970544D01*
X100190354Y-126069147D01*
X100315853Y-126194646D01*
X100414456Y-126342216D01*
X100482376Y-126506188D01*
X100517000Y-126680259D01*
X100517000Y-126857741D01*
X100482376Y-127031812D01*
X100414456Y-127195784D01*
X100315853Y-127343354D01*
X100190354Y-127468853D01*
X100042784Y-127567456D01*
X99878812Y-127635376D01*
X99729512Y-127665073D01*
X99704742Y-127670000D01*
X99527258Y-127670000D01*
X99502488Y-127665073D01*
X99353188Y-127635376D01*
X99189216Y-127567456D01*
X99041646Y-127468853D01*
X98916147Y-127343354D01*
X98817544Y-127195784D01*
X98749624Y-127031812D01*
X98715000Y-126857741D01*
X98715000Y-126680259D01*
X98749624Y-126506188D01*
X98817544Y-126342216D01*
X98916147Y-126194646D01*
X99041646Y-126069147D01*
X99189216Y-125970544D01*
X99353188Y-125902624D01*
X99502488Y-125872927D01*
X99527258Y-125868000D01*
X99704742Y-125868000D01*
X99729512Y-125872927D01*
G37*
G36*
X92109512Y-125872927D02*
G01*
X92258812Y-125902624D01*
X92422784Y-125970544D01*
X92570354Y-126069147D01*
X92695853Y-126194646D01*
X92794456Y-126342216D01*
X92862376Y-126506188D01*
X92897000Y-126680259D01*
X92897000Y-126857741D01*
X92862376Y-127031812D01*
X92794456Y-127195784D01*
X92695853Y-127343354D01*
X92570354Y-127468853D01*
X92422784Y-127567456D01*
X92258812Y-127635376D01*
X92109512Y-127665073D01*
X92084742Y-127670000D01*
X91907258Y-127670000D01*
X91882488Y-127665073D01*
X91733188Y-127635376D01*
X91569216Y-127567456D01*
X91421646Y-127468853D01*
X91296147Y-127343354D01*
X91197544Y-127195784D01*
X91129624Y-127031812D01*
X91095000Y-126857741D01*
X91095000Y-126680259D01*
X91129624Y-126506188D01*
X91197544Y-126342216D01*
X91296147Y-126194646D01*
X91421646Y-126069147D01*
X91569216Y-125970544D01*
X91733188Y-125902624D01*
X91882488Y-125872927D01*
X91907258Y-125868000D01*
X92084742Y-125868000D01*
X92109512Y-125872927D01*
G37*
G36*
X102269512Y-125872927D02*
G01*
X102418812Y-125902624D01*
X102582784Y-125970544D01*
X102730354Y-126069147D01*
X102855853Y-126194646D01*
X102954456Y-126342216D01*
X103022376Y-126506188D01*
X103057000Y-126680259D01*
X103057000Y-126857741D01*
X103022376Y-127031812D01*
X102954456Y-127195784D01*
X102855853Y-127343354D01*
X102730354Y-127468853D01*
X102582784Y-127567456D01*
X102418812Y-127635376D01*
X102269512Y-127665073D01*
X102244742Y-127670000D01*
X102067258Y-127670000D01*
X102042488Y-127665073D01*
X101893188Y-127635376D01*
X101729216Y-127567456D01*
X101581646Y-127468853D01*
X101456147Y-127343354D01*
X101357544Y-127195784D01*
X101289624Y-127031812D01*
X101255000Y-126857741D01*
X101255000Y-126680259D01*
X101289624Y-126506188D01*
X101357544Y-126342216D01*
X101456147Y-126194646D01*
X101581646Y-126069147D01*
X101729216Y-125970544D01*
X101893188Y-125902624D01*
X102042488Y-125872927D01*
X102067258Y-125868000D01*
X102244742Y-125868000D01*
X102269512Y-125872927D01*
G37*
G36*
X146064228Y-122965703D02*
G01*
X146219100Y-123029853D01*
X146358481Y-123122985D01*
X146477015Y-123241519D01*
X146570147Y-123380900D01*
X146634297Y-123535772D01*
X146667000Y-123700184D01*
X146667000Y-123867816D01*
X146634297Y-124032228D01*
X146570147Y-124187100D01*
X146477015Y-124326481D01*
X146358481Y-124445015D01*
X146219100Y-124538147D01*
X146064228Y-124602297D01*
X145899816Y-124635000D01*
X145732184Y-124635000D01*
X145567772Y-124602297D01*
X145412900Y-124538147D01*
X145273519Y-124445015D01*
X145154985Y-124326481D01*
X145061853Y-124187100D01*
X144997703Y-124032228D01*
X144965000Y-123867816D01*
X144965000Y-123700184D01*
X144997703Y-123535772D01*
X145061853Y-123380900D01*
X145154985Y-123241519D01*
X145273519Y-123122985D01*
X145412900Y-123029853D01*
X145567772Y-122965703D01*
X145732184Y-122933000D01*
X145899816Y-122933000D01*
X146064228Y-122965703D01*
G37*
G36*
X141064228Y-122965703D02*
G01*
X141219100Y-123029853D01*
X141358481Y-123122985D01*
X141477015Y-123241519D01*
X141570147Y-123380900D01*
X141634297Y-123535772D01*
X141667000Y-123700184D01*
X141667000Y-123867816D01*
X141634297Y-124032228D01*
X141570147Y-124187100D01*
X141477015Y-124326481D01*
X141358481Y-124445015D01*
X141219100Y-124538147D01*
X141064228Y-124602297D01*
X140899816Y-124635000D01*
X140732184Y-124635000D01*
X140567772Y-124602297D01*
X140412900Y-124538147D01*
X140273519Y-124445015D01*
X140154985Y-124326481D01*
X140061853Y-124187100D01*
X139997703Y-124032228D01*
X139965000Y-123867816D01*
X139965000Y-123700184D01*
X139997703Y-123535772D01*
X140061853Y-123380900D01*
X140154985Y-123241519D01*
X140273519Y-123122985D01*
X140412900Y-123029853D01*
X140567772Y-122965703D01*
X140732184Y-122933000D01*
X140899816Y-122933000D01*
X141064228Y-122965703D01*
G37*
G36*
X127778228Y-121065703D02*
G01*
X127933100Y-121129853D01*
X128072481Y-121222985D01*
X128191015Y-121341519D01*
X128284147Y-121480900D01*
X128348297Y-121635772D01*
X128381000Y-121800184D01*
X128381000Y-121967816D01*
X128348297Y-122132228D01*
X128284147Y-122287100D01*
X128191015Y-122426481D01*
X128072481Y-122545015D01*
X127933100Y-122638147D01*
X127778228Y-122702297D01*
X127613816Y-122735000D01*
X127446184Y-122735000D01*
X127281772Y-122702297D01*
X127126900Y-122638147D01*
X126987519Y-122545015D01*
X126868985Y-122426481D01*
X126775853Y-122287100D01*
X126711703Y-122132228D01*
X126679000Y-121967816D01*
X126679000Y-121800184D01*
X126711703Y-121635772D01*
X126775853Y-121480900D01*
X126868985Y-121341519D01*
X126987519Y-121222985D01*
X127126900Y-121129853D01*
X127281772Y-121065703D01*
X127446184Y-121033000D01*
X127613816Y-121033000D01*
X127778228Y-121065703D01*
G37*
G36*
X133730228Y-121065703D02*
G01*
X133885100Y-121129853D01*
X134024481Y-121222985D01*
X134143015Y-121341519D01*
X134236147Y-121480900D01*
X134300297Y-121635772D01*
X134333000Y-121800184D01*
X134333000Y-121967816D01*
X134300297Y-122132228D01*
X134236147Y-122287100D01*
X134143015Y-122426481D01*
X134024481Y-122545015D01*
X133885100Y-122638147D01*
X133730228Y-122702297D01*
X133565816Y-122735000D01*
X133398184Y-122735000D01*
X133233772Y-122702297D01*
X133078900Y-122638147D01*
X132939519Y-122545015D01*
X132820985Y-122426481D01*
X132727853Y-122287100D01*
X132663703Y-122132228D01*
X132631000Y-121967816D01*
X132631000Y-121800184D01*
X132663703Y-121635772D01*
X132727853Y-121480900D01*
X132820985Y-121341519D01*
X132939519Y-121222985D01*
X133078900Y-121129853D01*
X133233772Y-121065703D01*
X133398184Y-121033000D01*
X133565816Y-121033000D01*
X133730228Y-121065703D01*
G37*
G36*
X195879512Y-118677927D02*
G01*
X196028812Y-118707624D01*
X196192784Y-118775544D01*
X196340354Y-118874147D01*
X196465853Y-118999646D01*
X196564456Y-119147216D01*
X196632376Y-119311188D01*
X196667000Y-119485259D01*
X196667000Y-119662741D01*
X196632376Y-119836812D01*
X196564456Y-120000784D01*
X196465853Y-120148354D01*
X196340354Y-120273853D01*
X196192784Y-120372456D01*
X196028812Y-120440376D01*
X195879512Y-120470073D01*
X195854742Y-120475000D01*
X195677258Y-120475000D01*
X195652488Y-120470073D01*
X195503188Y-120440376D01*
X195339216Y-120372456D01*
X195191646Y-120273853D01*
X195066147Y-120148354D01*
X194967544Y-120000784D01*
X194899624Y-119836812D01*
X194865000Y-119662741D01*
X194865000Y-119485259D01*
X194899624Y-119311188D01*
X194967544Y-119147216D01*
X195066147Y-118999646D01*
X195191646Y-118874147D01*
X195339216Y-118775544D01*
X195503188Y-118707624D01*
X195652488Y-118677927D01*
X195677258Y-118673000D01*
X195854742Y-118673000D01*
X195879512Y-118677927D01*
G37*
G36*
X146114228Y-117515703D02*
G01*
X146269100Y-117579853D01*
X146408481Y-117672985D01*
X146527015Y-117791519D01*
X146620147Y-117930900D01*
X146684297Y-118085772D01*
X146717000Y-118250184D01*
X146717000Y-118417816D01*
X146684297Y-118582228D01*
X146620147Y-118737100D01*
X146527015Y-118876481D01*
X146408481Y-118995015D01*
X146269100Y-119088147D01*
X146114228Y-119152297D01*
X145949816Y-119185000D01*
X145782184Y-119185000D01*
X145617772Y-119152297D01*
X145462900Y-119088147D01*
X145323519Y-118995015D01*
X145204985Y-118876481D01*
X145111853Y-118737100D01*
X145047703Y-118582228D01*
X145015000Y-118417816D01*
X145015000Y-118250184D01*
X145047703Y-118085772D01*
X145111853Y-117930900D01*
X145204985Y-117791519D01*
X145323519Y-117672985D01*
X145462900Y-117579853D01*
X145617772Y-117515703D01*
X145782184Y-117483000D01*
X145949816Y-117483000D01*
X146114228Y-117515703D01*
G37*
G36*
X141114228Y-117515703D02*
G01*
X141269100Y-117579853D01*
X141408481Y-117672985D01*
X141527015Y-117791519D01*
X141620147Y-117930900D01*
X141684297Y-118085772D01*
X141717000Y-118250184D01*
X141717000Y-118417816D01*
X141684297Y-118582228D01*
X141620147Y-118737100D01*
X141527015Y-118876481D01*
X141408481Y-118995015D01*
X141269100Y-119088147D01*
X141114228Y-119152297D01*
X140949816Y-119185000D01*
X140782184Y-119185000D01*
X140617772Y-119152297D01*
X140462900Y-119088147D01*
X140323519Y-118995015D01*
X140204985Y-118876481D01*
X140111853Y-118737100D01*
X140047703Y-118582228D01*
X140015000Y-118417816D01*
X140015000Y-118250184D01*
X140047703Y-118085772D01*
X140111853Y-117930900D01*
X140204985Y-117791519D01*
X140323519Y-117672985D01*
X140462900Y-117579853D01*
X140617772Y-117515703D01*
X140782184Y-117483000D01*
X140949816Y-117483000D01*
X141114228Y-117515703D01*
G37*
G36*
X168214228Y-116765703D02*
G01*
X168369100Y-116829853D01*
X168508481Y-116922985D01*
X168627015Y-117041519D01*
X168720147Y-117180900D01*
X168784297Y-117335772D01*
X168817000Y-117500184D01*
X168817000Y-117667816D01*
X168784297Y-117832228D01*
X168720147Y-117987100D01*
X168627015Y-118126481D01*
X168508481Y-118245015D01*
X168369100Y-118338147D01*
X168214228Y-118402297D01*
X168049816Y-118435000D01*
X167882184Y-118435000D01*
X167717772Y-118402297D01*
X167562900Y-118338147D01*
X167423519Y-118245015D01*
X167304985Y-118126481D01*
X167211853Y-117987100D01*
X167147703Y-117832228D01*
X167115000Y-117667816D01*
X167115000Y-117500184D01*
X167147703Y-117335772D01*
X167211853Y-117180900D01*
X167304985Y-117041519D01*
X167423519Y-116922985D01*
X167562900Y-116829853D01*
X167717772Y-116765703D01*
X167882184Y-116733000D01*
X168049816Y-116733000D01*
X168214228Y-116765703D01*
G37*
G36*
X160314228Y-116765703D02*
G01*
X160469100Y-116829853D01*
X160608481Y-116922985D01*
X160727015Y-117041519D01*
X160820147Y-117180900D01*
X160884297Y-117335772D01*
X160917000Y-117500184D01*
X160917000Y-117667816D01*
X160884297Y-117832228D01*
X160820147Y-117987100D01*
X160727015Y-118126481D01*
X160608481Y-118245015D01*
X160469100Y-118338147D01*
X160314228Y-118402297D01*
X160149816Y-118435000D01*
X159982184Y-118435000D01*
X159817772Y-118402297D01*
X159662900Y-118338147D01*
X159523519Y-118245015D01*
X159404985Y-118126481D01*
X159311853Y-117987100D01*
X159247703Y-117832228D01*
X159215000Y-117667816D01*
X159215000Y-117500184D01*
X159247703Y-117335772D01*
X159311853Y-117180900D01*
X159404985Y-117041519D01*
X159523519Y-116922985D01*
X159662900Y-116829853D01*
X159817772Y-116765703D01*
X159982184Y-116733000D01*
X160149816Y-116733000D01*
X160314228Y-116765703D01*
G37*
G36*
X165314228Y-116765703D02*
G01*
X165469100Y-116829853D01*
X165608481Y-116922985D01*
X165727015Y-117041519D01*
X165820147Y-117180900D01*
X165884297Y-117335772D01*
X165917000Y-117500184D01*
X165917000Y-117667816D01*
X165884297Y-117832228D01*
X165820147Y-117987100D01*
X165727015Y-118126481D01*
X165608481Y-118245015D01*
X165469100Y-118338147D01*
X165314228Y-118402297D01*
X165149816Y-118435000D01*
X164982184Y-118435000D01*
X164817772Y-118402297D01*
X164662900Y-118338147D01*
X164523519Y-118245015D01*
X164404985Y-118126481D01*
X164311853Y-117987100D01*
X164247703Y-117832228D01*
X164215000Y-117667816D01*
X164215000Y-117500184D01*
X164247703Y-117335772D01*
X164311853Y-117180900D01*
X164404985Y-117041519D01*
X164523519Y-116922985D01*
X164662900Y-116829853D01*
X164817772Y-116765703D01*
X164982184Y-116733000D01*
X165149816Y-116733000D01*
X165314228Y-116765703D01*
G37*
G36*
X184014228Y-116765703D02*
G01*
X184169100Y-116829853D01*
X184308481Y-116922985D01*
X184427015Y-117041519D01*
X184520147Y-117180900D01*
X184584297Y-117335772D01*
X184617000Y-117500184D01*
X184617000Y-117667816D01*
X184584297Y-117832228D01*
X184520147Y-117987100D01*
X184427015Y-118126481D01*
X184308481Y-118245015D01*
X184169100Y-118338147D01*
X184014228Y-118402297D01*
X183849816Y-118435000D01*
X183682184Y-118435000D01*
X183517772Y-118402297D01*
X183362900Y-118338147D01*
X183223519Y-118245015D01*
X183104985Y-118126481D01*
X183011853Y-117987100D01*
X182947703Y-117832228D01*
X182915000Y-117667816D01*
X182915000Y-117500184D01*
X182947703Y-117335772D01*
X183011853Y-117180900D01*
X183104985Y-117041519D01*
X183223519Y-116922985D01*
X183362900Y-116829853D01*
X183517772Y-116765703D01*
X183682184Y-116733000D01*
X183849816Y-116733000D01*
X184014228Y-116765703D01*
G37*
G36*
X189014228Y-116765703D02*
G01*
X189169100Y-116829853D01*
X189308481Y-116922985D01*
X189427015Y-117041519D01*
X189520147Y-117180900D01*
X189584297Y-117335772D01*
X189617000Y-117500184D01*
X189617000Y-117667816D01*
X189584297Y-117832228D01*
X189520147Y-117987100D01*
X189427015Y-118126481D01*
X189308481Y-118245015D01*
X189169100Y-118338147D01*
X189014228Y-118402297D01*
X188849816Y-118435000D01*
X188682184Y-118435000D01*
X188517772Y-118402297D01*
X188362900Y-118338147D01*
X188223519Y-118245015D01*
X188104985Y-118126481D01*
X188011853Y-117987100D01*
X187947703Y-117832228D01*
X187915000Y-117667816D01*
X187915000Y-117500184D01*
X187947703Y-117335772D01*
X188011853Y-117180900D01*
X188104985Y-117041519D01*
X188223519Y-116922985D01*
X188362900Y-116829853D01*
X188517772Y-116765703D01*
X188682184Y-116733000D01*
X188849816Y-116733000D01*
X189014228Y-116765703D01*
G37*
G36*
X181114228Y-116765703D02*
G01*
X181269100Y-116829853D01*
X181408481Y-116922985D01*
X181527015Y-117041519D01*
X181620147Y-117180900D01*
X181684297Y-117335772D01*
X181717000Y-117500184D01*
X181717000Y-117667816D01*
X181684297Y-117832228D01*
X181620147Y-117987100D01*
X181527015Y-118126481D01*
X181408481Y-118245015D01*
X181269100Y-118338147D01*
X181114228Y-118402297D01*
X180949816Y-118435000D01*
X180782184Y-118435000D01*
X180617772Y-118402297D01*
X180462900Y-118338147D01*
X180323519Y-118245015D01*
X180204985Y-118126481D01*
X180111853Y-117987100D01*
X180047703Y-117832228D01*
X180015000Y-117667816D01*
X180015000Y-117500184D01*
X180047703Y-117335772D01*
X180111853Y-117180900D01*
X180204985Y-117041519D01*
X180323519Y-116922985D01*
X180462900Y-116829853D01*
X180617772Y-116765703D01*
X180782184Y-116733000D01*
X180949816Y-116733000D01*
X181114228Y-116765703D01*
G37*
G36*
X176114228Y-116765703D02*
G01*
X176269100Y-116829853D01*
X176408481Y-116922985D01*
X176527015Y-117041519D01*
X176620147Y-117180900D01*
X176684297Y-117335772D01*
X176717000Y-117500184D01*
X176717000Y-117667816D01*
X176684297Y-117832228D01*
X176620147Y-117987100D01*
X176527015Y-118126481D01*
X176408481Y-118245015D01*
X176269100Y-118338147D01*
X176114228Y-118402297D01*
X175949816Y-118435000D01*
X175782184Y-118435000D01*
X175617772Y-118402297D01*
X175462900Y-118338147D01*
X175323519Y-118245015D01*
X175204985Y-118126481D01*
X175111853Y-117987100D01*
X175047703Y-117832228D01*
X175015000Y-117667816D01*
X175015000Y-117500184D01*
X175047703Y-117335772D01*
X175111853Y-117180900D01*
X175204985Y-117041519D01*
X175323519Y-116922985D01*
X175462900Y-116829853D01*
X175617772Y-116765703D01*
X175782184Y-116733000D01*
X175949816Y-116733000D01*
X176114228Y-116765703D01*
G37*
G36*
X173214228Y-116765703D02*
G01*
X173369100Y-116829853D01*
X173508481Y-116922985D01*
X173627015Y-117041519D01*
X173720147Y-117180900D01*
X173784297Y-117335772D01*
X173817000Y-117500184D01*
X173817000Y-117667816D01*
X173784297Y-117832228D01*
X173720147Y-117987100D01*
X173627015Y-118126481D01*
X173508481Y-118245015D01*
X173369100Y-118338147D01*
X173214228Y-118402297D01*
X173049816Y-118435000D01*
X172882184Y-118435000D01*
X172717772Y-118402297D01*
X172562900Y-118338147D01*
X172423519Y-118245015D01*
X172304985Y-118126481D01*
X172211853Y-117987100D01*
X172147703Y-117832228D01*
X172115000Y-117667816D01*
X172115000Y-117500184D01*
X172147703Y-117335772D01*
X172211853Y-117180900D01*
X172304985Y-117041519D01*
X172423519Y-116922985D01*
X172562900Y-116829853D01*
X172717772Y-116765703D01*
X172882184Y-116733000D01*
X173049816Y-116733000D01*
X173214228Y-116765703D01*
G37*
G36*
X56618320Y-116372690D02*
G01*
X56768812Y-116402624D01*
X56932784Y-116470544D01*
X57080354Y-116569147D01*
X57205853Y-116694646D01*
X57304456Y-116842216D01*
X57372376Y-117006188D01*
X57407000Y-117180259D01*
X57407000Y-117357741D01*
X57372376Y-117531812D01*
X57304456Y-117695784D01*
X57205853Y-117843354D01*
X57080354Y-117968853D01*
X56932784Y-118067456D01*
X56768812Y-118135376D01*
X56619512Y-118165073D01*
X56594742Y-118170000D01*
X56417258Y-118170000D01*
X56392488Y-118165073D01*
X56243188Y-118135376D01*
X56079216Y-118067456D01*
X55931646Y-117968853D01*
X55806147Y-117843354D01*
X55707544Y-117695784D01*
X55639624Y-117531812D01*
X55605000Y-117357741D01*
X55605000Y-117180259D01*
X55639624Y-117006188D01*
X55707544Y-116842216D01*
X55806147Y-116694646D01*
X55931646Y-116569147D01*
X56079216Y-116470544D01*
X56243188Y-116402624D01*
X56393680Y-116372690D01*
X56417258Y-116368000D01*
X56594742Y-116368000D01*
X56618320Y-116372690D01*
G37*
G36*
X54078320Y-116372690D02*
G01*
X54228812Y-116402624D01*
X54392784Y-116470544D01*
X54540354Y-116569147D01*
X54665853Y-116694646D01*
X54764456Y-116842216D01*
X54832376Y-117006188D01*
X54867000Y-117180259D01*
X54867000Y-117357741D01*
X54832376Y-117531812D01*
X54764456Y-117695784D01*
X54665853Y-117843354D01*
X54540354Y-117968853D01*
X54392784Y-118067456D01*
X54228812Y-118135376D01*
X54079512Y-118165073D01*
X54054742Y-118170000D01*
X53877258Y-118170000D01*
X53852488Y-118165073D01*
X53703188Y-118135376D01*
X53539216Y-118067456D01*
X53391646Y-117968853D01*
X53266147Y-117843354D01*
X53167544Y-117695784D01*
X53099624Y-117531812D01*
X53065000Y-117357741D01*
X53065000Y-117180259D01*
X53099624Y-117006188D01*
X53167544Y-116842216D01*
X53266147Y-116694646D01*
X53391646Y-116569147D01*
X53539216Y-116470544D01*
X53703188Y-116402624D01*
X53853680Y-116372690D01*
X53877258Y-116368000D01*
X54054742Y-116368000D01*
X54078320Y-116372690D01*
G37*
G36*
X196667000Y-117935000D02*
G01*
X194865000Y-117935000D01*
X194865000Y-116133000D01*
X196667000Y-116133000D01*
X196667000Y-117935000D01*
G37*
G36*
X133730228Y-116065703D02*
G01*
X133885100Y-116129853D01*
X134024481Y-116222985D01*
X134143015Y-116341519D01*
X134236147Y-116480900D01*
X134300297Y-116635772D01*
X134333000Y-116800184D01*
X134333000Y-116967816D01*
X134300297Y-117132228D01*
X134236147Y-117287100D01*
X134143015Y-117426481D01*
X134024481Y-117545015D01*
X133885100Y-117638147D01*
X133730228Y-117702297D01*
X133565816Y-117735000D01*
X133398184Y-117735000D01*
X133233772Y-117702297D01*
X133078900Y-117638147D01*
X132939519Y-117545015D01*
X132820985Y-117426481D01*
X132727853Y-117287100D01*
X132663703Y-117132228D01*
X132631000Y-116967816D01*
X132631000Y-116800184D01*
X132663703Y-116635772D01*
X132727853Y-116480900D01*
X132820985Y-116341519D01*
X132939519Y-116222985D01*
X133078900Y-116129853D01*
X133233772Y-116065703D01*
X133398184Y-116033000D01*
X133565816Y-116033000D01*
X133730228Y-116065703D01*
G37*
G36*
X127778228Y-116065703D02*
G01*
X127933100Y-116129853D01*
X128072481Y-116222985D01*
X128191015Y-116341519D01*
X128284147Y-116480900D01*
X128348297Y-116635772D01*
X128381000Y-116800184D01*
X128381000Y-116967816D01*
X128348297Y-117132228D01*
X128284147Y-117287100D01*
X128191015Y-117426481D01*
X128072481Y-117545015D01*
X127933100Y-117638147D01*
X127778228Y-117702297D01*
X127613816Y-117735000D01*
X127446184Y-117735000D01*
X127281772Y-117702297D01*
X127126900Y-117638147D01*
X126987519Y-117545015D01*
X126868985Y-117426481D01*
X126775853Y-117287100D01*
X126711703Y-117132228D01*
X126679000Y-116967816D01*
X126679000Y-116800184D01*
X126711703Y-116635772D01*
X126775853Y-116480900D01*
X126868985Y-116341519D01*
X126987519Y-116222985D01*
X127126900Y-116129853D01*
X127281772Y-116065703D01*
X127446184Y-116033000D01*
X127613816Y-116033000D01*
X127778228Y-116065703D01*
G37*
G36*
X89153395Y-114719546D02*
G01*
X89326466Y-114791234D01*
X89326467Y-114791235D01*
X89482227Y-114895310D01*
X89614690Y-115027773D01*
X89614691Y-115027775D01*
X89718766Y-115183534D01*
X89790454Y-115356605D01*
X89827000Y-115540333D01*
X89827000Y-115727667D01*
X89790454Y-115911395D01*
X89718766Y-116084466D01*
X89667081Y-116161818D01*
X89614690Y-116240227D01*
X89482227Y-116372690D01*
X89437427Y-116402624D01*
X89326466Y-116476766D01*
X89153395Y-116548454D01*
X88969667Y-116585000D01*
X88782333Y-116585000D01*
X88598605Y-116548454D01*
X88425534Y-116476766D01*
X88314573Y-116402624D01*
X88269773Y-116372690D01*
X88137310Y-116240227D01*
X88084919Y-116161818D01*
X88033234Y-116084466D01*
X87961546Y-115911395D01*
X87925000Y-115727667D01*
X87925000Y-115540333D01*
X87961546Y-115356605D01*
X88033234Y-115183534D01*
X88137309Y-115027775D01*
X88137310Y-115027773D01*
X88269773Y-114895310D01*
X88425533Y-114791235D01*
X88425534Y-114791234D01*
X88598605Y-114719546D01*
X88782333Y-114683000D01*
X88969667Y-114683000D01*
X89153395Y-114719546D01*
G37*
G36*
X92367000Y-116585000D02*
G01*
X90465000Y-116585000D01*
X90465000Y-114683000D01*
X92367000Y-114683000D01*
X92367000Y-116585000D01*
G37*
G36*
X56619512Y-113832927D02*
G01*
X56768812Y-113862624D01*
X56932784Y-113930544D01*
X57080354Y-114029147D01*
X57205853Y-114154646D01*
X57304456Y-114302216D01*
X57372376Y-114466188D01*
X57407000Y-114640259D01*
X57407000Y-114817741D01*
X57372376Y-114991812D01*
X57304456Y-115155784D01*
X57205853Y-115303354D01*
X57080354Y-115428853D01*
X56932784Y-115527456D01*
X56768812Y-115595376D01*
X56619512Y-115625073D01*
X56594742Y-115630000D01*
X56417258Y-115630000D01*
X56392488Y-115625073D01*
X56243188Y-115595376D01*
X56079216Y-115527456D01*
X55931646Y-115428853D01*
X55806147Y-115303354D01*
X55707544Y-115155784D01*
X55639624Y-114991812D01*
X55605000Y-114817741D01*
X55605000Y-114640259D01*
X55639624Y-114466188D01*
X55707544Y-114302216D01*
X55806147Y-114154646D01*
X55931646Y-114029147D01*
X56079216Y-113930544D01*
X56243188Y-113862624D01*
X56392488Y-113832927D01*
X56417258Y-113828000D01*
X56594742Y-113828000D01*
X56619512Y-113832927D01*
G37*
G36*
X54079512Y-113832927D02*
G01*
X54228812Y-113862624D01*
X54392784Y-113930544D01*
X54540354Y-114029147D01*
X54665853Y-114154646D01*
X54764456Y-114302216D01*
X54832376Y-114466188D01*
X54867000Y-114640259D01*
X54867000Y-114817741D01*
X54832376Y-114991812D01*
X54764456Y-115155784D01*
X54665853Y-115303354D01*
X54540354Y-115428853D01*
X54392784Y-115527456D01*
X54228812Y-115595376D01*
X54079512Y-115625073D01*
X54054742Y-115630000D01*
X53877258Y-115630000D01*
X53852488Y-115625073D01*
X53703188Y-115595376D01*
X53539216Y-115527456D01*
X53391646Y-115428853D01*
X53266147Y-115303354D01*
X53167544Y-115155784D01*
X53099624Y-114991812D01*
X53065000Y-114817741D01*
X53065000Y-114640259D01*
X53099624Y-114466188D01*
X53167544Y-114302216D01*
X53266147Y-114154646D01*
X53391646Y-114029147D01*
X53539216Y-113930544D01*
X53703188Y-113862624D01*
X53852488Y-113832927D01*
X53877258Y-113828000D01*
X54054742Y-113828000D01*
X54079512Y-113832927D01*
G37*
G36*
X133730228Y-112965703D02*
G01*
X133885100Y-113029853D01*
X134024481Y-113122985D01*
X134143015Y-113241519D01*
X134236147Y-113380900D01*
X134300297Y-113535772D01*
X134333000Y-113700184D01*
X134333000Y-113867816D01*
X134300297Y-114032228D01*
X134236147Y-114187100D01*
X134143015Y-114326481D01*
X134024481Y-114445015D01*
X133885100Y-114538147D01*
X133730228Y-114602297D01*
X133565816Y-114635000D01*
X133398184Y-114635000D01*
X133233772Y-114602297D01*
X133078900Y-114538147D01*
X132939519Y-114445015D01*
X132820985Y-114326481D01*
X132727853Y-114187100D01*
X132663703Y-114032228D01*
X132631000Y-113867816D01*
X132631000Y-113700184D01*
X132663703Y-113535772D01*
X132727853Y-113380900D01*
X132820985Y-113241519D01*
X132939519Y-113122985D01*
X133078900Y-113029853D01*
X133233772Y-112965703D01*
X133398184Y-112933000D01*
X133565816Y-112933000D01*
X133730228Y-112965703D01*
G37*
G36*
X127778228Y-112965703D02*
G01*
X127933100Y-113029853D01*
X128072481Y-113122985D01*
X128191015Y-113241519D01*
X128284147Y-113380900D01*
X128348297Y-113535772D01*
X128381000Y-113700184D01*
X128381000Y-113867816D01*
X128348297Y-114032228D01*
X128284147Y-114187100D01*
X128191015Y-114326481D01*
X128072481Y-114445015D01*
X127933100Y-114538147D01*
X127778228Y-114602297D01*
X127613816Y-114635000D01*
X127446184Y-114635000D01*
X127281772Y-114602297D01*
X127126900Y-114538147D01*
X126987519Y-114445015D01*
X126868985Y-114326481D01*
X126775853Y-114187100D01*
X126711703Y-114032228D01*
X126679000Y-113867816D01*
X126679000Y-113700184D01*
X126711703Y-113535772D01*
X126775853Y-113380900D01*
X126868985Y-113241519D01*
X126987519Y-113122985D01*
X127126900Y-113029853D01*
X127281772Y-112965703D01*
X127446184Y-112933000D01*
X127613816Y-112933000D01*
X127778228Y-112965703D01*
G37*
G36*
X167717000Y-113985000D02*
G01*
X165915000Y-113985000D01*
X165915000Y-112183000D01*
X167717000Y-112183000D01*
X167717000Y-113985000D01*
G37*
G36*
X169469512Y-112187927D02*
G01*
X169618812Y-112217624D01*
X169782784Y-112285544D01*
X169930354Y-112384147D01*
X170055853Y-112509646D01*
X170154456Y-112657216D01*
X170222376Y-112821188D01*
X170257000Y-112995259D01*
X170257000Y-113172741D01*
X170222376Y-113346812D01*
X170154456Y-113510784D01*
X170055853Y-113658354D01*
X169930354Y-113783853D01*
X169782784Y-113882456D01*
X169618812Y-113950376D01*
X169469512Y-113980073D01*
X169444742Y-113985000D01*
X169267258Y-113985000D01*
X169242488Y-113980073D01*
X169093188Y-113950376D01*
X168929216Y-113882456D01*
X168781646Y-113783853D01*
X168656147Y-113658354D01*
X168557544Y-113510784D01*
X168489624Y-113346812D01*
X168455000Y-113172741D01*
X168455000Y-112995259D01*
X168489624Y-112821188D01*
X168557544Y-112657216D01*
X168656147Y-112509646D01*
X168781646Y-112384147D01*
X168929216Y-112285544D01*
X169093188Y-112217624D01*
X169242488Y-112187927D01*
X169267258Y-112183000D01*
X169444742Y-112183000D01*
X169469512Y-112187927D01*
G37*
G36*
X174549512Y-112187927D02*
G01*
X174698812Y-112217624D01*
X174862784Y-112285544D01*
X175010354Y-112384147D01*
X175135853Y-112509646D01*
X175234456Y-112657216D01*
X175302376Y-112821188D01*
X175337000Y-112995259D01*
X175337000Y-113172741D01*
X175302376Y-113346812D01*
X175234456Y-113510784D01*
X175135853Y-113658354D01*
X175010354Y-113783853D01*
X174862784Y-113882456D01*
X174698812Y-113950376D01*
X174549512Y-113980073D01*
X174524742Y-113985000D01*
X174347258Y-113985000D01*
X174322488Y-113980073D01*
X174173188Y-113950376D01*
X174009216Y-113882456D01*
X173861646Y-113783853D01*
X173736147Y-113658354D01*
X173637544Y-113510784D01*
X173569624Y-113346812D01*
X173535000Y-113172741D01*
X173535000Y-112995259D01*
X173569624Y-112821188D01*
X173637544Y-112657216D01*
X173736147Y-112509646D01*
X173861646Y-112384147D01*
X174009216Y-112285544D01*
X174173188Y-112217624D01*
X174322488Y-112187927D01*
X174347258Y-112183000D01*
X174524742Y-112183000D01*
X174549512Y-112187927D01*
G37*
G36*
X177089512Y-112187927D02*
G01*
X177238812Y-112217624D01*
X177402784Y-112285544D01*
X177550354Y-112384147D01*
X177675853Y-112509646D01*
X177774456Y-112657216D01*
X177842376Y-112821188D01*
X177877000Y-112995259D01*
X177877000Y-113172741D01*
X177842376Y-113346812D01*
X177774456Y-113510784D01*
X177675853Y-113658354D01*
X177550354Y-113783853D01*
X177402784Y-113882456D01*
X177238812Y-113950376D01*
X177089512Y-113980073D01*
X177064742Y-113985000D01*
X176887258Y-113985000D01*
X176862488Y-113980073D01*
X176713188Y-113950376D01*
X176549216Y-113882456D01*
X176401646Y-113783853D01*
X176276147Y-113658354D01*
X176177544Y-113510784D01*
X176109624Y-113346812D01*
X176075000Y-113172741D01*
X176075000Y-112995259D01*
X176109624Y-112821188D01*
X176177544Y-112657216D01*
X176276147Y-112509646D01*
X176401646Y-112384147D01*
X176549216Y-112285544D01*
X176713188Y-112217624D01*
X176862488Y-112187927D01*
X176887258Y-112183000D01*
X177064742Y-112183000D01*
X177089512Y-112187927D01*
G37*
G36*
X179629512Y-112187927D02*
G01*
X179778812Y-112217624D01*
X179942784Y-112285544D01*
X180090354Y-112384147D01*
X180215853Y-112509646D01*
X180314456Y-112657216D01*
X180382376Y-112821188D01*
X180417000Y-112995259D01*
X180417000Y-113172741D01*
X180382376Y-113346812D01*
X180314456Y-113510784D01*
X180215853Y-113658354D01*
X180090354Y-113783853D01*
X179942784Y-113882456D01*
X179778812Y-113950376D01*
X179629512Y-113980073D01*
X179604742Y-113985000D01*
X179427258Y-113985000D01*
X179402488Y-113980073D01*
X179253188Y-113950376D01*
X179089216Y-113882456D01*
X178941646Y-113783853D01*
X178816147Y-113658354D01*
X178717544Y-113510784D01*
X178649624Y-113346812D01*
X178615000Y-113172741D01*
X178615000Y-112995259D01*
X178649624Y-112821188D01*
X178717544Y-112657216D01*
X178816147Y-112509646D01*
X178941646Y-112384147D01*
X179089216Y-112285544D01*
X179253188Y-112217624D01*
X179402488Y-112187927D01*
X179427258Y-112183000D01*
X179604742Y-112183000D01*
X179629512Y-112187927D01*
G37*
G36*
X172009512Y-112187927D02*
G01*
X172158812Y-112217624D01*
X172322784Y-112285544D01*
X172470354Y-112384147D01*
X172595853Y-112509646D01*
X172694456Y-112657216D01*
X172762376Y-112821188D01*
X172797000Y-112995259D01*
X172797000Y-113172741D01*
X172762376Y-113346812D01*
X172694456Y-113510784D01*
X172595853Y-113658354D01*
X172470354Y-113783853D01*
X172322784Y-113882456D01*
X172158812Y-113950376D01*
X172009512Y-113980073D01*
X171984742Y-113985000D01*
X171807258Y-113985000D01*
X171782488Y-113980073D01*
X171633188Y-113950376D01*
X171469216Y-113882456D01*
X171321646Y-113783853D01*
X171196147Y-113658354D01*
X171097544Y-113510784D01*
X171029624Y-113346812D01*
X170995000Y-113172741D01*
X170995000Y-112995259D01*
X171029624Y-112821188D01*
X171097544Y-112657216D01*
X171196147Y-112509646D01*
X171321646Y-112384147D01*
X171469216Y-112285544D01*
X171633188Y-112217624D01*
X171782488Y-112187927D01*
X171807258Y-112183000D01*
X171984742Y-112183000D01*
X172009512Y-112187927D01*
G37*
G36*
X56619512Y-111292927D02*
G01*
X56768812Y-111322624D01*
X56932784Y-111390544D01*
X57080354Y-111489147D01*
X57205853Y-111614646D01*
X57304456Y-111762216D01*
X57372376Y-111926188D01*
X57407000Y-112100259D01*
X57407000Y-112277741D01*
X57372376Y-112451812D01*
X57304456Y-112615784D01*
X57205853Y-112763354D01*
X57080354Y-112888853D01*
X56932784Y-112987456D01*
X56768812Y-113055376D01*
X56619512Y-113085073D01*
X56594742Y-113090000D01*
X56417258Y-113090000D01*
X56392488Y-113085073D01*
X56243188Y-113055376D01*
X56079216Y-112987456D01*
X55931646Y-112888853D01*
X55806147Y-112763354D01*
X55707544Y-112615784D01*
X55639624Y-112451812D01*
X55605000Y-112277741D01*
X55605000Y-112100259D01*
X55639624Y-111926188D01*
X55707544Y-111762216D01*
X55806147Y-111614646D01*
X55931646Y-111489147D01*
X56079216Y-111390544D01*
X56243188Y-111322624D01*
X56392488Y-111292927D01*
X56417258Y-111288000D01*
X56594742Y-111288000D01*
X56619512Y-111292927D01*
G37*
G36*
X54079512Y-111292927D02*
G01*
X54228812Y-111322624D01*
X54392784Y-111390544D01*
X54540354Y-111489147D01*
X54665853Y-111614646D01*
X54764456Y-111762216D01*
X54832376Y-111926188D01*
X54867000Y-112100259D01*
X54867000Y-112277741D01*
X54832376Y-112451812D01*
X54764456Y-112615784D01*
X54665853Y-112763354D01*
X54540354Y-112888853D01*
X54392784Y-112987456D01*
X54228812Y-113055376D01*
X54079512Y-113085073D01*
X54054742Y-113090000D01*
X53877258Y-113090000D01*
X53852488Y-113085073D01*
X53703188Y-113055376D01*
X53539216Y-112987456D01*
X53391646Y-112888853D01*
X53266147Y-112763354D01*
X53167544Y-112615784D01*
X53099624Y-112451812D01*
X53065000Y-112277741D01*
X53065000Y-112100259D01*
X53099624Y-111926188D01*
X53167544Y-111762216D01*
X53266147Y-111614646D01*
X53391646Y-111489147D01*
X53539216Y-111390544D01*
X53703188Y-111322624D01*
X53852488Y-111292927D01*
X53877258Y-111288000D01*
X54054742Y-111288000D01*
X54079512Y-111292927D01*
G37*
G36*
X95518915Y-110291334D02*
G01*
X95627491Y-110324271D01*
X95627494Y-110324272D01*
X95663600Y-110343571D01*
X95727556Y-110377756D01*
X95815264Y-110449736D01*
X95887244Y-110537443D01*
X95921429Y-110601399D01*
X95940728Y-110637505D01*
X95940729Y-110637508D01*
X95973666Y-110746084D01*
X95982000Y-110830702D01*
X95982000Y-111337297D01*
X95973666Y-111421916D01*
X95941252Y-111528767D01*
X95940728Y-111530495D01*
X95930761Y-111549141D01*
X95887244Y-111630557D01*
X95815264Y-111718264D01*
X95727557Y-111790244D01*
X95663601Y-111824429D01*
X95627495Y-111843728D01*
X95627492Y-111843729D01*
X95518916Y-111876666D01*
X95406000Y-111887787D01*
X95293085Y-111876666D01*
X95184509Y-111843729D01*
X95184506Y-111843728D01*
X95148400Y-111824429D01*
X95084444Y-111790244D01*
X94996737Y-111718264D01*
X94924757Y-111630557D01*
X94881239Y-111549141D01*
X94867625Y-111528766D01*
X94850298Y-111511439D01*
X94829924Y-111497826D01*
X94807285Y-111488448D01*
X94783252Y-111483668D01*
X94758748Y-111483668D01*
X94734715Y-111488448D01*
X94712076Y-111497826D01*
X94691701Y-111511440D01*
X94674374Y-111528767D01*
X94660761Y-111549141D01*
X94617244Y-111630557D01*
X94545264Y-111718264D01*
X94457557Y-111790244D01*
X94393601Y-111824429D01*
X94357495Y-111843728D01*
X94357492Y-111843729D01*
X94248916Y-111876666D01*
X94136000Y-111887787D01*
X94023085Y-111876666D01*
X93914509Y-111843729D01*
X93914506Y-111843728D01*
X93878400Y-111824429D01*
X93814444Y-111790244D01*
X93726737Y-111718264D01*
X93663622Y-111641359D01*
X93646297Y-111624034D01*
X93625923Y-111610420D01*
X93603284Y-111601043D01*
X93579250Y-111596263D01*
X93554746Y-111596263D01*
X93530713Y-111601044D01*
X93508074Y-111610421D01*
X93487700Y-111624035D01*
X93470373Y-111641362D01*
X93456759Y-111661736D01*
X93447382Y-111684375D01*
X93442000Y-111720660D01*
X93442000Y-111885000D01*
X92290000Y-111885000D01*
X92290000Y-110283000D01*
X93442000Y-110283000D01*
X93442000Y-110447341D01*
X93444402Y-110471727D01*
X93451515Y-110495176D01*
X93463066Y-110516787D01*
X93478611Y-110535729D01*
X93497553Y-110551274D01*
X93519164Y-110562825D01*
X93542613Y-110569938D01*
X93566999Y-110572340D01*
X93591385Y-110569938D01*
X93614834Y-110562825D01*
X93636445Y-110551274D01*
X93655387Y-110535729D01*
X93663608Y-110526657D01*
X93726736Y-110449736D01*
X93814443Y-110377756D01*
X93878399Y-110343571D01*
X93914505Y-110324272D01*
X93914508Y-110324271D01*
X94023084Y-110291334D01*
X94136000Y-110280213D01*
X94248915Y-110291334D01*
X94357491Y-110324271D01*
X94357494Y-110324272D01*
X94393600Y-110343571D01*
X94457556Y-110377756D01*
X94545264Y-110449736D01*
X94617244Y-110537443D01*
X94660761Y-110618859D01*
X94674375Y-110639234D01*
X94691702Y-110656561D01*
X94712076Y-110670174D01*
X94734715Y-110679552D01*
X94758748Y-110684332D01*
X94783252Y-110684332D01*
X94807285Y-110679552D01*
X94829924Y-110670174D01*
X94850299Y-110656560D01*
X94867626Y-110639233D01*
X94881239Y-110618860D01*
X94924756Y-110537444D01*
X94996736Y-110449736D01*
X95084443Y-110377756D01*
X95148399Y-110343571D01*
X95184505Y-110324272D01*
X95184508Y-110324271D01*
X95293084Y-110291334D01*
X95406000Y-110280213D01*
X95518915Y-110291334D01*
G37*
G36*
X166929512Y-109647927D02*
G01*
X167078812Y-109677624D01*
X167242784Y-109745544D01*
X167390354Y-109844147D01*
X167515853Y-109969646D01*
X167614456Y-110117216D01*
X167682376Y-110281188D01*
X167701584Y-110377756D01*
X167717000Y-110455258D01*
X167717000Y-110632742D01*
X167712262Y-110656560D01*
X167682376Y-110806812D01*
X167614456Y-110970784D01*
X167515853Y-111118354D01*
X167390354Y-111243853D01*
X167242784Y-111342456D01*
X167078812Y-111410376D01*
X166929512Y-111440073D01*
X166904742Y-111445000D01*
X166727258Y-111445000D01*
X166702488Y-111440073D01*
X166553188Y-111410376D01*
X166389216Y-111342456D01*
X166241646Y-111243853D01*
X166116147Y-111118354D01*
X166017544Y-110970784D01*
X165949624Y-110806812D01*
X165919738Y-110656560D01*
X165915000Y-110632742D01*
X165915000Y-110455258D01*
X165930416Y-110377756D01*
X165949624Y-110281188D01*
X166017544Y-110117216D01*
X166116147Y-109969646D01*
X166241646Y-109844147D01*
X166389216Y-109745544D01*
X166553188Y-109677624D01*
X166702488Y-109647927D01*
X166727258Y-109643000D01*
X166904742Y-109643000D01*
X166929512Y-109647927D01*
G37*
G36*
X177089512Y-109647927D02*
G01*
X177238812Y-109677624D01*
X177402784Y-109745544D01*
X177550354Y-109844147D01*
X177675853Y-109969646D01*
X177774456Y-110117216D01*
X177842376Y-110281188D01*
X177861584Y-110377756D01*
X177877000Y-110455258D01*
X177877000Y-110632742D01*
X177872262Y-110656560D01*
X177842376Y-110806812D01*
X177774456Y-110970784D01*
X177675853Y-111118354D01*
X177550354Y-111243853D01*
X177402784Y-111342456D01*
X177238812Y-111410376D01*
X177089512Y-111440073D01*
X177064742Y-111445000D01*
X176887258Y-111445000D01*
X176862488Y-111440073D01*
X176713188Y-111410376D01*
X176549216Y-111342456D01*
X176401646Y-111243853D01*
X176276147Y-111118354D01*
X176177544Y-110970784D01*
X176109624Y-110806812D01*
X176079738Y-110656560D01*
X176075000Y-110632742D01*
X176075000Y-110455258D01*
X176090416Y-110377756D01*
X176109624Y-110281188D01*
X176177544Y-110117216D01*
X176276147Y-109969646D01*
X176401646Y-109844147D01*
X176549216Y-109745544D01*
X176713188Y-109677624D01*
X176862488Y-109647927D01*
X176887258Y-109643000D01*
X177064742Y-109643000D01*
X177089512Y-109647927D01*
G37*
G36*
X174549512Y-109647927D02*
G01*
X174698812Y-109677624D01*
X174862784Y-109745544D01*
X175010354Y-109844147D01*
X175135853Y-109969646D01*
X175234456Y-110117216D01*
X175302376Y-110281188D01*
X175321584Y-110377756D01*
X175337000Y-110455258D01*
X175337000Y-110632742D01*
X175332262Y-110656560D01*
X175302376Y-110806812D01*
X175234456Y-110970784D01*
X175135853Y-111118354D01*
X175010354Y-111243853D01*
X174862784Y-111342456D01*
X174698812Y-111410376D01*
X174549512Y-111440073D01*
X174524742Y-111445000D01*
X174347258Y-111445000D01*
X174322488Y-111440073D01*
X174173188Y-111410376D01*
X174009216Y-111342456D01*
X173861646Y-111243853D01*
X173736147Y-111118354D01*
X173637544Y-110970784D01*
X173569624Y-110806812D01*
X173539738Y-110656560D01*
X173535000Y-110632742D01*
X173535000Y-110455258D01*
X173550416Y-110377756D01*
X173569624Y-110281188D01*
X173637544Y-110117216D01*
X173736147Y-109969646D01*
X173861646Y-109844147D01*
X174009216Y-109745544D01*
X174173188Y-109677624D01*
X174322488Y-109647927D01*
X174347258Y-109643000D01*
X174524742Y-109643000D01*
X174549512Y-109647927D01*
G37*
G36*
X169469512Y-109647927D02*
G01*
X169618812Y-109677624D01*
X169782784Y-109745544D01*
X169930354Y-109844147D01*
X170055853Y-109969646D01*
X170154456Y-110117216D01*
X170222376Y-110281188D01*
X170241584Y-110377756D01*
X170257000Y-110455258D01*
X170257000Y-110632742D01*
X170252262Y-110656560D01*
X170222376Y-110806812D01*
X170154456Y-110970784D01*
X170055853Y-111118354D01*
X169930354Y-111243853D01*
X169782784Y-111342456D01*
X169618812Y-111410376D01*
X169469512Y-111440073D01*
X169444742Y-111445000D01*
X169267258Y-111445000D01*
X169242488Y-111440073D01*
X169093188Y-111410376D01*
X168929216Y-111342456D01*
X168781646Y-111243853D01*
X168656147Y-111118354D01*
X168557544Y-110970784D01*
X168489624Y-110806812D01*
X168459738Y-110656560D01*
X168455000Y-110632742D01*
X168455000Y-110455258D01*
X168470416Y-110377756D01*
X168489624Y-110281188D01*
X168557544Y-110117216D01*
X168656147Y-109969646D01*
X168781646Y-109844147D01*
X168929216Y-109745544D01*
X169093188Y-109677624D01*
X169242488Y-109647927D01*
X169267258Y-109643000D01*
X169444742Y-109643000D01*
X169469512Y-109647927D01*
G37*
G36*
X179629512Y-109647927D02*
G01*
X179778812Y-109677624D01*
X179942784Y-109745544D01*
X180090354Y-109844147D01*
X180215853Y-109969646D01*
X180314456Y-110117216D01*
X180382376Y-110281188D01*
X180401584Y-110377756D01*
X180417000Y-110455258D01*
X180417000Y-110632742D01*
X180412262Y-110656560D01*
X180382376Y-110806812D01*
X180314456Y-110970784D01*
X180215853Y-111118354D01*
X180090354Y-111243853D01*
X179942784Y-111342456D01*
X179778812Y-111410376D01*
X179629512Y-111440073D01*
X179604742Y-111445000D01*
X179427258Y-111445000D01*
X179402488Y-111440073D01*
X179253188Y-111410376D01*
X179089216Y-111342456D01*
X178941646Y-111243853D01*
X178816147Y-111118354D01*
X178717544Y-110970784D01*
X178649624Y-110806812D01*
X178619738Y-110656560D01*
X178615000Y-110632742D01*
X178615000Y-110455258D01*
X178630416Y-110377756D01*
X178649624Y-110281188D01*
X178717544Y-110117216D01*
X178816147Y-109969646D01*
X178941646Y-109844147D01*
X179089216Y-109745544D01*
X179253188Y-109677624D01*
X179402488Y-109647927D01*
X179427258Y-109643000D01*
X179604742Y-109643000D01*
X179629512Y-109647927D01*
G37*
G36*
X172009512Y-109647927D02*
G01*
X172158812Y-109677624D01*
X172322784Y-109745544D01*
X172470354Y-109844147D01*
X172595853Y-109969646D01*
X172694456Y-110117216D01*
X172762376Y-110281188D01*
X172781584Y-110377756D01*
X172797000Y-110455258D01*
X172797000Y-110632742D01*
X172792262Y-110656560D01*
X172762376Y-110806812D01*
X172694456Y-110970784D01*
X172595853Y-111118354D01*
X172470354Y-111243853D01*
X172322784Y-111342456D01*
X172158812Y-111410376D01*
X172009512Y-111440073D01*
X171984742Y-111445000D01*
X171807258Y-111445000D01*
X171782488Y-111440073D01*
X171633188Y-111410376D01*
X171469216Y-111342456D01*
X171321646Y-111243853D01*
X171196147Y-111118354D01*
X171097544Y-110970784D01*
X171029624Y-110806812D01*
X170999738Y-110656560D01*
X170995000Y-110632742D01*
X170995000Y-110455258D01*
X171010416Y-110377756D01*
X171029624Y-110281188D01*
X171097544Y-110117216D01*
X171196147Y-109969646D01*
X171321646Y-109844147D01*
X171469216Y-109745544D01*
X171633188Y-109677624D01*
X171782488Y-109647927D01*
X171807258Y-109643000D01*
X171984742Y-109643000D01*
X172009512Y-109647927D01*
G37*
G36*
X54079512Y-108752927D02*
G01*
X54228812Y-108782624D01*
X54392784Y-108850544D01*
X54540354Y-108949147D01*
X54665853Y-109074646D01*
X54764456Y-109222216D01*
X54832376Y-109386188D01*
X54867000Y-109560259D01*
X54867000Y-109737741D01*
X54832376Y-109911812D01*
X54764456Y-110075784D01*
X54665853Y-110223354D01*
X54540354Y-110348853D01*
X54392784Y-110447456D01*
X54228812Y-110515376D01*
X54079512Y-110545073D01*
X54054742Y-110550000D01*
X53877258Y-110550000D01*
X53852488Y-110545073D01*
X53703188Y-110515376D01*
X53539216Y-110447456D01*
X53391646Y-110348853D01*
X53266147Y-110223354D01*
X53167544Y-110075784D01*
X53099624Y-109911812D01*
X53065000Y-109737741D01*
X53065000Y-109560259D01*
X53099624Y-109386188D01*
X53167544Y-109222216D01*
X53266147Y-109074646D01*
X53391646Y-108949147D01*
X53539216Y-108850544D01*
X53703188Y-108782624D01*
X53852488Y-108752927D01*
X53877258Y-108748000D01*
X54054742Y-108748000D01*
X54079512Y-108752927D01*
G37*
G36*
X56619512Y-108752927D02*
G01*
X56768812Y-108782624D01*
X56932784Y-108850544D01*
X57080354Y-108949147D01*
X57205853Y-109074646D01*
X57304456Y-109222216D01*
X57372376Y-109386188D01*
X57407000Y-109560259D01*
X57407000Y-109737741D01*
X57372376Y-109911812D01*
X57304456Y-110075784D01*
X57205853Y-110223354D01*
X57080354Y-110348853D01*
X56932784Y-110447456D01*
X56768812Y-110515376D01*
X56619512Y-110545073D01*
X56594742Y-110550000D01*
X56417258Y-110550000D01*
X56392488Y-110545073D01*
X56243188Y-110515376D01*
X56079216Y-110447456D01*
X55931646Y-110348853D01*
X55806147Y-110223354D01*
X55707544Y-110075784D01*
X55639624Y-109911812D01*
X55605000Y-109737741D01*
X55605000Y-109560259D01*
X55639624Y-109386188D01*
X55707544Y-109222216D01*
X55806147Y-109074646D01*
X55931646Y-108949147D01*
X56079216Y-108850544D01*
X56243188Y-108782624D01*
X56392488Y-108752927D01*
X56417258Y-108748000D01*
X56594742Y-108748000D01*
X56619512Y-108752927D01*
G37*
G36*
X127778228Y-107965703D02*
G01*
X127933100Y-108029853D01*
X128072481Y-108122985D01*
X128191015Y-108241519D01*
X128284147Y-108380900D01*
X128348297Y-108535772D01*
X128381000Y-108700184D01*
X128381000Y-108867816D01*
X128348297Y-109032228D01*
X128284147Y-109187100D01*
X128191015Y-109326481D01*
X128072481Y-109445015D01*
X127933100Y-109538147D01*
X127778228Y-109602297D01*
X127613816Y-109635000D01*
X127446184Y-109635000D01*
X127281772Y-109602297D01*
X127126900Y-109538147D01*
X126987519Y-109445015D01*
X126868985Y-109326481D01*
X126775853Y-109187100D01*
X126711703Y-109032228D01*
X126679000Y-108867816D01*
X126679000Y-108700184D01*
X126711703Y-108535772D01*
X126775853Y-108380900D01*
X126868985Y-108241519D01*
X126987519Y-108122985D01*
X127126900Y-108029853D01*
X127281772Y-107965703D01*
X127446184Y-107933000D01*
X127613816Y-107933000D01*
X127778228Y-107965703D01*
G37*
G36*
X133730228Y-107965703D02*
G01*
X133885100Y-108029853D01*
X134024481Y-108122985D01*
X134143015Y-108241519D01*
X134236147Y-108380900D01*
X134300297Y-108535772D01*
X134333000Y-108700184D01*
X134333000Y-108867816D01*
X134300297Y-109032228D01*
X134236147Y-109187100D01*
X134143015Y-109326481D01*
X134024481Y-109445015D01*
X133885100Y-109538147D01*
X133730228Y-109602297D01*
X133565816Y-109635000D01*
X133398184Y-109635000D01*
X133233772Y-109602297D01*
X133078900Y-109538147D01*
X132939519Y-109445015D01*
X132820985Y-109326481D01*
X132727853Y-109187100D01*
X132663703Y-109032228D01*
X132631000Y-108867816D01*
X132631000Y-108700184D01*
X132663703Y-108535772D01*
X132727853Y-108380900D01*
X132820985Y-108241519D01*
X132939519Y-108122985D01*
X133078900Y-108029853D01*
X133233772Y-107965703D01*
X133398184Y-107933000D01*
X133565816Y-107933000D01*
X133730228Y-107965703D01*
G37*
G36*
X56619512Y-106212927D02*
G01*
X56768812Y-106242624D01*
X56932784Y-106310544D01*
X57080354Y-106409147D01*
X57205853Y-106534646D01*
X57304456Y-106682216D01*
X57372376Y-106846188D01*
X57407000Y-107020259D01*
X57407000Y-107197741D01*
X57372376Y-107371812D01*
X57304456Y-107535784D01*
X57205853Y-107683354D01*
X57080354Y-107808853D01*
X56932784Y-107907456D01*
X56768812Y-107975376D01*
X56619512Y-108005073D01*
X56594742Y-108010000D01*
X56417258Y-108010000D01*
X56392488Y-108005073D01*
X56243188Y-107975376D01*
X56079216Y-107907456D01*
X55931646Y-107808853D01*
X55806147Y-107683354D01*
X55707544Y-107535784D01*
X55639624Y-107371812D01*
X55605000Y-107197741D01*
X55605000Y-107020259D01*
X55639624Y-106846188D01*
X55707544Y-106682216D01*
X55806147Y-106534646D01*
X55931646Y-106409147D01*
X56079216Y-106310544D01*
X56243188Y-106242624D01*
X56392488Y-106212927D01*
X56417258Y-106208000D01*
X56594742Y-106208000D01*
X56619512Y-106212927D01*
G37*
G36*
X54867000Y-108010000D02*
G01*
X53065000Y-108010000D01*
X53065000Y-106208000D01*
X54867000Y-106208000D01*
X54867000Y-108010000D01*
G37*
G36*
X179964228Y-106065703D02*
G01*
X180119100Y-106129853D01*
X180258481Y-106222985D01*
X180377015Y-106341519D01*
X180470147Y-106480900D01*
X180534297Y-106635772D01*
X180567000Y-106800184D01*
X180567000Y-106967816D01*
X180534297Y-107132228D01*
X180470147Y-107287100D01*
X180377015Y-107426481D01*
X180258481Y-107545015D01*
X180119100Y-107638147D01*
X179964228Y-107702297D01*
X179799816Y-107735000D01*
X179632184Y-107735000D01*
X179467772Y-107702297D01*
X179312900Y-107638147D01*
X179173519Y-107545015D01*
X179054985Y-107426481D01*
X178961853Y-107287100D01*
X178897703Y-107132228D01*
X178865000Y-106967816D01*
X178865000Y-106800184D01*
X178897703Y-106635772D01*
X178961853Y-106480900D01*
X179054985Y-106341519D01*
X179173519Y-106222985D01*
X179312900Y-106129853D01*
X179467772Y-106065703D01*
X179632184Y-106033000D01*
X179799816Y-106033000D01*
X179964228Y-106065703D01*
G37*
G36*
X153064228Y-106065703D02*
G01*
X153219100Y-106129853D01*
X153358481Y-106222985D01*
X153477015Y-106341519D01*
X153570147Y-106480900D01*
X153634297Y-106635772D01*
X153667000Y-106800184D01*
X153667000Y-106967816D01*
X153634297Y-107132228D01*
X153570147Y-107287100D01*
X153477015Y-107426481D01*
X153358481Y-107545015D01*
X153219100Y-107638147D01*
X153064228Y-107702297D01*
X152899816Y-107735000D01*
X152732184Y-107735000D01*
X152567772Y-107702297D01*
X152412900Y-107638147D01*
X152273519Y-107545015D01*
X152154985Y-107426481D01*
X152061853Y-107287100D01*
X151997703Y-107132228D01*
X151965000Y-106967816D01*
X151965000Y-106800184D01*
X151997703Y-106635772D01*
X152061853Y-106480900D01*
X152154985Y-106341519D01*
X152273519Y-106222985D01*
X152412900Y-106129853D01*
X152567772Y-106065703D01*
X152732184Y-106033000D01*
X152899816Y-106033000D01*
X153064228Y-106065703D01*
G37*
G36*
X166214228Y-106015703D02*
G01*
X166369100Y-106079853D01*
X166508481Y-106172985D01*
X166627015Y-106291519D01*
X166720147Y-106430900D01*
X166784297Y-106585772D01*
X166817000Y-106750184D01*
X166817000Y-106917816D01*
X166784297Y-107082228D01*
X166720147Y-107237100D01*
X166627015Y-107376481D01*
X166508481Y-107495015D01*
X166369100Y-107588147D01*
X166214228Y-107652297D01*
X166049816Y-107685000D01*
X165882184Y-107685000D01*
X165717772Y-107652297D01*
X165562900Y-107588147D01*
X165423519Y-107495015D01*
X165304985Y-107376481D01*
X165211853Y-107237100D01*
X165147703Y-107082228D01*
X165115000Y-106917816D01*
X165115000Y-106750184D01*
X165147703Y-106585772D01*
X165211853Y-106430900D01*
X165304985Y-106291519D01*
X165423519Y-106172985D01*
X165562900Y-106079853D01*
X165717772Y-106015703D01*
X165882184Y-105983000D01*
X166049816Y-105983000D01*
X166214228Y-106015703D01*
G37*
G36*
X175414228Y-103365703D02*
G01*
X175569100Y-103429853D01*
X175708481Y-103522985D01*
X175827015Y-103641519D01*
X175920147Y-103780900D01*
X175984297Y-103935772D01*
X176017000Y-104100184D01*
X176017000Y-104267816D01*
X175984297Y-104432228D01*
X175920147Y-104587100D01*
X175827015Y-104726481D01*
X175708481Y-104845015D01*
X175569100Y-104938147D01*
X175414228Y-105002297D01*
X175249816Y-105035000D01*
X175082184Y-105035000D01*
X174917772Y-105002297D01*
X174762900Y-104938147D01*
X174623519Y-104845015D01*
X174504985Y-104726481D01*
X174411853Y-104587100D01*
X174347703Y-104432228D01*
X174315000Y-104267816D01*
X174315000Y-104100184D01*
X174347703Y-103935772D01*
X174411853Y-103780900D01*
X174504985Y-103641519D01*
X174623519Y-103522985D01*
X174762900Y-103429853D01*
X174917772Y-103365703D01*
X175082184Y-103333000D01*
X175249816Y-103333000D01*
X175414228Y-103365703D01*
G37*
G36*
X170414228Y-103365703D02*
G01*
X170569100Y-103429853D01*
X170708481Y-103522985D01*
X170827015Y-103641519D01*
X170920147Y-103780900D01*
X170984297Y-103935772D01*
X171017000Y-104100184D01*
X171017000Y-104267816D01*
X170984297Y-104432228D01*
X170920147Y-104587100D01*
X170827015Y-104726481D01*
X170708481Y-104845015D01*
X170569100Y-104938147D01*
X170414228Y-105002297D01*
X170249816Y-105035000D01*
X170082184Y-105035000D01*
X169917772Y-105002297D01*
X169762900Y-104938147D01*
X169623519Y-104845015D01*
X169504985Y-104726481D01*
X169411853Y-104587100D01*
X169347703Y-104432228D01*
X169315000Y-104267816D01*
X169315000Y-104100184D01*
X169347703Y-103935772D01*
X169411853Y-103780900D01*
X169504985Y-103641519D01*
X169623519Y-103522985D01*
X169762900Y-103429853D01*
X169917772Y-103365703D01*
X170082184Y-103333000D01*
X170249816Y-103333000D01*
X170414228Y-103365703D01*
G37*
G36*
X184864228Y-103315703D02*
G01*
X185019100Y-103379853D01*
X185158481Y-103472985D01*
X185277015Y-103591519D01*
X185370147Y-103730900D01*
X185434297Y-103885772D01*
X185467000Y-104050184D01*
X185467000Y-104217816D01*
X185434297Y-104382228D01*
X185370147Y-104537100D01*
X185277015Y-104676481D01*
X185158481Y-104795015D01*
X185019100Y-104888147D01*
X184864228Y-104952297D01*
X184699816Y-104985000D01*
X184532184Y-104985000D01*
X184367772Y-104952297D01*
X184212900Y-104888147D01*
X184073519Y-104795015D01*
X183954985Y-104676481D01*
X183861853Y-104537100D01*
X183797703Y-104382228D01*
X183765000Y-104217816D01*
X183765000Y-104050184D01*
X183797703Y-103885772D01*
X183861853Y-103730900D01*
X183954985Y-103591519D01*
X184073519Y-103472985D01*
X184212900Y-103379853D01*
X184367772Y-103315703D01*
X184532184Y-103283000D01*
X184699816Y-103283000D01*
X184864228Y-103315703D01*
G37*
G36*
X189864228Y-103315703D02*
G01*
X190019100Y-103379853D01*
X190158481Y-103472985D01*
X190277015Y-103591519D01*
X190370147Y-103730900D01*
X190434297Y-103885772D01*
X190467000Y-104050184D01*
X190467000Y-104217816D01*
X190434297Y-104382228D01*
X190370147Y-104537100D01*
X190277015Y-104676481D01*
X190158481Y-104795015D01*
X190019100Y-104888147D01*
X189864228Y-104952297D01*
X189699816Y-104985000D01*
X189532184Y-104985000D01*
X189367772Y-104952297D01*
X189212900Y-104888147D01*
X189073519Y-104795015D01*
X188954985Y-104676481D01*
X188861853Y-104537100D01*
X188797703Y-104382228D01*
X188765000Y-104217816D01*
X188765000Y-104050184D01*
X188797703Y-103885772D01*
X188861853Y-103730900D01*
X188954985Y-103591519D01*
X189073519Y-103472985D01*
X189212900Y-103379853D01*
X189367772Y-103315703D01*
X189532184Y-103283000D01*
X189699816Y-103283000D01*
X189864228Y-103315703D01*
G37*
G36*
X162314228Y-103265703D02*
G01*
X162469100Y-103329853D01*
X162608481Y-103422985D01*
X162727015Y-103541519D01*
X162820147Y-103680900D01*
X162884297Y-103835772D01*
X162917000Y-104000184D01*
X162917000Y-104167816D01*
X162884297Y-104332228D01*
X162820147Y-104487100D01*
X162727015Y-104626481D01*
X162608481Y-104745015D01*
X162469100Y-104838147D01*
X162314228Y-104902297D01*
X162149816Y-104935000D01*
X161982184Y-104935000D01*
X161817772Y-104902297D01*
X161662900Y-104838147D01*
X161523519Y-104745015D01*
X161404985Y-104626481D01*
X161311853Y-104487100D01*
X161247703Y-104332228D01*
X161215000Y-104167816D01*
X161215000Y-104000184D01*
X161247703Y-103835772D01*
X161311853Y-103680900D01*
X161404985Y-103541519D01*
X161523519Y-103422985D01*
X161662900Y-103329853D01*
X161817772Y-103265703D01*
X161982184Y-103233000D01*
X162149816Y-103233000D01*
X162314228Y-103265703D01*
G37*
G36*
X157314228Y-103265703D02*
G01*
X157469100Y-103329853D01*
X157608481Y-103422985D01*
X157727015Y-103541519D01*
X157820147Y-103680900D01*
X157884297Y-103835772D01*
X157917000Y-104000184D01*
X157917000Y-104167816D01*
X157884297Y-104332228D01*
X157820147Y-104487100D01*
X157727015Y-104626481D01*
X157608481Y-104745015D01*
X157469100Y-104838147D01*
X157314228Y-104902297D01*
X157149816Y-104935000D01*
X156982184Y-104935000D01*
X156817772Y-104902297D01*
X156662900Y-104838147D01*
X156523519Y-104745015D01*
X156404985Y-104626481D01*
X156311853Y-104487100D01*
X156247703Y-104332228D01*
X156215000Y-104167816D01*
X156215000Y-104000184D01*
X156247703Y-103835772D01*
X156311853Y-103680900D01*
X156404985Y-103541519D01*
X156523519Y-103422985D01*
X156662900Y-103329853D01*
X156817772Y-103265703D01*
X156982184Y-103233000D01*
X157149816Y-103233000D01*
X157314228Y-103265703D01*
G37*
G36*
X57417000Y-104460000D02*
G01*
X55615000Y-104460000D01*
X55615000Y-102658000D01*
X57417000Y-102658000D01*
X57417000Y-104460000D01*
G37*
G36*
X54089512Y-102662927D02*
G01*
X54238812Y-102692624D01*
X54402784Y-102760544D01*
X54550354Y-102859147D01*
X54675853Y-102984646D01*
X54774456Y-103132216D01*
X54842376Y-103296188D01*
X54877000Y-103470259D01*
X54877000Y-103647741D01*
X54842376Y-103821812D01*
X54774456Y-103985784D01*
X54675853Y-104133354D01*
X54550354Y-104258853D01*
X54402784Y-104357456D01*
X54238812Y-104425376D01*
X54089512Y-104455073D01*
X54064742Y-104460000D01*
X53887258Y-104460000D01*
X53862488Y-104455073D01*
X53713188Y-104425376D01*
X53549216Y-104357456D01*
X53401646Y-104258853D01*
X53276147Y-104133354D01*
X53177544Y-103985784D01*
X53109624Y-103821812D01*
X53075000Y-103647741D01*
X53075000Y-103470259D01*
X53109624Y-103296188D01*
X53177544Y-103132216D01*
X53276147Y-102984646D01*
X53401646Y-102859147D01*
X53549216Y-102760544D01*
X53713188Y-102692624D01*
X53862488Y-102662927D01*
X53887258Y-102658000D01*
X54064742Y-102658000D01*
X54089512Y-102662927D01*
G37*
G36*
X179964228Y-101065703D02*
G01*
X180119100Y-101129853D01*
X180258481Y-101222985D01*
X180377015Y-101341519D01*
X180470147Y-101480900D01*
X180534297Y-101635772D01*
X180567000Y-101800184D01*
X180567000Y-101967816D01*
X180534297Y-102132228D01*
X180470147Y-102287100D01*
X180377015Y-102426481D01*
X180258481Y-102545015D01*
X180119100Y-102638147D01*
X179964228Y-102702297D01*
X179799816Y-102735000D01*
X179632184Y-102735000D01*
X179467772Y-102702297D01*
X179312900Y-102638147D01*
X179173519Y-102545015D01*
X179054985Y-102426481D01*
X178961853Y-102287100D01*
X178897703Y-102132228D01*
X178865000Y-101967816D01*
X178865000Y-101800184D01*
X178897703Y-101635772D01*
X178961853Y-101480900D01*
X179054985Y-101341519D01*
X179173519Y-101222985D01*
X179312900Y-101129853D01*
X179467772Y-101065703D01*
X179632184Y-101033000D01*
X179799816Y-101033000D01*
X179964228Y-101065703D01*
G37*
G36*
X153064228Y-101065703D02*
G01*
X153219100Y-101129853D01*
X153358481Y-101222985D01*
X153477015Y-101341519D01*
X153570147Y-101480900D01*
X153634297Y-101635772D01*
X153667000Y-101800184D01*
X153667000Y-101967816D01*
X153634297Y-102132228D01*
X153570147Y-102287100D01*
X153477015Y-102426481D01*
X153358481Y-102545015D01*
X153219100Y-102638147D01*
X153064228Y-102702297D01*
X152899816Y-102735000D01*
X152732184Y-102735000D01*
X152567772Y-102702297D01*
X152412900Y-102638147D01*
X152273519Y-102545015D01*
X152154985Y-102426481D01*
X152061853Y-102287100D01*
X151997703Y-102132228D01*
X151965000Y-101967816D01*
X151965000Y-101800184D01*
X151997703Y-101635772D01*
X152061853Y-101480900D01*
X152154985Y-101341519D01*
X152273519Y-101222985D01*
X152412900Y-101129853D01*
X152567772Y-101065703D01*
X152732184Y-101033000D01*
X152899816Y-101033000D01*
X153064228Y-101065703D01*
G37*
G36*
X166214228Y-101015703D02*
G01*
X166369100Y-101079853D01*
X166508481Y-101172985D01*
X166627015Y-101291519D01*
X166720147Y-101430900D01*
X166784297Y-101585772D01*
X166817000Y-101750184D01*
X166817000Y-101917816D01*
X166784297Y-102082228D01*
X166720147Y-102237100D01*
X166627015Y-102376481D01*
X166508481Y-102495015D01*
X166369100Y-102588147D01*
X166214228Y-102652297D01*
X166049816Y-102685000D01*
X165882184Y-102685000D01*
X165717772Y-102652297D01*
X165562900Y-102588147D01*
X165423519Y-102495015D01*
X165304985Y-102376481D01*
X165211853Y-102237100D01*
X165147703Y-102082228D01*
X165115000Y-101917816D01*
X165115000Y-101750184D01*
X165147703Y-101585772D01*
X165211853Y-101430900D01*
X165304985Y-101291519D01*
X165423519Y-101172985D01*
X165562900Y-101079853D01*
X165717772Y-101015703D01*
X165882184Y-100983000D01*
X166049816Y-100983000D01*
X166214228Y-101015703D01*
G37*
G36*
X127752257Y-99675377D02*
G01*
X127780903Y-99681075D01*
X128008571Y-99775378D01*
X128213466Y-99912285D01*
X128387715Y-100086534D01*
X128387716Y-100086536D01*
X128524623Y-100291431D01*
X128618925Y-100519097D01*
X128667000Y-100760786D01*
X128667000Y-101007214D01*
X128618925Y-101248903D01*
X128601273Y-101291520D01*
X128524622Y-101476571D01*
X128387715Y-101681466D01*
X128213466Y-101855715D01*
X128008571Y-101992622D01*
X128008570Y-101992623D01*
X128008569Y-101992623D01*
X127780903Y-102086925D01*
X127539214Y-102135000D01*
X127292786Y-102135000D01*
X127051097Y-102086925D01*
X126823431Y-101992623D01*
X126823430Y-101992623D01*
X126823429Y-101992622D01*
X126618534Y-101855715D01*
X126444285Y-101681466D01*
X126307378Y-101476571D01*
X126230728Y-101291520D01*
X126213075Y-101248903D01*
X126165000Y-101007214D01*
X126165000Y-100760786D01*
X126213075Y-100519097D01*
X126307377Y-100291431D01*
X126444284Y-100086536D01*
X126444285Y-100086534D01*
X126618534Y-99912285D01*
X126823429Y-99775378D01*
X127051097Y-99681075D01*
X127079743Y-99675377D01*
X127292786Y-99633000D01*
X127539214Y-99633000D01*
X127752257Y-99675377D01*
G37*
G36*
X114130903Y-99581075D02*
G01*
X114358571Y-99675378D01*
X114563466Y-99812285D01*
X114737715Y-99986534D01*
X114737716Y-99986536D01*
X114874623Y-100191431D01*
X114968925Y-100419097D01*
X115017000Y-100660786D01*
X115017000Y-100907214D01*
X114985474Y-101065705D01*
X114968925Y-101148903D01*
X114874622Y-101376571D01*
X114737715Y-101581466D01*
X114563466Y-101755715D01*
X114358571Y-101892622D01*
X114358570Y-101892623D01*
X114358569Y-101892623D01*
X114130903Y-101986925D01*
X113889214Y-102035000D01*
X113642786Y-102035000D01*
X113401097Y-101986925D01*
X113173431Y-101892623D01*
X113173430Y-101892623D01*
X113173429Y-101892622D01*
X112968534Y-101755715D01*
X112794285Y-101581466D01*
X112657378Y-101376571D01*
X112563075Y-101148903D01*
X112546526Y-101065705D01*
X112515000Y-100907214D01*
X112515000Y-100660786D01*
X112563075Y-100419097D01*
X112657377Y-100191431D01*
X112794284Y-99986536D01*
X112794285Y-99986534D01*
X112968534Y-99812285D01*
X113173429Y-99675378D01*
X113401097Y-99581075D01*
X113642786Y-99533000D01*
X113889214Y-99533000D01*
X114130903Y-99581075D01*
G37*
G36*
X189832865Y-91205855D02*
G01*
X190433608Y-91454691D01*
X190433610Y-91454692D01*
X190974265Y-91815946D01*
X191434054Y-92275735D01*
X191640698Y-92585000D01*
X191795309Y-92816392D01*
X192044145Y-93417135D01*
X192171000Y-94054879D01*
X192171000Y-94705121D01*
X192044145Y-95342865D01*
X191826782Y-95867625D01*
X191795308Y-95943610D01*
X191434054Y-96484265D01*
X190974265Y-96944054D01*
X190433610Y-97305308D01*
X190433609Y-97305309D01*
X190433608Y-97305309D01*
X189832865Y-97554145D01*
X189195121Y-97681000D01*
X188544879Y-97681000D01*
X187907135Y-97554145D01*
X187306392Y-97305309D01*
X187306391Y-97305309D01*
X187306390Y-97305308D01*
X186765735Y-96944054D01*
X186305946Y-96484265D01*
X185944692Y-95943610D01*
X185913218Y-95867625D01*
X185695855Y-95342865D01*
X185569000Y-94705121D01*
X185569000Y-94054879D01*
X185695855Y-93417135D01*
X185944691Y-92816392D01*
X186099302Y-92585000D01*
X186305946Y-92275735D01*
X186765735Y-91815946D01*
X187306390Y-91454692D01*
X187306392Y-91454691D01*
X187907135Y-91205855D01*
X188544879Y-91079000D01*
X189195121Y-91079000D01*
X189832865Y-91205855D01*
G37*
G36*
X142592865Y-91205855D02*
G01*
X143193608Y-91454691D01*
X143193610Y-91454692D01*
X143734265Y-91815946D01*
X144194054Y-92275735D01*
X144400698Y-92585000D01*
X144555309Y-92816392D01*
X144804145Y-93417135D01*
X144931000Y-94054879D01*
X144931000Y-94705121D01*
X144804145Y-95342865D01*
X144586782Y-95867625D01*
X144555308Y-95943610D01*
X144194054Y-96484265D01*
X143734265Y-96944054D01*
X143193610Y-97305308D01*
X143193609Y-97305309D01*
X143193608Y-97305309D01*
X142592865Y-97554145D01*
X141955121Y-97681000D01*
X141304879Y-97681000D01*
X140667135Y-97554145D01*
X140066392Y-97305309D01*
X140066391Y-97305309D01*
X140066390Y-97305308D01*
X139525735Y-96944054D01*
X139065946Y-96484265D01*
X138704692Y-95943610D01*
X138673218Y-95867625D01*
X138455855Y-95342865D01*
X138329000Y-94705121D01*
X138329000Y-94054879D01*
X138455855Y-93417135D01*
X138704691Y-92816392D01*
X138859302Y-92585000D01*
X139065946Y-92275735D01*
X139525735Y-91815946D01*
X140066390Y-91454692D01*
X140066392Y-91454691D01*
X140667135Y-91205855D01*
X141304879Y-91079000D01*
X141955121Y-91079000D01*
X142592865Y-91205855D01*
G37*
G36*
X54867000Y-97635000D02*
G01*
X53065000Y-97635000D01*
X53065000Y-95833000D01*
X54867000Y-95833000D01*
X54867000Y-97635000D01*
G37*
G36*
X56619512Y-95837927D02*
G01*
X56768812Y-95867624D01*
X56932784Y-95935544D01*
X57080354Y-96034147D01*
X57205853Y-96159646D01*
X57304456Y-96307216D01*
X57372376Y-96471188D01*
X57407000Y-96645259D01*
X57407000Y-96822741D01*
X57372376Y-96996812D01*
X57304456Y-97160784D01*
X57205853Y-97308354D01*
X57080354Y-97433853D01*
X56932784Y-97532456D01*
X56768812Y-97600376D01*
X56619512Y-97630073D01*
X56594742Y-97635000D01*
X56417258Y-97635000D01*
X56392488Y-97630073D01*
X56243188Y-97600376D01*
X56079216Y-97532456D01*
X55931646Y-97433853D01*
X55806147Y-97308354D01*
X55707544Y-97160784D01*
X55639624Y-96996812D01*
X55605000Y-96822741D01*
X55605000Y-96645259D01*
X55639624Y-96471188D01*
X55707544Y-96307216D01*
X55806147Y-96159646D01*
X55931646Y-96034147D01*
X56079216Y-95935544D01*
X56243188Y-95867624D01*
X56392488Y-95837927D01*
X56417258Y-95833000D01*
X56594742Y-95833000D01*
X56619512Y-95837927D01*
G37*
G36*
X128667000Y-97135000D02*
G01*
X126165000Y-97135000D01*
X126165000Y-94633000D01*
X128667000Y-94633000D01*
X128667000Y-97135000D01*
G37*
G36*
X115017000Y-97035000D02*
G01*
X112515000Y-97035000D01*
X112515000Y-94533000D01*
X115017000Y-94533000D01*
X115017000Y-97035000D01*
G37*
G36*
X201567000Y-92585000D02*
G01*
X199065000Y-92585000D01*
X199065000Y-90083000D01*
X201567000Y-90083000D01*
X201567000Y-92585000D01*
G37*
G36*
X205680903Y-90131075D02*
G01*
X205908571Y-90225378D01*
X206113466Y-90362285D01*
X206287715Y-90536534D01*
X206424622Y-90741429D01*
X206518925Y-90969097D01*
X206567000Y-91210787D01*
X206567000Y-91457213D01*
X206518925Y-91698903D01*
X206424622Y-91926571D01*
X206287715Y-92131466D01*
X206113466Y-92305715D01*
X205908571Y-92442622D01*
X205908570Y-92442623D01*
X205908569Y-92442623D01*
X205680903Y-92536925D01*
X205439214Y-92585000D01*
X205192786Y-92585000D01*
X204951097Y-92536925D01*
X204723431Y-92442623D01*
X204723430Y-92442623D01*
X204723429Y-92442622D01*
X204518534Y-92305715D01*
X204344285Y-92131466D01*
X204207378Y-91926571D01*
X204113075Y-91698903D01*
X204065000Y-91457213D01*
X204065000Y-91210787D01*
X204113075Y-90969097D01*
X204207378Y-90741429D01*
X204344285Y-90536534D01*
X204518534Y-90362285D01*
X204723429Y-90225378D01*
X204951097Y-90131075D01*
X205192786Y-90083000D01*
X205439214Y-90083000D01*
X205680903Y-90131075D01*
G37*
G36*
X124279512Y-88877927D02*
G01*
X124428812Y-88907624D01*
X124592784Y-88975544D01*
X124740354Y-89074147D01*
X124865853Y-89199646D01*
X124964456Y-89347216D01*
X125032376Y-89511188D01*
X125067000Y-89685259D01*
X125067000Y-89862741D01*
X125032376Y-90036812D01*
X124964456Y-90200784D01*
X124865853Y-90348354D01*
X124740354Y-90473853D01*
X124592784Y-90572456D01*
X124428812Y-90640376D01*
X124279512Y-90670073D01*
X124254742Y-90675000D01*
X124077258Y-90675000D01*
X124052488Y-90670073D01*
X123903188Y-90640376D01*
X123739216Y-90572456D01*
X123591646Y-90473853D01*
X123466147Y-90348354D01*
X123367544Y-90200784D01*
X123299624Y-90036812D01*
X123265000Y-89862741D01*
X123265000Y-89685259D01*
X123299624Y-89511188D01*
X123367544Y-89347216D01*
X123466147Y-89199646D01*
X123591646Y-89074147D01*
X123739216Y-88975544D01*
X123903188Y-88907624D01*
X124052488Y-88877927D01*
X124077258Y-88873000D01*
X124254742Y-88873000D01*
X124279512Y-88877927D01*
G37*
G36*
X121739512Y-88877927D02*
G01*
X121888812Y-88907624D01*
X122052784Y-88975544D01*
X122200354Y-89074147D01*
X122325853Y-89199646D01*
X122424456Y-89347216D01*
X122492376Y-89511188D01*
X122527000Y-89685259D01*
X122527000Y-89862741D01*
X122492376Y-90036812D01*
X122424456Y-90200784D01*
X122325853Y-90348354D01*
X122200354Y-90473853D01*
X122052784Y-90572456D01*
X121888812Y-90640376D01*
X121739512Y-90670073D01*
X121714742Y-90675000D01*
X121537258Y-90675000D01*
X121512488Y-90670073D01*
X121363188Y-90640376D01*
X121199216Y-90572456D01*
X121051646Y-90473853D01*
X120926147Y-90348354D01*
X120827544Y-90200784D01*
X120759624Y-90036812D01*
X120725000Y-89862741D01*
X120725000Y-89685259D01*
X120759624Y-89511188D01*
X120827544Y-89347216D01*
X120926147Y-89199646D01*
X121051646Y-89074147D01*
X121199216Y-88975544D01*
X121363188Y-88907624D01*
X121512488Y-88877927D01*
X121537258Y-88873000D01*
X121714742Y-88873000D01*
X121739512Y-88877927D01*
G37*
G36*
X119199512Y-88877927D02*
G01*
X119348812Y-88907624D01*
X119512784Y-88975544D01*
X119660354Y-89074147D01*
X119785853Y-89199646D01*
X119884456Y-89347216D01*
X119952376Y-89511188D01*
X119987000Y-89685259D01*
X119987000Y-89862741D01*
X119952376Y-90036812D01*
X119884456Y-90200784D01*
X119785853Y-90348354D01*
X119660354Y-90473853D01*
X119512784Y-90572456D01*
X119348812Y-90640376D01*
X119199512Y-90670073D01*
X119174742Y-90675000D01*
X118997258Y-90675000D01*
X118972488Y-90670073D01*
X118823188Y-90640376D01*
X118659216Y-90572456D01*
X118511646Y-90473853D01*
X118386147Y-90348354D01*
X118287544Y-90200784D01*
X118219624Y-90036812D01*
X118185000Y-89862741D01*
X118185000Y-89685259D01*
X118219624Y-89511188D01*
X118287544Y-89347216D01*
X118386147Y-89199646D01*
X118511646Y-89074147D01*
X118659216Y-88975544D01*
X118823188Y-88907624D01*
X118972488Y-88877927D01*
X118997258Y-88873000D01*
X119174742Y-88873000D01*
X119199512Y-88877927D01*
G37*
G36*
X116659512Y-88877927D02*
G01*
X116808812Y-88907624D01*
X116972784Y-88975544D01*
X117120354Y-89074147D01*
X117245853Y-89199646D01*
X117344456Y-89347216D01*
X117412376Y-89511188D01*
X117447000Y-89685259D01*
X117447000Y-89862741D01*
X117412376Y-90036812D01*
X117344456Y-90200784D01*
X117245853Y-90348354D01*
X117120354Y-90473853D01*
X116972784Y-90572456D01*
X116808812Y-90640376D01*
X116659512Y-90670073D01*
X116634742Y-90675000D01*
X116457258Y-90675000D01*
X116432488Y-90670073D01*
X116283188Y-90640376D01*
X116119216Y-90572456D01*
X115971646Y-90473853D01*
X115846147Y-90348354D01*
X115747544Y-90200784D01*
X115679624Y-90036812D01*
X115645000Y-89862741D01*
X115645000Y-89685259D01*
X115679624Y-89511188D01*
X115747544Y-89347216D01*
X115846147Y-89199646D01*
X115971646Y-89074147D01*
X116119216Y-88975544D01*
X116283188Y-88907624D01*
X116432488Y-88877927D01*
X116457258Y-88873000D01*
X116634742Y-88873000D01*
X116659512Y-88877927D01*
G37*
G36*
X119199512Y-86337927D02*
G01*
X119348812Y-86367624D01*
X119512784Y-86435544D01*
X119660354Y-86534147D01*
X119785853Y-86659646D01*
X119884456Y-86807216D01*
X119952376Y-86971188D01*
X119987000Y-87145259D01*
X119987000Y-87322741D01*
X119952376Y-87496812D01*
X119884456Y-87660784D01*
X119785853Y-87808354D01*
X119660354Y-87933853D01*
X119512784Y-88032456D01*
X119348812Y-88100376D01*
X119199512Y-88130073D01*
X119174742Y-88135000D01*
X118997258Y-88135000D01*
X118972488Y-88130073D01*
X118823188Y-88100376D01*
X118659216Y-88032456D01*
X118511646Y-87933853D01*
X118386147Y-87808354D01*
X118287544Y-87660784D01*
X118219624Y-87496812D01*
X118185000Y-87322741D01*
X118185000Y-87145259D01*
X118219624Y-86971188D01*
X118287544Y-86807216D01*
X118386147Y-86659646D01*
X118511646Y-86534147D01*
X118659216Y-86435544D01*
X118823188Y-86367624D01*
X118972488Y-86337927D01*
X118997258Y-86333000D01*
X119174742Y-86333000D01*
X119199512Y-86337927D01*
G37*
G36*
X116659512Y-86337927D02*
G01*
X116808812Y-86367624D01*
X116972784Y-86435544D01*
X117120354Y-86534147D01*
X117245853Y-86659646D01*
X117344456Y-86807216D01*
X117412376Y-86971188D01*
X117447000Y-87145259D01*
X117447000Y-87322741D01*
X117412376Y-87496812D01*
X117344456Y-87660784D01*
X117245853Y-87808354D01*
X117120354Y-87933853D01*
X116972784Y-88032456D01*
X116808812Y-88100376D01*
X116659512Y-88130073D01*
X116634742Y-88135000D01*
X116457258Y-88135000D01*
X116432488Y-88130073D01*
X116283188Y-88100376D01*
X116119216Y-88032456D01*
X115971646Y-87933853D01*
X115846147Y-87808354D01*
X115747544Y-87660784D01*
X115679624Y-87496812D01*
X115645000Y-87322741D01*
X115645000Y-87145259D01*
X115679624Y-86971188D01*
X115747544Y-86807216D01*
X115846147Y-86659646D01*
X115971646Y-86534147D01*
X116119216Y-86435544D01*
X116283188Y-86367624D01*
X116432488Y-86337927D01*
X116457258Y-86333000D01*
X116634742Y-86333000D01*
X116659512Y-86337927D01*
G37*
G36*
X125067000Y-88135000D02*
G01*
X123265000Y-88135000D01*
X123265000Y-86333000D01*
X125067000Y-86333000D01*
X125067000Y-88135000D01*
G37*
G36*
X121739512Y-86337927D02*
G01*
X121888812Y-86367624D01*
X122052784Y-86435544D01*
X122200354Y-86534147D01*
X122325853Y-86659646D01*
X122424456Y-86807216D01*
X122492376Y-86971188D01*
X122527000Y-87145259D01*
X122527000Y-87322741D01*
X122492376Y-87496812D01*
X122424456Y-87660784D01*
X122325853Y-87808354D01*
X122200354Y-87933853D01*
X122052784Y-88032456D01*
X121888812Y-88100376D01*
X121739512Y-88130073D01*
X121714742Y-88135000D01*
X121537258Y-88135000D01*
X121512488Y-88130073D01*
X121363188Y-88100376D01*
X121199216Y-88032456D01*
X121051646Y-87933853D01*
X120926147Y-87808354D01*
X120827544Y-87660784D01*
X120759624Y-87496812D01*
X120725000Y-87322741D01*
X120725000Y-87145259D01*
X120759624Y-86971188D01*
X120827544Y-86807216D01*
X120926147Y-86659646D01*
X121051646Y-86534147D01*
X121199216Y-86435544D01*
X121363188Y-86367624D01*
X121512488Y-86337927D01*
X121537258Y-86333000D01*
X121714742Y-86333000D01*
X121739512Y-86337927D01*
G37*
G36*
X121191589Y-80422876D02*
G01*
X121290893Y-80442629D01*
X121431206Y-80500748D01*
X121557484Y-80585125D01*
X121664875Y-80692516D01*
X121749252Y-80818794D01*
X121807371Y-80959107D01*
X121837000Y-81108063D01*
X121837000Y-81259937D01*
X121807371Y-81408893D01*
X121749252Y-81549206D01*
X121664875Y-81675484D01*
X121557484Y-81782875D01*
X121431206Y-81867252D01*
X121290893Y-81925371D01*
X121191589Y-81945124D01*
X121141938Y-81955000D01*
X120990062Y-81955000D01*
X120940411Y-81945124D01*
X120841107Y-81925371D01*
X120700794Y-81867252D01*
X120574516Y-81782875D01*
X120467125Y-81675484D01*
X120382748Y-81549206D01*
X120324629Y-81408893D01*
X120295000Y-81259937D01*
X120295000Y-81108063D01*
X120324629Y-80959107D01*
X120382748Y-80818794D01*
X120467125Y-80692516D01*
X120574516Y-80585125D01*
X120700794Y-80500748D01*
X120841107Y-80442629D01*
X120940411Y-80422876D01*
X120990062Y-80413000D01*
X121141938Y-80413000D01*
X121191589Y-80422876D01*
G37*
G36*
X116191589Y-80422876D02*
G01*
X116290893Y-80442629D01*
X116431206Y-80500748D01*
X116557484Y-80585125D01*
X116664875Y-80692516D01*
X116749252Y-80818794D01*
X116807371Y-80959107D01*
X116837000Y-81108063D01*
X116837000Y-81259937D01*
X116807371Y-81408893D01*
X116749252Y-81549206D01*
X116664875Y-81675484D01*
X116557484Y-81782875D01*
X116431206Y-81867252D01*
X116290893Y-81925371D01*
X116191589Y-81945124D01*
X116141938Y-81955000D01*
X115990062Y-81955000D01*
X115940411Y-81945124D01*
X115841107Y-81925371D01*
X115700794Y-81867252D01*
X115574516Y-81782875D01*
X115467125Y-81675484D01*
X115382748Y-81549206D01*
X115324629Y-81408893D01*
X115295000Y-81259937D01*
X115295000Y-81108063D01*
X115324629Y-80959107D01*
X115382748Y-80818794D01*
X115467125Y-80692516D01*
X115574516Y-80585125D01*
X115700794Y-80500748D01*
X115841107Y-80442629D01*
X115940411Y-80422876D01*
X115990062Y-80413000D01*
X116141938Y-80413000D01*
X116191589Y-80422876D01*
G37*
G36*
X118691589Y-80422876D02*
G01*
X118790893Y-80442629D01*
X118931206Y-80500748D01*
X119057484Y-80585125D01*
X119164875Y-80692516D01*
X119249252Y-80818794D01*
X119307371Y-80959107D01*
X119337000Y-81108063D01*
X119337000Y-81259937D01*
X119307371Y-81408893D01*
X119249252Y-81549206D01*
X119164875Y-81675484D01*
X119057484Y-81782875D01*
X118931206Y-81867252D01*
X118790893Y-81925371D01*
X118691589Y-81945124D01*
X118641938Y-81955000D01*
X118490062Y-81955000D01*
X118440411Y-81945124D01*
X118341107Y-81925371D01*
X118200794Y-81867252D01*
X118074516Y-81782875D01*
X117967125Y-81675484D01*
X117882748Y-81549206D01*
X117824629Y-81408893D01*
X117795000Y-81259937D01*
X117795000Y-81108063D01*
X117824629Y-80959107D01*
X117882748Y-80818794D01*
X117967125Y-80692516D01*
X118074516Y-80585125D01*
X118200794Y-80500748D01*
X118341107Y-80442629D01*
X118440411Y-80422876D01*
X118490062Y-80413000D01*
X118641938Y-80413000D01*
X118691589Y-80422876D01*
G37*
G36*
X127117000Y-79435000D02*
G01*
X125415000Y-79435000D01*
X125415000Y-77733000D01*
X127117000Y-77733000D01*
X127117000Y-79435000D01*
G37*
G36*
X61389512Y-75937927D02*
G01*
X61538812Y-75967624D01*
X61702784Y-76035544D01*
X61850354Y-76134147D01*
X61975853Y-76259646D01*
X62074456Y-76407216D01*
X62142376Y-76571188D01*
X62172073Y-76720488D01*
X62176952Y-76745015D01*
X62177000Y-76745259D01*
X62177000Y-76922741D01*
X62142376Y-77096812D01*
X62074456Y-77260784D01*
X61975853Y-77408354D01*
X61850354Y-77533853D01*
X61702784Y-77632456D01*
X61538812Y-77700376D01*
X61389512Y-77730073D01*
X61364742Y-77735000D01*
X61187258Y-77735000D01*
X61162488Y-77730073D01*
X61013188Y-77700376D01*
X60849216Y-77632456D01*
X60701646Y-77533853D01*
X60576147Y-77408354D01*
X60477544Y-77260784D01*
X60409624Y-77096812D01*
X60375000Y-76922741D01*
X60375000Y-76745259D01*
X60375049Y-76745015D01*
X60379927Y-76720488D01*
X60409624Y-76571188D01*
X60477544Y-76407216D01*
X60576147Y-76259646D01*
X60701646Y-76134147D01*
X60849216Y-76035544D01*
X61013188Y-75967624D01*
X61162488Y-75937927D01*
X61187258Y-75933000D01*
X61364742Y-75933000D01*
X61389512Y-75937927D01*
G37*
G36*
X64717000Y-77735000D02*
G01*
X62915000Y-77735000D01*
X62915000Y-75933000D01*
X64717000Y-75933000D01*
X64717000Y-77735000D01*
G37*
G36*
X126514228Y-75265703D02*
G01*
X126669100Y-75329853D01*
X126808481Y-75422985D01*
X126927015Y-75541519D01*
X127020147Y-75680900D01*
X127084297Y-75835772D01*
X127117000Y-76000184D01*
X127117000Y-76167816D01*
X127084297Y-76332228D01*
X127020147Y-76487100D01*
X126927015Y-76626481D01*
X126808481Y-76745015D01*
X126669100Y-76838147D01*
X126514228Y-76902297D01*
X126349816Y-76935000D01*
X126182184Y-76935000D01*
X126017772Y-76902297D01*
X125862900Y-76838147D01*
X125723519Y-76745015D01*
X125604985Y-76626481D01*
X125511853Y-76487100D01*
X125447703Y-76332228D01*
X125415000Y-76167816D01*
X125415000Y-76000184D01*
X125447703Y-75835772D01*
X125511853Y-75680900D01*
X125604985Y-75541519D01*
X125723519Y-75422985D01*
X125862900Y-75329853D01*
X126017772Y-75265703D01*
X126182184Y-75233000D01*
X126349816Y-75233000D01*
X126514228Y-75265703D01*
G37*
G36*
X201501000Y-72551000D02*
G01*
X198999000Y-72551000D01*
X198999000Y-70049000D01*
X201501000Y-70049000D01*
X201501000Y-72551000D01*
G37*
G36*
X205614903Y-70097075D02*
G01*
X205842571Y-70191378D01*
X206047466Y-70328285D01*
X206221715Y-70502534D01*
X206221716Y-70502536D01*
X206358623Y-70707431D01*
X206452925Y-70935097D01*
X206494739Y-71145308D01*
X206501000Y-71176787D01*
X206501000Y-71423213D01*
X206452925Y-71664903D01*
X206358622Y-71892571D01*
X206221715Y-72097466D01*
X206047466Y-72271715D01*
X205842571Y-72408622D01*
X205842570Y-72408623D01*
X205842569Y-72408623D01*
X205614903Y-72502925D01*
X205373214Y-72551000D01*
X205126786Y-72551000D01*
X204885097Y-72502925D01*
X204657431Y-72408623D01*
X204657430Y-72408623D01*
X204657429Y-72408622D01*
X204452534Y-72271715D01*
X204278285Y-72097466D01*
X204141378Y-71892571D01*
X204047075Y-71664903D01*
X203999000Y-71423213D01*
X203999000Y-71176787D01*
X204005262Y-71145308D01*
X204047075Y-70935097D01*
X204141377Y-70707431D01*
X204278284Y-70502536D01*
X204278285Y-70502534D01*
X204452534Y-70328285D01*
X204657429Y-70191378D01*
X204885097Y-70097075D01*
X205126786Y-70049000D01*
X205373214Y-70049000D01*
X205614903Y-70097075D01*
G37*
G36*
X142592865Y-65045855D02*
G01*
X142947353Y-65192689D01*
X143193610Y-65294692D01*
X143734265Y-65655946D01*
X144194054Y-66115735D01*
X144555308Y-66656390D01*
X144555309Y-66656392D01*
X144804145Y-67257135D01*
X144931000Y-67894879D01*
X144931000Y-68545121D01*
X144804145Y-69182865D01*
X144555309Y-69783608D01*
X144555308Y-69783610D01*
X144194054Y-70324265D01*
X143734265Y-70784054D01*
X143193610Y-71145308D01*
X143193609Y-71145309D01*
X143193608Y-71145309D01*
X142592865Y-71394145D01*
X141955121Y-71521000D01*
X141304879Y-71521000D01*
X140667135Y-71394145D01*
X140066392Y-71145309D01*
X140066391Y-71145309D01*
X140066390Y-71145308D01*
X139525735Y-70784054D01*
X139065946Y-70324265D01*
X138704692Y-69783610D01*
X138704691Y-69783608D01*
X138455855Y-69182865D01*
X138329000Y-68545121D01*
X138329000Y-67894879D01*
X138455855Y-67257135D01*
X138704691Y-66656392D01*
X138704692Y-66656390D01*
X139065946Y-66115735D01*
X139525735Y-65655946D01*
X140066390Y-65294692D01*
X140312647Y-65192689D01*
X140667135Y-65045855D01*
X141304879Y-64919000D01*
X141955121Y-64919000D01*
X142592865Y-65045855D01*
G37*
G36*
X189832865Y-65045855D02*
G01*
X190187353Y-65192689D01*
X190433610Y-65294692D01*
X190974265Y-65655946D01*
X191434054Y-66115735D01*
X191795308Y-66656390D01*
X191795309Y-66656392D01*
X192044145Y-67257135D01*
X192171000Y-67894879D01*
X192171000Y-68545121D01*
X192044145Y-69182865D01*
X191795309Y-69783608D01*
X191795308Y-69783610D01*
X191434054Y-70324265D01*
X190974265Y-70784054D01*
X190433610Y-71145308D01*
X190433609Y-71145309D01*
X190433608Y-71145309D01*
X189832865Y-71394145D01*
X189195121Y-71521000D01*
X188544879Y-71521000D01*
X187907135Y-71394145D01*
X187306392Y-71145309D01*
X187306391Y-71145309D01*
X187306390Y-71145308D01*
X186765735Y-70784054D01*
X186305946Y-70324265D01*
X185944692Y-69783610D01*
X185944691Y-69783608D01*
X185695855Y-69182865D01*
X185569000Y-68545121D01*
X185569000Y-67894879D01*
X185695855Y-67257135D01*
X185944691Y-66656392D01*
X185944692Y-66656390D01*
X186305946Y-66115735D01*
X186765735Y-65655946D01*
X187306390Y-65294692D01*
X187552647Y-65192689D01*
X187907135Y-65045855D01*
X188544879Y-64919000D01*
X189195121Y-64919000D01*
X189832865Y-65045855D01*
G37*
G36*
X56117000Y-70235000D02*
G01*
X53915000Y-70235000D01*
X53915000Y-68033000D01*
X56117000Y-68033000D01*
X56117000Y-70235000D01*
G37*
G36*
X64618585Y-66912802D02*
G01*
X64768410Y-66942604D01*
X65050674Y-67059521D01*
X65304705Y-67229259D01*
X65520741Y-67445295D01*
X65690479Y-67699326D01*
X65807396Y-67981590D01*
X65867000Y-68281240D01*
X65867000Y-68586760D01*
X65807396Y-68886410D01*
X65690479Y-69168674D01*
X65520741Y-69422705D01*
X65304705Y-69638741D01*
X65050674Y-69808479D01*
X64768410Y-69925396D01*
X64618585Y-69955198D01*
X64468761Y-69985000D01*
X64163239Y-69985000D01*
X64013415Y-69955198D01*
X63863590Y-69925396D01*
X63581326Y-69808479D01*
X63327295Y-69638741D01*
X63111259Y-69422705D01*
X62941521Y-69168674D01*
X62824604Y-68886410D01*
X62765000Y-68586760D01*
X62765000Y-68281240D01*
X62824604Y-67981590D01*
X62941521Y-67699326D01*
X63111259Y-67445295D01*
X63327295Y-67229259D01*
X63581326Y-67059521D01*
X63863590Y-66942604D01*
X64013415Y-66912802D01*
X64163239Y-66883000D01*
X64468761Y-66883000D01*
X64618585Y-66912802D01*
G37*
G36*
X87118585Y-66912802D02*
G01*
X87268410Y-66942604D01*
X87550674Y-67059521D01*
X87804705Y-67229259D01*
X88020741Y-67445295D01*
X88190479Y-67699326D01*
X88307396Y-67981590D01*
X88367000Y-68281240D01*
X88367000Y-68586760D01*
X88307396Y-68886410D01*
X88190479Y-69168674D01*
X88020741Y-69422705D01*
X87804705Y-69638741D01*
X87550674Y-69808479D01*
X87268410Y-69925396D01*
X87118585Y-69955198D01*
X86968761Y-69985000D01*
X86663239Y-69985000D01*
X86513415Y-69955198D01*
X86363590Y-69925396D01*
X86081326Y-69808479D01*
X85827295Y-69638741D01*
X85611259Y-69422705D01*
X85441521Y-69168674D01*
X85324604Y-68886410D01*
X85265000Y-68586760D01*
X85265000Y-68281240D01*
X85324604Y-67981590D01*
X85441521Y-67699326D01*
X85611259Y-67445295D01*
X85827295Y-67229259D01*
X86081326Y-67059521D01*
X86363590Y-66942604D01*
X86513415Y-66912802D01*
X86663239Y-66883000D01*
X86968761Y-66883000D01*
X87118585Y-66912802D01*
G37*
G36*
X75884433Y-67068893D02*
G01*
X75974657Y-67086839D01*
X76080267Y-67130585D01*
X76229621Y-67192449D01*
X76305763Y-67243325D01*
X76459086Y-67345772D01*
X76654228Y-67540914D01*
X76756675Y-67694237D01*
X76807551Y-67770379D01*
X76859121Y-67894879D01*
X76895038Y-67981590D01*
X76913161Y-68025344D01*
X76967000Y-68296012D01*
X76967000Y-68571988D01*
X76964061Y-68586761D01*
X76913161Y-68842657D01*
X76869415Y-68948267D01*
X76807551Y-69097621D01*
X76807550Y-69097622D01*
X76654228Y-69327086D01*
X76459086Y-69522228D01*
X76305763Y-69624675D01*
X76229621Y-69675551D01*
X76080267Y-69737415D01*
X75974657Y-69781161D01*
X75884433Y-69799107D01*
X75703988Y-69835000D01*
X75428012Y-69835000D01*
X75247567Y-69799107D01*
X75157343Y-69781161D01*
X75051733Y-69737415D01*
X74902379Y-69675551D01*
X74826237Y-69624675D01*
X74672914Y-69522228D01*
X74477772Y-69327086D01*
X74324450Y-69097622D01*
X74324449Y-69097621D01*
X74262585Y-68948267D01*
X74218839Y-68842657D01*
X74167939Y-68586761D01*
X74165000Y-68571988D01*
X74165000Y-68296012D01*
X74218839Y-68025344D01*
X74236963Y-67981590D01*
X74272879Y-67894879D01*
X74324449Y-67770379D01*
X74375325Y-67694237D01*
X74477772Y-67540914D01*
X74672914Y-67345772D01*
X74826237Y-67243325D01*
X74902379Y-67192449D01*
X75051733Y-67130585D01*
X75157343Y-67086839D01*
X75247567Y-67068893D01*
X75428012Y-67033000D01*
X75703988Y-67033000D01*
X75884433Y-67068893D01*
G37*
G36*
X55230794Y-63054155D02*
G01*
X55337150Y-63075311D01*
X55537520Y-63158307D01*
X55717844Y-63278795D01*
X55871205Y-63432156D01*
X55991693Y-63612480D01*
X56074689Y-63812851D01*
X56117000Y-64025560D01*
X56117000Y-64242440D01*
X56074689Y-64455149D01*
X55991693Y-64655520D01*
X55871205Y-64835844D01*
X55717844Y-64989205D01*
X55537520Y-65109693D01*
X55437334Y-65151191D01*
X55337150Y-65192689D01*
X55230795Y-65213844D01*
X55124440Y-65235000D01*
X54907560Y-65235000D01*
X54801205Y-65213844D01*
X54694850Y-65192689D01*
X54594666Y-65151191D01*
X54494480Y-65109693D01*
X54314156Y-64989205D01*
X54160795Y-64835844D01*
X54040307Y-64655520D01*
X53957311Y-64455149D01*
X53915000Y-64242440D01*
X53915000Y-64025560D01*
X53957311Y-63812851D01*
X54040307Y-63612480D01*
X54160795Y-63432156D01*
X54314156Y-63278795D01*
X54494480Y-63158307D01*
X54694850Y-63075311D01*
X54801206Y-63054155D01*
X54907560Y-63033000D01*
X55124440Y-63033000D01*
X55230794Y-63054155D01*
G37*
G36*
X55230795Y-58054156D02*
G01*
X55337150Y-58075311D01*
X55537520Y-58158307D01*
X55717844Y-58278795D01*
X55871205Y-58432156D01*
X55991693Y-58612480D01*
X56074689Y-58812851D01*
X56117000Y-59025560D01*
X56117000Y-59242440D01*
X56074689Y-59455149D01*
X55991693Y-59655520D01*
X55871205Y-59835844D01*
X55717844Y-59989205D01*
X55537520Y-60109693D01*
X55337150Y-60192689D01*
X55230795Y-60213844D01*
X55124440Y-60235000D01*
X54907560Y-60235000D01*
X54801205Y-60213844D01*
X54694850Y-60192689D01*
X54494480Y-60109693D01*
X54314156Y-59989205D01*
X54160795Y-59835844D01*
X54040307Y-59655520D01*
X53957311Y-59455149D01*
X53915000Y-59242440D01*
X53915000Y-59025560D01*
X53957311Y-58812851D01*
X54040307Y-58612480D01*
X54160795Y-58432156D01*
X54314156Y-58278795D01*
X54494480Y-58158307D01*
X54694850Y-58075311D01*
X54801205Y-58054156D01*
X54907560Y-58033000D01*
X55124440Y-58033000D01*
X55230795Y-58054156D01*
G37*
G36*
X55230795Y-53054156D02*
G01*
X55337150Y-53075311D01*
X55537520Y-53158307D01*
X55717844Y-53278795D01*
X55871205Y-53432156D01*
X55991693Y-53612480D01*
X56074689Y-53812851D01*
X56117000Y-54025560D01*
X56117000Y-54242440D01*
X56074689Y-54455149D01*
X55991693Y-54655520D01*
X55871205Y-54835844D01*
X55717844Y-54989205D01*
X55537520Y-55109693D01*
X55437334Y-55151191D01*
X55337150Y-55192689D01*
X55230794Y-55213845D01*
X55124440Y-55235000D01*
X54907560Y-55235000D01*
X54801206Y-55213845D01*
X54694850Y-55192689D01*
X54494480Y-55109693D01*
X54314156Y-54989205D01*
X54160795Y-54835844D01*
X54040307Y-54655520D01*
X53957311Y-54455149D01*
X53915000Y-54242440D01*
X53915000Y-54025560D01*
X53957311Y-53812851D01*
X54040307Y-53612480D01*
X54160795Y-53432156D01*
X54314156Y-53278795D01*
X54494480Y-53158307D01*
X54694850Y-53075311D01*
X54801205Y-53054156D01*
X54907560Y-53033000D01*
X55124440Y-53033000D01*
X55230795Y-53054156D01*
G37*
G36*
X55230795Y-48054156D02*
G01*
X55337150Y-48075311D01*
X55537520Y-48158307D01*
X55717844Y-48278795D01*
X55871205Y-48432156D01*
X55991693Y-48612480D01*
X56074689Y-48812851D01*
X56117000Y-49025560D01*
X56117000Y-49242440D01*
X56074689Y-49455149D01*
X55991693Y-49655520D01*
X55871205Y-49835844D01*
X55717844Y-49989205D01*
X55537520Y-50109693D01*
X55437334Y-50151191D01*
X55337150Y-50192689D01*
X55230794Y-50213845D01*
X55124440Y-50235000D01*
X54907560Y-50235000D01*
X54801205Y-50213844D01*
X54694850Y-50192689D01*
X54594666Y-50151191D01*
X54494480Y-50109693D01*
X54314156Y-49989205D01*
X54160795Y-49835844D01*
X54040307Y-49655520D01*
X53957311Y-49455149D01*
X53915000Y-49242440D01*
X53915000Y-49025560D01*
X53957311Y-48812851D01*
X54040307Y-48612480D01*
X54160795Y-48432156D01*
X54314156Y-48278795D01*
X54494480Y-48158307D01*
X54694850Y-48075311D01*
X54801205Y-48054156D01*
X54907560Y-48033000D01*
X55124440Y-48033000D01*
X55230795Y-48054156D01*
G37*
G36*
X55230795Y-43054156D02*
G01*
X55337150Y-43075311D01*
X55437334Y-43116809D01*
X55537520Y-43158307D01*
X55717844Y-43278795D01*
X55871205Y-43432156D01*
X55991693Y-43612480D01*
X56074689Y-43812851D01*
X56117000Y-44025560D01*
X56117000Y-44242440D01*
X56074689Y-44455149D01*
X55991693Y-44655520D01*
X55871205Y-44835844D01*
X55717844Y-44989205D01*
X55537520Y-45109693D01*
X55437334Y-45151191D01*
X55337150Y-45192689D01*
X55230795Y-45213844D01*
X55124440Y-45235000D01*
X54907560Y-45235000D01*
X54801206Y-45213845D01*
X54694850Y-45192689D01*
X54494480Y-45109693D01*
X54314156Y-44989205D01*
X54160795Y-44835844D01*
X54040307Y-44655520D01*
X53957311Y-44455149D01*
X53915000Y-44242440D01*
X53915000Y-44025560D01*
X53957311Y-43812851D01*
X54040307Y-43612480D01*
X54160795Y-43432156D01*
X54314156Y-43278795D01*
X54494480Y-43158307D01*
X54694850Y-43075311D01*
X54801206Y-43054155D01*
X54907560Y-43033000D01*
X55124440Y-43033000D01*
X55230795Y-43054156D01*
G37*
G36*
X206297606Y-34342562D02*
G01*
X206816455Y-34557476D01*
X207283407Y-34869484D01*
X207680516Y-35266593D01*
X207992524Y-35733545D01*
X208207438Y-36252394D01*
X208207438Y-36252395D01*
X208317000Y-36803200D01*
X208317000Y-37364800D01*
X208302200Y-37439205D01*
X208207438Y-37915606D01*
X207992524Y-38434455D01*
X207680516Y-38901407D01*
X207283407Y-39298516D01*
X206816455Y-39610524D01*
X206297606Y-39825438D01*
X206022202Y-39880219D01*
X205746800Y-39935000D01*
X205185200Y-39935000D01*
X204634394Y-39825438D01*
X204115545Y-39610524D01*
X203648593Y-39298516D01*
X203251484Y-38901407D01*
X202939476Y-38434455D01*
X202724562Y-37915606D01*
X202629800Y-37439205D01*
X202615000Y-37364800D01*
X202615000Y-36803200D01*
X202724562Y-36252395D01*
X202724562Y-36252394D01*
X202939476Y-35733545D01*
X203251484Y-35266593D01*
X203648593Y-34869484D01*
X204115545Y-34557476D01*
X204634394Y-34342562D01*
X205185200Y-34233000D01*
X205746800Y-34233000D01*
X206297606Y-34342562D01*
G37*
G36*
X131297606Y-34342562D02*
G01*
X131816455Y-34557476D01*
X132283407Y-34869484D01*
X132680516Y-35266593D01*
X132992524Y-35733545D01*
X133207438Y-36252394D01*
X133207438Y-36252395D01*
X133317000Y-36803200D01*
X133317000Y-37364800D01*
X133302200Y-37439205D01*
X133207438Y-37915606D01*
X132992524Y-38434455D01*
X132680516Y-38901407D01*
X132283407Y-39298516D01*
X131816455Y-39610524D01*
X131297606Y-39825438D01*
X131022202Y-39880219D01*
X130746800Y-39935000D01*
X130185200Y-39935000D01*
X129634394Y-39825438D01*
X129115545Y-39610524D01*
X128648593Y-39298516D01*
X128251484Y-38901407D01*
X127939476Y-38434455D01*
X127724562Y-37915606D01*
X127629800Y-37439205D01*
X127615000Y-37364800D01*
X127615000Y-36803200D01*
X127724562Y-36252395D01*
X127724562Y-36252394D01*
X127939476Y-35733545D01*
X128251484Y-35266593D01*
X128648593Y-34869484D01*
X129115545Y-34557476D01*
X129634394Y-34342562D01*
X130185200Y-34233000D01*
X130746800Y-34233000D01*
X131297606Y-34342562D01*
G37*
G36*
X56297606Y-34342562D02*
G01*
X56816455Y-34557476D01*
X57283407Y-34869484D01*
X57680516Y-35266593D01*
X57992524Y-35733545D01*
X58207438Y-36252394D01*
X58207438Y-36252395D01*
X58317000Y-36803200D01*
X58317000Y-37364800D01*
X58302200Y-37439205D01*
X58207438Y-37915606D01*
X57992524Y-38434455D01*
X57680516Y-38901407D01*
X57283407Y-39298516D01*
X56816455Y-39610524D01*
X56297606Y-39825438D01*
X55746800Y-39935000D01*
X55185200Y-39935000D01*
X54634394Y-39825438D01*
X54115545Y-39610524D01*
X53648593Y-39298516D01*
X53251484Y-38901407D01*
X52939476Y-38434455D01*
X52724562Y-37915606D01*
X52629800Y-37439205D01*
X52615000Y-37364800D01*
X52615000Y-36803200D01*
X52724562Y-36252395D01*
X52724562Y-36252394D01*
X52939476Y-35733545D01*
X53251484Y-35266593D01*
X53648593Y-34869484D01*
X54115545Y-34557476D01*
X54634394Y-34342562D01*
X55185200Y-34233000D01*
X55746800Y-34233000D01*
X56297606Y-34342562D01*
G37*
G36*
X97280903Y-37331075D02*
G01*
X97508571Y-37425378D01*
X97713466Y-37562285D01*
X97887715Y-37736534D01*
X98024622Y-37941429D01*
X98024623Y-37941431D01*
X98078895Y-38072456D01*
X98118925Y-38169097D01*
X98167000Y-38410787D01*
X98167000Y-38657213D01*
X98118925Y-38898903D01*
X98024622Y-39126571D01*
X97887715Y-39331466D01*
X97713466Y-39505715D01*
X97508571Y-39642622D01*
X97508570Y-39642623D01*
X97508569Y-39642623D01*
X97280903Y-39736925D01*
X97039214Y-39785000D01*
X96792786Y-39785000D01*
X96551097Y-39736925D01*
X96323431Y-39642623D01*
X96323430Y-39642623D01*
X96323429Y-39642622D01*
X96118534Y-39505715D01*
X95944285Y-39331466D01*
X95807378Y-39126571D01*
X95713075Y-38898903D01*
X95665000Y-38657213D01*
X95665000Y-38410787D01*
X95713075Y-38169097D01*
X95753105Y-38072456D01*
X95807377Y-37941431D01*
X95807378Y-37941429D01*
X95944285Y-37736534D01*
X96118534Y-37562285D01*
X96323429Y-37425378D01*
X96551097Y-37331075D01*
X96792786Y-37283000D01*
X97039214Y-37283000D01*
X97280903Y-37331075D01*
G37*
G36*
X93167000Y-39785000D02*
G01*
X90665000Y-39785000D01*
X90665000Y-37283000D01*
X93167000Y-37283000D01*
X93167000Y-39785000D01*
G37*
G36*
X116549512Y-36377927D02*
G01*
X116698812Y-36407624D01*
X116862784Y-36475544D01*
X117010354Y-36574147D01*
X117135853Y-36699646D01*
X117234456Y-36847216D01*
X117302376Y-37011188D01*
X117321139Y-37105519D01*
X117337000Y-37185258D01*
X117337000Y-37362742D01*
X117332073Y-37387512D01*
X117302376Y-37536812D01*
X117234456Y-37700784D01*
X117135853Y-37848354D01*
X117010354Y-37973853D01*
X116862784Y-38072456D01*
X116698812Y-38140376D01*
X116554418Y-38169097D01*
X116524742Y-38175000D01*
X116347258Y-38175000D01*
X116317582Y-38169097D01*
X116173188Y-38140376D01*
X116009216Y-38072456D01*
X115861646Y-37973853D01*
X115736147Y-37848354D01*
X115637544Y-37700784D01*
X115569624Y-37536812D01*
X115539927Y-37387512D01*
X115535000Y-37362742D01*
X115535000Y-37185258D01*
X115550861Y-37105519D01*
X115569624Y-37011188D01*
X115637544Y-36847216D01*
X115736147Y-36699646D01*
X115861646Y-36574147D01*
X116009216Y-36475544D01*
X116173188Y-36407624D01*
X116322488Y-36377927D01*
X116347258Y-36373000D01*
X116524742Y-36373000D01*
X116549512Y-36377927D01*
G37*
G36*
X114009512Y-36377927D02*
G01*
X114158812Y-36407624D01*
X114322784Y-36475544D01*
X114470354Y-36574147D01*
X114595853Y-36699646D01*
X114694456Y-36847216D01*
X114762376Y-37011188D01*
X114781139Y-37105519D01*
X114797000Y-37185258D01*
X114797000Y-37362742D01*
X114792073Y-37387512D01*
X114762376Y-37536812D01*
X114694456Y-37700784D01*
X114595853Y-37848354D01*
X114470354Y-37973853D01*
X114322784Y-38072456D01*
X114158812Y-38140376D01*
X114014418Y-38169097D01*
X113984742Y-38175000D01*
X113807258Y-38175000D01*
X113777582Y-38169097D01*
X113633188Y-38140376D01*
X113469216Y-38072456D01*
X113321646Y-37973853D01*
X113196147Y-37848354D01*
X113097544Y-37700784D01*
X113029624Y-37536812D01*
X112999927Y-37387512D01*
X112995000Y-37362742D01*
X112995000Y-37185258D01*
X113010861Y-37105519D01*
X113029624Y-37011188D01*
X113097544Y-36847216D01*
X113196147Y-36699646D01*
X113321646Y-36574147D01*
X113469216Y-36475544D01*
X113633188Y-36407624D01*
X113782488Y-36377927D01*
X113807258Y-36373000D01*
X113984742Y-36373000D01*
X114009512Y-36377927D01*
G37*
G36*
X119089512Y-36377927D02*
G01*
X119238812Y-36407624D01*
X119402784Y-36475544D01*
X119550354Y-36574147D01*
X119675853Y-36699646D01*
X119774456Y-36847216D01*
X119842376Y-37011188D01*
X119861139Y-37105519D01*
X119877000Y-37185258D01*
X119877000Y-37362742D01*
X119872073Y-37387512D01*
X119842376Y-37536812D01*
X119774456Y-37700784D01*
X119675853Y-37848354D01*
X119550354Y-37973853D01*
X119402784Y-38072456D01*
X119238812Y-38140376D01*
X119094418Y-38169097D01*
X119064742Y-38175000D01*
X118887258Y-38175000D01*
X118857582Y-38169097D01*
X118713188Y-38140376D01*
X118549216Y-38072456D01*
X118401646Y-37973853D01*
X118276147Y-37848354D01*
X118177544Y-37700784D01*
X118109624Y-37536812D01*
X118079927Y-37387512D01*
X118075000Y-37362742D01*
X118075000Y-37185258D01*
X118090861Y-37105519D01*
X118109624Y-37011188D01*
X118177544Y-36847216D01*
X118276147Y-36699646D01*
X118401646Y-36574147D01*
X118549216Y-36475544D01*
X118713188Y-36407624D01*
X118862488Y-36377927D01*
X118887258Y-36373000D01*
X119064742Y-36373000D01*
X119089512Y-36377927D01*
G37*
G36*
X121629512Y-36377927D02*
G01*
X121778812Y-36407624D01*
X121942784Y-36475544D01*
X122090354Y-36574147D01*
X122215853Y-36699646D01*
X122314456Y-36847216D01*
X122382376Y-37011188D01*
X122401139Y-37105519D01*
X122417000Y-37185258D01*
X122417000Y-37362742D01*
X122412073Y-37387512D01*
X122382376Y-37536812D01*
X122314456Y-37700784D01*
X122215853Y-37848354D01*
X122090354Y-37973853D01*
X121942784Y-38072456D01*
X121778812Y-38140376D01*
X121634418Y-38169097D01*
X121604742Y-38175000D01*
X121427258Y-38175000D01*
X121397582Y-38169097D01*
X121253188Y-38140376D01*
X121089216Y-38072456D01*
X120941646Y-37973853D01*
X120816147Y-37848354D01*
X120717544Y-37700784D01*
X120649624Y-37536812D01*
X120619927Y-37387512D01*
X120615000Y-37362742D01*
X120615000Y-37185258D01*
X120630861Y-37105519D01*
X120649624Y-37011188D01*
X120717544Y-36847216D01*
X120816147Y-36699646D01*
X120941646Y-36574147D01*
X121089216Y-36475544D01*
X121253188Y-36407624D01*
X121402488Y-36377927D01*
X121427258Y-36373000D01*
X121604742Y-36373000D01*
X121629512Y-36377927D01*
G37*
G36*
X170180795Y-35504156D02*
G01*
X170287150Y-35525311D01*
X170304399Y-35532456D01*
X170487520Y-35608307D01*
X170667844Y-35728795D01*
X170821205Y-35882156D01*
X170941693Y-36062480D01*
X171024689Y-36262851D01*
X171067000Y-36475560D01*
X171067000Y-36692440D01*
X171024689Y-36905149D01*
X170941693Y-37105520D01*
X170821205Y-37285844D01*
X170667844Y-37439205D01*
X170487520Y-37559693D01*
X170387334Y-37601191D01*
X170287150Y-37642689D01*
X170180795Y-37663844D01*
X170074440Y-37685000D01*
X169857560Y-37685000D01*
X169751206Y-37663845D01*
X169644850Y-37642689D01*
X169544666Y-37601191D01*
X169444480Y-37559693D01*
X169264156Y-37439205D01*
X169110795Y-37285844D01*
X168990307Y-37105520D01*
X168907311Y-36905149D01*
X168865000Y-36692440D01*
X168865000Y-36475560D01*
X168907311Y-36262851D01*
X168990307Y-36062480D01*
X169110795Y-35882156D01*
X169264156Y-35728795D01*
X169444480Y-35608307D01*
X169627601Y-35532456D01*
X169644850Y-35525311D01*
X169751206Y-35504155D01*
X169857560Y-35483000D01*
X170074440Y-35483000D01*
X170180795Y-35504156D01*
G37*
G36*
X151067000Y-37685000D02*
G01*
X148865000Y-37685000D01*
X148865000Y-35483000D01*
X151067000Y-35483000D01*
X151067000Y-37685000D01*
G37*
G36*
X155180795Y-35504156D02*
G01*
X155287150Y-35525311D01*
X155304399Y-35532456D01*
X155487520Y-35608307D01*
X155667844Y-35728795D01*
X155821205Y-35882156D01*
X155941693Y-36062480D01*
X156024689Y-36262851D01*
X156067000Y-36475560D01*
X156067000Y-36692440D01*
X156024689Y-36905149D01*
X155941693Y-37105520D01*
X155821205Y-37285844D01*
X155667844Y-37439205D01*
X155487520Y-37559693D01*
X155387334Y-37601191D01*
X155287150Y-37642689D01*
X155180795Y-37663844D01*
X155074440Y-37685000D01*
X154857560Y-37685000D01*
X154751206Y-37663845D01*
X154644850Y-37642689D01*
X154544666Y-37601191D01*
X154444480Y-37559693D01*
X154264156Y-37439205D01*
X154110795Y-37285844D01*
X153990307Y-37105520D01*
X153907311Y-36905149D01*
X153865000Y-36692440D01*
X153865000Y-36475560D01*
X153907311Y-36262851D01*
X153990307Y-36062480D01*
X154110795Y-35882156D01*
X154264156Y-35728795D01*
X154444480Y-35608307D01*
X154627601Y-35532456D01*
X154644850Y-35525311D01*
X154751206Y-35504155D01*
X154857560Y-35483000D01*
X155074440Y-35483000D01*
X155180795Y-35504156D01*
G37*
G36*
X160180795Y-35504156D02*
G01*
X160287150Y-35525311D01*
X160304399Y-35532456D01*
X160487520Y-35608307D01*
X160667844Y-35728795D01*
X160821205Y-35882156D01*
X160941693Y-36062480D01*
X161024689Y-36262851D01*
X161067000Y-36475560D01*
X161067000Y-36692440D01*
X161024689Y-36905149D01*
X160941693Y-37105520D01*
X160821205Y-37285844D01*
X160667844Y-37439205D01*
X160487520Y-37559693D01*
X160387334Y-37601191D01*
X160287150Y-37642689D01*
X160180795Y-37663844D01*
X160074440Y-37685000D01*
X159857560Y-37685000D01*
X159751206Y-37663845D01*
X159644850Y-37642689D01*
X159544666Y-37601191D01*
X159444480Y-37559693D01*
X159264156Y-37439205D01*
X159110795Y-37285844D01*
X158990307Y-37105520D01*
X158907311Y-36905149D01*
X158865000Y-36692440D01*
X158865000Y-36475560D01*
X158907311Y-36262851D01*
X158990307Y-36062480D01*
X159110795Y-35882156D01*
X159264156Y-35728795D01*
X159444480Y-35608307D01*
X159627601Y-35532456D01*
X159644850Y-35525311D01*
X159751206Y-35504155D01*
X159857560Y-35483000D01*
X160074440Y-35483000D01*
X160180795Y-35504156D01*
G37*
G36*
X165180795Y-35504156D02*
G01*
X165287150Y-35525311D01*
X165304399Y-35532456D01*
X165487520Y-35608307D01*
X165667844Y-35728795D01*
X165821205Y-35882156D01*
X165941693Y-36062480D01*
X166024689Y-36262851D01*
X166067000Y-36475560D01*
X166067000Y-36692440D01*
X166024689Y-36905149D01*
X165941693Y-37105520D01*
X165821205Y-37285844D01*
X165667844Y-37439205D01*
X165487520Y-37559693D01*
X165387334Y-37601191D01*
X165287150Y-37642689D01*
X165180795Y-37663844D01*
X165074440Y-37685000D01*
X164857560Y-37685000D01*
X164751206Y-37663845D01*
X164644850Y-37642689D01*
X164544666Y-37601191D01*
X164444480Y-37559693D01*
X164264156Y-37439205D01*
X164110795Y-37285844D01*
X163990307Y-37105520D01*
X163907311Y-36905149D01*
X163865000Y-36692440D01*
X163865000Y-36475560D01*
X163907311Y-36262851D01*
X163990307Y-36062480D01*
X164110795Y-35882156D01*
X164264156Y-35728795D01*
X164444480Y-35608307D01*
X164627601Y-35532456D01*
X164644850Y-35525311D01*
X164751206Y-35504155D01*
X164857560Y-35483000D01*
X165074440Y-35483000D01*
X165180795Y-35504156D01*
G37*
G36*
X175180795Y-35504156D02*
G01*
X175287150Y-35525311D01*
X175304399Y-35532456D01*
X175487520Y-35608307D01*
X175667844Y-35728795D01*
X175821205Y-35882156D01*
X175941693Y-36062480D01*
X176024689Y-36262851D01*
X176067000Y-36475560D01*
X176067000Y-36692440D01*
X176024689Y-36905149D01*
X175941693Y-37105520D01*
X175821205Y-37285844D01*
X175667844Y-37439205D01*
X175487520Y-37559693D01*
X175387334Y-37601191D01*
X175287150Y-37642689D01*
X175180795Y-37663844D01*
X175074440Y-37685000D01*
X174857560Y-37685000D01*
X174751206Y-37663845D01*
X174644850Y-37642689D01*
X174544666Y-37601191D01*
X174444480Y-37559693D01*
X174264156Y-37439205D01*
X174110795Y-37285844D01*
X173990307Y-37105520D01*
X173907311Y-36905149D01*
X173865000Y-36692440D01*
X173865000Y-36475560D01*
X173907311Y-36262851D01*
X173990307Y-36062480D01*
X174110795Y-35882156D01*
X174264156Y-35728795D01*
X174444480Y-35608307D01*
X174627601Y-35532456D01*
X174644850Y-35525311D01*
X174751206Y-35504155D01*
X174857560Y-35483000D01*
X175074440Y-35483000D01*
X175180795Y-35504156D01*
G37*
G36*
X122417000Y-35635000D02*
G01*
X120615000Y-35635000D01*
X120615000Y-33833000D01*
X122417000Y-33833000D01*
X122417000Y-35635000D01*
G37*
G36*
X119089512Y-33837927D02*
G01*
X119238812Y-33867624D01*
X119402784Y-33935544D01*
X119550354Y-34034147D01*
X119675853Y-34159646D01*
X119774456Y-34307216D01*
X119842376Y-34471188D01*
X119877000Y-34645259D01*
X119877000Y-34822741D01*
X119842376Y-34996812D01*
X119774456Y-35160784D01*
X119675853Y-35308354D01*
X119550354Y-35433853D01*
X119402784Y-35532456D01*
X119238812Y-35600376D01*
X119089512Y-35630073D01*
X119064742Y-35635000D01*
X118887258Y-35635000D01*
X118862488Y-35630073D01*
X118713188Y-35600376D01*
X118549216Y-35532456D01*
X118401646Y-35433853D01*
X118276147Y-35308354D01*
X118177544Y-35160784D01*
X118109624Y-34996812D01*
X118075000Y-34822741D01*
X118075000Y-34645259D01*
X118109624Y-34471188D01*
X118177544Y-34307216D01*
X118276147Y-34159646D01*
X118401646Y-34034147D01*
X118549216Y-33935544D01*
X118713188Y-33867624D01*
X118862488Y-33837927D01*
X118887258Y-33833000D01*
X119064742Y-33833000D01*
X119089512Y-33837927D01*
G37*
G36*
X116549512Y-33837927D02*
G01*
X116698812Y-33867624D01*
X116862784Y-33935544D01*
X117010354Y-34034147D01*
X117135853Y-34159646D01*
X117234456Y-34307216D01*
X117302376Y-34471188D01*
X117337000Y-34645259D01*
X117337000Y-34822741D01*
X117302376Y-34996812D01*
X117234456Y-35160784D01*
X117135853Y-35308354D01*
X117010354Y-35433853D01*
X116862784Y-35532456D01*
X116698812Y-35600376D01*
X116549512Y-35630073D01*
X116524742Y-35635000D01*
X116347258Y-35635000D01*
X116322488Y-35630073D01*
X116173188Y-35600376D01*
X116009216Y-35532456D01*
X115861646Y-35433853D01*
X115736147Y-35308354D01*
X115637544Y-35160784D01*
X115569624Y-34996812D01*
X115535000Y-34822741D01*
X115535000Y-34645259D01*
X115569624Y-34471188D01*
X115637544Y-34307216D01*
X115736147Y-34159646D01*
X115861646Y-34034147D01*
X116009216Y-33935544D01*
X116173188Y-33867624D01*
X116322488Y-33837927D01*
X116347258Y-33833000D01*
X116524742Y-33833000D01*
X116549512Y-33837927D01*
G37*
G36*
X114009512Y-33837927D02*
G01*
X114158812Y-33867624D01*
X114322784Y-33935544D01*
X114470354Y-34034147D01*
X114595853Y-34159646D01*
X114694456Y-34307216D01*
X114762376Y-34471188D01*
X114797000Y-34645259D01*
X114797000Y-34822741D01*
X114762376Y-34996812D01*
X114694456Y-35160784D01*
X114595853Y-35308354D01*
X114470354Y-35433853D01*
X114322784Y-35532456D01*
X114158812Y-35600376D01*
X114009512Y-35630073D01*
X113984742Y-35635000D01*
X113807258Y-35635000D01*
X113782488Y-35630073D01*
X113633188Y-35600376D01*
X113469216Y-35532456D01*
X113321646Y-35433853D01*
X113196147Y-35308354D01*
X113097544Y-35160784D01*
X113029624Y-34996812D01*
X112995000Y-34822741D01*
X112995000Y-34645259D01*
X113029624Y-34471188D01*
X113097544Y-34307216D01*
X113196147Y-34159646D01*
X113321646Y-34034147D01*
X113469216Y-33935544D01*
X113633188Y-33867624D01*
X113782488Y-33837927D01*
X113807258Y-33833000D01*
X113984742Y-33833000D01*
X114009512Y-33837927D01*
G37*
M02*
