M48
; DRILL file {KiCad (5.1.6)-1} date 07/10/20 11:15:35
; FORMAT={-:-/ absolute / inch / decimal}
; #@! TF.CreationDate,2020-07-10T11:15:35+02:00
; #@! TF.GenerationSoftware,Kicad,Pcbnew,(5.1.6)-1
FMAT,2
INCH
T1C0.0118
T2C0.0295
T3C0.0315
T4C0.0354
T5C0.0394
T6C0.0433
T7C0.0472
T8C0.0512
T9C0.1248
T10C0.1260
T11C0.1063
%
G90
G05
T1
X2.8589Y-2.2169
X2.8628Y-2.0594
X2.8924Y-2.523
X2.9691Y-2.0594
X2.9691Y-2.2169
X3.0439Y-2.6441
X3.0597Y-2.0594
X3.0597Y-2.2169
X3.0991Y-3.3389
X3.0991Y-3.4177
X3.1424Y-2.0397
X3.234Y-3.83
X3.2861Y-2.1293
X3.2959Y-2.4728
X3.2959Y-2.5122
X3.3353Y-4.7956
X3.3353Y-4.9137
X3.3431Y-3.957
X3.3648Y-2.1293
X3.3825Y-2.2641
X3.4534Y-3.8114
X3.4534Y-3.9689
X3.4534Y-4.1657
X3.4534Y-4.2051
X3.4534Y-4.7956
X3.4534Y-4.9137
X3.4652Y-2.0319
X3.4652Y-2.3153
X3.5203Y-2.1775
X3.5361Y-2.3862
X3.5439Y-2.2838
X3.5479Y-2.0122
X3.5479Y-2.0752
X3.5636Y-1.835
X3.5754Y-4.3704
X3.5774Y-4.461
X3.6109Y-2.4728
X3.6109Y-2.5122
X3.6246Y-5.0259
X3.6542Y-2.1224
X3.6778Y-3.587
X3.6896Y-2.3626
X3.6975Y-1.6106
X3.7017Y-1.7718
X3.725Y-1.9019
X3.7349Y-2.1822
X3.7526Y-4.9256
X3.7644Y-2.2169
X3.7644Y-2.398
X3.8038Y-4.272
X3.8038Y-4.2169
X3.8333Y-4.9256
X3.8431Y-4.4807
X3.8491Y-3.638
X3.8746Y-1.7169
X3.8825Y-1.8507
X3.8904Y-2.1539
X3.8983Y-4.6322
X3.9042Y-4.211
X3.916Y-4.9236
X3.9298Y-4.2523
X3.9337Y-2.1775
X3.9416Y-2.5712
X3.9632Y-4.3468
X3.9672Y-3.4964
X3.9691Y-2.2051
X3.9731Y-3.5948
X3.977Y-2.3468
X3.9809Y-5.0259
X3.9829Y-4.9256
X3.9965Y-2.0033
X3.9967Y-3.6381
X4.0026Y-2.0791
X4.0046Y-1.9728
X4.0046Y-3.8114
X4.0046Y-4.083
X4.0098Y-4.5381
X4.0233Y-2.0338
X4.0282Y-4.2051
X4.0321Y-4.2582
X4.0361Y-5.2405
X4.0439Y-4.6854
X4.0636Y-4.15
X4.0646Y-1.7809
X4.0794Y-4.772
X4.103Y-2.0279
X4.103Y-2.3232
X4.1168Y-4.7681
X4.1266Y-4.4728
X4.1266Y-4.5397
X4.1286Y-4.0319
X4.1306Y-5.0259
X4.1365Y-2.2228
X4.1463Y-2.1421
X4.1463Y-3.7031
X4.1483Y-4.9393
X4.1827Y-3.8557
X4.2014Y-4.7484
X4.2054Y-4.4196
X4.2087Y-4.379
X4.2093Y-1.9649
X4.2152Y-3.7011
X4.2162Y-5.2553
X4.2172Y-5.024
X4.2408Y-4.2326
X4.277Y-4.346
X4.2802Y-2.3311
X4.292Y-4.4157
X4.3067Y-4.1096
X4.3097Y-4.9669
X4.3195Y-2.3311
X4.3313Y-4.3626
X4.3313Y-5.024
X4.3353Y-5.2543
X4.3372Y-4.5358
X4.3392Y-4.0909
X4.3628Y-2.3311
X4.3746Y-4.0555
X4.3924Y-4.9885
X4.3943Y-2.0948
X4.3983Y-2.3311
X4.3983Y-4.2641
X4.404Y-4.611
X4.4061Y-2.2917
X4.4278Y-2.9954
X4.4278Y-3.0742
X4.4278Y-3.1529
X4.4298Y-4.8478
X4.4357Y-4.1381
X4.4416Y-4.6815
X4.4475Y-5.024
X4.4524Y-5.2553
X4.4573Y-4.3193
X4.4711Y-4.2248
X4.477Y-2.3153
X4.4809Y-4.4055
X4.4928Y-3.9551
X4.4928Y-4.1677
X4.5164Y-2.3153
X4.5164Y-4.0633
X4.5203Y-4.5161
X4.5557Y-2.3153
X4.5636Y-4.52
X4.5646Y-4.7681
X4.5656Y-4.0968
X4.5676Y-2.8665
X4.5754Y-4.396
X4.5754Y-5.0801
X4.5951Y-2.3153
X4.6227Y-4.3114
X4.6306Y-4.5476
X4.6345Y-2.3153
X4.6581Y-4.146
X4.6739Y-2.3153
X4.6857Y-4.3212
X4.7172Y-4.0988
X4.7231Y-4.3448
X4.7565Y-2.5712
X4.7565Y-2.9137
X4.7821Y-3.271
X4.7821Y-3.3891
X4.7821Y-3.5072
X4.8254Y-4.8616
X4.8727Y-2.7986
X4.8727Y-3.2317
X4.912Y-3.2317
X4.9219Y-4.9551
X4.9382Y-4.9077
X4.9514Y-3.2317
X4.9908Y-3.2317
X5.0302Y-3.2317
X5.0444Y-4.7666
X5.0695Y-4.7159
X5.1355Y-4.5496
X5.1404Y-3.1883
X5.1522Y-3.4797
X5.1522Y-3.5151
X5.1758Y-4.1372
X5.1758Y-4.2159
X5.1758Y-4.2946
X5.1758Y-4.3734
X5.1817Y-4.5397
X5.1994Y-3.4797
X5.1994Y-3.5151
X5.2546Y-5.3183
X5.2546Y-5.397
X5.2546Y-5.4757
X5.2664Y-3.5387
X5.3057Y-3.5387
X5.3451Y-3.4639
X5.3451Y-3.5072
X5.353Y-4.8222
X5.3806Y-5.2828
X5.3845Y-4.8074
X5.4081Y-5.5033
X5.4239Y-3.271
X5.4317Y-5.1057
X5.4632Y-3.271
X5.4632Y-5.4403
X5.5026Y-3.271
X5.5075Y-4.9049
X5.542Y-3.271
X5.5498Y-4.9128
X5.5577Y-4.96
X5.5813Y-3.271
X5.7546Y-4.7277
X5.912Y-5.2631
X5.9632Y-4.1765
X5.9632Y-4.2159
X5.9632Y-4.2553
X5.9632Y-4.2946
X6.0026Y-4.1372
X6.0026Y-4.1765
X6.0026Y-4.2159
X6.0026Y-4.2553
X6.0026Y-4.2946
X6.0026Y-4.334
X6.042Y-4.0978
X6.042Y-4.3734
X6.0813Y-4.0584
X6.0813Y-4.4128
X6.0853Y-4.6047
X6.168Y-4.6942
X6.2095Y-4.6155
X6.3678Y-5.0023
X6.3678Y-5.0889
X6.3697Y-4.959
X6.4357Y-5.0899
X6.4554Y-3.2317
X6.4829Y-5.3065
X6.4947Y-3.2317
X6.4957Y-4.8724
X6.4971Y-4.9157
X6.5026Y-4.6569
X6.5341Y-3.2317
X6.9396Y-5.4876
X6.9869Y-2.0112
X6.9869Y-2.0899
X6.9869Y-2.1687
X7.0262Y-2.0506
X7.0262Y-2.1293
X7.0262Y-2.208
X7.1502Y-3.6608
X7.227Y-3.7633
X7.2506Y-3.8065
X7.2624Y-3.3498
X7.2624Y-3.3891
X7.3018Y-3.3498
X7.3018Y-3.3891
X7.3412Y-3.3104
X7.3412Y-3.3498
X7.3412Y-3.3891
X7.3412Y-3.4285
X7.3806Y-3.3104
X7.3806Y-3.3498
X7.3806Y-3.3891
X7.3806Y-3.4285
X7.3845Y-5.4876
X7.4199Y-3.3104
X7.4199Y-3.3498
X7.4199Y-3.3891
X7.4199Y-3.4285
X7.4396Y-4.7986
X7.4593Y-3.3104
X7.4593Y-3.3498
X7.4593Y-3.3891
X7.4593Y-3.4285
X7.4672Y-3.7946
X7.4681Y-3.5574
X7.4987Y-3.3104
X7.4987Y-3.3498
X7.4987Y-3.3891
X7.4987Y-3.4285
X7.5183Y-3.6608
X7.538Y-3.3104
X7.538Y-3.3498
X7.538Y-3.3891
X7.538Y-3.4285
X7.5617Y-5.1293
X7.5636Y-3.6608
X7.5774Y-3.3498
X7.5774Y-3.3891
X7.6168Y-3.3498
X7.6168Y-3.3891
X7.6355Y-3.6618
X7.7191Y-5.3065
X7.7939Y-5.2986
X7.7979Y-5.2002
X7.8353Y-3.212
X7.8353Y-3.2494
X7.8412Y-5.2041
X7.853Y-2.0506
X7.853Y-2.1293
X7.853Y-2.208
X7.8612Y-5.4872
X7.8727Y-3.212
X7.8727Y-3.2513
X7.8924Y-2.0112
X7.8924Y-2.0899
X7.8924Y-2.1687
X7.912Y-3.212
X7.914Y-3.2513
X7.9593Y-3.4836
X7.975Y-3.6372
X8.0277Y-5.1042
X8.0597Y-3.773
X8.0892Y-3.3498
X8.0892Y-3.3891
X8.0931Y-5.212
X8.1286Y-3.3498
X8.1286Y-3.3891
X8.168Y-3.3104
X8.168Y-3.3498
X8.168Y-3.3891
X8.168Y-3.4285
X8.2073Y-3.3104
X8.2073Y-3.3498
X8.2073Y-3.3891
X8.2073Y-3.4285
X8.2467Y-3.3104
X8.2467Y-3.3498
X8.2467Y-3.3891
X8.2467Y-3.4285
X8.2546Y-4.9954
X8.2861Y-3.3104
X8.2861Y-3.3498
X8.2861Y-3.3891
X8.2861Y-3.4285
X8.3254Y-3.3104
X8.3254Y-3.3498
X8.3254Y-3.3891
X8.3254Y-3.4285
X8.353Y-3.8222
X8.3648Y-3.3104
X8.3648Y-3.3498
X8.3648Y-3.3891
X8.3648Y-3.4285
X8.4042Y-3.3104
X8.4042Y-3.3498
X8.4042Y-3.3891
X8.4042Y-3.4285
X8.4081Y-4.4817
X8.4239Y-3.6726
X8.4435Y-3.3498
X8.4435Y-3.3891
X8.4829Y-3.3498
X8.4829Y-3.3891
X8.5302Y-3.5269
X8.7191Y-2.0506
X8.7191Y-2.1293
X8.7191Y-2.208
X8.7585Y-2.0112
X8.7585Y-2.0899
X8.7585Y-2.1687
X9.1719Y-3.2317
X9.1916Y-4.7671
X9.1916Y-4.8458
X9.2309Y-3.2317
X9.29Y-3.2336
X9.3491Y-4.6883
X9.3491Y-4.7671
X9.3491Y-4.8458
X9.4435Y-4.4521
X3.8498Y-1.9756
X3.8498Y-2.0122
X3.8498Y-2.0488
X3.8865Y-1.9756
X3.8865Y-2.0122
X3.8865Y-2.0488
X3.9231Y-1.9756
X3.9231Y-2.0122
X3.9231Y-2.0488
T2
X5.0892Y-5.0899
X5.1392Y-5.0899
X5.1892Y-5.0899
T3
X7.727Y-4.2651
X7.727Y-4.462
X6.7624Y-4.8838
X6.9593Y-4.8838
X8.4613Y-4.3557
X8.6581Y-4.3557
X5.4711Y-3.7946
X5.5695Y-3.7946
X5.668Y-3.7946
X7.4947Y-4.8852
X7.6916Y-4.8852
X8.2683Y-4.2671
X8.2683Y-4.4639
X8.4278Y-4.8852
X8.6246Y-4.8852
X7.5498Y-5.4528
X7.7467Y-5.4528
X5.9061Y-3.8094
X5.9061Y-3.9078
X7.2093Y-4.2671
X7.2093Y-4.4639
X7.3766Y-4.3537
X7.5735Y-4.3537
X8.0144Y-5.4528
X8.2113Y-5.4528
X7.8057Y-4.8852
X8.0026Y-4.8852
X8.1168Y-4.8852
X8.3136Y-4.8852
X7.0813Y-5.1181
X7.2782Y-5.1181
X7.0931Y-5.4528
X7.29Y-5.4528
X7.0813Y-4.8838
X7.2782Y-4.8838
X7.8924Y-4.3576
X8.0892Y-4.3576
X6.7624Y-5.1181
X6.9593Y-5.1181
T4
X4.7156Y-4.7681
X4.8156Y-4.7681
T5
X2.9376Y-4.7169
X2.9376Y-4.8169
X2.9376Y-4.9169
X2.9376Y-5.0169
X2.9376Y-5.1169
X3.0376Y-4.7169
X3.0376Y-4.8169
X3.0376Y-4.9169
X3.0376Y-5.0169
X3.0376Y-5.1169
X3.3652Y-3.272
X3.4652Y-3.272
X2.938Y-4.5771
X3.038Y-4.5771
X2.9376Y-4.4354
X3.0376Y-4.4354
X7.7605Y-4.608
X7.7605Y-4.708
X7.8605Y-4.608
X7.8605Y-4.708
X7.9605Y-4.608
X7.9605Y-4.708
X8.0605Y-4.608
X8.0605Y-4.708
X8.1605Y-4.608
X8.1605Y-4.708
X8.2605Y-4.608
X8.2605Y-4.708
X8.9853Y-4.9324
X9.0853Y-4.9324
X8.4089Y-5.4521
X8.5089Y-5.4521
X8.6089Y-5.4521
X5.9603Y-3.3242
X5.9603Y-3.4242
X5.9603Y-3.5242
X5.9603Y-3.6242
X6.0603Y-3.3242
X6.0603Y-3.4242
X6.0603Y-3.5242
X6.0603Y-3.6242
X3.4652Y-5.3708
X3.4652Y-5.4708
X3.5652Y-5.3708
X3.5652Y-5.4708
X3.6652Y-5.3708
X3.6652Y-5.4708
X3.7652Y-5.3708
X3.7652Y-5.4708
X3.8652Y-5.3708
X3.8652Y-5.4708
X3.9652Y-5.3708
X3.9652Y-5.4708
X4.0652Y-5.3708
X4.0652Y-5.4708
X4.1652Y-5.3708
X4.1652Y-5.4708
X4.2652Y-5.3708
X4.2652Y-5.4708
X4.3652Y-5.3708
X4.3652Y-5.4708
X4.4652Y-5.3708
X4.4652Y-5.4708
X4.5652Y-5.3708
X4.5652Y-5.4708
X4.6652Y-5.3708
X4.6652Y-5.4708
X4.7652Y-5.3708
X4.7652Y-5.4708
X4.8652Y-5.3708
X4.8652Y-5.4708
X4.9652Y-5.3708
X4.9652Y-5.4708
X5.0652Y-5.3708
X5.0652Y-5.4708
X5.052Y-1.6126
X5.052Y-1.7126
X5.152Y-1.6126
X5.152Y-1.7126
X5.252Y-1.6126
X5.252Y-1.7126
X5.352Y-1.6126
X5.352Y-1.7126
T6
X2.9554Y-1.9403
X2.9554Y-2.1372
X2.9554Y-2.8744
X2.9554Y-3.0712
X2.9554Y-3.2681
X2.9554Y-3.4649
X7.2821Y-1.6411
X7.479Y-1.6411
X7.6758Y-1.6411
X7.8727Y-1.6411
X8.0695Y-1.6411
X8.2664Y-1.6411
T7
X9.252Y-3.0689
X9.4488Y-3.0689
X6.2979Y-3.8616
X6.4947Y-3.8616
X6.2992Y-3.0689
X6.4961Y-3.0689
X4.4435Y-1.7238
X4.6404Y-1.7238
X9.2546Y-3.8576
X9.4514Y-3.8576
T8
X3.3589Y-2.9452
X4.2447Y-2.9452
T9
X6.9441Y-2.9476
X6.9441Y-3.9776
X8.8039Y-2.9476
X8.8039Y-3.9776
T10
X2.9711Y-5.397
X9.4672Y-1.6569
X2.9711Y-1.6569
X5.727Y-5.397
X5.727Y-1.6569
X9.4672Y-5.397
T11
X3.8018Y-2.9452
T0
M30
