M48
;DRILL file {KiCad 5.0.2-bee76a0~70~ubuntu18.04.1} date Sa 06 Jun 2020 11:39:00 CEST
;FORMAT={-:-/ absolute / metric / decimal}
FMAT,2
METRIC,TZ
T1C0.200
T2C0.600
T3C0.750
T4C0.800
T5C0.900
T6C1.000
T7C1.100
T8C1.200
T9C1.300
T10C1.600
T11C3.170
T12C3.200
T13C2.700
T14C2.900
%
G90
G05
T1
X49.466Y-87.084
X51.466Y-53.084
X51.466Y-56.084
X52.466Y-53.084
X52.466Y-56.084
X53.066Y-67.434
X53.466Y-53.084
X53.466Y-56.084
X54.466Y-87.084
X55.966Y-52.184
X57.566Y-135.484
X57.893Y-97.557
X60.666Y-100.784
X61.666Y-57.784
X62.466Y-74.084
X62.466Y-79.084
X63.466Y-97.084
X63.466Y-101.084
X63.466Y-106.084
X63.466Y-107.084
X63.466Y-129.084
X64.066Y-51.384
X64.566Y-59.184
X65.763Y-57.733
X65.841Y-48.984
X65.866Y-51.384
X65.866Y-52.984
X65.866Y-54.684
X66.316Y-57.784
X66.466Y-111.084
X66.466Y-112.084
X66.566Y-122.484
X67.466Y-63.084
X67.466Y-64.084
X67.766Y-133.284
X68.566Y-54.184
X69.466Y-60.284
X69.466Y-79.084
X69.666Y-41.184
X69.666Y-45.384
X69.966Y-91.384
X69.966Y-124.484
X69.966Y-126.284
X70.666Y-48.784
X70.666Y-55.684
X71.266Y-54.984
X71.366Y-61.184
X72.024Y-108.151
X72.368Y-108.982
X73.466Y-114.884
X73.466Y-92.684
X74.066Y-123.684
X74.166Y-43.884
X74.166Y-54.484
X74.366Y-47.284
X74.466Y-74.084
X74.466Y-85.084
X74.466Y-107.084
X74.73Y-54.457
X74.766Y-117.984
X74.866Y-64.084
X75.266Y-54.484
X75.466Y-107.084
X75.616Y-91.384
X76.666Y-108.184
X76.766Y-59.884
X76.766Y-92.784
X77.266Y-53.084
X77.366Y-50.684
X77.366Y-51.184
X77.366Y-51.684
X77.466Y-97.084
X77.466Y-105.084
X77.566Y-108.684
X77.666Y-46.984
X77.666Y-115.784
X77.966Y-108.418
X79.566Y-118.984
X79.866Y-108.984
X79.891Y-107.259
X79.966Y-51.784
X80.005Y-127.208
X80.466Y-94.084
X80.566Y-114.809
X80.616Y-113.884
X80.816Y-56.734
X80.916Y-110.884
X81.066Y-54.684
X81.066Y-59.884
X81.166Y-122.934
X81.366Y-119.284
X81.466Y-119.984
X81.866Y-114.084
X81.991Y-98.209
X82.466Y-94.084
X82.566Y-110.784
X82.666Y-50.184
X82.666Y-126.284
X82.666Y-128.484
X84.216Y-111.084
X84.266Y-112.384
X84.315Y-110.605
X84.466Y-59.484
X84.466Y-105.084
X84.466Y-106.084
X85.366Y-113.384
X85.391Y-112.884
X85.466Y-59.484
X85.466Y-111.084
X86.166Y-119.284
X86.266Y-124.784
X86.466Y-103.084
X86.566Y-59.484
X87.366Y-53.484
X87.366Y-58.484
X87.466Y-59.084
X87.466Y-103.084
X87.541Y-124.709
X88.091Y-124.759
X88.366Y-106.084
X88.466Y-59.084
X88.666Y-124.684
X89.366Y-124.609
X89.466Y-59.084
X89.666Y-109.684
X90.166Y-109.884
X90.466Y-59.084
X90.766Y-111.184
X90.791Y-126.009
X91.366Y-109.584
X91.466Y-59.084
X92.466Y-59.084
X92.984Y-110.566
X93.091Y-73.084
X93.466Y-59.084
X93.516Y-110.134
X93.666Y-109.584
X93.766Y-106.084
X94.166Y-109.284
X94.466Y-59.084
X95.266Y-139.484
X96.566Y-65.584
X96.566Y-74.284
X96.766Y-139.484
X99.566Y-128.884
X104.391Y-121.734
X104.591Y-120.659
X110.466Y-97.084
X111.466Y-97.084
X112.466Y-97.084
X113.466Y-97.084
X114.266Y-117.334
X114.466Y-97.084
X114.866Y-116.784
X117.266Y-95.984
X117.466Y-103.284
X117.466Y-104.384
X118.166Y-103.884
X118.866Y-103.284
X118.866Y-104.384
X120.266Y-138.184
X120.466Y-105.084
X121.466Y-105.084
X122.466Y-102.984
X122.466Y-104.084
X122.666Y-137.034
X124.466Y-98.084
X125.466Y-51.084
X125.466Y-54.084
X125.466Y-98.084
X126.466Y-98.084
X127.466Y-52.084
X127.466Y-53.084
X127.466Y-98.084
X128.466Y-52.084
X128.466Y-53.084
X128.466Y-98.084
X129.466Y-98.084
X130.466Y-51.084
X130.466Y-54.084
X136.266Y-122.084
X136.766Y-121.584
X137.166Y-133.434
X137.366Y-139.784
X137.966Y-129.684
X138.766Y-138.184
X140.866Y-125.584
X141.678Y-124.272
X141.766Y-124.784
X146.166Y-120.084
X150.166Y-133.684
X153.466Y-104.084
X153.466Y-107.084
X153.466Y-108.084
X153.466Y-111.084
X153.666Y-116.284
X154.466Y-103.084
X154.466Y-112.084
X156.816Y-119.084
X157.766Y-116.284
X161.741Y-127.059
X161.741Y-129.259
X161.791Y-125.959
X162.966Y-129.484
X164.991Y-123.759
X165.027Y-124.859
X165.166Y-118.284
X165.666Y-133.484
X176.266Y-139.384
X187.566Y-139.384
X188.966Y-121.884
X190.866Y-100.084
X192.566Y-130.184
X192.866Y-76.384
X193.466Y-76.384
X194.066Y-76.384
X194.566Y-98.084
X195.266Y-98.084
X195.466Y-76.384
X196.066Y-78.084
X196.666Y-79.084
X197.266Y-80.084
X197.466Y-85.084
X197.466Y-132.684
X197.466Y-134.384
X197.727Y-98.895
X197.966Y-81.184
X198.066Y-132.884
X198.066Y-133.884
X198.466Y-85.084
X199.466Y-85.084
X199.675Y-139.375
X199.75Y-100.153
X200.466Y-85.084
X200.75Y-98.593
X201.466Y-85.084
X202.066Y-81.184
X202.466Y-85.084
X202.766Y-80.084
X203.266Y-79.084
X203.85Y-94.684
X203.903Y-129.647
X203.966Y-78.084
X204.041Y-94.209
X204.666Y-102.084
X204.866Y-76.484
X205.767Y-92.882
X206.166Y-76.484
X206.266Y-132.884
X206.766Y-76.484
X207.366Y-76.484
X207.466Y-86.084
X207.466Y-87.084
X207.466Y-88.084
X207.466Y-89.084
X209.066Y-100.784
X209.666Y-126.884
X211.466Y-86.084
X211.466Y-87.084
X211.466Y-88.084
X211.466Y-89.084
X212.266Y-120.884
X212.866Y-120.684
X213.466Y-119.784
X221.666Y-115.684
X233.466Y-121.084
X233.466Y-123.084
X237.466Y-119.084
X237.466Y-121.084
X237.466Y-123.084
X239.866Y-113.084
X73.486Y-50.404
X73.486Y-51.384
X73.486Y-52.364
X74.466Y-50.404
X74.466Y-51.384
X74.466Y-52.364
X75.446Y-50.404
X75.446Y-51.384
X75.446Y-52.364
T2
X218.066Y-132.884
X218.066Y-134.884
X57.478Y-90.536
X59.478Y-90.536
X211.966Y-110.784
X213.966Y-110.784
X177.066Y-110.584
X179.066Y-110.584
X228.366Y-118.884
X230.366Y-118.884
X237.966Y-107.884
X239.966Y-107.884
X76.566Y-68.284
X78.566Y-68.284
X146.166Y-129.484
X146.166Y-131.484
X49.878Y-108.186
X51.878Y-108.186
X217.966Y-127.584
X217.966Y-129.584
T3
X129.266Y-129.284
X130.536Y-129.284
X131.806Y-129.284
X129.296Y-135.984
X130.566Y-135.984
X131.836Y-135.984
T4
X89.666Y-43.684
X92.166Y-43.684
X179.9Y-66.
X184.9Y-66.
X223.9Y-51.
X228.9Y-51.
X171.766Y-130.
X176.766Y-130.
X223.9Y-55.
X228.9Y-55.
X176.4Y-61.
X181.4Y-61.
X203.566Y-138.5
X208.566Y-138.5
X218.9Y-61.
X223.9Y-61.
X191.116Y-107.934
X191.116Y-112.934
X171.9Y-51.
X176.9Y-51.
X180.9Y-55.
X185.9Y-55.
X180.9Y-51.
X185.9Y-51.
X180.166Y-138.5
X185.166Y-138.5
X182.291Y-110.559
X187.291Y-110.559
X179.866Y-124.048
X184.866Y-124.048
X198.266Y-124.084
X203.266Y-124.084
X214.9Y-66.
X219.9Y-66.
X217.741Y-110.534
X222.741Y-110.534
X125.666Y-111.384
X128.166Y-111.384
X130.666Y-111.384
X214.9Y-51.
X219.9Y-51.
X171.9Y-55.
X176.9Y-55.
X191.766Y-138.5
X196.766Y-138.5
X226.291Y-107.984
X226.291Y-112.984
X190.366Y-124.084
X195.366Y-124.084
X214.9Y-55.
X219.9Y-55.
X179.866Y-130.
X184.866Y-130.
X214.066Y-124.084
X219.066Y-124.084
X171.766Y-124.048
X176.766Y-124.048
X145.166Y-96.884
X145.166Y-99.384
X206.166Y-124.084
X211.166Y-124.084
T5
X95.526Y-121.384
X98.066Y-121.384
T6
X197.116Y-117.044
X197.116Y-119.584
X199.656Y-117.044
X199.656Y-119.584
X202.196Y-117.044
X202.196Y-119.584
X204.736Y-117.044
X204.736Y-119.584
X207.276Y-117.044
X207.276Y-119.584
X209.816Y-117.044
X209.816Y-119.584
X148.366Y-84.484
X148.366Y-87.024
X148.366Y-89.564
X148.366Y-92.104
X150.906Y-84.484
X150.906Y-87.024
X150.906Y-89.564
X150.906Y-92.104
X213.586Y-138.484
X216.126Y-138.484
X218.666Y-138.484
X102.006Y-125.084
X102.006Y-127.624
X104.546Y-125.084
X104.546Y-127.624
X107.086Y-125.084
X107.086Y-127.624
X109.626Y-125.084
X109.626Y-127.624
X112.166Y-125.084
X112.166Y-127.624
X50.366Y-120.084
X50.366Y-122.624
X50.366Y-125.164
X50.366Y-127.704
X50.366Y-130.244
X52.906Y-120.084
X52.906Y-122.624
X52.906Y-125.164
X52.906Y-127.704
X52.906Y-130.244
X63.916Y-132.044
X63.916Y-134.584
X66.456Y-132.044
X66.456Y-134.584
X68.996Y-132.044
X68.996Y-134.584
X71.536Y-132.044
X71.536Y-134.584
X74.076Y-132.044
X74.076Y-134.584
X76.616Y-132.044
X76.616Y-134.584
X79.156Y-132.044
X79.156Y-134.584
X81.696Y-132.044
X81.696Y-134.584
X84.236Y-132.044
X84.236Y-134.584
X86.776Y-132.044
X86.776Y-134.584
X89.316Y-132.044
X89.316Y-134.584
X91.856Y-132.044
X91.856Y-134.584
X94.396Y-132.044
X94.396Y-134.584
X96.936Y-132.044
X96.936Y-134.584
X99.476Y-132.044
X99.476Y-134.584
X102.016Y-132.044
X102.016Y-134.584
X104.556Y-132.044
X104.556Y-134.584
X107.096Y-132.044
X107.096Y-134.584
X109.636Y-132.044
X109.636Y-134.584
X112.176Y-132.044
X112.176Y-134.584
X116.911Y-126.959
X116.911Y-129.499
X116.911Y-132.039
X116.911Y-134.579
X61.226Y-83.384
X63.766Y-83.384
X108.166Y-43.184
X108.166Y-45.724
X108.166Y-48.264
X108.166Y-50.804
X110.706Y-43.184
X110.706Y-45.724
X110.706Y-48.264
X110.706Y-50.804
X50.366Y-113.984
X52.906Y-113.984
X228.226Y-125.284
X230.766Y-125.284
T7
X192.366Y-41.884
X197.366Y-41.884
X202.366Y-41.884
X207.366Y-41.884
X50.066Y-49.584
X50.066Y-54.584
X50.066Y-73.284
X50.066Y-78.284
X50.066Y-83.284
X50.066Y-88.284
T8
X235.Y-77.95
X240.Y-77.95
X107.166Y-76.284
X107.166Y-81.284
X235.Y-97.95
X240.Y-97.95
X160.Y-77.95
X165.Y-77.95
X160.Y-97.95
X165.Y-97.95
T9
X57.166Y-75.934
X79.666Y-75.934
T10
X165.406Y-59.
X165.406Y-65.
X206.9Y-59.
X206.9Y-65.
X192.9Y-59.
X192.9Y-65.
X234.9Y-59.
X234.9Y-65.
T11
X176.38Y-74.87
X176.38Y-101.03
X223.62Y-74.87
X223.62Y-101.03
T12
X145.466Y-137.084
X240.466Y-137.084
X240.466Y-42.084
X50.466Y-137.084
X145.466Y-42.084
X50.466Y-42.084
T13
X68.416Y-75.934
T14
X96.966Y-42.884
X96.966Y-95.384
X133.466Y-42.884
X133.466Y-95.384
T0
M30
