G04 #@! TF.GenerationSoftware,KiCad,Pcbnew,(5.1.6)-1*
G04 #@! TF.CreationDate,2020-07-10T11:15:32+02:00*
G04 #@! TF.ProjectId,MukkeBox,4d756b6b-6542-46f7-982e-6b696361645f,rev?*
G04 #@! TF.SameCoordinates,Original*
G04 #@! TF.FileFunction,Paste,Top*
G04 #@! TF.FilePolarity,Positive*
%FSLAX46Y46*%
G04 Gerber Fmt 4.6, Leading zero omitted, Abs format (unit mm)*
G04 Created by KiCad (PCBNEW (5.1.6)-1) date 2020-07-10 11:15:32*
%MOMM*%
%LPD*%
G01*
G04 APERTURE LIST*
%ADD10C,0.150000*%
%ADD11R,0.420000X0.700000*%
%ADD12R,0.420000X0.560000*%
%ADD13R,1.000000X0.600000*%
%ADD14R,0.900000X0.800000*%
%ADD15R,1.850000X13.700000*%
%ADD16R,0.250000X1.300000*%
%ADD17R,1.300000X0.250000*%
%ADD18R,0.400000X1.100000*%
%ADD19R,2.000000X4.500000*%
%ADD20R,1.500000X3.600000*%
%ADD21R,0.650000X1.560000*%
%ADD22R,0.800000X0.900000*%
%ADD23R,0.650000X1.220000*%
%ADD24R,4.000000X3.850000*%
%ADD25R,0.760000X0.660000*%
%ADD26R,0.305000X1.550000*%
%ADD27R,1.300000X1.200000*%
%ADD28R,0.950000X1.000000*%
%ADD29R,0.700000X0.420000*%
%ADD30R,0.560000X0.420000*%
%ADD31R,0.600000X1.000000*%
%ADD32R,2.400000X0.800000*%
%ADD33R,3.300000X5.000000*%
%ADD34R,3.500000X3.800000*%
%ADD35R,0.400000X1.200000*%
G04 APERTURE END LIST*
G36*
G01*
X201366000Y-88346500D02*
X201366000Y-88821500D01*
G75*
G02*
X201128500Y-89059000I-237500J0D01*
G01*
X200553500Y-89059000D01*
G75*
G02*
X200316000Y-88821500I0J237500D01*
G01*
X200316000Y-88346500D01*
G75*
G02*
X200553500Y-88109000I237500J0D01*
G01*
X201128500Y-88109000D01*
G75*
G02*
X201366000Y-88346500I0J-237500D01*
G01*
G37*
G36*
G01*
X199616000Y-88346500D02*
X199616000Y-88821500D01*
G75*
G02*
X199378500Y-89059000I-237500J0D01*
G01*
X198803500Y-89059000D01*
G75*
G02*
X198566000Y-88821500I0J237500D01*
G01*
X198566000Y-88346500D01*
G75*
G02*
X198803500Y-88109000I237500J0D01*
G01*
X199378500Y-88109000D01*
G75*
G02*
X199616000Y-88346500I0J-237500D01*
G01*
G37*
G36*
G01*
X100378500Y-49734000D02*
X101028500Y-49734000D01*
G75*
G02*
X101091000Y-49796500I0J-62500D01*
G01*
X101091000Y-49921500D01*
G75*
G02*
X101028500Y-49984000I-62500J0D01*
G01*
X100378500Y-49984000D01*
G75*
G02*
X100316000Y-49921500I0J62500D01*
G01*
X100316000Y-49796500D01*
G75*
G02*
X100378500Y-49734000I62500J0D01*
G01*
G37*
G36*
G01*
X100378500Y-50234000D02*
X101028500Y-50234000D01*
G75*
G02*
X101091000Y-50296500I0J-62500D01*
G01*
X101091000Y-50421500D01*
G75*
G02*
X101028500Y-50484000I-62500J0D01*
G01*
X100378500Y-50484000D01*
G75*
G02*
X100316000Y-50421500I0J62500D01*
G01*
X100316000Y-50296500D01*
G75*
G02*
X100378500Y-50234000I62500J0D01*
G01*
G37*
G36*
G01*
X100378500Y-50734000D02*
X101028500Y-50734000D01*
G75*
G02*
X101091000Y-50796500I0J-62500D01*
G01*
X101091000Y-50921500D01*
G75*
G02*
X101028500Y-50984000I-62500J0D01*
G01*
X100378500Y-50984000D01*
G75*
G02*
X100316000Y-50921500I0J62500D01*
G01*
X100316000Y-50796500D01*
G75*
G02*
X100378500Y-50734000I62500J0D01*
G01*
G37*
G36*
G01*
X100378500Y-51234000D02*
X101028500Y-51234000D01*
G75*
G02*
X101091000Y-51296500I0J-62500D01*
G01*
X101091000Y-51421500D01*
G75*
G02*
X101028500Y-51484000I-62500J0D01*
G01*
X100378500Y-51484000D01*
G75*
G02*
X100316000Y-51421500I0J62500D01*
G01*
X100316000Y-51296500D01*
G75*
G02*
X100378500Y-51234000I62500J0D01*
G01*
G37*
G36*
G01*
X100378500Y-51734000D02*
X101028500Y-51734000D01*
G75*
G02*
X101091000Y-51796500I0J-62500D01*
G01*
X101091000Y-51921500D01*
G75*
G02*
X101028500Y-51984000I-62500J0D01*
G01*
X100378500Y-51984000D01*
G75*
G02*
X100316000Y-51921500I0J62500D01*
G01*
X100316000Y-51796500D01*
G75*
G02*
X100378500Y-51734000I62500J0D01*
G01*
G37*
G36*
G01*
X100378500Y-52234000D02*
X101028500Y-52234000D01*
G75*
G02*
X101091000Y-52296500I0J-62500D01*
G01*
X101091000Y-52421500D01*
G75*
G02*
X101028500Y-52484000I-62500J0D01*
G01*
X100378500Y-52484000D01*
G75*
G02*
X100316000Y-52421500I0J62500D01*
G01*
X100316000Y-52296500D01*
G75*
G02*
X100378500Y-52234000I62500J0D01*
G01*
G37*
G36*
G01*
X99903500Y-52709000D02*
X100028500Y-52709000D01*
G75*
G02*
X100091000Y-52771500I0J-62500D01*
G01*
X100091000Y-53421500D01*
G75*
G02*
X100028500Y-53484000I-62500J0D01*
G01*
X99903500Y-53484000D01*
G75*
G02*
X99841000Y-53421500I0J62500D01*
G01*
X99841000Y-52771500D01*
G75*
G02*
X99903500Y-52709000I62500J0D01*
G01*
G37*
G36*
G01*
X99403500Y-52709000D02*
X99528500Y-52709000D01*
G75*
G02*
X99591000Y-52771500I0J-62500D01*
G01*
X99591000Y-53421500D01*
G75*
G02*
X99528500Y-53484000I-62500J0D01*
G01*
X99403500Y-53484000D01*
G75*
G02*
X99341000Y-53421500I0J62500D01*
G01*
X99341000Y-52771500D01*
G75*
G02*
X99403500Y-52709000I62500J0D01*
G01*
G37*
G36*
G01*
X98903500Y-52709000D02*
X99028500Y-52709000D01*
G75*
G02*
X99091000Y-52771500I0J-62500D01*
G01*
X99091000Y-53421500D01*
G75*
G02*
X99028500Y-53484000I-62500J0D01*
G01*
X98903500Y-53484000D01*
G75*
G02*
X98841000Y-53421500I0J62500D01*
G01*
X98841000Y-52771500D01*
G75*
G02*
X98903500Y-52709000I62500J0D01*
G01*
G37*
G36*
G01*
X98403500Y-52709000D02*
X98528500Y-52709000D01*
G75*
G02*
X98591000Y-52771500I0J-62500D01*
G01*
X98591000Y-53421500D01*
G75*
G02*
X98528500Y-53484000I-62500J0D01*
G01*
X98403500Y-53484000D01*
G75*
G02*
X98341000Y-53421500I0J62500D01*
G01*
X98341000Y-52771500D01*
G75*
G02*
X98403500Y-52709000I62500J0D01*
G01*
G37*
G36*
G01*
X97903500Y-52709000D02*
X98028500Y-52709000D01*
G75*
G02*
X98091000Y-52771500I0J-62500D01*
G01*
X98091000Y-53421500D01*
G75*
G02*
X98028500Y-53484000I-62500J0D01*
G01*
X97903500Y-53484000D01*
G75*
G02*
X97841000Y-53421500I0J62500D01*
G01*
X97841000Y-52771500D01*
G75*
G02*
X97903500Y-52709000I62500J0D01*
G01*
G37*
G36*
G01*
X97403500Y-52709000D02*
X97528500Y-52709000D01*
G75*
G02*
X97591000Y-52771500I0J-62500D01*
G01*
X97591000Y-53421500D01*
G75*
G02*
X97528500Y-53484000I-62500J0D01*
G01*
X97403500Y-53484000D01*
G75*
G02*
X97341000Y-53421500I0J62500D01*
G01*
X97341000Y-52771500D01*
G75*
G02*
X97403500Y-52709000I62500J0D01*
G01*
G37*
G36*
G01*
X96403500Y-52234000D02*
X97053500Y-52234000D01*
G75*
G02*
X97116000Y-52296500I0J-62500D01*
G01*
X97116000Y-52421500D01*
G75*
G02*
X97053500Y-52484000I-62500J0D01*
G01*
X96403500Y-52484000D01*
G75*
G02*
X96341000Y-52421500I0J62500D01*
G01*
X96341000Y-52296500D01*
G75*
G02*
X96403500Y-52234000I62500J0D01*
G01*
G37*
G36*
G01*
X96403500Y-51734000D02*
X97053500Y-51734000D01*
G75*
G02*
X97116000Y-51796500I0J-62500D01*
G01*
X97116000Y-51921500D01*
G75*
G02*
X97053500Y-51984000I-62500J0D01*
G01*
X96403500Y-51984000D01*
G75*
G02*
X96341000Y-51921500I0J62500D01*
G01*
X96341000Y-51796500D01*
G75*
G02*
X96403500Y-51734000I62500J0D01*
G01*
G37*
G36*
G01*
X96403500Y-51234000D02*
X97053500Y-51234000D01*
G75*
G02*
X97116000Y-51296500I0J-62500D01*
G01*
X97116000Y-51421500D01*
G75*
G02*
X97053500Y-51484000I-62500J0D01*
G01*
X96403500Y-51484000D01*
G75*
G02*
X96341000Y-51421500I0J62500D01*
G01*
X96341000Y-51296500D01*
G75*
G02*
X96403500Y-51234000I62500J0D01*
G01*
G37*
G36*
G01*
X96403500Y-50734000D02*
X97053500Y-50734000D01*
G75*
G02*
X97116000Y-50796500I0J-62500D01*
G01*
X97116000Y-50921500D01*
G75*
G02*
X97053500Y-50984000I-62500J0D01*
G01*
X96403500Y-50984000D01*
G75*
G02*
X96341000Y-50921500I0J62500D01*
G01*
X96341000Y-50796500D01*
G75*
G02*
X96403500Y-50734000I62500J0D01*
G01*
G37*
G36*
G01*
X96403500Y-50234000D02*
X97053500Y-50234000D01*
G75*
G02*
X97116000Y-50296500I0J-62500D01*
G01*
X97116000Y-50421500D01*
G75*
G02*
X97053500Y-50484000I-62500J0D01*
G01*
X96403500Y-50484000D01*
G75*
G02*
X96341000Y-50421500I0J62500D01*
G01*
X96341000Y-50296500D01*
G75*
G02*
X96403500Y-50234000I62500J0D01*
G01*
G37*
G36*
G01*
X96403500Y-49734000D02*
X97053500Y-49734000D01*
G75*
G02*
X97116000Y-49796500I0J-62500D01*
G01*
X97116000Y-49921500D01*
G75*
G02*
X97053500Y-49984000I-62500J0D01*
G01*
X96403500Y-49984000D01*
G75*
G02*
X96341000Y-49921500I0J62500D01*
G01*
X96341000Y-49796500D01*
G75*
G02*
X96403500Y-49734000I62500J0D01*
G01*
G37*
G36*
G01*
X97403500Y-48734000D02*
X97528500Y-48734000D01*
G75*
G02*
X97591000Y-48796500I0J-62500D01*
G01*
X97591000Y-49446500D01*
G75*
G02*
X97528500Y-49509000I-62500J0D01*
G01*
X97403500Y-49509000D01*
G75*
G02*
X97341000Y-49446500I0J62500D01*
G01*
X97341000Y-48796500D01*
G75*
G02*
X97403500Y-48734000I62500J0D01*
G01*
G37*
G36*
G01*
X97903500Y-48734000D02*
X98028500Y-48734000D01*
G75*
G02*
X98091000Y-48796500I0J-62500D01*
G01*
X98091000Y-49446500D01*
G75*
G02*
X98028500Y-49509000I-62500J0D01*
G01*
X97903500Y-49509000D01*
G75*
G02*
X97841000Y-49446500I0J62500D01*
G01*
X97841000Y-48796500D01*
G75*
G02*
X97903500Y-48734000I62500J0D01*
G01*
G37*
G36*
G01*
X98403500Y-48734000D02*
X98528500Y-48734000D01*
G75*
G02*
X98591000Y-48796500I0J-62500D01*
G01*
X98591000Y-49446500D01*
G75*
G02*
X98528500Y-49509000I-62500J0D01*
G01*
X98403500Y-49509000D01*
G75*
G02*
X98341000Y-49446500I0J62500D01*
G01*
X98341000Y-48796500D01*
G75*
G02*
X98403500Y-48734000I62500J0D01*
G01*
G37*
G36*
G01*
X98903500Y-48734000D02*
X99028500Y-48734000D01*
G75*
G02*
X99091000Y-48796500I0J-62500D01*
G01*
X99091000Y-49446500D01*
G75*
G02*
X99028500Y-49509000I-62500J0D01*
G01*
X98903500Y-49509000D01*
G75*
G02*
X98841000Y-49446500I0J62500D01*
G01*
X98841000Y-48796500D01*
G75*
G02*
X98903500Y-48734000I62500J0D01*
G01*
G37*
G36*
G01*
X99403500Y-48734000D02*
X99528500Y-48734000D01*
G75*
G02*
X99591000Y-48796500I0J-62500D01*
G01*
X99591000Y-49446500D01*
G75*
G02*
X99528500Y-49509000I-62500J0D01*
G01*
X99403500Y-49509000D01*
G75*
G02*
X99341000Y-49446500I0J62500D01*
G01*
X99341000Y-48796500D01*
G75*
G02*
X99403500Y-48734000I62500J0D01*
G01*
G37*
G36*
G01*
X99903500Y-48734000D02*
X100028500Y-48734000D01*
G75*
G02*
X100091000Y-48796500I0J-62500D01*
G01*
X100091000Y-49446500D01*
G75*
G02*
X100028500Y-49509000I-62500J0D01*
G01*
X99903500Y-49509000D01*
G75*
G02*
X99841000Y-49446500I0J62500D01*
G01*
X99841000Y-48796500D01*
G75*
G02*
X99903500Y-48734000I62500J0D01*
G01*
G37*
D10*
G36*
X98468915Y-52053242D02*
G01*
X97983085Y-52053242D01*
X97771758Y-51841915D01*
X97771758Y-51356085D01*
X97983085Y-51144758D01*
X98468915Y-51144758D01*
X98680242Y-51356085D01*
X98680242Y-51841915D01*
X98468915Y-52053242D01*
G37*
G36*
X99448915Y-52053242D02*
G01*
X98963085Y-52053242D01*
X98751758Y-51841915D01*
X98751758Y-51356085D01*
X98963085Y-51144758D01*
X99448915Y-51144758D01*
X99660242Y-51356085D01*
X99660242Y-51841915D01*
X99448915Y-52053242D01*
G37*
G36*
X98468915Y-51073242D02*
G01*
X97983085Y-51073242D01*
X97771758Y-50861915D01*
X97771758Y-50376085D01*
X97983085Y-50164758D01*
X98468915Y-50164758D01*
X98680242Y-50376085D01*
X98680242Y-50861915D01*
X98468915Y-51073242D01*
G37*
G36*
X99448915Y-51073242D02*
G01*
X98963085Y-51073242D01*
X98751758Y-50861915D01*
X98751758Y-50376085D01*
X98963085Y-50164758D01*
X99448915Y-50164758D01*
X99660242Y-50376085D01*
X99660242Y-50861915D01*
X99448915Y-51073242D01*
G37*
G36*
G01*
X92766000Y-51346500D02*
X92766000Y-50871500D01*
G75*
G02*
X93003500Y-50634000I237500J0D01*
G01*
X93578500Y-50634000D01*
G75*
G02*
X93816000Y-50871500I0J-237500D01*
G01*
X93816000Y-51346500D01*
G75*
G02*
X93578500Y-51584000I-237500J0D01*
G01*
X93003500Y-51584000D01*
G75*
G02*
X92766000Y-51346500I0J237500D01*
G01*
G37*
G36*
G01*
X91016000Y-51346500D02*
X91016000Y-50871500D01*
G75*
G02*
X91253500Y-50634000I237500J0D01*
G01*
X91828500Y-50634000D01*
G75*
G02*
X92066000Y-50871500I0J-237500D01*
G01*
X92066000Y-51346500D01*
G75*
G02*
X91828500Y-51584000I-237500J0D01*
G01*
X91253500Y-51584000D01*
G75*
G02*
X91016000Y-51346500I0J237500D01*
G01*
G37*
G36*
G01*
X92766000Y-52946500D02*
X92766000Y-52471500D01*
G75*
G02*
X93003500Y-52234000I237500J0D01*
G01*
X93578500Y-52234000D01*
G75*
G02*
X93816000Y-52471500I0J-237500D01*
G01*
X93816000Y-52946500D01*
G75*
G02*
X93578500Y-53184000I-237500J0D01*
G01*
X93003500Y-53184000D01*
G75*
G02*
X92766000Y-52946500I0J237500D01*
G01*
G37*
G36*
G01*
X91016000Y-52946500D02*
X91016000Y-52471500D01*
G75*
G02*
X91253500Y-52234000I237500J0D01*
G01*
X91828500Y-52234000D01*
G75*
G02*
X92066000Y-52471500I0J-237500D01*
G01*
X92066000Y-52946500D01*
G75*
G02*
X91828500Y-53184000I-237500J0D01*
G01*
X91253500Y-53184000D01*
G75*
G02*
X91016000Y-52946500I0J237500D01*
G01*
G37*
G36*
G01*
X93266000Y-46446500D02*
X93266000Y-45971500D01*
G75*
G02*
X93503500Y-45734000I237500J0D01*
G01*
X94078500Y-45734000D01*
G75*
G02*
X94316000Y-45971500I0J-237500D01*
G01*
X94316000Y-46446500D01*
G75*
G02*
X94078500Y-46684000I-237500J0D01*
G01*
X93503500Y-46684000D01*
G75*
G02*
X93266000Y-46446500I0J237500D01*
G01*
G37*
G36*
G01*
X91516000Y-46446500D02*
X91516000Y-45971500D01*
G75*
G02*
X91753500Y-45734000I237500J0D01*
G01*
X92328500Y-45734000D01*
G75*
G02*
X92566000Y-45971500I0J-237500D01*
G01*
X92566000Y-46446500D01*
G75*
G02*
X92328500Y-46684000I-237500J0D01*
G01*
X91753500Y-46684000D01*
G75*
G02*
X91516000Y-46446500I0J237500D01*
G01*
G37*
D11*
X108941000Y-55209000D03*
X109591000Y-55209000D03*
X110241000Y-55209000D03*
X110891000Y-55209000D03*
D12*
X108941000Y-58159000D03*
X110241000Y-58159000D03*
X109591000Y-58159000D03*
X110891000Y-58159000D03*
D13*
X109351000Y-56689000D03*
X109351000Y-55979000D03*
X110481000Y-55979000D03*
X110481000Y-56689000D03*
G36*
G01*
X104691000Y-60684000D02*
X104691000Y-58534000D01*
G75*
G02*
X104941000Y-58284000I250000J0D01*
G01*
X105691000Y-58284000D01*
G75*
G02*
X105941000Y-58534000I0J-250000D01*
G01*
X105941000Y-60684000D01*
G75*
G02*
X105691000Y-60934000I-250000J0D01*
G01*
X104941000Y-60934000D01*
G75*
G02*
X104691000Y-60684000I0J250000D01*
G01*
G37*
G36*
G01*
X101891000Y-60684000D02*
X101891000Y-58534000D01*
G75*
G02*
X102141000Y-58284000I250000J0D01*
G01*
X102891000Y-58284000D01*
G75*
G02*
X103141000Y-58534000I0J-250000D01*
G01*
X103141000Y-60684000D01*
G75*
G02*
X102891000Y-60934000I-250000J0D01*
G01*
X102141000Y-60934000D01*
G75*
G02*
X101891000Y-60684000I0J250000D01*
G01*
G37*
D14*
X119416000Y-76759000D03*
X117416000Y-77709000D03*
X117416000Y-75809000D03*
G36*
G01*
X116266000Y-79371500D02*
X116266000Y-79846500D01*
G75*
G02*
X116028500Y-80084000I-237500J0D01*
G01*
X115453500Y-80084000D01*
G75*
G02*
X115216000Y-79846500I0J237500D01*
G01*
X115216000Y-79371500D01*
G75*
G02*
X115453500Y-79134000I237500J0D01*
G01*
X116028500Y-79134000D01*
G75*
G02*
X116266000Y-79371500I0J-237500D01*
G01*
G37*
G36*
G01*
X118016000Y-79371500D02*
X118016000Y-79846500D01*
G75*
G02*
X117778500Y-80084000I-237500J0D01*
G01*
X117203500Y-80084000D01*
G75*
G02*
X116966000Y-79846500I0J237500D01*
G01*
X116966000Y-79371500D01*
G75*
G02*
X117203500Y-79134000I237500J0D01*
G01*
X117778500Y-79134000D01*
G75*
G02*
X118016000Y-79371500I0J-237500D01*
G01*
G37*
G36*
G01*
X128753500Y-53059000D02*
X128278500Y-53059000D01*
G75*
G02*
X128041000Y-52821500I0J237500D01*
G01*
X128041000Y-52246500D01*
G75*
G02*
X128278500Y-52009000I237500J0D01*
G01*
X128753500Y-52009000D01*
G75*
G02*
X128991000Y-52246500I0J-237500D01*
G01*
X128991000Y-52821500D01*
G75*
G02*
X128753500Y-53059000I-237500J0D01*
G01*
G37*
G36*
G01*
X128753500Y-54809000D02*
X128278500Y-54809000D01*
G75*
G02*
X128041000Y-54571500I0J237500D01*
G01*
X128041000Y-53996500D01*
G75*
G02*
X128278500Y-53759000I237500J0D01*
G01*
X128753500Y-53759000D01*
G75*
G02*
X128991000Y-53996500I0J-237500D01*
G01*
X128991000Y-54571500D01*
G75*
G02*
X128753500Y-54809000I-237500J0D01*
G01*
G37*
G36*
G01*
X115478500Y-77059000D02*
X115953500Y-77059000D01*
G75*
G02*
X116191000Y-77296500I0J-237500D01*
G01*
X116191000Y-77871500D01*
G75*
G02*
X115953500Y-78109000I-237500J0D01*
G01*
X115478500Y-78109000D01*
G75*
G02*
X115241000Y-77871500I0J237500D01*
G01*
X115241000Y-77296500D01*
G75*
G02*
X115478500Y-77059000I237500J0D01*
G01*
G37*
G36*
G01*
X115478500Y-75309000D02*
X115953500Y-75309000D01*
G75*
G02*
X116191000Y-75546500I0J-237500D01*
G01*
X116191000Y-76121500D01*
G75*
G02*
X115953500Y-76359000I-237500J0D01*
G01*
X115478500Y-76359000D01*
G75*
G02*
X115241000Y-76121500I0J237500D01*
G01*
X115241000Y-75546500D01*
G75*
G02*
X115478500Y-75309000I237500J0D01*
G01*
G37*
G36*
G01*
X106953500Y-122359000D02*
X106478500Y-122359000D01*
G75*
G02*
X106241000Y-122121500I0J237500D01*
G01*
X106241000Y-121546500D01*
G75*
G02*
X106478500Y-121309000I237500J0D01*
G01*
X106953500Y-121309000D01*
G75*
G02*
X107191000Y-121546500I0J-237500D01*
G01*
X107191000Y-122121500D01*
G75*
G02*
X106953500Y-122359000I-237500J0D01*
G01*
G37*
G36*
G01*
X106953500Y-124109000D02*
X106478500Y-124109000D01*
G75*
G02*
X106241000Y-123871500I0J237500D01*
G01*
X106241000Y-123296500D01*
G75*
G02*
X106478500Y-123059000I237500J0D01*
G01*
X106953500Y-123059000D01*
G75*
G02*
X107191000Y-123296500I0J-237500D01*
G01*
X107191000Y-123871500D01*
G75*
G02*
X106953500Y-124109000I-237500J0D01*
G01*
G37*
G36*
G01*
X90578500Y-109109000D02*
X91053500Y-109109000D01*
G75*
G02*
X91291000Y-109346500I0J-237500D01*
G01*
X91291000Y-109921500D01*
G75*
G02*
X91053500Y-110159000I-237500J0D01*
G01*
X90578500Y-110159000D01*
G75*
G02*
X90341000Y-109921500I0J237500D01*
G01*
X90341000Y-109346500D01*
G75*
G02*
X90578500Y-109109000I237500J0D01*
G01*
G37*
G36*
G01*
X90578500Y-107359000D02*
X91053500Y-107359000D01*
G75*
G02*
X91291000Y-107596500I0J-237500D01*
G01*
X91291000Y-108171500D01*
G75*
G02*
X91053500Y-108409000I-237500J0D01*
G01*
X90578500Y-108409000D01*
G75*
G02*
X90341000Y-108171500I0J237500D01*
G01*
X90341000Y-107596500D01*
G75*
G02*
X90578500Y-107359000I237500J0D01*
G01*
G37*
G36*
G01*
X91078500Y-115159000D02*
X90603500Y-115159000D01*
G75*
G02*
X90366000Y-114921500I0J237500D01*
G01*
X90366000Y-114346500D01*
G75*
G02*
X90603500Y-114109000I237500J0D01*
G01*
X91078500Y-114109000D01*
G75*
G02*
X91316000Y-114346500I0J-237500D01*
G01*
X91316000Y-114921500D01*
G75*
G02*
X91078500Y-115159000I-237500J0D01*
G01*
G37*
G36*
G01*
X91078500Y-116909000D02*
X90603500Y-116909000D01*
G75*
G02*
X90366000Y-116671500I0J237500D01*
G01*
X90366000Y-116096500D01*
G75*
G02*
X90603500Y-115859000I237500J0D01*
G01*
X91078500Y-115859000D01*
G75*
G02*
X91316000Y-116096500I0J-237500D01*
G01*
X91316000Y-116671500D01*
G75*
G02*
X91078500Y-116909000I-237500J0D01*
G01*
G37*
G36*
G01*
X105353500Y-104159000D02*
X104878500Y-104159000D01*
G75*
G02*
X104641000Y-103921500I0J237500D01*
G01*
X104641000Y-103346500D01*
G75*
G02*
X104878500Y-103109000I237500J0D01*
G01*
X105353500Y-103109000D01*
G75*
G02*
X105591000Y-103346500I0J-237500D01*
G01*
X105591000Y-103921500D01*
G75*
G02*
X105353500Y-104159000I-237500J0D01*
G01*
G37*
G36*
G01*
X105353500Y-105909000D02*
X104878500Y-105909000D01*
G75*
G02*
X104641000Y-105671500I0J237500D01*
G01*
X104641000Y-105096500D01*
G75*
G02*
X104878500Y-104859000I237500J0D01*
G01*
X105353500Y-104859000D01*
G75*
G02*
X105591000Y-105096500I0J-237500D01*
G01*
X105591000Y-105671500D01*
G75*
G02*
X105353500Y-105909000I-237500J0D01*
G01*
G37*
G36*
G01*
X100166000Y-109071500D02*
X100166000Y-109546500D01*
G75*
G02*
X99928500Y-109784000I-237500J0D01*
G01*
X99353500Y-109784000D01*
G75*
G02*
X99116000Y-109546500I0J237500D01*
G01*
X99116000Y-109071500D01*
G75*
G02*
X99353500Y-108834000I237500J0D01*
G01*
X99928500Y-108834000D01*
G75*
G02*
X100166000Y-109071500I0J-237500D01*
G01*
G37*
G36*
G01*
X101916000Y-109071500D02*
X101916000Y-109546500D01*
G75*
G02*
X101678500Y-109784000I-237500J0D01*
G01*
X101103500Y-109784000D01*
G75*
G02*
X100866000Y-109546500I0J237500D01*
G01*
X100866000Y-109071500D01*
G75*
G02*
X101103500Y-108834000I237500J0D01*
G01*
X101678500Y-108834000D01*
G75*
G02*
X101916000Y-109071500I0J-237500D01*
G01*
G37*
G36*
G01*
X99566000Y-115971500D02*
X99566000Y-116446500D01*
G75*
G02*
X99328500Y-116684000I-237500J0D01*
G01*
X98753500Y-116684000D01*
G75*
G02*
X98516000Y-116446500I0J237500D01*
G01*
X98516000Y-115971500D01*
G75*
G02*
X98753500Y-115734000I237500J0D01*
G01*
X99328500Y-115734000D01*
G75*
G02*
X99566000Y-115971500I0J-237500D01*
G01*
G37*
G36*
G01*
X101316000Y-115971500D02*
X101316000Y-116446500D01*
G75*
G02*
X101078500Y-116684000I-237500J0D01*
G01*
X100503500Y-116684000D01*
G75*
G02*
X100266000Y-116446500I0J237500D01*
G01*
X100266000Y-115971500D01*
G75*
G02*
X100503500Y-115734000I237500J0D01*
G01*
X101078500Y-115734000D01*
G75*
G02*
X101316000Y-115971500I0J-237500D01*
G01*
G37*
G36*
G01*
X112278500Y-122059000D02*
X112753500Y-122059000D01*
G75*
G02*
X112991000Y-122296500I0J-237500D01*
G01*
X112991000Y-122871500D01*
G75*
G02*
X112753500Y-123109000I-237500J0D01*
G01*
X112278500Y-123109000D01*
G75*
G02*
X112041000Y-122871500I0J237500D01*
G01*
X112041000Y-122296500D01*
G75*
G02*
X112278500Y-122059000I237500J0D01*
G01*
G37*
G36*
G01*
X112278500Y-120309000D02*
X112753500Y-120309000D01*
G75*
G02*
X112991000Y-120546500I0J-237500D01*
G01*
X112991000Y-121121500D01*
G75*
G02*
X112753500Y-121359000I-237500J0D01*
G01*
X112278500Y-121359000D01*
G75*
G02*
X112041000Y-121121500I0J237500D01*
G01*
X112041000Y-120546500D01*
G75*
G02*
X112278500Y-120309000I237500J0D01*
G01*
G37*
G36*
G01*
X99228500Y-122059000D02*
X99703500Y-122059000D01*
G75*
G02*
X99941000Y-122296500I0J-237500D01*
G01*
X99941000Y-122871500D01*
G75*
G02*
X99703500Y-123109000I-237500J0D01*
G01*
X99228500Y-123109000D01*
G75*
G02*
X98991000Y-122871500I0J237500D01*
G01*
X98991000Y-122296500D01*
G75*
G02*
X99228500Y-122059000I237500J0D01*
G01*
G37*
G36*
G01*
X99228500Y-120309000D02*
X99703500Y-120309000D01*
G75*
G02*
X99941000Y-120546500I0J-237500D01*
G01*
X99941000Y-121121500D01*
G75*
G02*
X99703500Y-121359000I-237500J0D01*
G01*
X99228500Y-121359000D01*
G75*
G02*
X98991000Y-121121500I0J237500D01*
G01*
X98991000Y-120546500D01*
G75*
G02*
X99228500Y-120309000I237500J0D01*
G01*
G37*
G36*
G01*
X101703500Y-121359000D02*
X101228500Y-121359000D01*
G75*
G02*
X100991000Y-121121500I0J237500D01*
G01*
X100991000Y-120546500D01*
G75*
G02*
X101228500Y-120309000I237500J0D01*
G01*
X101703500Y-120309000D01*
G75*
G02*
X101941000Y-120546500I0J-237500D01*
G01*
X101941000Y-121121500D01*
G75*
G02*
X101703500Y-121359000I-237500J0D01*
G01*
G37*
G36*
G01*
X101703500Y-123109000D02*
X101228500Y-123109000D01*
G75*
G02*
X100991000Y-122871500I0J237500D01*
G01*
X100991000Y-122296500D01*
G75*
G02*
X101228500Y-122059000I237500J0D01*
G01*
X101703500Y-122059000D01*
G75*
G02*
X101941000Y-122296500I0J-237500D01*
G01*
X101941000Y-122871500D01*
G75*
G02*
X101703500Y-123109000I-237500J0D01*
G01*
G37*
G36*
G01*
X95078500Y-122059000D02*
X95553500Y-122059000D01*
G75*
G02*
X95791000Y-122296500I0J-237500D01*
G01*
X95791000Y-122871500D01*
G75*
G02*
X95553500Y-123109000I-237500J0D01*
G01*
X95078500Y-123109000D01*
G75*
G02*
X94841000Y-122871500I0J237500D01*
G01*
X94841000Y-122296500D01*
G75*
G02*
X95078500Y-122059000I237500J0D01*
G01*
G37*
G36*
G01*
X95078500Y-120309000D02*
X95553500Y-120309000D01*
G75*
G02*
X95791000Y-120546500I0J-237500D01*
G01*
X95791000Y-121121500D01*
G75*
G02*
X95553500Y-121359000I-237500J0D01*
G01*
X95078500Y-121359000D01*
G75*
G02*
X94841000Y-121121500I0J237500D01*
G01*
X94841000Y-120546500D01*
G75*
G02*
X95078500Y-120309000I237500J0D01*
G01*
G37*
G36*
G01*
X97128500Y-122059000D02*
X97603500Y-122059000D01*
G75*
G02*
X97841000Y-122296500I0J-237500D01*
G01*
X97841000Y-122871500D01*
G75*
G02*
X97603500Y-123109000I-237500J0D01*
G01*
X97128500Y-123109000D01*
G75*
G02*
X96891000Y-122871500I0J237500D01*
G01*
X96891000Y-122296500D01*
G75*
G02*
X97128500Y-122059000I237500J0D01*
G01*
G37*
G36*
G01*
X97128500Y-120309000D02*
X97603500Y-120309000D01*
G75*
G02*
X97841000Y-120546500I0J-237500D01*
G01*
X97841000Y-121121500D01*
G75*
G02*
X97603500Y-121359000I-237500J0D01*
G01*
X97128500Y-121359000D01*
G75*
G02*
X96891000Y-121121500I0J237500D01*
G01*
X96891000Y-120546500D01*
G75*
G02*
X97128500Y-120309000I237500J0D01*
G01*
G37*
G36*
G01*
X99778500Y-88109000D02*
X100253500Y-88109000D01*
G75*
G02*
X100491000Y-88346500I0J-237500D01*
G01*
X100491000Y-88921500D01*
G75*
G02*
X100253500Y-89159000I-237500J0D01*
G01*
X99778500Y-89159000D01*
G75*
G02*
X99541000Y-88921500I0J237500D01*
G01*
X99541000Y-88346500D01*
G75*
G02*
X99778500Y-88109000I237500J0D01*
G01*
G37*
G36*
G01*
X99778500Y-86359000D02*
X100253500Y-86359000D01*
G75*
G02*
X100491000Y-86596500I0J-237500D01*
G01*
X100491000Y-87171500D01*
G75*
G02*
X100253500Y-87409000I-237500J0D01*
G01*
X99778500Y-87409000D01*
G75*
G02*
X99541000Y-87171500I0J237500D01*
G01*
X99541000Y-86596500D01*
G75*
G02*
X99778500Y-86359000I237500J0D01*
G01*
G37*
G36*
G01*
X151528500Y-133234000D02*
X152003500Y-133234000D01*
G75*
G02*
X152241000Y-133471500I0J-237500D01*
G01*
X152241000Y-134046500D01*
G75*
G02*
X152003500Y-134284000I-237500J0D01*
G01*
X151528500Y-134284000D01*
G75*
G02*
X151291000Y-134046500I0J237500D01*
G01*
X151291000Y-133471500D01*
G75*
G02*
X151528500Y-133234000I237500J0D01*
G01*
G37*
G36*
G01*
X151528500Y-131484000D02*
X152003500Y-131484000D01*
G75*
G02*
X152241000Y-131721500I0J-237500D01*
G01*
X152241000Y-132296500D01*
G75*
G02*
X152003500Y-132534000I-237500J0D01*
G01*
X151528500Y-132534000D01*
G75*
G02*
X151291000Y-132296500I0J237500D01*
G01*
X151291000Y-131721500D01*
G75*
G02*
X151528500Y-131484000I237500J0D01*
G01*
G37*
G36*
G01*
X212659361Y-128334000D02*
X212184361Y-128334000D01*
G75*
G02*
X211946861Y-128096500I0J237500D01*
G01*
X211946861Y-127521500D01*
G75*
G02*
X212184361Y-127284000I237500J0D01*
G01*
X212659361Y-127284000D01*
G75*
G02*
X212896861Y-127521500I0J-237500D01*
G01*
X212896861Y-128096500D01*
G75*
G02*
X212659361Y-128334000I-237500J0D01*
G01*
G37*
G36*
G01*
X212659361Y-130084000D02*
X212184361Y-130084000D01*
G75*
G02*
X211946861Y-129846500I0J237500D01*
G01*
X211946861Y-129271500D01*
G75*
G02*
X212184361Y-129034000I237500J0D01*
G01*
X212659361Y-129034000D01*
G75*
G02*
X212896861Y-129271500I0J-237500D01*
G01*
X212896861Y-129846500D01*
G75*
G02*
X212659361Y-130084000I-237500J0D01*
G01*
G37*
G36*
G01*
X214303500Y-128334000D02*
X213828500Y-128334000D01*
G75*
G02*
X213591000Y-128096500I0J237500D01*
G01*
X213591000Y-127521500D01*
G75*
G02*
X213828500Y-127284000I237500J0D01*
G01*
X214303500Y-127284000D01*
G75*
G02*
X214541000Y-127521500I0J-237500D01*
G01*
X214541000Y-128096500D01*
G75*
G02*
X214303500Y-128334000I-237500J0D01*
G01*
G37*
G36*
G01*
X214303500Y-130084000D02*
X213828500Y-130084000D01*
G75*
G02*
X213591000Y-129846500I0J237500D01*
G01*
X213591000Y-129271500D01*
G75*
G02*
X213828500Y-129034000I237500J0D01*
G01*
X214303500Y-129034000D01*
G75*
G02*
X214541000Y-129271500I0J-237500D01*
G01*
X214541000Y-129846500D01*
G75*
G02*
X214303500Y-130084000I-237500J0D01*
G01*
G37*
G36*
G01*
X229016000Y-115346500D02*
X229016000Y-115821500D01*
G75*
G02*
X228778500Y-116059000I-237500J0D01*
G01*
X228203500Y-116059000D01*
G75*
G02*
X227966000Y-115821500I0J237500D01*
G01*
X227966000Y-115346500D01*
G75*
G02*
X228203500Y-115109000I237500J0D01*
G01*
X228778500Y-115109000D01*
G75*
G02*
X229016000Y-115346500I0J-237500D01*
G01*
G37*
G36*
G01*
X230766000Y-115346500D02*
X230766000Y-115821500D01*
G75*
G02*
X230528500Y-116059000I-237500J0D01*
G01*
X229953500Y-116059000D01*
G75*
G02*
X229716000Y-115821500I0J237500D01*
G01*
X229716000Y-115346500D01*
G75*
G02*
X229953500Y-115109000I237500J0D01*
G01*
X230528500Y-115109000D01*
G75*
G02*
X230766000Y-115346500I0J-237500D01*
G01*
G37*
D15*
X134146000Y-70934000D03*
X147986000Y-70934000D03*
D14*
X80866000Y-66209000D03*
X78866000Y-67159000D03*
X78866000Y-65259000D03*
X104416000Y-83259000D03*
X106416000Y-82309000D03*
X106416000Y-84209000D03*
X109031001Y-91614001D03*
X107031001Y-92564001D03*
X107031001Y-90664001D03*
X145541000Y-122584000D03*
X147541000Y-121634000D03*
X147541000Y-123534000D03*
G36*
G01*
X121891000Y-130596500D02*
X121891000Y-130121500D01*
G75*
G02*
X122128500Y-129884000I237500J0D01*
G01*
X122703500Y-129884000D01*
G75*
G02*
X122941000Y-130121500I0J-237500D01*
G01*
X122941000Y-130596500D01*
G75*
G02*
X122703500Y-130834000I-237500J0D01*
G01*
X122128500Y-130834000D01*
G75*
G02*
X121891000Y-130596500I0J237500D01*
G01*
G37*
G36*
G01*
X120141000Y-130596500D02*
X120141000Y-130121500D01*
G75*
G02*
X120378500Y-129884000I237500J0D01*
G01*
X120953500Y-129884000D01*
G75*
G02*
X121191000Y-130121500I0J-237500D01*
G01*
X121191000Y-130596500D01*
G75*
G02*
X120953500Y-130834000I-237500J0D01*
G01*
X120378500Y-130834000D01*
G75*
G02*
X120141000Y-130596500I0J237500D01*
G01*
G37*
G36*
G01*
X121891000Y-132196500D02*
X121891000Y-131721500D01*
G75*
G02*
X122128500Y-131484000I237500J0D01*
G01*
X122703500Y-131484000D01*
G75*
G02*
X122941000Y-131721500I0J-237500D01*
G01*
X122941000Y-132196500D01*
G75*
G02*
X122703500Y-132434000I-237500J0D01*
G01*
X122128500Y-132434000D01*
G75*
G02*
X121891000Y-132196500I0J237500D01*
G01*
G37*
G36*
G01*
X120141000Y-132196500D02*
X120141000Y-131721500D01*
G75*
G02*
X120378500Y-131484000I237500J0D01*
G01*
X120953500Y-131484000D01*
G75*
G02*
X121191000Y-131721500I0J-237500D01*
G01*
X121191000Y-132196500D01*
G75*
G02*
X120953500Y-132434000I-237500J0D01*
G01*
X120378500Y-132434000D01*
G75*
G02*
X120141000Y-132196500I0J237500D01*
G01*
G37*
G36*
G01*
X103878500Y-131109000D02*
X104353500Y-131109000D01*
G75*
G02*
X104591000Y-131346500I0J-237500D01*
G01*
X104591000Y-131921500D01*
G75*
G02*
X104353500Y-132159000I-237500J0D01*
G01*
X103878500Y-132159000D01*
G75*
G02*
X103641000Y-131921500I0J237500D01*
G01*
X103641000Y-131346500D01*
G75*
G02*
X103878500Y-131109000I237500J0D01*
G01*
G37*
G36*
G01*
X103878500Y-129359000D02*
X104353500Y-129359000D01*
G75*
G02*
X104591000Y-129596500I0J-237500D01*
G01*
X104591000Y-130171500D01*
G75*
G02*
X104353500Y-130409000I-237500J0D01*
G01*
X103878500Y-130409000D01*
G75*
G02*
X103641000Y-130171500I0J237500D01*
G01*
X103641000Y-129596500D01*
G75*
G02*
X103878500Y-129359000I237500J0D01*
G01*
G37*
G36*
G01*
X108453500Y-104909000D02*
X107978500Y-104909000D01*
G75*
G02*
X107741000Y-104671500I0J237500D01*
G01*
X107741000Y-104096500D01*
G75*
G02*
X107978500Y-103859000I237500J0D01*
G01*
X108453500Y-103859000D01*
G75*
G02*
X108691000Y-104096500I0J-237500D01*
G01*
X108691000Y-104671500D01*
G75*
G02*
X108453500Y-104909000I-237500J0D01*
G01*
G37*
G36*
G01*
X108453500Y-106659000D02*
X107978500Y-106659000D01*
G75*
G02*
X107741000Y-106421500I0J237500D01*
G01*
X107741000Y-105846500D01*
G75*
G02*
X107978500Y-105609000I237500J0D01*
G01*
X108453500Y-105609000D01*
G75*
G02*
X108691000Y-105846500I0J-237500D01*
G01*
X108691000Y-106421500D01*
G75*
G02*
X108453500Y-106659000I-237500J0D01*
G01*
G37*
G36*
G01*
X99566000Y-113771500D02*
X99566000Y-114246500D01*
G75*
G02*
X99328500Y-114484000I-237500J0D01*
G01*
X98753500Y-114484000D01*
G75*
G02*
X98516000Y-114246500I0J237500D01*
G01*
X98516000Y-113771500D01*
G75*
G02*
X98753500Y-113534000I237500J0D01*
G01*
X99328500Y-113534000D01*
G75*
G02*
X99566000Y-113771500I0J-237500D01*
G01*
G37*
G36*
G01*
X101316000Y-113771500D02*
X101316000Y-114246500D01*
G75*
G02*
X101078500Y-114484000I-237500J0D01*
G01*
X100503500Y-114484000D01*
G75*
G02*
X100266000Y-114246500I0J237500D01*
G01*
X100266000Y-113771500D01*
G75*
G02*
X100503500Y-113534000I237500J0D01*
G01*
X101078500Y-113534000D01*
G75*
G02*
X101316000Y-113771500I0J-237500D01*
G01*
G37*
G36*
G01*
X100578500Y-133009000D02*
X101053500Y-133009000D01*
G75*
G02*
X101291000Y-133246500I0J-237500D01*
G01*
X101291000Y-133821500D01*
G75*
G02*
X101053500Y-134059000I-237500J0D01*
G01*
X100578500Y-134059000D01*
G75*
G02*
X100341000Y-133821500I0J237500D01*
G01*
X100341000Y-133246500D01*
G75*
G02*
X100578500Y-133009000I237500J0D01*
G01*
G37*
G36*
G01*
X100578500Y-131259000D02*
X101053500Y-131259000D01*
G75*
G02*
X101291000Y-131496500I0J-237500D01*
G01*
X101291000Y-132071500D01*
G75*
G02*
X101053500Y-132309000I-237500J0D01*
G01*
X100578500Y-132309000D01*
G75*
G02*
X100341000Y-132071500I0J237500D01*
G01*
X100341000Y-131496500D01*
G75*
G02*
X100578500Y-131259000I237500J0D01*
G01*
G37*
G36*
G01*
X92928500Y-132909000D02*
X93403500Y-132909000D01*
G75*
G02*
X93641000Y-133146500I0J-237500D01*
G01*
X93641000Y-133721500D01*
G75*
G02*
X93403500Y-133959000I-237500J0D01*
G01*
X92928500Y-133959000D01*
G75*
G02*
X92691000Y-133721500I0J237500D01*
G01*
X92691000Y-133146500D01*
G75*
G02*
X92928500Y-132909000I237500J0D01*
G01*
G37*
G36*
G01*
X92928500Y-131159000D02*
X93403500Y-131159000D01*
G75*
G02*
X93641000Y-131396500I0J-237500D01*
G01*
X93641000Y-131971500D01*
G75*
G02*
X93403500Y-132209000I-237500J0D01*
G01*
X92928500Y-132209000D01*
G75*
G02*
X92691000Y-131971500I0J237500D01*
G01*
X92691000Y-131396500D01*
G75*
G02*
X92928500Y-131159000I237500J0D01*
G01*
G37*
G36*
G01*
X87778500Y-132909000D02*
X88253500Y-132909000D01*
G75*
G02*
X88491000Y-133146500I0J-237500D01*
G01*
X88491000Y-133721500D01*
G75*
G02*
X88253500Y-133959000I-237500J0D01*
G01*
X87778500Y-133959000D01*
G75*
G02*
X87541000Y-133721500I0J237500D01*
G01*
X87541000Y-133146500D01*
G75*
G02*
X87778500Y-132909000I237500J0D01*
G01*
G37*
G36*
G01*
X87778500Y-131159000D02*
X88253500Y-131159000D01*
G75*
G02*
X88491000Y-131396500I0J-237500D01*
G01*
X88491000Y-131971500D01*
G75*
G02*
X88253500Y-132209000I-237500J0D01*
G01*
X87778500Y-132209000D01*
G75*
G02*
X87541000Y-131971500I0J237500D01*
G01*
X87541000Y-131396500D01*
G75*
G02*
X87778500Y-131159000I237500J0D01*
G01*
G37*
G36*
G01*
X95378500Y-132909000D02*
X95853500Y-132909000D01*
G75*
G02*
X96091000Y-133146500I0J-237500D01*
G01*
X96091000Y-133721500D01*
G75*
G02*
X95853500Y-133959000I-237500J0D01*
G01*
X95378500Y-133959000D01*
G75*
G02*
X95141000Y-133721500I0J237500D01*
G01*
X95141000Y-133146500D01*
G75*
G02*
X95378500Y-132909000I237500J0D01*
G01*
G37*
G36*
G01*
X95378500Y-131159000D02*
X95853500Y-131159000D01*
G75*
G02*
X96091000Y-131396500I0J-237500D01*
G01*
X96091000Y-131971500D01*
G75*
G02*
X95853500Y-132209000I-237500J0D01*
G01*
X95378500Y-132209000D01*
G75*
G02*
X95141000Y-131971500I0J237500D01*
G01*
X95141000Y-131396500D01*
G75*
G02*
X95378500Y-131159000I237500J0D01*
G01*
G37*
G36*
G01*
X119178500Y-116959000D02*
X119653500Y-116959000D01*
G75*
G02*
X119891000Y-117196500I0J-237500D01*
G01*
X119891000Y-117771500D01*
G75*
G02*
X119653500Y-118009000I-237500J0D01*
G01*
X119178500Y-118009000D01*
G75*
G02*
X118941000Y-117771500I0J237500D01*
G01*
X118941000Y-117196500D01*
G75*
G02*
X119178500Y-116959000I237500J0D01*
G01*
G37*
G36*
G01*
X119178500Y-115209000D02*
X119653500Y-115209000D01*
G75*
G02*
X119891000Y-115446500I0J-237500D01*
G01*
X119891000Y-116021500D01*
G75*
G02*
X119653500Y-116259000I-237500J0D01*
G01*
X119178500Y-116259000D01*
G75*
G02*
X118941000Y-116021500I0J237500D01*
G01*
X118941000Y-115446500D01*
G75*
G02*
X119178500Y-115209000I237500J0D01*
G01*
G37*
G36*
G01*
X126578500Y-53759000D02*
X127053500Y-53759000D01*
G75*
G02*
X127291000Y-53996500I0J-237500D01*
G01*
X127291000Y-54571500D01*
G75*
G02*
X127053500Y-54809000I-237500J0D01*
G01*
X126578500Y-54809000D01*
G75*
G02*
X126341000Y-54571500I0J237500D01*
G01*
X126341000Y-53996500D01*
G75*
G02*
X126578500Y-53759000I237500J0D01*
G01*
G37*
G36*
G01*
X126578500Y-52009000D02*
X127053500Y-52009000D01*
G75*
G02*
X127291000Y-52246500I0J-237500D01*
G01*
X127291000Y-52821500D01*
G75*
G02*
X127053500Y-53059000I-237500J0D01*
G01*
X126578500Y-53059000D01*
G75*
G02*
X126341000Y-52821500I0J237500D01*
G01*
X126341000Y-52246500D01*
G75*
G02*
X126578500Y-52009000I237500J0D01*
G01*
G37*
G36*
G01*
X101903500Y-83659000D02*
X101428500Y-83659000D01*
G75*
G02*
X101191000Y-83421500I0J237500D01*
G01*
X101191000Y-82846500D01*
G75*
G02*
X101428500Y-82609000I237500J0D01*
G01*
X101903500Y-82609000D01*
G75*
G02*
X102141000Y-82846500I0J-237500D01*
G01*
X102141000Y-83421500D01*
G75*
G02*
X101903500Y-83659000I-237500J0D01*
G01*
G37*
G36*
G01*
X101903500Y-85409000D02*
X101428500Y-85409000D01*
G75*
G02*
X101191000Y-85171500I0J237500D01*
G01*
X101191000Y-84596500D01*
G75*
G02*
X101428500Y-84359000I237500J0D01*
G01*
X101903500Y-84359000D01*
G75*
G02*
X102141000Y-84596500I0J-237500D01*
G01*
X102141000Y-85171500D01*
G75*
G02*
X101903500Y-85409000I-237500J0D01*
G01*
G37*
G36*
G01*
X101903500Y-87409000D02*
X101428500Y-87409000D01*
G75*
G02*
X101191000Y-87171500I0J237500D01*
G01*
X101191000Y-86596500D01*
G75*
G02*
X101428500Y-86359000I237500J0D01*
G01*
X101903500Y-86359000D01*
G75*
G02*
X102141000Y-86596500I0J-237500D01*
G01*
X102141000Y-87171500D01*
G75*
G02*
X101903500Y-87409000I-237500J0D01*
G01*
G37*
G36*
G01*
X101903500Y-89159000D02*
X101428500Y-89159000D01*
G75*
G02*
X101191000Y-88921500I0J237500D01*
G01*
X101191000Y-88346500D01*
G75*
G02*
X101428500Y-88109000I237500J0D01*
G01*
X101903500Y-88109000D01*
G75*
G02*
X102141000Y-88346500I0J-237500D01*
G01*
X102141000Y-88921500D01*
G75*
G02*
X101903500Y-89159000I-237500J0D01*
G01*
G37*
G36*
G01*
X109403500Y-82909000D02*
X108928500Y-82909000D01*
G75*
G02*
X108691000Y-82671500I0J237500D01*
G01*
X108691000Y-82096500D01*
G75*
G02*
X108928500Y-81859000I237500J0D01*
G01*
X109403500Y-81859000D01*
G75*
G02*
X109641000Y-82096500I0J-237500D01*
G01*
X109641000Y-82671500D01*
G75*
G02*
X109403500Y-82909000I-237500J0D01*
G01*
G37*
G36*
G01*
X109403500Y-84659000D02*
X108928500Y-84659000D01*
G75*
G02*
X108691000Y-84421500I0J237500D01*
G01*
X108691000Y-83846500D01*
G75*
G02*
X108928500Y-83609000I237500J0D01*
G01*
X109403500Y-83609000D01*
G75*
G02*
X109641000Y-83846500I0J-237500D01*
G01*
X109641000Y-84421500D01*
G75*
G02*
X109403500Y-84659000I-237500J0D01*
G01*
G37*
G36*
G01*
X109403500Y-86409000D02*
X108928500Y-86409000D01*
G75*
G02*
X108691000Y-86171500I0J237500D01*
G01*
X108691000Y-85596500D01*
G75*
G02*
X108928500Y-85359000I237500J0D01*
G01*
X109403500Y-85359000D01*
G75*
G02*
X109641000Y-85596500I0J-237500D01*
G01*
X109641000Y-86171500D01*
G75*
G02*
X109403500Y-86409000I-237500J0D01*
G01*
G37*
G36*
G01*
X109403500Y-88159000D02*
X108928500Y-88159000D01*
G75*
G02*
X108691000Y-87921500I0J237500D01*
G01*
X108691000Y-87346500D01*
G75*
G02*
X108928500Y-87109000I237500J0D01*
G01*
X109403500Y-87109000D01*
G75*
G02*
X109641000Y-87346500I0J-237500D01*
G01*
X109641000Y-87921500D01*
G75*
G02*
X109403500Y-88159000I-237500J0D01*
G01*
G37*
G36*
G01*
X104766000Y-90746500D02*
X104766000Y-90271500D01*
G75*
G02*
X105003500Y-90034000I237500J0D01*
G01*
X105578500Y-90034000D01*
G75*
G02*
X105816000Y-90271500I0J-237500D01*
G01*
X105816000Y-90746500D01*
G75*
G02*
X105578500Y-90984000I-237500J0D01*
G01*
X105003500Y-90984000D01*
G75*
G02*
X104766000Y-90746500I0J237500D01*
G01*
G37*
G36*
G01*
X103016000Y-90746500D02*
X103016000Y-90271500D01*
G75*
G02*
X103253500Y-90034000I237500J0D01*
G01*
X103828500Y-90034000D01*
G75*
G02*
X104066000Y-90271500I0J-237500D01*
G01*
X104066000Y-90746500D01*
G75*
G02*
X103828500Y-90984000I-237500J0D01*
G01*
X103253500Y-90984000D01*
G75*
G02*
X103016000Y-90746500I0J237500D01*
G01*
G37*
G36*
G01*
X104066000Y-92271500D02*
X104066000Y-92746500D01*
G75*
G02*
X103828500Y-92984000I-237500J0D01*
G01*
X103253500Y-92984000D01*
G75*
G02*
X103016000Y-92746500I0J237500D01*
G01*
X103016000Y-92271500D01*
G75*
G02*
X103253500Y-92034000I237500J0D01*
G01*
X103828500Y-92034000D01*
G75*
G02*
X104066000Y-92271500I0J-237500D01*
G01*
G37*
G36*
G01*
X105816000Y-92271500D02*
X105816000Y-92746500D01*
G75*
G02*
X105578500Y-92984000I-237500J0D01*
G01*
X105003500Y-92984000D01*
G75*
G02*
X104766000Y-92746500I0J237500D01*
G01*
X104766000Y-92271500D01*
G75*
G02*
X105003500Y-92034000I237500J0D01*
G01*
X105578500Y-92034000D01*
G75*
G02*
X105816000Y-92271500I0J-237500D01*
G01*
G37*
G36*
G01*
X75628500Y-62309000D02*
X76103500Y-62309000D01*
G75*
G02*
X76341000Y-62546500I0J-237500D01*
G01*
X76341000Y-63121500D01*
G75*
G02*
X76103500Y-63359000I-237500J0D01*
G01*
X75628500Y-63359000D01*
G75*
G02*
X75391000Y-63121500I0J237500D01*
G01*
X75391000Y-62546500D01*
G75*
G02*
X75628500Y-62309000I237500J0D01*
G01*
G37*
G36*
G01*
X75628500Y-60559000D02*
X76103500Y-60559000D01*
G75*
G02*
X76341000Y-60796500I0J-237500D01*
G01*
X76341000Y-61371500D01*
G75*
G02*
X76103500Y-61609000I-237500J0D01*
G01*
X75628500Y-61609000D01*
G75*
G02*
X75391000Y-61371500I0J237500D01*
G01*
X75391000Y-60796500D01*
G75*
G02*
X75628500Y-60559000I237500J0D01*
G01*
G37*
G36*
G01*
X75628500Y-66309000D02*
X76103500Y-66309000D01*
G75*
G02*
X76341000Y-66546500I0J-237500D01*
G01*
X76341000Y-67121500D01*
G75*
G02*
X76103500Y-67359000I-237500J0D01*
G01*
X75628500Y-67359000D01*
G75*
G02*
X75391000Y-67121500I0J237500D01*
G01*
X75391000Y-66546500D01*
G75*
G02*
X75628500Y-66309000I237500J0D01*
G01*
G37*
G36*
G01*
X75628500Y-64559000D02*
X76103500Y-64559000D01*
G75*
G02*
X76341000Y-64796500I0J-237500D01*
G01*
X76341000Y-65371500D01*
G75*
G02*
X76103500Y-65609000I-237500J0D01*
G01*
X75628500Y-65609000D01*
G75*
G02*
X75391000Y-65371500I0J237500D01*
G01*
X75391000Y-64796500D01*
G75*
G02*
X75628500Y-64559000I237500J0D01*
G01*
G37*
G36*
G01*
X87153500Y-60359000D02*
X86678500Y-60359000D01*
G75*
G02*
X86441000Y-60121500I0J237500D01*
G01*
X86441000Y-59546500D01*
G75*
G02*
X86678500Y-59309000I237500J0D01*
G01*
X87153500Y-59309000D01*
G75*
G02*
X87391000Y-59546500I0J-237500D01*
G01*
X87391000Y-60121500D01*
G75*
G02*
X87153500Y-60359000I-237500J0D01*
G01*
G37*
G36*
G01*
X87153500Y-62109000D02*
X86678500Y-62109000D01*
G75*
G02*
X86441000Y-61871500I0J237500D01*
G01*
X86441000Y-61296500D01*
G75*
G02*
X86678500Y-61059000I237500J0D01*
G01*
X87153500Y-61059000D01*
G75*
G02*
X87391000Y-61296500I0J-237500D01*
G01*
X87391000Y-61871500D01*
G75*
G02*
X87153500Y-62109000I-237500J0D01*
G01*
G37*
G36*
G01*
X80628500Y-61809000D02*
X81103500Y-61809000D01*
G75*
G02*
X81341000Y-62046500I0J-237500D01*
G01*
X81341000Y-62621500D01*
G75*
G02*
X81103500Y-62859000I-237500J0D01*
G01*
X80628500Y-62859000D01*
G75*
G02*
X80391000Y-62621500I0J237500D01*
G01*
X80391000Y-62046500D01*
G75*
G02*
X80628500Y-61809000I237500J0D01*
G01*
G37*
G36*
G01*
X80628500Y-60059000D02*
X81103500Y-60059000D01*
G75*
G02*
X81341000Y-60296500I0J-237500D01*
G01*
X81341000Y-60871500D01*
G75*
G02*
X81103500Y-61109000I-237500J0D01*
G01*
X80628500Y-61109000D01*
G75*
G02*
X80391000Y-60871500I0J237500D01*
G01*
X80391000Y-60296500D01*
G75*
G02*
X80628500Y-60059000I237500J0D01*
G01*
G37*
G36*
G01*
X89053500Y-60359000D02*
X88578500Y-60359000D01*
G75*
G02*
X88341000Y-60121500I0J237500D01*
G01*
X88341000Y-59546500D01*
G75*
G02*
X88578500Y-59309000I237500J0D01*
G01*
X89053500Y-59309000D01*
G75*
G02*
X89291000Y-59546500I0J-237500D01*
G01*
X89291000Y-60121500D01*
G75*
G02*
X89053500Y-60359000I-237500J0D01*
G01*
G37*
G36*
G01*
X89053500Y-62109000D02*
X88578500Y-62109000D01*
G75*
G02*
X88341000Y-61871500I0J237500D01*
G01*
X88341000Y-61296500D01*
G75*
G02*
X88578500Y-61059000I237500J0D01*
G01*
X89053500Y-61059000D01*
G75*
G02*
X89291000Y-61296500I0J-237500D01*
G01*
X89291000Y-61871500D01*
G75*
G02*
X89053500Y-62109000I-237500J0D01*
G01*
G37*
G36*
G01*
X215216000Y-91821500D02*
X215216000Y-91346500D01*
G75*
G02*
X215453500Y-91109000I237500J0D01*
G01*
X216028500Y-91109000D01*
G75*
G02*
X216266000Y-91346500I0J-237500D01*
G01*
X216266000Y-91821500D01*
G75*
G02*
X216028500Y-92059000I-237500J0D01*
G01*
X215453500Y-92059000D01*
G75*
G02*
X215216000Y-91821500I0J237500D01*
G01*
G37*
G36*
G01*
X213466000Y-91821500D02*
X213466000Y-91346500D01*
G75*
G02*
X213703500Y-91109000I237500J0D01*
G01*
X214278500Y-91109000D01*
G75*
G02*
X214516000Y-91346500I0J-237500D01*
G01*
X214516000Y-91821500D01*
G75*
G02*
X214278500Y-92059000I-237500J0D01*
G01*
X213703500Y-92059000D01*
G75*
G02*
X213466000Y-91821500I0J237500D01*
G01*
G37*
G36*
G01*
X155991000Y-109659000D02*
X155991000Y-110909000D01*
G75*
G02*
X155741000Y-111159000I-250000J0D01*
G01*
X154816000Y-111159000D01*
G75*
G02*
X154566000Y-110909000I0J250000D01*
G01*
X154566000Y-109659000D01*
G75*
G02*
X154816000Y-109409000I250000J0D01*
G01*
X155741000Y-109409000D01*
G75*
G02*
X155991000Y-109659000I0J-250000D01*
G01*
G37*
G36*
G01*
X158966000Y-109659000D02*
X158966000Y-110909000D01*
G75*
G02*
X158716000Y-111159000I-250000J0D01*
G01*
X157791000Y-111159000D01*
G75*
G02*
X157541000Y-110909000I0J250000D01*
G01*
X157541000Y-109659000D01*
G75*
G02*
X157791000Y-109409000I250000J0D01*
G01*
X158716000Y-109409000D01*
G75*
G02*
X158966000Y-109659000I0J-250000D01*
G01*
G37*
G36*
G01*
X148891000Y-120321500D02*
X148891000Y-119846500D01*
G75*
G02*
X149128500Y-119609000I237500J0D01*
G01*
X149703500Y-119609000D01*
G75*
G02*
X149941000Y-119846500I0J-237500D01*
G01*
X149941000Y-120321500D01*
G75*
G02*
X149703500Y-120559000I-237500J0D01*
G01*
X149128500Y-120559000D01*
G75*
G02*
X148891000Y-120321500I0J237500D01*
G01*
G37*
G36*
G01*
X147141000Y-120321500D02*
X147141000Y-119846500D01*
G75*
G02*
X147378500Y-119609000I237500J0D01*
G01*
X147953500Y-119609000D01*
G75*
G02*
X148191000Y-119846500I0J-237500D01*
G01*
X148191000Y-120321500D01*
G75*
G02*
X147953500Y-120559000I-237500J0D01*
G01*
X147378500Y-120559000D01*
G75*
G02*
X147141000Y-120321500I0J237500D01*
G01*
G37*
G36*
G01*
X149778500Y-122234000D02*
X149303500Y-122234000D01*
G75*
G02*
X149066000Y-121996500I0J237500D01*
G01*
X149066000Y-121421500D01*
G75*
G02*
X149303500Y-121184000I237500J0D01*
G01*
X149778500Y-121184000D01*
G75*
G02*
X150016000Y-121421500I0J-237500D01*
G01*
X150016000Y-121996500D01*
G75*
G02*
X149778500Y-122234000I-237500J0D01*
G01*
G37*
G36*
G01*
X149778500Y-123984000D02*
X149303500Y-123984000D01*
G75*
G02*
X149066000Y-123746500I0J237500D01*
G01*
X149066000Y-123171500D01*
G75*
G02*
X149303500Y-122934000I237500J0D01*
G01*
X149778500Y-122934000D01*
G75*
G02*
X150016000Y-123171500I0J-237500D01*
G01*
X150016000Y-123746500D01*
G75*
G02*
X149778500Y-123984000I-237500J0D01*
G01*
G37*
G36*
G01*
X144028500Y-121484000D02*
X143553500Y-121484000D01*
G75*
G02*
X143316000Y-121246500I0J237500D01*
G01*
X143316000Y-120671500D01*
G75*
G02*
X143553500Y-120434000I237500J0D01*
G01*
X144028500Y-120434000D01*
G75*
G02*
X144266000Y-120671500I0J-237500D01*
G01*
X144266000Y-121246500D01*
G75*
G02*
X144028500Y-121484000I-237500J0D01*
G01*
G37*
G36*
G01*
X144028500Y-123234000D02*
X143553500Y-123234000D01*
G75*
G02*
X143316000Y-122996500I0J237500D01*
G01*
X143316000Y-122421500D01*
G75*
G02*
X143553500Y-122184000I237500J0D01*
G01*
X144028500Y-122184000D01*
G75*
G02*
X144266000Y-122421500I0J-237500D01*
G01*
X144266000Y-122996500D01*
G75*
G02*
X144028500Y-123234000I-237500J0D01*
G01*
G37*
G36*
G01*
X240103500Y-120034000D02*
X239628500Y-120034000D01*
G75*
G02*
X239391000Y-119796500I0J237500D01*
G01*
X239391000Y-119221500D01*
G75*
G02*
X239628500Y-118984000I237500J0D01*
G01*
X240103500Y-118984000D01*
G75*
G02*
X240341000Y-119221500I0J-237500D01*
G01*
X240341000Y-119796500D01*
G75*
G02*
X240103500Y-120034000I-237500J0D01*
G01*
G37*
G36*
G01*
X240103500Y-121784000D02*
X239628500Y-121784000D01*
G75*
G02*
X239391000Y-121546500I0J237500D01*
G01*
X239391000Y-120971500D01*
G75*
G02*
X239628500Y-120734000I237500J0D01*
G01*
X240103500Y-120734000D01*
G75*
G02*
X240341000Y-120971500I0J-237500D01*
G01*
X240341000Y-121546500D01*
G75*
G02*
X240103500Y-121784000I-237500J0D01*
G01*
G37*
G36*
G01*
X136641000Y-138809000D02*
X136641000Y-137559000D01*
G75*
G02*
X136891000Y-137309000I250000J0D01*
G01*
X137816000Y-137309000D01*
G75*
G02*
X138066000Y-137559000I0J-250000D01*
G01*
X138066000Y-138809000D01*
G75*
G02*
X137816000Y-139059000I-250000J0D01*
G01*
X136891000Y-139059000D01*
G75*
G02*
X136641000Y-138809000I0J250000D01*
G01*
G37*
G36*
G01*
X133666000Y-138809000D02*
X133666000Y-137559000D01*
G75*
G02*
X133916000Y-137309000I250000J0D01*
G01*
X134841000Y-137309000D01*
G75*
G02*
X135091000Y-137559000I0J-250000D01*
G01*
X135091000Y-138809000D01*
G75*
G02*
X134841000Y-139059000I-250000J0D01*
G01*
X133916000Y-139059000D01*
G75*
G02*
X133666000Y-138809000I0J250000D01*
G01*
G37*
G36*
G01*
X196158674Y-130725225D02*
X196158674Y-130250225D01*
G75*
G02*
X196396174Y-130012725I237500J0D01*
G01*
X196971174Y-130012725D01*
G75*
G02*
X197208674Y-130250225I0J-237500D01*
G01*
X197208674Y-130725225D01*
G75*
G02*
X196971174Y-130962725I-237500J0D01*
G01*
X196396174Y-130962725D01*
G75*
G02*
X196158674Y-130725225I0J237500D01*
G01*
G37*
G36*
G01*
X194408674Y-130725225D02*
X194408674Y-130250225D01*
G75*
G02*
X194646174Y-130012725I237500J0D01*
G01*
X195221174Y-130012725D01*
G75*
G02*
X195458674Y-130250225I0J-237500D01*
G01*
X195458674Y-130725225D01*
G75*
G02*
X195221174Y-130962725I-237500J0D01*
G01*
X194646174Y-130962725D01*
G75*
G02*
X194408674Y-130725225I0J237500D01*
G01*
G37*
G36*
G01*
X196158674Y-132225225D02*
X196158674Y-131750225D01*
G75*
G02*
X196396174Y-131512725I237500J0D01*
G01*
X196971174Y-131512725D01*
G75*
G02*
X197208674Y-131750225I0J-237500D01*
G01*
X197208674Y-132225225D01*
G75*
G02*
X196971174Y-132462725I-237500J0D01*
G01*
X196396174Y-132462725D01*
G75*
G02*
X196158674Y-132225225I0J237500D01*
G01*
G37*
G36*
G01*
X194408674Y-132225225D02*
X194408674Y-131750225D01*
G75*
G02*
X194646174Y-131512725I237500J0D01*
G01*
X195221174Y-131512725D01*
G75*
G02*
X195458674Y-131750225I0J-237500D01*
G01*
X195458674Y-132225225D01*
G75*
G02*
X195221174Y-132462725I-237500J0D01*
G01*
X194646174Y-132462725D01*
G75*
G02*
X194408674Y-132225225I0J237500D01*
G01*
G37*
G36*
G01*
X220278500Y-116434000D02*
X220753500Y-116434000D01*
G75*
G02*
X220991000Y-116671500I0J-237500D01*
G01*
X220991000Y-117246500D01*
G75*
G02*
X220753500Y-117484000I-237500J0D01*
G01*
X220278500Y-117484000D01*
G75*
G02*
X220041000Y-117246500I0J237500D01*
G01*
X220041000Y-116671500D01*
G75*
G02*
X220278500Y-116434000I237500J0D01*
G01*
G37*
G36*
G01*
X220278500Y-114684000D02*
X220753500Y-114684000D01*
G75*
G02*
X220991000Y-114921500I0J-237500D01*
G01*
X220991000Y-115496500D01*
G75*
G02*
X220753500Y-115734000I-237500J0D01*
G01*
X220278500Y-115734000D01*
G75*
G02*
X220041000Y-115496500I0J237500D01*
G01*
X220041000Y-114921500D01*
G75*
G02*
X220278500Y-114684000I237500J0D01*
G01*
G37*
G36*
G01*
X222566000Y-114946500D02*
X222566000Y-115421500D01*
G75*
G02*
X222328500Y-115659000I-237500J0D01*
G01*
X221753500Y-115659000D01*
G75*
G02*
X221516000Y-115421500I0J237500D01*
G01*
X221516000Y-114946500D01*
G75*
G02*
X221753500Y-114709000I237500J0D01*
G01*
X222328500Y-114709000D01*
G75*
G02*
X222566000Y-114946500I0J-237500D01*
G01*
G37*
G36*
G01*
X224316000Y-114946500D02*
X224316000Y-115421500D01*
G75*
G02*
X224078500Y-115659000I-237500J0D01*
G01*
X223503500Y-115659000D01*
G75*
G02*
X223266000Y-115421500I0J237500D01*
G01*
X223266000Y-114946500D01*
G75*
G02*
X223503500Y-114709000I237500J0D01*
G01*
X224078500Y-114709000D01*
G75*
G02*
X224316000Y-114946500I0J-237500D01*
G01*
G37*
G36*
G01*
X86078500Y-99059000D02*
X86553500Y-99059000D01*
G75*
G02*
X86791000Y-99296500I0J-237500D01*
G01*
X86791000Y-99871500D01*
G75*
G02*
X86553500Y-100109000I-237500J0D01*
G01*
X86078500Y-100109000D01*
G75*
G02*
X85841000Y-99871500I0J237500D01*
G01*
X85841000Y-99296500D01*
G75*
G02*
X86078500Y-99059000I237500J0D01*
G01*
G37*
G36*
G01*
X86078500Y-97309000D02*
X86553500Y-97309000D01*
G75*
G02*
X86791000Y-97546500I0J-237500D01*
G01*
X86791000Y-98121500D01*
G75*
G02*
X86553500Y-98359000I-237500J0D01*
G01*
X86078500Y-98359000D01*
G75*
G02*
X85841000Y-98121500I0J237500D01*
G01*
X85841000Y-97546500D01*
G75*
G02*
X86078500Y-97309000I237500J0D01*
G01*
G37*
G36*
G01*
X84103500Y-97259000D02*
X83628500Y-97259000D01*
G75*
G02*
X83391000Y-97021500I0J237500D01*
G01*
X83391000Y-96446500D01*
G75*
G02*
X83628500Y-96209000I237500J0D01*
G01*
X84103500Y-96209000D01*
G75*
G02*
X84341000Y-96446500I0J-237500D01*
G01*
X84341000Y-97021500D01*
G75*
G02*
X84103500Y-97259000I-237500J0D01*
G01*
G37*
G36*
G01*
X84103500Y-99009000D02*
X83628500Y-99009000D01*
G75*
G02*
X83391000Y-98771500I0J237500D01*
G01*
X83391000Y-98196500D01*
G75*
G02*
X83628500Y-97959000I237500J0D01*
G01*
X84103500Y-97959000D01*
G75*
G02*
X84341000Y-98196500I0J-237500D01*
G01*
X84341000Y-98771500D01*
G75*
G02*
X84103500Y-99009000I-237500J0D01*
G01*
G37*
G36*
G01*
X201303500Y-138150000D02*
X200828500Y-138150000D01*
G75*
G02*
X200591000Y-137912500I0J237500D01*
G01*
X200591000Y-137337500D01*
G75*
G02*
X200828500Y-137100000I237500J0D01*
G01*
X201303500Y-137100000D01*
G75*
G02*
X201541000Y-137337500I0J-237500D01*
G01*
X201541000Y-137912500D01*
G75*
G02*
X201303500Y-138150000I-237500J0D01*
G01*
G37*
G36*
G01*
X201303500Y-139900000D02*
X200828500Y-139900000D01*
G75*
G02*
X200591000Y-139662500I0J237500D01*
G01*
X200591000Y-139087500D01*
G75*
G02*
X200828500Y-138850000I237500J0D01*
G01*
X201303500Y-138850000D01*
G75*
G02*
X201541000Y-139087500I0J-237500D01*
G01*
X201541000Y-139662500D01*
G75*
G02*
X201303500Y-139900000I-237500J0D01*
G01*
G37*
G36*
G01*
X189603500Y-138150000D02*
X189128500Y-138150000D01*
G75*
G02*
X188891000Y-137912500I0J237500D01*
G01*
X188891000Y-137337500D01*
G75*
G02*
X189128500Y-137100000I237500J0D01*
G01*
X189603500Y-137100000D01*
G75*
G02*
X189841000Y-137337500I0J-237500D01*
G01*
X189841000Y-137912500D01*
G75*
G02*
X189603500Y-138150000I-237500J0D01*
G01*
G37*
G36*
G01*
X189603500Y-139900000D02*
X189128500Y-139900000D01*
G75*
G02*
X188891000Y-139662500I0J237500D01*
G01*
X188891000Y-139087500D01*
G75*
G02*
X189128500Y-138850000I237500J0D01*
G01*
X189603500Y-138850000D01*
G75*
G02*
X189841000Y-139087500I0J-237500D01*
G01*
X189841000Y-139662500D01*
G75*
G02*
X189603500Y-139900000I-237500J0D01*
G01*
G37*
G36*
G01*
X177903500Y-138150000D02*
X177428500Y-138150000D01*
G75*
G02*
X177191000Y-137912500I0J237500D01*
G01*
X177191000Y-137337500D01*
G75*
G02*
X177428500Y-137100000I237500J0D01*
G01*
X177903500Y-137100000D01*
G75*
G02*
X178141000Y-137337500I0J-237500D01*
G01*
X178141000Y-137912500D01*
G75*
G02*
X177903500Y-138150000I-237500J0D01*
G01*
G37*
G36*
G01*
X177903500Y-139900000D02*
X177428500Y-139900000D01*
G75*
G02*
X177191000Y-139662500I0J237500D01*
G01*
X177191000Y-139087500D01*
G75*
G02*
X177428500Y-138850000I237500J0D01*
G01*
X177903500Y-138850000D01*
G75*
G02*
X178141000Y-139087500I0J-237500D01*
G01*
X178141000Y-139662500D01*
G75*
G02*
X177903500Y-139900000I-237500J0D01*
G01*
G37*
G36*
G01*
X187504885Y-118453139D02*
X187979885Y-118453139D01*
G75*
G02*
X188217385Y-118690639I0J-237500D01*
G01*
X188217385Y-119265639D01*
G75*
G02*
X187979885Y-119503139I-237500J0D01*
G01*
X187504885Y-119503139D01*
G75*
G02*
X187267385Y-119265639I0J237500D01*
G01*
X187267385Y-118690639D01*
G75*
G02*
X187504885Y-118453139I237500J0D01*
G01*
G37*
G36*
G01*
X187504885Y-116703139D02*
X187979885Y-116703139D01*
G75*
G02*
X188217385Y-116940639I0J-237500D01*
G01*
X188217385Y-117515639D01*
G75*
G02*
X187979885Y-117753139I-237500J0D01*
G01*
X187504885Y-117753139D01*
G75*
G02*
X187267385Y-117515639I0J237500D01*
G01*
X187267385Y-116940639D01*
G75*
G02*
X187504885Y-116703139I237500J0D01*
G01*
G37*
G36*
G01*
X188978500Y-118453139D02*
X189453500Y-118453139D01*
G75*
G02*
X189691000Y-118690639I0J-237500D01*
G01*
X189691000Y-119265639D01*
G75*
G02*
X189453500Y-119503139I-237500J0D01*
G01*
X188978500Y-119503139D01*
G75*
G02*
X188741000Y-119265639I0J237500D01*
G01*
X188741000Y-118690639D01*
G75*
G02*
X188978500Y-118453139I237500J0D01*
G01*
G37*
G36*
G01*
X188978500Y-116703139D02*
X189453500Y-116703139D01*
G75*
G02*
X189691000Y-116940639I0J-237500D01*
G01*
X189691000Y-117515639D01*
G75*
G02*
X189453500Y-117753139I-237500J0D01*
G01*
X188978500Y-117753139D01*
G75*
G02*
X188741000Y-117515639I0J237500D01*
G01*
X188741000Y-116940639D01*
G75*
G02*
X188978500Y-116703139I237500J0D01*
G01*
G37*
G36*
G01*
X187166000Y-114221500D02*
X187166000Y-113746500D01*
G75*
G02*
X187403500Y-113509000I237500J0D01*
G01*
X187978500Y-113509000D01*
G75*
G02*
X188216000Y-113746500I0J-237500D01*
G01*
X188216000Y-114221500D01*
G75*
G02*
X187978500Y-114459000I-237500J0D01*
G01*
X187403500Y-114459000D01*
G75*
G02*
X187166000Y-114221500I0J237500D01*
G01*
G37*
G36*
G01*
X185416000Y-114221500D02*
X185416000Y-113746500D01*
G75*
G02*
X185653500Y-113509000I237500J0D01*
G01*
X186228500Y-113509000D01*
G75*
G02*
X186466000Y-113746500I0J-237500D01*
G01*
X186466000Y-114221500D01*
G75*
G02*
X186228500Y-114459000I-237500J0D01*
G01*
X185653500Y-114459000D01*
G75*
G02*
X185416000Y-114221500I0J237500D01*
G01*
G37*
G36*
G01*
X186028500Y-118434000D02*
X186503500Y-118434000D01*
G75*
G02*
X186741000Y-118671500I0J-237500D01*
G01*
X186741000Y-119246500D01*
G75*
G02*
X186503500Y-119484000I-237500J0D01*
G01*
X186028500Y-119484000D01*
G75*
G02*
X185791000Y-119246500I0J237500D01*
G01*
X185791000Y-118671500D01*
G75*
G02*
X186028500Y-118434000I237500J0D01*
G01*
G37*
G36*
G01*
X186028500Y-116684000D02*
X186503500Y-116684000D01*
G75*
G02*
X186741000Y-116921500I0J-237500D01*
G01*
X186741000Y-117496500D01*
G75*
G02*
X186503500Y-117734000I-237500J0D01*
G01*
X186028500Y-117734000D01*
G75*
G02*
X185791000Y-117496500I0J237500D01*
G01*
X185791000Y-116921500D01*
G75*
G02*
X186028500Y-116684000I237500J0D01*
G01*
G37*
G36*
G01*
X217354885Y-116434000D02*
X217829885Y-116434000D01*
G75*
G02*
X218067385Y-116671500I0J-237500D01*
G01*
X218067385Y-117246500D01*
G75*
G02*
X217829885Y-117484000I-237500J0D01*
G01*
X217354885Y-117484000D01*
G75*
G02*
X217117385Y-117246500I0J237500D01*
G01*
X217117385Y-116671500D01*
G75*
G02*
X217354885Y-116434000I237500J0D01*
G01*
G37*
G36*
G01*
X217354885Y-114684000D02*
X217829885Y-114684000D01*
G75*
G02*
X218067385Y-114921500I0J-237500D01*
G01*
X218067385Y-115496500D01*
G75*
G02*
X217829885Y-115734000I-237500J0D01*
G01*
X217354885Y-115734000D01*
G75*
G02*
X217117385Y-115496500I0J237500D01*
G01*
X217117385Y-114921500D01*
G75*
G02*
X217354885Y-114684000I237500J0D01*
G01*
G37*
G36*
G01*
X218828500Y-116434000D02*
X219303500Y-116434000D01*
G75*
G02*
X219541000Y-116671500I0J-237500D01*
G01*
X219541000Y-117246500D01*
G75*
G02*
X219303500Y-117484000I-237500J0D01*
G01*
X218828500Y-117484000D01*
G75*
G02*
X218591000Y-117246500I0J237500D01*
G01*
X218591000Y-116671500D01*
G75*
G02*
X218828500Y-116434000I237500J0D01*
G01*
G37*
G36*
G01*
X218828500Y-114684000D02*
X219303500Y-114684000D01*
G75*
G02*
X219541000Y-114921500I0J-237500D01*
G01*
X219541000Y-115496500D01*
G75*
G02*
X219303500Y-115734000I-237500J0D01*
G01*
X218828500Y-115734000D01*
G75*
G02*
X218591000Y-115496500I0J237500D01*
G01*
X218591000Y-114921500D01*
G75*
G02*
X218828500Y-114684000I237500J0D01*
G01*
G37*
G36*
G01*
X138336000Y-92671500D02*
X138336000Y-92196500D01*
G75*
G02*
X138573500Y-91959000I237500J0D01*
G01*
X139148500Y-91959000D01*
G75*
G02*
X139386000Y-92196500I0J-237500D01*
G01*
X139386000Y-92671500D01*
G75*
G02*
X139148500Y-92909000I-237500J0D01*
G01*
X138573500Y-92909000D01*
G75*
G02*
X138336000Y-92671500I0J237500D01*
G01*
G37*
G36*
G01*
X136586000Y-92671500D02*
X136586000Y-92196500D01*
G75*
G02*
X136823500Y-91959000I237500J0D01*
G01*
X137398500Y-91959000D01*
G75*
G02*
X137636000Y-92196500I0J-237500D01*
G01*
X137636000Y-92671500D01*
G75*
G02*
X137398500Y-92909000I-237500J0D01*
G01*
X136823500Y-92909000D01*
G75*
G02*
X136586000Y-92671500I0J237500D01*
G01*
G37*
G36*
G01*
X136828500Y-90264000D02*
X137303500Y-90264000D01*
G75*
G02*
X137541000Y-90501500I0J-237500D01*
G01*
X137541000Y-91076500D01*
G75*
G02*
X137303500Y-91314000I-237500J0D01*
G01*
X136828500Y-91314000D01*
G75*
G02*
X136591000Y-91076500I0J237500D01*
G01*
X136591000Y-90501500D01*
G75*
G02*
X136828500Y-90264000I237500J0D01*
G01*
G37*
G36*
G01*
X136828500Y-88514000D02*
X137303500Y-88514000D01*
G75*
G02*
X137541000Y-88751500I0J-237500D01*
G01*
X137541000Y-89326500D01*
G75*
G02*
X137303500Y-89564000I-237500J0D01*
G01*
X136828500Y-89564000D01*
G75*
G02*
X136591000Y-89326500I0J237500D01*
G01*
X136591000Y-88751500D01*
G75*
G02*
X136828500Y-88514000I237500J0D01*
G01*
G37*
D16*
X104866000Y-108909000D03*
X105366000Y-108909000D03*
X105866000Y-108909000D03*
X106366000Y-108909000D03*
X106866000Y-108909000D03*
X107366000Y-108909000D03*
X107866000Y-108909000D03*
X108366000Y-108909000D03*
X108866000Y-108909000D03*
X109366000Y-108909000D03*
X109866000Y-108909000D03*
X110366000Y-108909000D03*
D17*
X111966000Y-110509000D03*
X111966000Y-111009000D03*
X111966000Y-111509000D03*
X111966000Y-112009000D03*
X111966000Y-112509000D03*
X111966000Y-113009000D03*
X111966000Y-113509000D03*
X111966000Y-114009000D03*
X111966000Y-114509000D03*
X111966000Y-115009000D03*
X111966000Y-115509000D03*
X111966000Y-116009000D03*
D16*
X110366000Y-117609000D03*
X109866000Y-117609000D03*
X109366000Y-117609000D03*
X108866000Y-117609000D03*
X108366000Y-117609000D03*
X107866000Y-117609000D03*
X107366000Y-117609000D03*
X106866000Y-117609000D03*
X106366000Y-117609000D03*
X105866000Y-117609000D03*
X105366000Y-117609000D03*
X104866000Y-117609000D03*
D17*
X103266000Y-116009000D03*
X103266000Y-115509000D03*
X103266000Y-115009000D03*
X103266000Y-114509000D03*
X103266000Y-114009000D03*
X103266000Y-113509000D03*
X103266000Y-113009000D03*
X103266000Y-112509000D03*
X103266000Y-112009000D03*
X103266000Y-111509000D03*
X103266000Y-111009000D03*
X103266000Y-110509000D03*
D18*
X200491000Y-127984000D03*
X201141000Y-127984000D03*
X201791000Y-127984000D03*
X202441000Y-127984000D03*
X203091000Y-127984000D03*
X203741000Y-127984000D03*
X204391000Y-127984000D03*
X205041000Y-127984000D03*
X205691000Y-127984000D03*
X206341000Y-127984000D03*
X206991000Y-127984000D03*
X207641000Y-127984000D03*
X208291000Y-127984000D03*
X208941000Y-127984000D03*
X208941000Y-133684000D03*
X208291000Y-133684000D03*
X207641000Y-133684000D03*
X206991000Y-133684000D03*
X206341000Y-133684000D03*
X205691000Y-133684000D03*
X205041000Y-133684000D03*
X204391000Y-133684000D03*
X203741000Y-133684000D03*
X203091000Y-133684000D03*
X202441000Y-133684000D03*
X201791000Y-133684000D03*
X201141000Y-133684000D03*
X200491000Y-133684000D03*
D19*
X94516000Y-116359000D03*
X94516000Y-107859000D03*
G36*
G01*
X82616000Y-94473172D02*
X82616000Y-94948172D01*
G75*
G02*
X82378500Y-95185672I-237500J0D01*
G01*
X81803500Y-95185672D01*
G75*
G02*
X81566000Y-94948172I0J237500D01*
G01*
X81566000Y-94473172D01*
G75*
G02*
X81803500Y-94235672I237500J0D01*
G01*
X82378500Y-94235672D01*
G75*
G02*
X82616000Y-94473172I0J-237500D01*
G01*
G37*
G36*
G01*
X84366000Y-94473172D02*
X84366000Y-94948172D01*
G75*
G02*
X84128500Y-95185672I-237500J0D01*
G01*
X83553500Y-95185672D01*
G75*
G02*
X83316000Y-94948172I0J237500D01*
G01*
X83316000Y-94473172D01*
G75*
G02*
X83553500Y-94235672I237500J0D01*
G01*
X84128500Y-94235672D01*
G75*
G02*
X84366000Y-94473172I0J-237500D01*
G01*
G37*
G36*
G01*
X86553500Y-101859000D02*
X86078500Y-101859000D01*
G75*
G02*
X85841000Y-101621500I0J237500D01*
G01*
X85841000Y-101046500D01*
G75*
G02*
X86078500Y-100809000I237500J0D01*
G01*
X86553500Y-100809000D01*
G75*
G02*
X86791000Y-101046500I0J-237500D01*
G01*
X86791000Y-101621500D01*
G75*
G02*
X86553500Y-101859000I-237500J0D01*
G01*
G37*
G36*
G01*
X86553500Y-103609000D02*
X86078500Y-103609000D01*
G75*
G02*
X85841000Y-103371500I0J237500D01*
G01*
X85841000Y-102796500D01*
G75*
G02*
X86078500Y-102559000I237500J0D01*
G01*
X86553500Y-102559000D01*
G75*
G02*
X86791000Y-102796500I0J-237500D01*
G01*
X86791000Y-103371500D01*
G75*
G02*
X86553500Y-103609000I-237500J0D01*
G01*
G37*
G36*
G01*
X78966000Y-103596500D02*
X78966000Y-103121500D01*
G75*
G02*
X79203500Y-102884000I237500J0D01*
G01*
X79778500Y-102884000D01*
G75*
G02*
X80016000Y-103121500I0J-237500D01*
G01*
X80016000Y-103596500D01*
G75*
G02*
X79778500Y-103834000I-237500J0D01*
G01*
X79203500Y-103834000D01*
G75*
G02*
X78966000Y-103596500I0J237500D01*
G01*
G37*
G36*
G01*
X77216000Y-103596500D02*
X77216000Y-103121500D01*
G75*
G02*
X77453500Y-102884000I237500J0D01*
G01*
X78028500Y-102884000D01*
G75*
G02*
X78266000Y-103121500I0J-237500D01*
G01*
X78266000Y-103596500D01*
G75*
G02*
X78028500Y-103834000I-237500J0D01*
G01*
X77453500Y-103834000D01*
G75*
G02*
X77216000Y-103596500I0J237500D01*
G01*
G37*
D20*
X75102592Y-94810672D03*
X78152592Y-94810672D03*
G36*
G01*
X83140092Y-106210672D02*
X83615092Y-106210672D01*
G75*
G02*
X83852592Y-106448172I0J-237500D01*
G01*
X83852592Y-107023172D01*
G75*
G02*
X83615092Y-107260672I-237500J0D01*
G01*
X83140092Y-107260672D01*
G75*
G02*
X82902592Y-107023172I0J237500D01*
G01*
X82902592Y-106448172D01*
G75*
G02*
X83140092Y-106210672I237500J0D01*
G01*
G37*
G36*
G01*
X83140092Y-104460672D02*
X83615092Y-104460672D01*
G75*
G02*
X83852592Y-104698172I0J-237500D01*
G01*
X83852592Y-105273172D01*
G75*
G02*
X83615092Y-105510672I-237500J0D01*
G01*
X83140092Y-105510672D01*
G75*
G02*
X82902592Y-105273172I0J237500D01*
G01*
X82902592Y-104698172D01*
G75*
G02*
X83140092Y-104460672I237500J0D01*
G01*
G37*
D21*
X81192593Y-98685671D03*
X80242593Y-98685671D03*
X82142593Y-98685671D03*
X82142593Y-101385671D03*
X81192593Y-101385671D03*
X80242593Y-101385671D03*
G36*
G01*
X97553500Y-43759000D02*
X97078500Y-43759000D01*
G75*
G02*
X96841000Y-43521500I0J237500D01*
G01*
X96841000Y-42946500D01*
G75*
G02*
X97078500Y-42709000I237500J0D01*
G01*
X97553500Y-42709000D01*
G75*
G02*
X97791000Y-42946500I0J-237500D01*
G01*
X97791000Y-43521500D01*
G75*
G02*
X97553500Y-43759000I-237500J0D01*
G01*
G37*
G36*
G01*
X97553500Y-45509000D02*
X97078500Y-45509000D01*
G75*
G02*
X96841000Y-45271500I0J237500D01*
G01*
X96841000Y-44696500D01*
G75*
G02*
X97078500Y-44459000I237500J0D01*
G01*
X97553500Y-44459000D01*
G75*
G02*
X97791000Y-44696500I0J-237500D01*
G01*
X97791000Y-45271500D01*
G75*
G02*
X97553500Y-45509000I-237500J0D01*
G01*
G37*
D22*
X112116001Y-97884001D03*
X113066001Y-99884001D03*
X111166001Y-99884001D03*
G36*
G01*
X109153500Y-99159000D02*
X109628500Y-99159000D01*
G75*
G02*
X109866000Y-99396500I0J-237500D01*
G01*
X109866000Y-99971500D01*
G75*
G02*
X109628500Y-100209000I-237500J0D01*
G01*
X109153500Y-100209000D01*
G75*
G02*
X108916000Y-99971500I0J237500D01*
G01*
X108916000Y-99396500D01*
G75*
G02*
X109153500Y-99159000I237500J0D01*
G01*
G37*
G36*
G01*
X109153500Y-97409000D02*
X109628500Y-97409000D01*
G75*
G02*
X109866000Y-97646500I0J-237500D01*
G01*
X109866000Y-98221500D01*
G75*
G02*
X109628500Y-98459000I-237500J0D01*
G01*
X109153500Y-98459000D01*
G75*
G02*
X108916000Y-98221500I0J237500D01*
G01*
X108916000Y-97646500D01*
G75*
G02*
X109153500Y-97409000I237500J0D01*
G01*
G37*
G36*
G01*
X112441000Y-101846500D02*
X112441000Y-101371500D01*
G75*
G02*
X112678500Y-101134000I237500J0D01*
G01*
X113253500Y-101134000D01*
G75*
G02*
X113491000Y-101371500I0J-237500D01*
G01*
X113491000Y-101846500D01*
G75*
G02*
X113253500Y-102084000I-237500J0D01*
G01*
X112678500Y-102084000D01*
G75*
G02*
X112441000Y-101846500I0J237500D01*
G01*
G37*
G36*
G01*
X110691000Y-101846500D02*
X110691000Y-101371500D01*
G75*
G02*
X110928500Y-101134000I237500J0D01*
G01*
X111503500Y-101134000D01*
G75*
G02*
X111741000Y-101371500I0J-237500D01*
G01*
X111741000Y-101846500D01*
G75*
G02*
X111503500Y-102084000I-237500J0D01*
G01*
X110928500Y-102084000D01*
G75*
G02*
X110691000Y-101846500I0J237500D01*
G01*
G37*
G36*
G01*
X112641000Y-96446500D02*
X112641000Y-95971500D01*
G75*
G02*
X112878500Y-95734000I237500J0D01*
G01*
X113453500Y-95734000D01*
G75*
G02*
X113691000Y-95971500I0J-237500D01*
G01*
X113691000Y-96446500D01*
G75*
G02*
X113453500Y-96684000I-237500J0D01*
G01*
X112878500Y-96684000D01*
G75*
G02*
X112641000Y-96446500I0J237500D01*
G01*
G37*
G36*
G01*
X110891000Y-96446500D02*
X110891000Y-95971500D01*
G75*
G02*
X111128500Y-95734000I237500J0D01*
G01*
X111703500Y-95734000D01*
G75*
G02*
X111941000Y-95971500I0J-237500D01*
G01*
X111941000Y-96446500D01*
G75*
G02*
X111703500Y-96684000I-237500J0D01*
G01*
X111128500Y-96684000D01*
G75*
G02*
X110891000Y-96446500I0J237500D01*
G01*
G37*
G36*
G01*
X155991000Y-104559000D02*
X155991000Y-105809000D01*
G75*
G02*
X155741000Y-106059000I-250000J0D01*
G01*
X154816000Y-106059000D01*
G75*
G02*
X154566000Y-105809000I0J250000D01*
G01*
X154566000Y-104559000D01*
G75*
G02*
X154816000Y-104309000I250000J0D01*
G01*
X155741000Y-104309000D01*
G75*
G02*
X155991000Y-104559000I0J-250000D01*
G01*
G37*
G36*
G01*
X158966000Y-104559000D02*
X158966000Y-105809000D01*
G75*
G02*
X158716000Y-106059000I-250000J0D01*
G01*
X157791000Y-106059000D01*
G75*
G02*
X157541000Y-105809000I0J250000D01*
G01*
X157541000Y-104559000D01*
G75*
G02*
X157791000Y-104309000I250000J0D01*
G01*
X158716000Y-104309000D01*
G75*
G02*
X158966000Y-104559000I0J-250000D01*
G01*
G37*
G36*
G01*
X155991000Y-107059000D02*
X155991000Y-108309000D01*
G75*
G02*
X155741000Y-108559000I-250000J0D01*
G01*
X154816000Y-108559000D01*
G75*
G02*
X154566000Y-108309000I0J250000D01*
G01*
X154566000Y-107059000D01*
G75*
G02*
X154816000Y-106809000I250000J0D01*
G01*
X155741000Y-106809000D01*
G75*
G02*
X155991000Y-107059000I0J-250000D01*
G01*
G37*
G36*
G01*
X158966000Y-107059000D02*
X158966000Y-108309000D01*
G75*
G02*
X158716000Y-108559000I-250000J0D01*
G01*
X157791000Y-108559000D01*
G75*
G02*
X157541000Y-108309000I0J250000D01*
G01*
X157541000Y-107059000D01*
G75*
G02*
X157791000Y-106809000I250000J0D01*
G01*
X158716000Y-106809000D01*
G75*
G02*
X158966000Y-107059000I0J-250000D01*
G01*
G37*
G36*
G01*
X125491000Y-130571500D02*
X125491000Y-131046500D01*
G75*
G02*
X125253500Y-131284000I-237500J0D01*
G01*
X124678500Y-131284000D01*
G75*
G02*
X124441000Y-131046500I0J237500D01*
G01*
X124441000Y-130571500D01*
G75*
G02*
X124678500Y-130334000I237500J0D01*
G01*
X125253500Y-130334000D01*
G75*
G02*
X125491000Y-130571500I0J-237500D01*
G01*
G37*
G36*
G01*
X127241000Y-130571500D02*
X127241000Y-131046500D01*
G75*
G02*
X127003500Y-131284000I-237500J0D01*
G01*
X126428500Y-131284000D01*
G75*
G02*
X126191000Y-131046500I0J237500D01*
G01*
X126191000Y-130571500D01*
G75*
G02*
X126428500Y-130334000I237500J0D01*
G01*
X127003500Y-130334000D01*
G75*
G02*
X127241000Y-130571500I0J-237500D01*
G01*
G37*
G36*
G01*
X139216000Y-126121500D02*
X139216000Y-125646500D01*
G75*
G02*
X139453500Y-125409000I237500J0D01*
G01*
X140028500Y-125409000D01*
G75*
G02*
X140266000Y-125646500I0J-237500D01*
G01*
X140266000Y-126121500D01*
G75*
G02*
X140028500Y-126359000I-237500J0D01*
G01*
X139453500Y-126359000D01*
G75*
G02*
X139216000Y-126121500I0J237500D01*
G01*
G37*
G36*
G01*
X137466000Y-126121500D02*
X137466000Y-125646500D01*
G75*
G02*
X137703500Y-125409000I237500J0D01*
G01*
X138278500Y-125409000D01*
G75*
G02*
X138516000Y-125646500I0J-237500D01*
G01*
X138516000Y-126121500D01*
G75*
G02*
X138278500Y-126359000I-237500J0D01*
G01*
X137703500Y-126359000D01*
G75*
G02*
X137466000Y-126121500I0J237500D01*
G01*
G37*
G36*
G01*
X137303500Y-129434000D02*
X136828500Y-129434000D01*
G75*
G02*
X136591000Y-129196500I0J237500D01*
G01*
X136591000Y-128621500D01*
G75*
G02*
X136828500Y-128384000I237500J0D01*
G01*
X137303500Y-128384000D01*
G75*
G02*
X137541000Y-128621500I0J-237500D01*
G01*
X137541000Y-129196500D01*
G75*
G02*
X137303500Y-129434000I-237500J0D01*
G01*
G37*
G36*
G01*
X137303500Y-131184000D02*
X136828500Y-131184000D01*
G75*
G02*
X136591000Y-130946500I0J237500D01*
G01*
X136591000Y-130371500D01*
G75*
G02*
X136828500Y-130134000I237500J0D01*
G01*
X137303500Y-130134000D01*
G75*
G02*
X137541000Y-130371500I0J-237500D01*
G01*
X137541000Y-130946500D01*
G75*
G02*
X137303500Y-131184000I-237500J0D01*
G01*
G37*
G36*
G01*
X139528500Y-135334000D02*
X140003500Y-135334000D01*
G75*
G02*
X140241000Y-135571500I0J-237500D01*
G01*
X140241000Y-136146500D01*
G75*
G02*
X140003500Y-136384000I-237500J0D01*
G01*
X139528500Y-136384000D01*
G75*
G02*
X139291000Y-136146500I0J237500D01*
G01*
X139291000Y-135571500D01*
G75*
G02*
X139528500Y-135334000I237500J0D01*
G01*
G37*
G36*
G01*
X139528500Y-133584000D02*
X140003500Y-133584000D01*
G75*
G02*
X140241000Y-133821500I0J-237500D01*
G01*
X140241000Y-134396500D01*
G75*
G02*
X140003500Y-134634000I-237500J0D01*
G01*
X139528500Y-134634000D01*
G75*
G02*
X139291000Y-134396500I0J237500D01*
G01*
X139291000Y-133821500D01*
G75*
G02*
X139528500Y-133584000I237500J0D01*
G01*
G37*
G36*
G01*
X138468501Y-134658999D02*
X137993501Y-134658999D01*
G75*
G02*
X137756001Y-134421499I0J237500D01*
G01*
X137756001Y-133846499D01*
G75*
G02*
X137993501Y-133608999I237500J0D01*
G01*
X138468501Y-133608999D01*
G75*
G02*
X138706001Y-133846499I0J-237500D01*
G01*
X138706001Y-134421499D01*
G75*
G02*
X138468501Y-134658999I-237500J0D01*
G01*
G37*
G36*
G01*
X138468501Y-136408999D02*
X137993501Y-136408999D01*
G75*
G02*
X137756001Y-136171499I0J237500D01*
G01*
X137756001Y-135596499D01*
G75*
G02*
X137993501Y-135358999I237500J0D01*
G01*
X138468501Y-135358999D01*
G75*
G02*
X138706001Y-135596499I0J-237500D01*
G01*
X138706001Y-136171499D01*
G75*
G02*
X138468501Y-136408999I-237500J0D01*
G01*
G37*
D23*
X141016000Y-131094000D03*
X140066000Y-131094000D03*
X139116000Y-131094000D03*
X139116000Y-128474000D03*
X140066000Y-128474000D03*
X141016000Y-128474000D03*
G36*
G01*
X128803500Y-93504000D02*
X128328500Y-93504000D01*
G75*
G02*
X128091000Y-93266500I0J237500D01*
G01*
X128091000Y-92691500D01*
G75*
G02*
X128328500Y-92454000I237500J0D01*
G01*
X128803500Y-92454000D01*
G75*
G02*
X129041000Y-92691500I0J-237500D01*
G01*
X129041000Y-93266500D01*
G75*
G02*
X128803500Y-93504000I-237500J0D01*
G01*
G37*
G36*
G01*
X128803500Y-95254000D02*
X128328500Y-95254000D01*
G75*
G02*
X128091000Y-95016500I0J237500D01*
G01*
X128091000Y-94441500D01*
G75*
G02*
X128328500Y-94204000I237500J0D01*
G01*
X128803500Y-94204000D01*
G75*
G02*
X129041000Y-94441500I0J-237500D01*
G01*
X129041000Y-95016500D01*
G75*
G02*
X128803500Y-95254000I-237500J0D01*
G01*
G37*
G36*
G01*
X133898500Y-95904000D02*
X134373500Y-95904000D01*
G75*
G02*
X134611000Y-96141500I0J-237500D01*
G01*
X134611000Y-96716500D01*
G75*
G02*
X134373500Y-96954000I-237500J0D01*
G01*
X133898500Y-96954000D01*
G75*
G02*
X133661000Y-96716500I0J237500D01*
G01*
X133661000Y-96141500D01*
G75*
G02*
X133898500Y-95904000I237500J0D01*
G01*
G37*
G36*
G01*
X133898500Y-94154000D02*
X134373500Y-94154000D01*
G75*
G02*
X134611000Y-94391500I0J-237500D01*
G01*
X134611000Y-94966500D01*
G75*
G02*
X134373500Y-95204000I-237500J0D01*
G01*
X133898500Y-95204000D01*
G75*
G02*
X133661000Y-94966500I0J237500D01*
G01*
X133661000Y-94391500D01*
G75*
G02*
X133898500Y-94154000I237500J0D01*
G01*
G37*
G36*
G01*
X129828500Y-94204000D02*
X130303500Y-94204000D01*
G75*
G02*
X130541000Y-94441500I0J-237500D01*
G01*
X130541000Y-95016500D01*
G75*
G02*
X130303500Y-95254000I-237500J0D01*
G01*
X129828500Y-95254000D01*
G75*
G02*
X129591000Y-95016500I0J237500D01*
G01*
X129591000Y-94441500D01*
G75*
G02*
X129828500Y-94204000I237500J0D01*
G01*
G37*
G36*
G01*
X129828500Y-92454000D02*
X130303500Y-92454000D01*
G75*
G02*
X130541000Y-92691500I0J-237500D01*
G01*
X130541000Y-93266500D01*
G75*
G02*
X130303500Y-93504000I-237500J0D01*
G01*
X129828500Y-93504000D01*
G75*
G02*
X129591000Y-93266500I0J237500D01*
G01*
X129591000Y-92691500D01*
G75*
G02*
X129828500Y-92454000I237500J0D01*
G01*
G37*
G36*
G01*
X132428500Y-94204000D02*
X132903500Y-94204000D01*
G75*
G02*
X133141000Y-94441500I0J-237500D01*
G01*
X133141000Y-95016500D01*
G75*
G02*
X132903500Y-95254000I-237500J0D01*
G01*
X132428500Y-95254000D01*
G75*
G02*
X132191000Y-95016500I0J237500D01*
G01*
X132191000Y-94441500D01*
G75*
G02*
X132428500Y-94204000I237500J0D01*
G01*
G37*
G36*
G01*
X132428500Y-92454000D02*
X132903500Y-92454000D01*
G75*
G02*
X133141000Y-92691500I0J-237500D01*
G01*
X133141000Y-93266500D01*
G75*
G02*
X132903500Y-93504000I-237500J0D01*
G01*
X132428500Y-93504000D01*
G75*
G02*
X132191000Y-93266500I0J237500D01*
G01*
X132191000Y-92691500D01*
G75*
G02*
X132428500Y-92454000I237500J0D01*
G01*
G37*
G36*
G01*
X127591000Y-84579000D02*
X126341000Y-84579000D01*
G75*
G02*
X126091000Y-84329000I0J250000D01*
G01*
X126091000Y-83579000D01*
G75*
G02*
X126341000Y-83329000I250000J0D01*
G01*
X127591000Y-83329000D01*
G75*
G02*
X127841000Y-83579000I0J-250000D01*
G01*
X127841000Y-84329000D01*
G75*
G02*
X127591000Y-84579000I-250000J0D01*
G01*
G37*
G36*
G01*
X127591000Y-87379000D02*
X126341000Y-87379000D01*
G75*
G02*
X126091000Y-87129000I0J250000D01*
G01*
X126091000Y-86379000D01*
G75*
G02*
X126341000Y-86129000I250000J0D01*
G01*
X127591000Y-86129000D01*
G75*
G02*
X127841000Y-86379000I0J-250000D01*
G01*
X127841000Y-87129000D01*
G75*
G02*
X127591000Y-87379000I-250000J0D01*
G01*
G37*
G36*
G01*
X130398500Y-83404000D02*
X130873500Y-83404000D01*
G75*
G02*
X131111000Y-83641500I0J-237500D01*
G01*
X131111000Y-84216500D01*
G75*
G02*
X130873500Y-84454000I-237500J0D01*
G01*
X130398500Y-84454000D01*
G75*
G02*
X130161000Y-84216500I0J237500D01*
G01*
X130161000Y-83641500D01*
G75*
G02*
X130398500Y-83404000I237500J0D01*
G01*
G37*
G36*
G01*
X130398500Y-81654000D02*
X130873500Y-81654000D01*
G75*
G02*
X131111000Y-81891500I0J-237500D01*
G01*
X131111000Y-82466500D01*
G75*
G02*
X130873500Y-82704000I-237500J0D01*
G01*
X130398500Y-82704000D01*
G75*
G02*
X130161000Y-82466500I0J237500D01*
G01*
X130161000Y-81891500D01*
G75*
G02*
X130398500Y-81654000I237500J0D01*
G01*
G37*
G36*
G01*
X125191000Y-84579000D02*
X123941000Y-84579000D01*
G75*
G02*
X123691000Y-84329000I0J250000D01*
G01*
X123691000Y-83579000D01*
G75*
G02*
X123941000Y-83329000I250000J0D01*
G01*
X125191000Y-83329000D01*
G75*
G02*
X125441000Y-83579000I0J-250000D01*
G01*
X125441000Y-84329000D01*
G75*
G02*
X125191000Y-84579000I-250000J0D01*
G01*
G37*
G36*
G01*
X125191000Y-87379000D02*
X123941000Y-87379000D01*
G75*
G02*
X123691000Y-87129000I0J250000D01*
G01*
X123691000Y-86379000D01*
G75*
G02*
X123941000Y-86129000I250000J0D01*
G01*
X125191000Y-86129000D01*
G75*
G02*
X125441000Y-86379000I0J-250000D01*
G01*
X125441000Y-87129000D01*
G75*
G02*
X125191000Y-87379000I-250000J0D01*
G01*
G37*
G36*
G01*
X134373500Y-87204000D02*
X133898500Y-87204000D01*
G75*
G02*
X133661000Y-86966500I0J237500D01*
G01*
X133661000Y-86391500D01*
G75*
G02*
X133898500Y-86154000I237500J0D01*
G01*
X134373500Y-86154000D01*
G75*
G02*
X134611000Y-86391500I0J-237500D01*
G01*
X134611000Y-86966500D01*
G75*
G02*
X134373500Y-87204000I-237500J0D01*
G01*
G37*
G36*
G01*
X134373500Y-88954000D02*
X133898500Y-88954000D01*
G75*
G02*
X133661000Y-88716500I0J237500D01*
G01*
X133661000Y-88141500D01*
G75*
G02*
X133898500Y-87904000I237500J0D01*
G01*
X134373500Y-87904000D01*
G75*
G02*
X134611000Y-88141500I0J-237500D01*
G01*
X134611000Y-88716500D01*
G75*
G02*
X134373500Y-88954000I-237500J0D01*
G01*
G37*
G36*
G01*
X96266000Y-46771500D02*
X96266000Y-47246500D01*
G75*
G02*
X96028500Y-47484000I-237500J0D01*
G01*
X95453500Y-47484000D01*
G75*
G02*
X95216000Y-47246500I0J237500D01*
G01*
X95216000Y-46771500D01*
G75*
G02*
X95453500Y-46534000I237500J0D01*
G01*
X96028500Y-46534000D01*
G75*
G02*
X96266000Y-46771500I0J-237500D01*
G01*
G37*
G36*
G01*
X98016000Y-46771500D02*
X98016000Y-47246500D01*
G75*
G02*
X97778500Y-47484000I-237500J0D01*
G01*
X97203500Y-47484000D01*
G75*
G02*
X96966000Y-47246500I0J237500D01*
G01*
X96966000Y-46771500D01*
G75*
G02*
X97203500Y-46534000I237500J0D01*
G01*
X97778500Y-46534000D01*
G75*
G02*
X98016000Y-46771500I0J-237500D01*
G01*
G37*
D24*
X117716000Y-62434000D03*
X117716000Y-54784000D03*
D22*
X87816000Y-56009000D03*
X88766000Y-58009000D03*
X86866000Y-58009000D03*
G36*
G01*
X133898500Y-92404000D02*
X134373500Y-92404000D01*
G75*
G02*
X134611000Y-92641500I0J-237500D01*
G01*
X134611000Y-93216500D01*
G75*
G02*
X134373500Y-93454000I-237500J0D01*
G01*
X133898500Y-93454000D01*
G75*
G02*
X133661000Y-93216500I0J237500D01*
G01*
X133661000Y-92641500D01*
G75*
G02*
X133898500Y-92404000I237500J0D01*
G01*
G37*
G36*
G01*
X133898500Y-90654000D02*
X134373500Y-90654000D01*
G75*
G02*
X134611000Y-90891500I0J-237500D01*
G01*
X134611000Y-91466500D01*
G75*
G02*
X134373500Y-91704000I-237500J0D01*
G01*
X133898500Y-91704000D01*
G75*
G02*
X133661000Y-91466500I0J237500D01*
G01*
X133661000Y-90891500D01*
G75*
G02*
X133898500Y-90654000I237500J0D01*
G01*
G37*
G36*
G01*
X131998500Y-83404000D02*
X132473500Y-83404000D01*
G75*
G02*
X132711000Y-83641500I0J-237500D01*
G01*
X132711000Y-84216500D01*
G75*
G02*
X132473500Y-84454000I-237500J0D01*
G01*
X131998500Y-84454000D01*
G75*
G02*
X131761000Y-84216500I0J237500D01*
G01*
X131761000Y-83641500D01*
G75*
G02*
X131998500Y-83404000I237500J0D01*
G01*
G37*
G36*
G01*
X131998500Y-81654000D02*
X132473500Y-81654000D01*
G75*
G02*
X132711000Y-81891500I0J-237500D01*
G01*
X132711000Y-82466500D01*
G75*
G02*
X132473500Y-82704000I-237500J0D01*
G01*
X131998500Y-82704000D01*
G75*
G02*
X131761000Y-82466500I0J237500D01*
G01*
X131761000Y-81891500D01*
G75*
G02*
X131998500Y-81654000I237500J0D01*
G01*
G37*
G36*
G01*
X134073500Y-82704000D02*
X133598500Y-82704000D01*
G75*
G02*
X133361000Y-82466500I0J237500D01*
G01*
X133361000Y-81891500D01*
G75*
G02*
X133598500Y-81654000I237500J0D01*
G01*
X134073500Y-81654000D01*
G75*
G02*
X134311000Y-81891500I0J-237500D01*
G01*
X134311000Y-82466500D01*
G75*
G02*
X134073500Y-82704000I-237500J0D01*
G01*
G37*
G36*
G01*
X134073500Y-84454000D02*
X133598500Y-84454000D01*
G75*
G02*
X133361000Y-84216500I0J237500D01*
G01*
X133361000Y-83641500D01*
G75*
G02*
X133598500Y-83404000I237500J0D01*
G01*
X134073500Y-83404000D01*
G75*
G02*
X134311000Y-83641500I0J-237500D01*
G01*
X134311000Y-84216500D01*
G75*
G02*
X134073500Y-84454000I-237500J0D01*
G01*
G37*
G36*
G01*
X135198500Y-83404000D02*
X135673500Y-83404000D01*
G75*
G02*
X135911000Y-83641500I0J-237500D01*
G01*
X135911000Y-84216500D01*
G75*
G02*
X135673500Y-84454000I-237500J0D01*
G01*
X135198500Y-84454000D01*
G75*
G02*
X134961000Y-84216500I0J237500D01*
G01*
X134961000Y-83641500D01*
G75*
G02*
X135198500Y-83404000I237500J0D01*
G01*
G37*
G36*
G01*
X135198500Y-81654000D02*
X135673500Y-81654000D01*
G75*
G02*
X135911000Y-81891500I0J-237500D01*
G01*
X135911000Y-82466500D01*
G75*
G02*
X135673500Y-82704000I-237500J0D01*
G01*
X135198500Y-82704000D01*
G75*
G02*
X134961000Y-82466500I0J237500D01*
G01*
X134961000Y-81891500D01*
G75*
G02*
X135198500Y-81654000I237500J0D01*
G01*
G37*
G36*
G01*
X92753500Y-55259000D02*
X92278500Y-55259000D01*
G75*
G02*
X92041000Y-55021500I0J237500D01*
G01*
X92041000Y-54446500D01*
G75*
G02*
X92278500Y-54209000I237500J0D01*
G01*
X92753500Y-54209000D01*
G75*
G02*
X92991000Y-54446500I0J-237500D01*
G01*
X92991000Y-55021500D01*
G75*
G02*
X92753500Y-55259000I-237500J0D01*
G01*
G37*
G36*
G01*
X92753500Y-57009000D02*
X92278500Y-57009000D01*
G75*
G02*
X92041000Y-56771500I0J237500D01*
G01*
X92041000Y-56196500D01*
G75*
G02*
X92278500Y-55959000I237500J0D01*
G01*
X92753500Y-55959000D01*
G75*
G02*
X92991000Y-56196500I0J-237500D01*
G01*
X92991000Y-56771500D01*
G75*
G02*
X92753500Y-57009000I-237500J0D01*
G01*
G37*
G36*
G01*
X94353500Y-55259000D02*
X93878500Y-55259000D01*
G75*
G02*
X93641000Y-55021500I0J237500D01*
G01*
X93641000Y-54446500D01*
G75*
G02*
X93878500Y-54209000I237500J0D01*
G01*
X94353500Y-54209000D01*
G75*
G02*
X94591000Y-54446500I0J-237500D01*
G01*
X94591000Y-55021500D01*
G75*
G02*
X94353500Y-55259000I-237500J0D01*
G01*
G37*
G36*
G01*
X94353500Y-57009000D02*
X93878500Y-57009000D01*
G75*
G02*
X93641000Y-56771500I0J237500D01*
G01*
X93641000Y-56196500D01*
G75*
G02*
X93878500Y-55959000I237500J0D01*
G01*
X94353500Y-55959000D01*
G75*
G02*
X94591000Y-56196500I0J-237500D01*
G01*
X94591000Y-56771500D01*
G75*
G02*
X94353500Y-57009000I-237500J0D01*
G01*
G37*
D25*
X130966000Y-88434000D03*
X130966000Y-89274000D03*
X131906000Y-89274000D03*
X131906000Y-88434000D03*
D26*
X130436000Y-86749000D03*
X130936000Y-86749000D03*
X131436000Y-86749000D03*
X131936000Y-86749000D03*
X132436000Y-86749000D03*
X132436000Y-90959000D03*
X131936000Y-90959000D03*
X131436000Y-90959000D03*
X130936000Y-90959000D03*
X130436000Y-90959000D03*
G36*
G01*
X104466000Y-46946500D02*
X104466000Y-46471500D01*
G75*
G02*
X104703500Y-46234000I237500J0D01*
G01*
X105278500Y-46234000D01*
G75*
G02*
X105516000Y-46471500I0J-237500D01*
G01*
X105516000Y-46946500D01*
G75*
G02*
X105278500Y-47184000I-237500J0D01*
G01*
X104703500Y-47184000D01*
G75*
G02*
X104466000Y-46946500I0J237500D01*
G01*
G37*
G36*
G01*
X102716000Y-46946500D02*
X102716000Y-46471500D01*
G75*
G02*
X102953500Y-46234000I237500J0D01*
G01*
X103528500Y-46234000D01*
G75*
G02*
X103766000Y-46471500I0J-237500D01*
G01*
X103766000Y-46946500D01*
G75*
G02*
X103528500Y-47184000I-237500J0D01*
G01*
X102953500Y-47184000D01*
G75*
G02*
X102716000Y-46946500I0J237500D01*
G01*
G37*
G36*
G01*
X93291000Y-59134000D02*
X91141000Y-59134000D01*
G75*
G02*
X90891000Y-58884000I0J250000D01*
G01*
X90891000Y-58134000D01*
G75*
G02*
X91141000Y-57884000I250000J0D01*
G01*
X93291000Y-57884000D01*
G75*
G02*
X93541000Y-58134000I0J-250000D01*
G01*
X93541000Y-58884000D01*
G75*
G02*
X93291000Y-59134000I-250000J0D01*
G01*
G37*
G36*
G01*
X93291000Y-61934000D02*
X91141000Y-61934000D01*
G75*
G02*
X90891000Y-61684000I0J250000D01*
G01*
X90891000Y-60934000D01*
G75*
G02*
X91141000Y-60684000I250000J0D01*
G01*
X93291000Y-60684000D01*
G75*
G02*
X93541000Y-60934000I0J-250000D01*
G01*
X93541000Y-61684000D01*
G75*
G02*
X93291000Y-61934000I-250000J0D01*
G01*
G37*
G36*
G01*
X89566000Y-49746500D02*
X89566000Y-49271500D01*
G75*
G02*
X89803500Y-49034000I237500J0D01*
G01*
X90378500Y-49034000D01*
G75*
G02*
X90616000Y-49271500I0J-237500D01*
G01*
X90616000Y-49746500D01*
G75*
G02*
X90378500Y-49984000I-237500J0D01*
G01*
X89803500Y-49984000D01*
G75*
G02*
X89566000Y-49746500I0J237500D01*
G01*
G37*
G36*
G01*
X87816000Y-49746500D02*
X87816000Y-49271500D01*
G75*
G02*
X88053500Y-49034000I237500J0D01*
G01*
X88628500Y-49034000D01*
G75*
G02*
X88866000Y-49271500I0J-237500D01*
G01*
X88866000Y-49746500D01*
G75*
G02*
X88628500Y-49984000I-237500J0D01*
G01*
X88053500Y-49984000D01*
G75*
G02*
X87816000Y-49746500I0J237500D01*
G01*
G37*
G36*
G01*
X105466000Y-44871500D02*
X105466000Y-45346500D01*
G75*
G02*
X105228500Y-45584000I-237500J0D01*
G01*
X104653500Y-45584000D01*
G75*
G02*
X104416000Y-45346500I0J237500D01*
G01*
X104416000Y-44871500D01*
G75*
G02*
X104653500Y-44634000I237500J0D01*
G01*
X105228500Y-44634000D01*
G75*
G02*
X105466000Y-44871500I0J-237500D01*
G01*
G37*
G36*
G01*
X107216000Y-44871500D02*
X107216000Y-45346500D01*
G75*
G02*
X106978500Y-45584000I-237500J0D01*
G01*
X106403500Y-45584000D01*
G75*
G02*
X106166000Y-45346500I0J237500D01*
G01*
X106166000Y-44871500D01*
G75*
G02*
X106403500Y-44634000I237500J0D01*
G01*
X106978500Y-44634000D01*
G75*
G02*
X107216000Y-44871500I0J-237500D01*
G01*
G37*
G36*
G01*
X103441000Y-48834000D02*
X103441000Y-50984000D01*
G75*
G02*
X103191000Y-51234000I-250000J0D01*
G01*
X102441000Y-51234000D01*
G75*
G02*
X102191000Y-50984000I0J250000D01*
G01*
X102191000Y-48834000D01*
G75*
G02*
X102441000Y-48584000I250000J0D01*
G01*
X103191000Y-48584000D01*
G75*
G02*
X103441000Y-48834000I0J-250000D01*
G01*
G37*
G36*
G01*
X106241000Y-48834000D02*
X106241000Y-50984000D01*
G75*
G02*
X105991000Y-51234000I-250000J0D01*
G01*
X105241000Y-51234000D01*
G75*
G02*
X104991000Y-50984000I0J250000D01*
G01*
X104991000Y-48834000D01*
G75*
G02*
X105241000Y-48584000I250000J0D01*
G01*
X105991000Y-48584000D01*
G75*
G02*
X106241000Y-48834000I0J-250000D01*
G01*
G37*
G36*
G01*
X107778500Y-61259000D02*
X108253500Y-61259000D01*
G75*
G02*
X108491000Y-61496500I0J-237500D01*
G01*
X108491000Y-62071500D01*
G75*
G02*
X108253500Y-62309000I-237500J0D01*
G01*
X107778500Y-62309000D01*
G75*
G02*
X107541000Y-62071500I0J237500D01*
G01*
X107541000Y-61496500D01*
G75*
G02*
X107778500Y-61259000I237500J0D01*
G01*
G37*
G36*
G01*
X107778500Y-59509000D02*
X108253500Y-59509000D01*
G75*
G02*
X108491000Y-59746500I0J-237500D01*
G01*
X108491000Y-60321500D01*
G75*
G02*
X108253500Y-60559000I-237500J0D01*
G01*
X107778500Y-60559000D01*
G75*
G02*
X107541000Y-60321500I0J237500D01*
G01*
X107541000Y-59746500D01*
G75*
G02*
X107778500Y-59509000I237500J0D01*
G01*
G37*
G36*
G01*
X107778500Y-64659000D02*
X108253500Y-64659000D01*
G75*
G02*
X108491000Y-64896500I0J-237500D01*
G01*
X108491000Y-65471500D01*
G75*
G02*
X108253500Y-65709000I-237500J0D01*
G01*
X107778500Y-65709000D01*
G75*
G02*
X107541000Y-65471500I0J237500D01*
G01*
X107541000Y-64896500D01*
G75*
G02*
X107778500Y-64659000I237500J0D01*
G01*
G37*
G36*
G01*
X107778500Y-62909000D02*
X108253500Y-62909000D01*
G75*
G02*
X108491000Y-63146500I0J-237500D01*
G01*
X108491000Y-63721500D01*
G75*
G02*
X108253500Y-63959000I-237500J0D01*
G01*
X107778500Y-63959000D01*
G75*
G02*
X107541000Y-63721500I0J237500D01*
G01*
X107541000Y-63146500D01*
G75*
G02*
X107778500Y-62909000I237500J0D01*
G01*
G37*
G36*
G01*
X104866000Y-63946500D02*
X104866000Y-63471500D01*
G75*
G02*
X105103500Y-63234000I237500J0D01*
G01*
X105678500Y-63234000D01*
G75*
G02*
X105916000Y-63471500I0J-237500D01*
G01*
X105916000Y-63946500D01*
G75*
G02*
X105678500Y-64184000I-237500J0D01*
G01*
X105103500Y-64184000D01*
G75*
G02*
X104866000Y-63946500I0J237500D01*
G01*
G37*
G36*
G01*
X103116000Y-63946500D02*
X103116000Y-63471500D01*
G75*
G02*
X103353500Y-63234000I237500J0D01*
G01*
X103928500Y-63234000D01*
G75*
G02*
X104166000Y-63471500I0J-237500D01*
G01*
X104166000Y-63946500D01*
G75*
G02*
X103928500Y-64184000I-237500J0D01*
G01*
X103353500Y-64184000D01*
G75*
G02*
X103116000Y-63946500I0J237500D01*
G01*
G37*
G36*
G01*
X122553500Y-71559000D02*
X122078500Y-71559000D01*
G75*
G02*
X121841000Y-71321500I0J237500D01*
G01*
X121841000Y-70746500D01*
G75*
G02*
X122078500Y-70509000I237500J0D01*
G01*
X122553500Y-70509000D01*
G75*
G02*
X122791000Y-70746500I0J-237500D01*
G01*
X122791000Y-71321500D01*
G75*
G02*
X122553500Y-71559000I-237500J0D01*
G01*
G37*
G36*
G01*
X122553500Y-73309000D02*
X122078500Y-73309000D01*
G75*
G02*
X121841000Y-73071500I0J237500D01*
G01*
X121841000Y-72496500D01*
G75*
G02*
X122078500Y-72259000I237500J0D01*
G01*
X122553500Y-72259000D01*
G75*
G02*
X122791000Y-72496500I0J-237500D01*
G01*
X122791000Y-73071500D01*
G75*
G02*
X122553500Y-73309000I-237500J0D01*
G01*
G37*
D27*
X146516000Y-85234000D03*
X144716000Y-85234000D03*
X146516000Y-83434000D03*
X146516000Y-81634000D03*
X144716000Y-83434000D03*
X144716000Y-81634000D03*
D28*
X146586000Y-79084000D03*
X144646000Y-79084000D03*
D14*
X105416000Y-55509000D03*
X103416000Y-56459000D03*
X103416000Y-54559000D03*
X88316000Y-94009000D03*
X90316000Y-93059000D03*
X90316000Y-94959000D03*
D11*
X140091000Y-69384000D03*
X140741000Y-69384000D03*
X141391000Y-69384000D03*
X142041000Y-69384000D03*
D12*
X140091000Y-72334000D03*
X141391000Y-72334000D03*
X140741000Y-72334000D03*
X142041000Y-72334000D03*
D13*
X140501000Y-70864000D03*
X140501000Y-70154000D03*
X141631000Y-70154000D03*
X141631000Y-70864000D03*
D29*
X90916000Y-43584000D03*
X90916000Y-42934000D03*
X90916000Y-42284000D03*
X90916000Y-41634000D03*
D30*
X93866000Y-43584000D03*
X93866000Y-42284000D03*
X93866000Y-42934000D03*
X93866000Y-41634000D03*
D31*
X92396000Y-43174000D03*
X91686000Y-43174000D03*
X91686000Y-42044000D03*
X92396000Y-42044000D03*
D29*
X102316000Y-41634000D03*
X102316000Y-42284000D03*
X102316000Y-42934000D03*
X102316000Y-43584000D03*
D30*
X99366000Y-41634000D03*
X99366000Y-42934000D03*
X99366000Y-42284000D03*
X99366000Y-43584000D03*
D31*
X100836000Y-42044000D03*
X101546000Y-42044000D03*
X101546000Y-43174000D03*
X100836000Y-43174000D03*
D11*
X108941000Y-50209000D03*
X109591000Y-50209000D03*
X110241000Y-50209000D03*
X110891000Y-50209000D03*
D12*
X108941000Y-53159000D03*
X110241000Y-53159000D03*
X109591000Y-53159000D03*
X110891000Y-53159000D03*
D13*
X109351000Y-51689000D03*
X109351000Y-50979000D03*
X110481000Y-50979000D03*
X110481000Y-51689000D03*
D29*
X117816000Y-68084000D03*
X117816000Y-67434000D03*
X117816000Y-66784000D03*
X117816000Y-66134000D03*
D30*
X120766000Y-68084000D03*
X120766000Y-66784000D03*
X120766000Y-67434000D03*
X120766000Y-66134000D03*
D31*
X119296000Y-67674000D03*
X118586000Y-67674000D03*
X118586000Y-66544000D03*
X119296000Y-66544000D03*
D11*
X123191000Y-45084000D03*
X123841000Y-45084000D03*
X124491000Y-45084000D03*
X125141000Y-45084000D03*
D12*
X123191000Y-48034000D03*
X124491000Y-48034000D03*
X123841000Y-48034000D03*
X125141000Y-48034000D03*
D13*
X123601000Y-46564000D03*
X123601000Y-45854000D03*
X124731000Y-45854000D03*
X124731000Y-46564000D03*
G36*
G01*
X91153500Y-55259000D02*
X90678500Y-55259000D01*
G75*
G02*
X90441000Y-55021500I0J237500D01*
G01*
X90441000Y-54446500D01*
G75*
G02*
X90678500Y-54209000I237500J0D01*
G01*
X91153500Y-54209000D01*
G75*
G02*
X91391000Y-54446500I0J-237500D01*
G01*
X91391000Y-55021500D01*
G75*
G02*
X91153500Y-55259000I-237500J0D01*
G01*
G37*
G36*
G01*
X91153500Y-57009000D02*
X90678500Y-57009000D01*
G75*
G02*
X90441000Y-56771500I0J237500D01*
G01*
X90441000Y-56196500D01*
G75*
G02*
X90678500Y-55959000I237500J0D01*
G01*
X91153500Y-55959000D01*
G75*
G02*
X91391000Y-56196500I0J-237500D01*
G01*
X91391000Y-56771500D01*
G75*
G02*
X91153500Y-57009000I-237500J0D01*
G01*
G37*
G36*
G01*
X95278500Y-44459000D02*
X95753500Y-44459000D01*
G75*
G02*
X95991000Y-44696500I0J-237500D01*
G01*
X95991000Y-45271500D01*
G75*
G02*
X95753500Y-45509000I-237500J0D01*
G01*
X95278500Y-45509000D01*
G75*
G02*
X95041000Y-45271500I0J237500D01*
G01*
X95041000Y-44696500D01*
G75*
G02*
X95278500Y-44459000I237500J0D01*
G01*
G37*
G36*
G01*
X95278500Y-42709000D02*
X95753500Y-42709000D01*
G75*
G02*
X95991000Y-42946500I0J-237500D01*
G01*
X95991000Y-43521500D01*
G75*
G02*
X95753500Y-43759000I-237500J0D01*
G01*
X95278500Y-43759000D01*
G75*
G02*
X95041000Y-43521500I0J237500D01*
G01*
X95041000Y-42946500D01*
G75*
G02*
X95278500Y-42709000I237500J0D01*
G01*
G37*
G36*
G01*
X100066000Y-45271500D02*
X100066000Y-45746500D01*
G75*
G02*
X99828500Y-45984000I-237500J0D01*
G01*
X99253500Y-45984000D01*
G75*
G02*
X99016000Y-45746500I0J237500D01*
G01*
X99016000Y-45271500D01*
G75*
G02*
X99253500Y-45034000I237500J0D01*
G01*
X99828500Y-45034000D01*
G75*
G02*
X100066000Y-45271500I0J-237500D01*
G01*
G37*
G36*
G01*
X101816000Y-45271500D02*
X101816000Y-45746500D01*
G75*
G02*
X101578500Y-45984000I-237500J0D01*
G01*
X101003500Y-45984000D01*
G75*
G02*
X100766000Y-45746500I0J237500D01*
G01*
X100766000Y-45271500D01*
G75*
G02*
X101003500Y-45034000I237500J0D01*
G01*
X101578500Y-45034000D01*
G75*
G02*
X101816000Y-45271500I0J-237500D01*
G01*
G37*
G36*
G01*
X104566000Y-52546500D02*
X104566000Y-52071500D01*
G75*
G02*
X104803500Y-51834000I237500J0D01*
G01*
X105378500Y-51834000D01*
G75*
G02*
X105616000Y-52071500I0J-237500D01*
G01*
X105616000Y-52546500D01*
G75*
G02*
X105378500Y-52784000I-237500J0D01*
G01*
X104803500Y-52784000D01*
G75*
G02*
X104566000Y-52546500I0J237500D01*
G01*
G37*
G36*
G01*
X102816000Y-52546500D02*
X102816000Y-52071500D01*
G75*
G02*
X103053500Y-51834000I237500J0D01*
G01*
X103628500Y-51834000D01*
G75*
G02*
X103866000Y-52071500I0J-237500D01*
G01*
X103866000Y-52546500D01*
G75*
G02*
X103628500Y-52784000I-237500J0D01*
G01*
X103053500Y-52784000D01*
G75*
G02*
X102816000Y-52546500I0J237500D01*
G01*
G37*
G36*
G01*
X120953500Y-71559000D02*
X120478500Y-71559000D01*
G75*
G02*
X120241000Y-71321500I0J237500D01*
G01*
X120241000Y-70746500D01*
G75*
G02*
X120478500Y-70509000I237500J0D01*
G01*
X120953500Y-70509000D01*
G75*
G02*
X121191000Y-70746500I0J-237500D01*
G01*
X121191000Y-71321500D01*
G75*
G02*
X120953500Y-71559000I-237500J0D01*
G01*
G37*
G36*
G01*
X120953500Y-73309000D02*
X120478500Y-73309000D01*
G75*
G02*
X120241000Y-73071500I0J237500D01*
G01*
X120241000Y-72496500D01*
G75*
G02*
X120478500Y-72259000I237500J0D01*
G01*
X120953500Y-72259000D01*
G75*
G02*
X121191000Y-72496500I0J-237500D01*
G01*
X121191000Y-73071500D01*
G75*
G02*
X120953500Y-73309000I-237500J0D01*
G01*
G37*
G36*
G01*
X117866000Y-72571500D02*
X117866000Y-73046500D01*
G75*
G02*
X117628500Y-73284000I-237500J0D01*
G01*
X117053500Y-73284000D01*
G75*
G02*
X116816000Y-73046500I0J237500D01*
G01*
X116816000Y-72571500D01*
G75*
G02*
X117053500Y-72334000I237500J0D01*
G01*
X117628500Y-72334000D01*
G75*
G02*
X117866000Y-72571500I0J-237500D01*
G01*
G37*
G36*
G01*
X119616000Y-72571500D02*
X119616000Y-73046500D01*
G75*
G02*
X119378500Y-73284000I-237500J0D01*
G01*
X118803500Y-73284000D01*
G75*
G02*
X118566000Y-73046500I0J237500D01*
G01*
X118566000Y-72571500D01*
G75*
G02*
X118803500Y-72334000I237500J0D01*
G01*
X119378500Y-72334000D01*
G75*
G02*
X119616000Y-72571500I0J-237500D01*
G01*
G37*
G36*
G01*
X101366000Y-63946500D02*
X101366000Y-63471500D01*
G75*
G02*
X101603500Y-63234000I237500J0D01*
G01*
X102178500Y-63234000D01*
G75*
G02*
X102416000Y-63471500I0J-237500D01*
G01*
X102416000Y-63946500D01*
G75*
G02*
X102178500Y-64184000I-237500J0D01*
G01*
X101603500Y-64184000D01*
G75*
G02*
X101366000Y-63946500I0J237500D01*
G01*
G37*
G36*
G01*
X99616000Y-63946500D02*
X99616000Y-63471500D01*
G75*
G02*
X99853500Y-63234000I237500J0D01*
G01*
X100428500Y-63234000D01*
G75*
G02*
X100666000Y-63471500I0J-237500D01*
G01*
X100666000Y-63946500D01*
G75*
G02*
X100428500Y-64184000I-237500J0D01*
G01*
X99853500Y-64184000D01*
G75*
G02*
X99616000Y-63946500I0J237500D01*
G01*
G37*
G36*
G01*
X104866000Y-62346500D02*
X104866000Y-61871500D01*
G75*
G02*
X105103500Y-61634000I237500J0D01*
G01*
X105678500Y-61634000D01*
G75*
G02*
X105916000Y-61871500I0J-237500D01*
G01*
X105916000Y-62346500D01*
G75*
G02*
X105678500Y-62584000I-237500J0D01*
G01*
X105103500Y-62584000D01*
G75*
G02*
X104866000Y-62346500I0J237500D01*
G01*
G37*
G36*
G01*
X103116000Y-62346500D02*
X103116000Y-61871500D01*
G75*
G02*
X103353500Y-61634000I237500J0D01*
G01*
X103928500Y-61634000D01*
G75*
G02*
X104166000Y-61871500I0J-237500D01*
G01*
X104166000Y-62346500D01*
G75*
G02*
X103928500Y-62584000I-237500J0D01*
G01*
X103353500Y-62584000D01*
G75*
G02*
X103116000Y-62346500I0J237500D01*
G01*
G37*
G36*
G01*
X96753500Y-58859000D02*
X96278500Y-58859000D01*
G75*
G02*
X96041000Y-58621500I0J237500D01*
G01*
X96041000Y-58046500D01*
G75*
G02*
X96278500Y-57809000I237500J0D01*
G01*
X96753500Y-57809000D01*
G75*
G02*
X96991000Y-58046500I0J-237500D01*
G01*
X96991000Y-58621500D01*
G75*
G02*
X96753500Y-58859000I-237500J0D01*
G01*
G37*
G36*
G01*
X96753500Y-60609000D02*
X96278500Y-60609000D01*
G75*
G02*
X96041000Y-60371500I0J237500D01*
G01*
X96041000Y-59796500D01*
G75*
G02*
X96278500Y-59559000I237500J0D01*
G01*
X96753500Y-59559000D01*
G75*
G02*
X96991000Y-59796500I0J-237500D01*
G01*
X96991000Y-60371500D01*
G75*
G02*
X96753500Y-60609000I-237500J0D01*
G01*
G37*
G36*
G01*
X96753500Y-62359000D02*
X96278500Y-62359000D01*
G75*
G02*
X96041000Y-62121500I0J237500D01*
G01*
X96041000Y-61546500D01*
G75*
G02*
X96278500Y-61309000I237500J0D01*
G01*
X96753500Y-61309000D01*
G75*
G02*
X96991000Y-61546500I0J-237500D01*
G01*
X96991000Y-62121500D01*
G75*
G02*
X96753500Y-62359000I-237500J0D01*
G01*
G37*
G36*
G01*
X96753500Y-64109000D02*
X96278500Y-64109000D01*
G75*
G02*
X96041000Y-63871500I0J237500D01*
G01*
X96041000Y-63296500D01*
G75*
G02*
X96278500Y-63059000I237500J0D01*
G01*
X96753500Y-63059000D01*
G75*
G02*
X96991000Y-63296500I0J-237500D01*
G01*
X96991000Y-63871500D01*
G75*
G02*
X96753500Y-64109000I-237500J0D01*
G01*
G37*
G36*
G01*
X94953500Y-58859000D02*
X94478500Y-58859000D01*
G75*
G02*
X94241000Y-58621500I0J237500D01*
G01*
X94241000Y-58046500D01*
G75*
G02*
X94478500Y-57809000I237500J0D01*
G01*
X94953500Y-57809000D01*
G75*
G02*
X95191000Y-58046500I0J-237500D01*
G01*
X95191000Y-58621500D01*
G75*
G02*
X94953500Y-58859000I-237500J0D01*
G01*
G37*
G36*
G01*
X94953500Y-60609000D02*
X94478500Y-60609000D01*
G75*
G02*
X94241000Y-60371500I0J237500D01*
G01*
X94241000Y-59796500D01*
G75*
G02*
X94478500Y-59559000I237500J0D01*
G01*
X94953500Y-59559000D01*
G75*
G02*
X95191000Y-59796500I0J-237500D01*
G01*
X95191000Y-60371500D01*
G75*
G02*
X94953500Y-60609000I-237500J0D01*
G01*
G37*
G36*
G01*
X94953500Y-62359000D02*
X94478500Y-62359000D01*
G75*
G02*
X94241000Y-62121500I0J237500D01*
G01*
X94241000Y-61546500D01*
G75*
G02*
X94478500Y-61309000I237500J0D01*
G01*
X94953500Y-61309000D01*
G75*
G02*
X95191000Y-61546500I0J-237500D01*
G01*
X95191000Y-62121500D01*
G75*
G02*
X94953500Y-62359000I-237500J0D01*
G01*
G37*
G36*
G01*
X94953500Y-64109000D02*
X94478500Y-64109000D01*
G75*
G02*
X94241000Y-63871500I0J237500D01*
G01*
X94241000Y-63296500D01*
G75*
G02*
X94478500Y-63059000I237500J0D01*
G01*
X94953500Y-63059000D01*
G75*
G02*
X95191000Y-63296500I0J-237500D01*
G01*
X95191000Y-63871500D01*
G75*
G02*
X94953500Y-64109000I-237500J0D01*
G01*
G37*
G36*
G01*
X98453500Y-58859000D02*
X97978500Y-58859000D01*
G75*
G02*
X97741000Y-58621500I0J237500D01*
G01*
X97741000Y-58046500D01*
G75*
G02*
X97978500Y-57809000I237500J0D01*
G01*
X98453500Y-57809000D01*
G75*
G02*
X98691000Y-58046500I0J-237500D01*
G01*
X98691000Y-58621500D01*
G75*
G02*
X98453500Y-58859000I-237500J0D01*
G01*
G37*
G36*
G01*
X98453500Y-60609000D02*
X97978500Y-60609000D01*
G75*
G02*
X97741000Y-60371500I0J237500D01*
G01*
X97741000Y-59796500D01*
G75*
G02*
X97978500Y-59559000I237500J0D01*
G01*
X98453500Y-59559000D01*
G75*
G02*
X98691000Y-59796500I0J-237500D01*
G01*
X98691000Y-60371500D01*
G75*
G02*
X98453500Y-60609000I-237500J0D01*
G01*
G37*
G36*
G01*
X98453500Y-62359000D02*
X97978500Y-62359000D01*
G75*
G02*
X97741000Y-62121500I0J237500D01*
G01*
X97741000Y-61546500D01*
G75*
G02*
X97978500Y-61309000I237500J0D01*
G01*
X98453500Y-61309000D01*
G75*
G02*
X98691000Y-61546500I0J-237500D01*
G01*
X98691000Y-62121500D01*
G75*
G02*
X98453500Y-62359000I-237500J0D01*
G01*
G37*
G36*
G01*
X98453500Y-64109000D02*
X97978500Y-64109000D01*
G75*
G02*
X97741000Y-63871500I0J237500D01*
G01*
X97741000Y-63296500D01*
G75*
G02*
X97978500Y-63059000I237500J0D01*
G01*
X98453500Y-63059000D01*
G75*
G02*
X98691000Y-63296500I0J-237500D01*
G01*
X98691000Y-63871500D01*
G75*
G02*
X98453500Y-64109000I-237500J0D01*
G01*
G37*
G36*
G01*
X93266000Y-48146500D02*
X93266000Y-47671500D01*
G75*
G02*
X93503500Y-47434000I237500J0D01*
G01*
X94078500Y-47434000D01*
G75*
G02*
X94316000Y-47671500I0J-237500D01*
G01*
X94316000Y-48146500D01*
G75*
G02*
X94078500Y-48384000I-237500J0D01*
G01*
X93503500Y-48384000D01*
G75*
G02*
X93266000Y-48146500I0J237500D01*
G01*
G37*
G36*
G01*
X91516000Y-48146500D02*
X91516000Y-47671500D01*
G75*
G02*
X91753500Y-47434000I237500J0D01*
G01*
X92328500Y-47434000D01*
G75*
G02*
X92566000Y-47671500I0J-237500D01*
G01*
X92566000Y-48146500D01*
G75*
G02*
X92328500Y-48384000I-237500J0D01*
G01*
X91753500Y-48384000D01*
G75*
G02*
X91516000Y-48146500I0J237500D01*
G01*
G37*
G36*
G01*
X89566000Y-48146500D02*
X89566000Y-47671500D01*
G75*
G02*
X89803500Y-47434000I237500J0D01*
G01*
X90378500Y-47434000D01*
G75*
G02*
X90616000Y-47671500I0J-237500D01*
G01*
X90616000Y-48146500D01*
G75*
G02*
X90378500Y-48384000I-237500J0D01*
G01*
X89803500Y-48384000D01*
G75*
G02*
X89566000Y-48146500I0J237500D01*
G01*
G37*
G36*
G01*
X87816000Y-48146500D02*
X87816000Y-47671500D01*
G75*
G02*
X88053500Y-47434000I237500J0D01*
G01*
X88628500Y-47434000D01*
G75*
G02*
X88866000Y-47671500I0J-237500D01*
G01*
X88866000Y-48146500D01*
G75*
G02*
X88628500Y-48384000I-237500J0D01*
G01*
X88053500Y-48384000D01*
G75*
G02*
X87816000Y-48146500I0J237500D01*
G01*
G37*
G36*
G01*
X105041000Y-42284000D02*
X105041000Y-43534000D01*
G75*
G02*
X104791000Y-43784000I-250000J0D01*
G01*
X103866000Y-43784000D01*
G75*
G02*
X103616000Y-43534000I0J250000D01*
G01*
X103616000Y-42284000D01*
G75*
G02*
X103866000Y-42034000I250000J0D01*
G01*
X104791000Y-42034000D01*
G75*
G02*
X105041000Y-42284000I0J-250000D01*
G01*
G37*
G36*
G01*
X108016000Y-42284000D02*
X108016000Y-43534000D01*
G75*
G02*
X107766000Y-43784000I-250000J0D01*
G01*
X106841000Y-43784000D01*
G75*
G02*
X106591000Y-43534000I0J250000D01*
G01*
X106591000Y-42284000D01*
G75*
G02*
X106841000Y-42034000I250000J0D01*
G01*
X107766000Y-42034000D01*
G75*
G02*
X108016000Y-42284000I0J-250000D01*
G01*
G37*
G36*
G01*
X109891000Y-64984000D02*
X111141000Y-64984000D01*
G75*
G02*
X111391000Y-65234000I0J-250000D01*
G01*
X111391000Y-66159000D01*
G75*
G02*
X111141000Y-66409000I-250000J0D01*
G01*
X109891000Y-66409000D01*
G75*
G02*
X109641000Y-66159000I0J250000D01*
G01*
X109641000Y-65234000D01*
G75*
G02*
X109891000Y-64984000I250000J0D01*
G01*
G37*
G36*
G01*
X109891000Y-62009000D02*
X111141000Y-62009000D01*
G75*
G02*
X111391000Y-62259000I0J-250000D01*
G01*
X111391000Y-63184000D01*
G75*
G02*
X111141000Y-63434000I-250000J0D01*
G01*
X109891000Y-63434000D01*
G75*
G02*
X109641000Y-63184000I0J250000D01*
G01*
X109641000Y-62259000D01*
G75*
G02*
X109891000Y-62009000I250000J0D01*
G01*
G37*
D32*
X154491000Y-134759000D03*
X154491000Y-133659000D03*
X154491000Y-132559000D03*
X154491000Y-131459000D03*
X154491000Y-130359000D03*
X154491000Y-129259000D03*
X154491000Y-128159000D03*
X154491000Y-127059000D03*
X154491000Y-125959000D03*
X154491000Y-124859000D03*
X154491000Y-123759000D03*
X154491000Y-122659000D03*
X154491000Y-121559000D03*
X154491000Y-120459000D03*
X154491000Y-119359000D03*
X154491000Y-118259000D03*
X168091000Y-118259000D03*
X168091000Y-119359000D03*
X168091000Y-120459000D03*
X168091000Y-121559000D03*
X168091000Y-122659000D03*
X168091000Y-123759000D03*
X168091000Y-124859000D03*
X168091000Y-125959000D03*
X168091000Y-127059000D03*
X168091000Y-128159000D03*
X168091000Y-129259000D03*
X168091000Y-130359000D03*
X168091000Y-131459000D03*
X168091000Y-132559000D03*
X168091000Y-133659000D03*
X168091000Y-134759000D03*
G36*
G01*
X130916000Y-126021500D02*
X130916000Y-125546500D01*
G75*
G02*
X131153500Y-125309000I237500J0D01*
G01*
X131728500Y-125309000D01*
G75*
G02*
X131966000Y-125546500I0J-237500D01*
G01*
X131966000Y-126021500D01*
G75*
G02*
X131728500Y-126259000I-237500J0D01*
G01*
X131153500Y-126259000D01*
G75*
G02*
X130916000Y-126021500I0J237500D01*
G01*
G37*
G36*
G01*
X129166000Y-126021500D02*
X129166000Y-125546500D01*
G75*
G02*
X129403500Y-125309000I237500J0D01*
G01*
X129978500Y-125309000D01*
G75*
G02*
X130216000Y-125546500I0J-237500D01*
G01*
X130216000Y-126021500D01*
G75*
G02*
X129978500Y-126259000I-237500J0D01*
G01*
X129403500Y-126259000D01*
G75*
G02*
X129166000Y-126021500I0J237500D01*
G01*
G37*
G36*
G01*
X238416000Y-111046500D02*
X238416000Y-111521500D01*
G75*
G02*
X238178500Y-111759000I-237500J0D01*
G01*
X237603500Y-111759000D01*
G75*
G02*
X237366000Y-111521500I0J237500D01*
G01*
X237366000Y-111046500D01*
G75*
G02*
X237603500Y-110809000I237500J0D01*
G01*
X238178500Y-110809000D01*
G75*
G02*
X238416000Y-111046500I0J-237500D01*
G01*
G37*
G36*
G01*
X240166000Y-111046500D02*
X240166000Y-111521500D01*
G75*
G02*
X239928500Y-111759000I-237500J0D01*
G01*
X239353500Y-111759000D01*
G75*
G02*
X239116000Y-111521500I0J237500D01*
G01*
X239116000Y-111046500D01*
G75*
G02*
X239353500Y-110809000I237500J0D01*
G01*
X239928500Y-110809000D01*
G75*
G02*
X240166000Y-111046500I0J-237500D01*
G01*
G37*
G36*
G01*
X235816000Y-118121500D02*
X235816000Y-117646500D01*
G75*
G02*
X236053500Y-117409000I237500J0D01*
G01*
X236628500Y-117409000D01*
G75*
G02*
X236866000Y-117646500I0J-237500D01*
G01*
X236866000Y-118121500D01*
G75*
G02*
X236628500Y-118359000I-237500J0D01*
G01*
X236053500Y-118359000D01*
G75*
G02*
X235816000Y-118121500I0J237500D01*
G01*
G37*
G36*
G01*
X234066000Y-118121500D02*
X234066000Y-117646500D01*
G75*
G02*
X234303500Y-117409000I237500J0D01*
G01*
X234878500Y-117409000D01*
G75*
G02*
X235116000Y-117646500I0J-237500D01*
G01*
X235116000Y-118121500D01*
G75*
G02*
X234878500Y-118359000I-237500J0D01*
G01*
X234303500Y-118359000D01*
G75*
G02*
X234066000Y-118121500I0J237500D01*
G01*
G37*
D20*
X230541000Y-109384000D03*
X233591000Y-109384000D03*
G36*
G01*
X238616000Y-117646500D02*
X238616000Y-118121500D01*
G75*
G02*
X238378500Y-118359000I-237500J0D01*
G01*
X237803500Y-118359000D01*
G75*
G02*
X237566000Y-118121500I0J237500D01*
G01*
X237566000Y-117646500D01*
G75*
G02*
X237803500Y-117409000I237500J0D01*
G01*
X238378500Y-117409000D01*
G75*
G02*
X238616000Y-117646500I0J-237500D01*
G01*
G37*
G36*
G01*
X240366000Y-117646500D02*
X240366000Y-118121500D01*
G75*
G02*
X240128500Y-118359000I-237500J0D01*
G01*
X239553500Y-118359000D01*
G75*
G02*
X239316000Y-118121500I0J237500D01*
G01*
X239316000Y-117646500D01*
G75*
G02*
X239553500Y-117409000I237500J0D01*
G01*
X240128500Y-117409000D01*
G75*
G02*
X240366000Y-117646500I0J-237500D01*
G01*
G37*
G36*
G01*
X82466000Y-103646500D02*
X82466000Y-103171500D01*
G75*
G02*
X82703500Y-102934000I237500J0D01*
G01*
X83278500Y-102934000D01*
G75*
G02*
X83516000Y-103171500I0J-237500D01*
G01*
X83516000Y-103646500D01*
G75*
G02*
X83278500Y-103884000I-237500J0D01*
G01*
X82703500Y-103884000D01*
G75*
G02*
X82466000Y-103646500I0J237500D01*
G01*
G37*
G36*
G01*
X80716000Y-103646500D02*
X80716000Y-103171500D01*
G75*
G02*
X80953500Y-102934000I237500J0D01*
G01*
X81528500Y-102934000D01*
G75*
G02*
X81766000Y-103171500I0J-237500D01*
G01*
X81766000Y-103646500D01*
G75*
G02*
X81528500Y-103884000I-237500J0D01*
G01*
X80953500Y-103884000D01*
G75*
G02*
X80716000Y-103646500I0J237500D01*
G01*
G37*
D21*
X237866000Y-113234000D03*
X236916000Y-113234000D03*
X238816000Y-113234000D03*
X238816000Y-115934000D03*
X237866000Y-115934000D03*
X236916000Y-115934000D03*
D33*
X147841000Y-54534000D03*
X134841000Y-54534000D03*
G36*
G01*
X93266000Y-49746500D02*
X93266000Y-49271500D01*
G75*
G02*
X93503500Y-49034000I237500J0D01*
G01*
X94078500Y-49034000D01*
G75*
G02*
X94316000Y-49271500I0J-237500D01*
G01*
X94316000Y-49746500D01*
G75*
G02*
X94078500Y-49984000I-237500J0D01*
G01*
X93503500Y-49984000D01*
G75*
G02*
X93266000Y-49746500I0J237500D01*
G01*
G37*
G36*
G01*
X91516000Y-49746500D02*
X91516000Y-49271500D01*
G75*
G02*
X91753500Y-49034000I237500J0D01*
G01*
X92328500Y-49034000D01*
G75*
G02*
X92566000Y-49271500I0J-237500D01*
G01*
X92566000Y-49746500D01*
G75*
G02*
X92328500Y-49984000I-237500J0D01*
G01*
X91753500Y-49984000D01*
G75*
G02*
X91516000Y-49746500I0J237500D01*
G01*
G37*
G36*
G01*
X181878500Y-83534000D02*
X182353500Y-83534000D01*
G75*
G02*
X182591000Y-83771500I0J-237500D01*
G01*
X182591000Y-84346500D01*
G75*
G02*
X182353500Y-84584000I-237500J0D01*
G01*
X181878500Y-84584000D01*
G75*
G02*
X181641000Y-84346500I0J237500D01*
G01*
X181641000Y-83771500D01*
G75*
G02*
X181878500Y-83534000I237500J0D01*
G01*
G37*
G36*
G01*
X181878500Y-81784000D02*
X182353500Y-81784000D01*
G75*
G02*
X182591000Y-82021500I0J-237500D01*
G01*
X182591000Y-82596500D01*
G75*
G02*
X182353500Y-82834000I-237500J0D01*
G01*
X181878500Y-82834000D01*
G75*
G02*
X181641000Y-82596500I0J237500D01*
G01*
X181641000Y-82021500D01*
G75*
G02*
X181878500Y-81784000I237500J0D01*
G01*
G37*
G36*
G01*
X128498500Y-90304000D02*
X128973500Y-90304000D01*
G75*
G02*
X129211000Y-90541500I0J-237500D01*
G01*
X129211000Y-91116500D01*
G75*
G02*
X128973500Y-91354000I-237500J0D01*
G01*
X128498500Y-91354000D01*
G75*
G02*
X128261000Y-91116500I0J237500D01*
G01*
X128261000Y-90541500D01*
G75*
G02*
X128498500Y-90304000I237500J0D01*
G01*
G37*
G36*
G01*
X128498500Y-88554000D02*
X128973500Y-88554000D01*
G75*
G02*
X129211000Y-88791500I0J-237500D01*
G01*
X129211000Y-89366500D01*
G75*
G02*
X128973500Y-89604000I-237500J0D01*
G01*
X128498500Y-89604000D01*
G75*
G02*
X128261000Y-89366500I0J237500D01*
G01*
X128261000Y-88791500D01*
G75*
G02*
X128498500Y-88554000I237500J0D01*
G01*
G37*
G36*
G01*
X141291001Y-76159000D02*
X138440999Y-76159000D01*
G75*
G02*
X138191000Y-75909001I0J249999D01*
G01*
X138191000Y-74883999D01*
G75*
G02*
X138440999Y-74634000I249999J0D01*
G01*
X141291001Y-74634000D01*
G75*
G02*
X141541000Y-74883999I0J-249999D01*
G01*
X141541000Y-75909001D01*
G75*
G02*
X141291001Y-76159000I-249999J0D01*
G01*
G37*
G36*
G01*
X141291001Y-82134000D02*
X138440999Y-82134000D01*
G75*
G02*
X138191000Y-81884001I0J249999D01*
G01*
X138191000Y-80858999D01*
G75*
G02*
X138440999Y-80609000I249999J0D01*
G01*
X141291001Y-80609000D01*
G75*
G02*
X141541000Y-80858999I0J-249999D01*
G01*
X141541000Y-81884001D01*
G75*
G02*
X141291001Y-82134000I-249999J0D01*
G01*
G37*
G36*
G01*
X126898500Y-90304000D02*
X127373500Y-90304000D01*
G75*
G02*
X127611000Y-90541500I0J-237500D01*
G01*
X127611000Y-91116500D01*
G75*
G02*
X127373500Y-91354000I-237500J0D01*
G01*
X126898500Y-91354000D01*
G75*
G02*
X126661000Y-91116500I0J237500D01*
G01*
X126661000Y-90541500D01*
G75*
G02*
X126898500Y-90304000I237500J0D01*
G01*
G37*
G36*
G01*
X126898500Y-88554000D02*
X127373500Y-88554000D01*
G75*
G02*
X127611000Y-88791500I0J-237500D01*
G01*
X127611000Y-89366500D01*
G75*
G02*
X127373500Y-89604000I-237500J0D01*
G01*
X126898500Y-89604000D01*
G75*
G02*
X126661000Y-89366500I0J237500D01*
G01*
X126661000Y-88791500D01*
G75*
G02*
X126898500Y-88554000I237500J0D01*
G01*
G37*
G36*
G01*
X125298500Y-90304000D02*
X125773500Y-90304000D01*
G75*
G02*
X126011000Y-90541500I0J-237500D01*
G01*
X126011000Y-91116500D01*
G75*
G02*
X125773500Y-91354000I-237500J0D01*
G01*
X125298500Y-91354000D01*
G75*
G02*
X125061000Y-91116500I0J237500D01*
G01*
X125061000Y-90541500D01*
G75*
G02*
X125298500Y-90304000I237500J0D01*
G01*
G37*
G36*
G01*
X125298500Y-88554000D02*
X125773500Y-88554000D01*
G75*
G02*
X126011000Y-88791500I0J-237500D01*
G01*
X126011000Y-89366500D01*
G75*
G02*
X125773500Y-89604000I-237500J0D01*
G01*
X125298500Y-89604000D01*
G75*
G02*
X125061000Y-89366500I0J237500D01*
G01*
X125061000Y-88791500D01*
G75*
G02*
X125298500Y-88554000I237500J0D01*
G01*
G37*
G36*
G01*
X123728500Y-90334000D02*
X124203500Y-90334000D01*
G75*
G02*
X124441000Y-90571500I0J-237500D01*
G01*
X124441000Y-91146500D01*
G75*
G02*
X124203500Y-91384000I-237500J0D01*
G01*
X123728500Y-91384000D01*
G75*
G02*
X123491000Y-91146500I0J237500D01*
G01*
X123491000Y-90571500D01*
G75*
G02*
X123728500Y-90334000I237500J0D01*
G01*
G37*
G36*
G01*
X123728500Y-88584000D02*
X124203500Y-88584000D01*
G75*
G02*
X124441000Y-88821500I0J-237500D01*
G01*
X124441000Y-89396500D01*
G75*
G02*
X124203500Y-89634000I-237500J0D01*
G01*
X123728500Y-89634000D01*
G75*
G02*
X123491000Y-89396500I0J237500D01*
G01*
X123491000Y-88821500D01*
G75*
G02*
X123728500Y-88584000I237500J0D01*
G01*
G37*
G36*
G01*
X218903500Y-90034000D02*
X218428500Y-90034000D01*
G75*
G02*
X218191000Y-89796500I0J237500D01*
G01*
X218191000Y-89221500D01*
G75*
G02*
X218428500Y-88984000I237500J0D01*
G01*
X218903500Y-88984000D01*
G75*
G02*
X219141000Y-89221500I0J-237500D01*
G01*
X219141000Y-89796500D01*
G75*
G02*
X218903500Y-90034000I-237500J0D01*
G01*
G37*
G36*
G01*
X218903500Y-91784000D02*
X218428500Y-91784000D01*
G75*
G02*
X218191000Y-91546500I0J237500D01*
G01*
X218191000Y-90971500D01*
G75*
G02*
X218428500Y-90734000I237500J0D01*
G01*
X218903500Y-90734000D01*
G75*
G02*
X219141000Y-90971500I0J-237500D01*
G01*
X219141000Y-91546500D01*
G75*
G02*
X218903500Y-91784000I-237500J0D01*
G01*
G37*
G36*
G01*
X217578500Y-81784000D02*
X218053500Y-81784000D01*
G75*
G02*
X218291000Y-82021500I0J-237500D01*
G01*
X218291000Y-82596500D01*
G75*
G02*
X218053500Y-82834000I-237500J0D01*
G01*
X217578500Y-82834000D01*
G75*
G02*
X217341000Y-82596500I0J237500D01*
G01*
X217341000Y-82021500D01*
G75*
G02*
X217578500Y-81784000I237500J0D01*
G01*
G37*
G36*
G01*
X217578500Y-83534000D02*
X218053500Y-83534000D01*
G75*
G02*
X218291000Y-83771500I0J-237500D01*
G01*
X218291000Y-84346500D01*
G75*
G02*
X218053500Y-84584000I-237500J0D01*
G01*
X217578500Y-84584000D01*
G75*
G02*
X217341000Y-84346500I0J237500D01*
G01*
X217341000Y-83771500D01*
G75*
G02*
X217578500Y-83534000I237500J0D01*
G01*
G37*
G36*
G01*
X196278500Y-81884000D02*
X196753500Y-81884000D01*
G75*
G02*
X196991000Y-82121500I0J-237500D01*
G01*
X196991000Y-82696500D01*
G75*
G02*
X196753500Y-82934000I-237500J0D01*
G01*
X196278500Y-82934000D01*
G75*
G02*
X196041000Y-82696500I0J237500D01*
G01*
X196041000Y-82121500D01*
G75*
G02*
X196278500Y-81884000I237500J0D01*
G01*
G37*
G36*
G01*
X196278500Y-83634000D02*
X196753500Y-83634000D01*
G75*
G02*
X196991000Y-83871500I0J-237500D01*
G01*
X196991000Y-84446500D01*
G75*
G02*
X196753500Y-84684000I-237500J0D01*
G01*
X196278500Y-84684000D01*
G75*
G02*
X196041000Y-84446500I0J237500D01*
G01*
X196041000Y-83871500D01*
G75*
G02*
X196278500Y-83634000I237500J0D01*
G01*
G37*
G36*
G01*
X203328500Y-83584000D02*
X203803500Y-83584000D01*
G75*
G02*
X204041000Y-83821500I0J-237500D01*
G01*
X204041000Y-84396500D01*
G75*
G02*
X203803500Y-84634000I-237500J0D01*
G01*
X203328500Y-84634000D01*
G75*
G02*
X203091000Y-84396500I0J237500D01*
G01*
X203091000Y-83821500D01*
G75*
G02*
X203328500Y-83584000I237500J0D01*
G01*
G37*
G36*
G01*
X203328500Y-81834000D02*
X203803500Y-81834000D01*
G75*
G02*
X204041000Y-82071500I0J-237500D01*
G01*
X204041000Y-82646500D01*
G75*
G02*
X203803500Y-82884000I-237500J0D01*
G01*
X203328500Y-82884000D01*
G75*
G02*
X203091000Y-82646500I0J237500D01*
G01*
X203091000Y-82071500D01*
G75*
G02*
X203328500Y-81834000I237500J0D01*
G01*
G37*
G36*
G01*
X107253500Y-57409000D02*
X106778500Y-57409000D01*
G75*
G02*
X106541000Y-57171500I0J237500D01*
G01*
X106541000Y-56596500D01*
G75*
G02*
X106778500Y-56359000I237500J0D01*
G01*
X107253500Y-56359000D01*
G75*
G02*
X107491000Y-56596500I0J-237500D01*
G01*
X107491000Y-57171500D01*
G75*
G02*
X107253500Y-57409000I-237500J0D01*
G01*
G37*
G36*
G01*
X107253500Y-55659000D02*
X106778500Y-55659000D01*
G75*
G02*
X106541000Y-55421500I0J237500D01*
G01*
X106541000Y-54846500D01*
G75*
G02*
X106778500Y-54609000I237500J0D01*
G01*
X107253500Y-54609000D01*
G75*
G02*
X107491000Y-54846500I0J-237500D01*
G01*
X107491000Y-55421500D01*
G75*
G02*
X107253500Y-55659000I-237500J0D01*
G01*
G37*
G36*
G01*
X211016000Y-95921500D02*
X211016000Y-95446500D01*
G75*
G02*
X211253500Y-95209000I237500J0D01*
G01*
X211828500Y-95209000D01*
G75*
G02*
X212066000Y-95446500I0J-237500D01*
G01*
X212066000Y-95921500D01*
G75*
G02*
X211828500Y-96159000I-237500J0D01*
G01*
X211253500Y-96159000D01*
G75*
G02*
X211016000Y-95921500I0J237500D01*
G01*
G37*
G36*
G01*
X209266000Y-95921500D02*
X209266000Y-95446500D01*
G75*
G02*
X209503500Y-95209000I237500J0D01*
G01*
X210078500Y-95209000D01*
G75*
G02*
X210316000Y-95446500I0J-237500D01*
G01*
X210316000Y-95921500D01*
G75*
G02*
X210078500Y-96159000I-237500J0D01*
G01*
X209503500Y-96159000D01*
G75*
G02*
X209266000Y-95921500I0J237500D01*
G01*
G37*
G36*
G01*
X187366000Y-95221500D02*
X187366000Y-94746500D01*
G75*
G02*
X187603500Y-94509000I237500J0D01*
G01*
X188178500Y-94509000D01*
G75*
G02*
X188416000Y-94746500I0J-237500D01*
G01*
X188416000Y-95221500D01*
G75*
G02*
X188178500Y-95459000I-237500J0D01*
G01*
X187603500Y-95459000D01*
G75*
G02*
X187366000Y-95221500I0J237500D01*
G01*
G37*
G36*
G01*
X189116000Y-95221500D02*
X189116000Y-94746500D01*
G75*
G02*
X189353500Y-94509000I237500J0D01*
G01*
X189928500Y-94509000D01*
G75*
G02*
X190166000Y-94746500I0J-237500D01*
G01*
X190166000Y-95221500D01*
G75*
G02*
X189928500Y-95459000I-237500J0D01*
G01*
X189353500Y-95459000D01*
G75*
G02*
X189116000Y-95221500I0J237500D01*
G01*
G37*
D34*
X172066000Y-66634000D03*
X172066000Y-58934000D03*
X183266000Y-58934000D03*
X183266000Y-66634000D03*
X194466000Y-66634000D03*
X194466000Y-58934000D03*
X205666000Y-58934000D03*
X205666000Y-66634000D03*
X228066000Y-66634000D03*
X228066000Y-58934000D03*
X216866000Y-58934000D03*
X216866000Y-66634000D03*
G36*
G01*
X191666000Y-91821500D02*
X191666000Y-91346500D01*
G75*
G02*
X191903500Y-91109000I237500J0D01*
G01*
X192478500Y-91109000D01*
G75*
G02*
X192716000Y-91346500I0J-237500D01*
G01*
X192716000Y-91821500D01*
G75*
G02*
X192478500Y-92059000I-237500J0D01*
G01*
X191903500Y-92059000D01*
G75*
G02*
X191666000Y-91821500I0J237500D01*
G01*
G37*
G36*
G01*
X193416000Y-91821500D02*
X193416000Y-91346500D01*
G75*
G02*
X193653500Y-91109000I237500J0D01*
G01*
X194228500Y-91109000D01*
G75*
G02*
X194466000Y-91346500I0J-237500D01*
G01*
X194466000Y-91821500D01*
G75*
G02*
X194228500Y-92059000I-237500J0D01*
G01*
X193653500Y-92059000D01*
G75*
G02*
X193416000Y-91821500I0J237500D01*
G01*
G37*
G36*
G01*
X210103500Y-92934000D02*
X209628500Y-92934000D01*
G75*
G02*
X209391000Y-92696500I0J237500D01*
G01*
X209391000Y-92121500D01*
G75*
G02*
X209628500Y-91884000I237500J0D01*
G01*
X210103500Y-91884000D01*
G75*
G02*
X210341000Y-92121500I0J-237500D01*
G01*
X210341000Y-92696500D01*
G75*
G02*
X210103500Y-92934000I-237500J0D01*
G01*
G37*
G36*
G01*
X210103500Y-94684000D02*
X209628500Y-94684000D01*
G75*
G02*
X209391000Y-94446500I0J237500D01*
G01*
X209391000Y-93871500D01*
G75*
G02*
X209628500Y-93634000I237500J0D01*
G01*
X210103500Y-93634000D01*
G75*
G02*
X210341000Y-93871500I0J-237500D01*
G01*
X210341000Y-94446500D01*
G75*
G02*
X210103500Y-94684000I-237500J0D01*
G01*
G37*
G36*
G01*
X211128500Y-91884000D02*
X211603500Y-91884000D01*
G75*
G02*
X211841000Y-92121500I0J-237500D01*
G01*
X211841000Y-92696500D01*
G75*
G02*
X211603500Y-92934000I-237500J0D01*
G01*
X211128500Y-92934000D01*
G75*
G02*
X210891000Y-92696500I0J237500D01*
G01*
X210891000Y-92121500D01*
G75*
G02*
X211128500Y-91884000I237500J0D01*
G01*
G37*
G36*
G01*
X211128500Y-93634000D02*
X211603500Y-93634000D01*
G75*
G02*
X211841000Y-93871500I0J-237500D01*
G01*
X211841000Y-94446500D01*
G75*
G02*
X211603500Y-94684000I-237500J0D01*
G01*
X211128500Y-94684000D01*
G75*
G02*
X210891000Y-94446500I0J237500D01*
G01*
X210891000Y-93871500D01*
G75*
G02*
X211128500Y-93634000I237500J0D01*
G01*
G37*
G36*
G01*
X115653500Y-118309000D02*
X115178500Y-118309000D01*
G75*
G02*
X114941000Y-118071500I0J237500D01*
G01*
X114941000Y-117496500D01*
G75*
G02*
X115178500Y-117259000I237500J0D01*
G01*
X115653500Y-117259000D01*
G75*
G02*
X115891000Y-117496500I0J-237500D01*
G01*
X115891000Y-118071500D01*
G75*
G02*
X115653500Y-118309000I-237500J0D01*
G01*
G37*
G36*
G01*
X115653500Y-116559000D02*
X115178500Y-116559000D01*
G75*
G02*
X114941000Y-116321500I0J237500D01*
G01*
X114941000Y-115746500D01*
G75*
G02*
X115178500Y-115509000I237500J0D01*
G01*
X115653500Y-115509000D01*
G75*
G02*
X115891000Y-115746500I0J-237500D01*
G01*
X115891000Y-116321500D01*
G75*
G02*
X115653500Y-116559000I-237500J0D01*
G01*
G37*
G36*
G01*
X107416000Y-102346500D02*
X107416000Y-101871500D01*
G75*
G02*
X107653500Y-101634000I237500J0D01*
G01*
X108228500Y-101634000D01*
G75*
G02*
X108466000Y-101871500I0J-237500D01*
G01*
X108466000Y-102346500D01*
G75*
G02*
X108228500Y-102584000I-237500J0D01*
G01*
X107653500Y-102584000D01*
G75*
G02*
X107416000Y-102346500I0J237500D01*
G01*
G37*
G36*
G01*
X105666000Y-102346500D02*
X105666000Y-101871500D01*
G75*
G02*
X105903500Y-101634000I237500J0D01*
G01*
X106478500Y-101634000D01*
G75*
G02*
X106716000Y-101871500I0J-237500D01*
G01*
X106716000Y-102346500D01*
G75*
G02*
X106478500Y-102584000I-237500J0D01*
G01*
X105903500Y-102584000D01*
G75*
G02*
X105666000Y-102346500I0J237500D01*
G01*
G37*
G36*
G01*
X187628500Y-92834000D02*
X188103500Y-92834000D01*
G75*
G02*
X188341000Y-93071500I0J-237500D01*
G01*
X188341000Y-93646500D01*
G75*
G02*
X188103500Y-93884000I-237500J0D01*
G01*
X187628500Y-93884000D01*
G75*
G02*
X187391000Y-93646500I0J237500D01*
G01*
X187391000Y-93071500D01*
G75*
G02*
X187628500Y-92834000I237500J0D01*
G01*
G37*
G36*
G01*
X187628500Y-91084000D02*
X188103500Y-91084000D01*
G75*
G02*
X188341000Y-91321500I0J-237500D01*
G01*
X188341000Y-91896500D01*
G75*
G02*
X188103500Y-92134000I-237500J0D01*
G01*
X187628500Y-92134000D01*
G75*
G02*
X187391000Y-91896500I0J237500D01*
G01*
X187391000Y-91321500D01*
G75*
G02*
X187628500Y-91084000I237500J0D01*
G01*
G37*
G36*
G01*
X189903500Y-93884000D02*
X189428500Y-93884000D01*
G75*
G02*
X189191000Y-93646500I0J237500D01*
G01*
X189191000Y-93071500D01*
G75*
G02*
X189428500Y-92834000I237500J0D01*
G01*
X189903500Y-92834000D01*
G75*
G02*
X190141000Y-93071500I0J-237500D01*
G01*
X190141000Y-93646500D01*
G75*
G02*
X189903500Y-93884000I-237500J0D01*
G01*
G37*
G36*
G01*
X189903500Y-92134000D02*
X189428500Y-92134000D01*
G75*
G02*
X189191000Y-91896500I0J237500D01*
G01*
X189191000Y-91321500D01*
G75*
G02*
X189428500Y-91084000I237500J0D01*
G01*
X189903500Y-91084000D01*
G75*
G02*
X190141000Y-91321500I0J-237500D01*
G01*
X190141000Y-91896500D01*
G75*
G02*
X189903500Y-92134000I-237500J0D01*
G01*
G37*
G36*
G01*
X181116000Y-91671500D02*
X181116000Y-91196500D01*
G75*
G02*
X181353500Y-90959000I237500J0D01*
G01*
X181928500Y-90959000D01*
G75*
G02*
X182166000Y-91196500I0J-237500D01*
G01*
X182166000Y-91671500D01*
G75*
G02*
X181928500Y-91909000I-237500J0D01*
G01*
X181353500Y-91909000D01*
G75*
G02*
X181116000Y-91671500I0J237500D01*
G01*
G37*
G36*
G01*
X182866000Y-91671500D02*
X182866000Y-91196500D01*
G75*
G02*
X183103500Y-90959000I237500J0D01*
G01*
X183678500Y-90959000D01*
G75*
G02*
X183916000Y-91196500I0J-237500D01*
G01*
X183916000Y-91671500D01*
G75*
G02*
X183678500Y-91909000I-237500J0D01*
G01*
X183103500Y-91909000D01*
G75*
G02*
X182866000Y-91671500I0J237500D01*
G01*
G37*
G36*
G01*
X215566000Y-115421500D02*
X215566000Y-114946500D01*
G75*
G02*
X215803500Y-114709000I237500J0D01*
G01*
X216378500Y-114709000D01*
G75*
G02*
X216616000Y-114946500I0J-237500D01*
G01*
X216616000Y-115421500D01*
G75*
G02*
X216378500Y-115659000I-237500J0D01*
G01*
X215803500Y-115659000D01*
G75*
G02*
X215566000Y-115421500I0J237500D01*
G01*
G37*
G36*
G01*
X213816000Y-115421500D02*
X213816000Y-114946500D01*
G75*
G02*
X214053500Y-114709000I237500J0D01*
G01*
X214628500Y-114709000D01*
G75*
G02*
X214866000Y-114946500I0J-237500D01*
G01*
X214866000Y-115421500D01*
G75*
G02*
X214628500Y-115659000I-237500J0D01*
G01*
X214053500Y-115659000D01*
G75*
G02*
X213816000Y-115421500I0J237500D01*
G01*
G37*
G36*
G01*
X205516000Y-92621500D02*
X205516000Y-92146500D01*
G75*
G02*
X205753500Y-91909000I237500J0D01*
G01*
X206328500Y-91909000D01*
G75*
G02*
X206566000Y-92146500I0J-237500D01*
G01*
X206566000Y-92621500D01*
G75*
G02*
X206328500Y-92859000I-237500J0D01*
G01*
X205753500Y-92859000D01*
G75*
G02*
X205516000Y-92621500I0J237500D01*
G01*
G37*
G36*
G01*
X203766000Y-92621500D02*
X203766000Y-92146500D01*
G75*
G02*
X204003500Y-91909000I237500J0D01*
G01*
X204578500Y-91909000D01*
G75*
G02*
X204816000Y-92146500I0J-237500D01*
G01*
X204816000Y-92621500D01*
G75*
G02*
X204578500Y-92859000I-237500J0D01*
G01*
X204003500Y-92859000D01*
G75*
G02*
X203766000Y-92621500I0J237500D01*
G01*
G37*
G36*
G01*
X105378500Y-133009000D02*
X105853500Y-133009000D01*
G75*
G02*
X106091000Y-133246500I0J-237500D01*
G01*
X106091000Y-133821500D01*
G75*
G02*
X105853500Y-134059000I-237500J0D01*
G01*
X105378500Y-134059000D01*
G75*
G02*
X105141000Y-133821500I0J237500D01*
G01*
X105141000Y-133246500D01*
G75*
G02*
X105378500Y-133009000I237500J0D01*
G01*
G37*
G36*
G01*
X105378500Y-131259000D02*
X105853500Y-131259000D01*
G75*
G02*
X106091000Y-131496500I0J-237500D01*
G01*
X106091000Y-132071500D01*
G75*
G02*
X105853500Y-132309000I-237500J0D01*
G01*
X105378500Y-132309000D01*
G75*
G02*
X105141000Y-132071500I0J237500D01*
G01*
X105141000Y-131496500D01*
G75*
G02*
X105378500Y-131259000I237500J0D01*
G01*
G37*
G36*
G01*
X108328500Y-131259000D02*
X108803500Y-131259000D01*
G75*
G02*
X109041000Y-131496500I0J-237500D01*
G01*
X109041000Y-132071500D01*
G75*
G02*
X108803500Y-132309000I-237500J0D01*
G01*
X108328500Y-132309000D01*
G75*
G02*
X108091000Y-132071500I0J237500D01*
G01*
X108091000Y-131496500D01*
G75*
G02*
X108328500Y-131259000I237500J0D01*
G01*
G37*
G36*
G01*
X108328500Y-133009000D02*
X108803500Y-133009000D01*
G75*
G02*
X109041000Y-133246500I0J-237500D01*
G01*
X109041000Y-133821500D01*
G75*
G02*
X108803500Y-134059000I-237500J0D01*
G01*
X108328500Y-134059000D01*
G75*
G02*
X108091000Y-133821500I0J237500D01*
G01*
X108091000Y-133246500D01*
G75*
G02*
X108328500Y-133009000I237500J0D01*
G01*
G37*
G36*
G01*
X111278500Y-133009000D02*
X111753500Y-133009000D01*
G75*
G02*
X111991000Y-133246500I0J-237500D01*
G01*
X111991000Y-133821500D01*
G75*
G02*
X111753500Y-134059000I-237500J0D01*
G01*
X111278500Y-134059000D01*
G75*
G02*
X111041000Y-133821500I0J237500D01*
G01*
X111041000Y-133246500D01*
G75*
G02*
X111278500Y-133009000I237500J0D01*
G01*
G37*
G36*
G01*
X111278500Y-131259000D02*
X111753500Y-131259000D01*
G75*
G02*
X111991000Y-131496500I0J-237500D01*
G01*
X111991000Y-132071500D01*
G75*
G02*
X111753500Y-132309000I-237500J0D01*
G01*
X111278500Y-132309000D01*
G75*
G02*
X111041000Y-132071500I0J237500D01*
G01*
X111041000Y-131496500D01*
G75*
G02*
X111278500Y-131259000I237500J0D01*
G01*
G37*
G36*
G01*
X114178500Y-131259000D02*
X114653500Y-131259000D01*
G75*
G02*
X114891000Y-131496500I0J-237500D01*
G01*
X114891000Y-132071500D01*
G75*
G02*
X114653500Y-132309000I-237500J0D01*
G01*
X114178500Y-132309000D01*
G75*
G02*
X113941000Y-132071500I0J237500D01*
G01*
X113941000Y-131496500D01*
G75*
G02*
X114178500Y-131259000I237500J0D01*
G01*
G37*
G36*
G01*
X114178500Y-133009000D02*
X114653500Y-133009000D01*
G75*
G02*
X114891000Y-133246500I0J-237500D01*
G01*
X114891000Y-133821500D01*
G75*
G02*
X114653500Y-134059000I-237500J0D01*
G01*
X114178500Y-134059000D01*
G75*
G02*
X113941000Y-133821500I0J237500D01*
G01*
X113941000Y-133246500D01*
G75*
G02*
X114178500Y-133009000I237500J0D01*
G01*
G37*
G36*
G01*
X106878500Y-130959000D02*
X107353500Y-130959000D01*
G75*
G02*
X107591000Y-131196500I0J-237500D01*
G01*
X107591000Y-131771500D01*
G75*
G02*
X107353500Y-132009000I-237500J0D01*
G01*
X106878500Y-132009000D01*
G75*
G02*
X106641000Y-131771500I0J237500D01*
G01*
X106641000Y-131196500D01*
G75*
G02*
X106878500Y-130959000I237500J0D01*
G01*
G37*
G36*
G01*
X106878500Y-129209000D02*
X107353500Y-129209000D01*
G75*
G02*
X107591000Y-129446500I0J-237500D01*
G01*
X107591000Y-130021500D01*
G75*
G02*
X107353500Y-130259000I-237500J0D01*
G01*
X106878500Y-130259000D01*
G75*
G02*
X106641000Y-130021500I0J237500D01*
G01*
X106641000Y-129446500D01*
G75*
G02*
X106878500Y-129209000I237500J0D01*
G01*
G37*
G36*
G01*
X109778500Y-129209000D02*
X110253500Y-129209000D01*
G75*
G02*
X110491000Y-129446500I0J-237500D01*
G01*
X110491000Y-130021500D01*
G75*
G02*
X110253500Y-130259000I-237500J0D01*
G01*
X109778500Y-130259000D01*
G75*
G02*
X109541000Y-130021500I0J237500D01*
G01*
X109541000Y-129446500D01*
G75*
G02*
X109778500Y-129209000I237500J0D01*
G01*
G37*
G36*
G01*
X109778500Y-130959000D02*
X110253500Y-130959000D01*
G75*
G02*
X110491000Y-131196500I0J-237500D01*
G01*
X110491000Y-131771500D01*
G75*
G02*
X110253500Y-132009000I-237500J0D01*
G01*
X109778500Y-132009000D01*
G75*
G02*
X109541000Y-131771500I0J237500D01*
G01*
X109541000Y-131196500D01*
G75*
G02*
X109778500Y-130959000I237500J0D01*
G01*
G37*
G36*
G01*
X112728500Y-130959000D02*
X113203500Y-130959000D01*
G75*
G02*
X113441000Y-131196500I0J-237500D01*
G01*
X113441000Y-131771500D01*
G75*
G02*
X113203500Y-132009000I-237500J0D01*
G01*
X112728500Y-132009000D01*
G75*
G02*
X112491000Y-131771500I0J237500D01*
G01*
X112491000Y-131196500D01*
G75*
G02*
X112728500Y-130959000I237500J0D01*
G01*
G37*
G36*
G01*
X112728500Y-129209000D02*
X113203500Y-129209000D01*
G75*
G02*
X113441000Y-129446500I0J-237500D01*
G01*
X113441000Y-130021500D01*
G75*
G02*
X113203500Y-130259000I-237500J0D01*
G01*
X112728500Y-130259000D01*
G75*
G02*
X112491000Y-130021500I0J237500D01*
G01*
X112491000Y-129446500D01*
G75*
G02*
X112728500Y-129209000I237500J0D01*
G01*
G37*
D35*
X205691000Y-88650000D03*
X206341000Y-88650000D03*
X206991000Y-88650000D03*
X207641000Y-88650000D03*
X208291000Y-88650000D03*
X208941000Y-88650000D03*
X209591000Y-88650000D03*
X210241000Y-88650000D03*
X210891000Y-88650000D03*
X211541000Y-88650000D03*
X212191000Y-88650000D03*
X212841000Y-88650000D03*
X213491000Y-88650000D03*
X214141000Y-88650000D03*
X214791000Y-88650000D03*
X215441000Y-88650000D03*
X215441000Y-81350000D03*
X214791000Y-81350000D03*
X214141000Y-81350000D03*
X213491000Y-81350000D03*
X212841000Y-81350000D03*
X212191000Y-81350000D03*
X211541000Y-81350000D03*
X210891000Y-81350000D03*
X210241000Y-81350000D03*
X209591000Y-81350000D03*
X208941000Y-81350000D03*
X208291000Y-81350000D03*
X207641000Y-81350000D03*
X206991000Y-81350000D03*
X206341000Y-81350000D03*
X205691000Y-81350000D03*
X184491000Y-81350000D03*
X185141000Y-81350000D03*
X185791000Y-81350000D03*
X186441000Y-81350000D03*
X187091000Y-81350000D03*
X187741000Y-81350000D03*
X188391000Y-81350000D03*
X189041000Y-81350000D03*
X189691000Y-81350000D03*
X190341000Y-81350000D03*
X190991000Y-81350000D03*
X191641000Y-81350000D03*
X192291000Y-81350000D03*
X192941000Y-81350000D03*
X193591000Y-81350000D03*
X194241000Y-81350000D03*
X194241000Y-88650000D03*
X193591000Y-88650000D03*
X192941000Y-88650000D03*
X192291000Y-88650000D03*
X191641000Y-88650000D03*
X190991000Y-88650000D03*
X190341000Y-88650000D03*
X189691000Y-88650000D03*
X189041000Y-88650000D03*
X188391000Y-88650000D03*
X187741000Y-88650000D03*
X187091000Y-88650000D03*
X186441000Y-88650000D03*
X185791000Y-88650000D03*
X185141000Y-88650000D03*
X184491000Y-88650000D03*
G36*
G01*
X171341000Y-55584000D02*
X171341000Y-53434000D01*
G75*
G02*
X171591000Y-53184000I250000J0D01*
G01*
X172516000Y-53184000D01*
G75*
G02*
X172766000Y-53434000I0J-250000D01*
G01*
X172766000Y-55584000D01*
G75*
G02*
X172516000Y-55834000I-250000J0D01*
G01*
X171591000Y-55834000D01*
G75*
G02*
X171341000Y-55584000I0J250000D01*
G01*
G37*
G36*
G01*
X174316000Y-55584000D02*
X174316000Y-53434000D01*
G75*
G02*
X174566000Y-53184000I250000J0D01*
G01*
X175491000Y-53184000D01*
G75*
G02*
X175741000Y-53434000I0J-250000D01*
G01*
X175741000Y-55584000D01*
G75*
G02*
X175491000Y-55834000I-250000J0D01*
G01*
X174566000Y-55834000D01*
G75*
G02*
X174316000Y-55584000I0J250000D01*
G01*
G37*
G36*
G01*
X179541000Y-55584000D02*
X179541000Y-53434000D01*
G75*
G02*
X179791000Y-53184000I250000J0D01*
G01*
X180716000Y-53184000D01*
G75*
G02*
X180966000Y-53434000I0J-250000D01*
G01*
X180966000Y-55584000D01*
G75*
G02*
X180716000Y-55834000I-250000J0D01*
G01*
X179791000Y-55834000D01*
G75*
G02*
X179541000Y-55584000I0J250000D01*
G01*
G37*
G36*
G01*
X182516000Y-55584000D02*
X182516000Y-53434000D01*
G75*
G02*
X182766000Y-53184000I250000J0D01*
G01*
X183691000Y-53184000D01*
G75*
G02*
X183941000Y-53434000I0J-250000D01*
G01*
X183941000Y-55584000D01*
G75*
G02*
X183691000Y-55834000I-250000J0D01*
G01*
X182766000Y-55834000D01*
G75*
G02*
X182516000Y-55584000I0J250000D01*
G01*
G37*
G36*
G01*
X193741000Y-55684000D02*
X193741000Y-53534000D01*
G75*
G02*
X193991000Y-53284000I250000J0D01*
G01*
X194916000Y-53284000D01*
G75*
G02*
X195166000Y-53534000I0J-250000D01*
G01*
X195166000Y-55684000D01*
G75*
G02*
X194916000Y-55934000I-250000J0D01*
G01*
X193991000Y-55934000D01*
G75*
G02*
X193741000Y-55684000I0J250000D01*
G01*
G37*
G36*
G01*
X196716000Y-55684000D02*
X196716000Y-53534000D01*
G75*
G02*
X196966000Y-53284000I250000J0D01*
G01*
X197891000Y-53284000D01*
G75*
G02*
X198141000Y-53534000I0J-250000D01*
G01*
X198141000Y-55684000D01*
G75*
G02*
X197891000Y-55934000I-250000J0D01*
G01*
X196966000Y-55934000D01*
G75*
G02*
X196716000Y-55684000I0J250000D01*
G01*
G37*
G36*
G01*
X201941000Y-55584000D02*
X201941000Y-53434000D01*
G75*
G02*
X202191000Y-53184000I250000J0D01*
G01*
X203116000Y-53184000D01*
G75*
G02*
X203366000Y-53434000I0J-250000D01*
G01*
X203366000Y-55584000D01*
G75*
G02*
X203116000Y-55834000I-250000J0D01*
G01*
X202191000Y-55834000D01*
G75*
G02*
X201941000Y-55584000I0J250000D01*
G01*
G37*
G36*
G01*
X204916000Y-55584000D02*
X204916000Y-53434000D01*
G75*
G02*
X205166000Y-53184000I250000J0D01*
G01*
X206091000Y-53184000D01*
G75*
G02*
X206341000Y-53434000I0J-250000D01*
G01*
X206341000Y-55584000D01*
G75*
G02*
X206091000Y-55834000I-250000J0D01*
G01*
X205166000Y-55834000D01*
G75*
G02*
X204916000Y-55584000I0J250000D01*
G01*
G37*
G36*
G01*
X227216000Y-55584000D02*
X227216000Y-53434000D01*
G75*
G02*
X227466000Y-53184000I250000J0D01*
G01*
X228391000Y-53184000D01*
G75*
G02*
X228641000Y-53434000I0J-250000D01*
G01*
X228641000Y-55584000D01*
G75*
G02*
X228391000Y-55834000I-250000J0D01*
G01*
X227466000Y-55834000D01*
G75*
G02*
X227216000Y-55584000I0J250000D01*
G01*
G37*
G36*
G01*
X224241000Y-55584000D02*
X224241000Y-53434000D01*
G75*
G02*
X224491000Y-53184000I250000J0D01*
G01*
X225416000Y-53184000D01*
G75*
G02*
X225666000Y-53434000I0J-250000D01*
G01*
X225666000Y-55584000D01*
G75*
G02*
X225416000Y-55834000I-250000J0D01*
G01*
X224491000Y-55834000D01*
G75*
G02*
X224241000Y-55584000I0J250000D01*
G01*
G37*
G36*
G01*
X176941000Y-49859000D02*
X176941000Y-47709000D01*
G75*
G02*
X177191000Y-47459000I250000J0D01*
G01*
X178116000Y-47459000D01*
G75*
G02*
X178366000Y-47709000I0J-250000D01*
G01*
X178366000Y-49859000D01*
G75*
G02*
X178116000Y-50109000I-250000J0D01*
G01*
X177191000Y-50109000D01*
G75*
G02*
X176941000Y-49859000I0J250000D01*
G01*
G37*
G36*
G01*
X173966000Y-49859000D02*
X173966000Y-47709000D01*
G75*
G02*
X174216000Y-47459000I250000J0D01*
G01*
X175141000Y-47459000D01*
G75*
G02*
X175391000Y-47709000I0J-250000D01*
G01*
X175391000Y-49859000D01*
G75*
G02*
X175141000Y-50109000I-250000J0D01*
G01*
X174216000Y-50109000D01*
G75*
G02*
X173966000Y-49859000I0J250000D01*
G01*
G37*
G36*
G01*
X181841000Y-49859000D02*
X181841000Y-47709000D01*
G75*
G02*
X182091000Y-47459000I250000J0D01*
G01*
X183016000Y-47459000D01*
G75*
G02*
X183266000Y-47709000I0J-250000D01*
G01*
X183266000Y-49859000D01*
G75*
G02*
X183016000Y-50109000I-250000J0D01*
G01*
X182091000Y-50109000D01*
G75*
G02*
X181841000Y-49859000I0J250000D01*
G01*
G37*
G36*
G01*
X178866000Y-49859000D02*
X178866000Y-47709000D01*
G75*
G02*
X179116000Y-47459000I250000J0D01*
G01*
X180041000Y-47459000D01*
G75*
G02*
X180291000Y-47709000I0J-250000D01*
G01*
X180291000Y-49859000D01*
G75*
G02*
X180041000Y-50109000I-250000J0D01*
G01*
X179116000Y-50109000D01*
G75*
G02*
X178866000Y-49859000I0J250000D01*
G01*
G37*
G36*
G01*
X198541000Y-50059000D02*
X198541000Y-47909000D01*
G75*
G02*
X198791000Y-47659000I250000J0D01*
G01*
X199716000Y-47659000D01*
G75*
G02*
X199966000Y-47909000I0J-250000D01*
G01*
X199966000Y-50059000D01*
G75*
G02*
X199716000Y-50309000I-250000J0D01*
G01*
X198791000Y-50309000D01*
G75*
G02*
X198541000Y-50059000I0J250000D01*
G01*
G37*
G36*
G01*
X195566000Y-50059000D02*
X195566000Y-47909000D01*
G75*
G02*
X195816000Y-47659000I250000J0D01*
G01*
X196741000Y-47659000D01*
G75*
G02*
X196991000Y-47909000I0J-250000D01*
G01*
X196991000Y-50059000D01*
G75*
G02*
X196741000Y-50309000I-250000J0D01*
G01*
X195816000Y-50309000D01*
G75*
G02*
X195566000Y-50059000I0J250000D01*
G01*
G37*
G36*
G01*
X203441000Y-50059000D02*
X203441000Y-47909000D01*
G75*
G02*
X203691000Y-47659000I250000J0D01*
G01*
X204616000Y-47659000D01*
G75*
G02*
X204866000Y-47909000I0J-250000D01*
G01*
X204866000Y-50059000D01*
G75*
G02*
X204616000Y-50309000I-250000J0D01*
G01*
X203691000Y-50309000D01*
G75*
G02*
X203441000Y-50059000I0J250000D01*
G01*
G37*
G36*
G01*
X200466000Y-50059000D02*
X200466000Y-47909000D01*
G75*
G02*
X200716000Y-47659000I250000J0D01*
G01*
X201641000Y-47659000D01*
G75*
G02*
X201891000Y-47909000I0J-250000D01*
G01*
X201891000Y-50059000D01*
G75*
G02*
X201641000Y-50309000I-250000J0D01*
G01*
X200716000Y-50309000D01*
G75*
G02*
X200466000Y-50059000I0J250000D01*
G01*
G37*
G36*
G01*
X216141000Y-55584000D02*
X216141000Y-53434000D01*
G75*
G02*
X216391000Y-53184000I250000J0D01*
G01*
X217316000Y-53184000D01*
G75*
G02*
X217566000Y-53434000I0J-250000D01*
G01*
X217566000Y-55584000D01*
G75*
G02*
X217316000Y-55834000I-250000J0D01*
G01*
X216391000Y-55834000D01*
G75*
G02*
X216141000Y-55584000I0J250000D01*
G01*
G37*
G36*
G01*
X219116000Y-55584000D02*
X219116000Y-53434000D01*
G75*
G02*
X219366000Y-53184000I250000J0D01*
G01*
X220291000Y-53184000D01*
G75*
G02*
X220541000Y-53434000I0J-250000D01*
G01*
X220541000Y-55584000D01*
G75*
G02*
X220291000Y-55834000I-250000J0D01*
G01*
X219366000Y-55834000D01*
G75*
G02*
X219116000Y-55584000I0J250000D01*
G01*
G37*
G36*
G01*
X217866000Y-49859000D02*
X217866000Y-47709000D01*
G75*
G02*
X218116000Y-47459000I250000J0D01*
G01*
X219041000Y-47459000D01*
G75*
G02*
X219291000Y-47709000I0J-250000D01*
G01*
X219291000Y-49859000D01*
G75*
G02*
X219041000Y-50109000I-250000J0D01*
G01*
X218116000Y-50109000D01*
G75*
G02*
X217866000Y-49859000I0J250000D01*
G01*
G37*
G36*
G01*
X220841000Y-49859000D02*
X220841000Y-47709000D01*
G75*
G02*
X221091000Y-47459000I250000J0D01*
G01*
X222016000Y-47459000D01*
G75*
G02*
X222266000Y-47709000I0J-250000D01*
G01*
X222266000Y-49859000D01*
G75*
G02*
X222016000Y-50109000I-250000J0D01*
G01*
X221091000Y-50109000D01*
G75*
G02*
X220841000Y-49859000I0J250000D01*
G01*
G37*
G36*
G01*
X222766000Y-49859000D02*
X222766000Y-47709000D01*
G75*
G02*
X223016000Y-47459000I250000J0D01*
G01*
X223941000Y-47459000D01*
G75*
G02*
X224191000Y-47709000I0J-250000D01*
G01*
X224191000Y-49859000D01*
G75*
G02*
X223941000Y-50109000I-250000J0D01*
G01*
X223016000Y-50109000D01*
G75*
G02*
X222766000Y-49859000I0J250000D01*
G01*
G37*
G36*
G01*
X225741000Y-49859000D02*
X225741000Y-47709000D01*
G75*
G02*
X225991000Y-47459000I250000J0D01*
G01*
X226916000Y-47459000D01*
G75*
G02*
X227166000Y-47709000I0J-250000D01*
G01*
X227166000Y-49859000D01*
G75*
G02*
X226916000Y-50109000I-250000J0D01*
G01*
X225991000Y-50109000D01*
G75*
G02*
X225741000Y-49859000I0J250000D01*
G01*
G37*
G36*
G01*
X183716000Y-76496500D02*
X183716000Y-76971500D01*
G75*
G02*
X183478500Y-77209000I-237500J0D01*
G01*
X182903500Y-77209000D01*
G75*
G02*
X182666000Y-76971500I0J237500D01*
G01*
X182666000Y-76496500D01*
G75*
G02*
X182903500Y-76259000I237500J0D01*
G01*
X183478500Y-76259000D01*
G75*
G02*
X183716000Y-76496500I0J-237500D01*
G01*
G37*
G36*
G01*
X181966000Y-76496500D02*
X181966000Y-76971500D01*
G75*
G02*
X181728500Y-77209000I-237500J0D01*
G01*
X181153500Y-77209000D01*
G75*
G02*
X180916000Y-76971500I0J237500D01*
G01*
X180916000Y-76496500D01*
G75*
G02*
X181153500Y-76259000I237500J0D01*
G01*
X181728500Y-76259000D01*
G75*
G02*
X181966000Y-76496500I0J-237500D01*
G01*
G37*
G36*
G01*
X188216000Y-77021500D02*
X188216000Y-76546500D01*
G75*
G02*
X188453500Y-76309000I237500J0D01*
G01*
X189028500Y-76309000D01*
G75*
G02*
X189266000Y-76546500I0J-237500D01*
G01*
X189266000Y-77021500D01*
G75*
G02*
X189028500Y-77259000I-237500J0D01*
G01*
X188453500Y-77259000D01*
G75*
G02*
X188216000Y-77021500I0J237500D01*
G01*
G37*
G36*
G01*
X186466000Y-77021500D02*
X186466000Y-76546500D01*
G75*
G02*
X186703500Y-76309000I237500J0D01*
G01*
X187278500Y-76309000D01*
G75*
G02*
X187516000Y-76546500I0J-237500D01*
G01*
X187516000Y-77021500D01*
G75*
G02*
X187278500Y-77259000I-237500J0D01*
G01*
X186703500Y-77259000D01*
G75*
G02*
X186466000Y-77021500I0J237500D01*
G01*
G37*
G36*
G01*
X192616000Y-76546500D02*
X192616000Y-77021500D01*
G75*
G02*
X192378500Y-77259000I-237500J0D01*
G01*
X191803500Y-77259000D01*
G75*
G02*
X191566000Y-77021500I0J237500D01*
G01*
X191566000Y-76546500D01*
G75*
G02*
X191803500Y-76309000I237500J0D01*
G01*
X192378500Y-76309000D01*
G75*
G02*
X192616000Y-76546500I0J-237500D01*
G01*
G37*
G36*
G01*
X190866000Y-76546500D02*
X190866000Y-77021500D01*
G75*
G02*
X190628500Y-77259000I-237500J0D01*
G01*
X190053500Y-77259000D01*
G75*
G02*
X189816000Y-77021500I0J237500D01*
G01*
X189816000Y-76546500D01*
G75*
G02*
X190053500Y-76309000I237500J0D01*
G01*
X190628500Y-76309000D01*
G75*
G02*
X190866000Y-76546500I0J-237500D01*
G01*
G37*
G36*
G01*
X197416000Y-77021500D02*
X197416000Y-76546500D01*
G75*
G02*
X197653500Y-76309000I237500J0D01*
G01*
X198228500Y-76309000D01*
G75*
G02*
X198466000Y-76546500I0J-237500D01*
G01*
X198466000Y-77021500D01*
G75*
G02*
X198228500Y-77259000I-237500J0D01*
G01*
X197653500Y-77259000D01*
G75*
G02*
X197416000Y-77021500I0J237500D01*
G01*
G37*
G36*
G01*
X195666000Y-77021500D02*
X195666000Y-76546500D01*
G75*
G02*
X195903500Y-76309000I237500J0D01*
G01*
X196478500Y-76309000D01*
G75*
G02*
X196716000Y-76546500I0J-237500D01*
G01*
X196716000Y-77021500D01*
G75*
G02*
X196478500Y-77259000I-237500J0D01*
G01*
X195903500Y-77259000D01*
G75*
G02*
X195666000Y-77021500I0J237500D01*
G01*
G37*
G36*
G01*
X204066000Y-76446500D02*
X204066000Y-76921500D01*
G75*
G02*
X203828500Y-77159000I-237500J0D01*
G01*
X203253500Y-77159000D01*
G75*
G02*
X203016000Y-76921500I0J237500D01*
G01*
X203016000Y-76446500D01*
G75*
G02*
X203253500Y-76209000I237500J0D01*
G01*
X203828500Y-76209000D01*
G75*
G02*
X204066000Y-76446500I0J-237500D01*
G01*
G37*
G36*
G01*
X202316000Y-76446500D02*
X202316000Y-76921500D01*
G75*
G02*
X202078500Y-77159000I-237500J0D01*
G01*
X201503500Y-77159000D01*
G75*
G02*
X201266000Y-76921500I0J237500D01*
G01*
X201266000Y-76446500D01*
G75*
G02*
X201503500Y-76209000I237500J0D01*
G01*
X202078500Y-76209000D01*
G75*
G02*
X202316000Y-76446500I0J-237500D01*
G01*
G37*
G36*
G01*
X208816000Y-76921500D02*
X208816000Y-76446500D01*
G75*
G02*
X209053500Y-76209000I237500J0D01*
G01*
X209628500Y-76209000D01*
G75*
G02*
X209866000Y-76446500I0J-237500D01*
G01*
X209866000Y-76921500D01*
G75*
G02*
X209628500Y-77159000I-237500J0D01*
G01*
X209053500Y-77159000D01*
G75*
G02*
X208816000Y-76921500I0J237500D01*
G01*
G37*
G36*
G01*
X207066000Y-76921500D02*
X207066000Y-76446500D01*
G75*
G02*
X207303500Y-76209000I237500J0D01*
G01*
X207878500Y-76209000D01*
G75*
G02*
X208116000Y-76446500I0J-237500D01*
G01*
X208116000Y-76921500D01*
G75*
G02*
X207878500Y-77159000I-237500J0D01*
G01*
X207303500Y-77159000D01*
G75*
G02*
X207066000Y-76921500I0J237500D01*
G01*
G37*
G36*
G01*
X213166000Y-76446500D02*
X213166000Y-76921500D01*
G75*
G02*
X212928500Y-77159000I-237500J0D01*
G01*
X212353500Y-77159000D01*
G75*
G02*
X212116000Y-76921500I0J237500D01*
G01*
X212116000Y-76446500D01*
G75*
G02*
X212353500Y-76209000I237500J0D01*
G01*
X212928500Y-76209000D01*
G75*
G02*
X213166000Y-76446500I0J-237500D01*
G01*
G37*
G36*
G01*
X211416000Y-76446500D02*
X211416000Y-76921500D01*
G75*
G02*
X211178500Y-77159000I-237500J0D01*
G01*
X210603500Y-77159000D01*
G75*
G02*
X210366000Y-76921500I0J237500D01*
G01*
X210366000Y-76446500D01*
G75*
G02*
X210603500Y-76209000I237500J0D01*
G01*
X211178500Y-76209000D01*
G75*
G02*
X211416000Y-76446500I0J-237500D01*
G01*
G37*
G36*
G01*
X217566000Y-76921500D02*
X217566000Y-76446500D01*
G75*
G02*
X217803500Y-76209000I237500J0D01*
G01*
X218378500Y-76209000D01*
G75*
G02*
X218616000Y-76446500I0J-237500D01*
G01*
X218616000Y-76921500D01*
G75*
G02*
X218378500Y-77159000I-237500J0D01*
G01*
X217803500Y-77159000D01*
G75*
G02*
X217566000Y-76921500I0J237500D01*
G01*
G37*
G36*
G01*
X215816000Y-76921500D02*
X215816000Y-76446500D01*
G75*
G02*
X216053500Y-76209000I237500J0D01*
G01*
X216628500Y-76209000D01*
G75*
G02*
X216866000Y-76446500I0J-237500D01*
G01*
X216866000Y-76921500D01*
G75*
G02*
X216628500Y-77159000I-237500J0D01*
G01*
X216053500Y-77159000D01*
G75*
G02*
X215816000Y-76921500I0J237500D01*
G01*
G37*
G36*
G01*
X209416000Y-98221500D02*
X209416000Y-97746500D01*
G75*
G02*
X209653500Y-97509000I237500J0D01*
G01*
X210228500Y-97509000D01*
G75*
G02*
X210466000Y-97746500I0J-237500D01*
G01*
X210466000Y-98221500D01*
G75*
G02*
X210228500Y-98459000I-237500J0D01*
G01*
X209653500Y-98459000D01*
G75*
G02*
X209416000Y-98221500I0J237500D01*
G01*
G37*
G36*
G01*
X207666000Y-98221500D02*
X207666000Y-97746500D01*
G75*
G02*
X207903500Y-97509000I237500J0D01*
G01*
X208478500Y-97509000D01*
G75*
G02*
X208716000Y-97746500I0J-237500D01*
G01*
X208716000Y-98221500D01*
G75*
G02*
X208478500Y-98459000I-237500J0D01*
G01*
X207903500Y-98459000D01*
G75*
G02*
X207666000Y-98221500I0J237500D01*
G01*
G37*
G36*
G01*
X187616000Y-96921500D02*
X187616000Y-96446500D01*
G75*
G02*
X187853500Y-96209000I237500J0D01*
G01*
X188428500Y-96209000D01*
G75*
G02*
X188666000Y-96446500I0J-237500D01*
G01*
X188666000Y-96921500D01*
G75*
G02*
X188428500Y-97159000I-237500J0D01*
G01*
X187853500Y-97159000D01*
G75*
G02*
X187616000Y-96921500I0J237500D01*
G01*
G37*
G36*
G01*
X185866000Y-96921500D02*
X185866000Y-96446500D01*
G75*
G02*
X186103500Y-96209000I237500J0D01*
G01*
X186678500Y-96209000D01*
G75*
G02*
X186916000Y-96446500I0J-237500D01*
G01*
X186916000Y-96921500D01*
G75*
G02*
X186678500Y-97159000I-237500J0D01*
G01*
X186103500Y-97159000D01*
G75*
G02*
X185866000Y-96921500I0J237500D01*
G01*
G37*
G36*
G01*
X208403500Y-96984000D02*
X207928500Y-96984000D01*
G75*
G02*
X207691000Y-96746500I0J237500D01*
G01*
X207691000Y-96171500D01*
G75*
G02*
X207928500Y-95934000I237500J0D01*
G01*
X208403500Y-95934000D01*
G75*
G02*
X208641000Y-96171500I0J-237500D01*
G01*
X208641000Y-96746500D01*
G75*
G02*
X208403500Y-96984000I-237500J0D01*
G01*
G37*
G36*
G01*
X208403500Y-95234000D02*
X207928500Y-95234000D01*
G75*
G02*
X207691000Y-94996500I0J237500D01*
G01*
X207691000Y-94421500D01*
G75*
G02*
X207928500Y-94184000I237500J0D01*
G01*
X208403500Y-94184000D01*
G75*
G02*
X208641000Y-94421500I0J-237500D01*
G01*
X208641000Y-94996500D01*
G75*
G02*
X208403500Y-95234000I-237500J0D01*
G01*
G37*
G36*
G01*
X186128500Y-92784000D02*
X186603500Y-92784000D01*
G75*
G02*
X186841000Y-93021500I0J-237500D01*
G01*
X186841000Y-93596500D01*
G75*
G02*
X186603500Y-93834000I-237500J0D01*
G01*
X186128500Y-93834000D01*
G75*
G02*
X185891000Y-93596500I0J237500D01*
G01*
X185891000Y-93021500D01*
G75*
G02*
X186128500Y-92784000I237500J0D01*
G01*
G37*
G36*
G01*
X186128500Y-94534000D02*
X186603500Y-94534000D01*
G75*
G02*
X186841000Y-94771500I0J-237500D01*
G01*
X186841000Y-95346500D01*
G75*
G02*
X186603500Y-95584000I-237500J0D01*
G01*
X186128500Y-95584000D01*
G75*
G02*
X185891000Y-95346500I0J237500D01*
G01*
X185891000Y-94771500D01*
G75*
G02*
X186128500Y-94534000I237500J0D01*
G01*
G37*
G36*
G01*
X219028500Y-81784000D02*
X219503500Y-81784000D01*
G75*
G02*
X219741000Y-82021500I0J-237500D01*
G01*
X219741000Y-82596500D01*
G75*
G02*
X219503500Y-82834000I-237500J0D01*
G01*
X219028500Y-82834000D01*
G75*
G02*
X218791000Y-82596500I0J237500D01*
G01*
X218791000Y-82021500D01*
G75*
G02*
X219028500Y-81784000I237500J0D01*
G01*
G37*
G36*
G01*
X219028500Y-83534000D02*
X219503500Y-83534000D01*
G75*
G02*
X219741000Y-83771500I0J-237500D01*
G01*
X219741000Y-84346500D01*
G75*
G02*
X219503500Y-84584000I-237500J0D01*
G01*
X219028500Y-84584000D01*
G75*
G02*
X218791000Y-84346500I0J237500D01*
G01*
X218791000Y-83771500D01*
G75*
G02*
X219028500Y-83534000I237500J0D01*
G01*
G37*
G36*
G01*
X197778500Y-83634000D02*
X198253500Y-83634000D01*
G75*
G02*
X198491000Y-83871500I0J-237500D01*
G01*
X198491000Y-84446500D01*
G75*
G02*
X198253500Y-84684000I-237500J0D01*
G01*
X197778500Y-84684000D01*
G75*
G02*
X197541000Y-84446500I0J237500D01*
G01*
X197541000Y-83871500D01*
G75*
G02*
X197778500Y-83634000I237500J0D01*
G01*
G37*
G36*
G01*
X197778500Y-81884000D02*
X198253500Y-81884000D01*
G75*
G02*
X198491000Y-82121500I0J-237500D01*
G01*
X198491000Y-82696500D01*
G75*
G02*
X198253500Y-82934000I-237500J0D01*
G01*
X197778500Y-82934000D01*
G75*
G02*
X197541000Y-82696500I0J237500D01*
G01*
X197541000Y-82121500D01*
G75*
G02*
X197778500Y-81884000I237500J0D01*
G01*
G37*
G36*
G01*
X180428500Y-83534000D02*
X180903500Y-83534000D01*
G75*
G02*
X181141000Y-83771500I0J-237500D01*
G01*
X181141000Y-84346500D01*
G75*
G02*
X180903500Y-84584000I-237500J0D01*
G01*
X180428500Y-84584000D01*
G75*
G02*
X180191000Y-84346500I0J237500D01*
G01*
X180191000Y-83771500D01*
G75*
G02*
X180428500Y-83534000I237500J0D01*
G01*
G37*
G36*
G01*
X180428500Y-81784000D02*
X180903500Y-81784000D01*
G75*
G02*
X181141000Y-82021500I0J-237500D01*
G01*
X181141000Y-82596500D01*
G75*
G02*
X180903500Y-82834000I-237500J0D01*
G01*
X180428500Y-82834000D01*
G75*
G02*
X180191000Y-82596500I0J237500D01*
G01*
X180191000Y-82021500D01*
G75*
G02*
X180428500Y-81784000I237500J0D01*
G01*
G37*
G36*
G01*
X201853500Y-81834000D02*
X202328500Y-81834000D01*
G75*
G02*
X202566000Y-82071500I0J-237500D01*
G01*
X202566000Y-82646500D01*
G75*
G02*
X202328500Y-82884000I-237500J0D01*
G01*
X201853500Y-82884000D01*
G75*
G02*
X201616000Y-82646500I0J237500D01*
G01*
X201616000Y-82071500D01*
G75*
G02*
X201853500Y-81834000I237500J0D01*
G01*
G37*
G36*
G01*
X201853500Y-83584000D02*
X202328500Y-83584000D01*
G75*
G02*
X202566000Y-83821500I0J-237500D01*
G01*
X202566000Y-84396500D01*
G75*
G02*
X202328500Y-84634000I-237500J0D01*
G01*
X201853500Y-84634000D01*
G75*
G02*
X201616000Y-84396500I0J237500D01*
G01*
X201616000Y-83821500D01*
G75*
G02*
X201853500Y-83584000I237500J0D01*
G01*
G37*
G36*
G01*
X172016000Y-49859000D02*
X172016000Y-47709000D01*
G75*
G02*
X172266000Y-47459000I250000J0D01*
G01*
X173191000Y-47459000D01*
G75*
G02*
X173441000Y-47709000I0J-250000D01*
G01*
X173441000Y-49859000D01*
G75*
G02*
X173191000Y-50109000I-250000J0D01*
G01*
X172266000Y-50109000D01*
G75*
G02*
X172016000Y-49859000I0J250000D01*
G01*
G37*
G36*
G01*
X169041000Y-49859000D02*
X169041000Y-47709000D01*
G75*
G02*
X169291000Y-47459000I250000J0D01*
G01*
X170216000Y-47459000D01*
G75*
G02*
X170466000Y-47709000I0J-250000D01*
G01*
X170466000Y-49859000D01*
G75*
G02*
X170216000Y-50109000I-250000J0D01*
G01*
X169291000Y-50109000D01*
G75*
G02*
X169041000Y-49859000I0J250000D01*
G01*
G37*
G36*
G01*
X183741000Y-49859000D02*
X183741000Y-47709000D01*
G75*
G02*
X183991000Y-47459000I250000J0D01*
G01*
X184916000Y-47459000D01*
G75*
G02*
X185166000Y-47709000I0J-250000D01*
G01*
X185166000Y-49859000D01*
G75*
G02*
X184916000Y-50109000I-250000J0D01*
G01*
X183991000Y-50109000D01*
G75*
G02*
X183741000Y-49859000I0J250000D01*
G01*
G37*
G36*
G01*
X186716000Y-49859000D02*
X186716000Y-47709000D01*
G75*
G02*
X186966000Y-47459000I250000J0D01*
G01*
X187891000Y-47459000D01*
G75*
G02*
X188141000Y-47709000I0J-250000D01*
G01*
X188141000Y-49859000D01*
G75*
G02*
X187891000Y-50109000I-250000J0D01*
G01*
X186966000Y-50109000D01*
G75*
G02*
X186716000Y-49859000I0J250000D01*
G01*
G37*
G36*
G01*
X193616000Y-50059000D02*
X193616000Y-47909000D01*
G75*
G02*
X193866000Y-47659000I250000J0D01*
G01*
X194791000Y-47659000D01*
G75*
G02*
X195041000Y-47909000I0J-250000D01*
G01*
X195041000Y-50059000D01*
G75*
G02*
X194791000Y-50309000I-250000J0D01*
G01*
X193866000Y-50309000D01*
G75*
G02*
X193616000Y-50059000I0J250000D01*
G01*
G37*
G36*
G01*
X190641000Y-50059000D02*
X190641000Y-47909000D01*
G75*
G02*
X190891000Y-47659000I250000J0D01*
G01*
X191816000Y-47659000D01*
G75*
G02*
X192066000Y-47909000I0J-250000D01*
G01*
X192066000Y-50059000D01*
G75*
G02*
X191816000Y-50309000I-250000J0D01*
G01*
X190891000Y-50309000D01*
G75*
G02*
X190641000Y-50059000I0J250000D01*
G01*
G37*
G36*
G01*
X205341000Y-50059000D02*
X205341000Y-47909000D01*
G75*
G02*
X205591000Y-47659000I250000J0D01*
G01*
X206516000Y-47659000D01*
G75*
G02*
X206766000Y-47909000I0J-250000D01*
G01*
X206766000Y-50059000D01*
G75*
G02*
X206516000Y-50309000I-250000J0D01*
G01*
X205591000Y-50309000D01*
G75*
G02*
X205341000Y-50059000I0J250000D01*
G01*
G37*
G36*
G01*
X208316000Y-50059000D02*
X208316000Y-47909000D01*
G75*
G02*
X208566000Y-47659000I250000J0D01*
G01*
X209491000Y-47659000D01*
G75*
G02*
X209741000Y-47909000I0J-250000D01*
G01*
X209741000Y-50059000D01*
G75*
G02*
X209491000Y-50309000I-250000J0D01*
G01*
X208566000Y-50309000D01*
G75*
G02*
X208316000Y-50059000I0J250000D01*
G01*
G37*
G36*
G01*
X212941000Y-49859000D02*
X212941000Y-47709000D01*
G75*
G02*
X213191000Y-47459000I250000J0D01*
G01*
X214116000Y-47459000D01*
G75*
G02*
X214366000Y-47709000I0J-250000D01*
G01*
X214366000Y-49859000D01*
G75*
G02*
X214116000Y-50109000I-250000J0D01*
G01*
X213191000Y-50109000D01*
G75*
G02*
X212941000Y-49859000I0J250000D01*
G01*
G37*
G36*
G01*
X215916000Y-49859000D02*
X215916000Y-47709000D01*
G75*
G02*
X216166000Y-47459000I250000J0D01*
G01*
X217091000Y-47459000D01*
G75*
G02*
X217341000Y-47709000I0J-250000D01*
G01*
X217341000Y-49859000D01*
G75*
G02*
X217091000Y-50109000I-250000J0D01*
G01*
X216166000Y-50109000D01*
G75*
G02*
X215916000Y-49859000I0J250000D01*
G01*
G37*
G36*
G01*
X230616000Y-49859000D02*
X230616000Y-47709000D01*
G75*
G02*
X230866000Y-47459000I250000J0D01*
G01*
X231791000Y-47459000D01*
G75*
G02*
X232041000Y-47709000I0J-250000D01*
G01*
X232041000Y-49859000D01*
G75*
G02*
X231791000Y-50109000I-250000J0D01*
G01*
X230866000Y-50109000D01*
G75*
G02*
X230616000Y-49859000I0J250000D01*
G01*
G37*
G36*
G01*
X227641000Y-49859000D02*
X227641000Y-47709000D01*
G75*
G02*
X227891000Y-47459000I250000J0D01*
G01*
X228816000Y-47459000D01*
G75*
G02*
X229066000Y-47709000I0J-250000D01*
G01*
X229066000Y-49859000D01*
G75*
G02*
X228816000Y-50109000I-250000J0D01*
G01*
X227891000Y-50109000D01*
G75*
G02*
X227641000Y-49859000I0J250000D01*
G01*
G37*
G36*
G01*
X216616000Y-132984000D02*
X216616000Y-134234000D01*
G75*
G02*
X216366000Y-134484000I-250000J0D01*
G01*
X215441000Y-134484000D01*
G75*
G02*
X215191000Y-134234000I0J250000D01*
G01*
X215191000Y-132984000D01*
G75*
G02*
X215441000Y-132734000I250000J0D01*
G01*
X216366000Y-132734000D01*
G75*
G02*
X216616000Y-132984000I0J-250000D01*
G01*
G37*
G36*
G01*
X213641000Y-132984000D02*
X213641000Y-134234000D01*
G75*
G02*
X213391000Y-134484000I-250000J0D01*
G01*
X212466000Y-134484000D01*
G75*
G02*
X212216000Y-134234000I0J250000D01*
G01*
X212216000Y-132984000D01*
G75*
G02*
X212466000Y-132734000I250000J0D01*
G01*
X213391000Y-132734000D01*
G75*
G02*
X213641000Y-132984000I0J-250000D01*
G01*
G37*
G36*
G01*
X220241000Y-129934000D02*
X220241000Y-128684000D01*
G75*
G02*
X220491000Y-128434000I250000J0D01*
G01*
X221416000Y-128434000D01*
G75*
G02*
X221666000Y-128684000I0J-250000D01*
G01*
X221666000Y-129934000D01*
G75*
G02*
X221416000Y-130184000I-250000J0D01*
G01*
X220491000Y-130184000D01*
G75*
G02*
X220241000Y-129934000I0J250000D01*
G01*
G37*
G36*
G01*
X217266000Y-129934000D02*
X217266000Y-128684000D01*
G75*
G02*
X217516000Y-128434000I250000J0D01*
G01*
X218441000Y-128434000D01*
G75*
G02*
X218691000Y-128684000I0J-250000D01*
G01*
X218691000Y-129934000D01*
G75*
G02*
X218441000Y-130184000I-250000J0D01*
G01*
X217516000Y-130184000D01*
G75*
G02*
X217266000Y-129934000I0J250000D01*
G01*
G37*
G36*
G01*
X231491000Y-117484000D02*
X231491000Y-118734000D01*
G75*
G02*
X231241000Y-118984000I-250000J0D01*
G01*
X230316000Y-118984000D01*
G75*
G02*
X230066000Y-118734000I0J250000D01*
G01*
X230066000Y-117484000D01*
G75*
G02*
X230316000Y-117234000I250000J0D01*
G01*
X231241000Y-117234000D01*
G75*
G02*
X231491000Y-117484000I0J-250000D01*
G01*
G37*
G36*
G01*
X228516000Y-117484000D02*
X228516000Y-118734000D01*
G75*
G02*
X228266000Y-118984000I-250000J0D01*
G01*
X227341000Y-118984000D01*
G75*
G02*
X227091000Y-118734000I0J250000D01*
G01*
X227091000Y-117484000D01*
G75*
G02*
X227341000Y-117234000I250000J0D01*
G01*
X228266000Y-117234000D01*
G75*
G02*
X228516000Y-117484000I0J-250000D01*
G01*
G37*
G36*
G01*
X237416000Y-109109000D02*
X237416000Y-107859000D01*
G75*
G02*
X237666000Y-107609000I250000J0D01*
G01*
X238591000Y-107609000D01*
G75*
G02*
X238841000Y-107859000I0J-250000D01*
G01*
X238841000Y-109109000D01*
G75*
G02*
X238591000Y-109359000I-250000J0D01*
G01*
X237666000Y-109359000D01*
G75*
G02*
X237416000Y-109109000I0J250000D01*
G01*
G37*
G36*
G01*
X240391000Y-109109000D02*
X240391000Y-107859000D01*
G75*
G02*
X240641000Y-107609000I250000J0D01*
G01*
X241566000Y-107609000D01*
G75*
G02*
X241816000Y-107859000I0J-250000D01*
G01*
X241816000Y-109109000D01*
G75*
G02*
X241566000Y-109359000I-250000J0D01*
G01*
X240641000Y-109359000D01*
G75*
G02*
X240391000Y-109109000I0J250000D01*
G01*
G37*
G36*
G01*
X148991000Y-132534000D02*
X147741000Y-132534000D01*
G75*
G02*
X147491000Y-132284000I0J250000D01*
G01*
X147491000Y-131359000D01*
G75*
G02*
X147741000Y-131109000I250000J0D01*
G01*
X148991000Y-131109000D01*
G75*
G02*
X149241000Y-131359000I0J-250000D01*
G01*
X149241000Y-132284000D01*
G75*
G02*
X148991000Y-132534000I-250000J0D01*
G01*
G37*
G36*
G01*
X148991000Y-129559000D02*
X147741000Y-129559000D01*
G75*
G02*
X147491000Y-129309000I0J250000D01*
G01*
X147491000Y-128384000D01*
G75*
G02*
X147741000Y-128134000I250000J0D01*
G01*
X148991000Y-128134000D01*
G75*
G02*
X149241000Y-128384000I0J-250000D01*
G01*
X149241000Y-129309000D01*
G75*
G02*
X148991000Y-129559000I-250000J0D01*
G01*
G37*
G36*
G01*
X73016000Y-108234000D02*
X73016000Y-106984000D01*
G75*
G02*
X73266000Y-106734000I250000J0D01*
G01*
X74191000Y-106734000D01*
G75*
G02*
X74441000Y-106984000I0J-250000D01*
G01*
X74441000Y-108234000D01*
G75*
G02*
X74191000Y-108484000I-250000J0D01*
G01*
X73266000Y-108484000D01*
G75*
G02*
X73016000Y-108234000I0J250000D01*
G01*
G37*
G36*
G01*
X75991000Y-108234000D02*
X75991000Y-106984000D01*
G75*
G02*
X76241000Y-106734000I250000J0D01*
G01*
X77166000Y-106734000D01*
G75*
G02*
X77416000Y-106984000I0J-250000D01*
G01*
X77416000Y-108234000D01*
G75*
G02*
X77166000Y-108484000I-250000J0D01*
G01*
X76241000Y-108484000D01*
G75*
G02*
X75991000Y-108234000I0J250000D01*
G01*
G37*
G36*
G01*
X103941000Y-67259000D02*
X103941000Y-68509000D01*
G75*
G02*
X103691000Y-68759000I-250000J0D01*
G01*
X102766000Y-68759000D01*
G75*
G02*
X102516000Y-68509000I0J250000D01*
G01*
X102516000Y-67259000D01*
G75*
G02*
X102766000Y-67009000I250000J0D01*
G01*
X103691000Y-67009000D01*
G75*
G02*
X103941000Y-67259000I0J-250000D01*
G01*
G37*
G36*
G01*
X100966000Y-67259000D02*
X100966000Y-68509000D01*
G75*
G02*
X100716000Y-68759000I-250000J0D01*
G01*
X99791000Y-68759000D01*
G75*
G02*
X99541000Y-68509000I0J250000D01*
G01*
X99541000Y-67259000D01*
G75*
G02*
X99791000Y-67009000I250000J0D01*
G01*
X100716000Y-67009000D01*
G75*
G02*
X100966000Y-67259000I0J-250000D01*
G01*
G37*
G36*
G01*
X80866000Y-91459000D02*
X80866000Y-90209000D01*
G75*
G02*
X81116000Y-89959000I250000J0D01*
G01*
X82041000Y-89959000D01*
G75*
G02*
X82291000Y-90209000I0J-250000D01*
G01*
X82291000Y-91459000D01*
G75*
G02*
X82041000Y-91709000I-250000J0D01*
G01*
X81116000Y-91709000D01*
G75*
G02*
X80866000Y-91459000I0J250000D01*
G01*
G37*
G36*
G01*
X83841000Y-91459000D02*
X83841000Y-90209000D01*
G75*
G02*
X84091000Y-89959000I250000J0D01*
G01*
X85016000Y-89959000D01*
G75*
G02*
X85266000Y-90209000I0J-250000D01*
G01*
X85266000Y-91459000D01*
G75*
G02*
X85016000Y-91709000I-250000J0D01*
G01*
X84091000Y-91709000D01*
G75*
G02*
X83841000Y-91459000I0J250000D01*
G01*
G37*
M02*
