M48
;DRILL file {KiCad 5.0.2-bee76a0~70~ubuntu18.04.1} date Sa 18 Apr 2020 15:22:03 CEST
;FORMAT={-:-/ absolute / metric / decimal}
FMAT,2
METRIC,TZ
T1C0.200
T2C0.250
T3C0.300
T4C0.600
T5C0.800
T6C0.900
T7C1.000
T8C1.100
T9C1.200
T10C1.300
T11C1.600
T12C2.200
T13C3.170
T14C3.200
T15C2.700
%
G90
G05
T1
X46.466Y-78.584
X48.066Y-81.184
X49.666Y-87.884
X51.666Y-84.184
X53.466Y-71.284
X53.866Y-69.084
X55.166Y-64.684
X56.266Y-127.184
X57.666Y-133.284
X58.966Y-67.684
X59.62Y-109.338
X59.666Y-105.984
X59.712Y-102.538
X59.766Y-103.984
X59.966Y-107.684
X61.916Y-73.509
X64.966Y-63.984
X65.266Y-70.484
X65.366Y-67.084
X65.466Y-111.784
X65.766Y-104.484
X68.091Y-134.359
X70.166Y-65.884
X70.666Y-118.384
X70.666Y-125.984
X70.766Y-102.984
X70.857Y-91.275
X71.166Y-138.784
X71.216Y-137.984
X72.066Y-110.684
X72.066Y-111.284
X72.216Y-137.984
X72.216Y-138.784
X72.266Y-72.384
X73.175Y-91.275
X73.266Y-65.584
X73.266Y-136.184
X73.266Y-137.084
X73.266Y-137.984
X73.266Y-138.784
X73.366Y-63.584
X73.841Y-119.284
X73.866Y-111.884
X73.866Y-113.684
X74.166Y-108.884
X74.266Y-136.184
X74.266Y-136.984
X74.266Y-137.984
X74.266Y-138.784
X75.166Y-67.784
X75.366Y-136.184
X75.366Y-137.109
X75.366Y-137.984
X75.366Y-138.784
X76.041Y-104.859
X76.266Y-105.484
X77.466Y-134.384
X77.566Y-103.784
X77.966Y-57.084
X78.366Y-70.984
X78.466Y-71.984
X78.766Y-64.184
X78.966Y-62.584
X79.466Y-104.884
X79.466Y-105.334
X80.366Y-60.484
X80.616Y-57.984
X80.716Y-109.534
X81.934Y-123.416
X82.166Y-109.584
X82.166Y-112.884
X82.966Y-65.084
X85.466Y-54.684
X85.566Y-112.884
X86.366Y-97.184
X86.366Y-100.184
X87.466Y-70.984
X87.466Y-87.684
X88.066Y-88.984
X88.666Y-124.784
X90.466Y-67.084
X90.466Y-69.084
X91.066Y-132.684
X91.466Y-38.084
X91.466Y-39.084
X91.466Y-40.084
X91.466Y-41.084
X91.466Y-42.084
X91.466Y-43.084
X91.466Y-44.084
X91.466Y-45.084
X91.466Y-46.084
X91.466Y-47.084
X91.466Y-48.084
X91.466Y-49.084
X91.466Y-50.084
X91.466Y-51.084
X91.466Y-51.984
X91.466Y-91.084
X92.466Y-67.084
X92.466Y-69.084
X92.666Y-88.984
X93.09Y-129.309
X93.466Y-91.084
X94.466Y-67.084
X94.466Y-69.084
X95.266Y-54.284
X95.419Y-129.231
X95.466Y-91.084
X95.466Y-92.084
X95.466Y-93.084
X96.066Y-129.184
X96.466Y-67.084
X96.466Y-69.084
X96.466Y-88.884
X96.966Y-129.784
X97.466Y-91.084
X97.466Y-92.084
X97.466Y-93.084
X98.466Y-67.084
X98.466Y-69.084
X99.466Y-91.084
X100.166Y-123.884
X100.166Y-125.184
X100.166Y-127.184
X100.166Y-128.584
X100.466Y-67.084
X100.466Y-69.084
X101.266Y-111.584
X101.366Y-123.884
X101.366Y-125.184
X101.366Y-127.184
X101.366Y-128.584
X101.466Y-91.084
X101.466Y-92.084
X101.466Y-93.084
X102.466Y-67.084
X102.466Y-69.084
X103.466Y-91.084
X103.466Y-92.084
X103.466Y-93.084
X103.766Y-123.884
X103.766Y-124.484
X103.766Y-125.184
X103.766Y-125.784
X103.766Y-126.484
X103.766Y-127.184
X103.766Y-127.884
X103.766Y-128.584
X104.466Y-67.084
X104.466Y-69.084
X105.466Y-91.084
X106.466Y-67.084
X106.466Y-69.084
X107.466Y-91.084
X108.466Y-67.084
X108.466Y-69.084
X108.566Y-38.184
X108.566Y-39.084
X108.566Y-40.084
X108.566Y-41.184
X108.566Y-42.084
X108.566Y-43.084
X108.566Y-44.084
X108.566Y-45.084
X108.566Y-46.084
X108.566Y-47.084
X108.566Y-48.084
X108.566Y-49.084
X108.566Y-50.084
X108.566Y-51.084
X108.566Y-51.984
X109.466Y-126.084
X109.466Y-127.084
X109.466Y-128.084
X109.466Y-129.084
X110.466Y-67.084
X110.466Y-69.084
X110.466Y-126.084
X110.466Y-127.084
X110.466Y-128.084
X111.466Y-126.084
X111.466Y-127.084
X111.466Y-128.084
X112.466Y-67.084
X112.466Y-69.084
X112.466Y-126.084
X112.466Y-127.084
X112.716Y-106.584
X112.716Y-107.084
X112.716Y-107.584
X112.716Y-110.084
X113.466Y-106.084
X113.466Y-106.584
X113.466Y-107.084
X113.466Y-107.584
X113.466Y-110.084
X113.466Y-126.084
X114.216Y-106.084
X114.216Y-106.584
X114.216Y-107.084
X114.216Y-107.584
X114.216Y-110.084
X114.466Y-67.084
X114.466Y-69.084
X122.716Y-105.084
X123.966Y-92.084
X123.966Y-93.084
X123.966Y-104.334
X125.466Y-92.084
X125.466Y-93.084
X125.466Y-104.334
X126.966Y-92.084
X126.966Y-93.084
X126.966Y-104.334
X127.966Y-108.484
X128.466Y-92.084
X128.466Y-93.084
X128.466Y-104.334
X129.966Y-87.584
X129.966Y-92.084
X129.966Y-93.084
X129.966Y-104.334
X131.466Y-87.584
X131.466Y-92.084
X131.466Y-93.084
X131.466Y-104.334
X131.745Y-131.763
X131.766Y-108.284
X132.883Y-131.991
X132.966Y-87.584
X132.966Y-92.084
X132.966Y-93.084
X132.966Y-104.334
X133.116Y-134.446
X133.266Y-125.184
X133.395Y-134.025
X133.466Y-105.584
X133.647Y-135.355
X133.892Y-134.977
X134.466Y-87.584
X134.666Y-135.384
X134.766Y-134.884
X134.866Y-134.384
X135.266Y-108.834
X137.966Y-119.784
X137.966Y-125.184
X138.066Y-108.284
X140.566Y-119.784
X141.466Y-113.784
X141.566Y-105.584
X141.866Y-108.284
X143.166Y-97.784
X143.664Y-114.282
X143.666Y-129.184
X143.966Y-113.184
X144.266Y-123.184
X144.266Y-126.184
X144.666Y-127.784
X144.689Y-121.984
X144.766Y-120.784
X145.366Y-91.684
X145.366Y-117.284
X146.366Y-91.684
X146.366Y-93.584
X146.366Y-96.084
X146.866Y-91.684
X146.866Y-93.584
X146.866Y-96.084
X147.366Y-91.684
X147.366Y-93.584
X147.366Y-96.084
X147.466Y-81.284
X147.466Y-98.084
X147.866Y-91.684
X147.866Y-93.584
X147.866Y-96.084
X148.366Y-98.084
X148.866Y-91.684
X149.366Y-98.084
X149.666Y-106.284
X150.266Y-98.084
X150.666Y-85.084
X150.966Y-119.584
X151.166Y-98.084
X151.466Y-128.784
X153.066Y-81.184
X153.666Y-85.084
X153.666Y-87.984
X154.066Y-77.884
X154.066Y-79.684
X154.166Y-125.684
X154.366Y-116.084
X155.066Y-81.184
X156.266Y-112.684
X156.978Y-121.784
X157.266Y-76.984
X157.666Y-116.184
X157.666Y-117.184
X157.766Y-109.084
X158.766Y-108.084
X159.266Y-114.384
X160.066Y-132.657
X160.266Y-103.484
X160.28Y-106.628
X160.666Y-105.384
X160.766Y-109.484
X160.866Y-106.684
X161.066Y-110.784
X161.166Y-113.184
X161.866Y-106.884
X161.866Y-115.584
X162.066Y-82.472
X162.066Y-118.884
X162.166Y-114.684
X162.166Y-115.184
X162.366Y-105.434
X162.366Y-110.784
X162.716Y-98.184
X162.884Y-110.284
X163.166Y-72.584
X163.166Y-74.484
X163.166Y-75.184
X163.166Y-75.884
X163.166Y-77.184
X163.966Y-118.484
X164.366Y-80.384
X164.466Y-111.584
X164.481Y-112.369
X165.266Y-111.584
X165.366Y-112.284
X165.466Y-72.584
X165.466Y-74.484
X165.466Y-75.184
X165.466Y-75.884
X165.466Y-77.184
X165.66Y-105.378
X166.551Y-117.499
X166.566Y-115.884
X167.166Y-74.484
X167.166Y-75.184
X167.166Y-75.884
X167.466Y-80.484
X167.766Y-73.784
X167.766Y-76.284
X168.066Y-108.984
X168.366Y-73.784
X168.366Y-76.284
X168.466Y-110.684
X168.666Y-85.584
X168.666Y-97.584
X168.866Y-80.284
X168.946Y-87.484
X168.966Y-73.784
X168.966Y-76.284
X168.966Y-113.284
X168.966Y-120.384
X169.066Y-110.684
X169.466Y-123.584
X169.566Y-91.184
X169.576Y-112.194
X169.666Y-73.384
X169.866Y-78.984
X169.966Y-84.284
X170.366Y-73.884
X170.366Y-74.484
X170.366Y-75.184
X170.366Y-75.884
X171.066Y-123.584
X171.466Y-94.884
X172.166Y-136.984
X172.466Y-73.884
X172.466Y-74.484
X172.466Y-75.184
X172.466Y-75.884
X172.666Y-63.684
X172.966Y-135.084
X172.966Y-136.884
X173.166Y-73.884
X173.166Y-74.484
X173.166Y-75.184
X173.166Y-75.884
X173.366Y-138.984
X173.666Y-77.084
X173.766Y-122.084
X174.008Y-77.414
X174.166Y-118.484
X174.283Y-77.771
X174.517Y-109.984
X175.666Y-59.684
X176.666Y-101.184
X176.766Y-106.384
X177.766Y-72.484
X177.766Y-75.484
X178.166Y-86.784
X178.366Y-108.784
X179.666Y-62.884
X179.866Y-64.584
X180.266Y-72.484
X180.266Y-75.484
X180.466Y-96.784
X180.866Y-102.684
X183.591Y-86.884
X185.066Y-60.184
X185.666Y-58.384
X185.766Y-64.584
X187.466Y-60.084
X187.466Y-61.484
X187.466Y-80.384
X187.866Y-99.384
X188.566Y-76.984
X189.866Y-99.384
X190.166Y-57.884
X190.666Y-107.184
X190.966Y-73.284
X191.016Y-65.584
X191.066Y-64.284
X191.166Y-62.884
X191.266Y-59.684
X191.466Y-69.834
X191.516Y-70.284
X191.571Y-123.113
X192.566Y-121.384
X192.666Y-100.584
X193.047Y-120.959
X193.166Y-59.684
X194.066Y-60.284
X194.166Y-69.984
X195.251Y-119.269
X195.566Y-107.184
X195.966Y-64.484
X196.966Y-98.384
X198.466Y-57.084
X198.754Y-99.695
X199.466Y-57.084
X199.466Y-58.084
X200.466Y-57.084
X200.466Y-58.084
X200.466Y-60.084
X200.466Y-61.084
X200.466Y-73.084
X200.466Y-74.084
X200.466Y-105.484
X200.766Y-100.484
X201.466Y-57.084
X201.466Y-58.084
X201.466Y-60.084
X201.466Y-61.084
X201.466Y-73.084
X201.466Y-74.084
X201.766Y-110.684
X202.466Y-57.084
X202.466Y-58.084
X202.466Y-60.084
X202.466Y-61.084
X202.466Y-73.084
X202.466Y-74.084
X203.266Y-99.684
X203.466Y-57.084
X203.466Y-58.084
X203.466Y-60.084
X203.466Y-61.084
X203.466Y-73.084
X203.466Y-74.084
X204.166Y-102.984
X204.466Y-57.084
X204.466Y-58.084
X204.466Y-60.084
X204.466Y-61.084
X204.466Y-73.084
X204.466Y-74.084
X205.366Y-105.484
X205.466Y-57.084
X205.466Y-58.084
X205.466Y-60.084
X205.466Y-61.084
X205.466Y-73.084
X205.466Y-74.084
X206.466Y-57.084
X206.466Y-58.084
X206.466Y-60.084
X206.466Y-61.084
X206.466Y-73.084
X206.466Y-74.084
X207.466Y-57.084
X208.466Y-57.084
X209.166Y-97.084
X211.566Y-63.884
X211.566Y-64.284
X211.566Y-68.384
X211.566Y-68.784
X211.566Y-120.834
X211.966Y-63.884
X211.966Y-64.284
X211.966Y-68.384
X211.966Y-68.784
X212.238Y-120.806
X212.366Y-63.884
X212.366Y-64.284
X212.366Y-68.384
X212.366Y-68.784
X212.766Y-63.884
X212.766Y-68.784
X212.766Y-127.184
X212.957Y-121.809
X213.166Y-63.884
X213.166Y-68.784
X213.566Y-98.484
X214.141Y-112.084
X214.426Y-121.274
X214.566Y-120.684
X227.566Y-113.384
X232.953Y-95.384
X234.166Y-113.384
X234.266Y-95.384
X236.578Y-60.572
X236.578Y-62.197
X237.366Y-70.284
X237.366Y-71.484
X240.066Y-96.484
X240.166Y-99.784
X240.366Y-103.084
T2
X147.11Y-94.436
X147.11Y-95.236
T3
X202.091Y-65.091
X202.091Y-66.091
X202.091Y-67.091
X202.091Y-68.091
X203.591Y-65.091
X203.591Y-66.091
X203.591Y-67.091
X203.591Y-68.091
X205.091Y-65.091
X205.091Y-66.091
X205.091Y-67.091
X205.091Y-68.091
T4
X89.166Y-128.284
X89.166Y-130.284
X177.832Y-59.784
X179.832Y-59.784
X177.832Y-64.614
X179.832Y-64.614
T5
X234.466Y-46.684
X234.466Y-51.684
X227.838Y-97.888
X232.838Y-97.888
X182.866Y-107.484
X187.866Y-107.484
X218.764Y-104.492
X223.764Y-104.492
X229.466Y-51.084
X229.466Y-56.084
X227.838Y-111.096
X232.838Y-111.096
X234.466Y-54.684
X234.466Y-59.684
X218.764Y-101.19
X223.764Y-101.19
X227.838Y-104.492
X232.838Y-104.492
X184.23Y-74.52
X189.23Y-74.52
X51.516Y-89.984
X54.016Y-89.984
X143.764Y-106.31
X143.764Y-108.81
X218.764Y-111.096
X223.764Y-111.096
X184.15Y-65.376
X189.15Y-65.376
X237.566Y-87.984
X237.566Y-92.984
X227.838Y-107.794
X232.838Y-107.794
X218.764Y-97.888
X223.764Y-97.888
X184.15Y-59.28
X189.15Y-59.28
X234.366Y-73.484
X234.366Y-78.484
X237.566Y-80.484
X237.566Y-85.484
X237.266Y-54.884
X242.266Y-54.884
X229.066Y-77.884
X229.066Y-82.884
X217.1Y-60.484
X220.636Y-64.02
X182.866Y-104.384
X187.866Y-104.384
X218.764Y-107.794
X223.764Y-107.794
X79.766Y-55.941
X82.266Y-55.941
X227.838Y-101.19
X232.838Y-101.19
X184.166Y-62.328
X189.166Y-62.328
X184.15Y-68.424
X189.15Y-68.424
X237.466Y-46.684
X237.466Y-51.684
X182.866Y-110.584
X187.866Y-110.584
X234.566Y-87.984
X234.566Y-92.984
X217.1Y-71.584
X220.636Y-68.048
X184.23Y-71.472
X189.23Y-71.472
T6
X155.416Y-95.834
X157.956Y-95.834
T7
X158.966Y-135.834
X158.966Y-138.374
X161.506Y-135.834
X161.506Y-138.374
X164.046Y-135.834
X164.046Y-138.374
X166.586Y-135.834
X166.586Y-138.374
X169.126Y-135.834
X169.126Y-138.374
X183.996Y-48.014
X183.996Y-50.554
X183.996Y-53.094
X183.996Y-55.634
X186.536Y-48.014
X186.536Y-50.554
X186.536Y-53.094
X186.536Y-55.634
X113.466Y-46.714
X113.466Y-49.254
X113.466Y-51.794
X113.466Y-54.334
X116.006Y-46.714
X116.006Y-49.254
X116.006Y-51.794
X116.006Y-54.334
X190.566Y-115.284
X193.106Y-115.284
X195.646Y-115.284
X198.186Y-115.284
X219.866Y-138.084
X222.406Y-138.084
X224.946Y-138.084
X227.486Y-138.084
T8
X49.784Y-98.114
X49.784Y-103.114
X49.784Y-108.114
X49.784Y-113.114
X49.784Y-118.114
X49.784Y-123.114
X49.784Y-128.114
X240.792Y-60.296
X240.792Y-65.296
X240.792Y-70.296
X240.792Y-75.296
X49.716Y-51.584
X49.716Y-56.584
T9
X175.Y-57.
X175.Y-62.
X128.Y-50.
X128.Y-55.
X175.Y-41.75
X175.Y-46.75
X211.Y-77.5
X211.Y-82.5
X197.Y-77.5
X197.Y-82.5
X211.Y-50.5
X211.Y-55.5
X143.5Y-50.
X143.5Y-55.
X197.Y-50.5
X197.Y-55.5
T10
X57.764Y-96.11
X80.264Y-96.11
T11
X225.Y-74.
X231.Y-74.
X225.Y-45.
X231.Y-45.
X225.Y-89.
X231.Y-89.
X225.Y-60.
X231.Y-60.
T12
X182.566Y-115.284
X182.566Y-138.784
X206.066Y-115.284
X206.066Y-138.784
T13
X190.511Y-42.971
X190.511Y-90.211
X216.671Y-42.971
X216.671Y-90.211
T14
X240.466Y-137.084
X240.466Y-42.084
X50.466Y-137.084
X145.466Y-42.084
X145.466Y-137.084
X50.466Y-42.084
T15
X69.014Y-96.11
T0
M30
