G04 #@! TF.GenerationSoftware,KiCad,Pcbnew,(5.1.6)-1*
G04 #@! TF.CreationDate,2020-07-10T11:15:32+02:00*
G04 #@! TF.ProjectId,MukkeBox,4d756b6b-6542-46f7-982e-6b696361645f,rev?*
G04 #@! TF.SameCoordinates,Original*
G04 #@! TF.FileFunction,Soldermask,Bot*
G04 #@! TF.FilePolarity,Negative*
%FSLAX46Y46*%
G04 Gerber Fmt 4.6, Leading zero omitted, Abs format (unit mm)*
G04 Created by KiCad (PCBNEW (5.1.6)-1) date 2020-07-10 11:15:32*
%MOMM*%
%LPD*%
G01*
G04 APERTURE LIST*
%ADD10C,0.150000*%
G04 APERTURE END LIST*
D10*
G36*
X241297606Y-134342562D02*
G01*
X241816455Y-134557476D01*
X242283407Y-134869484D01*
X242680516Y-135266593D01*
X242992524Y-135733545D01*
X243207438Y-136252394D01*
X243317000Y-136803201D01*
X243317000Y-137364799D01*
X243207438Y-137915606D01*
X242992524Y-138434455D01*
X242783814Y-138746811D01*
X242701329Y-138870259D01*
X242680516Y-138901407D01*
X242283407Y-139298516D01*
X241816455Y-139610524D01*
X241297606Y-139825438D01*
X241022202Y-139880219D01*
X240746800Y-139935000D01*
X240185200Y-139935000D01*
X239909798Y-139880219D01*
X239634394Y-139825438D01*
X239115545Y-139610524D01*
X238648593Y-139298516D01*
X238251484Y-138901407D01*
X238230672Y-138870259D01*
X238148186Y-138746811D01*
X237939476Y-138434455D01*
X237724562Y-137915606D01*
X237615000Y-137364799D01*
X237615000Y-136803201D01*
X237724562Y-136252394D01*
X237939476Y-135733545D01*
X238251484Y-135266593D01*
X238648593Y-134869484D01*
X239115545Y-134557476D01*
X239634394Y-134342562D01*
X240185200Y-134233000D01*
X240746800Y-134233000D01*
X241297606Y-134342562D01*
G37*
G36*
X76297606Y-134342562D02*
G01*
X76816455Y-134557476D01*
X77283407Y-134869484D01*
X77680516Y-135266593D01*
X77992524Y-135733545D01*
X78207438Y-136252394D01*
X78317000Y-136803201D01*
X78317000Y-137364799D01*
X78207438Y-137915606D01*
X77992524Y-138434455D01*
X77783814Y-138746811D01*
X77701329Y-138870259D01*
X77680516Y-138901407D01*
X77283407Y-139298516D01*
X76816455Y-139610524D01*
X76297606Y-139825438D01*
X76022202Y-139880219D01*
X75746800Y-139935000D01*
X75185200Y-139935000D01*
X74909798Y-139880219D01*
X74634394Y-139825438D01*
X74115545Y-139610524D01*
X73648593Y-139298516D01*
X73251484Y-138901407D01*
X73230672Y-138870259D01*
X73148186Y-138746811D01*
X72939476Y-138434455D01*
X72724562Y-137915606D01*
X72615000Y-137364799D01*
X72615000Y-136803201D01*
X72724562Y-136252394D01*
X72939476Y-135733545D01*
X73251484Y-135266593D01*
X73648593Y-134869484D01*
X74115545Y-134557476D01*
X74634394Y-134342562D01*
X75185200Y-134233000D01*
X75746800Y-134233000D01*
X76297606Y-134342562D01*
G37*
G36*
X146297606Y-134342562D02*
G01*
X146816455Y-134557476D01*
X147283407Y-134869484D01*
X147680516Y-135266593D01*
X147992524Y-135733545D01*
X148207438Y-136252394D01*
X148317000Y-136803201D01*
X148317000Y-137364799D01*
X148207438Y-137915606D01*
X147992524Y-138434455D01*
X147783814Y-138746811D01*
X147701329Y-138870259D01*
X147680516Y-138901407D01*
X147283407Y-139298516D01*
X146816455Y-139610524D01*
X146297606Y-139825438D01*
X146022202Y-139880219D01*
X145746800Y-139935000D01*
X145185200Y-139935000D01*
X144909798Y-139880219D01*
X144634394Y-139825438D01*
X144115545Y-139610524D01*
X143648593Y-139298516D01*
X143251484Y-138901407D01*
X143230672Y-138870259D01*
X143148186Y-138746811D01*
X142939476Y-138434455D01*
X142724562Y-137915606D01*
X142615000Y-137364799D01*
X142615000Y-136803201D01*
X142724562Y-136252394D01*
X142939476Y-135733545D01*
X143251484Y-135266593D01*
X143648593Y-134869484D01*
X144115545Y-134557476D01*
X144634394Y-134342562D01*
X145185200Y-134233000D01*
X145746800Y-134233000D01*
X146297606Y-134342562D01*
G37*
G36*
X123689512Y-138062927D02*
G01*
X123838812Y-138092624D01*
X124002784Y-138160544D01*
X124150354Y-138259147D01*
X124275853Y-138384646D01*
X124374456Y-138532216D01*
X124442376Y-138696188D01*
X124477000Y-138870259D01*
X124477000Y-139047741D01*
X124442376Y-139221812D01*
X124374456Y-139385784D01*
X124275853Y-139533354D01*
X124150354Y-139658853D01*
X124002784Y-139757456D01*
X123838812Y-139825376D01*
X123689512Y-139855073D01*
X123664742Y-139860000D01*
X123487258Y-139860000D01*
X123462488Y-139855073D01*
X123313188Y-139825376D01*
X123149216Y-139757456D01*
X123001646Y-139658853D01*
X122876147Y-139533354D01*
X122777544Y-139385784D01*
X122709624Y-139221812D01*
X122675000Y-139047741D01*
X122675000Y-138870259D01*
X122709624Y-138696188D01*
X122777544Y-138532216D01*
X122876147Y-138384646D01*
X123001646Y-138259147D01*
X123149216Y-138160544D01*
X123313188Y-138092624D01*
X123462488Y-138062927D01*
X123487258Y-138058000D01*
X123664742Y-138058000D01*
X123689512Y-138062927D01*
G37*
G36*
X126229512Y-138062927D02*
G01*
X126378812Y-138092624D01*
X126542784Y-138160544D01*
X126690354Y-138259147D01*
X126815853Y-138384646D01*
X126914456Y-138532216D01*
X126982376Y-138696188D01*
X127017000Y-138870259D01*
X127017000Y-139047741D01*
X126982376Y-139221812D01*
X126914456Y-139385784D01*
X126815853Y-139533354D01*
X126690354Y-139658853D01*
X126542784Y-139757456D01*
X126378812Y-139825376D01*
X126229512Y-139855073D01*
X126204742Y-139860000D01*
X126027258Y-139860000D01*
X126002488Y-139855073D01*
X125853188Y-139825376D01*
X125689216Y-139757456D01*
X125541646Y-139658853D01*
X125416147Y-139533354D01*
X125317544Y-139385784D01*
X125249624Y-139221812D01*
X125215000Y-139047741D01*
X125215000Y-138870259D01*
X125249624Y-138696188D01*
X125317544Y-138532216D01*
X125416147Y-138384646D01*
X125541646Y-138259147D01*
X125689216Y-138160544D01*
X125853188Y-138092624D01*
X126002488Y-138062927D01*
X126027258Y-138058000D01*
X126204742Y-138058000D01*
X126229512Y-138062927D01*
G37*
G36*
X118609512Y-138062927D02*
G01*
X118758812Y-138092624D01*
X118922784Y-138160544D01*
X119070354Y-138259147D01*
X119195853Y-138384646D01*
X119294456Y-138532216D01*
X119362376Y-138696188D01*
X119397000Y-138870259D01*
X119397000Y-139047741D01*
X119362376Y-139221812D01*
X119294456Y-139385784D01*
X119195853Y-139533354D01*
X119070354Y-139658853D01*
X118922784Y-139757456D01*
X118758812Y-139825376D01*
X118609512Y-139855073D01*
X118584742Y-139860000D01*
X118407258Y-139860000D01*
X118382488Y-139855073D01*
X118233188Y-139825376D01*
X118069216Y-139757456D01*
X117921646Y-139658853D01*
X117796147Y-139533354D01*
X117697544Y-139385784D01*
X117629624Y-139221812D01*
X117595000Y-139047741D01*
X117595000Y-138870259D01*
X117629624Y-138696188D01*
X117697544Y-138532216D01*
X117796147Y-138384646D01*
X117921646Y-138259147D01*
X118069216Y-138160544D01*
X118233188Y-138092624D01*
X118382488Y-138062927D01*
X118407258Y-138058000D01*
X118584742Y-138058000D01*
X118609512Y-138062927D01*
G37*
G36*
X116069512Y-138062927D02*
G01*
X116218812Y-138092624D01*
X116382784Y-138160544D01*
X116530354Y-138259147D01*
X116655853Y-138384646D01*
X116754456Y-138532216D01*
X116822376Y-138696188D01*
X116857000Y-138870259D01*
X116857000Y-139047741D01*
X116822376Y-139221812D01*
X116754456Y-139385784D01*
X116655853Y-139533354D01*
X116530354Y-139658853D01*
X116382784Y-139757456D01*
X116218812Y-139825376D01*
X116069512Y-139855073D01*
X116044742Y-139860000D01*
X115867258Y-139860000D01*
X115842488Y-139855073D01*
X115693188Y-139825376D01*
X115529216Y-139757456D01*
X115381646Y-139658853D01*
X115256147Y-139533354D01*
X115157544Y-139385784D01*
X115089624Y-139221812D01*
X115055000Y-139047741D01*
X115055000Y-138870259D01*
X115089624Y-138696188D01*
X115157544Y-138532216D01*
X115256147Y-138384646D01*
X115381646Y-138259147D01*
X115529216Y-138160544D01*
X115693188Y-138092624D01*
X115842488Y-138062927D01*
X115867258Y-138058000D01*
X116044742Y-138058000D01*
X116069512Y-138062927D01*
G37*
G36*
X113529512Y-138062927D02*
G01*
X113678812Y-138092624D01*
X113842784Y-138160544D01*
X113990354Y-138259147D01*
X114115853Y-138384646D01*
X114214456Y-138532216D01*
X114282376Y-138696188D01*
X114317000Y-138870259D01*
X114317000Y-139047741D01*
X114282376Y-139221812D01*
X114214456Y-139385784D01*
X114115853Y-139533354D01*
X113990354Y-139658853D01*
X113842784Y-139757456D01*
X113678812Y-139825376D01*
X113529512Y-139855073D01*
X113504742Y-139860000D01*
X113327258Y-139860000D01*
X113302488Y-139855073D01*
X113153188Y-139825376D01*
X112989216Y-139757456D01*
X112841646Y-139658853D01*
X112716147Y-139533354D01*
X112617544Y-139385784D01*
X112549624Y-139221812D01*
X112515000Y-139047741D01*
X112515000Y-138870259D01*
X112549624Y-138696188D01*
X112617544Y-138532216D01*
X112716147Y-138384646D01*
X112841646Y-138259147D01*
X112989216Y-138160544D01*
X113153188Y-138092624D01*
X113302488Y-138062927D01*
X113327258Y-138058000D01*
X113504742Y-138058000D01*
X113529512Y-138062927D01*
G37*
G36*
X110989512Y-138062927D02*
G01*
X111138812Y-138092624D01*
X111302784Y-138160544D01*
X111450354Y-138259147D01*
X111575853Y-138384646D01*
X111674456Y-138532216D01*
X111742376Y-138696188D01*
X111777000Y-138870259D01*
X111777000Y-139047741D01*
X111742376Y-139221812D01*
X111674456Y-139385784D01*
X111575853Y-139533354D01*
X111450354Y-139658853D01*
X111302784Y-139757456D01*
X111138812Y-139825376D01*
X110989512Y-139855073D01*
X110964742Y-139860000D01*
X110787258Y-139860000D01*
X110762488Y-139855073D01*
X110613188Y-139825376D01*
X110449216Y-139757456D01*
X110301646Y-139658853D01*
X110176147Y-139533354D01*
X110077544Y-139385784D01*
X110009624Y-139221812D01*
X109975000Y-139047741D01*
X109975000Y-138870259D01*
X110009624Y-138696188D01*
X110077544Y-138532216D01*
X110176147Y-138384646D01*
X110301646Y-138259147D01*
X110449216Y-138160544D01*
X110613188Y-138092624D01*
X110762488Y-138062927D01*
X110787258Y-138058000D01*
X110964742Y-138058000D01*
X110989512Y-138062927D01*
G37*
G36*
X121149512Y-138062927D02*
G01*
X121298812Y-138092624D01*
X121462784Y-138160544D01*
X121610354Y-138259147D01*
X121735853Y-138384646D01*
X121834456Y-138532216D01*
X121902376Y-138696188D01*
X121937000Y-138870259D01*
X121937000Y-139047741D01*
X121902376Y-139221812D01*
X121834456Y-139385784D01*
X121735853Y-139533354D01*
X121610354Y-139658853D01*
X121462784Y-139757456D01*
X121298812Y-139825376D01*
X121149512Y-139855073D01*
X121124742Y-139860000D01*
X120947258Y-139860000D01*
X120922488Y-139855073D01*
X120773188Y-139825376D01*
X120609216Y-139757456D01*
X120461646Y-139658853D01*
X120336147Y-139533354D01*
X120237544Y-139385784D01*
X120169624Y-139221812D01*
X120135000Y-139047741D01*
X120135000Y-138870259D01*
X120169624Y-138696188D01*
X120237544Y-138532216D01*
X120336147Y-138384646D01*
X120461646Y-138259147D01*
X120609216Y-138160544D01*
X120773188Y-138092624D01*
X120922488Y-138062927D01*
X120947258Y-138058000D01*
X121124742Y-138058000D01*
X121149512Y-138062927D01*
G37*
G36*
X128769512Y-138062927D02*
G01*
X128918812Y-138092624D01*
X129082784Y-138160544D01*
X129230354Y-138259147D01*
X129355853Y-138384646D01*
X129454456Y-138532216D01*
X129522376Y-138696188D01*
X129557000Y-138870259D01*
X129557000Y-139047741D01*
X129522376Y-139221812D01*
X129454456Y-139385784D01*
X129355853Y-139533354D01*
X129230354Y-139658853D01*
X129082784Y-139757456D01*
X128918812Y-139825376D01*
X128769512Y-139855073D01*
X128744742Y-139860000D01*
X128567258Y-139860000D01*
X128542488Y-139855073D01*
X128393188Y-139825376D01*
X128229216Y-139757456D01*
X128081646Y-139658853D01*
X127956147Y-139533354D01*
X127857544Y-139385784D01*
X127789624Y-139221812D01*
X127755000Y-139047741D01*
X127755000Y-138870259D01*
X127789624Y-138696188D01*
X127857544Y-138532216D01*
X127956147Y-138384646D01*
X128081646Y-138259147D01*
X128229216Y-138160544D01*
X128393188Y-138092624D01*
X128542488Y-138062927D01*
X128567258Y-138058000D01*
X128744742Y-138058000D01*
X128769512Y-138062927D01*
G37*
G36*
X103369512Y-138062927D02*
G01*
X103518812Y-138092624D01*
X103682784Y-138160544D01*
X103830354Y-138259147D01*
X103955853Y-138384646D01*
X104054456Y-138532216D01*
X104122376Y-138696188D01*
X104157000Y-138870259D01*
X104157000Y-139047741D01*
X104122376Y-139221812D01*
X104054456Y-139385784D01*
X103955853Y-139533354D01*
X103830354Y-139658853D01*
X103682784Y-139757456D01*
X103518812Y-139825376D01*
X103369512Y-139855073D01*
X103344742Y-139860000D01*
X103167258Y-139860000D01*
X103142488Y-139855073D01*
X102993188Y-139825376D01*
X102829216Y-139757456D01*
X102681646Y-139658853D01*
X102556147Y-139533354D01*
X102457544Y-139385784D01*
X102389624Y-139221812D01*
X102355000Y-139047741D01*
X102355000Y-138870259D01*
X102389624Y-138696188D01*
X102457544Y-138532216D01*
X102556147Y-138384646D01*
X102681646Y-138259147D01*
X102829216Y-138160544D01*
X102993188Y-138092624D01*
X103142488Y-138062927D01*
X103167258Y-138058000D01*
X103344742Y-138058000D01*
X103369512Y-138062927D01*
G37*
G36*
X100829512Y-138062927D02*
G01*
X100978812Y-138092624D01*
X101142784Y-138160544D01*
X101290354Y-138259147D01*
X101415853Y-138384646D01*
X101514456Y-138532216D01*
X101582376Y-138696188D01*
X101617000Y-138870259D01*
X101617000Y-139047741D01*
X101582376Y-139221812D01*
X101514456Y-139385784D01*
X101415853Y-139533354D01*
X101290354Y-139658853D01*
X101142784Y-139757456D01*
X100978812Y-139825376D01*
X100829512Y-139855073D01*
X100804742Y-139860000D01*
X100627258Y-139860000D01*
X100602488Y-139855073D01*
X100453188Y-139825376D01*
X100289216Y-139757456D01*
X100141646Y-139658853D01*
X100016147Y-139533354D01*
X99917544Y-139385784D01*
X99849624Y-139221812D01*
X99815000Y-139047741D01*
X99815000Y-138870259D01*
X99849624Y-138696188D01*
X99917544Y-138532216D01*
X100016147Y-138384646D01*
X100141646Y-138259147D01*
X100289216Y-138160544D01*
X100453188Y-138092624D01*
X100602488Y-138062927D01*
X100627258Y-138058000D01*
X100804742Y-138058000D01*
X100829512Y-138062927D01*
G37*
G36*
X98289512Y-138062927D02*
G01*
X98438812Y-138092624D01*
X98602784Y-138160544D01*
X98750354Y-138259147D01*
X98875853Y-138384646D01*
X98974456Y-138532216D01*
X99042376Y-138696188D01*
X99077000Y-138870259D01*
X99077000Y-139047741D01*
X99042376Y-139221812D01*
X98974456Y-139385784D01*
X98875853Y-139533354D01*
X98750354Y-139658853D01*
X98602784Y-139757456D01*
X98438812Y-139825376D01*
X98289512Y-139855073D01*
X98264742Y-139860000D01*
X98087258Y-139860000D01*
X98062488Y-139855073D01*
X97913188Y-139825376D01*
X97749216Y-139757456D01*
X97601646Y-139658853D01*
X97476147Y-139533354D01*
X97377544Y-139385784D01*
X97309624Y-139221812D01*
X97275000Y-139047741D01*
X97275000Y-138870259D01*
X97309624Y-138696188D01*
X97377544Y-138532216D01*
X97476147Y-138384646D01*
X97601646Y-138259147D01*
X97749216Y-138160544D01*
X97913188Y-138092624D01*
X98062488Y-138062927D01*
X98087258Y-138058000D01*
X98264742Y-138058000D01*
X98289512Y-138062927D01*
G37*
G36*
X95749512Y-138062927D02*
G01*
X95898812Y-138092624D01*
X96062784Y-138160544D01*
X96210354Y-138259147D01*
X96335853Y-138384646D01*
X96434456Y-138532216D01*
X96502376Y-138696188D01*
X96537000Y-138870259D01*
X96537000Y-139047741D01*
X96502376Y-139221812D01*
X96434456Y-139385784D01*
X96335853Y-139533354D01*
X96210354Y-139658853D01*
X96062784Y-139757456D01*
X95898812Y-139825376D01*
X95749512Y-139855073D01*
X95724742Y-139860000D01*
X95547258Y-139860000D01*
X95522488Y-139855073D01*
X95373188Y-139825376D01*
X95209216Y-139757456D01*
X95061646Y-139658853D01*
X94936147Y-139533354D01*
X94837544Y-139385784D01*
X94769624Y-139221812D01*
X94735000Y-139047741D01*
X94735000Y-138870259D01*
X94769624Y-138696188D01*
X94837544Y-138532216D01*
X94936147Y-138384646D01*
X95061646Y-138259147D01*
X95209216Y-138160544D01*
X95373188Y-138092624D01*
X95522488Y-138062927D01*
X95547258Y-138058000D01*
X95724742Y-138058000D01*
X95749512Y-138062927D01*
G37*
G36*
X93209512Y-138062927D02*
G01*
X93358812Y-138092624D01*
X93522784Y-138160544D01*
X93670354Y-138259147D01*
X93795853Y-138384646D01*
X93894456Y-138532216D01*
X93962376Y-138696188D01*
X93997000Y-138870259D01*
X93997000Y-139047741D01*
X93962376Y-139221812D01*
X93894456Y-139385784D01*
X93795853Y-139533354D01*
X93670354Y-139658853D01*
X93522784Y-139757456D01*
X93358812Y-139825376D01*
X93209512Y-139855073D01*
X93184742Y-139860000D01*
X93007258Y-139860000D01*
X92982488Y-139855073D01*
X92833188Y-139825376D01*
X92669216Y-139757456D01*
X92521646Y-139658853D01*
X92396147Y-139533354D01*
X92297544Y-139385784D01*
X92229624Y-139221812D01*
X92195000Y-139047741D01*
X92195000Y-138870259D01*
X92229624Y-138696188D01*
X92297544Y-138532216D01*
X92396147Y-138384646D01*
X92521646Y-138259147D01*
X92669216Y-138160544D01*
X92833188Y-138092624D01*
X92982488Y-138062927D01*
X93007258Y-138058000D01*
X93184742Y-138058000D01*
X93209512Y-138062927D01*
G37*
G36*
X90669512Y-138062927D02*
G01*
X90818812Y-138092624D01*
X90982784Y-138160544D01*
X91130354Y-138259147D01*
X91255853Y-138384646D01*
X91354456Y-138532216D01*
X91422376Y-138696188D01*
X91457000Y-138870259D01*
X91457000Y-139047741D01*
X91422376Y-139221812D01*
X91354456Y-139385784D01*
X91255853Y-139533354D01*
X91130354Y-139658853D01*
X90982784Y-139757456D01*
X90818812Y-139825376D01*
X90669512Y-139855073D01*
X90644742Y-139860000D01*
X90467258Y-139860000D01*
X90442488Y-139855073D01*
X90293188Y-139825376D01*
X90129216Y-139757456D01*
X89981646Y-139658853D01*
X89856147Y-139533354D01*
X89757544Y-139385784D01*
X89689624Y-139221812D01*
X89655000Y-139047741D01*
X89655000Y-138870259D01*
X89689624Y-138696188D01*
X89757544Y-138532216D01*
X89856147Y-138384646D01*
X89981646Y-138259147D01*
X90129216Y-138160544D01*
X90293188Y-138092624D01*
X90442488Y-138062927D01*
X90467258Y-138058000D01*
X90644742Y-138058000D01*
X90669512Y-138062927D01*
G37*
G36*
X108449512Y-138062927D02*
G01*
X108598812Y-138092624D01*
X108762784Y-138160544D01*
X108910354Y-138259147D01*
X109035853Y-138384646D01*
X109134456Y-138532216D01*
X109202376Y-138696188D01*
X109237000Y-138870259D01*
X109237000Y-139047741D01*
X109202376Y-139221812D01*
X109134456Y-139385784D01*
X109035853Y-139533354D01*
X108910354Y-139658853D01*
X108762784Y-139757456D01*
X108598812Y-139825376D01*
X108449512Y-139855073D01*
X108424742Y-139860000D01*
X108247258Y-139860000D01*
X108222488Y-139855073D01*
X108073188Y-139825376D01*
X107909216Y-139757456D01*
X107761646Y-139658853D01*
X107636147Y-139533354D01*
X107537544Y-139385784D01*
X107469624Y-139221812D01*
X107435000Y-139047741D01*
X107435000Y-138870259D01*
X107469624Y-138696188D01*
X107537544Y-138532216D01*
X107636147Y-138384646D01*
X107761646Y-138259147D01*
X107909216Y-138160544D01*
X108073188Y-138092624D01*
X108222488Y-138062927D01*
X108247258Y-138058000D01*
X108424742Y-138058000D01*
X108449512Y-138062927D01*
G37*
G36*
X88917000Y-139860000D02*
G01*
X87115000Y-139860000D01*
X87115000Y-138058000D01*
X88917000Y-138058000D01*
X88917000Y-139860000D01*
G37*
G36*
X105909512Y-138062927D02*
G01*
X106058812Y-138092624D01*
X106222784Y-138160544D01*
X106370354Y-138259147D01*
X106495853Y-138384646D01*
X106594456Y-138532216D01*
X106662376Y-138696188D01*
X106697000Y-138870259D01*
X106697000Y-139047741D01*
X106662376Y-139221812D01*
X106594456Y-139385784D01*
X106495853Y-139533354D01*
X106370354Y-139658853D01*
X106222784Y-139757456D01*
X106058812Y-139825376D01*
X105909512Y-139855073D01*
X105884742Y-139860000D01*
X105707258Y-139860000D01*
X105682488Y-139855073D01*
X105533188Y-139825376D01*
X105369216Y-139757456D01*
X105221646Y-139658853D01*
X105096147Y-139533354D01*
X104997544Y-139385784D01*
X104929624Y-139221812D01*
X104895000Y-139047741D01*
X104895000Y-138870259D01*
X104929624Y-138696188D01*
X104997544Y-138532216D01*
X105096147Y-138384646D01*
X105221646Y-138259147D01*
X105369216Y-138160544D01*
X105533188Y-138092624D01*
X105682488Y-138062927D01*
X105707258Y-138058000D01*
X105884742Y-138058000D01*
X105909512Y-138062927D01*
G37*
G36*
X213699512Y-137587927D02*
G01*
X213848812Y-137617624D01*
X214012784Y-137685544D01*
X214160354Y-137784147D01*
X214285853Y-137909646D01*
X214384456Y-138057216D01*
X214452376Y-138221188D01*
X214487000Y-138395259D01*
X214487000Y-138572741D01*
X214452376Y-138746812D01*
X214384456Y-138910784D01*
X214285853Y-139058354D01*
X214160354Y-139183853D01*
X214012784Y-139282456D01*
X213848812Y-139350376D01*
X213699512Y-139380073D01*
X213674742Y-139385000D01*
X213497258Y-139385000D01*
X213472488Y-139380073D01*
X213323188Y-139350376D01*
X213159216Y-139282456D01*
X213011646Y-139183853D01*
X212886147Y-139058354D01*
X212787544Y-138910784D01*
X212719624Y-138746812D01*
X212685000Y-138572741D01*
X212685000Y-138395259D01*
X212719624Y-138221188D01*
X212787544Y-138057216D01*
X212886147Y-137909646D01*
X213011646Y-137784147D01*
X213159216Y-137685544D01*
X213323188Y-137617624D01*
X213472488Y-137587927D01*
X213497258Y-137583000D01*
X213674742Y-137583000D01*
X213699512Y-137587927D01*
G37*
G36*
X216239512Y-137587927D02*
G01*
X216388812Y-137617624D01*
X216552784Y-137685544D01*
X216700354Y-137784147D01*
X216825853Y-137909646D01*
X216924456Y-138057216D01*
X216992376Y-138221188D01*
X217027000Y-138395259D01*
X217027000Y-138572741D01*
X216992376Y-138746812D01*
X216924456Y-138910784D01*
X216825853Y-139058354D01*
X216700354Y-139183853D01*
X216552784Y-139282456D01*
X216388812Y-139350376D01*
X216239512Y-139380073D01*
X216214742Y-139385000D01*
X216037258Y-139385000D01*
X216012488Y-139380073D01*
X215863188Y-139350376D01*
X215699216Y-139282456D01*
X215551646Y-139183853D01*
X215426147Y-139058354D01*
X215327544Y-138910784D01*
X215259624Y-138746812D01*
X215225000Y-138572741D01*
X215225000Y-138395259D01*
X215259624Y-138221188D01*
X215327544Y-138057216D01*
X215426147Y-137909646D01*
X215551646Y-137784147D01*
X215699216Y-137685544D01*
X215863188Y-137617624D01*
X216012488Y-137587927D01*
X216037258Y-137583000D01*
X216214742Y-137583000D01*
X216239512Y-137587927D01*
G37*
G36*
X219567000Y-139385000D02*
G01*
X217765000Y-139385000D01*
X217765000Y-137583000D01*
X219567000Y-137583000D01*
X219567000Y-139385000D01*
G37*
G36*
X208814228Y-137681703D02*
G01*
X208969100Y-137745853D01*
X209108481Y-137838985D01*
X209227015Y-137957519D01*
X209320147Y-138096900D01*
X209384297Y-138251772D01*
X209417000Y-138416184D01*
X209417000Y-138583816D01*
X209384297Y-138748228D01*
X209320147Y-138903100D01*
X209227015Y-139042481D01*
X209108481Y-139161015D01*
X208969100Y-139254147D01*
X208814228Y-139318297D01*
X208649816Y-139351000D01*
X208482184Y-139351000D01*
X208317772Y-139318297D01*
X208162900Y-139254147D01*
X208023519Y-139161015D01*
X207904985Y-139042481D01*
X207811853Y-138903100D01*
X207747703Y-138748228D01*
X207715000Y-138583816D01*
X207715000Y-138416184D01*
X207747703Y-138251772D01*
X207811853Y-138096900D01*
X207904985Y-137957519D01*
X208023519Y-137838985D01*
X208162900Y-137745853D01*
X208317772Y-137681703D01*
X208482184Y-137649000D01*
X208649816Y-137649000D01*
X208814228Y-137681703D01*
G37*
G36*
X197014228Y-137681703D02*
G01*
X197169100Y-137745853D01*
X197308481Y-137838985D01*
X197427015Y-137957519D01*
X197520147Y-138096900D01*
X197584297Y-138251772D01*
X197617000Y-138416184D01*
X197617000Y-138583816D01*
X197584297Y-138748228D01*
X197520147Y-138903100D01*
X197427015Y-139042481D01*
X197308481Y-139161015D01*
X197169100Y-139254147D01*
X197014228Y-139318297D01*
X196849816Y-139351000D01*
X196682184Y-139351000D01*
X196517772Y-139318297D01*
X196362900Y-139254147D01*
X196223519Y-139161015D01*
X196104985Y-139042481D01*
X196011853Y-138903100D01*
X195947703Y-138748228D01*
X195915000Y-138583816D01*
X195915000Y-138416184D01*
X195947703Y-138251772D01*
X196011853Y-138096900D01*
X196104985Y-137957519D01*
X196223519Y-137838985D01*
X196362900Y-137745853D01*
X196517772Y-137681703D01*
X196682184Y-137649000D01*
X196849816Y-137649000D01*
X197014228Y-137681703D01*
G37*
G36*
X192014228Y-137681703D02*
G01*
X192169100Y-137745853D01*
X192308481Y-137838985D01*
X192427015Y-137957519D01*
X192520147Y-138096900D01*
X192584297Y-138251772D01*
X192617000Y-138416184D01*
X192617000Y-138583816D01*
X192584297Y-138748228D01*
X192520147Y-138903100D01*
X192427015Y-139042481D01*
X192308481Y-139161015D01*
X192169100Y-139254147D01*
X192014228Y-139318297D01*
X191849816Y-139351000D01*
X191682184Y-139351000D01*
X191517772Y-139318297D01*
X191362900Y-139254147D01*
X191223519Y-139161015D01*
X191104985Y-139042481D01*
X191011853Y-138903100D01*
X190947703Y-138748228D01*
X190915000Y-138583816D01*
X190915000Y-138416184D01*
X190947703Y-138251772D01*
X191011853Y-138096900D01*
X191104985Y-137957519D01*
X191223519Y-137838985D01*
X191362900Y-137745853D01*
X191517772Y-137681703D01*
X191682184Y-137649000D01*
X191849816Y-137649000D01*
X192014228Y-137681703D01*
G37*
G36*
X203814228Y-137681703D02*
G01*
X203969100Y-137745853D01*
X204108481Y-137838985D01*
X204227015Y-137957519D01*
X204320147Y-138096900D01*
X204384297Y-138251772D01*
X204417000Y-138416184D01*
X204417000Y-138583816D01*
X204384297Y-138748228D01*
X204320147Y-138903100D01*
X204227015Y-139042481D01*
X204108481Y-139161015D01*
X203969100Y-139254147D01*
X203814228Y-139318297D01*
X203649816Y-139351000D01*
X203482184Y-139351000D01*
X203317772Y-139318297D01*
X203162900Y-139254147D01*
X203023519Y-139161015D01*
X202904985Y-139042481D01*
X202811853Y-138903100D01*
X202747703Y-138748228D01*
X202715000Y-138583816D01*
X202715000Y-138416184D01*
X202747703Y-138251772D01*
X202811853Y-138096900D01*
X202904985Y-137957519D01*
X203023519Y-137838985D01*
X203162900Y-137745853D01*
X203317772Y-137681703D01*
X203482184Y-137649000D01*
X203649816Y-137649000D01*
X203814228Y-137681703D01*
G37*
G36*
X185414228Y-137681703D02*
G01*
X185569100Y-137745853D01*
X185708481Y-137838985D01*
X185827015Y-137957519D01*
X185920147Y-138096900D01*
X185984297Y-138251772D01*
X186017000Y-138416184D01*
X186017000Y-138583816D01*
X185984297Y-138748228D01*
X185920147Y-138903100D01*
X185827015Y-139042481D01*
X185708481Y-139161015D01*
X185569100Y-139254147D01*
X185414228Y-139318297D01*
X185249816Y-139351000D01*
X185082184Y-139351000D01*
X184917772Y-139318297D01*
X184762900Y-139254147D01*
X184623519Y-139161015D01*
X184504985Y-139042481D01*
X184411853Y-138903100D01*
X184347703Y-138748228D01*
X184315000Y-138583816D01*
X184315000Y-138416184D01*
X184347703Y-138251772D01*
X184411853Y-138096900D01*
X184504985Y-137957519D01*
X184623519Y-137838985D01*
X184762900Y-137745853D01*
X184917772Y-137681703D01*
X185082184Y-137649000D01*
X185249816Y-137649000D01*
X185414228Y-137681703D01*
G37*
G36*
X180414228Y-137681703D02*
G01*
X180569100Y-137745853D01*
X180708481Y-137838985D01*
X180827015Y-137957519D01*
X180920147Y-138096900D01*
X180984297Y-138251772D01*
X181017000Y-138416184D01*
X181017000Y-138583816D01*
X180984297Y-138748228D01*
X180920147Y-138903100D01*
X180827015Y-139042481D01*
X180708481Y-139161015D01*
X180569100Y-139254147D01*
X180414228Y-139318297D01*
X180249816Y-139351000D01*
X180082184Y-139351000D01*
X179917772Y-139318297D01*
X179762900Y-139254147D01*
X179623519Y-139161015D01*
X179504985Y-139042481D01*
X179411853Y-138903100D01*
X179347703Y-138748228D01*
X179315000Y-138583816D01*
X179315000Y-138416184D01*
X179347703Y-138251772D01*
X179411853Y-138096900D01*
X179504985Y-137957519D01*
X179623519Y-137838985D01*
X179762900Y-137745853D01*
X179917772Y-137681703D01*
X180082184Y-137649000D01*
X180249816Y-137649000D01*
X180414228Y-137681703D01*
G37*
G36*
X95749512Y-135522927D02*
G01*
X95898812Y-135552624D01*
X96062784Y-135620544D01*
X96210354Y-135719147D01*
X96335853Y-135844646D01*
X96434456Y-135992216D01*
X96502376Y-136156188D01*
X96537000Y-136330259D01*
X96537000Y-136507741D01*
X96502376Y-136681812D01*
X96434456Y-136845784D01*
X96335853Y-136993354D01*
X96210354Y-137118853D01*
X96062784Y-137217456D01*
X95898812Y-137285376D01*
X95749512Y-137315073D01*
X95724742Y-137320000D01*
X95547258Y-137320000D01*
X95522488Y-137315073D01*
X95373188Y-137285376D01*
X95209216Y-137217456D01*
X95061646Y-137118853D01*
X94936147Y-136993354D01*
X94837544Y-136845784D01*
X94769624Y-136681812D01*
X94735000Y-136507741D01*
X94735000Y-136330259D01*
X94769624Y-136156188D01*
X94837544Y-135992216D01*
X94936147Y-135844646D01*
X95061646Y-135719147D01*
X95209216Y-135620544D01*
X95373188Y-135552624D01*
X95522488Y-135522927D01*
X95547258Y-135518000D01*
X95724742Y-135518000D01*
X95749512Y-135522927D01*
G37*
G36*
X88129512Y-135522927D02*
G01*
X88278812Y-135552624D01*
X88442784Y-135620544D01*
X88590354Y-135719147D01*
X88715853Y-135844646D01*
X88814456Y-135992216D01*
X88882376Y-136156188D01*
X88917000Y-136330259D01*
X88917000Y-136507741D01*
X88882376Y-136681812D01*
X88814456Y-136845784D01*
X88715853Y-136993354D01*
X88590354Y-137118853D01*
X88442784Y-137217456D01*
X88278812Y-137285376D01*
X88129512Y-137315073D01*
X88104742Y-137320000D01*
X87927258Y-137320000D01*
X87902488Y-137315073D01*
X87753188Y-137285376D01*
X87589216Y-137217456D01*
X87441646Y-137118853D01*
X87316147Y-136993354D01*
X87217544Y-136845784D01*
X87149624Y-136681812D01*
X87115000Y-136507741D01*
X87115000Y-136330259D01*
X87149624Y-136156188D01*
X87217544Y-135992216D01*
X87316147Y-135844646D01*
X87441646Y-135719147D01*
X87589216Y-135620544D01*
X87753188Y-135552624D01*
X87902488Y-135522927D01*
X87927258Y-135518000D01*
X88104742Y-135518000D01*
X88129512Y-135522927D01*
G37*
G36*
X90669512Y-135522927D02*
G01*
X90818812Y-135552624D01*
X90982784Y-135620544D01*
X91130354Y-135719147D01*
X91255853Y-135844646D01*
X91354456Y-135992216D01*
X91422376Y-136156188D01*
X91457000Y-136330259D01*
X91457000Y-136507741D01*
X91422376Y-136681812D01*
X91354456Y-136845784D01*
X91255853Y-136993354D01*
X91130354Y-137118853D01*
X90982784Y-137217456D01*
X90818812Y-137285376D01*
X90669512Y-137315073D01*
X90644742Y-137320000D01*
X90467258Y-137320000D01*
X90442488Y-137315073D01*
X90293188Y-137285376D01*
X90129216Y-137217456D01*
X89981646Y-137118853D01*
X89856147Y-136993354D01*
X89757544Y-136845784D01*
X89689624Y-136681812D01*
X89655000Y-136507741D01*
X89655000Y-136330259D01*
X89689624Y-136156188D01*
X89757544Y-135992216D01*
X89856147Y-135844646D01*
X89981646Y-135719147D01*
X90129216Y-135620544D01*
X90293188Y-135552624D01*
X90442488Y-135522927D01*
X90467258Y-135518000D01*
X90644742Y-135518000D01*
X90669512Y-135522927D01*
G37*
G36*
X93209512Y-135522927D02*
G01*
X93358812Y-135552624D01*
X93522784Y-135620544D01*
X93670354Y-135719147D01*
X93795853Y-135844646D01*
X93894456Y-135992216D01*
X93962376Y-136156188D01*
X93997000Y-136330259D01*
X93997000Y-136507741D01*
X93962376Y-136681812D01*
X93894456Y-136845784D01*
X93795853Y-136993354D01*
X93670354Y-137118853D01*
X93522784Y-137217456D01*
X93358812Y-137285376D01*
X93209512Y-137315073D01*
X93184742Y-137320000D01*
X93007258Y-137320000D01*
X92982488Y-137315073D01*
X92833188Y-137285376D01*
X92669216Y-137217456D01*
X92521646Y-137118853D01*
X92396147Y-136993354D01*
X92297544Y-136845784D01*
X92229624Y-136681812D01*
X92195000Y-136507741D01*
X92195000Y-136330259D01*
X92229624Y-136156188D01*
X92297544Y-135992216D01*
X92396147Y-135844646D01*
X92521646Y-135719147D01*
X92669216Y-135620544D01*
X92833188Y-135552624D01*
X92982488Y-135522927D01*
X93007258Y-135518000D01*
X93184742Y-135518000D01*
X93209512Y-135522927D01*
G37*
G36*
X98289512Y-135522927D02*
G01*
X98438812Y-135552624D01*
X98602784Y-135620544D01*
X98750354Y-135719147D01*
X98875853Y-135844646D01*
X98974456Y-135992216D01*
X99042376Y-136156188D01*
X99077000Y-136330259D01*
X99077000Y-136507741D01*
X99042376Y-136681812D01*
X98974456Y-136845784D01*
X98875853Y-136993354D01*
X98750354Y-137118853D01*
X98602784Y-137217456D01*
X98438812Y-137285376D01*
X98289512Y-137315073D01*
X98264742Y-137320000D01*
X98087258Y-137320000D01*
X98062488Y-137315073D01*
X97913188Y-137285376D01*
X97749216Y-137217456D01*
X97601646Y-137118853D01*
X97476147Y-136993354D01*
X97377544Y-136845784D01*
X97309624Y-136681812D01*
X97275000Y-136507741D01*
X97275000Y-136330259D01*
X97309624Y-136156188D01*
X97377544Y-135992216D01*
X97476147Y-135844646D01*
X97601646Y-135719147D01*
X97749216Y-135620544D01*
X97913188Y-135552624D01*
X98062488Y-135522927D01*
X98087258Y-135518000D01*
X98264742Y-135518000D01*
X98289512Y-135522927D01*
G37*
G36*
X100829512Y-135522927D02*
G01*
X100978812Y-135552624D01*
X101142784Y-135620544D01*
X101290354Y-135719147D01*
X101415853Y-135844646D01*
X101514456Y-135992216D01*
X101582376Y-136156188D01*
X101617000Y-136330259D01*
X101617000Y-136507741D01*
X101582376Y-136681812D01*
X101514456Y-136845784D01*
X101415853Y-136993354D01*
X101290354Y-137118853D01*
X101142784Y-137217456D01*
X100978812Y-137285376D01*
X100829512Y-137315073D01*
X100804742Y-137320000D01*
X100627258Y-137320000D01*
X100602488Y-137315073D01*
X100453188Y-137285376D01*
X100289216Y-137217456D01*
X100141646Y-137118853D01*
X100016147Y-136993354D01*
X99917544Y-136845784D01*
X99849624Y-136681812D01*
X99815000Y-136507741D01*
X99815000Y-136330259D01*
X99849624Y-136156188D01*
X99917544Y-135992216D01*
X100016147Y-135844646D01*
X100141646Y-135719147D01*
X100289216Y-135620544D01*
X100453188Y-135552624D01*
X100602488Y-135522927D01*
X100627258Y-135518000D01*
X100804742Y-135518000D01*
X100829512Y-135522927D01*
G37*
G36*
X103369512Y-135522927D02*
G01*
X103518812Y-135552624D01*
X103682784Y-135620544D01*
X103830354Y-135719147D01*
X103955853Y-135844646D01*
X104054456Y-135992216D01*
X104122376Y-136156188D01*
X104157000Y-136330259D01*
X104157000Y-136507741D01*
X104122376Y-136681812D01*
X104054456Y-136845784D01*
X103955853Y-136993354D01*
X103830354Y-137118853D01*
X103682784Y-137217456D01*
X103518812Y-137285376D01*
X103369512Y-137315073D01*
X103344742Y-137320000D01*
X103167258Y-137320000D01*
X103142488Y-137315073D01*
X102993188Y-137285376D01*
X102829216Y-137217456D01*
X102681646Y-137118853D01*
X102556147Y-136993354D01*
X102457544Y-136845784D01*
X102389624Y-136681812D01*
X102355000Y-136507741D01*
X102355000Y-136330259D01*
X102389624Y-136156188D01*
X102457544Y-135992216D01*
X102556147Y-135844646D01*
X102681646Y-135719147D01*
X102829216Y-135620544D01*
X102993188Y-135552624D01*
X103142488Y-135522927D01*
X103167258Y-135518000D01*
X103344742Y-135518000D01*
X103369512Y-135522927D01*
G37*
G36*
X105909512Y-135522927D02*
G01*
X106058812Y-135552624D01*
X106222784Y-135620544D01*
X106370354Y-135719147D01*
X106495853Y-135844646D01*
X106594456Y-135992216D01*
X106662376Y-136156188D01*
X106697000Y-136330259D01*
X106697000Y-136507741D01*
X106662376Y-136681812D01*
X106594456Y-136845784D01*
X106495853Y-136993354D01*
X106370354Y-137118853D01*
X106222784Y-137217456D01*
X106058812Y-137285376D01*
X105909512Y-137315073D01*
X105884742Y-137320000D01*
X105707258Y-137320000D01*
X105682488Y-137315073D01*
X105533188Y-137285376D01*
X105369216Y-137217456D01*
X105221646Y-137118853D01*
X105096147Y-136993354D01*
X104997544Y-136845784D01*
X104929624Y-136681812D01*
X104895000Y-136507741D01*
X104895000Y-136330259D01*
X104929624Y-136156188D01*
X104997544Y-135992216D01*
X105096147Y-135844646D01*
X105221646Y-135719147D01*
X105369216Y-135620544D01*
X105533188Y-135552624D01*
X105682488Y-135522927D01*
X105707258Y-135518000D01*
X105884742Y-135518000D01*
X105909512Y-135522927D01*
G37*
G36*
X110989512Y-135522927D02*
G01*
X111138812Y-135552624D01*
X111302784Y-135620544D01*
X111450354Y-135719147D01*
X111575853Y-135844646D01*
X111674456Y-135992216D01*
X111742376Y-136156188D01*
X111777000Y-136330259D01*
X111777000Y-136507741D01*
X111742376Y-136681812D01*
X111674456Y-136845784D01*
X111575853Y-136993354D01*
X111450354Y-137118853D01*
X111302784Y-137217456D01*
X111138812Y-137285376D01*
X110989512Y-137315073D01*
X110964742Y-137320000D01*
X110787258Y-137320000D01*
X110762488Y-137315073D01*
X110613188Y-137285376D01*
X110449216Y-137217456D01*
X110301646Y-137118853D01*
X110176147Y-136993354D01*
X110077544Y-136845784D01*
X110009624Y-136681812D01*
X109975000Y-136507741D01*
X109975000Y-136330259D01*
X110009624Y-136156188D01*
X110077544Y-135992216D01*
X110176147Y-135844646D01*
X110301646Y-135719147D01*
X110449216Y-135620544D01*
X110613188Y-135552624D01*
X110762488Y-135522927D01*
X110787258Y-135518000D01*
X110964742Y-135518000D01*
X110989512Y-135522927D01*
G37*
G36*
X108449512Y-135522927D02*
G01*
X108598812Y-135552624D01*
X108762784Y-135620544D01*
X108910354Y-135719147D01*
X109035853Y-135844646D01*
X109134456Y-135992216D01*
X109202376Y-136156188D01*
X109237000Y-136330259D01*
X109237000Y-136507741D01*
X109202376Y-136681812D01*
X109134456Y-136845784D01*
X109035853Y-136993354D01*
X108910354Y-137118853D01*
X108762784Y-137217456D01*
X108598812Y-137285376D01*
X108449512Y-137315073D01*
X108424742Y-137320000D01*
X108247258Y-137320000D01*
X108222488Y-137315073D01*
X108073188Y-137285376D01*
X107909216Y-137217456D01*
X107761646Y-137118853D01*
X107636147Y-136993354D01*
X107537544Y-136845784D01*
X107469624Y-136681812D01*
X107435000Y-136507741D01*
X107435000Y-136330259D01*
X107469624Y-136156188D01*
X107537544Y-135992216D01*
X107636147Y-135844646D01*
X107761646Y-135719147D01*
X107909216Y-135620544D01*
X108073188Y-135552624D01*
X108222488Y-135522927D01*
X108247258Y-135518000D01*
X108424742Y-135518000D01*
X108449512Y-135522927D01*
G37*
G36*
X123689512Y-135522927D02*
G01*
X123838812Y-135552624D01*
X124002784Y-135620544D01*
X124150354Y-135719147D01*
X124275853Y-135844646D01*
X124374456Y-135992216D01*
X124442376Y-136156188D01*
X124477000Y-136330259D01*
X124477000Y-136507741D01*
X124442376Y-136681812D01*
X124374456Y-136845784D01*
X124275853Y-136993354D01*
X124150354Y-137118853D01*
X124002784Y-137217456D01*
X123838812Y-137285376D01*
X123689512Y-137315073D01*
X123664742Y-137320000D01*
X123487258Y-137320000D01*
X123462488Y-137315073D01*
X123313188Y-137285376D01*
X123149216Y-137217456D01*
X123001646Y-137118853D01*
X122876147Y-136993354D01*
X122777544Y-136845784D01*
X122709624Y-136681812D01*
X122675000Y-136507741D01*
X122675000Y-136330259D01*
X122709624Y-136156188D01*
X122777544Y-135992216D01*
X122876147Y-135844646D01*
X123001646Y-135719147D01*
X123149216Y-135620544D01*
X123313188Y-135552624D01*
X123462488Y-135522927D01*
X123487258Y-135518000D01*
X123664742Y-135518000D01*
X123689512Y-135522927D01*
G37*
G36*
X121149512Y-135522927D02*
G01*
X121298812Y-135552624D01*
X121462784Y-135620544D01*
X121610354Y-135719147D01*
X121735853Y-135844646D01*
X121834456Y-135992216D01*
X121902376Y-136156188D01*
X121937000Y-136330259D01*
X121937000Y-136507741D01*
X121902376Y-136681812D01*
X121834456Y-136845784D01*
X121735853Y-136993354D01*
X121610354Y-137118853D01*
X121462784Y-137217456D01*
X121298812Y-137285376D01*
X121149512Y-137315073D01*
X121124742Y-137320000D01*
X120947258Y-137320000D01*
X120922488Y-137315073D01*
X120773188Y-137285376D01*
X120609216Y-137217456D01*
X120461646Y-137118853D01*
X120336147Y-136993354D01*
X120237544Y-136845784D01*
X120169624Y-136681812D01*
X120135000Y-136507741D01*
X120135000Y-136330259D01*
X120169624Y-136156188D01*
X120237544Y-135992216D01*
X120336147Y-135844646D01*
X120461646Y-135719147D01*
X120609216Y-135620544D01*
X120773188Y-135552624D01*
X120922488Y-135522927D01*
X120947258Y-135518000D01*
X121124742Y-135518000D01*
X121149512Y-135522927D01*
G37*
G36*
X118609512Y-135522927D02*
G01*
X118758812Y-135552624D01*
X118922784Y-135620544D01*
X119070354Y-135719147D01*
X119195853Y-135844646D01*
X119294456Y-135992216D01*
X119362376Y-136156188D01*
X119397000Y-136330259D01*
X119397000Y-136507741D01*
X119362376Y-136681812D01*
X119294456Y-136845784D01*
X119195853Y-136993354D01*
X119070354Y-137118853D01*
X118922784Y-137217456D01*
X118758812Y-137285376D01*
X118609512Y-137315073D01*
X118584742Y-137320000D01*
X118407258Y-137320000D01*
X118382488Y-137315073D01*
X118233188Y-137285376D01*
X118069216Y-137217456D01*
X117921646Y-137118853D01*
X117796147Y-136993354D01*
X117697544Y-136845784D01*
X117629624Y-136681812D01*
X117595000Y-136507741D01*
X117595000Y-136330259D01*
X117629624Y-136156188D01*
X117697544Y-135992216D01*
X117796147Y-135844646D01*
X117921646Y-135719147D01*
X118069216Y-135620544D01*
X118233188Y-135552624D01*
X118382488Y-135522927D01*
X118407258Y-135518000D01*
X118584742Y-135518000D01*
X118609512Y-135522927D01*
G37*
G36*
X128769512Y-135522927D02*
G01*
X128918812Y-135552624D01*
X129082784Y-135620544D01*
X129230354Y-135719147D01*
X129355853Y-135844646D01*
X129454456Y-135992216D01*
X129522376Y-136156188D01*
X129557000Y-136330259D01*
X129557000Y-136507741D01*
X129522376Y-136681812D01*
X129454456Y-136845784D01*
X129355853Y-136993354D01*
X129230354Y-137118853D01*
X129082784Y-137217456D01*
X128918812Y-137285376D01*
X128769512Y-137315073D01*
X128744742Y-137320000D01*
X128567258Y-137320000D01*
X128542488Y-137315073D01*
X128393188Y-137285376D01*
X128229216Y-137217456D01*
X128081646Y-137118853D01*
X127956147Y-136993354D01*
X127857544Y-136845784D01*
X127789624Y-136681812D01*
X127755000Y-136507741D01*
X127755000Y-136330259D01*
X127789624Y-136156188D01*
X127857544Y-135992216D01*
X127956147Y-135844646D01*
X128081646Y-135719147D01*
X128229216Y-135620544D01*
X128393188Y-135552624D01*
X128542488Y-135522927D01*
X128567258Y-135518000D01*
X128744742Y-135518000D01*
X128769512Y-135522927D01*
G37*
G36*
X116069512Y-135522927D02*
G01*
X116218812Y-135552624D01*
X116382784Y-135620544D01*
X116530354Y-135719147D01*
X116655853Y-135844646D01*
X116754456Y-135992216D01*
X116822376Y-136156188D01*
X116857000Y-136330259D01*
X116857000Y-136507741D01*
X116822376Y-136681812D01*
X116754456Y-136845784D01*
X116655853Y-136993354D01*
X116530354Y-137118853D01*
X116382784Y-137217456D01*
X116218812Y-137285376D01*
X116069512Y-137315073D01*
X116044742Y-137320000D01*
X115867258Y-137320000D01*
X115842488Y-137315073D01*
X115693188Y-137285376D01*
X115529216Y-137217456D01*
X115381646Y-137118853D01*
X115256147Y-136993354D01*
X115157544Y-136845784D01*
X115089624Y-136681812D01*
X115055000Y-136507741D01*
X115055000Y-136330259D01*
X115089624Y-136156188D01*
X115157544Y-135992216D01*
X115256147Y-135844646D01*
X115381646Y-135719147D01*
X115529216Y-135620544D01*
X115693188Y-135552624D01*
X115842488Y-135522927D01*
X115867258Y-135518000D01*
X116044742Y-135518000D01*
X116069512Y-135522927D01*
G37*
G36*
X113529512Y-135522927D02*
G01*
X113678812Y-135552624D01*
X113842784Y-135620544D01*
X113990354Y-135719147D01*
X114115853Y-135844646D01*
X114214456Y-135992216D01*
X114282376Y-136156188D01*
X114317000Y-136330259D01*
X114317000Y-136507741D01*
X114282376Y-136681812D01*
X114214456Y-136845784D01*
X114115853Y-136993354D01*
X113990354Y-137118853D01*
X113842784Y-137217456D01*
X113678812Y-137285376D01*
X113529512Y-137315073D01*
X113504742Y-137320000D01*
X113327258Y-137320000D01*
X113302488Y-137315073D01*
X113153188Y-137285376D01*
X112989216Y-137217456D01*
X112841646Y-137118853D01*
X112716147Y-136993354D01*
X112617544Y-136845784D01*
X112549624Y-136681812D01*
X112515000Y-136507741D01*
X112515000Y-136330259D01*
X112549624Y-136156188D01*
X112617544Y-135992216D01*
X112716147Y-135844646D01*
X112841646Y-135719147D01*
X112989216Y-135620544D01*
X113153188Y-135552624D01*
X113302488Y-135522927D01*
X113327258Y-135518000D01*
X113504742Y-135518000D01*
X113529512Y-135522927D01*
G37*
G36*
X126229512Y-135522927D02*
G01*
X126378812Y-135552624D01*
X126542784Y-135620544D01*
X126690354Y-135719147D01*
X126815853Y-135844646D01*
X126914456Y-135992216D01*
X126982376Y-136156188D01*
X127017000Y-136330259D01*
X127017000Y-136507741D01*
X126982376Y-136681812D01*
X126914456Y-136845784D01*
X126815853Y-136993354D01*
X126690354Y-137118853D01*
X126542784Y-137217456D01*
X126378812Y-137285376D01*
X126229512Y-137315073D01*
X126204742Y-137320000D01*
X126027258Y-137320000D01*
X126002488Y-137315073D01*
X125853188Y-137285376D01*
X125689216Y-137217456D01*
X125541646Y-137118853D01*
X125416147Y-136993354D01*
X125317544Y-136845784D01*
X125249624Y-136681812D01*
X125215000Y-136507741D01*
X125215000Y-136330259D01*
X125249624Y-136156188D01*
X125317544Y-135992216D01*
X125416147Y-135844646D01*
X125541646Y-135719147D01*
X125689216Y-135620544D01*
X125853188Y-135552624D01*
X126002488Y-135522927D01*
X126027258Y-135518000D01*
X126204742Y-135518000D01*
X126229512Y-135522927D01*
G37*
G36*
X77269512Y-129072927D02*
G01*
X77418812Y-129102624D01*
X77582784Y-129170544D01*
X77730354Y-129269147D01*
X77855853Y-129394646D01*
X77954456Y-129542216D01*
X78022376Y-129706188D01*
X78057000Y-129880259D01*
X78057000Y-130057741D01*
X78022376Y-130231812D01*
X77954456Y-130395784D01*
X77855853Y-130543354D01*
X77730354Y-130668853D01*
X77582784Y-130767456D01*
X77418812Y-130835376D01*
X77269512Y-130865073D01*
X77244742Y-130870000D01*
X77067258Y-130870000D01*
X77042488Y-130865073D01*
X76893188Y-130835376D01*
X76729216Y-130767456D01*
X76581646Y-130668853D01*
X76456147Y-130543354D01*
X76357544Y-130395784D01*
X76289624Y-130231812D01*
X76255000Y-130057741D01*
X76255000Y-129880259D01*
X76289624Y-129706188D01*
X76357544Y-129542216D01*
X76456147Y-129394646D01*
X76581646Y-129269147D01*
X76729216Y-129170544D01*
X76893188Y-129102624D01*
X77042488Y-129072927D01*
X77067258Y-129068000D01*
X77244742Y-129068000D01*
X77269512Y-129072927D01*
G37*
G36*
X74729512Y-129072927D02*
G01*
X74878812Y-129102624D01*
X75042784Y-129170544D01*
X75190354Y-129269147D01*
X75315853Y-129394646D01*
X75414456Y-129542216D01*
X75482376Y-129706188D01*
X75517000Y-129880259D01*
X75517000Y-130057741D01*
X75482376Y-130231812D01*
X75414456Y-130395784D01*
X75315853Y-130543354D01*
X75190354Y-130668853D01*
X75042784Y-130767456D01*
X74878812Y-130835376D01*
X74729512Y-130865073D01*
X74704742Y-130870000D01*
X74527258Y-130870000D01*
X74502488Y-130865073D01*
X74353188Y-130835376D01*
X74189216Y-130767456D01*
X74041646Y-130668853D01*
X73916147Y-130543354D01*
X73817544Y-130395784D01*
X73749624Y-130231812D01*
X73715000Y-130057741D01*
X73715000Y-129880259D01*
X73749624Y-129706188D01*
X73817544Y-129542216D01*
X73916147Y-129394646D01*
X74041646Y-129269147D01*
X74189216Y-129170544D01*
X74353188Y-129102624D01*
X74502488Y-129072927D01*
X74527258Y-129068000D01*
X74704742Y-129068000D01*
X74729512Y-129072927D01*
G37*
G36*
X185114228Y-129181703D02*
G01*
X185269100Y-129245853D01*
X185408481Y-129338985D01*
X185527015Y-129457519D01*
X185620147Y-129596900D01*
X185684297Y-129751772D01*
X185717000Y-129916184D01*
X185717000Y-130083816D01*
X185684297Y-130248228D01*
X185620147Y-130403100D01*
X185527015Y-130542481D01*
X185408481Y-130661015D01*
X185269100Y-130754147D01*
X185114228Y-130818297D01*
X184949816Y-130851000D01*
X184782184Y-130851000D01*
X184617772Y-130818297D01*
X184462900Y-130754147D01*
X184323519Y-130661015D01*
X184204985Y-130542481D01*
X184111853Y-130403100D01*
X184047703Y-130248228D01*
X184015000Y-130083816D01*
X184015000Y-129916184D01*
X184047703Y-129751772D01*
X184111853Y-129596900D01*
X184204985Y-129457519D01*
X184323519Y-129338985D01*
X184462900Y-129245853D01*
X184617772Y-129181703D01*
X184782184Y-129149000D01*
X184949816Y-129149000D01*
X185114228Y-129181703D01*
G37*
G36*
X172014228Y-129181703D02*
G01*
X172169100Y-129245853D01*
X172308481Y-129338985D01*
X172427015Y-129457519D01*
X172520147Y-129596900D01*
X172584297Y-129751772D01*
X172617000Y-129916184D01*
X172617000Y-130083816D01*
X172584297Y-130248228D01*
X172520147Y-130403100D01*
X172427015Y-130542481D01*
X172308481Y-130661015D01*
X172169100Y-130754147D01*
X172014228Y-130818297D01*
X171849816Y-130851000D01*
X171682184Y-130851000D01*
X171517772Y-130818297D01*
X171362900Y-130754147D01*
X171223519Y-130661015D01*
X171104985Y-130542481D01*
X171011853Y-130403100D01*
X170947703Y-130248228D01*
X170915000Y-130083816D01*
X170915000Y-129916184D01*
X170947703Y-129751772D01*
X171011853Y-129596900D01*
X171104985Y-129457519D01*
X171223519Y-129338985D01*
X171362900Y-129245853D01*
X171517772Y-129181703D01*
X171682184Y-129149000D01*
X171849816Y-129149000D01*
X172014228Y-129181703D01*
G37*
G36*
X177014228Y-129181703D02*
G01*
X177169100Y-129245853D01*
X177308481Y-129338985D01*
X177427015Y-129457519D01*
X177520147Y-129596900D01*
X177584297Y-129751772D01*
X177617000Y-129916184D01*
X177617000Y-130083816D01*
X177584297Y-130248228D01*
X177520147Y-130403100D01*
X177427015Y-130542481D01*
X177308481Y-130661015D01*
X177169100Y-130754147D01*
X177014228Y-130818297D01*
X176849816Y-130851000D01*
X176682184Y-130851000D01*
X176517772Y-130818297D01*
X176362900Y-130754147D01*
X176223519Y-130661015D01*
X176104985Y-130542481D01*
X176011853Y-130403100D01*
X175947703Y-130248228D01*
X175915000Y-130083816D01*
X175915000Y-129916184D01*
X175947703Y-129751772D01*
X176011853Y-129596900D01*
X176104985Y-129457519D01*
X176223519Y-129338985D01*
X176362900Y-129245853D01*
X176517772Y-129181703D01*
X176682184Y-129149000D01*
X176849816Y-129149000D01*
X177014228Y-129181703D01*
G37*
G36*
X180114228Y-129181703D02*
G01*
X180269100Y-129245853D01*
X180408481Y-129338985D01*
X180527015Y-129457519D01*
X180620147Y-129596900D01*
X180684297Y-129751772D01*
X180717000Y-129916184D01*
X180717000Y-130083816D01*
X180684297Y-130248228D01*
X180620147Y-130403100D01*
X180527015Y-130542481D01*
X180408481Y-130661015D01*
X180269100Y-130754147D01*
X180114228Y-130818297D01*
X179949816Y-130851000D01*
X179782184Y-130851000D01*
X179617772Y-130818297D01*
X179462900Y-130754147D01*
X179323519Y-130661015D01*
X179204985Y-130542481D01*
X179111853Y-130403100D01*
X179047703Y-130248228D01*
X179015000Y-130083816D01*
X179015000Y-129916184D01*
X179047703Y-129751772D01*
X179111853Y-129596900D01*
X179204985Y-129457519D01*
X179323519Y-129338985D01*
X179462900Y-129245853D01*
X179617772Y-129181703D01*
X179782184Y-129149000D01*
X179949816Y-129149000D01*
X180114228Y-129181703D01*
G37*
G36*
X131918915Y-128491334D02*
G01*
X132027491Y-128524271D01*
X132027494Y-128524272D01*
X132063600Y-128543571D01*
X132127556Y-128577756D01*
X132215264Y-128649736D01*
X132287244Y-128737443D01*
X132321429Y-128801399D01*
X132340728Y-128837505D01*
X132340729Y-128837508D01*
X132373666Y-128946084D01*
X132382000Y-129030702D01*
X132382000Y-129537297D01*
X132373666Y-129621916D01*
X132341252Y-129728767D01*
X132340728Y-129730495D01*
X132329355Y-129751772D01*
X132287244Y-129830557D01*
X132215264Y-129918264D01*
X132127557Y-129990244D01*
X132063601Y-130024429D01*
X132027495Y-130043728D01*
X132027492Y-130043729D01*
X131918916Y-130076666D01*
X131806000Y-130087787D01*
X131693085Y-130076666D01*
X131584509Y-130043729D01*
X131584506Y-130043728D01*
X131548400Y-130024429D01*
X131484444Y-129990244D01*
X131396737Y-129918264D01*
X131324757Y-129830557D01*
X131281239Y-129749141D01*
X131267625Y-129728766D01*
X131250298Y-129711439D01*
X131229924Y-129697826D01*
X131207285Y-129688448D01*
X131183252Y-129683668D01*
X131158748Y-129683668D01*
X131134715Y-129688448D01*
X131112076Y-129697826D01*
X131091701Y-129711440D01*
X131074374Y-129728767D01*
X131060761Y-129749141D01*
X131017244Y-129830557D01*
X130945264Y-129918264D01*
X130857557Y-129990244D01*
X130793601Y-130024429D01*
X130757495Y-130043728D01*
X130757492Y-130043729D01*
X130648916Y-130076666D01*
X130536000Y-130087787D01*
X130423085Y-130076666D01*
X130314509Y-130043729D01*
X130314506Y-130043728D01*
X130278400Y-130024429D01*
X130214444Y-129990244D01*
X130126737Y-129918264D01*
X130063622Y-129841359D01*
X130046297Y-129824034D01*
X130025923Y-129810420D01*
X130003284Y-129801043D01*
X129979250Y-129796263D01*
X129954746Y-129796263D01*
X129930713Y-129801044D01*
X129908074Y-129810421D01*
X129887700Y-129824035D01*
X129870373Y-129841362D01*
X129856759Y-129861736D01*
X129847382Y-129884375D01*
X129842000Y-129920660D01*
X129842000Y-130085000D01*
X128690000Y-130085000D01*
X128690000Y-128483000D01*
X129842000Y-128483000D01*
X129842000Y-128647341D01*
X129844402Y-128671727D01*
X129851515Y-128695176D01*
X129863066Y-128716787D01*
X129878611Y-128735729D01*
X129897553Y-128751274D01*
X129919164Y-128762825D01*
X129942613Y-128769938D01*
X129966999Y-128772340D01*
X129991385Y-128769938D01*
X130014834Y-128762825D01*
X130036445Y-128751274D01*
X130055387Y-128735729D01*
X130063608Y-128726657D01*
X130126736Y-128649736D01*
X130214443Y-128577756D01*
X130278399Y-128543571D01*
X130314505Y-128524272D01*
X130314508Y-128524271D01*
X130423084Y-128491334D01*
X130536000Y-128480213D01*
X130648915Y-128491334D01*
X130757491Y-128524271D01*
X130757494Y-128524272D01*
X130793600Y-128543571D01*
X130857556Y-128577756D01*
X130945264Y-128649736D01*
X131017244Y-128737443D01*
X131060761Y-128818859D01*
X131074375Y-128839234D01*
X131091702Y-128856561D01*
X131112076Y-128870174D01*
X131134715Y-128879552D01*
X131158748Y-128884332D01*
X131183252Y-128884332D01*
X131207285Y-128879552D01*
X131229924Y-128870174D01*
X131250299Y-128856560D01*
X131267626Y-128839233D01*
X131281239Y-128818860D01*
X131324756Y-128737444D01*
X131396736Y-128649736D01*
X131484443Y-128577756D01*
X131548399Y-128543571D01*
X131584505Y-128524272D01*
X131584508Y-128524271D01*
X131693084Y-128491334D01*
X131806000Y-128480213D01*
X131918915Y-128491334D01*
G37*
G36*
X77269512Y-126532927D02*
G01*
X77418812Y-126562624D01*
X77582784Y-126630544D01*
X77730354Y-126729147D01*
X77855853Y-126854646D01*
X77954456Y-127002216D01*
X78022376Y-127166188D01*
X78057000Y-127340259D01*
X78057000Y-127517741D01*
X78022376Y-127691812D01*
X77954456Y-127855784D01*
X77855853Y-128003354D01*
X77730354Y-128128853D01*
X77582784Y-128227456D01*
X77418812Y-128295376D01*
X77269512Y-128325073D01*
X77244742Y-128330000D01*
X77067258Y-128330000D01*
X77042488Y-128325073D01*
X76893188Y-128295376D01*
X76729216Y-128227456D01*
X76581646Y-128128853D01*
X76456147Y-128003354D01*
X76357544Y-127855784D01*
X76289624Y-127691812D01*
X76255000Y-127517741D01*
X76255000Y-127340259D01*
X76289624Y-127166188D01*
X76357544Y-127002216D01*
X76456147Y-126854646D01*
X76581646Y-126729147D01*
X76729216Y-126630544D01*
X76893188Y-126562624D01*
X77042488Y-126532927D01*
X77067258Y-126528000D01*
X77244742Y-126528000D01*
X77269512Y-126532927D01*
G37*
G36*
X74729512Y-126532927D02*
G01*
X74878812Y-126562624D01*
X75042784Y-126630544D01*
X75190354Y-126729147D01*
X75315853Y-126854646D01*
X75414456Y-127002216D01*
X75482376Y-127166188D01*
X75517000Y-127340259D01*
X75517000Y-127517741D01*
X75482376Y-127691812D01*
X75414456Y-127855784D01*
X75315853Y-128003354D01*
X75190354Y-128128853D01*
X75042784Y-128227456D01*
X74878812Y-128295376D01*
X74729512Y-128325073D01*
X74704742Y-128330000D01*
X74527258Y-128330000D01*
X74502488Y-128325073D01*
X74353188Y-128295376D01*
X74189216Y-128227456D01*
X74041646Y-128128853D01*
X73916147Y-128003354D01*
X73817544Y-127855784D01*
X73749624Y-127691812D01*
X73715000Y-127517741D01*
X73715000Y-127340259D01*
X73749624Y-127166188D01*
X73817544Y-127002216D01*
X73916147Y-126854646D01*
X74041646Y-126729147D01*
X74189216Y-126630544D01*
X74353188Y-126562624D01*
X74502488Y-126532927D01*
X74527258Y-126528000D01*
X74704742Y-126528000D01*
X74729512Y-126532927D01*
G37*
G36*
X231667000Y-126185000D02*
G01*
X229865000Y-126185000D01*
X229865000Y-124383000D01*
X231667000Y-124383000D01*
X231667000Y-126185000D01*
G37*
G36*
X228339512Y-124387927D02*
G01*
X228488812Y-124417624D01*
X228652784Y-124485544D01*
X228800354Y-124584147D01*
X228925853Y-124709646D01*
X229024456Y-124857216D01*
X229092376Y-125021188D01*
X229127000Y-125195259D01*
X229127000Y-125372741D01*
X229092376Y-125546812D01*
X229024456Y-125710784D01*
X228925853Y-125858354D01*
X228800354Y-125983853D01*
X228652784Y-126082456D01*
X228488812Y-126150376D01*
X228339512Y-126180073D01*
X228314742Y-126185000D01*
X228137258Y-126185000D01*
X228112488Y-126180073D01*
X227963188Y-126150376D01*
X227799216Y-126082456D01*
X227651646Y-125983853D01*
X227526147Y-125858354D01*
X227427544Y-125710784D01*
X227359624Y-125546812D01*
X227325000Y-125372741D01*
X227325000Y-125195259D01*
X227359624Y-125021188D01*
X227427544Y-124857216D01*
X227526147Y-124709646D01*
X227651646Y-124584147D01*
X227799216Y-124485544D01*
X227963188Y-124417624D01*
X228112488Y-124387927D01*
X228137258Y-124383000D01*
X228314742Y-124383000D01*
X228339512Y-124387927D01*
G37*
G36*
X74729512Y-123992927D02*
G01*
X74878812Y-124022624D01*
X75042784Y-124090544D01*
X75190354Y-124189147D01*
X75315853Y-124314646D01*
X75414456Y-124462216D01*
X75482376Y-124626188D01*
X75517000Y-124800259D01*
X75517000Y-124977741D01*
X75482376Y-125151812D01*
X75414456Y-125315784D01*
X75315853Y-125463354D01*
X75190354Y-125588853D01*
X75042784Y-125687456D01*
X74878812Y-125755376D01*
X74729512Y-125785073D01*
X74704742Y-125790000D01*
X74527258Y-125790000D01*
X74502488Y-125785073D01*
X74353188Y-125755376D01*
X74189216Y-125687456D01*
X74041646Y-125588853D01*
X73916147Y-125463354D01*
X73817544Y-125315784D01*
X73749624Y-125151812D01*
X73715000Y-124977741D01*
X73715000Y-124800259D01*
X73749624Y-124626188D01*
X73817544Y-124462216D01*
X73916147Y-124314646D01*
X74041646Y-124189147D01*
X74189216Y-124090544D01*
X74353188Y-124022624D01*
X74502488Y-123992927D01*
X74527258Y-123988000D01*
X74704742Y-123988000D01*
X74729512Y-123992927D01*
G37*
G36*
X77269512Y-123992927D02*
G01*
X77418812Y-124022624D01*
X77582784Y-124090544D01*
X77730354Y-124189147D01*
X77855853Y-124314646D01*
X77954456Y-124462216D01*
X78022376Y-124626188D01*
X78057000Y-124800259D01*
X78057000Y-124977741D01*
X78022376Y-125151812D01*
X77954456Y-125315784D01*
X77855853Y-125463354D01*
X77730354Y-125588853D01*
X77582784Y-125687456D01*
X77418812Y-125755376D01*
X77269512Y-125785073D01*
X77244742Y-125790000D01*
X77067258Y-125790000D01*
X77042488Y-125785073D01*
X76893188Y-125755376D01*
X76729216Y-125687456D01*
X76581646Y-125588853D01*
X76456147Y-125463354D01*
X76357544Y-125315784D01*
X76289624Y-125151812D01*
X76255000Y-124977741D01*
X76255000Y-124800259D01*
X76289624Y-124626188D01*
X76357544Y-124462216D01*
X76456147Y-124314646D01*
X76581646Y-124189147D01*
X76729216Y-124090544D01*
X76893188Y-124022624D01*
X77042488Y-123992927D01*
X77067258Y-123988000D01*
X77244742Y-123988000D01*
X77269512Y-123992927D01*
G37*
G36*
X219314228Y-123265703D02*
G01*
X219469100Y-123329853D01*
X219608481Y-123422985D01*
X219727015Y-123541519D01*
X219820147Y-123680900D01*
X219884297Y-123835772D01*
X219917000Y-124000184D01*
X219917000Y-124167816D01*
X219884297Y-124332228D01*
X219820147Y-124487100D01*
X219727015Y-124626481D01*
X219608481Y-124745015D01*
X219469100Y-124838147D01*
X219314228Y-124902297D01*
X219149816Y-124935000D01*
X218982184Y-124935000D01*
X218817772Y-124902297D01*
X218662900Y-124838147D01*
X218523519Y-124745015D01*
X218404985Y-124626481D01*
X218311853Y-124487100D01*
X218247703Y-124332228D01*
X218215000Y-124167816D01*
X218215000Y-124000184D01*
X218247703Y-123835772D01*
X218311853Y-123680900D01*
X218404985Y-123541519D01*
X218523519Y-123422985D01*
X218662900Y-123329853D01*
X218817772Y-123265703D01*
X218982184Y-123233000D01*
X219149816Y-123233000D01*
X219314228Y-123265703D01*
G37*
G36*
X214314228Y-123265703D02*
G01*
X214469100Y-123329853D01*
X214608481Y-123422985D01*
X214727015Y-123541519D01*
X214820147Y-123680900D01*
X214884297Y-123835772D01*
X214917000Y-124000184D01*
X214917000Y-124167816D01*
X214884297Y-124332228D01*
X214820147Y-124487100D01*
X214727015Y-124626481D01*
X214608481Y-124745015D01*
X214469100Y-124838147D01*
X214314228Y-124902297D01*
X214149816Y-124935000D01*
X213982184Y-124935000D01*
X213817772Y-124902297D01*
X213662900Y-124838147D01*
X213523519Y-124745015D01*
X213404985Y-124626481D01*
X213311853Y-124487100D01*
X213247703Y-124332228D01*
X213215000Y-124167816D01*
X213215000Y-124000184D01*
X213247703Y-123835772D01*
X213311853Y-123680900D01*
X213404985Y-123541519D01*
X213523519Y-123422985D01*
X213662900Y-123329853D01*
X213817772Y-123265703D01*
X213982184Y-123233000D01*
X214149816Y-123233000D01*
X214314228Y-123265703D01*
G37*
G36*
X211414228Y-123265703D02*
G01*
X211569100Y-123329853D01*
X211708481Y-123422985D01*
X211827015Y-123541519D01*
X211920147Y-123680900D01*
X211984297Y-123835772D01*
X212017000Y-124000184D01*
X212017000Y-124167816D01*
X211984297Y-124332228D01*
X211920147Y-124487100D01*
X211827015Y-124626481D01*
X211708481Y-124745015D01*
X211569100Y-124838147D01*
X211414228Y-124902297D01*
X211249816Y-124935000D01*
X211082184Y-124935000D01*
X210917772Y-124902297D01*
X210762900Y-124838147D01*
X210623519Y-124745015D01*
X210504985Y-124626481D01*
X210411853Y-124487100D01*
X210347703Y-124332228D01*
X210315000Y-124167816D01*
X210315000Y-124000184D01*
X210347703Y-123835772D01*
X210411853Y-123680900D01*
X210504985Y-123541519D01*
X210623519Y-123422985D01*
X210762900Y-123329853D01*
X210917772Y-123265703D01*
X211082184Y-123233000D01*
X211249816Y-123233000D01*
X211414228Y-123265703D01*
G37*
G36*
X206414228Y-123265703D02*
G01*
X206569100Y-123329853D01*
X206708481Y-123422985D01*
X206827015Y-123541519D01*
X206920147Y-123680900D01*
X206984297Y-123835772D01*
X207017000Y-124000184D01*
X207017000Y-124167816D01*
X206984297Y-124332228D01*
X206920147Y-124487100D01*
X206827015Y-124626481D01*
X206708481Y-124745015D01*
X206569100Y-124838147D01*
X206414228Y-124902297D01*
X206249816Y-124935000D01*
X206082184Y-124935000D01*
X205917772Y-124902297D01*
X205762900Y-124838147D01*
X205623519Y-124745015D01*
X205504985Y-124626481D01*
X205411853Y-124487100D01*
X205347703Y-124332228D01*
X205315000Y-124167816D01*
X205315000Y-124000184D01*
X205347703Y-123835772D01*
X205411853Y-123680900D01*
X205504985Y-123541519D01*
X205623519Y-123422985D01*
X205762900Y-123329853D01*
X205917772Y-123265703D01*
X206082184Y-123233000D01*
X206249816Y-123233000D01*
X206414228Y-123265703D01*
G37*
G36*
X203514228Y-123265703D02*
G01*
X203669100Y-123329853D01*
X203808481Y-123422985D01*
X203927015Y-123541519D01*
X204020147Y-123680900D01*
X204084297Y-123835772D01*
X204117000Y-124000184D01*
X204117000Y-124167816D01*
X204084297Y-124332228D01*
X204020147Y-124487100D01*
X203927015Y-124626481D01*
X203808481Y-124745015D01*
X203669100Y-124838147D01*
X203514228Y-124902297D01*
X203349816Y-124935000D01*
X203182184Y-124935000D01*
X203017772Y-124902297D01*
X202862900Y-124838147D01*
X202723519Y-124745015D01*
X202604985Y-124626481D01*
X202511853Y-124487100D01*
X202447703Y-124332228D01*
X202415000Y-124167816D01*
X202415000Y-124000184D01*
X202447703Y-123835772D01*
X202511853Y-123680900D01*
X202604985Y-123541519D01*
X202723519Y-123422985D01*
X202862900Y-123329853D01*
X203017772Y-123265703D01*
X203182184Y-123233000D01*
X203349816Y-123233000D01*
X203514228Y-123265703D01*
G37*
G36*
X198514228Y-123265703D02*
G01*
X198669100Y-123329853D01*
X198808481Y-123422985D01*
X198927015Y-123541519D01*
X199020147Y-123680900D01*
X199084297Y-123835772D01*
X199117000Y-124000184D01*
X199117000Y-124167816D01*
X199084297Y-124332228D01*
X199020147Y-124487100D01*
X198927015Y-124626481D01*
X198808481Y-124745015D01*
X198669100Y-124838147D01*
X198514228Y-124902297D01*
X198349816Y-124935000D01*
X198182184Y-124935000D01*
X198017772Y-124902297D01*
X197862900Y-124838147D01*
X197723519Y-124745015D01*
X197604985Y-124626481D01*
X197511853Y-124487100D01*
X197447703Y-124332228D01*
X197415000Y-124167816D01*
X197415000Y-124000184D01*
X197447703Y-123835772D01*
X197511853Y-123680900D01*
X197604985Y-123541519D01*
X197723519Y-123422985D01*
X197862900Y-123329853D01*
X198017772Y-123265703D01*
X198182184Y-123233000D01*
X198349816Y-123233000D01*
X198514228Y-123265703D01*
G37*
G36*
X195614228Y-123265703D02*
G01*
X195769100Y-123329853D01*
X195908481Y-123422985D01*
X196027015Y-123541519D01*
X196120147Y-123680900D01*
X196184297Y-123835772D01*
X196217000Y-124000184D01*
X196217000Y-124167816D01*
X196184297Y-124332228D01*
X196120147Y-124487100D01*
X196027015Y-124626481D01*
X195908481Y-124745015D01*
X195769100Y-124838147D01*
X195614228Y-124902297D01*
X195449816Y-124935000D01*
X195282184Y-124935000D01*
X195117772Y-124902297D01*
X194962900Y-124838147D01*
X194823519Y-124745015D01*
X194704985Y-124626481D01*
X194611853Y-124487100D01*
X194547703Y-124332228D01*
X194515000Y-124167816D01*
X194515000Y-124000184D01*
X194547703Y-123835772D01*
X194611853Y-123680900D01*
X194704985Y-123541519D01*
X194823519Y-123422985D01*
X194962900Y-123329853D01*
X195117772Y-123265703D01*
X195282184Y-123233000D01*
X195449816Y-123233000D01*
X195614228Y-123265703D01*
G37*
G36*
X190614228Y-123265703D02*
G01*
X190769100Y-123329853D01*
X190908481Y-123422985D01*
X191027015Y-123541519D01*
X191120147Y-123680900D01*
X191184297Y-123835772D01*
X191217000Y-124000184D01*
X191217000Y-124167816D01*
X191184297Y-124332228D01*
X191120147Y-124487100D01*
X191027015Y-124626481D01*
X190908481Y-124745015D01*
X190769100Y-124838147D01*
X190614228Y-124902297D01*
X190449816Y-124935000D01*
X190282184Y-124935000D01*
X190117772Y-124902297D01*
X189962900Y-124838147D01*
X189823519Y-124745015D01*
X189704985Y-124626481D01*
X189611853Y-124487100D01*
X189547703Y-124332228D01*
X189515000Y-124167816D01*
X189515000Y-124000184D01*
X189547703Y-123835772D01*
X189611853Y-123680900D01*
X189704985Y-123541519D01*
X189823519Y-123422985D01*
X189962900Y-123329853D01*
X190117772Y-123265703D01*
X190282184Y-123233000D01*
X190449816Y-123233000D01*
X190614228Y-123265703D01*
G37*
G36*
X180114228Y-123229703D02*
G01*
X180269100Y-123293853D01*
X180408481Y-123386985D01*
X180527015Y-123505519D01*
X180620147Y-123644900D01*
X180684297Y-123799772D01*
X180717000Y-123964184D01*
X180717000Y-124131816D01*
X180684297Y-124296228D01*
X180620147Y-124451100D01*
X180527015Y-124590481D01*
X180408481Y-124709015D01*
X180269100Y-124802147D01*
X180114228Y-124866297D01*
X179949816Y-124899000D01*
X179782184Y-124899000D01*
X179617772Y-124866297D01*
X179462900Y-124802147D01*
X179323519Y-124709015D01*
X179204985Y-124590481D01*
X179111853Y-124451100D01*
X179047703Y-124296228D01*
X179015000Y-124131816D01*
X179015000Y-123964184D01*
X179047703Y-123799772D01*
X179111853Y-123644900D01*
X179204985Y-123505519D01*
X179323519Y-123386985D01*
X179462900Y-123293853D01*
X179617772Y-123229703D01*
X179782184Y-123197000D01*
X179949816Y-123197000D01*
X180114228Y-123229703D01*
G37*
G36*
X177014228Y-123229703D02*
G01*
X177169100Y-123293853D01*
X177308481Y-123386985D01*
X177427015Y-123505519D01*
X177520147Y-123644900D01*
X177584297Y-123799772D01*
X177617000Y-123964184D01*
X177617000Y-124131816D01*
X177584297Y-124296228D01*
X177520147Y-124451100D01*
X177427015Y-124590481D01*
X177308481Y-124709015D01*
X177169100Y-124802147D01*
X177014228Y-124866297D01*
X176849816Y-124899000D01*
X176682184Y-124899000D01*
X176517772Y-124866297D01*
X176362900Y-124802147D01*
X176223519Y-124709015D01*
X176104985Y-124590481D01*
X176011853Y-124451100D01*
X175947703Y-124296228D01*
X175915000Y-124131816D01*
X175915000Y-123964184D01*
X175947703Y-123799772D01*
X176011853Y-123644900D01*
X176104985Y-123505519D01*
X176223519Y-123386985D01*
X176362900Y-123293853D01*
X176517772Y-123229703D01*
X176682184Y-123197000D01*
X176849816Y-123197000D01*
X177014228Y-123229703D01*
G37*
G36*
X185114228Y-123229703D02*
G01*
X185269100Y-123293853D01*
X185408481Y-123386985D01*
X185527015Y-123505519D01*
X185620147Y-123644900D01*
X185684297Y-123799772D01*
X185717000Y-123964184D01*
X185717000Y-124131816D01*
X185684297Y-124296228D01*
X185620147Y-124451100D01*
X185527015Y-124590481D01*
X185408481Y-124709015D01*
X185269100Y-124802147D01*
X185114228Y-124866297D01*
X184949816Y-124899000D01*
X184782184Y-124899000D01*
X184617772Y-124866297D01*
X184462900Y-124802147D01*
X184323519Y-124709015D01*
X184204985Y-124590481D01*
X184111853Y-124451100D01*
X184047703Y-124296228D01*
X184015000Y-124131816D01*
X184015000Y-123964184D01*
X184047703Y-123799772D01*
X184111853Y-123644900D01*
X184204985Y-123505519D01*
X184323519Y-123386985D01*
X184462900Y-123293853D01*
X184617772Y-123229703D01*
X184782184Y-123197000D01*
X184949816Y-123197000D01*
X185114228Y-123229703D01*
G37*
G36*
X172014228Y-123229703D02*
G01*
X172169100Y-123293853D01*
X172308481Y-123386985D01*
X172427015Y-123505519D01*
X172520147Y-123644900D01*
X172584297Y-123799772D01*
X172617000Y-123964184D01*
X172617000Y-124131816D01*
X172584297Y-124296228D01*
X172520147Y-124451100D01*
X172427015Y-124590481D01*
X172308481Y-124709015D01*
X172169100Y-124802147D01*
X172014228Y-124866297D01*
X171849816Y-124899000D01*
X171682184Y-124899000D01*
X171517772Y-124866297D01*
X171362900Y-124802147D01*
X171223519Y-124709015D01*
X171104985Y-124590481D01*
X171011853Y-124451100D01*
X170947703Y-124296228D01*
X170915000Y-124131816D01*
X170915000Y-123964184D01*
X170947703Y-123799772D01*
X171011853Y-123644900D01*
X171104985Y-123505519D01*
X171223519Y-123386985D01*
X171362900Y-123293853D01*
X171517772Y-123229703D01*
X171682184Y-123197000D01*
X171849816Y-123197000D01*
X172014228Y-123229703D01*
G37*
G36*
X74729512Y-121452927D02*
G01*
X74878812Y-121482624D01*
X75042784Y-121550544D01*
X75190354Y-121649147D01*
X75315853Y-121774646D01*
X75414456Y-121922216D01*
X75482376Y-122086188D01*
X75517000Y-122260259D01*
X75517000Y-122437741D01*
X75482376Y-122611812D01*
X75414456Y-122775784D01*
X75315853Y-122923354D01*
X75190354Y-123048853D01*
X75042784Y-123147456D01*
X74878812Y-123215376D01*
X74729512Y-123245073D01*
X74704742Y-123250000D01*
X74527258Y-123250000D01*
X74502488Y-123245073D01*
X74353188Y-123215376D01*
X74189216Y-123147456D01*
X74041646Y-123048853D01*
X73916147Y-122923354D01*
X73817544Y-122775784D01*
X73749624Y-122611812D01*
X73715000Y-122437741D01*
X73715000Y-122260259D01*
X73749624Y-122086188D01*
X73817544Y-121922216D01*
X73916147Y-121774646D01*
X74041646Y-121649147D01*
X74189216Y-121550544D01*
X74353188Y-121482624D01*
X74502488Y-121452927D01*
X74527258Y-121448000D01*
X74704742Y-121448000D01*
X74729512Y-121452927D01*
G37*
G36*
X77269512Y-121452927D02*
G01*
X77418812Y-121482624D01*
X77582784Y-121550544D01*
X77730354Y-121649147D01*
X77855853Y-121774646D01*
X77954456Y-121922216D01*
X78022376Y-122086188D01*
X78057000Y-122260259D01*
X78057000Y-122437741D01*
X78022376Y-122611812D01*
X77954456Y-122775784D01*
X77855853Y-122923354D01*
X77730354Y-123048853D01*
X77582784Y-123147456D01*
X77418812Y-123215376D01*
X77269512Y-123245073D01*
X77244742Y-123250000D01*
X77067258Y-123250000D01*
X77042488Y-123245073D01*
X76893188Y-123215376D01*
X76729216Y-123147456D01*
X76581646Y-123048853D01*
X76456147Y-122923354D01*
X76357544Y-122775784D01*
X76289624Y-122611812D01*
X76255000Y-122437741D01*
X76255000Y-122260259D01*
X76289624Y-122086188D01*
X76357544Y-121922216D01*
X76456147Y-121774646D01*
X76581646Y-121649147D01*
X76729216Y-121550544D01*
X76893188Y-121482624D01*
X77042488Y-121452927D01*
X77067258Y-121448000D01*
X77244742Y-121448000D01*
X77269512Y-121452927D01*
G37*
G36*
X120053395Y-120194546D02*
G01*
X120226466Y-120266234D01*
X120303818Y-120317919D01*
X120382227Y-120370310D01*
X120514690Y-120502773D01*
X120567081Y-120581182D01*
X120618766Y-120658534D01*
X120690454Y-120831605D01*
X120727000Y-121015333D01*
X120727000Y-121202667D01*
X120690454Y-121386395D01*
X120618766Y-121559466D01*
X120618765Y-121559467D01*
X120514690Y-121715227D01*
X120382227Y-121847690D01*
X120303818Y-121900081D01*
X120226466Y-121951766D01*
X120053395Y-122023454D01*
X119869667Y-122060000D01*
X119682333Y-122060000D01*
X119498605Y-122023454D01*
X119325534Y-121951766D01*
X119248182Y-121900081D01*
X119169773Y-121847690D01*
X119037310Y-121715227D01*
X118933235Y-121559467D01*
X118933234Y-121559466D01*
X118861546Y-121386395D01*
X118825000Y-121202667D01*
X118825000Y-121015333D01*
X118861546Y-120831605D01*
X118933234Y-120658534D01*
X118984919Y-120581182D01*
X119037310Y-120502773D01*
X119169773Y-120370310D01*
X119248182Y-120317919D01*
X119325534Y-120266234D01*
X119498605Y-120194546D01*
X119682333Y-120158000D01*
X119869667Y-120158000D01*
X120053395Y-120194546D01*
G37*
G36*
X123267000Y-122060000D02*
G01*
X121365000Y-122060000D01*
X121365000Y-120158000D01*
X123267000Y-120158000D01*
X123267000Y-122060000D01*
G37*
G36*
X77269512Y-118912927D02*
G01*
X77418812Y-118942624D01*
X77582784Y-119010544D01*
X77730354Y-119109147D01*
X77855853Y-119234646D01*
X77954456Y-119382216D01*
X78022376Y-119546188D01*
X78057000Y-119720259D01*
X78057000Y-119897741D01*
X78022376Y-120071812D01*
X77954456Y-120235784D01*
X77855853Y-120383354D01*
X77730354Y-120508853D01*
X77582784Y-120607456D01*
X77418812Y-120675376D01*
X77269512Y-120705073D01*
X77244742Y-120710000D01*
X77067258Y-120710000D01*
X77042488Y-120705073D01*
X76893188Y-120675376D01*
X76729216Y-120607456D01*
X76581646Y-120508853D01*
X76456147Y-120383354D01*
X76357544Y-120235784D01*
X76289624Y-120071812D01*
X76255000Y-119897741D01*
X76255000Y-119720259D01*
X76289624Y-119546188D01*
X76357544Y-119382216D01*
X76456147Y-119234646D01*
X76581646Y-119109147D01*
X76729216Y-119010544D01*
X76893188Y-118942624D01*
X77042488Y-118912927D01*
X77067258Y-118908000D01*
X77244742Y-118908000D01*
X77269512Y-118912927D01*
G37*
G36*
X75517000Y-120710000D02*
G01*
X73715000Y-120710000D01*
X73715000Y-118908000D01*
X75517000Y-118908000D01*
X75517000Y-120710000D01*
G37*
G36*
X198017000Y-120485000D02*
G01*
X196215000Y-120485000D01*
X196215000Y-118683000D01*
X198017000Y-118683000D01*
X198017000Y-120485000D01*
G37*
G36*
X207389512Y-118687927D02*
G01*
X207538812Y-118717624D01*
X207702784Y-118785544D01*
X207850354Y-118884147D01*
X207975853Y-119009646D01*
X208074456Y-119157216D01*
X208142376Y-119321188D01*
X208177000Y-119495259D01*
X208177000Y-119672741D01*
X208142376Y-119846812D01*
X208074456Y-120010784D01*
X207975853Y-120158354D01*
X207850354Y-120283853D01*
X207702784Y-120382456D01*
X207538812Y-120450376D01*
X207389512Y-120480073D01*
X207364742Y-120485000D01*
X207187258Y-120485000D01*
X207162488Y-120480073D01*
X207013188Y-120450376D01*
X206849216Y-120382456D01*
X206701646Y-120283853D01*
X206576147Y-120158354D01*
X206477544Y-120010784D01*
X206409624Y-119846812D01*
X206375000Y-119672741D01*
X206375000Y-119495259D01*
X206409624Y-119321188D01*
X206477544Y-119157216D01*
X206576147Y-119009646D01*
X206701646Y-118884147D01*
X206849216Y-118785544D01*
X207013188Y-118717624D01*
X207162488Y-118687927D01*
X207187258Y-118683000D01*
X207364742Y-118683000D01*
X207389512Y-118687927D01*
G37*
G36*
X202309512Y-118687927D02*
G01*
X202458812Y-118717624D01*
X202622784Y-118785544D01*
X202770354Y-118884147D01*
X202895853Y-119009646D01*
X202994456Y-119157216D01*
X203062376Y-119321188D01*
X203097000Y-119495259D01*
X203097000Y-119672741D01*
X203062376Y-119846812D01*
X202994456Y-120010784D01*
X202895853Y-120158354D01*
X202770354Y-120283853D01*
X202622784Y-120382456D01*
X202458812Y-120450376D01*
X202309512Y-120480073D01*
X202284742Y-120485000D01*
X202107258Y-120485000D01*
X202082488Y-120480073D01*
X201933188Y-120450376D01*
X201769216Y-120382456D01*
X201621646Y-120283853D01*
X201496147Y-120158354D01*
X201397544Y-120010784D01*
X201329624Y-119846812D01*
X201295000Y-119672741D01*
X201295000Y-119495259D01*
X201329624Y-119321188D01*
X201397544Y-119157216D01*
X201496147Y-119009646D01*
X201621646Y-118884147D01*
X201769216Y-118785544D01*
X201933188Y-118717624D01*
X202082488Y-118687927D01*
X202107258Y-118683000D01*
X202284742Y-118683000D01*
X202309512Y-118687927D01*
G37*
G36*
X204849512Y-118687927D02*
G01*
X204998812Y-118717624D01*
X205162784Y-118785544D01*
X205310354Y-118884147D01*
X205435853Y-119009646D01*
X205534456Y-119157216D01*
X205602376Y-119321188D01*
X205637000Y-119495259D01*
X205637000Y-119672741D01*
X205602376Y-119846812D01*
X205534456Y-120010784D01*
X205435853Y-120158354D01*
X205310354Y-120283853D01*
X205162784Y-120382456D01*
X204998812Y-120450376D01*
X204849512Y-120480073D01*
X204824742Y-120485000D01*
X204647258Y-120485000D01*
X204622488Y-120480073D01*
X204473188Y-120450376D01*
X204309216Y-120382456D01*
X204161646Y-120283853D01*
X204036147Y-120158354D01*
X203937544Y-120010784D01*
X203869624Y-119846812D01*
X203835000Y-119672741D01*
X203835000Y-119495259D01*
X203869624Y-119321188D01*
X203937544Y-119157216D01*
X204036147Y-119009646D01*
X204161646Y-118884147D01*
X204309216Y-118785544D01*
X204473188Y-118717624D01*
X204622488Y-118687927D01*
X204647258Y-118683000D01*
X204824742Y-118683000D01*
X204849512Y-118687927D01*
G37*
G36*
X199769512Y-118687927D02*
G01*
X199918812Y-118717624D01*
X200082784Y-118785544D01*
X200230354Y-118884147D01*
X200355853Y-119009646D01*
X200454456Y-119157216D01*
X200522376Y-119321188D01*
X200557000Y-119495259D01*
X200557000Y-119672741D01*
X200522376Y-119846812D01*
X200454456Y-120010784D01*
X200355853Y-120158354D01*
X200230354Y-120283853D01*
X200082784Y-120382456D01*
X199918812Y-120450376D01*
X199769512Y-120480073D01*
X199744742Y-120485000D01*
X199567258Y-120485000D01*
X199542488Y-120480073D01*
X199393188Y-120450376D01*
X199229216Y-120382456D01*
X199081646Y-120283853D01*
X198956147Y-120158354D01*
X198857544Y-120010784D01*
X198789624Y-119846812D01*
X198755000Y-119672741D01*
X198755000Y-119495259D01*
X198789624Y-119321188D01*
X198857544Y-119157216D01*
X198956147Y-119009646D01*
X199081646Y-118884147D01*
X199229216Y-118785544D01*
X199393188Y-118717624D01*
X199542488Y-118687927D01*
X199567258Y-118683000D01*
X199744742Y-118683000D01*
X199769512Y-118687927D01*
G37*
G36*
X209929512Y-118687927D02*
G01*
X210078812Y-118717624D01*
X210242784Y-118785544D01*
X210390354Y-118884147D01*
X210515853Y-119009646D01*
X210614456Y-119157216D01*
X210682376Y-119321188D01*
X210717000Y-119495259D01*
X210717000Y-119672741D01*
X210682376Y-119846812D01*
X210614456Y-120010784D01*
X210515853Y-120158354D01*
X210390354Y-120283853D01*
X210242784Y-120382456D01*
X210078812Y-120450376D01*
X209929512Y-120480073D01*
X209904742Y-120485000D01*
X209727258Y-120485000D01*
X209702488Y-120480073D01*
X209553188Y-120450376D01*
X209389216Y-120382456D01*
X209241646Y-120283853D01*
X209116147Y-120158354D01*
X209017544Y-120010784D01*
X208949624Y-119846812D01*
X208915000Y-119672741D01*
X208915000Y-119495259D01*
X208949624Y-119321188D01*
X209017544Y-119157216D01*
X209116147Y-119009646D01*
X209241646Y-118884147D01*
X209389216Y-118785544D01*
X209553188Y-118717624D01*
X209702488Y-118687927D01*
X209727258Y-118683000D01*
X209904742Y-118683000D01*
X209929512Y-118687927D01*
G37*
G36*
X209929512Y-116147927D02*
G01*
X210078812Y-116177624D01*
X210242784Y-116245544D01*
X210390354Y-116344147D01*
X210515853Y-116469646D01*
X210614456Y-116617216D01*
X210682376Y-116781188D01*
X210717000Y-116955259D01*
X210717000Y-117132741D01*
X210682376Y-117306812D01*
X210614456Y-117470784D01*
X210515853Y-117618354D01*
X210390354Y-117743853D01*
X210242784Y-117842456D01*
X210078812Y-117910376D01*
X209929512Y-117940073D01*
X209904742Y-117945000D01*
X209727258Y-117945000D01*
X209702488Y-117940073D01*
X209553188Y-117910376D01*
X209389216Y-117842456D01*
X209241646Y-117743853D01*
X209116147Y-117618354D01*
X209017544Y-117470784D01*
X208949624Y-117306812D01*
X208915000Y-117132741D01*
X208915000Y-116955259D01*
X208949624Y-116781188D01*
X209017544Y-116617216D01*
X209116147Y-116469646D01*
X209241646Y-116344147D01*
X209389216Y-116245544D01*
X209553188Y-116177624D01*
X209702488Y-116147927D01*
X209727258Y-116143000D01*
X209904742Y-116143000D01*
X209929512Y-116147927D01*
G37*
G36*
X197229512Y-116147927D02*
G01*
X197378812Y-116177624D01*
X197542784Y-116245544D01*
X197690354Y-116344147D01*
X197815853Y-116469646D01*
X197914456Y-116617216D01*
X197982376Y-116781188D01*
X198017000Y-116955259D01*
X198017000Y-117132741D01*
X197982376Y-117306812D01*
X197914456Y-117470784D01*
X197815853Y-117618354D01*
X197690354Y-117743853D01*
X197542784Y-117842456D01*
X197378812Y-117910376D01*
X197229512Y-117940073D01*
X197204742Y-117945000D01*
X197027258Y-117945000D01*
X197002488Y-117940073D01*
X196853188Y-117910376D01*
X196689216Y-117842456D01*
X196541646Y-117743853D01*
X196416147Y-117618354D01*
X196317544Y-117470784D01*
X196249624Y-117306812D01*
X196215000Y-117132741D01*
X196215000Y-116955259D01*
X196249624Y-116781188D01*
X196317544Y-116617216D01*
X196416147Y-116469646D01*
X196541646Y-116344147D01*
X196689216Y-116245544D01*
X196853188Y-116177624D01*
X197002488Y-116147927D01*
X197027258Y-116143000D01*
X197204742Y-116143000D01*
X197229512Y-116147927D01*
G37*
G36*
X202309512Y-116147927D02*
G01*
X202458812Y-116177624D01*
X202622784Y-116245544D01*
X202770354Y-116344147D01*
X202895853Y-116469646D01*
X202994456Y-116617216D01*
X203062376Y-116781188D01*
X203097000Y-116955259D01*
X203097000Y-117132741D01*
X203062376Y-117306812D01*
X202994456Y-117470784D01*
X202895853Y-117618354D01*
X202770354Y-117743853D01*
X202622784Y-117842456D01*
X202458812Y-117910376D01*
X202309512Y-117940073D01*
X202284742Y-117945000D01*
X202107258Y-117945000D01*
X202082488Y-117940073D01*
X201933188Y-117910376D01*
X201769216Y-117842456D01*
X201621646Y-117743853D01*
X201496147Y-117618354D01*
X201397544Y-117470784D01*
X201329624Y-117306812D01*
X201295000Y-117132741D01*
X201295000Y-116955259D01*
X201329624Y-116781188D01*
X201397544Y-116617216D01*
X201496147Y-116469646D01*
X201621646Y-116344147D01*
X201769216Y-116245544D01*
X201933188Y-116177624D01*
X202082488Y-116147927D01*
X202107258Y-116143000D01*
X202284742Y-116143000D01*
X202309512Y-116147927D01*
G37*
G36*
X199769512Y-116147927D02*
G01*
X199918812Y-116177624D01*
X200082784Y-116245544D01*
X200230354Y-116344147D01*
X200355853Y-116469646D01*
X200454456Y-116617216D01*
X200522376Y-116781188D01*
X200557000Y-116955259D01*
X200557000Y-117132741D01*
X200522376Y-117306812D01*
X200454456Y-117470784D01*
X200355853Y-117618354D01*
X200230354Y-117743853D01*
X200082784Y-117842456D01*
X199918812Y-117910376D01*
X199769512Y-117940073D01*
X199744742Y-117945000D01*
X199567258Y-117945000D01*
X199542488Y-117940073D01*
X199393188Y-117910376D01*
X199229216Y-117842456D01*
X199081646Y-117743853D01*
X198956147Y-117618354D01*
X198857544Y-117470784D01*
X198789624Y-117306812D01*
X198755000Y-117132741D01*
X198755000Y-116955259D01*
X198789624Y-116781188D01*
X198857544Y-116617216D01*
X198956147Y-116469646D01*
X199081646Y-116344147D01*
X199229216Y-116245544D01*
X199393188Y-116177624D01*
X199542488Y-116147927D01*
X199567258Y-116143000D01*
X199744742Y-116143000D01*
X199769512Y-116147927D01*
G37*
G36*
X204849512Y-116147927D02*
G01*
X204998812Y-116177624D01*
X205162784Y-116245544D01*
X205310354Y-116344147D01*
X205435853Y-116469646D01*
X205534456Y-116617216D01*
X205602376Y-116781188D01*
X205637000Y-116955259D01*
X205637000Y-117132741D01*
X205602376Y-117306812D01*
X205534456Y-117470784D01*
X205435853Y-117618354D01*
X205310354Y-117743853D01*
X205162784Y-117842456D01*
X204998812Y-117910376D01*
X204849512Y-117940073D01*
X204824742Y-117945000D01*
X204647258Y-117945000D01*
X204622488Y-117940073D01*
X204473188Y-117910376D01*
X204309216Y-117842456D01*
X204161646Y-117743853D01*
X204036147Y-117618354D01*
X203937544Y-117470784D01*
X203869624Y-117306812D01*
X203835000Y-117132741D01*
X203835000Y-116955259D01*
X203869624Y-116781188D01*
X203937544Y-116617216D01*
X204036147Y-116469646D01*
X204161646Y-116344147D01*
X204309216Y-116245544D01*
X204473188Y-116177624D01*
X204622488Y-116147927D01*
X204647258Y-116143000D01*
X204824742Y-116143000D01*
X204849512Y-116147927D01*
G37*
G36*
X207389512Y-116147927D02*
G01*
X207538812Y-116177624D01*
X207702784Y-116245544D01*
X207850354Y-116344147D01*
X207975853Y-116469646D01*
X208074456Y-116617216D01*
X208142376Y-116781188D01*
X208177000Y-116955259D01*
X208177000Y-117132741D01*
X208142376Y-117306812D01*
X208074456Y-117470784D01*
X207975853Y-117618354D01*
X207850354Y-117743853D01*
X207702784Y-117842456D01*
X207538812Y-117910376D01*
X207389512Y-117940073D01*
X207364742Y-117945000D01*
X207187258Y-117945000D01*
X207162488Y-117940073D01*
X207013188Y-117910376D01*
X206849216Y-117842456D01*
X206701646Y-117743853D01*
X206576147Y-117618354D01*
X206477544Y-117470784D01*
X206409624Y-117306812D01*
X206375000Y-117132741D01*
X206375000Y-116955259D01*
X206409624Y-116781188D01*
X206477544Y-116617216D01*
X206576147Y-116469646D01*
X206701646Y-116344147D01*
X206849216Y-116245544D01*
X207013188Y-116177624D01*
X207162488Y-116147927D01*
X207187258Y-116143000D01*
X207364742Y-116143000D01*
X207389512Y-116147927D01*
G37*
G36*
X74739512Y-115362927D02*
G01*
X74888812Y-115392624D01*
X75052784Y-115460544D01*
X75200354Y-115559147D01*
X75325853Y-115684646D01*
X75424456Y-115832216D01*
X75492376Y-115996188D01*
X75527000Y-116170259D01*
X75527000Y-116347741D01*
X75492376Y-116521812D01*
X75424456Y-116685784D01*
X75325853Y-116833354D01*
X75200354Y-116958853D01*
X75052784Y-117057456D01*
X74888812Y-117125376D01*
X74739512Y-117155073D01*
X74714742Y-117160000D01*
X74537258Y-117160000D01*
X74512488Y-117155073D01*
X74363188Y-117125376D01*
X74199216Y-117057456D01*
X74051646Y-116958853D01*
X73926147Y-116833354D01*
X73827544Y-116685784D01*
X73759624Y-116521812D01*
X73725000Y-116347741D01*
X73725000Y-116170259D01*
X73759624Y-115996188D01*
X73827544Y-115832216D01*
X73926147Y-115684646D01*
X74051646Y-115559147D01*
X74199216Y-115460544D01*
X74363188Y-115392624D01*
X74512488Y-115362927D01*
X74537258Y-115358000D01*
X74714742Y-115358000D01*
X74739512Y-115362927D01*
G37*
G36*
X78067000Y-117160000D02*
G01*
X76265000Y-117160000D01*
X76265000Y-115358000D01*
X78067000Y-115358000D01*
X78067000Y-117160000D01*
G37*
G36*
X210264228Y-112565703D02*
G01*
X210419100Y-112629853D01*
X210558481Y-112722985D01*
X210677015Y-112841519D01*
X210770147Y-112980900D01*
X210834297Y-113135772D01*
X210867000Y-113300184D01*
X210867000Y-113467816D01*
X210834297Y-113632228D01*
X210770147Y-113787100D01*
X210677015Y-113926481D01*
X210558481Y-114045015D01*
X210419100Y-114138147D01*
X210264228Y-114202297D01*
X210099816Y-114235000D01*
X209932184Y-114235000D01*
X209767772Y-114202297D01*
X209612900Y-114138147D01*
X209473519Y-114045015D01*
X209354985Y-113926481D01*
X209261853Y-113787100D01*
X209197703Y-113632228D01*
X209165000Y-113467816D01*
X209165000Y-113300184D01*
X209197703Y-113135772D01*
X209261853Y-112980900D01*
X209354985Y-112841519D01*
X209473519Y-112722985D01*
X209612900Y-112629853D01*
X209767772Y-112565703D01*
X209932184Y-112533000D01*
X210099816Y-112533000D01*
X210264228Y-112565703D01*
G37*
G36*
X183364228Y-112565703D02*
G01*
X183519100Y-112629853D01*
X183658481Y-112722985D01*
X183777015Y-112841519D01*
X183870147Y-112980900D01*
X183934297Y-113135772D01*
X183967000Y-113300184D01*
X183967000Y-113467816D01*
X183934297Y-113632228D01*
X183870147Y-113787100D01*
X183777015Y-113926481D01*
X183658481Y-114045015D01*
X183519100Y-114138147D01*
X183364228Y-114202297D01*
X183199816Y-114235000D01*
X183032184Y-114235000D01*
X182867772Y-114202297D01*
X182712900Y-114138147D01*
X182573519Y-114045015D01*
X182454985Y-113926481D01*
X182361853Y-113787100D01*
X182297703Y-113632228D01*
X182265000Y-113467816D01*
X182265000Y-113300184D01*
X182297703Y-113135772D01*
X182361853Y-112980900D01*
X182454985Y-112841519D01*
X182573519Y-112722985D01*
X182712900Y-112629853D01*
X182867772Y-112565703D01*
X183032184Y-112533000D01*
X183199816Y-112533000D01*
X183364228Y-112565703D01*
G37*
G36*
X196514228Y-112515703D02*
G01*
X196669100Y-112579853D01*
X196808481Y-112672985D01*
X196927015Y-112791519D01*
X197020147Y-112930900D01*
X197084297Y-113085772D01*
X197117000Y-113250184D01*
X197117000Y-113417816D01*
X197084297Y-113582228D01*
X197020147Y-113737100D01*
X196927015Y-113876481D01*
X196808481Y-113995015D01*
X196669100Y-114088147D01*
X196514228Y-114152297D01*
X196349816Y-114185000D01*
X196182184Y-114185000D01*
X196017772Y-114152297D01*
X195862900Y-114088147D01*
X195723519Y-113995015D01*
X195604985Y-113876481D01*
X195511853Y-113737100D01*
X195447703Y-113582228D01*
X195415000Y-113417816D01*
X195415000Y-113250184D01*
X195447703Y-113085772D01*
X195511853Y-112930900D01*
X195604985Y-112791519D01*
X195723519Y-112672985D01*
X195862900Y-112579853D01*
X196017772Y-112515703D01*
X196182184Y-112483000D01*
X196349816Y-112483000D01*
X196514228Y-112515703D01*
G37*
G36*
X75517000Y-113560000D02*
G01*
X73715000Y-113560000D01*
X73715000Y-111758000D01*
X75517000Y-111758000D01*
X75517000Y-113560000D01*
G37*
G36*
X77269512Y-111762927D02*
G01*
X77418812Y-111792624D01*
X77582784Y-111860544D01*
X77730354Y-111959147D01*
X77855853Y-112084646D01*
X77954456Y-112232216D01*
X78022376Y-112396188D01*
X78057000Y-112570259D01*
X78057000Y-112747741D01*
X78022376Y-112921812D01*
X77954456Y-113085784D01*
X77855853Y-113233354D01*
X77730354Y-113358853D01*
X77582784Y-113457456D01*
X77418812Y-113525376D01*
X77269512Y-113555073D01*
X77244742Y-113560000D01*
X77067258Y-113560000D01*
X77042488Y-113555073D01*
X76893188Y-113525376D01*
X76729216Y-113457456D01*
X76581646Y-113358853D01*
X76456147Y-113233354D01*
X76357544Y-113085784D01*
X76289624Y-112921812D01*
X76255000Y-112747741D01*
X76255000Y-112570259D01*
X76289624Y-112396188D01*
X76357544Y-112232216D01*
X76456147Y-112084646D01*
X76581646Y-111959147D01*
X76729216Y-111860544D01*
X76893188Y-111792624D01*
X77042488Y-111762927D01*
X77067258Y-111758000D01*
X77244742Y-111758000D01*
X77269512Y-111762927D01*
G37*
G36*
X205714228Y-109865703D02*
G01*
X205869100Y-109929853D01*
X206008481Y-110022985D01*
X206127015Y-110141519D01*
X206220147Y-110280900D01*
X206284297Y-110435772D01*
X206317000Y-110600184D01*
X206317000Y-110767816D01*
X206284297Y-110932228D01*
X206220147Y-111087100D01*
X206127015Y-111226481D01*
X206008481Y-111345015D01*
X205869100Y-111438147D01*
X205714228Y-111502297D01*
X205549816Y-111535000D01*
X205382184Y-111535000D01*
X205217772Y-111502297D01*
X205062900Y-111438147D01*
X204923519Y-111345015D01*
X204804985Y-111226481D01*
X204711853Y-111087100D01*
X204647703Y-110932228D01*
X204615000Y-110767816D01*
X204615000Y-110600184D01*
X204647703Y-110435772D01*
X204711853Y-110280900D01*
X204804985Y-110141519D01*
X204923519Y-110022985D01*
X205062900Y-109929853D01*
X205217772Y-109865703D01*
X205382184Y-109833000D01*
X205549816Y-109833000D01*
X205714228Y-109865703D01*
G37*
G36*
X200714228Y-109865703D02*
G01*
X200869100Y-109929853D01*
X201008481Y-110022985D01*
X201127015Y-110141519D01*
X201220147Y-110280900D01*
X201284297Y-110435772D01*
X201317000Y-110600184D01*
X201317000Y-110767816D01*
X201284297Y-110932228D01*
X201220147Y-111087100D01*
X201127015Y-111226481D01*
X201008481Y-111345015D01*
X200869100Y-111438147D01*
X200714228Y-111502297D01*
X200549816Y-111535000D01*
X200382184Y-111535000D01*
X200217772Y-111502297D01*
X200062900Y-111438147D01*
X199923519Y-111345015D01*
X199804985Y-111226481D01*
X199711853Y-111087100D01*
X199647703Y-110932228D01*
X199615000Y-110767816D01*
X199615000Y-110600184D01*
X199647703Y-110435772D01*
X199711853Y-110280900D01*
X199804985Y-110141519D01*
X199923519Y-110022985D01*
X200062900Y-109929853D01*
X200217772Y-109865703D01*
X200382184Y-109833000D01*
X200549816Y-109833000D01*
X200714228Y-109865703D01*
G37*
G36*
X215164228Y-109815703D02*
G01*
X215319100Y-109879853D01*
X215458481Y-109972985D01*
X215577015Y-110091519D01*
X215670147Y-110230900D01*
X215734297Y-110385772D01*
X215767000Y-110550184D01*
X215767000Y-110717816D01*
X215734297Y-110882228D01*
X215670147Y-111037100D01*
X215577015Y-111176481D01*
X215458481Y-111295015D01*
X215319100Y-111388147D01*
X215164228Y-111452297D01*
X214999816Y-111485000D01*
X214832184Y-111485000D01*
X214667772Y-111452297D01*
X214512900Y-111388147D01*
X214373519Y-111295015D01*
X214254985Y-111176481D01*
X214161853Y-111037100D01*
X214097703Y-110882228D01*
X214065000Y-110717816D01*
X214065000Y-110550184D01*
X214097703Y-110385772D01*
X214161853Y-110230900D01*
X214254985Y-110091519D01*
X214373519Y-109972985D01*
X214512900Y-109879853D01*
X214667772Y-109815703D01*
X214832184Y-109783000D01*
X214999816Y-109783000D01*
X215164228Y-109815703D01*
G37*
G36*
X220164228Y-109815703D02*
G01*
X220319100Y-109879853D01*
X220458481Y-109972985D01*
X220577015Y-110091519D01*
X220670147Y-110230900D01*
X220734297Y-110385772D01*
X220767000Y-110550184D01*
X220767000Y-110717816D01*
X220734297Y-110882228D01*
X220670147Y-111037100D01*
X220577015Y-111176481D01*
X220458481Y-111295015D01*
X220319100Y-111388147D01*
X220164228Y-111452297D01*
X219999816Y-111485000D01*
X219832184Y-111485000D01*
X219667772Y-111452297D01*
X219512900Y-111388147D01*
X219373519Y-111295015D01*
X219254985Y-111176481D01*
X219161853Y-111037100D01*
X219097703Y-110882228D01*
X219065000Y-110717816D01*
X219065000Y-110550184D01*
X219097703Y-110385772D01*
X219161853Y-110230900D01*
X219254985Y-110091519D01*
X219373519Y-109972985D01*
X219512900Y-109879853D01*
X219667772Y-109815703D01*
X219832184Y-109783000D01*
X219999816Y-109783000D01*
X220164228Y-109815703D01*
G37*
G36*
X187614228Y-109765703D02*
G01*
X187769100Y-109829853D01*
X187908481Y-109922985D01*
X188027015Y-110041519D01*
X188120147Y-110180900D01*
X188184297Y-110335772D01*
X188217000Y-110500184D01*
X188217000Y-110667816D01*
X188184297Y-110832228D01*
X188120147Y-110987100D01*
X188027015Y-111126481D01*
X187908481Y-111245015D01*
X187769100Y-111338147D01*
X187614228Y-111402297D01*
X187449816Y-111435000D01*
X187282184Y-111435000D01*
X187117772Y-111402297D01*
X186962900Y-111338147D01*
X186823519Y-111245015D01*
X186704985Y-111126481D01*
X186611853Y-110987100D01*
X186547703Y-110832228D01*
X186515000Y-110667816D01*
X186515000Y-110500184D01*
X186547703Y-110335772D01*
X186611853Y-110180900D01*
X186704985Y-110041519D01*
X186823519Y-109922985D01*
X186962900Y-109829853D01*
X187117772Y-109765703D01*
X187282184Y-109733000D01*
X187449816Y-109733000D01*
X187614228Y-109765703D01*
G37*
G36*
X192614228Y-109765703D02*
G01*
X192769100Y-109829853D01*
X192908481Y-109922985D01*
X193027015Y-110041519D01*
X193120147Y-110180900D01*
X193184297Y-110335772D01*
X193217000Y-110500184D01*
X193217000Y-110667816D01*
X193184297Y-110832228D01*
X193120147Y-110987100D01*
X193027015Y-111126481D01*
X192908481Y-111245015D01*
X192769100Y-111338147D01*
X192614228Y-111402297D01*
X192449816Y-111435000D01*
X192282184Y-111435000D01*
X192117772Y-111402297D01*
X191962900Y-111338147D01*
X191823519Y-111245015D01*
X191704985Y-111126481D01*
X191611853Y-110987100D01*
X191547703Y-110832228D01*
X191515000Y-110667816D01*
X191515000Y-110500184D01*
X191547703Y-110335772D01*
X191611853Y-110180900D01*
X191704985Y-110041519D01*
X191823519Y-109922985D01*
X191962900Y-109829853D01*
X192117772Y-109765703D01*
X192282184Y-109733000D01*
X192449816Y-109733000D01*
X192614228Y-109765703D01*
G37*
G36*
X183364228Y-107565703D02*
G01*
X183519100Y-107629853D01*
X183658481Y-107722985D01*
X183777015Y-107841519D01*
X183870147Y-107980900D01*
X183934297Y-108135772D01*
X183967000Y-108300184D01*
X183967000Y-108467816D01*
X183934297Y-108632228D01*
X183870147Y-108787100D01*
X183777015Y-108926481D01*
X183658481Y-109045015D01*
X183519100Y-109138147D01*
X183364228Y-109202297D01*
X183199816Y-109235000D01*
X183032184Y-109235000D01*
X182867772Y-109202297D01*
X182712900Y-109138147D01*
X182573519Y-109045015D01*
X182454985Y-108926481D01*
X182361853Y-108787100D01*
X182297703Y-108632228D01*
X182265000Y-108467816D01*
X182265000Y-108300184D01*
X182297703Y-108135772D01*
X182361853Y-107980900D01*
X182454985Y-107841519D01*
X182573519Y-107722985D01*
X182712900Y-107629853D01*
X182867772Y-107565703D01*
X183032184Y-107533000D01*
X183199816Y-107533000D01*
X183364228Y-107565703D01*
G37*
G36*
X210264228Y-107565703D02*
G01*
X210419100Y-107629853D01*
X210558481Y-107722985D01*
X210677015Y-107841519D01*
X210770147Y-107980900D01*
X210834297Y-108135772D01*
X210867000Y-108300184D01*
X210867000Y-108467816D01*
X210834297Y-108632228D01*
X210770147Y-108787100D01*
X210677015Y-108926481D01*
X210558481Y-109045015D01*
X210419100Y-109138147D01*
X210264228Y-109202297D01*
X210099816Y-109235000D01*
X209932184Y-109235000D01*
X209767772Y-109202297D01*
X209612900Y-109138147D01*
X209473519Y-109045015D01*
X209354985Y-108926481D01*
X209261853Y-108787100D01*
X209197703Y-108632228D01*
X209165000Y-108467816D01*
X209165000Y-108300184D01*
X209197703Y-108135772D01*
X209261853Y-107980900D01*
X209354985Y-107841519D01*
X209473519Y-107722985D01*
X209612900Y-107629853D01*
X209767772Y-107565703D01*
X209932184Y-107533000D01*
X210099816Y-107533000D01*
X210264228Y-107565703D01*
G37*
G36*
X196514228Y-107515703D02*
G01*
X196669100Y-107579853D01*
X196808481Y-107672985D01*
X196927015Y-107791519D01*
X197020147Y-107930900D01*
X197084297Y-108085772D01*
X197117000Y-108250184D01*
X197117000Y-108417816D01*
X197084297Y-108582228D01*
X197020147Y-108737100D01*
X196927015Y-108876481D01*
X196808481Y-108995015D01*
X196669100Y-109088147D01*
X196514228Y-109152297D01*
X196349816Y-109185000D01*
X196182184Y-109185000D01*
X196017772Y-109152297D01*
X195862900Y-109088147D01*
X195723519Y-108995015D01*
X195604985Y-108876481D01*
X195511853Y-108737100D01*
X195447703Y-108582228D01*
X195415000Y-108417816D01*
X195415000Y-108250184D01*
X195447703Y-108085772D01*
X195511853Y-107930900D01*
X195604985Y-107791519D01*
X195723519Y-107672985D01*
X195862900Y-107579853D01*
X196017772Y-107515703D01*
X196182184Y-107483000D01*
X196349816Y-107483000D01*
X196514228Y-107515703D01*
G37*
G36*
X177342865Y-97855855D02*
G01*
X177943608Y-98104691D01*
X177943610Y-98104692D01*
X178484265Y-98465946D01*
X178944054Y-98925735D01*
X179305308Y-99466390D01*
X179305309Y-99466392D01*
X179554145Y-100067135D01*
X179681000Y-100704879D01*
X179681000Y-101355121D01*
X179554145Y-101992865D01*
X179305309Y-102593608D01*
X179305308Y-102593610D01*
X178944054Y-103134265D01*
X178484265Y-103594054D01*
X177943610Y-103955308D01*
X177943609Y-103955309D01*
X177943608Y-103955309D01*
X177342865Y-104204145D01*
X176705121Y-104331000D01*
X176054879Y-104331000D01*
X175417135Y-104204145D01*
X174816392Y-103955309D01*
X174816391Y-103955309D01*
X174816390Y-103955308D01*
X174275735Y-103594054D01*
X173815946Y-103134265D01*
X173454692Y-102593610D01*
X173454691Y-102593608D01*
X173205855Y-101992865D01*
X173079000Y-101355121D01*
X173079000Y-100704879D01*
X173205855Y-100067135D01*
X173454691Y-99466392D01*
X173454692Y-99466390D01*
X173815946Y-98925735D01*
X174275735Y-98465946D01*
X174816390Y-98104692D01*
X174816392Y-98104691D01*
X175417135Y-97855855D01*
X176054879Y-97729000D01*
X176705121Y-97729000D01*
X177342865Y-97855855D01*
G37*
G36*
X224582865Y-97855855D02*
G01*
X225183608Y-98104691D01*
X225183610Y-98104692D01*
X225724265Y-98465946D01*
X226184054Y-98925735D01*
X226545308Y-99466390D01*
X226545309Y-99466392D01*
X226794145Y-100067135D01*
X226921000Y-100704879D01*
X226921000Y-101355121D01*
X226794145Y-101992865D01*
X226545309Y-102593608D01*
X226545308Y-102593610D01*
X226184054Y-103134265D01*
X225724265Y-103594054D01*
X225183610Y-103955308D01*
X225183609Y-103955309D01*
X225183608Y-103955309D01*
X224582865Y-104204145D01*
X223945121Y-104331000D01*
X223294879Y-104331000D01*
X222657135Y-104204145D01*
X222056392Y-103955309D01*
X222056391Y-103955309D01*
X222056390Y-103955308D01*
X221515735Y-103594054D01*
X221055946Y-103134265D01*
X220694692Y-102593610D01*
X220694691Y-102593608D01*
X220445855Y-101992865D01*
X220319000Y-101355121D01*
X220319000Y-100704879D01*
X220445855Y-100067135D01*
X220694691Y-99466392D01*
X220694692Y-99466390D01*
X221055946Y-98925735D01*
X221515735Y-98465946D01*
X222056390Y-98104692D01*
X222056392Y-98104691D01*
X222657135Y-97855855D01*
X223294879Y-97729000D01*
X223945121Y-97729000D01*
X224582865Y-97855855D01*
G37*
G36*
X150264228Y-98440703D02*
G01*
X150419100Y-98504853D01*
X150558481Y-98597985D01*
X150677015Y-98716519D01*
X150770147Y-98855900D01*
X150834297Y-99010772D01*
X150867000Y-99175184D01*
X150867000Y-99342816D01*
X150834297Y-99507228D01*
X150770147Y-99662100D01*
X150677015Y-99801481D01*
X150558481Y-99920015D01*
X150419100Y-100013147D01*
X150264228Y-100077297D01*
X150099816Y-100110000D01*
X149932184Y-100110000D01*
X149767772Y-100077297D01*
X149612900Y-100013147D01*
X149473519Y-99920015D01*
X149354985Y-99801481D01*
X149261853Y-99662100D01*
X149197703Y-99507228D01*
X149165000Y-99342816D01*
X149165000Y-99175184D01*
X149197703Y-99010772D01*
X149261853Y-98855900D01*
X149354985Y-98716519D01*
X149473519Y-98597985D01*
X149612900Y-98504853D01*
X149767772Y-98440703D01*
X149932184Y-98408000D01*
X150099816Y-98408000D01*
X150264228Y-98440703D01*
G37*
G36*
X166217000Y-99335000D02*
G01*
X163715000Y-99335000D01*
X163715000Y-96833000D01*
X166217000Y-96833000D01*
X166217000Y-99335000D01*
G37*
G36*
X160302257Y-96875377D02*
G01*
X160330903Y-96881075D01*
X160558571Y-96975378D01*
X160763466Y-97112285D01*
X160937715Y-97286534D01*
X161074622Y-97491429D01*
X161168925Y-97719097D01*
X161217000Y-97960787D01*
X161217000Y-98207213D01*
X161168925Y-98448903D01*
X161074622Y-98676571D01*
X160937715Y-98881466D01*
X160763466Y-99055715D01*
X160558571Y-99192622D01*
X160558570Y-99192623D01*
X160558569Y-99192623D01*
X160330903Y-99286925D01*
X160089214Y-99335000D01*
X159842786Y-99335000D01*
X159601097Y-99286925D01*
X159373431Y-99192623D01*
X159373430Y-99192623D01*
X159373429Y-99192622D01*
X159168534Y-99055715D01*
X158994285Y-98881466D01*
X158857378Y-98676571D01*
X158763075Y-98448903D01*
X158715000Y-98207213D01*
X158715000Y-97960787D01*
X158763075Y-97719097D01*
X158857378Y-97491429D01*
X158994285Y-97286534D01*
X159168534Y-97112285D01*
X159373429Y-96975378D01*
X159601097Y-96881075D01*
X159629743Y-96875377D01*
X159842786Y-96833000D01*
X160089214Y-96833000D01*
X160302257Y-96875377D01*
G37*
G36*
X240430903Y-96781075D02*
G01*
X240658571Y-96875378D01*
X240863466Y-97012285D01*
X241037715Y-97186534D01*
X241037716Y-97186536D01*
X241174623Y-97391431D01*
X241268925Y-97619097D01*
X241317000Y-97860786D01*
X241317000Y-98107214D01*
X241268925Y-98348903D01*
X241230900Y-98440705D01*
X241174622Y-98576571D01*
X241037715Y-98781466D01*
X240863466Y-98955715D01*
X240658571Y-99092622D01*
X240658570Y-99092623D01*
X240658569Y-99092623D01*
X240430903Y-99186925D01*
X240189214Y-99235000D01*
X239942786Y-99235000D01*
X239701097Y-99186925D01*
X239473431Y-99092623D01*
X239473430Y-99092623D01*
X239473429Y-99092622D01*
X239268534Y-98955715D01*
X239094285Y-98781466D01*
X238957378Y-98576571D01*
X238901101Y-98440705D01*
X238863075Y-98348903D01*
X238815000Y-98107214D01*
X238815000Y-97860786D01*
X238863075Y-97619097D01*
X238957377Y-97391431D01*
X239094284Y-97186536D01*
X239094285Y-97186534D01*
X239268534Y-97012285D01*
X239473429Y-96875378D01*
X239701097Y-96781075D01*
X239942786Y-96733000D01*
X240189214Y-96733000D01*
X240430903Y-96781075D01*
G37*
G36*
X236317000Y-99235000D02*
G01*
X233815000Y-99235000D01*
X233815000Y-96733000D01*
X236317000Y-96733000D01*
X236317000Y-99235000D01*
G37*
G36*
X150867000Y-97610000D02*
G01*
X149165000Y-97610000D01*
X149165000Y-95908000D01*
X150867000Y-95908000D01*
X150867000Y-97610000D01*
G37*
G36*
X144091589Y-95622876D02*
G01*
X144190893Y-95642629D01*
X144331206Y-95700748D01*
X144457484Y-95785125D01*
X144564875Y-95892516D01*
X144649252Y-96018794D01*
X144707371Y-96159107D01*
X144737000Y-96308063D01*
X144737000Y-96459937D01*
X144707371Y-96608893D01*
X144649252Y-96749206D01*
X144564875Y-96875484D01*
X144457484Y-96982875D01*
X144331206Y-97067252D01*
X144190893Y-97125371D01*
X144091589Y-97145124D01*
X144041938Y-97155000D01*
X143890062Y-97155000D01*
X143840411Y-97145124D01*
X143741107Y-97125371D01*
X143600794Y-97067252D01*
X143474516Y-96982875D01*
X143367125Y-96875484D01*
X143282748Y-96749206D01*
X143224629Y-96608893D01*
X143195000Y-96459937D01*
X143195000Y-96308063D01*
X143224629Y-96159107D01*
X143282748Y-96018794D01*
X143367125Y-95892516D01*
X143474516Y-95785125D01*
X143600794Y-95700748D01*
X143741107Y-95642629D01*
X143840411Y-95622876D01*
X143890062Y-95613000D01*
X144041938Y-95613000D01*
X144091589Y-95622876D01*
G37*
G36*
X141591589Y-95622876D02*
G01*
X141690893Y-95642629D01*
X141831206Y-95700748D01*
X141957484Y-95785125D01*
X142064875Y-95892516D01*
X142149252Y-96018794D01*
X142207371Y-96159107D01*
X142237000Y-96308063D01*
X142237000Y-96459937D01*
X142207371Y-96608893D01*
X142149252Y-96749206D01*
X142064875Y-96875484D01*
X141957484Y-96982875D01*
X141831206Y-97067252D01*
X141690893Y-97125371D01*
X141591589Y-97145124D01*
X141541938Y-97155000D01*
X141390062Y-97155000D01*
X141340411Y-97145124D01*
X141241107Y-97125371D01*
X141100794Y-97067252D01*
X140974516Y-96982875D01*
X140867125Y-96875484D01*
X140782748Y-96749206D01*
X140724629Y-96608893D01*
X140695000Y-96459937D01*
X140695000Y-96308063D01*
X140724629Y-96159107D01*
X140782748Y-96018794D01*
X140867125Y-95892516D01*
X140974516Y-95785125D01*
X141100794Y-95700748D01*
X141241107Y-95642629D01*
X141340411Y-95622876D01*
X141390062Y-95613000D01*
X141541938Y-95613000D01*
X141591589Y-95622876D01*
G37*
G36*
X139091589Y-95622876D02*
G01*
X139190893Y-95642629D01*
X139331206Y-95700748D01*
X139457484Y-95785125D01*
X139564875Y-95892516D01*
X139649252Y-96018794D01*
X139707371Y-96159107D01*
X139737000Y-96308063D01*
X139737000Y-96459937D01*
X139707371Y-96608893D01*
X139649252Y-96749206D01*
X139564875Y-96875484D01*
X139457484Y-96982875D01*
X139331206Y-97067252D01*
X139190893Y-97125371D01*
X139091589Y-97145124D01*
X139041938Y-97155000D01*
X138890062Y-97155000D01*
X138840411Y-97145124D01*
X138741107Y-97125371D01*
X138600794Y-97067252D01*
X138474516Y-96982875D01*
X138367125Y-96875484D01*
X138282748Y-96749206D01*
X138224629Y-96608893D01*
X138195000Y-96459937D01*
X138195000Y-96308063D01*
X138224629Y-96159107D01*
X138282748Y-96018794D01*
X138367125Y-95892516D01*
X138474516Y-95785125D01*
X138600794Y-95700748D01*
X138741107Y-95642629D01*
X138840411Y-95622876D01*
X138890062Y-95613000D01*
X139041938Y-95613000D01*
X139091589Y-95622876D01*
G37*
G36*
X151504512Y-91157927D02*
G01*
X151653812Y-91187624D01*
X151817784Y-91255544D01*
X151965354Y-91354147D01*
X152090853Y-91479646D01*
X152189456Y-91627216D01*
X152257376Y-91791188D01*
X152292000Y-91965259D01*
X152292000Y-92142741D01*
X152257376Y-92316812D01*
X152189456Y-92480784D01*
X152090853Y-92628354D01*
X151965354Y-92753853D01*
X151817784Y-92852456D01*
X151653812Y-92920376D01*
X151504512Y-92950073D01*
X151479742Y-92955000D01*
X151302258Y-92955000D01*
X151277488Y-92950073D01*
X151128188Y-92920376D01*
X150964216Y-92852456D01*
X150816646Y-92753853D01*
X150691147Y-92628354D01*
X150592544Y-92480784D01*
X150524624Y-92316812D01*
X150490000Y-92142741D01*
X150490000Y-91965259D01*
X150524624Y-91791188D01*
X150592544Y-91627216D01*
X150691147Y-91479646D01*
X150816646Y-91354147D01*
X150964216Y-91255544D01*
X151128188Y-91187624D01*
X151277488Y-91157927D01*
X151302258Y-91153000D01*
X151479742Y-91153000D01*
X151504512Y-91157927D01*
G37*
G36*
X154044512Y-91157927D02*
G01*
X154193812Y-91187624D01*
X154357784Y-91255544D01*
X154505354Y-91354147D01*
X154630853Y-91479646D01*
X154729456Y-91627216D01*
X154797376Y-91791188D01*
X154832000Y-91965259D01*
X154832000Y-92142741D01*
X154797376Y-92316812D01*
X154729456Y-92480784D01*
X154630853Y-92628354D01*
X154505354Y-92753853D01*
X154357784Y-92852456D01*
X154193812Y-92920376D01*
X154044512Y-92950073D01*
X154019742Y-92955000D01*
X153842258Y-92955000D01*
X153817488Y-92950073D01*
X153668188Y-92920376D01*
X153504216Y-92852456D01*
X153356646Y-92753853D01*
X153231147Y-92628354D01*
X153132544Y-92480784D01*
X153064624Y-92316812D01*
X153030000Y-92142741D01*
X153030000Y-91965259D01*
X153064624Y-91791188D01*
X153132544Y-91627216D01*
X153231147Y-91479646D01*
X153356646Y-91354147D01*
X153504216Y-91255544D01*
X153668188Y-91187624D01*
X153817488Y-91157927D01*
X153842258Y-91153000D01*
X154019742Y-91153000D01*
X154044512Y-91157927D01*
G37*
G36*
X151504512Y-88617927D02*
G01*
X151653812Y-88647624D01*
X151817784Y-88715544D01*
X151965354Y-88814147D01*
X152090853Y-88939646D01*
X152189456Y-89087216D01*
X152257376Y-89251188D01*
X152292000Y-89425259D01*
X152292000Y-89602741D01*
X152257376Y-89776812D01*
X152189456Y-89940784D01*
X152090853Y-90088354D01*
X151965354Y-90213853D01*
X151817784Y-90312456D01*
X151653812Y-90380376D01*
X151504512Y-90410073D01*
X151479742Y-90415000D01*
X151302258Y-90415000D01*
X151277488Y-90410073D01*
X151128188Y-90380376D01*
X150964216Y-90312456D01*
X150816646Y-90213853D01*
X150691147Y-90088354D01*
X150592544Y-89940784D01*
X150524624Y-89776812D01*
X150490000Y-89602741D01*
X150490000Y-89425259D01*
X150524624Y-89251188D01*
X150592544Y-89087216D01*
X150691147Y-88939646D01*
X150816646Y-88814147D01*
X150964216Y-88715544D01*
X151128188Y-88647624D01*
X151277488Y-88617927D01*
X151302258Y-88613000D01*
X151479742Y-88613000D01*
X151504512Y-88617927D01*
G37*
G36*
X154044512Y-88617927D02*
G01*
X154193812Y-88647624D01*
X154357784Y-88715544D01*
X154505354Y-88814147D01*
X154630853Y-88939646D01*
X154729456Y-89087216D01*
X154797376Y-89251188D01*
X154832000Y-89425259D01*
X154832000Y-89602741D01*
X154797376Y-89776812D01*
X154729456Y-89940784D01*
X154630853Y-90088354D01*
X154505354Y-90213853D01*
X154357784Y-90312456D01*
X154193812Y-90380376D01*
X154044512Y-90410073D01*
X154019742Y-90415000D01*
X153842258Y-90415000D01*
X153817488Y-90410073D01*
X153668188Y-90380376D01*
X153504216Y-90312456D01*
X153356646Y-90213853D01*
X153231147Y-90088354D01*
X153132544Y-89940784D01*
X153064624Y-89776812D01*
X153030000Y-89602741D01*
X153030000Y-89425259D01*
X153064624Y-89251188D01*
X153132544Y-89087216D01*
X153231147Y-88939646D01*
X153356646Y-88814147D01*
X153504216Y-88715544D01*
X153668188Y-88647624D01*
X153817488Y-88617927D01*
X153842258Y-88613000D01*
X154019742Y-88613000D01*
X154044512Y-88617927D01*
G37*
G36*
X76167000Y-89110000D02*
G01*
X73965000Y-89110000D01*
X73965000Y-86908000D01*
X76167000Y-86908000D01*
X76167000Y-89110000D01*
G37*
G36*
X151504512Y-86077927D02*
G01*
X151653812Y-86107624D01*
X151817784Y-86175544D01*
X151965354Y-86274147D01*
X152090853Y-86399646D01*
X152189456Y-86547216D01*
X152257376Y-86711188D01*
X152292000Y-86885259D01*
X152292000Y-87062741D01*
X152257376Y-87236812D01*
X152189456Y-87400784D01*
X152090853Y-87548354D01*
X151965354Y-87673853D01*
X151817784Y-87772456D01*
X151653812Y-87840376D01*
X151504512Y-87870073D01*
X151479742Y-87875000D01*
X151302258Y-87875000D01*
X151277488Y-87870073D01*
X151128188Y-87840376D01*
X150964216Y-87772456D01*
X150816646Y-87673853D01*
X150691147Y-87548354D01*
X150592544Y-87400784D01*
X150524624Y-87236812D01*
X150490000Y-87062741D01*
X150490000Y-86885259D01*
X150524624Y-86711188D01*
X150592544Y-86547216D01*
X150691147Y-86399646D01*
X150816646Y-86274147D01*
X150964216Y-86175544D01*
X151128188Y-86107624D01*
X151277488Y-86077927D01*
X151302258Y-86073000D01*
X151479742Y-86073000D01*
X151504512Y-86077927D01*
G37*
G36*
X154044512Y-86077927D02*
G01*
X154193812Y-86107624D01*
X154357784Y-86175544D01*
X154505354Y-86274147D01*
X154630853Y-86399646D01*
X154729456Y-86547216D01*
X154797376Y-86711188D01*
X154832000Y-86885259D01*
X154832000Y-87062741D01*
X154797376Y-87236812D01*
X154729456Y-87400784D01*
X154630853Y-87548354D01*
X154505354Y-87673853D01*
X154357784Y-87772456D01*
X154193812Y-87840376D01*
X154044512Y-87870073D01*
X154019742Y-87875000D01*
X153842258Y-87875000D01*
X153817488Y-87870073D01*
X153668188Y-87840376D01*
X153504216Y-87772456D01*
X153356646Y-87673853D01*
X153231147Y-87548354D01*
X153132544Y-87400784D01*
X153064624Y-87236812D01*
X153030000Y-87062741D01*
X153030000Y-86885259D01*
X153064624Y-86711188D01*
X153132544Y-86547216D01*
X153231147Y-86399646D01*
X153356646Y-86274147D01*
X153504216Y-86175544D01*
X153668188Y-86107624D01*
X153817488Y-86077927D01*
X153842258Y-86073000D01*
X154019742Y-86073000D01*
X154044512Y-86077927D01*
G37*
G36*
X154044512Y-83537927D02*
G01*
X154193812Y-83567624D01*
X154357784Y-83635544D01*
X154505354Y-83734147D01*
X154630853Y-83859646D01*
X154729456Y-84007216D01*
X154797376Y-84171188D01*
X154832000Y-84345259D01*
X154832000Y-84522741D01*
X154797376Y-84696812D01*
X154729456Y-84860784D01*
X154630853Y-85008354D01*
X154505354Y-85133853D01*
X154357784Y-85232456D01*
X154193812Y-85300376D01*
X154044512Y-85330073D01*
X154019742Y-85335000D01*
X153842258Y-85335000D01*
X153817488Y-85330073D01*
X153668188Y-85300376D01*
X153504216Y-85232456D01*
X153356646Y-85133853D01*
X153231147Y-85008354D01*
X153132544Y-84860784D01*
X153064624Y-84696812D01*
X153030000Y-84522741D01*
X153030000Y-84345259D01*
X153064624Y-84171188D01*
X153132544Y-84007216D01*
X153231147Y-83859646D01*
X153356646Y-83734147D01*
X153504216Y-83635544D01*
X153668188Y-83567624D01*
X153817488Y-83537927D01*
X153842258Y-83533000D01*
X154019742Y-83533000D01*
X154044512Y-83537927D01*
G37*
G36*
X152292000Y-85335000D02*
G01*
X150490000Y-85335000D01*
X150490000Y-83533000D01*
X152292000Y-83533000D01*
X152292000Y-85335000D01*
G37*
G36*
X75280795Y-81929156D02*
G01*
X75387150Y-81950311D01*
X75587520Y-82033307D01*
X75767844Y-82153795D01*
X75921205Y-82307156D01*
X76041693Y-82487480D01*
X76124689Y-82687851D01*
X76167000Y-82900560D01*
X76167000Y-83117440D01*
X76124689Y-83330149D01*
X76041693Y-83530520D01*
X75921205Y-83710844D01*
X75767844Y-83864205D01*
X75587520Y-83984693D01*
X75526423Y-84010000D01*
X75387150Y-84067689D01*
X75280794Y-84088845D01*
X75174440Y-84110000D01*
X74957560Y-84110000D01*
X74851206Y-84088845D01*
X74744850Y-84067689D01*
X74605577Y-84010000D01*
X74544480Y-83984693D01*
X74364156Y-83864205D01*
X74210795Y-83710844D01*
X74090307Y-83530520D01*
X74007311Y-83330149D01*
X73965000Y-83117440D01*
X73965000Y-82900560D01*
X74007311Y-82687851D01*
X74090307Y-82487480D01*
X74210795Y-82307156D01*
X74364156Y-82153795D01*
X74544480Y-82033307D01*
X74744850Y-81950311D01*
X74851205Y-81929156D01*
X74957560Y-81908000D01*
X75174440Y-81908000D01*
X75280795Y-81929156D01*
G37*
G36*
X88917000Y-84010000D02*
G01*
X87115000Y-84010000D01*
X87115000Y-82208000D01*
X88917000Y-82208000D01*
X88917000Y-84010000D01*
G37*
G36*
X85589512Y-82212927D02*
G01*
X85738812Y-82242624D01*
X85902784Y-82310544D01*
X86050354Y-82409147D01*
X86175853Y-82534646D01*
X86274456Y-82682216D01*
X86342376Y-82846188D01*
X86377000Y-83020259D01*
X86377000Y-83197741D01*
X86342376Y-83371812D01*
X86274456Y-83535784D01*
X86175853Y-83683354D01*
X86050354Y-83808853D01*
X85902784Y-83907456D01*
X85738812Y-83975376D01*
X85589512Y-84005073D01*
X85564742Y-84010000D01*
X85387258Y-84010000D01*
X85362488Y-84005073D01*
X85213188Y-83975376D01*
X85049216Y-83907456D01*
X84901646Y-83808853D01*
X84776147Y-83683354D01*
X84677544Y-83535784D01*
X84609624Y-83371812D01*
X84575000Y-83197741D01*
X84575000Y-83020259D01*
X84609624Y-82846188D01*
X84677544Y-82682216D01*
X84776147Y-82534646D01*
X84901646Y-82409147D01*
X85049216Y-82310544D01*
X85213188Y-82242624D01*
X85362488Y-82212927D01*
X85387258Y-82208000D01*
X85564742Y-82208000D01*
X85589512Y-82212927D01*
G37*
G36*
X236251000Y-79201000D02*
G01*
X233749000Y-79201000D01*
X233749000Y-76699000D01*
X236251000Y-76699000D01*
X236251000Y-79201000D01*
G37*
G36*
X240364903Y-76747075D02*
G01*
X240592571Y-76841378D01*
X240797466Y-76978285D01*
X240971715Y-77152534D01*
X241108622Y-77357429D01*
X241108623Y-77357431D01*
X241202925Y-77585097D01*
X241251000Y-77826786D01*
X241251000Y-78073214D01*
X241202925Y-78314903D01*
X241196610Y-78330150D01*
X241108622Y-78542571D01*
X240971715Y-78747466D01*
X240797466Y-78921715D01*
X240592571Y-79058622D01*
X240592570Y-79058623D01*
X240592569Y-79058623D01*
X240364903Y-79152925D01*
X240123214Y-79201000D01*
X239876786Y-79201000D01*
X239635097Y-79152925D01*
X239407431Y-79058623D01*
X239407430Y-79058623D01*
X239407429Y-79058622D01*
X239202534Y-78921715D01*
X239028285Y-78747466D01*
X238891378Y-78542571D01*
X238803391Y-78330150D01*
X238797075Y-78314903D01*
X238749000Y-78073214D01*
X238749000Y-77826786D01*
X238797075Y-77585097D01*
X238891377Y-77357431D01*
X238891378Y-77357429D01*
X239028285Y-77152534D01*
X239202534Y-76978285D01*
X239407429Y-76841378D01*
X239635097Y-76747075D01*
X239876786Y-76699000D01*
X240123214Y-76699000D01*
X240364903Y-76747075D01*
G37*
G36*
X166251000Y-79201000D02*
G01*
X163749000Y-79201000D01*
X163749000Y-76699000D01*
X166251000Y-76699000D01*
X166251000Y-79201000D01*
G37*
G36*
X160364903Y-76747075D02*
G01*
X160592571Y-76841378D01*
X160797466Y-76978285D01*
X160971715Y-77152534D01*
X161108622Y-77357429D01*
X161108623Y-77357431D01*
X161202925Y-77585097D01*
X161251000Y-77826786D01*
X161251000Y-78073214D01*
X161202925Y-78314903D01*
X161196610Y-78330150D01*
X161108622Y-78542571D01*
X160971715Y-78747466D01*
X160797466Y-78921715D01*
X160592571Y-79058622D01*
X160592570Y-79058623D01*
X160592569Y-79058623D01*
X160364903Y-79152925D01*
X160123214Y-79201000D01*
X159876786Y-79201000D01*
X159635097Y-79152925D01*
X159407431Y-79058623D01*
X159407430Y-79058623D01*
X159407429Y-79058622D01*
X159202534Y-78921715D01*
X159028285Y-78747466D01*
X158891378Y-78542571D01*
X158803391Y-78330150D01*
X158797075Y-78314903D01*
X158749000Y-78073214D01*
X158749000Y-77826786D01*
X158797075Y-77585097D01*
X158891377Y-77357431D01*
X158891378Y-77357429D01*
X159028285Y-77152534D01*
X159202534Y-76978285D01*
X159407429Y-76841378D01*
X159635097Y-76747075D01*
X159876786Y-76699000D01*
X160123214Y-76699000D01*
X160364903Y-76747075D01*
G37*
G36*
X75280795Y-76929156D02*
G01*
X75387150Y-76950311D01*
X75454682Y-76978284D01*
X75587520Y-77033307D01*
X75767844Y-77153795D01*
X75921205Y-77307156D01*
X76041693Y-77487480D01*
X76124689Y-77687851D01*
X76167000Y-77900560D01*
X76167000Y-78117440D01*
X76124689Y-78330149D01*
X76041693Y-78530520D01*
X75921205Y-78710844D01*
X75767844Y-78864205D01*
X75587520Y-78984693D01*
X75487334Y-79026191D01*
X75387150Y-79067689D01*
X75280794Y-79088845D01*
X75174440Y-79110000D01*
X74957560Y-79110000D01*
X74851206Y-79088845D01*
X74744850Y-79067689D01*
X74644666Y-79026191D01*
X74544480Y-78984693D01*
X74364156Y-78864205D01*
X74210795Y-78710844D01*
X74090307Y-78530520D01*
X74007311Y-78330149D01*
X73965000Y-78117440D01*
X73965000Y-77900560D01*
X74007311Y-77687851D01*
X74090307Y-77487480D01*
X74210795Y-77307156D01*
X74364156Y-77153795D01*
X74544480Y-77033307D01*
X74677318Y-76978284D01*
X74744850Y-76950311D01*
X74851205Y-76929156D01*
X74957560Y-76908000D01*
X75174440Y-76908000D01*
X75280795Y-76929156D01*
G37*
G36*
X177342865Y-71695855D02*
G01*
X177855028Y-71908000D01*
X177943610Y-71944692D01*
X178484265Y-72305946D01*
X178944054Y-72765735D01*
X179305308Y-73306390D01*
X179305309Y-73306392D01*
X179554145Y-73907135D01*
X179681000Y-74544879D01*
X179681000Y-75195121D01*
X179554145Y-75832865D01*
X179360487Y-76300396D01*
X179305308Y-76433610D01*
X178944054Y-76974265D01*
X178484265Y-77434054D01*
X177943610Y-77795308D01*
X177943609Y-77795309D01*
X177943608Y-77795309D01*
X177342865Y-78044145D01*
X176705121Y-78171000D01*
X176054879Y-78171000D01*
X175417135Y-78044145D01*
X174816392Y-77795309D01*
X174816391Y-77795309D01*
X174816390Y-77795308D01*
X174275735Y-77434054D01*
X173815946Y-76974265D01*
X173454692Y-76433610D01*
X173399513Y-76300396D01*
X173205855Y-75832865D01*
X173079000Y-75195121D01*
X173079000Y-74544879D01*
X173205855Y-73907135D01*
X173454691Y-73306392D01*
X173454692Y-73306390D01*
X173815946Y-72765735D01*
X174275735Y-72305946D01*
X174816390Y-71944692D01*
X174904972Y-71908000D01*
X175417135Y-71695855D01*
X176054879Y-71569000D01*
X176705121Y-71569000D01*
X177342865Y-71695855D01*
G37*
G36*
X224582865Y-71695855D02*
G01*
X225095028Y-71908000D01*
X225183610Y-71944692D01*
X225724265Y-72305946D01*
X226184054Y-72765735D01*
X226545308Y-73306390D01*
X226545309Y-73306392D01*
X226794145Y-73907135D01*
X226921000Y-74544879D01*
X226921000Y-75195121D01*
X226794145Y-75832865D01*
X226600487Y-76300396D01*
X226545308Y-76433610D01*
X226184054Y-76974265D01*
X225724265Y-77434054D01*
X225183610Y-77795308D01*
X225183609Y-77795309D01*
X225183608Y-77795309D01*
X224582865Y-78044145D01*
X223945121Y-78171000D01*
X223294879Y-78171000D01*
X222657135Y-78044145D01*
X222056392Y-77795309D01*
X222056391Y-77795309D01*
X222056390Y-77795308D01*
X221515735Y-77434054D01*
X221055946Y-76974265D01*
X220694692Y-76433610D01*
X220639513Y-76300396D01*
X220445855Y-75832865D01*
X220319000Y-75195121D01*
X220319000Y-74544879D01*
X220445855Y-73907135D01*
X220694691Y-73306392D01*
X220694692Y-73306390D01*
X221055946Y-72765735D01*
X221515735Y-72305946D01*
X222056390Y-71944692D01*
X222144972Y-71908000D01*
X222657135Y-71695855D01*
X223294879Y-71569000D01*
X223945121Y-71569000D01*
X224582865Y-71695855D01*
G37*
G36*
X108118585Y-73287802D02*
G01*
X108268410Y-73317604D01*
X108550674Y-73434521D01*
X108804705Y-73604259D01*
X109020741Y-73820295D01*
X109190479Y-74074326D01*
X109307396Y-74356590D01*
X109367000Y-74656240D01*
X109367000Y-74961760D01*
X109307396Y-75261410D01*
X109190479Y-75543674D01*
X109020741Y-75797705D01*
X108804705Y-76013741D01*
X108550674Y-76183479D01*
X108268410Y-76300396D01*
X108118585Y-76330198D01*
X107968761Y-76360000D01*
X107663239Y-76360000D01*
X107513415Y-76330198D01*
X107363590Y-76300396D01*
X107081326Y-76183479D01*
X106827295Y-76013741D01*
X106611259Y-75797705D01*
X106441521Y-75543674D01*
X106324604Y-75261410D01*
X106265000Y-74961760D01*
X106265000Y-74656240D01*
X106324604Y-74356590D01*
X106441521Y-74074326D01*
X106611259Y-73820295D01*
X106827295Y-73604259D01*
X107081326Y-73434521D01*
X107363590Y-73317604D01*
X107513415Y-73287802D01*
X107663239Y-73258000D01*
X107968761Y-73258000D01*
X108118585Y-73287802D01*
G37*
G36*
X85618585Y-73287802D02*
G01*
X85768410Y-73317604D01*
X86050674Y-73434521D01*
X86304705Y-73604259D01*
X86520741Y-73820295D01*
X86690479Y-74074326D01*
X86807396Y-74356590D01*
X86867000Y-74656240D01*
X86867000Y-74961760D01*
X86807396Y-75261410D01*
X86690479Y-75543674D01*
X86520741Y-75797705D01*
X86304705Y-76013741D01*
X86050674Y-76183479D01*
X85768410Y-76300396D01*
X85618585Y-76330198D01*
X85468761Y-76360000D01*
X85163239Y-76360000D01*
X85013415Y-76330198D01*
X84863590Y-76300396D01*
X84581326Y-76183479D01*
X84327295Y-76013741D01*
X84111259Y-75797705D01*
X83941521Y-75543674D01*
X83824604Y-75261410D01*
X83765000Y-74961760D01*
X83765000Y-74656240D01*
X83824604Y-74356590D01*
X83941521Y-74074326D01*
X84111259Y-73820295D01*
X84327295Y-73604259D01*
X84581326Y-73434521D01*
X84863590Y-73317604D01*
X85013415Y-73287802D01*
X85163239Y-73258000D01*
X85468761Y-73258000D01*
X85618585Y-73287802D01*
G37*
G36*
X96884433Y-73443893D02*
G01*
X96974657Y-73461839D01*
X97080267Y-73505585D01*
X97229621Y-73567449D01*
X97305763Y-73618325D01*
X97459086Y-73720772D01*
X97654228Y-73915914D01*
X97700184Y-73984693D01*
X97807551Y-74145379D01*
X97869415Y-74294733D01*
X97895038Y-74356590D01*
X97913161Y-74400344D01*
X97967000Y-74671012D01*
X97967000Y-74946988D01*
X97964061Y-74961761D01*
X97913161Y-75217657D01*
X97869415Y-75323267D01*
X97807551Y-75472621D01*
X97807550Y-75472622D01*
X97654228Y-75702086D01*
X97459086Y-75897228D01*
X97305763Y-75999675D01*
X97229621Y-76050551D01*
X97080267Y-76112415D01*
X96974657Y-76156161D01*
X96884433Y-76174107D01*
X96703988Y-76210000D01*
X96428012Y-76210000D01*
X96247567Y-76174107D01*
X96157343Y-76156161D01*
X96051733Y-76112415D01*
X95902379Y-76050551D01*
X95826237Y-75999675D01*
X95672914Y-75897228D01*
X95477772Y-75702086D01*
X95324450Y-75472622D01*
X95324449Y-75472621D01*
X95262585Y-75323267D01*
X95218839Y-75217657D01*
X95167939Y-74961761D01*
X95165000Y-74946988D01*
X95165000Y-74671012D01*
X95218839Y-74400344D01*
X95236963Y-74356590D01*
X95262585Y-74294733D01*
X95324449Y-74145379D01*
X95431816Y-73984693D01*
X95477772Y-73915914D01*
X95672914Y-73720772D01*
X95826237Y-73618325D01*
X95902379Y-73567449D01*
X96051733Y-73505585D01*
X96157343Y-73461839D01*
X96247567Y-73443893D01*
X96428012Y-73408000D01*
X96703988Y-73408000D01*
X96884433Y-73443893D01*
G37*
G36*
X75280794Y-71929155D02*
G01*
X75387150Y-71950311D01*
X75487334Y-71991809D01*
X75587520Y-72033307D01*
X75767844Y-72153795D01*
X75921205Y-72307156D01*
X76041693Y-72487480D01*
X76041693Y-72487481D01*
X76124689Y-72687850D01*
X76167000Y-72900561D01*
X76167000Y-73117439D01*
X76127185Y-73317604D01*
X76124689Y-73330149D01*
X76041693Y-73530520D01*
X75921205Y-73710844D01*
X75767844Y-73864205D01*
X75587520Y-73984693D01*
X75387150Y-74067689D01*
X75280795Y-74088844D01*
X75174440Y-74110000D01*
X74957560Y-74110000D01*
X74851205Y-74088844D01*
X74744850Y-74067689D01*
X74544480Y-73984693D01*
X74364156Y-73864205D01*
X74210795Y-73710844D01*
X74090307Y-73530520D01*
X74007311Y-73330149D01*
X74004816Y-73317604D01*
X73965000Y-73117439D01*
X73965000Y-72900561D01*
X74007311Y-72687850D01*
X74090307Y-72487481D01*
X74090307Y-72487480D01*
X74210795Y-72307156D01*
X74364156Y-72153795D01*
X74544480Y-72033307D01*
X74644666Y-71991809D01*
X74744850Y-71950311D01*
X74851206Y-71929155D01*
X74957560Y-71908000D01*
X75174440Y-71908000D01*
X75280794Y-71929155D01*
G37*
G36*
X76167000Y-55385000D02*
G01*
X73965000Y-55385000D01*
X73965000Y-53183000D01*
X76167000Y-53183000D01*
X76167000Y-55385000D01*
G37*
G36*
X75280794Y-48204155D02*
G01*
X75387150Y-48225311D01*
X75487334Y-48266809D01*
X75587520Y-48308307D01*
X75767844Y-48428795D01*
X75921205Y-48582156D01*
X76041693Y-48762480D01*
X76124689Y-48962851D01*
X76167000Y-49175560D01*
X76167000Y-49392440D01*
X76124689Y-49605149D01*
X76041693Y-49805520D01*
X75921205Y-49985844D01*
X75767844Y-50139205D01*
X75587520Y-50259693D01*
X75387150Y-50342689D01*
X75280795Y-50363844D01*
X75174440Y-50385000D01*
X74957560Y-50385000D01*
X74851205Y-50363844D01*
X74744850Y-50342689D01*
X74544480Y-50259693D01*
X74364156Y-50139205D01*
X74210795Y-49985844D01*
X74090307Y-49805520D01*
X74007311Y-49605149D01*
X73965000Y-49392440D01*
X73965000Y-49175560D01*
X74007311Y-48962851D01*
X74090307Y-48762480D01*
X74210795Y-48582156D01*
X74364156Y-48428795D01*
X74544480Y-48308307D01*
X74644666Y-48266809D01*
X74744850Y-48225311D01*
X74851206Y-48204155D01*
X74957560Y-48183000D01*
X75174440Y-48183000D01*
X75280794Y-48204155D01*
G37*
G36*
X118230903Y-42581075D02*
G01*
X118458571Y-42675378D01*
X118663466Y-42812285D01*
X118837715Y-42986534D01*
X118837716Y-42986536D01*
X118974623Y-43191431D01*
X119068925Y-43419097D01*
X119117000Y-43660786D01*
X119117000Y-43907214D01*
X119068925Y-44148903D01*
X119007393Y-44297456D01*
X118974622Y-44376571D01*
X118837715Y-44581466D01*
X118663466Y-44755715D01*
X118458571Y-44892622D01*
X118458570Y-44892623D01*
X118458569Y-44892623D01*
X118230903Y-44986925D01*
X117989214Y-45035000D01*
X117742786Y-45035000D01*
X117501097Y-44986925D01*
X117273431Y-44892623D01*
X117273430Y-44892623D01*
X117273429Y-44892622D01*
X117068534Y-44755715D01*
X116894285Y-44581466D01*
X116757378Y-44376571D01*
X116724608Y-44297456D01*
X116663075Y-44148903D01*
X116615000Y-43907214D01*
X116615000Y-43660786D01*
X116663075Y-43419097D01*
X116757377Y-43191431D01*
X116894284Y-42986536D01*
X116894285Y-42986534D01*
X117068534Y-42812285D01*
X117273429Y-42675378D01*
X117501097Y-42581075D01*
X117742786Y-42533000D01*
X117989214Y-42533000D01*
X118230903Y-42581075D01*
G37*
G36*
X114117000Y-45035000D02*
G01*
X111615000Y-45035000D01*
X111615000Y-42533000D01*
X114117000Y-42533000D01*
X114117000Y-45035000D01*
G37*
G36*
X241022202Y-39287781D02*
G01*
X241297606Y-39342562D01*
X241816455Y-39557476D01*
X242283407Y-39869484D01*
X242680516Y-40266593D01*
X242992524Y-40733545D01*
X243207438Y-41252394D01*
X243207438Y-41252395D01*
X243314860Y-41792439D01*
X243317000Y-41803201D01*
X243317000Y-42364799D01*
X243207438Y-42915606D01*
X242992524Y-43434455D01*
X242680516Y-43901407D01*
X242283407Y-44298516D01*
X241816455Y-44610524D01*
X241297606Y-44825438D01*
X241022202Y-44880219D01*
X240746800Y-44935000D01*
X240185200Y-44935000D01*
X239634394Y-44825438D01*
X239115545Y-44610524D01*
X238648593Y-44298516D01*
X238251484Y-43901407D01*
X237939476Y-43434455D01*
X237724562Y-42915606D01*
X237615000Y-42364799D01*
X237615000Y-41803201D01*
X237617141Y-41792439D01*
X237724562Y-41252395D01*
X237724562Y-41252394D01*
X237939476Y-40733545D01*
X238251484Y-40266593D01*
X238648593Y-39869484D01*
X239115545Y-39557476D01*
X239634394Y-39342562D01*
X239909798Y-39287781D01*
X240185200Y-39233000D01*
X240746800Y-39233000D01*
X241022202Y-39287781D01*
G37*
G36*
X146022202Y-39287781D02*
G01*
X146297606Y-39342562D01*
X146816455Y-39557476D01*
X147283407Y-39869484D01*
X147680516Y-40266593D01*
X147992524Y-40733545D01*
X148207438Y-41252394D01*
X148207438Y-41252395D01*
X148314860Y-41792439D01*
X148317000Y-41803201D01*
X148317000Y-42364799D01*
X148207438Y-42915606D01*
X147992524Y-43434455D01*
X147680516Y-43901407D01*
X147283407Y-44298516D01*
X146816455Y-44610524D01*
X146297606Y-44825438D01*
X146022202Y-44880219D01*
X145746800Y-44935000D01*
X145185200Y-44935000D01*
X144634394Y-44825438D01*
X144115545Y-44610524D01*
X143648593Y-44298516D01*
X143251484Y-43901407D01*
X142939476Y-43434455D01*
X142724562Y-42915606D01*
X142615000Y-42364799D01*
X142615000Y-41803201D01*
X142617141Y-41792439D01*
X142724562Y-41252395D01*
X142724562Y-41252394D01*
X142939476Y-40733545D01*
X143251484Y-40266593D01*
X143648593Y-39869484D01*
X144115545Y-39557476D01*
X144634394Y-39342562D01*
X144909798Y-39287781D01*
X145185200Y-39233000D01*
X145746800Y-39233000D01*
X146022202Y-39287781D01*
G37*
G36*
X76022202Y-39287781D02*
G01*
X76297606Y-39342562D01*
X76816455Y-39557476D01*
X77283407Y-39869484D01*
X77680516Y-40266593D01*
X77992524Y-40733545D01*
X78207438Y-41252394D01*
X78207438Y-41252395D01*
X78314860Y-41792439D01*
X78317000Y-41803201D01*
X78317000Y-42364799D01*
X78207438Y-42915606D01*
X77992524Y-43434455D01*
X77680516Y-43901407D01*
X77283407Y-44298516D01*
X76816455Y-44610524D01*
X76297606Y-44825438D01*
X76022202Y-44880219D01*
X75746800Y-44935000D01*
X75185200Y-44935000D01*
X74634394Y-44825438D01*
X74115545Y-44610524D01*
X73648593Y-44298516D01*
X73251484Y-43901407D01*
X72939476Y-43434455D01*
X72724562Y-42915606D01*
X72615000Y-42364799D01*
X72615000Y-41803201D01*
X72617141Y-41792439D01*
X72724562Y-41252395D01*
X72724562Y-41252394D01*
X72939476Y-40733545D01*
X73251484Y-40266593D01*
X73648593Y-39869484D01*
X74115545Y-39557476D01*
X74634394Y-39342562D01*
X74909798Y-39287781D01*
X75185200Y-39233000D01*
X75746800Y-39233000D01*
X76022202Y-39287781D01*
G37*
G36*
X130974512Y-42602927D02*
G01*
X131123812Y-42632624D01*
X131287784Y-42700544D01*
X131435354Y-42799147D01*
X131560853Y-42924646D01*
X131659456Y-43072216D01*
X131727376Y-43236188D01*
X131762000Y-43410259D01*
X131762000Y-43587741D01*
X131727376Y-43761812D01*
X131659456Y-43925784D01*
X131560853Y-44073354D01*
X131435354Y-44198853D01*
X131287784Y-44297456D01*
X131123812Y-44365376D01*
X130974512Y-44395073D01*
X130949742Y-44400000D01*
X130772258Y-44400000D01*
X130747488Y-44395073D01*
X130598188Y-44365376D01*
X130434216Y-44297456D01*
X130286646Y-44198853D01*
X130161147Y-44073354D01*
X130062544Y-43925784D01*
X129994624Y-43761812D01*
X129960000Y-43587741D01*
X129960000Y-43410259D01*
X129994624Y-43236188D01*
X130062544Y-43072216D01*
X130161147Y-42924646D01*
X130286646Y-42799147D01*
X130434216Y-42700544D01*
X130598188Y-42632624D01*
X130747488Y-42602927D01*
X130772258Y-42598000D01*
X130949742Y-42598000D01*
X130974512Y-42602927D01*
G37*
G36*
X128434512Y-42602927D02*
G01*
X128583812Y-42632624D01*
X128747784Y-42700544D01*
X128895354Y-42799147D01*
X129020853Y-42924646D01*
X129119456Y-43072216D01*
X129187376Y-43236188D01*
X129222000Y-43410259D01*
X129222000Y-43587741D01*
X129187376Y-43761812D01*
X129119456Y-43925784D01*
X129020853Y-44073354D01*
X128895354Y-44198853D01*
X128747784Y-44297456D01*
X128583812Y-44365376D01*
X128434512Y-44395073D01*
X128409742Y-44400000D01*
X128232258Y-44400000D01*
X128207488Y-44395073D01*
X128058188Y-44365376D01*
X127894216Y-44297456D01*
X127746646Y-44198853D01*
X127621147Y-44073354D01*
X127522544Y-43925784D01*
X127454624Y-43761812D01*
X127420000Y-43587741D01*
X127420000Y-43410259D01*
X127454624Y-43236188D01*
X127522544Y-43072216D01*
X127621147Y-42924646D01*
X127746646Y-42799147D01*
X127894216Y-42700544D01*
X128058188Y-42632624D01*
X128207488Y-42602927D01*
X128232258Y-42598000D01*
X128409742Y-42598000D01*
X128434512Y-42602927D01*
G37*
G36*
X133514512Y-42602927D02*
G01*
X133663812Y-42632624D01*
X133827784Y-42700544D01*
X133975354Y-42799147D01*
X134100853Y-42924646D01*
X134199456Y-43072216D01*
X134267376Y-43236188D01*
X134302000Y-43410259D01*
X134302000Y-43587741D01*
X134267376Y-43761812D01*
X134199456Y-43925784D01*
X134100853Y-44073354D01*
X133975354Y-44198853D01*
X133827784Y-44297456D01*
X133663812Y-44365376D01*
X133514512Y-44395073D01*
X133489742Y-44400000D01*
X133312258Y-44400000D01*
X133287488Y-44395073D01*
X133138188Y-44365376D01*
X132974216Y-44297456D01*
X132826646Y-44198853D01*
X132701147Y-44073354D01*
X132602544Y-43925784D01*
X132534624Y-43761812D01*
X132500000Y-43587741D01*
X132500000Y-43410259D01*
X132534624Y-43236188D01*
X132602544Y-43072216D01*
X132701147Y-42924646D01*
X132826646Y-42799147D01*
X132974216Y-42700544D01*
X133138188Y-42632624D01*
X133287488Y-42602927D01*
X133312258Y-42598000D01*
X133489742Y-42598000D01*
X133514512Y-42602927D01*
G37*
G36*
X136054512Y-42602927D02*
G01*
X136203812Y-42632624D01*
X136367784Y-42700544D01*
X136515354Y-42799147D01*
X136640853Y-42924646D01*
X136739456Y-43072216D01*
X136807376Y-43236188D01*
X136842000Y-43410259D01*
X136842000Y-43587741D01*
X136807376Y-43761812D01*
X136739456Y-43925784D01*
X136640853Y-44073354D01*
X136515354Y-44198853D01*
X136367784Y-44297456D01*
X136203812Y-44365376D01*
X136054512Y-44395073D01*
X136029742Y-44400000D01*
X135852258Y-44400000D01*
X135827488Y-44395073D01*
X135678188Y-44365376D01*
X135514216Y-44297456D01*
X135366646Y-44198853D01*
X135241147Y-44073354D01*
X135142544Y-43925784D01*
X135074624Y-43761812D01*
X135040000Y-43587741D01*
X135040000Y-43410259D01*
X135074624Y-43236188D01*
X135142544Y-43072216D01*
X135241147Y-42924646D01*
X135366646Y-42799147D01*
X135514216Y-42700544D01*
X135678188Y-42632624D01*
X135827488Y-42602927D01*
X135852258Y-42598000D01*
X136029742Y-42598000D01*
X136054512Y-42602927D01*
G37*
G36*
X205180794Y-40604155D02*
G01*
X205287150Y-40625311D01*
X205387334Y-40666809D01*
X205487520Y-40708307D01*
X205667844Y-40828795D01*
X205821205Y-40982156D01*
X205941693Y-41162480D01*
X206024689Y-41362851D01*
X206067000Y-41575560D01*
X206067000Y-41792440D01*
X206024689Y-42005149D01*
X205941693Y-42205520D01*
X205821205Y-42385844D01*
X205667844Y-42539205D01*
X205487520Y-42659693D01*
X205387334Y-42701191D01*
X205287150Y-42742689D01*
X205180794Y-42763845D01*
X205074440Y-42785000D01*
X204857560Y-42785000D01*
X204751206Y-42763845D01*
X204644850Y-42742689D01*
X204444480Y-42659693D01*
X204264156Y-42539205D01*
X204110795Y-42385844D01*
X203990307Y-42205520D01*
X203907311Y-42005149D01*
X203865000Y-41792440D01*
X203865000Y-41575560D01*
X203907311Y-41362851D01*
X203990307Y-41162480D01*
X204110795Y-40982156D01*
X204264156Y-40828795D01*
X204444480Y-40708307D01*
X204644850Y-40625311D01*
X204751206Y-40604155D01*
X204857560Y-40583000D01*
X205074440Y-40583000D01*
X205180794Y-40604155D01*
G37*
G36*
X186067000Y-42785000D02*
G01*
X183865000Y-42785000D01*
X183865000Y-40583000D01*
X186067000Y-40583000D01*
X186067000Y-42785000D01*
G37*
G36*
X190180794Y-40604155D02*
G01*
X190287150Y-40625311D01*
X190387334Y-40666809D01*
X190487520Y-40708307D01*
X190667844Y-40828795D01*
X190821205Y-40982156D01*
X190941693Y-41162480D01*
X191024689Y-41362851D01*
X191067000Y-41575560D01*
X191067000Y-41792440D01*
X191024689Y-42005149D01*
X190941693Y-42205520D01*
X190821205Y-42385844D01*
X190667844Y-42539205D01*
X190487520Y-42659693D01*
X190387334Y-42701191D01*
X190287150Y-42742689D01*
X190180794Y-42763845D01*
X190074440Y-42785000D01*
X189857560Y-42785000D01*
X189751206Y-42763845D01*
X189644850Y-42742689D01*
X189444480Y-42659693D01*
X189264156Y-42539205D01*
X189110795Y-42385844D01*
X188990307Y-42205520D01*
X188907311Y-42005149D01*
X188865000Y-41792440D01*
X188865000Y-41575560D01*
X188907311Y-41362851D01*
X188990307Y-41162480D01*
X189110795Y-40982156D01*
X189264156Y-40828795D01*
X189444480Y-40708307D01*
X189644850Y-40625311D01*
X189751206Y-40604155D01*
X189857560Y-40583000D01*
X190074440Y-40583000D01*
X190180794Y-40604155D01*
G37*
G36*
X195180794Y-40604155D02*
G01*
X195287150Y-40625311D01*
X195387334Y-40666809D01*
X195487520Y-40708307D01*
X195667844Y-40828795D01*
X195821205Y-40982156D01*
X195941693Y-41162480D01*
X196024689Y-41362851D01*
X196067000Y-41575560D01*
X196067000Y-41792440D01*
X196024689Y-42005149D01*
X195941693Y-42205520D01*
X195821205Y-42385844D01*
X195667844Y-42539205D01*
X195487520Y-42659693D01*
X195387334Y-42701191D01*
X195287150Y-42742689D01*
X195180794Y-42763845D01*
X195074440Y-42785000D01*
X194857560Y-42785000D01*
X194751206Y-42763845D01*
X194644850Y-42742689D01*
X194444480Y-42659693D01*
X194264156Y-42539205D01*
X194110795Y-42385844D01*
X193990307Y-42205520D01*
X193907311Y-42005149D01*
X193865000Y-41792440D01*
X193865000Y-41575560D01*
X193907311Y-41362851D01*
X193990307Y-41162480D01*
X194110795Y-40982156D01*
X194264156Y-40828795D01*
X194444480Y-40708307D01*
X194644850Y-40625311D01*
X194751206Y-40604155D01*
X194857560Y-40583000D01*
X195074440Y-40583000D01*
X195180794Y-40604155D01*
G37*
G36*
X200180794Y-40604155D02*
G01*
X200287150Y-40625311D01*
X200387334Y-40666809D01*
X200487520Y-40708307D01*
X200667844Y-40828795D01*
X200821205Y-40982156D01*
X200941693Y-41162480D01*
X201024689Y-41362851D01*
X201067000Y-41575560D01*
X201067000Y-41792440D01*
X201024689Y-42005149D01*
X200941693Y-42205520D01*
X200821205Y-42385844D01*
X200667844Y-42539205D01*
X200487520Y-42659693D01*
X200387334Y-42701191D01*
X200287150Y-42742689D01*
X200180794Y-42763845D01*
X200074440Y-42785000D01*
X199857560Y-42785000D01*
X199751206Y-42763845D01*
X199644850Y-42742689D01*
X199444480Y-42659693D01*
X199264156Y-42539205D01*
X199110795Y-42385844D01*
X198990307Y-42205520D01*
X198907311Y-42005149D01*
X198865000Y-41792440D01*
X198865000Y-41575560D01*
X198907311Y-41362851D01*
X198990307Y-41162480D01*
X199110795Y-40982156D01*
X199264156Y-40828795D01*
X199444480Y-40708307D01*
X199644850Y-40625311D01*
X199751206Y-40604155D01*
X199857560Y-40583000D01*
X200074440Y-40583000D01*
X200180794Y-40604155D01*
G37*
G36*
X210180794Y-40604155D02*
G01*
X210287150Y-40625311D01*
X210387334Y-40666809D01*
X210487520Y-40708307D01*
X210667844Y-40828795D01*
X210821205Y-40982156D01*
X210941693Y-41162480D01*
X211024689Y-41362851D01*
X211067000Y-41575560D01*
X211067000Y-41792440D01*
X211024689Y-42005149D01*
X210941693Y-42205520D01*
X210821205Y-42385844D01*
X210667844Y-42539205D01*
X210487520Y-42659693D01*
X210387334Y-42701191D01*
X210287150Y-42742689D01*
X210180794Y-42763845D01*
X210074440Y-42785000D01*
X209857560Y-42785000D01*
X209751206Y-42763845D01*
X209644850Y-42742689D01*
X209444480Y-42659693D01*
X209264156Y-42539205D01*
X209110795Y-42385844D01*
X208990307Y-42205520D01*
X208907311Y-42005149D01*
X208865000Y-41792440D01*
X208865000Y-41575560D01*
X208907311Y-41362851D01*
X208990307Y-41162480D01*
X209110795Y-40982156D01*
X209264156Y-40828795D01*
X209444480Y-40708307D01*
X209644850Y-40625311D01*
X209751206Y-40604155D01*
X209857560Y-40583000D01*
X210074440Y-40583000D01*
X210180794Y-40604155D01*
G37*
G36*
X136842000Y-41860000D02*
G01*
X135040000Y-41860000D01*
X135040000Y-40058000D01*
X136842000Y-40058000D01*
X136842000Y-41860000D01*
G37*
G36*
X133514512Y-40062927D02*
G01*
X133663812Y-40092624D01*
X133827784Y-40160544D01*
X133975354Y-40259147D01*
X134100853Y-40384646D01*
X134199456Y-40532216D01*
X134267376Y-40696188D01*
X134302000Y-40870259D01*
X134302000Y-41047741D01*
X134267376Y-41221812D01*
X134199456Y-41385784D01*
X134100853Y-41533354D01*
X133975354Y-41658853D01*
X133827784Y-41757456D01*
X133663812Y-41825376D01*
X133514512Y-41855073D01*
X133489742Y-41860000D01*
X133312258Y-41860000D01*
X133287488Y-41855073D01*
X133138188Y-41825376D01*
X132974216Y-41757456D01*
X132826646Y-41658853D01*
X132701147Y-41533354D01*
X132602544Y-41385784D01*
X132534624Y-41221812D01*
X132500000Y-41047741D01*
X132500000Y-40870259D01*
X132534624Y-40696188D01*
X132602544Y-40532216D01*
X132701147Y-40384646D01*
X132826646Y-40259147D01*
X132974216Y-40160544D01*
X133138188Y-40092624D01*
X133287488Y-40062927D01*
X133312258Y-40058000D01*
X133489742Y-40058000D01*
X133514512Y-40062927D01*
G37*
G36*
X130974512Y-40062927D02*
G01*
X131123812Y-40092624D01*
X131287784Y-40160544D01*
X131435354Y-40259147D01*
X131560853Y-40384646D01*
X131659456Y-40532216D01*
X131727376Y-40696188D01*
X131762000Y-40870259D01*
X131762000Y-41047741D01*
X131727376Y-41221812D01*
X131659456Y-41385784D01*
X131560853Y-41533354D01*
X131435354Y-41658853D01*
X131287784Y-41757456D01*
X131123812Y-41825376D01*
X130974512Y-41855073D01*
X130949742Y-41860000D01*
X130772258Y-41860000D01*
X130747488Y-41855073D01*
X130598188Y-41825376D01*
X130434216Y-41757456D01*
X130286646Y-41658853D01*
X130161147Y-41533354D01*
X130062544Y-41385784D01*
X129994624Y-41221812D01*
X129960000Y-41047741D01*
X129960000Y-40870259D01*
X129994624Y-40696188D01*
X130062544Y-40532216D01*
X130161147Y-40384646D01*
X130286646Y-40259147D01*
X130434216Y-40160544D01*
X130598188Y-40092624D01*
X130747488Y-40062927D01*
X130772258Y-40058000D01*
X130949742Y-40058000D01*
X130974512Y-40062927D01*
G37*
G36*
X128434512Y-40062927D02*
G01*
X128583812Y-40092624D01*
X128747784Y-40160544D01*
X128895354Y-40259147D01*
X129020853Y-40384646D01*
X129119456Y-40532216D01*
X129187376Y-40696188D01*
X129222000Y-40870259D01*
X129222000Y-41047741D01*
X129187376Y-41221812D01*
X129119456Y-41385784D01*
X129020853Y-41533354D01*
X128895354Y-41658853D01*
X128747784Y-41757456D01*
X128583812Y-41825376D01*
X128434512Y-41855073D01*
X128409742Y-41860000D01*
X128232258Y-41860000D01*
X128207488Y-41855073D01*
X128058188Y-41825376D01*
X127894216Y-41757456D01*
X127746646Y-41658853D01*
X127621147Y-41533354D01*
X127522544Y-41385784D01*
X127454624Y-41221812D01*
X127420000Y-41047741D01*
X127420000Y-40870259D01*
X127454624Y-40696188D01*
X127522544Y-40532216D01*
X127621147Y-40384646D01*
X127746646Y-40259147D01*
X127894216Y-40160544D01*
X128058188Y-40092624D01*
X128207488Y-40062927D01*
X128232258Y-40058000D01*
X128409742Y-40058000D01*
X128434512Y-40062927D01*
G37*
M02*
