M48
; DRILL file {KiCad (5.1.6)-1} date 07/13/20 14:49:28
; FORMAT={-:-/ absolute / inch / decimal}
; #@! TF.CreationDate,2020-07-13T14:49:28+02:00
; #@! TF.GenerationSoftware,Kicad,Pcbnew,(5.1.6)-1
FMAT,2
INCH
T1C0.0118
T2C0.0295
T3C0.0315
T4C0.0354
T5C0.0394
T6C0.0433
T7C0.0472
T8C0.0512
T9C0.1248
T10C0.1260
T11C0.1063
%
G90
G05
T1
X2.0676Y-2.3163
X2.1434Y-1.8567
X2.1443Y-2.0102
X2.2343Y-1.8567
X2.2349Y-2.0102
X2.2743Y-3.1322
X2.2743Y-3.211
X2.3176Y-1.833
X2.3195Y-3.6785
X2.4092Y-3.3517
X2.4613Y-1.9226
X2.4917Y-4.0466
X2.4967Y-3.9669
X2.54Y-1.9226
X2.5518Y-3.6628
X2.5577Y-2.0574
X2.5813Y-4.646
X2.6286Y-3.333
X2.6286Y-3.4905
X2.6404Y-1.8252
X2.6404Y-2.1086
X2.6955Y-1.9708
X2.7093Y-4.5456
X2.7113Y-2.1795
X2.7191Y-2.0771
X2.7231Y-1.8055
X2.7231Y-1.8685
X2.7388Y-1.6283
X2.7743Y-3.7631
X2.7743Y-3.8222
X2.7861Y-2.2661
X2.7861Y-2.3055
X2.79Y-4.5456
X2.8254Y-3.338
X2.8294Y-1.9157
X2.8333Y-3.4679
X2.8333Y-3.5269
X2.8412Y-4.0702
X2.8648Y-2.1559
X2.8727Y-1.4039
X2.8727Y-4.5437
X2.8769Y-1.5651
X2.9002Y-1.6952
X2.9101Y-1.9755
X2.9376Y-4.646
X2.9396Y-2.0102
X2.9396Y-2.1913
X2.9396Y-3.4836
X2.9396Y-4.5456
X2.9514Y-4.3065
X2.9849Y-4.0131
X2.9908Y-3.4859
X2.9928Y-4.8606
X3.0243Y-3.2189
X3.0341Y-3.7887
X3.042Y-3.7415
X3.0498Y-1.5102
X3.0577Y-1.6441
X3.0577Y-3.8576
X3.0617Y-3.5092
X3.0617Y-3.5525
X3.0656Y-1.9472
X3.0779Y-4.2198
X3.0872Y-4.0131
X3.0872Y-4.646
X3.0931Y-3.8557
X3.1089Y-1.9708
X3.1128Y-3.3478
X3.1168Y-2.3645
X3.1246Y-4.1313
X3.1266Y-4.2448
X3.1443Y-1.9984
X3.1518Y-3.3377
X3.1522Y-2.1401
X3.1581Y-3.2809
X3.1717Y-1.7966
X3.1729Y-4.8754
X3.1739Y-4.6441
X3.1778Y-1.8724
X3.1798Y-1.7661
X3.1955Y-3.2799
X3.1975Y-3.3675
X3.1985Y-1.8271
X3.2172Y-3.6726
X3.225Y-3.6017
X3.2398Y-1.5742
X3.2428Y-3.2779
X3.2428Y-3.3734
X3.263Y-4.0649
X3.2644Y-4.2907
X3.2664Y-2.9403
X3.2762Y-4.5466
X3.2782Y-1.8212
X3.2782Y-2.1165
X3.2782Y-3.3517
X3.2802Y-4.5013
X3.288Y-4.645
X3.288Y-3.5998
X3.292Y-4.8744
X3.3018Y-4.2526
X3.3117Y-2.0161
X3.3177Y-4.4737
X3.3215Y-1.9354
X3.3254Y-3.8852
X3.3341Y-3.6194
X3.3431Y-3.7002
X3.3727Y-4.6824
X3.3845Y-1.7582
X3.4061Y-4.6431
X3.4085Y-4.0155
X3.4091Y-4.8754
X3.4101Y-3.5722
X3.418Y-3.6214
X3.4298Y-4.2946
X3.4416Y-3.8498
X3.4416Y-4.2061
X3.451Y-4.0226
X3.4554Y-2.1244
X3.4554Y-3.6982
X3.4593Y-3.5742
X3.4947Y-2.1244
X3.4987Y-3.7139
X3.5026Y-4.6746
X3.5046Y-4.1017
X3.5223Y-3.4285
X3.538Y-2.1244
X3.538Y-3.7139
X3.5518Y-4.6746
X3.5695Y-1.8881
X3.5735Y-2.1244
X3.5813Y-2.085
X3.601Y-3.4285
X3.603Y-2.7887
X3.603Y-2.8675
X3.603Y-2.9462
X3.6128Y-3.1775
X3.6522Y-2.1086
X3.6561Y-4.0296
X3.6566Y-4.0727
X3.6581Y-3.8297
X3.6699Y-3.897
X3.6798Y-3.4285
X3.6837Y-4.0123
X3.6857Y-4.6726
X3.6857Y-4.708
X3.6916Y-2.1086
X3.6955Y-3.9462
X3.7073Y-4.1391
X3.725Y-4.6726
X3.725Y-4.708
X3.729Y-4.1844
X3.7309Y-2.1086
X3.7428Y-2.6598
X3.7703Y-2.1086
X3.7821Y-4.0407
X3.7821Y-4.0742
X3.8038Y-4.712
X3.8087Y-4.4433
X3.8097Y-2.1086
X3.8372Y-4.1943
X3.8431Y-3.9482
X3.8431Y-4.6293
X3.8491Y-2.1086
X3.8677Y-4.4728
X3.8766Y-2.8773
X3.8766Y-3.4285
X3.8924Y-3.6952
X3.8924Y-4.3596
X3.912Y-3.8065
X3.912Y-3.8458
X3.912Y-3.8852
X3.912Y-3.9246
X3.921Y-2.7041
X3.9317Y-2.3645
X3.9514Y-3.7257
X3.9514Y-3.7671
X3.9514Y-3.8065
X3.9514Y-3.8458
X3.9514Y-3.8852
X3.9514Y-3.9246
X3.9514Y-3.9639
X3.9514Y-4.0013
X3.9554Y-2.8773
X3.9554Y-3.4285
X4.0223Y-4.3655
X4.0243Y-4.3045
X4.0341Y-2.8773
X4.0341Y-3.4285
X4.0341Y-4.6096
X4.0912Y-3.3006
X4.1128Y-4.6096
X4.1424Y-4.5368
X4.1798Y-2.838
X4.1916Y-3.1293
X4.1916Y-3.1647
X4.2388Y-3.1293
X4.2388Y-3.1647
X4.3057Y-3.1883
X4.3451Y-3.1883
X4.3668Y-4.5368
X4.3845Y-3.1135
X4.3845Y-3.1569
X4.4278Y-4.2946
X4.4632Y-2.9206
X4.5026Y-2.9206
X4.542Y-2.9206
X4.5459Y-4.2946
X4.5459Y-4.3734
X4.5498Y-4.4679
X4.5567Y-4.5673
X4.5813Y-2.9206
X4.6207Y-2.9206
X4.6443Y-4.6549
X4.6522Y-4.6116
X4.664Y-4.2946
X4.6817Y-4.4659
X4.7132Y-4.6726
X5.0971Y-2.4836
X5.1365Y-2.4836
X5.1699Y-4.3852
X5.1758Y-2.4836
X5.2152Y-2.4836
X5.2487Y-4.3852
X5.2644Y-2.6155
X5.3038Y-2.6155
X5.3431Y-2.6155
X5.4455Y-2.9285
X5.4455Y-2.9698
X5.4455Y-3.0466
X5.4455Y-3.1254
X5.4455Y-4.3852
X5.5243Y-2.9285
X5.5243Y-2.9698
X5.5243Y-3.0466
X5.5243Y-3.1254
X5.5243Y-4.3852
X5.603Y-2.9285
X5.603Y-2.9698
X5.603Y-3.0466
X5.603Y-3.1254
X5.6187Y-1.7494
X5.6187Y-1.8281
X5.6187Y-1.9069
X5.6581Y-1.7887
X5.6581Y-1.8675
X5.6581Y-1.9462
X5.6778Y-2.9698
X5.7821Y-3.5565
X5.8589Y-3.659
X5.8943Y-3.2454
X5.8943Y-3.2848
X5.8951Y-3.6553
X5.9337Y-3.2454
X5.9337Y-3.2848
X5.9731Y-3.2061
X5.9731Y-3.2454
X5.9731Y-3.2848
X5.9731Y-3.3242
X6.0124Y-3.2061
X6.0124Y-3.2454
X6.0124Y-3.2848
X6.0124Y-3.3242
X6.0518Y-3.2061
X6.0518Y-3.2454
X6.0518Y-3.2848
X6.0518Y-3.3242
X6.0912Y-3.2061
X6.0912Y-3.2454
X6.0912Y-3.2848
X6.0912Y-3.3242
X6.0991Y-3.6903
X6.1Y-3.4531
X6.1306Y-3.2061
X6.1306Y-3.2454
X6.1306Y-3.2848
X6.1306Y-3.3242
X6.1502Y-3.5565
X6.1699Y-3.2061
X6.1699Y-3.2454
X6.1699Y-3.2848
X6.1699Y-3.3242
X6.1896Y-3.5754
X6.2093Y-3.2454
X6.2093Y-3.2848
X6.2467Y-4.5427
X6.2487Y-3.2454
X6.2487Y-3.2848
X6.2674Y-3.5574
X6.2723Y-4.8183
X6.3412Y-4.9267
X6.3413Y-4.9857
X6.351Y-3.0899
X6.351Y-4.8183
X6.3904Y-4.6608
X6.4298Y-3.086
X6.4672Y-3.1076
X6.4672Y-3.145
X6.475Y-3.7828
X6.4849Y-1.7887
X6.4849Y-1.8675
X6.4849Y-1.9462
X6.5046Y-3.1076
X6.5046Y-3.147
X6.5243Y-1.7494
X6.5243Y-1.8281
X6.5243Y-1.9069
X6.5439Y-3.1076
X6.5459Y-3.147
X6.5538Y-3.7828
X6.5872Y-3.086
X6.5912Y-3.3793
X6.6069Y-3.5328
X6.6345Y-5.0427
X6.666Y-3.086
X6.6798Y-5.0446
X6.6916Y-3.6687
X6.7132Y-4.9895
X6.7211Y-3.2848
X6.725Y-5.0348
X6.725Y-5.0742
X6.7565Y-4.9935
X6.7998Y-3.2061
X6.7998Y-3.2454
X6.7998Y-3.2848
X6.7998Y-3.3242
X6.8392Y-3.2061
X6.8392Y-3.3242
X6.855Y-4.9974
X6.8687Y-5.1116
X6.8786Y-3.2061
X6.8786Y-3.3242
X6.918Y-3.2061
X6.918Y-3.2454
X6.918Y-3.2848
X6.918Y-3.3242
X6.9431Y-4.8936
X6.9573Y-3.2061
X6.9573Y-3.2454
X6.9573Y-3.2848
X6.9573Y-3.3242
X6.9849Y-3.7179
X6.9967Y-3.2061
X6.9967Y-3.2454
X6.9967Y-3.2848
X6.9967Y-3.3242
X7.0361Y-3.2061
X7.0361Y-3.2454
X7.0361Y-3.2848
X7.0361Y-3.3242
X7.0557Y-3.5683
X7.0754Y-3.2454
X7.0754Y-3.2848
X7.1148Y-3.2454
X7.1148Y-3.2848
X7.162Y-3.4226
X7.1699Y-4.7848
X7.2152Y-4.2257
X7.3353Y-2.9679
X7.3353Y-3.086
X7.351Y-1.7887
X7.351Y-1.8675
X7.351Y-1.9462
X7.3904Y-1.7494
X7.3904Y-1.8281
X7.3904Y-1.9069
X7.414Y-2.9679
X7.414Y-3.086
X7.4928Y-2.9679
X7.4928Y-3.086
X7.538Y-4.6883
X7.538Y-4.7671
X7.538Y-5.0427
X7.538Y-5.1214
X7.5774Y-4.1372
X7.6896Y-2.9679
X7.6896Y-3.086
X7.7683Y-2.9698
X7.7683Y-3.086
X7.8136Y-4.5309
X7.8136Y-4.6096
X7.8471Y-2.9698
X7.8471Y-3.086
X7.9258Y-2.9718
X7.9258Y-3.086
X7.9711Y-4.4521
X7.9711Y-4.5309
X7.9711Y-4.6096
X8.0203Y-2.1824
X8.0203Y-2.2612
X8.0203Y-2.3399
X8.0203Y-2.4187
X8.0656Y-4.2159
X8.0991Y-2.1824
X8.0991Y-2.2612
X8.0991Y-2.3399
X8.0991Y-2.4187
X3.025Y-1.7689
X3.025Y-1.8055
X3.025Y-1.8421
X3.0617Y-1.7689
X3.0617Y-1.8055
X3.0617Y-1.8421
X3.0983Y-1.7689
X3.0983Y-1.8055
X3.0983Y-1.8421
T2
X3.6561Y-4.3734
X3.7061Y-4.3734
X3.7561Y-4.3734
T3
X4.5695Y-3.1962
X4.668Y-3.1962
X4.7664Y-3.1962
X5.5439Y-4.8734
X5.7408Y-4.8734
X7.2349Y-4.6293
X7.4317Y-4.6293
X4.9711Y-2.9954
X4.9711Y-3.0939
X5.2552Y-4.2828
X5.2552Y-4.4797
X6.6128Y-4.6293
X6.8097Y-4.6293
X6.9239Y-4.6293
X7.1207Y-4.6293
X5.0209Y-4.6017
X5.0209Y-4.7986
X6.3018Y-4.6293
X6.4987Y-4.6293
X5.542Y-5.0939
X5.7388Y-5.0939
X6.1837Y-4.0978
X6.3806Y-4.0978
X5.2552Y-4.6017
X5.2552Y-4.7986
X6.0164Y-4.0112
X6.0164Y-4.208
X7.2683Y-4.0998
X7.4652Y-4.0998
X5.5459Y-4.6588
X5.7428Y-4.6588
X7.0754Y-4.0112
X7.0754Y-4.208
X6.5341Y-4.0092
X6.5341Y-4.2061
X6.6994Y-4.1017
X6.8963Y-4.1017
X5.0209Y-4.2828
X5.0209Y-4.4797
T4
X3.4991Y-4.5525
X3.5991Y-4.5525
T5
X2.1246Y-4.2169
X2.1246Y-4.3169
X2.1246Y-4.4169
X2.1246Y-4.5169
X2.1246Y-4.6169
X2.2246Y-4.2169
X2.2246Y-4.3169
X2.2246Y-4.4169
X2.2246Y-4.5169
X2.2246Y-4.6169
X2.4124Y-3.025
X2.5124Y-3.025
X4.5884Y-3.4344
X4.5884Y-3.5344
X4.6884Y-3.4344
X4.6884Y-3.5344
X4.7884Y-3.4344
X4.7884Y-3.5344
X4.8884Y-3.4344
X4.8884Y-3.5344
X5.9849Y-5.1037
X6.0849Y-5.1037
X6.1849Y-5.1037
X4.4841Y-1.3675
X4.4841Y-1.4675
X4.5841Y-1.3675
X4.5841Y-1.4675
X4.6841Y-1.3675
X4.6841Y-1.4675
X4.7841Y-1.3675
X4.7841Y-1.4675
X2.1246Y-3.8084
X2.2246Y-3.8084
X2.125Y-4.0771
X2.225Y-4.0771
X7.7073Y-4.6076
X7.7073Y-4.7076
X6.5676Y-4.3521
X6.5676Y-4.4521
X6.6676Y-4.3521
X6.6676Y-4.4521
X6.7676Y-4.3521
X6.7676Y-4.4521
X6.8676Y-4.3521
X6.8676Y-4.4521
X6.9676Y-4.3521
X6.9676Y-4.4521
X7.0676Y-4.3521
X7.0676Y-4.4521
X2.4219Y-4.9909
X2.4219Y-5.0909
X2.5219Y-4.9909
X2.5219Y-5.0909
X2.6219Y-4.9909
X2.6219Y-5.0909
X2.7219Y-4.9909
X2.7219Y-5.0909
X2.8219Y-4.9909
X2.8219Y-5.0909
X2.9219Y-4.9909
X2.9219Y-5.0909
X3.0219Y-4.9909
X3.0219Y-5.0909
X3.1219Y-4.9909
X3.1219Y-5.0909
X3.2219Y-4.9909
X3.2219Y-5.0909
X3.3219Y-4.9909
X3.3219Y-5.0909
X3.4219Y-4.9909
X3.4219Y-5.0909
X3.5219Y-4.9909
X3.5219Y-5.0909
X3.6219Y-4.9909
X3.6219Y-5.0909
X3.7219Y-4.9909
X3.7219Y-5.0909
X3.8219Y-4.9909
X3.8219Y-5.0909
X3.9219Y-4.9909
X3.9219Y-5.0909
X4.0219Y-4.9909
X4.0219Y-5.0909
T6
X2.166Y-1.7376
X2.166Y-1.9344
X2.166Y-2.1313
X2.166Y-2.3281
X2.166Y-2.525
X2.166Y-2.7218
X5.9042Y-1.4403
X6.101Y-1.4403
X6.2979Y-1.4403
X6.4947Y-1.4403
X6.6916Y-1.4403
X6.8884Y-1.4403
T7
X3.6187Y-1.5171
X3.8156Y-1.5171
X7.8865Y-3.5958
X8.0833Y-3.5958
X7.8839Y-2.8071
X8.0807Y-2.8071
X4.479Y-3.771
X4.479Y-3.9679
X5.0164Y-3.775
X5.0164Y-3.9718
T8
X2.5321Y-2.6943
X3.418Y-2.6943
T9
X5.576Y-2.6858
X5.576Y-3.7157
X7.4358Y-2.6858
X7.4358Y-3.7157
T10
X8.0892Y-1.46
X5.1365Y-1.46
X8.0892Y-5.0033
X5.1365Y-5.0033
X2.1837Y-1.46
X2.1837Y-5.0033
T11
X2.975Y-2.6943
T0
M30
